<?xml version="1.0" encoding="utf-8"?>
<!-- Generator: Adobe Illustrator 23.0.4, SVG Export Plug-In . SVG Version: 6.00 Build 0)  -->
<svg version="1.1" id="Layer_1" xmlns="http://www.w3.org/2000/svg" xmlns:xlink="http://www.w3.org/1999/xlink" x="0px" y="0px"
	 viewBox="0 0 653 556" style="enable-background:new 0 0 653 556;" xml:space="preserve">
<style type="text/css">
	.st0{fill:#EE4351;}
</style>
<g>
	<path class="st0" d="M495.06,42.06c2.32-1.89,5.12-2.44,7.96-2.66c2.26-0.18,3.54-1.31,4.27-3.3c1.38-3.73,2.73-7.47,4.11-11.19
		c1.96-5.28,5.1-9.54,10.06-12.48c3.61-2.14,6.92-4.8,10.53-6.95c2.01-1.19,4.37-1.81,6.58-2.65c0.29-0.11,0.65-0.02,0.98-0.02
		c-0.17,0.35-0.34,0.7-0.52,1.04c-0.05,0.1-0.15,0.17-0.23,0.25c-5.83,5.05-8.79,11.74-10.85,18.95c-0.53,1.85-1.2,3.67-1.77,5.51
		c-0.09,0.28,0.01,0.62,0.01,0.94c0.3-0.06,0.67-0.04,0.9-0.2c1.03-0.71,2.14-1.36,3-2.25c4.87-5.04,10.89-7.28,17.78-7.36
		c3.63-0.04,6.8-1.35,10.05-2.85c5.41-2.5,11.01-2.34,16.48,0.1c0.38,0.17,0.65,0.61,0.96,0.92c-0.42,0.31-0.82,0.86-1.27,0.9
		c-8.43,0.67-13.32,6.8-18.71,12.11c-0.7,0.69-1.17,1.68-1.54,2.61c-0.32,0.8-0.36,1.72-0.53,2.59c0.74-0.35,1.5-0.68,2.22-1.06
		c3.49-1.87,7.11-1.73,10.52-0.13c5.46,2.55,10.79,5.36,16.12,8.17c1.07,0.56,2.07,1.48,2.76,2.47c2.13,3.08,4.16,6.24,6.11,9.44
		c1.7,2.78,1.68,5.48-0.38,8.23c-0.98,1.31-1.47,3.02-2.06,4.59c-0.51,1.38-0.81,2.83-1.28,4.23c-1.12,3.34-3.03,4.03-5.83,1.77
		c-2.22-1.79-4.69-2.12-7.32-2.28c-1.37-0.08-2.29,0.35-3.04,1.63c-1.15,1.95-2.56,3.75-3.89,5.6c-0.98,1.36-1.3,2.48,0.31,3.75
		c1.22,0.97,2.03,2.44,3.15,3.56c2.18,2.19,3.84,1.98,5.45-0.64c0.41-0.67,0.7-1.42,1.02-2.15c1.39-3.16,2.63-3.92,6.14-3.19
		c2.99,0.62,5.98,1.39,8.84,2.44c1.56,0.57,2.2,0.37,2.87-1.08c2.38-5.17,2.71-10.48,1.43-15.97c-0.44-1.88-0.83-3.78-0.99-5.7
		c-0.14-1.71,0.49-2.01,2.06-1.21c3.54,1.81,7.21,3.41,10.56,5.5c5.65,3.53,10.25,8.29,14.17,13.63
		c4.17,5.68,8.15,11.49,12.21,17.25c0.33,0.46,0.69,0.91,0.97,1.4c0.51,0.86,0.11,1.34-0.77,1.23c-1-0.12-2.04-0.32-2.95-0.73
		c-3.84-1.71-7.63-3.52-11.44-5.29c-0.82-0.38-1.61-0.86-2.46-1.19c-1.34-0.52-2.71-0.96-4.07-1.43c0.59,1.42,1.06,2.9,1.8,4.23
		c0.48,0.87,1.31,1.57,2.05,2.26c2.83,2.63,5.6,5.33,8.56,7.82c3.33,2.8,5.66,6.27,6.95,10.33c1.93,6.07,5.13,11.36,9.05,16.29
		c0.92,1.15,1.71,2.41,2.5,3.65c0.21,0.32,0.18,0.79,0.26,1.2c-0.4-0.11-0.83-0.16-1.21-0.33c-5.77-2.67-11.52-5.35-17.29-8.03
		c-0.31-0.14-0.65-0.25-0.98-0.29c-1.09-0.14-2.19-0.25-3.29-0.37c0.7,0.79,1.34,1.63,2.1,2.37c7.84,7.61,15.82,15.1,20.53,25.25
		c0.37,0.79,0.57,1.65,0.86,2.48c-0.69-0.48-1.43-0.9-2.08-1.43c-6.68-5.49-13.31-11.03-20.04-16.45c-1.05-0.84-2.52-1.16-3.8-1.71
		c0.26,1.3,0.44,2.63,0.81,3.91c0.85,2.94,1.73,5.88,2.7,8.79c2.51,7.55,7.61,13.4,12.86,19.08c5.44,5.89,8.72,12.94,11.5,20.3
		c0.32,0.84,0.52,1.75,0.6,2.64c0.57,6.45,1.1,12.9,1.61,19.36c0.03,0.41-0.18,0.84-0.28,1.26c-0.3-0.39-0.77-0.75-0.88-1.19
		c-2.35-9.74-7.68-17.88-13.71-25.64c-0.28-0.36-0.58-0.7-0.92-1.01c-0.81-0.75-1.62-2.08-2.77-1.28c-0.42,0.29-0.06,2.03,0.26,3.01
		c1.69,5.17,3.62,10.27,5.19,15.48c0.91,3.03,1.1,6.27,1.98,9.31c2.59,8.94,1.75,17.99,1.43,27.09c-0.26,7.37-0.07,14.8,0.62,22.14
		c0.4,4.22,2.21,8.3,3.37,12.44c0.11,0.4,0.07,0.83,0.11,1.25c-0.41-0.12-0.9-0.13-1.23-0.37c-5.41-3.78-10.82-7.58-15.11-12.68
		c-2.23-2.65-3.42-5.86-4.34-9.17c-0.24-0.87-0.47-1.75-0.74-2.62c-0.12-0.39-0.32-0.77-0.48-1.15c-0.03,0.34-0.09,0.68-0.1,1.01
		c-0.05,4.69,0.18,9.37,2.45,13.61c2.83,5.28,4.51,10.99,5.45,16.78c1.01,6.28,0.83,12.74-1.46,18.85
		c-1.83,4.89-4.08,9.62-5.88,14.51c-1.99,5.42-3.67,10.95-5.49,16.44c-0.12,0.35-0.29,0.68-0.44,1.02c-0.06-0.33-0.18-0.67-0.18-1
		c-0.03-5.23,0.42-10.52-0.19-15.69c-0.61-5.25-2.25-10.38-3.48-15.55c-0.09-0.38-0.52-0.67-0.79-1.01
		c-0.13,0.38-0.32,0.75-0.37,1.14c-0.41,3.38-0.77,6.76-1.2,10.14c-0.39,3.03-1.9,5.55-3.72,7.93c-1.45,1.9-2.89,3.8-4.25,5.76
		c-0.95,1.35-1.29,2.8-0.78,4.51c0.38,1.28,0.49,2.71,0.38,4.04c-0.59,7.48-1.24,14.96-1.98,22.43c-0.23,2.36-0.81,4.69-1.27,7.03
		c-0.04,0.22-0.41,0.38-0.63,0.56c-0.09-0.2-0.24-0.4-0.26-0.61c-0.2-2.04-0.48-4.08-0.53-6.12c-0.07-2.77-1.16-5.11-2.92-7.1
		c-2.18-2.47-4.56-4.76-6.83-7.15c-0.98-1.03-1.63-0.9-2.29,0.36c-2.55,4.87-1.88,9.9-1,15c0.44,2.55,0.8,5.15,0.77,7.72
		c-0.02,1.75-0.48,3.66-1.29,5.21c-2.15,4.13-4.59,8.1-6.93,12.13c-0.1,0.17-0.31,0.29-0.46,0.43c-0.15-0.25-0.44-0.51-0.42-0.74
		c0.68-7.74-3.43-13.68-7.42-19.65c-0.28-0.42-0.75-0.7-1.14-1.05c-0.17,0.42-0.4,0.83-0.49,1.27c-1.52,7.54-5.26,14.48-5.91,22.28
		c-0.26,3.14-1.13,6.25-1.93,9.32c-0.36,1.39-1.07,2.78-1.95,3.92c-3.39,4.42-6.9,8.74-10.38,13.09c-0.18,0.23-0.54,0.33-0.81,0.49
		c-0.16-0.36-0.46-0.72-0.47-1.09c-0.09-2.73,0.05-5.48-0.21-8.19c-0.25-2.58-0.81-5.15-1.4-7.68c-0.35-1.54-1.24-2.71-3.11-2.48
		c-1.78,0.22-2.02,1.56-2.16,2.98c-0.5,4.87-1.36,9.67-3.29,14.19c-1.82,4.25-3.04,8.8-6.16,12.42c-1.54,1.79-2.11,3.92-2.22,6.29
		c-0.09,2.02-0.57,4.03-1.01,6.02c-0.1,0.45-0.79,1.14-1.1,1.08c-0.55-0.09-1.29-0.58-1.45-1.07c-0.53-1.6-1.11-3.27-1.18-4.93
		c-0.3-7.28-0.36-14.58,1.58-21.69c1.05-3.85,0.77-7.66,0.26-11.5c-0.49-3.65-2.63-6.18-5.67-8.09c-2.36-1.48-2.34-1.57-0.83-3.87
		c0.38-0.57,0.82-1.09,1.21-1.65c1.36-2,1.47-3.54,0.4-5.03c-1.07-1.49-3.32-2.28-5.21-1.16c-2.19,1.31-4.25,3.03-5.93,4.95
		c-0.95,1.09-1.82,1.83-3.15,2.3c-4.07,1.45-8.11,2.96-12.11,4.59c-1.45,0.59-2.99,1.34-4.06,2.44c-1.73,1.79-3.91,2.23-6.1,2.75
		c-1.68,0.4-3.17-0.14-4.32-1.43c-3.02-3.39-6.06-6.76-8.99-10.23c-1.01-1.2-1.66-2.68-2.58-3.97c-0.5-0.7-1.09-1.49-1.82-1.85
		c-5.17-2.59-10.39-5.09-15.62-7.57c-0.41-0.19-1,0-1.51,0.02c0.07,0.54-0.04,1.21,0.24,1.59c0.75,0.99,1.62,1.89,2.54,2.74
		c2.55,2.35,5.79,4.05,6.97,7.68c0.15,0.45,0.78,0.94,1.27,1.04c2.27,0.47,3.44,2.27,4.43,3.97c1.63,2.81,2.84,5.87,4.28,8.79
		c0.34,0.7,0.91,1.28,1.32,1.94c1.13,1.83,2.19,3.7,3.35,5.51c0.58,0.91,1.16,1.99,2.03,2.5c1.07,0.62,1.46,1.39,1.45,2.46
		c-0.09,6.35,0.2,12.68-0.36,19.07c-0.61,6.87-0.47,13.9,0.29,20.76c1.07,9.69,2.98,19.3,4.56,28.93c0.57,3.44,0.49,6.81-0.84,10.06
		c-0.78,1.91-0.57,3.75-0.03,5.66c0.75,2.62,1.42,5.26,2.07,7.9c0.86,3.48,2.51,6.59,4.71,9.37c0.56,0.71,1.6,1.29,2.51,1.46
		c4.68,0.85,9.4,1.5,14.09,2.29c4.31,0.73,8.27,2.46,12.05,4.57c4.96,2.78,8.87,10.95,8.03,16.68c-0.11,0.73-0.6,1.4-0.92,2.1
		c-0.75-0.42-1.51-0.85-2.25-1.28c-0.09-0.05-0.16-0.17-0.2-0.27c-1.73-4.37-5.66-6.57-9.03-9.39c-2.7-2.25-5.61-3.43-9.06-3.18
		c-2.25,0.17-4.5,0.52-6.73,0.87c-0.3,0.05-0.53,0.61-0.79,0.93c0.28,0.14,0.55,0.38,0.84,0.42c7.93,1.07,13.02,6.83,18.34,11.77
		c4.08,3.79,5.1,9.26,3.9,14.85c-0.12,0.56-0.99,1.3-1.57,1.35c-3.06,0.26-6.13,0.35-9.2,0.43c-1.61,0.05-2.56-0.78-2.71-2.43
		c-0.03-0.34-0.11-0.68-0.12-1.02c-0.23-5.78-3.24-9.12-8.81-10.58c-2.87-0.75-4.1-3.4-5.2-5.92c-2.11-4.84-8.07-6.44-12.23-3.2
		c-0.47,0.37-0.71,1.03-1.06,1.56c0.48,0.23,0.93,0.57,1.44,0.67c3.66,0.68,6.46,2.67,8.74,5.52c0.71,0.89,1.38,1.82,2.16,2.64
		c3.89,4.12,3.54,8.82,1.99,13.73c-0.49,1.55-1.23,2.33-2.99,1.63c-1.58-0.63-3.33-0.86-4.83-1.61c-3.57-1.79-7.02-1.32-10.53,0.05
		c-2.21,0.86-4.43,1.71-6.67,2.52c-0.41,0.15-0.92,0.22-1.34,0.12c-3.99-0.97-7.88-2.2-11.17-4.81c-1.25-0.99-1.63-2.31-1.81-3.87
		c-0.29-2.57-0.7-5.16-1.35-7.66c-1.19-4.61-2.82-9.05-4.8-13.42c-1.62-3.57-2.28-7.58-3.38-11.4c-0.77-2.68-1.83-3.54-4-3.16
		c-0.62,0.11-1.53,0.41-1.72,0.87c-0.69,1.68-1.51,1.28-2.89,0.78c-4.81-1.73-7.06-5.06-7.03-10.1c0.03-6.81-2.89-12.76-5.46-18.83
		c-1.41-3.33-2.68-6.72-3.87-10.13c-1.87-5.35-3.52-10.78-5.45-16.11c-1.29-3.56-2.24-7.1-2.39-10.92
		c-0.14-3.51-0.83-6.99-1.2-10.49c-0.18-1.69-0.14-3.29,0.95-4.86c1.26-1.81,0.78-3.95,0.27-5.95c-0.28-1.1-0.73-2.15-1.09-3.23
		c-1.23-3.71-1.04-7.36,0.29-11.02c1.96-5.41,1.42-10.45-2.18-15.13c-0.68-0.88-0.92-2.28-0.95-3.45
		c-0.09-3.52,0.08-7.06,0.04-10.58c-0.05-5.39-1.63-7.62-6.74-9.33c-3.24-1.08-6.45-2.13-9.4-3.93c-1.12-0.68-2.56-1.08-3.87-1.16
		c-4.52-0.27-8.66-1.87-12.8-3.44c-4.45-1.69-7.12-5.52-10.19-8.87c-2.3-2.5-4.68-4.94-7.11-7.31c-1.55-1.5-3.29-2.8-4.9-4.24
		c-7.84-7.04-16.71-12.06-27.12-14.29c-4.64-1-9.18-2.49-13.77-3.73c-0.39-0.11-0.84,0.02-1.27,0.04c0.24,0.43,0.39,1.13,0.73,1.25
		c6.48,2.24,11.34,7.43,18.04,9.47c5.46,1.66,10.03,5.36,14.02,9.47c3.99,4.11,8.21,7.75,13.46,10.28c2.58,1.25,4.92,3.33,6.89,5.47
		c5.99,6.54,13.82,9.7,21.82,12.78c3.78,1.45,7.31,3.61,10.77,5.74c0.77,0.47,1.03,2.16,1.11,3.31c0.33,5.22,0.49,10.44,0.77,15.67
		c0.05,0.9,0.22,1.82,0.54,2.66c1.25,3.34,2.35,6.65,1.01,10.26c-0.26,0.69-0.2,1.67,0.09,2.35c1.17,2.72,0.58,5.35-0.1,8.01
		c-1.01,3.97-1.94,7.95-3.07,11.88c-0.49,1.71-1.05,1.78-2.34,0.56c-3.48-3.28-5.91-7.25-7.11-11.85
		c-1.97-7.58-3.96-15.18-4.26-23.08c-0.01-0.34-0.05-0.68-0.1-1.02c-0.38-2.33-0.46-2.29-2.47-1.04
		c-6.71,4.2-11.04,10.03-12.46,17.9c-0.04,0.22-0.14,0.43-0.21,0.65c-0.54,1.69-0.74,1.78-1.81,0.55c-1.12-1.29-2.25-2.59-3.17-4.01
		c-4.3-6.65-5.42-13.87-3.64-21.55c0.46-1.99,1.15-3.93,1.52-5.94c0.4-2.18-0.08-2.55-2.29-2.28c-1.24,0.15-2.49,0.3-3.74,0.26
		c-7.09-0.2-12.41,3.07-16.71,8.39c-0.43,0.53-0.75,1.16-1.24,1.63c-0.65,0.63-1.4,1.14-2.11,1.71c-0.05-0.98-0.38-2.04-0.1-2.91
		c0.52-1.58,1.32-3.09,2.16-4.54c0.79-1.37,1.94-2.55,2.63-3.96c2.69-5.51,5.25-11.08,7.87-16.63c0.19-0.41,0.38-0.83,0.57-1.24
		c1.81-3.79,0.46-4.59-3.25-4.69c-2.82-0.08-4.92,1.38-6.28,3.95c-2.8,5.28-7.42,8.39-13.08,9.53c-3.37,0.67-7.01,0.53-10.45,0.11
		c-4.26-0.52-8.4-2.03-12.8-1.53c-1.65,0.19-1.66-0.65-1.1-1.84c0.68-1.44,1.3-2.9,1.98-4.34c0.91-1.93,2.39-2.85,4.59-2.92
		c6.94-0.22,11.16-4.39,14.24-10.1c0.37-0.7,0.6-1.47,0.89-2.21c1.07-2.71,1.02-3.01-1.72-3.22c-2.12-0.16-4.36-0.14-6.39,0.37
		c-5.16,1.31-10.23,2.83-14.95,5.54c-4.77,2.74-9.9,2.1-14.78-0.11c-2.58-1.17-5.02-2.65-7.56-3.93c-2.23-1.13-4.49-2.17-6.74-3.26
		c-0.36-0.17-0.71-0.38-1.06-0.57c0.25-0.22,0.47-0.5,0.76-0.64c2.96-1.43,5.93-2.83,8.89-4.26c2.93-1.41,5.31-3.44,7.2-6.12
		c1.17-1.67,2.59-3.16,3.88-4.74c1.32-1.62,1.07-2.63-1.02-3.09c-2.46-0.54-4.95-0.6-7.35,0.5c-1.65,0.76-3.3,1.55-5.02,2.12
		c-3.18,1.06-6.05,2.54-8.35,5.06c-1.63,1.78-3.73,2.31-6.16,2.34c-5.41,0.05-10.14-2.33-15.1-3.9c-1.73-0.55-3.39-1.31-5.05-2.02
		c-0.27-0.11-0.42-0.5-0.63-0.76c0.25-0.18,0.47-0.45,0.75-0.53c4.25-1.14,7.85-4.04,12.46-4.38c1.5-0.11,3.25-1.29,4.28-2.5
		c1.75-2.05,3.16-4.44,4.45-6.83c0.94-1.75,0.37-2.46-1.67-2.5c-2.56-0.05-4.95,0.52-7.1,1.98c-1.41,0.96-2.82,1.92-4.32,2.73
		c-3.86,2.07-7.92,3.38-12.4,3c-1.35-0.11-2.75-0.02-4.08,0.22c-2.46,0.45-3.25,0.45-2.55-2.9c0.8-3.86,3.55-6.52,6.16-9.21
		c1.58-1.63,3.47-2.98,4.91-4.72c1.04-1.26,1.71-2.9,2.28-4.47c0.38-1.04-0.2-1.7-1.46-1.58c-6.44,0.63-12.96,0.84-19.31,1.95
		c-6.35,1.11-12.66,2.77-18.77,4.83c-3.22,1.09-6.05,3.45-8.92,5.43c-1.58,1.09-2.82,2.64-4.32,3.87c-1.45,1.18-2.46,2.58-3.18,4.32
		c-1.38,3.34-3.89,5.64-6.74,7.9c-4.97,3.93-9.68,8.27-14.09,12.83c-3.2,3.32-4.42,7.86-5.68,12.26c-0.78,2.72-1.54,5.5-2.78,8.02
		c-3.67,7.44-7.43,14.84-11.42,22.1c-3.52,6.41-8.52,11.49-15.1,14.85c-0.9,0.46-1.88,1.09-2.83,1.1c-5.12,0.07-8.96,2.7-12.63,5.86
		c-5.08,4.37-10.25,8.65-15.38,12.98c-2.52,2.13-5.03,4.25-8.23,5.37c-2.31,0.81-3.64,2.69-4.52,4.84
		c-2.2,5.35-4.22,10.78-6.48,16.1c-1.64,3.86-3.43,7.67-5.38,11.38c-0.88,1.68-2.15,3.2-3.47,4.57c-2.56,2.66-3.35,6.13-4.69,9.36
		c-1.39,3.34-2.64,6.75-4.34,9.92c-1.76,3.29-2.73,6.7-3.04,10.37c-0.08,1-0.09,2.4-1.65,1.78c-3.31-1.31-6.74-0.8-10.12-1.01
		c-2.72-0.17-2.71-0.16-2.44-3.03c0.08-0.79,0.21-1.59,0.18-2.38c-0.2-6.95,1.15-13.55,4.29-19.78c0.3-0.61,0.56-1.26,0.68-1.92
		c0.13-0.66,0.07-1.36,0.09-2.05c-0.69,0.35-1.4,0.66-2.05,1.06c-0.26,0.16-0.51,0.51-0.56,0.81c-1.04,6.52-4.93,11.9-7.22,17.91
		c-0.93,2.44-2.31,4.74-2.96,7.25c-0.75,2.92-3.96,3.88-6.4,4c-2.13,0.1-4.26,0.27-6.37,0.55c-0.6,0.08-1.56,0.57-1.64,1.01
		c-0.48,2.45-3.11,3.18-4,5.31c-0.46,1.11-4.08,1.11-4.76,0.11c-0.17-0.25-0.09-0.98,0.14-1.17c3.81-3.19,5.94-8.38,11.73-9.3
		c1.75-0.28,3.53-1.65,4.49-3.74c1.23-2.67,2.98-5.09,4.42-7.67c2.05-3.69,3.55-7.57,4.42-11.76c0.6-2.85,2-5.53,2.93-8.32
		c0.68-2.03,1.23-4.12,1.76-6.2c0.83-3.29,1.51-6.62,2.41-9.9c1.38-5.03,2.9-10.03,4.35-15.04c0.76-2.66,1.74-5.26,3.93-7.03
		c1.46-1.18,3.26-1.94,4.94-2.82c0.12-0.06,0.69,0.39,0.79,0.69c0.18,0.53,0.08,1.14,0.23,1.68c0.24,0.9,0.59,1.77,0.89,2.65
		c0.73-0.66,1.59-1.23,2.18-2.01c2.76-3.63,3.97-7.91,4.64-12.31c1.57-10.25,4.94-19.84,10.63-28.5
		c4.89-7.45,8.73-15.41,12.43-23.46c0.98-2.13,1.78-4.52,1.91-6.84c0.31-5.9,2.56-11.27,4.04-16.85c0.55-2.06,1.22-4.21,1.12-6.28
		c-0.29-5.65,1.19-10.78,3.59-15.78c1.08-2.25,2.17-4.53,2.91-6.9c0.78-2.47,1.65-5.08,1.6-7.62c-0.16-7.29,1.99-13.88,5.23-20.24
		c1.34-2.63,2.77-5.22,4.03-7.89c1.31-2.76,2.36-5.65,3.74-8.37c1.99-3.95,4.08-7.85,6.29-11.68c0.83-1.43,1.45-2.76,1.32-4.45
		c-0.12-1.7-0.01-3.41-0.05-5.12c-0.2-9.16,2.27-17.41,7.85-24.8c3.38-4.48,7.09-8.57,11.37-12.18c9.47-8,18.88-16.07,28.3-24.12
		c1.92-1.64,3.98-2.68,6.5-3.4c2.85-0.82,5.34-2.89,8.01-4.38c1.86-1.04,3.75-2.05,5.65-3.02c1.82-0.93,3.73-1.69,5.48-2.72
		c3.42-2.01,7.07-2.84,11.03-3.08c8.85-0.52,17.68-1.26,26.5-2.05c1.78-0.16,3.49-0.96,5.25-1.4c0.39-0.1,0.85,0.06,1.28,0.11
		c-0.06,0.41,0.01,0.89-0.19,1.21c-0.9,1.44-1.84,2.88-2.84,4.25c-4.71,6.42-9.42,12.84-14.19,19.22c-1.63,2.18-3.42,4.25-5.21,6.31
		c-2.96,3.41-6.44,6.02-10.87,7.32c-5.91,1.73-9.41,6.29-12.07,11.4c-2.24,4.32-3.85,8.96-5.79,13.44
		c-1.94,4.49-3.9,8.96-5.91,13.41c-1.94,4.29-2.95,8.8-3.39,13.46c-0.14,0.14-0.28,0.28-0.43,0.42c0.09,0.05,0.19,0.11,0.28,0.16
		c0.03-0.21,0.06-0.41,0.09-0.62c2.58-4.64,5.16-9.29,7.75-13.93c1.88-3.38,3.69-6.8,5.72-10.09c0.93-1.51,2.37-2.68,3.47-4.1
		c1.18-1.51,2.26-3.1,3.32-4.7c4.44-6.72,10.76-11.37,17.46-15.5c3.2-1.97,5.71-4.48,7.78-7.5c1.47-2.16,3.01-4.33,4.09-6.68
		c2.12-4.6,5.14-8.54,8.36-12.38c0.66-0.78,1.45-1.54,1.82-2.45c1.26-3.07,3.69-4.66,6.58-5.96c5.6-2.51,10.98-5.54,16.69-7.74
		c5.94-2.29,12.14-3.48,18.68-2.92c6.55,0.56,13.16,0.68,19.73,0.58c4.92-0.07,9.54-1.58,13.94-3.97
		c7.56-4.11,15.69-6.53,24.32-7.15c7.52-0.54,14.93-1.52,21.75-5.13c1.69-0.89,3.63-1.31,5.48-1.86c0.6-0.18,1.27-0.1,1.91-0.15
		c-0.13,0.63-0.16,1.31-0.42,1.89c-1.67,3.74-3.43,7.43-5.06,11.19c-0.6,1.4-1.45,2.24-2.98,2.41c-6.13,0.71-11.99,2.44-17.8,4.5
		c-2.76,0.98-5.82,1.04-8.64,1.88c-5.22,1.57-10.49,3.09-15.49,5.22c-5.56,2.36-11.26,2.68-17.05,2.3
		c-7.83-0.51-15.63-1.43-23.45-2.06c-1.31-0.11-2.69,0.25-3.99,0.57c-0.38,0.1-0.87,0.82-0.85,1.23c0.03,0.41,0.58,1.04,1,1.13
		c2.55,0.56,5.11,1.21,7.7,1.43c6.56,0.56,13.11,1.53,19.72,0.31c1.98-0.37,4.12-0.31,6.13-0.01c6.29,0.95,12.17-0.87,18.12-2.3
		c4.2-1.01,8.36-2.19,12.61-2.93c2.3-0.4,4.74-0.03,7.11-0.05c2.82-0.02,5.69,0.19,8.46-0.21c4.02-0.59,7.98-1.64,11.97-2.47
		c0.29-0.06,0.62,0.02,0.93,0.03c-0.05,0.42,0,0.87-0.15,1.24c-1.35,3.37-2.81,6.7-4.1,10.1c-0.8,2.12-1.38,4.33-2,6.51
		c-0.21,0.75-0.16,1.33,0.96,0.9c2.62-1.01,4.52-2.58,4.89-5.55c0.11-0.9,0.43-1.78,0.47-2.68c0.52-9.67,4.88-17.85,10.05-25.67
		c2.63-3.99,5.58-7.72,5.93-12.8c0.13-1.91,1.62-3.36,3.48-3.86c6.35-1.68,9.16-6.29,10.39-12.23c0.62-3,2.1-5.48,4.13-7.71
		c3.45-3.77,6.58-7.86,11.04-10.58c1.05-0.64,0.34-1.08-0.33-1.29c-4.92-1.59-9.68-0.97-14.19,1.37c-2.01,1.04-3.81,2.47-5.73,3.68
		c-0.31,0.19-0.77,0.16-1.16,0.22c0.12-0.4,0.13-0.9,0.38-1.18c1.29-1.43,2.69-2.78,3.97-4.22c0.65-0.74,1.42-1.55,1.65-2.45
		c0.75-2.9,2.41-5.2,4.62-7.01c3.42-2.81,6.97-5.48,10.59-8.03c2.3-1.62,4.93-2.32,7.77-1.45c0.97,0.3,1.68,0.13,2.35-0.76
		c2.24-3.01,4.6-5.93,6.84-8.94c0.27-0.36,0.21-1.49,0-1.58c-2.79-1.22-5.55-2.72-8.49-3.33c-3.49-0.72-6.73,0.57-9.36,3.1
		c-1.3,1.26-2.62,2.49-3.94,3.74c-0.09-0.07-0.17-0.15-0.26-0.22c1.73-4.61,9.03-13.54,13.18-15.6c3.65-1.81,7.4-3.5,11.27-4.78
		c6.5-2.15,13.18-2.01,19.84-0.58c0.31,0.07,0.63,0.06,0.94,0.09c-0.09-0.3-0.1-0.68-0.29-0.89c-2.43-2.7-4.74-5.53-7.38-8.01
		c-2.7-2.54-6.21-2.86-9.62-1.94c-4.84,1.3-9.39,0.76-13.98-1.02c-2.74-1.06-5.63-1.74-8.45-2.6c-0.42-0.13-0.83-0.31-1.24-0.47
		c0.41-0.12,0.82-0.28,1.24-0.35c4.02-0.71,8.06-1.29,12.05-2.14c3.05-0.65,5.42-2.42,7.73-4.63c3.45-3.3,7.59-5.86,12.7-5.66
		c7,0.28,13.34,2.47,18.79,6.99c1.97,1.64,2.05,1.63,3.12-0.49c1.33-2.64,2.65-5.28,3.91-7.94c1.28-2.7,2.13-5.51,1.56-8.56
		c-0.06-0.32-0.02-0.66-0.03-0.99c0.34,0.23,0.76,0.39,1.02,0.69c2.2,2.64,3.95,5.54,4.99,8.84c1.33,4.22,2.64,8.44,3.98,12.66
		c0.09,0.29,0.29,0.54,0.44,0.81c0.24-0.19,0.57-0.33,0.7-0.58c0.86-1.6,1.76-3.19,2.48-4.85c1.37-3.12,3.56-5.42,6.28-7.44
		c4.65-3.45,9.1-7.17,13.65-10.76c0.32-0.25,0.75-0.36,1.13-0.54c-0.07,0.42-0.05,0.88-0.22,1.26c-0.91,2.08-1.87,4.13-2.81,6.2
		c-1.1,2.43-2.62,4.49-4.96,5.9c-3.13,1.88-4.25,4.76-4.32,8.34c-0.08,3.61-0.38,7.25-0.91,10.82c-0.3,1.98-1.28,3.85-1.95,5.77
		c-0.25,0.24-0.49,0.48-0.74,0.72c-0.21,0.47-0.42,0.95-0.63,1.42c-0.22,0.46-0.44,0.91-0.66,1.37c-0.24,0.46-0.47,0.91-0.71,1.37
		c-0.06,0.08-0.12,0.16-0.17,0.24c-0.04,0.07-0.06,0.15-0.1,0.23c0.07-0.18,0.14-0.35,0.21-0.53c0.23-0.46,0.46-0.92,0.69-1.37
		c0.22-0.45,0.45-0.91,0.67-1.36c0.21-0.47,0.42-0.95,0.62-1.42C494.57,42.54,494.81,42.3,495.06,42.06z M182.28,186.85
		c0.06-0.06,0.11-0.12,0.17-0.17c-0.03,0.08-0.07,0.16-0.1,0.24c-0.24,0.23-0.47,0.46-0.71,0.69c-1.14,0.68-2.4,1.22-3.42,2.05
		c-7.66,6.26-15.07,12.85-22.97,18.79c-4.4,3.31-7.46,7.15-9.2,12.28c-1.33,3.93-3.64,7.3-6.53,10.28c-1.11,1.14-2.1,2.39-3.12,3.61
		c-2.76,3.3-3.68,7.24-3.85,11.41c-0.08,2.09,0.38,2.46,2.45,1.66c2.42-0.94,4.73-2.18,7.07-3.32c1.75-0.85,3.66-1.96,5.49-1.01
		c2.26,1.18,4.54,2.63,6.24,4.49c2.28,2.5,4.13,5.43,5.96,8.3c2.32,3.65,4.07,7.53,5.08,11.83c0.63,2.68,2.36,5.11,3.71,7.59
		c0.12,0.23,1.27,0.24,1.54-0.04c0.42-0.44,0.63-1.2,0.7-1.84c0.45-4.06,0.9-8.13,1.18-12.21c0.06-0.89-0.36-2.02-0.94-2.72
		c-2.17-2.59-2.91-5.6-3.03-8.86c-0.43-11.99,0.53-23.86,3.02-35.6c2.02-9.51,5.01-18.63,10.56-26.75
		C181.82,187.32,182.05,187.08,182.28,186.85z M276.58,210.17c-0.23-0.01-0.49-0.11-0.67-0.03c-9.85,4.48-18.51,10.23-22.51,20.98
		c-2.55,6.85-5.84,13.31-10.34,19.11c-0.83,1.07-1.71,2.17-2.78,2.96c-1.39,1.02-2.83,0.19-2.66-1.51c0.12-1.22,0.51-2.45,1-3.58
		c1.09-2.5,2.31-4.94,3.5-7.39c2.03-4.18,2.21-8.58,1.28-12.99c-0.53-2.53-0.59-4.93,0.06-7.4c0.92-3.51,1.86-7.02,2.72-10.55
		c0.18-0.75,0.09-1.56,0.12-2.34c-0.67,0.25-1.35,0.48-2.02,0.74c-1.27,0.5-2.49,1.15-3.8,1.48c-1.82,0.45-2.95,1.53-3.77,3.14
		c-3.05,5.97-6.14,11.92-9.21,17.88c-1.54,3-2.11,6.21-2.08,9.56c0.04,5.12-0.02,10.23,0.06,15.35c0.04,2.73-0.9,4.75-3.28,6.28
		c-2.28,1.47-4.4,3.22-6.47,4.99c-0.59,0.51-1.16,1.59-1.04,2.29c0.54,3.24,1.27,6.46,2.06,9.65c0.35,1.4,1.18,1.61,2.53,0.67
		c1.58-1.1,3.13-2.27,4.56-3.56c1.51-1.35,3.15-2.16,5.18-2.26c2.96-0.14,5.44-1.48,7.69-3.29c0.62-0.5,1.15-1.14,1.83-1.52
		c0.38-0.21,1.25-0.23,1.45,0.02c2.63,3.38,5.24,6.78,7.71,10.27c0.97,1.38,1.47,3.08,2.38,4.51c2.04,3.18,2.35,6.6,1.59,10.16
		c-0.57,2.66-1.37,5.26-2.04,7.9c-0.06,0.24,0.08,0.54,0.12,0.81c0.18-0.14,0.4-0.25,0.53-0.42c3.23-4.39,6.62-8.69,8.29-14.01
		c0.37-1.19,0.79-2.37,1.2-3.55c0.41-1.17,1.02-1.05,1.62-0.17c0.51,0.74,0.91,1.57,1.41,2.32c0.75,1.11,1.37,2.39,2.35,3.24
		c3.92,3.38,8.55,5.45,13.48,6.91l0.08,0.22l-0.14-0.17c-1.02-4.98-0.14-9.69,1.92-14.26c0.47-1.03,1.04-2.08,1.21-3.17
		c0.16-1.06-0.13-2.19-0.22-3.29c-1.03,0.26-2.13,0.37-3.07,0.81c-0.91,0.42-1.64,1.21-2.49,1.78c-0.94,0.63-1.87,1.31-2.9,1.76
		c-2.33,1.02-3.48,0.32-3.52-2.2c-0.04-3.41-0.13-6.85,0.22-10.23c0.25-2.33,0.73-4.88,1.95-6.8c3.99-6.32,6.57-13.2,8.98-20.18
		c1.29-3.74,3.43-6.91,6.53-9.39c0.44-0.36,0.91-0.69,1.3-1.1c0.2-0.21,0.26-0.57,0.39-0.86c-0.22-0.05-0.44-0.16-0.65-0.14
		c-3.82,0.18-7.53,0.62-9.8,4.35c-0.53,0.87-1.24,1.63-1.82,2.47c-5.85,8.52-12.21,16.72-16.74,26.09c-0.15,0.31-0.3,0.64-0.55,0.86
		c-0.72,0.63-1.6,1.78-2.2,1.66c-0.76-0.16-1.39-1.31-1.91-2.14c-0.34-0.55-0.52-1.28-0.56-1.94c-0.32-5.3,0.15-10.4,3-15.12
		c1.34-2.21,2.47-4.64,3.21-7.11c1.62-5.4,4.11-10.3,7.21-14.98c2.94-4.44,5.64-9.04,8.45-13.57c0.04-0.06,0.08-0.13,0.12-0.19
		C276.62,210.01,276.6,210.09,276.58,210.17z M529.23,263.35c0.8-0.43,1.57-0.93,2.41-1.26c0.59-0.24,1.26-0.25,1.89-0.36
		c-0.13,0.61-0.15,1.28-0.41,1.83c-1.48,3.07-3.28,6.01-4.47,9.18c-2.34,6.27-4.38,12.65-6.48,19.01c-0.35,1.05-0.65,2.3-0.4,3.31
		c0.24,0.94,1.08,2.05,1.95,2.42c1.2,0.51,2.05-0.56,2.61-1.63c2.25-4.33,4.64-8.58,6.71-12.99c3.07-6.56,7.27-12.32,11.98-17.74
		c2.42-2.79,4.14-5.91,5.51-9.33c1.13-2.82,2.6-5.51,4.1-8.16c1.56-2.74,3.27-5.28,3.65-8.62c0.54-4.83,3.06-8.4,7.83-10.26
		c1.26-0.49,2.73-1.61,3.19-2.8c1.09-2.82,1.8-5.81,2.34-8.8c0.31-1.74-0.29-2.13-1.92-1.59c-1.04,0.34-2.07,0.94-2.89,1.67
		c-1.01,0.89-1.8,2.04-2.71,3.06c-0.35,0.4-0.75,0.76-1.13,1.14c-0.13-0.6-0.42-1.22-0.37-1.81c0.15-1.81,0.53-3.6,0.63-5.41
		c0.56-10.07,3.27-19.43,9.1-27.77c3.98-5.69,6.45-11.97,7.19-18.88c0.32-3.05,0.58-6.11,0.65-9.17c0.06-2.41-0.16-2.42-2.14-1.26
		c-1.96,1.14-3.97,2.19-6,3.2c-0.86,0.43-1.35-0.05-1.16-0.93c0.96-4.31,1.91-8.62,2.99-12.9c0.99-3.94,2.63-7.78,3.1-11.77
		c0.62-5.29,0.21-10.69-1.35-15.87c-2.13-7.08-4.36-14.15-10.93-18.64c-0.69-1.75-1.18-3.63-2.14-5.22
		c-0.83-1.38-2.18-2.47-3.34-3.64c-0.19-0.19-0.58-0.18-0.87-0.26c0.03,0.3-0.05,0.68,0.11,0.88c2.08,2.74,4.19,5.47,6.3,8.19
		c0.31,0.59,0.5,1.3,0.95,1.76c1.75,1.81,2.7,3.91,2.69,6.43c-0.01,1.31-0.08,2.62-0.12,3.94c-1.11-0.65-2.3-1.2-3.31-1.97
		c-4.44-3.36-8.81-6.82-13.27-10.16c-0.72-0.54-1.78-0.61-2.68-0.89c0.1,0.98-0.03,2.05,0.34,2.91c0.72,1.66,1.79,3.16,2.61,4.78
		c3.49,6.84,4.97,14.22,2.25,21.39c-1.79,4.72-4.28,9.48-7.99,13.27c-0.08,0.08-0.14,0.2-0.23,0.25c-0.46,0.28-0.92,0.54-1.38,0.81
		c-0.15-0.52-0.31-1.03-0.44-1.55c-1.07-4.52-1.6-9.27-3.37-13.5c-1.55-3.71-1.55-7.23-1.27-10.96c0.17-2.26,0.37-4.51,0.51-6.77
		c0.03-0.47-0.16-0.96-0.25-1.43c-0.18,0.4-0.4,0.79-0.54,1.2c-0.74,2.2-1.75,4.25-3.86,5.42c-0.72,0.4-1.67,0.38-2.51,0.56
		c-0.09-0.77-0.31-1.55-0.26-2.31c0.21-3.05,0.67-6.1,0.73-9.15c0.1-5.57-2.94-9.94-6.17-14.03c-0.87-1.1-2-2-2.61-3.37
		c-1.28-2.89-2.01-3.16-4.45-1.08c-4.8,4.09-10.39,4.42-16.1,3.32c-2.62-0.51-4.8-0.16-6.74,1.3c-1.98,1.49-3.78,3.27-5.44,5.12
		c-1.91,2.13-4.18,3.06-6.97,2.83c-0.51-0.04-0.99-0.28-1.49-0.43c0.36-0.41,0.64-0.95,1.08-1.21c5.81-3.36,9.16-8.7,11.82-14.59
		c0.14-0.31,0.26-0.63,0.42-0.93c1.48-2.83,2.33-3.3,5.46-2.73c1.22,0.22,2.39,0.73,3.61,0.99c1.69,0.37,3.33,0.46,4.86-0.73
		c4.62-3.6,6.82-10.61,5.03-16.24c-0.85-2.67-1.66-3.17-4.21-1.96c-2.14,1.02-4.06,2.48-6.11,3.69c-0.51,0.3-1.18,0.34-1.77,0.49
		c-0.03-0.55-0.17-1.12-0.07-1.64c0.51-2.68,1.17-5.33,1.6-8.02c0.4-2.48-0.53-3.29-2.84-2.28c-1.73,0.75-3.52,1.81-4.75,3.2
		c-4.73,5.35-9.64,10.61-12.54,17.32c-0.76,1.76-1.79,3.42-2.78,5.07c-0.25,0.41-0.81,0.63-1.23,0.94
		c-0.09-0.44-0.19-0.88-0.26-1.33c-0.74-5.06-1.5-10.11-4.59-14.41c-0.92-1.28-1.1-2.64-0.96-4.19c0.22-2.46-0.17-2.96-2.52-3.63
		c-0.97-0.28-2.01-0.34-3.02-0.47c-3.14-0.4-6.29-0.81-9.44-1.16c-3.63-0.41-7.25-0.75-10.73,0.85c-1.09,0.5-1.7,1.14-2.12,2.38
		c-0.94,2.76-2.13,5.46-3.52,8.02c-0.51,0.93-1.9,2.02-2.84,1.97c-3.21-0.16-4.49,1.99-5.56,4.23c-1.47,3.06-2.66,6.26-3.85,9.45
		c-0.65,1.74-1.25,3.39-3.06,4.31c-1.24,0.63-1.57,1.7-1.37,3.14c0.16,1.16,0.15,2.49-0.28,3.54c-1.03,2.51-2.28,4.92-2.55,7.68
		c-0.15,1.48-1.09,1.44-1.76,0.54c-0.94-1.25-1.6-2.72-2.34-4.11c-0.8-1.49-1.18-1.59-1.93-0.05c-2.58,5.31-5.07,10.67-7.49,16.05
		c-0.5,1.11-0.62,2.43-0.72,3.67c-0.05,0.61,0.33,1.25,0.51,1.88c0.52-0.3,1.09-0.55,1.56-0.91c0.75-0.56,1.44-1.2,2.15-1.8
		c-0.28,0.95-0.5,1.92-0.85,2.84c-0.32,0.84-0.78,1.64-1.19,2.45c-3.26,6.32-7.54,11.92-12.51,16.96c-2.64,2.67-4.32,5.78-5.56,9.25
		c-2.1,5.88-4.36,11.71-6.42,17.6c-1.01,2.88-1.87,5.83-2.52,8.81c-0.33,1.5-0.52,3.58,1.04,4.38c1.8,0.93,3.06-0.85,4.29-1.98
		c2.34-2.16,4.61-4.38,6.99-6.5c0.63-0.57,1.53-0.84,2.3-1.25c-0.23,0.81-0.37,1.66-0.73,2.41c-0.72,1.54-1.55,3.03-2.33,4.55
		c-2.3,4.49-3.15,9.32-2.42,14.24c0.73,4.93,1.96,9.79,3.01,14.67c0.08,0.36,0.41,0.66,0.63,0.99c0.25-0.35,0.61-0.66,0.74-1.05
		c2.1-6,4.1-12.04,6.29-18c0.69-1.89,1.84-3.61,2.87-5.36c0.17-0.29,0.96-0.56,1.13-0.42c0.36,0.29,0.74,0.87,0.71,1.3
		c-0.23,3.51-0.37,7.04-0.89,10.51c-1.39,9.4-4.37,18.3-8.53,26.87c-1.78,3.66-2.81,7.6-1.69,11.87c0.4,1.53,0.23,3.55-0.46,4.96
		c-1.44,2.94-1.08,5.78-0.23,8.6c0.74,2.47,1.8,4.87,2.98,7.17c0.35,0.68,1.57,0.91,2.39,1.35c0.1-0.82,0.36-1.66,0.28-2.46
		c-0.27-2.71-0.91-5.4-0.95-8.11c-0.12-7.67,2.18-14.53,7.49-20.24c2.71-2.91,4.62-6.31,5.01-10.25c0.64-6.43,3.8-12.11,5.16-18.31
		c0.1-0.44,0.57-0.81,0.86-1.21c0.22,0.51,0.63,1.02,0.64,1.53c0.09,4.56,0.1,9.05-2.64,13.11c-1.57,2.33-3.19,4.87-3.8,7.54
		c-1.08,4.73-1.91,9.64-1.93,14.47c-0.02,6.69,0.52,13.41,1.39,20.04c0.38,2.92,2.14,5.66,3.32,8.47c0.11,0.27,0.49,0.43,0.75,0.64
		c0.2-0.34,0.51-0.66,0.57-1.02c0.17-1.01,0.19-2.04,0.37-3.05c0.5-2.79,0.61-5.75,1.67-8.31c1.97-4.71,3.78-9.43,5.02-14.38
		c0.24-0.95,0.81-1.81,1.22-2.72c0.54,0.95,1.27,1.85,1.57,2.87c0.24,0.8-0.03,1.76-0.1,2.64c-0.16,1.91-0.58,3.83-0.48,5.72
		c0.34,6.46,0.95,12.91,1.25,19.37c0.12,2.67,0.62,5.17,1.75,7.56c0.26,0.55,0.71,1.01,1.08,1.51c0.34-0.43,0.8-0.82,1.02-1.31
		c2.23-5.07,5.21-9.93,4.53-15.83c-0.04-0.33,0-0.69,0.09-1.01c0.08-0.29,0.29-0.54,0.44-0.8c0.32,0.25,0.87,0.46,0.91,0.75
		c0.27,2.01,0.6,4.03,0.61,6.05c0.01,6.93-0.38,13.88,1.58,20.67c0.58,2,1.42,3.78,3.12,5.15c4.86,3.93,9.65,7.95,14.48,11.92
		c0.51,0.42,1.11,0.74,1.67,1.11c-0.03-0.63-0.06-1.26-0.1-1.89c-0.09-1.58-0.45-3.21-0.21-4.74c0.77-4.93,1.75-9.83,2.66-14.74
		c0.04-0.21,0.19-0.4,0.28-0.6c0.17,0.22,0.42,0.42,0.51,0.68c1.89,5.71,3.73,11.43,5.68,17.12c0.54,1.59,1.17,3.23,2.15,4.57
		c1.69,2.33,1.9,2.26,4.31,0.64c7.68-5.15,15.83-9.38,24.42-12.76c0.51-0.2,1.09-0.24,1.63-0.36c-0.04,0.63,0.11,1.34-0.14,1.87
		c-2.16,4.75-3.01,9.77-2.99,14.94c0.01,1.86,0.45,3.71,0.7,5.57c0.62-1.69,1.2-3.4,1.87-5.07c1.76-4.42,2.93-9.06,5.84-13.01
		c2.21-3,4.3-6.18,5.85-9.55c3.2-6.95,6.81-13.62,11.17-19.9c6.15-8.84,10.97-18.33,13.99-28.7c0.19-0.64,0.45-1.32,0.87-1.83
		c0.31-0.38,0.97-0.76,1.4-0.69c0.42,0.07,1.04,0.69,1.06,1.1c0.08,1.34,0.08,2.72-0.14,4.05c-1.75,10.58-5.8,20.28-11.3,29.43
		c-0.58,0.96-0.98,2.02-1.47,3.03l-0.14,0.07L529.23,263.35z M437.31,414.92c0.57,0.03,1.14,0.08,1.7,0.08
		c2.62,0,3.03-0.43,2.73-2.99c-0.09-0.78-0.31-1.57-0.62-2.28c-0.91-2.08-1.89-4.13-2.84-6.19c-2.2-4.73-4.76-9.32-6.51-14.21
		c-2.24-6.27-4.87-12.22-9.11-17.41c-2.01-2.46-3.75-5.13-5.61-7.71c-1.33-1.83-2.55-3.76-4.03-5.47c-2.33-2.7-4.36-5.56-5.51-8.95
		c-1.16-3.44-2.19-6.92-3.3-10.37c-0.12-0.36-0.33-0.69-0.5-1.04c-0.21,0.38-0.58,0.74-0.6,1.13c-0.12,2.16-0.16,4.32-0.22,6.48
		c-0.26,9.14,2.48,17.43,7.08,25.23c1.9,3.23,3.68,6.54,5.31,9.92c0.72,1.5,1.14,3.22,1.3,4.88c0.71,7.4,0.55,14.74-1.24,22.03
		c-1.15,4.7-1.02,9.43,0.4,14.15c1.08,3.58,1.89,7.23,1.78,11.06c-0.05,1.53,0.46,3.15,0.98,4.63c1.7,4.81,3.59,9.56,5.28,14.38
		c1.2,3.43,1.95,7.02,3.32,10.37c3.21,7.86,5.49,15.87,5.45,24.46c-0.01,1.25,0.64,2.64,1.34,3.73c2.75,4.31,5.65,8.53,8.49,12.79
		c4.61,6.9,9.22,13.81,13.84,20.7c0.24,0.36,0.61,0.63,0.92,0.94c0.04-0.43,0.11-0.87,0.11-1.3c0.01-3.88,3.85-8.65,8.05-9.96
		c1.82-0.57,2.33-1.65,1.25-3.14c-0.72-0.99-1.7-1.85-2.7-2.57c-2.59-1.85-5.21-3.67-7.92-5.34c-1.32-0.81-2.81-1.48-4.31-1.84
		c-1.9-0.45-3.05-1.57-3.59-3.26c-0.44-1.39-0.76-2.91-0.7-4.35c0.13-3.19-0.79-6.08-2.2-8.83c-1.71-3.33-3.6-6.58-5.39-9.87
		c-0.92-1.7-1.97-3.35-2.62-5.15c-0.54-1.48-1.76-3.47,0.04-4.63c1.57-1.01,2.94,0.68,4.11,1.68c1.21,1.03,2.2,2.3,3.35,3.4
		c0.45,0.43,1.07,0.68,1.61,1.01c0.05-0.56,0.17-1.12,0.12-1.67c-0.05-0.56-0.23-1.11-0.41-1.65c-1.96-5.97-4.57-11.65-8.4-16.66
		c-3.2-4.19-4.95-8.9-5.8-14.01c-0.05-0.32,0.03-0.65,0.05-0.98c0.38,0.11,0.82,0.12,1.12,0.33c0.83,0.6,1.58,1.3,2.4,1.92
		c2.09,1.58,4.18,3.14,6.3,4.67c0.31,0.22,0.81,0.17,1.22,0.25c0.04-0.43,0.2-0.89,0.11-1.29c-0.16-0.66-0.5-1.26-0.74-1.9
		c-2.61-7.03-5.24-14.05-7.8-21.09C432.8,414.69,432.86,414.67,437.31,414.92z M387.15,304.02c-0.36,10.77,0.98,16.42,2.96,22.66
		c0.3,0.94,1.32,2.35,1.99,2.34c1.55-0.02,1.08-1.62,1.16-2.68c0.02-0.23,0.01-0.46-0.01-0.68c-0.5-8.5,4.45-14.49,9.47-20.44
		c0.11-0.14,0.93,0.09,1.19,0.37c0.27,0.29,0.24,0.85,0.36,1.29c1.32,4.93,2.65,9.85,3.95,14.79c0.4,1.53,0.85,3.07,1.01,4.64
		c0.77,7.42,4.12,13.37,9.89,18.02c2.09,1.69,3.26,1.88,4.92,0.83c1.78-1.13,2.18-2.8,1.83-4.75c-0.57-3.11-1.89-5.83-4.31-7.93
		c-2.21-1.92-3.17-4.31-3.14-7.24c0.04-3.06,0.06-6.15-0.29-9.18c-0.72-6.21-3.33-11.75-6.55-17.05c-2.06-3.39-3.93-6.89-5.88-10.35
		c-1.22-2.17-2.28-4.44-3.66-6.5c-1.38-2.05-2.93-4.04-4.7-5.75c-2.06-1.99-0.86-4.84-2.27-6.95c-2.63-3.95-3.72-8.48-4.76-13.03
		c-0.17-0.76-0.5-1.53-0.92-2.19c-2.97-4.7-6-9.36-8.97-14.06c-1.63-2.58-3.25-5.17-4.7-7.85c-0.64-1.18-0.19-3.47-2.34-2.98
		c-1.97,0.45-1.15,2.45-1.03,3.81c0.42,4.55,1.98,8.72,4.35,12.63c2.89,4.76,4.05,9.99,4.4,15.55c0.21,3.34,1.01,6.76,2.21,9.89
		c0.96,2.5,1.59,4.91,1.63,7.56c0.04,2.38-0.02,4.83,0.5,7.13C386.89,292.28,387.55,298.68,387.15,304.02z M321.45,208.17
		c0.01-0.06,0.01-0.12,0.02-0.18c0.11,0,0.23,0,0.34,0c5.34-0.12,5.4-0.09,3.15,4.71c-2.01,4.28-2.23,8.75-1.84,13.33
		c0.02,0.26,0.29,0.5,0.44,0.75c0.23-0.2,0.52-0.37,0.67-0.62c0.29-0.48,0.54-1,0.75-1.53c1.92-4.82,5-8.57,9.73-10.95
		c2.61-1.31,4.26-3.63,5.78-6.1c1.35-2.2,3.04-4.21,4.65-6.24c1.05-1.33,2.29-2.52,3.31-3.88c0.44-0.58,0.55-1.42,0.81-2.14
		c-0.67-0.09-1.34-0.28-2-0.26c-4.53,0.15-9.17-0.09-12.89,3.28c-0.15,0.14-0.41,0.15-0.62,0.22c0.01-0.29-0.11-0.67,0.03-0.84
		c2.55-3.18,4.98-6.48,7.75-9.46c2.15-2.31,4.07-4.61,4.2-7.9c0.12-3.1,1.54-5.65,3.2-8.13c0.69-1.04,1.44-2.05,2.06-3.13
		c0.24-0.42,0.19-1.01,0.28-1.53c-0.54,0.01-1.09-0.05-1.6,0.06c-2.65,0.58-4.65,2.22-6.64,3.96c-1.61,1.4-3.36,2.7-5.24,3.69
		c-4.81,2.55-9.82,4.73-14.56,7.39c-5.34,3-10.47,6.36-15.69,9.57c-0.18,0.11-0.3,0.32-0.45,0.48c0.28,0.12,0.54,0.3,0.83,0.36
		c1.88,0.37,4.42,0.08,5.52,1.2c2.02,2.07,3.4,1.01,5.05,0.09c1.49-0.83,2.89-1.81,4.38-2.64c1.29-0.71,2.63-1.33,3.99-1.9
		c0.35-0.14,0.84,0.07,1.27,0.12c-0.09,0.32-0.11,0.69-0.28,0.95c-0.43,0.67-0.94,1.28-1.4,1.93c-2.51,3.51-5.08,6.98-7.47,10.57
		c-0.85,1.28-1.24,2.86-1.84,4.3C318.57,207.86,320.01,208.02,321.45,208.17z M105.81,349.24c-0.12,0-0.24,0-0.36,0
		c0,3.98-0.01,7.96,0.02,11.94c0,0.34,0.22,0.68,0.34,1.01c0.2-0.26,0.48-0.49,0.59-0.78c2.31-5.88,5.78-11.05,9.6-16.03
		c1.17-1.52,2.08-3.25,3.11-4.87c0.97-1.52,0.92-3.12,0.78-4.89c-0.24-3.03-0.35-6.13,0.05-9.12c0.86-6.54,3.69-12.43,7.3-17.83
		c3.96-5.92,5.95-12.44,7.11-19.33c1.28-7.61,2.55-15.22,3.81-22.83c0.07-0.4,0-0.82-0.01-1.23c-0.3,0.34-0.63,0.65-0.88,1.02
		c-3.52,5.17-7.09,10.3-10.5,15.54c-1.6,2.46-2.91,5.11-4.3,7.71c-0.8,1.49-1.43,3.08-2.24,4.57c-2.2,4-4.08,8-4.21,12.78
		c-0.11,4.18-0.7,8.51-3.25,12.03c-1.84,2.53-2.44,5.3-2.81,8.24c-0.33,2.63-0.99,5.17-2.96,7.08c-1.01,0.98-1.21,2.09-1.2,3.39
		C105.83,341.5,105.81,345.37,105.81,349.24z M514.48,326.56c0.04,3.7,1.1,7.01,2.67,10.24c0.74,1.52,1.26,3.16,1.82,4.76
		c1.56,4.5,3.03,9.04,4.67,13.52c0.76,2.08,2.07,2.89,3.51,2.59c1.87-0.39,1.87-1.88,2.17-3.39c0.83-4.22,1.66-8.45,3.87-12.26
		c1.48-2.55,2.81-5.19,4.13-7.82c2.91-5.79,5.7-11.66,9.96-16.62c3.23-3.75,4.4-8.08,4.38-12.92c-0.01-2.02,0.33-4.05,0.58-6.07
		c0.26-2.14,0.69-4.26,0.85-6.41c0.05-0.64-0.55-1.32-0.86-1.99c-0.59,0.45-1.45,0.77-1.72,1.36c-1.56,3.41-2.96,6.89-3.16,10.72
		c-0.2,3.88-1.85,6.89-5.18,9.09c-1.77,1.17-3.54,2.6-4.75,4.32c-3.75,5.34-6.57,11.12-7.75,17.65c-0.58,3.22-1.72,6.35-2.64,9.5
		c-0.07,0.25-0.41,0.43-0.63,0.64c-0.2-0.24-0.52-0.44-0.58-0.71c-0.5-2.1-0.82-4.24-1.44-6.3c-1.18-3.9-2.52-7.75-3.82-11.61
		c-0.65-1.94-1.33-3.87-2.09-5.77c-0.23-0.58-0.79-1.03-1.19-1.54c-0.48,0.57-1.24,1.07-1.39,1.71
		C515.32,321.66,514.94,324.12,514.48,326.56z M614.47,221.34c0-2.03,0.15-3.3-0.03-4.52c-0.67-4.49-1.42-8.96-2.2-13.43
		c-0.26-1.45-0.66-2.88-1.14-4.27c-0.15-0.42-0.81-0.93-1.21-0.92c-0.41,0.02-0.99,0.57-1.14,1.01c-0.25,0.73-0.27,1.56-0.28,2.35
		c-0.03,2.27,0.24,4.57-0.05,6.8c-0.72,5.52-1.89,10.95-4.29,16.04c-1.26,2.67-2.59,5.32-3.59,8.09
		c-3.59,10.04-7.22,20.07-10.5,30.22c-2.09,6.46-3.6,13.11-5.33,19.69c-0.16,0.62-0.01,1.33-0.01,1.99c0.35-0.5,0.77-0.96,1.05-1.49
		c8.03-15.4,16.06-30.79,24.05-46.2C612.42,231.64,614.99,226.54,614.47,221.34z M455.52,315.59c-0.18,7.86,3.54,17.58,8.39,24.72
		c2.66,3.91,4.77,7.98,5.98,12.53c0.77,2.9,1.95,5.52,4.28,7.61c0.94,0.85,1.35,2.28,2.05,3.42c0.5,0.82,1.09,1.58,1.63,2.37
		c0.32-0.88,0.65-1.76,0.94-2.65c0.07-0.2-0.01-0.45-0.01-0.68c0.04-5.74,0.87-11.3,3.39-16.55c1.52-3.17,2.85-6.45,4.11-9.73
		c1.09-2.84,1.32-5.82-0.08-8.61c-0.45-0.89-1.57-1.95-2.42-1.98c-0.81-0.02-1.84,1.06-2.45,1.89c-0.57,0.79-0.74,1.89-1.05,2.86
		c-1.26,3.89-2.51,7.78-3.76,11.67c-0.43,1.33-0.91,1.27-1.79,0.24c-2.22-2.58-4.56-5.05-6.82-7.59c-0.91-1.02-1.96-1.98-2.57-3.16
		c-3.09-5.91-6.89-11.56-7.35-18.52c-0.02-0.33-0.11-0.7-0.29-0.97c-0.23-0.34-0.58-0.82-0.91-0.83c-0.28-0.02-0.79,0.48-0.86,0.82
		C455.69,313.67,455.6,314.91,455.52,315.59z M603.7,172.53c-0.42-4.33-1.35-8.28-3.69-12.01c-1.15-1.83-1.63-4.23-1.88-6.43
		c-0.31-2.7-1.11-5.09-2.77-7.19c-0.51-0.64-1.33-1.04-2.02-1.55c-0.39,0.85-0.79,1.7-1.15,2.56c-0.08,0.19-0.02,0.45,0,0.68
		c0.39,4.05,0.81,8.1,1.16,12.15c0.11,1.24,0.26,2.54,0.03,3.74c-1.36,7.01-0.53,14.04-0.42,21.07c0.13,7.72,0.24,15.44-2.12,22.95
		c-0.54,1.72-0.93,3.52-1.17,5.31c-0.19,1.48-0.06,3.01-0.07,4.51c0.77-1.34,1.79-2.61,2.26-4.05c1.6-4.84,2.95-9.77,4.52-14.62
		c1.88-5.82,4.07-11.55,5.77-17.43C603.06,179.11,603.21,175.77,603.7,172.53z M570.26,55.93c0-0.02,0-0.04,0-0.06
		c-1.14,0-2.28,0.06-3.41-0.02c-0.95-0.07-1.88-0.31-2.82-0.48c0.78-0.58,1.52-1.22,2.35-1.71c0.57-0.34,1.27-0.47,1.91-0.7
		c1.92-0.68,3.92-1.21,5.75-2.08c1.14-0.54,2.03-1.6,3.03-2.42c-0.94-0.74-1.78-1.71-2.85-2.18c-3.64-1.58-7.31-3.1-11.05-4.43
		c-5.04-1.8-10.2-2.2-15.34-0.38c-1.05,0.37-2.09,0.91-2.95,1.6c-1.67,1.33-1.58,1.94,0.35,2.78c1.66,0.72,3.38,1.31,5.08,1.95
		c5.27,2,8.98,5.63,11.23,10.77c0.5,1.14,0.92,2.32,1.43,3.46c0.43,0.96,1.07,1.36,2.17,0.82c3.67-1.8,7.37-3.54,11.05-5.33
		c0.37-0.18,0.65-0.56,0.97-0.85c-0.48-0.25-0.95-0.69-1.45-0.71C573.9,55.87,572.08,55.93,570.26,55.93z M606.93,104.53
		c-0.01,0-0.01,0-0.01,0c-0.01-0.68,0.02-1.36-0.01-2.04c-0.24-6.61-1.18-13.09-3.76-19.24c-0.12-0.29-0.37-0.52-0.56-0.78
		c-0.06,0.3-0.16,0.59-0.18,0.89c-0.24,3.28-0.36,6.57-0.74,9.83c-0.47,4.11-1.24,4.43-4.44,1.89c-3.37-2.68-7.13-4.37-11.4-4.93
		c-1.65-0.22-4.76,1.51-5.16,3.04c-0.1,0.38,0.26,1.08,0.62,1.36c2.5,1.96,5.03,3.88,7.62,5.71c0.44,0.31,1.45,0.46,1.78,0.18
		c1.77-1.45,2.78-0.34,3.48,1.04c1.37,2.72,2.6,5.51,3.78,8.32c0.57,1.35,0.81,2.83,1.33,4.2c1.05,2.75,2.59,3.12,4.93,1.29
		c1.84-1.45,2.51-3.47,2.68-5.67C607.03,107.94,606.93,106.23,606.93,104.53z M426.17,315.56c-0.67,11.71,4.4,20.28,11.93,27.75
		c0.5,0.5,1.32,0.69,1.98,1.02c0.12-0.65,0.37-1.3,0.33-1.94c-0.34-5.69-1.12-11.26-3.86-16.43c-1.38-2.59-2.41-5.38-3.39-8.16
		c-1.01-2.88-1.35-6.07-2.72-8.74c-2.23-4.32-5.05-8.34-7.64-12.47c-0.24-0.38-0.52-0.78-0.88-1.01c-0.33-0.21-0.89-0.39-1.18-0.25
		c-0.31,0.16-0.67,0.8-0.58,1.08c0.6,1.81,1.09,3.71,2.03,5.34C424.81,306.24,427.09,310.76,426.17,315.56z M317.03,243.1
		c-1.84,0.85-3.73,1.6-5.51,2.55c-4.39,2.36-8.14,5.3-9.79,10.35c-1.22,3.74-3.55,6.76-6.39,9.51c-2.95,2.86-3.87,6.58-3.22,10.64
		c0.21,1.3,0.83,1.44,1.84,0.59c2.69-2.27,5.63-4.29,8.07-6.79c1.78-1.82,3.26-4.11,4.26-6.45c1.1-2.58,1.81-5.42,2.11-8.21
		c0.35-3.28,1.63-5.48,4.68-6.87c1.72-0.78,3.22-2.08,4.76-3.23c0.29-0.21,0.46-0.86,0.36-1.22
		C318.13,243.68,317.59,243.5,317.03,243.1z M312.71,302.46c1.53-1,3.04-1.79,4.33-2.86c4.82-4.01,7.87-9.35,10.82-14.73
		c0.65-1.18,1.14-2.47,1.5-3.77c0.22-0.79-0.42-1.49-1.17-0.95c-2.92,2.11-6.57,3.28-8.67,6.46c-2.69,4.06-4.84,8.48-8.51,11.86
		c-0.46,0.42-0.45,1.72-0.2,2.45C311.02,301.51,311.92,301.86,312.71,302.46z M373.23,197.67c-0.07-0.37-0.15-1.4-0.48-2.35
		c-0.13-0.39-0.91-0.94-1.19-0.84c-1.91,0.65-4,1.17-5.53,2.37c-0.56,0.44,0.15,2.66,0.49,4.01c0.5,1.97,1.14,3.9,1.81,5.82
		c0.63,1.81,1.37,3.58,2.1,5.36c0.12,0.29,0.4,0.51,0.6,0.76c0.12-0.24,0.31-0.47,0.35-0.73
		C371.99,207.49,372.57,202.9,373.23,197.67z M285.52,294.14c0.45-0.15,0.8-0.16,0.86-0.3c1.01-2.24,2-4.48,2.93-6.75
		c0.05-0.13-0.35-0.6-0.6-0.66c-0.26-0.06-0.77,0.09-0.88,0.29c-1.01,2.01-2,4.03-2.87,6.1
		C284.83,293.14,285.32,293.71,285.52,294.14z M419.05,79.09c-0.03-0.08-0.06-0.15-0.09-0.23c-0.02,0.14-0.04,0.28-0.06,0.42
		C418.95,79.22,419,79.15,419.05,79.09z"/>
	<path class="st0" d="M243.92,442.54c0.61-5.8,1.15-11.11,1.73-16.41c0.06-0.54,0.31-1.06,0.47-1.59c0.19,0.59,0.48,1.18,0.56,1.79
		c0.43,3.26,0.67,6.56,1.24,9.8c0.74,4.2,2.39,8.05,5.18,11.34c0.48,0.57,1.19,0.94,1.79,1.4c0.09-0.73,0.28-1.46,0.24-2.18
		c-0.17-3.4-0.4-6.79-0.63-10.19c-0.21-3.13,0.92-5.74,2.87-8.14c0.65-0.81,1.12-1.94,1.25-2.98c0.62-4.95,0.91-9.95,1.67-14.88
		c1.05-6.84,0.43-13.29-2.95-19.48c-2.11-3.88-3.51-8.16-5.65-12.02c-1.63-2.94-3.88-5.55-5.98-8.21c-0.4-0.5-1.36-0.56-2.06-0.82
		c-0.18,0.61-0.47,1.22-0.53,1.84c-0.26,2.72-0.44,5.44-0.66,8.16c-0.03,0.33-0.18,0.65-0.27,0.97c-0.35-0.25-0.79-0.43-1.02-0.77
		c-1.61-2.33-3.08-4.76-4.78-7.02c-0.89-1.18-1.68-0.91-1.96,0.57c-0.19,1-0.2,2.04-0.22,3.06c-0.04,2.08-0.18,4.1-1.9,5.63
		c-0.82,0.73-0.63,1.53-0.17,2.45c0.92,1.82,1.71,3.71,2.54,5.58c1.67,3.8,2.45,7.76,2.58,11.92c0.07,2.36,0.71,4.7,1.05,7.06
		c0.32,2.24,0.7,4.48,0.86,6.74c0.64,9.05-0.44,17.89-3.01,26.6c-0.65,2.22-0.44,4.73-0.38,7.09c0.02,0.79,0.69,1.64,1.22,2.34
		c2.62,3.43,5.33,6.8,7.94,10.24c2.43,3.2,5.22,5.97,8.69,8.07c5.23,3.16,9.42,7.44,13.1,12.3c2.33,3.07,4.91,5.97,7.59,8.73
		c2.74,2.83,4.73,6.08,6.42,9.58c0.54,1.12,1.04,2.3,1.78,3.28c1.96,2.63,4.87,3.57,7.84,2.2c2.37-1.09,4.17-0.85,5.67,1.22
		c3.36,4.66,8.12,6.6,13.61,7.54c2.39,0.41,4.64,1.71,6.92,2.67c0.33,0.14,0.51,0.66,0.75,1c-0.35,0.19-0.69,0.51-1.06,0.54
		c-1.02,0.06-2.05,0.02-3.07-0.02c-5.33-0.23-10.66-0.46-15.99-0.72c-1.59-0.08-3.18-0.21-4.75-0.43c-3.52-0.49-6.19-2.14-8.49-5.04
		c-3.81-4.8-8.13-9.19-12.25-13.74c-1.45-1.6-2.85-3.26-4.41-4.75c-1.97-1.87-3.94-3.78-6.15-5.33
		c-8.64-6.03-16.1-13.34-23.04-21.19c-2.01-2.27-3.53-5.03-5.01-7.71c-0.68-1.23-0.88-2.8-1.02-4.25
		c-0.63-6.31,0.54-12.48,1.73-18.61c1.07-5.52,1.21-11.06,1.17-16.63c-0.01-1.09,0.26-2.25-1.57-2.37
		c-0.51-0.04-1.22-1.51-1.32-2.38c-0.76-6.65-1.1-13.37-2.16-19.97c-0.55-3.41-2.28-6.63-3.5-9.93c-0.47-1.28-1.12-2.5-1.5-3.8
		c-0.79-2.72-1.89-5.05-3.78-7.38c-2.29-2.81-3.57-6.56-4.81-10.07c-1.65-4.66-3.81-8.96-6.76-12.93c-2.1-2.82-3.84-5.92-5.96-8.73
		c-3.07-4.07-6.15-8.18-9.59-11.93c-2.95-3.21-4.15-6.95-4.74-11.04c-0.05-0.36,0.12-0.94,0.4-1.14c1.23-0.87,4.23-0.03,4.94,1.33
		c0.48,0.9,0.97,1.81,1.36,2.75c1.15,2.73,2.98,4.71,5.64,6.11c4.81,2.53,7.16,7.13,9.35,11.79c1.3,2.77,2.55,5.58,3.85,8.35
		c0.29,0.61,0.66,1.21,1.12,1.69c0.26,0.28,1.01,0.55,1.13,0.42c0.34-0.34,0.62-0.89,0.63-1.36c0.02-0.54-0.26-1.09-0.44-1.63
		c-1.27-3.65-2.36-7.37-3.88-10.91c-1.2-2.8-2.96-5.35-4.42-8.04c-0.75-1.38-1.4-2.82-2.03-4.26c-0.17-0.4-0.35-1.08-0.15-1.31
		c1.77-2.09,1.01-5.13,2.58-7.16c1.66-2.14,3.64-4.07,5.68-5.85c2.04-1.78,4.58-0.67,6.91-0.64c0.15,0,0.48,0.73,0.39,1.02
		c-0.34,1.08-0.87,2.1-1.25,3.17c-1.23,3.41-1.59,6.76-0.1,10.27c0.89,2.09,2.23,3.34,4.31,3.97c0.43,0.13,0.87,0.33,1.31,0.36
		c7.28,0.49,12.71,4.54,17.59,9.43c2.37,2.37,5.03,3.67,8.28,4.29c1.83,0.35,3.73,1.11,5.23,2.2c4.3,3.13,8.53,6.32,12.42,10.04
		c3.5,3.34,7.81,5.85,11.86,8.58c5.56,3.73,5.32,3.68,5.63,10.38c0.42,9.03-1.87,17.6-3.86,26.21c-2.64,11.39-5.39,22.78-10,33.59
		c-1.05,2.47-0.86,5,0.92,6.7c5.01,4.81,7.74,11.17,11.83,16.6c2.93,3.87,5.12,8.3,7.7,12.44c2.34,3.76,4.61,7.58,7.22,11.15
		c1.01,1.38,2.8,2.24,4.34,3.14c0.61,0.36,1.82,0.56,2.26,0.21c2.16-1.7,4.25-0.4,6.42-0.28c2.58,0.14,5.2-0.28,7.79-0.58
		c6.8-0.79,12.62,1.28,17.03,6.44c1.37,1.6,1.84,4.11,2.35,6.29c0.61,2.59,1.43,4.3,4.65,4.14c2.35-0.12,4.53,1.25,5.46,3.5
		c1.34,3.22,2.29,6.61,3.36,9.94c0.08,0.25-0.16,0.61-0.25,0.92c-0.27-0.19-0.58-0.33-0.81-0.56c-4.53-4.64-9.89-7.54-16.49-7.89
		c-2.17-0.11-3.57-1.27-4-3.51c-0.3-1.56-0.81-3.08-1.07-4.64c-0.85-5.06-4.19-8.16-9.36-8.07c-2.57,0.05-5.13,0.79-7.69,1.24
		c-0.31,0.05-0.59,0.26-0.89,0.39c0.3,0.14,0.61,0.26,0.91,0.41c1.52,0.74,3.08,1.42,4.55,2.25c3.29,1.85,5.01,4.84,5.86,8.41
		c0.21,0.88,0.5,1.76,0.61,2.66c0.33,2.74,1.25,4.51,4.55,4.72c3.25,0.21,5.65,2.28,6.93,5.36c0.7,1.67,1.27,3.4,1.8,5.13
		c0.18,0.59,0.04,1.28,0.05,1.93c-0.6-0.3-1.27-0.5-1.79-0.91c-2.76-2.22-5.5-4.51-9.13-5.08c-2.45-0.38-4.96-0.57-7.44-0.53
		c-1.95,0.03-2.97-0.69-3.39-2.52c-0.33-1.43-0.69-2.87-1.16-4.26c-1.23-3.63-3.14-4.81-6.95-4.42c-0.9,0.09-1.81,0.17-2.72,0.2
		c-4.68,0.17-6.09-0.63-7.38-5.12c-0.7-2.42-2.1-4.15-3.57-6.06c-3.96-5.12-7.64-10.44-11.47-15.66c-1.01-1.37-2.07-2.72-3.23-3.95
		c-0.77-0.81-1.71-1.51-2.69-2.06c-1.88-1.06-2.43-0.74-2.47,1.35c-0.03,1.36,0.07,2.73,0.03,4.09c-0.04,1.26-0.8,1.71-1.79,0.97
		c-2.16-1.63-4.66-3.06-6.23-5.17c-4.89-6.55-10.97-11.48-18.36-14.85c-2.71-1.23-4.42-3.33-4.93-6.14
		C244.48,449.12,244.26,445.6,243.92,442.54z"/>
	<path class="st0" d="M15.36,376.21c0.14-12.47,2.2-24.57,6.03-36.51c1.92-5.98,2.46-12.51,1.61-18.92
		c-0.24-1.78-0.99-3.49-1.32-5.27c-0.09-0.49,0.47-1.1,0.74-1.66c0.48,0.23,1.18,0.33,1.41,0.71c1.31,2.12,2.57,4.28,3.72,6.49
		c0.98,1.89,1.81,3.86,2.65,5.82c0.21,0.5,0.28,1.11,0.27,1.66c-0.04,4.2-0.14,8.4-0.14,12.6c0,1.06,0.32,2.13,0.49,3.19
		c0.7-0.79,1.57-1.48,2.08-2.38c1.75-3.02,2.53-6.32,2.42-9.81c-0.19-6.13-0.27-12.26-0.71-18.37c-0.15-2.08-1.06-4.18-1.93-6.13
		c-1.88-4.25-4.09-8.35-5.92-12.62c-1.7-3.94-4.6-6.72-7.93-9.17c-7.1-5.22-10.71-12.43-12.21-20.93c-1.48-8.44,0-16.48,3-24.35
		c0.12-0.32,0.22-0.71,0.46-0.9c0.58-0.44,1.24-0.78,1.87-1.16c0.31,0.65,0.89,1.31,0.87,1.95c-0.07,1.58-0.23,3.2-0.68,4.71
		c-0.89,2.94,0.01,5.51,1.77,7.64c4.9,5.96,9.61,12.11,16.61,15.96c3.07,1.69,5.75,4.08,8.72,5.96c4.12,2.59,6.34,6.33,7.42,10.96
		c0.44,1.87,1.13,3.69,1.88,5.46c0.27,0.63,1.05,1.42,1.63,1.45c0.56,0.02,1.49-0.73,1.69-1.34c0.78-2.35,1.4-4.76,1.94-7.18
		c0.32-1.43,0.35-2.93,0.56-4.39c0.04-0.29,0.32-0.54,0.49-0.81c0.21,0.25,0.51,0.47,0.62,0.76c1.56,4.13,3.32,8.2,4.59,12.42
		c2.63,8.75,3.9,17.76,3.77,26.88c-0.05,3.34-0.91,6.73-1.8,9.99c-1.22,4.47-2.58,8.94-4.33,13.23c-1.05,2.56-2.63,5.08-4.54,7.09
		c-6.19,6.5-12.33,13.1-19.07,19c-5.05,4.42-6.6,9.5-5.94,15.76c0.25,2.37,0.18,4.8,0.63,7.13c0.6,3.1,1.42,6.18,2.42,9.18
		c0.68,2.03,1.82,3.91,2.74,5.86c1.63,3.47,3.92,6.38,7.13,8.54c1.03,0.7,1.97,1.54,2.97,2.3c0.83,0.63,1.04,1.27,0.62,2.34
		c-1.27,3.16-2.44,6.36-3.55,9.58c-0.47,1.36-1.18,1.13-2.04,0.56c-1.79-1.17-3.55-2.41-5.36-3.55c-4.04-2.55-7.16-5.88-9.23-10.25
		c-1.7-3.59-3.66-7.07-5.46-10.61c-0.51-1.01-1.1-2.06-1.25-3.15c-0.87-6.29-1.7-12.58-2.38-18.89
		C15.16,380.78,15.36,378.49,15.36,376.21z M55.47,322.58c0.25-6.53-2.89-11.58-6.85-16.29c-0.21-0.24-0.75-0.2-1.14-0.29
		c0,0.32-0.05,0.64,0.01,0.95c0.5,2.33,1.15,4.63,1.52,6.97c0.76,4.84,1.29,9.71,0.11,14.56c-1.45,5.94-2.47,12.05-6.21,17.17
		c-0.18,0.25-0.2,0.6-0.3,0.91c0.28-0.08,0.64-0.07,0.84-0.24c1.44-1.25,2.93-2.45,4.24-3.83c1.17-1.22,1.98-2.83,3.23-3.94
		c1.91-1.7,2.88-3.79,3.25-6.19C54.67,329.12,55.05,325.84,55.47,322.58z"/>
	<path class="st0" d="M489.45,489.69c0.63-7.57-1.86-14.64-3.12-21.88c-0.29-1.67-0.81-3.34-0.88-5.02
		c-0.3-7.61-0.37-15.23-0.75-22.84c-0.22-4.41-0.99-8.79-1.26-13.2c-0.3-4.87-0.34-9.76-0.43-14.65c-0.01-0.64,0.28-1.33,0.58-1.91
		c1.26-2.41,2.65-4.75,3.87-7.18c2.07-4.12,5.02-7.31,9.34-9.05c5.06-2.04,10.17-3.95,15.22-6c1.02-0.41,1.45,0.02,1.91,0.74
		c1.63,2.58,2.44,5.35,2.13,8.42c-0.17,1.7-0.41,3.39-0.45,5.09c-0.06,2.67-0.74,5.08-1.96,7.49c-1.17,2.3-1.8,4.88-2.66,7.33
		c-0.71,2.02-1.26,4.11-2.16,6.04c-1.92,4.11-4.04,8.13-6.04,12.2c-1.48,3-2.24,6.16-2.34,9.52c-0.07,2.38-0.18,4.8-0.67,7.11
		c-0.37,1.72-1.14,3.46-2.15,4.91c-2.03,2.92-2.49,5.77-0.56,8.88c0.36,0.58,0.52,1.26,0.87,1.85c2.52,4.28,3.13,8.89,2.77,13.79
		c-0.42,5.62,5.25,10.94,10.74,9.49c7.24-1.91,13.39,0.27,19.53,3.5c1.4,0.74,2.81,1.53,4.3,2.04c4.26,1.45,6.7,4.61,8.08,8.63
		c0.77,2.24,1.13,4.62,1.55,6.96c0.13,0.72-0.17,1.51-0.28,2.27c-0.57-0.48-1.27-0.86-1.68-1.45c-0.91-1.3-1.78-2.65-2.47-4.07
		c-0.84-1.74-2.16-2.81-3.86-3.66c-2.76-1.38-5.5-2.71-8.64-2.92c-0.31-0.02-0.63,0.07-0.95,0.1c0.15,0.3,0.22,0.67,0.45,0.88
		c2.35,2.13,4.74,4.21,7.07,6.35c0.72,0.66,1.71,1.4,1.86,2.23c0.49,2.67,0.78,5.4,0.88,8.12c0.05,1.19-0.34,2.51-0.87,3.6
		c-0.99,2.03-2.21,3.96-3.39,5.89c-0.35,0.57-0.81,1.12-1.34,1.53c-0.84,0.66-1.67,0.78-2.08-0.52c-0.1-0.32-0.25-0.64-0.35-0.96
		c-0.46-1.52-0.65-3.19-1.4-4.55c-3.35-6.03-6.65-12.11-10.4-17.88c-1.62-2.49-5.06-2.71-7.77-2.94
		c-5.84-0.49-11.26-2.61-16.94-3.64c-2.64-0.48-3.19-1.13-3.3-3.9C489.38,494.19,489.45,491.91,489.45,489.69z"/>
	<path class="st0" d="M182.4,345.3c-0.54,17.8-3.61,35.02-11.74,51.07c-2.26,4.46-4.41,8.98-6.89,13.32
		c-4.17,7.27-10.57,12.41-17.23,17.22c-0.99,0.71-2.26,1.03-3.43,1.48c-4.88,1.85-9.76,3.62-14.28,6.39
		c-2.34,1.43-5.33,1.8-8.01,2.68c-1.28,0.42-2.57,0.82-3.79,1.37c-1.99,0.9-3.87,1.71-6.18,0.81c-0.9-0.35-2.25,0-3.24,0.4
		c-4.82,1.93-9.72,1.95-14.73,1.02c-3.66-0.68-4.87-3.24-3.01-6.41c1.14-1.95,2.14-3.98,3.12-6.02c0.81-1.67,2.01-2.77,3.92-2.81
		c2.13-0.04,4.17-0.08,6.26,1c2.94,1.51,6.1,0.33,8.91-0.76c3.99-1.54,8.31-2.48,11.7-5.39c0.49-0.42,1.23-0.56,1.88-0.77
		c11.7-3.72,20.92-10.48,27.33-21.18c3.88-6.47,7.39-13.05,9.83-20.17c2.66-7.77,4.2-15.81,5.21-23.94
		c0.32-2.56,0.87-4.86,2.66-6.81c0.76-0.83,1.45-1.8,1.9-2.82c1.65-3.73,5.05-5.77,7.86-8.37c1.07-0.99,1.82-0.68,1.91,0.89
		C182.5,340.07,182.4,342.69,182.4,345.3z"/>
	<path class="st0" d="M52.29,493.42c0.45,0,0.91,0.01,1.36,0c4.11-0.06,5,0.62,5.81,4.5c0.51,2.44,1.03,4.88,1.48,7.34
		c0.14,0.75,0.1,1.55-0.02,2.3c-0.02,0.15-0.86,0.38-1.18,0.24c-0.35-0.16-0.57-0.68-0.8-1.06c-0.87-1.48-2.08-2.06-3.73-1.36
		c-1.79,0.76-3.33,0.05-4.86-0.76c-1.72-0.92-3.27-1.02-5.1,0.1c-1.5,0.92-3.39,1.22-5.12,1.75c-1.21,0.37-1.73-0.11-1.52-1.36
		c1.11-6.62,3.46-11.72,12.3-11.65c0.45,0,0.91,0,1.36,0C52.29,493.43,52.29,493.43,52.29,493.42z"/>
	<path class="st0" d="M38.13,522.32c1.36-4.19,1.68-9.44,4.93-13.6c0.82-1.05,2.38-2.3,3.47-2.19c2.17,0.22,4.47,0.99,5.48,3.42
		c0.43,1.04,0.82,2.1,1.25,3.14c1.22,2.88,0.12,5.57-3,6.28c-2.9,0.66-5.02,1.83-5.87,4.84c-0.17,0.61-0.66,1.31-1.19,1.6
		c-0.92,0.5-2.13,1.18-2.96,0.92c-0.84-0.26-1.42-1.51-1.99-2.41C38.04,524,38.18,523.45,38.13,522.32z"/>
	<path class="st0" d="M33.71,513.44c-0.55,1.67-0.64,3.06-2.68,3.37c-3.89,0.6-6.97,2.47-8.86,6.13c-0.45,0.87-1.64,2.06-2.31,1.96
		c-1.64-0.26-1.75-1.92-1.56-3.3c0.53-3.69,0.64-7.46,2.42-10.9c1.15-2.21,2.77-3.88,4.87-5.09c2.07-1.19,3.03-0.89,4.43,1.13
		c0.45,0.65,1.14,1.15,1.49,1.84C32.32,510.16,32.99,511.82,33.71,513.44z"/>
	<path class="st0" d="M3.37,517.3c-0.06-4.09,1.32-7.86,3.16-11.36c0.95-1.81,2.76-3.28,4.44-4.56c1.67-1.28,3.21,0.31,4.72,0.91
		c1.38,0.55,2.16,1.67,1.95,3.24c-0.22,1.69-0.46,3.38-0.77,5.05c-0.3,1.6-1.31,2.7-2.86,3.08c-3.72,0.91-5.82,3.74-7.98,6.52
		c-0.38,0.49-0.92,0.87-1.38,1.3c-0.42-0.6-1.03-1.16-1.22-1.83C3.2,518.94,3.37,518.1,3.37,517.3z"/>
	<path class="st0" d="M33.45,498.5c-0.26,1.3-0.71,3.63-1.2,5.96c-0.21,1-0.77,1-1.41,0.38c-2.2-2.15-4.47-4.15-7.62-4.88
		c-1.5-0.35-1.26-1.44-0.43-2.31c0.61-0.64,1.39-1.15,2.18-1.58c1.29-0.71,2.6-1.4,3.97-1.92C32.68,492.7,33.61,493.4,33.45,498.5z"
		/>
	<path class="st0" d="M410.56,64.81c-0.17,0.27-0.33,0.53-0.5,0.8c-0.07-0.08-0.22-0.2-0.2-0.24c0.13-0.27,0.29-0.52,0.44-0.78
		C410.39,64.66,410.47,64.73,410.56,64.81z"/>
	<path class="st0" d="M518.3,108.4c-1.37,0-2.73-0.01-4.1,0c-1.96,0.02-3.62,0.81-4.64,2.43c-1.6,2.55-3.64,4.61-6.04,6.41
		c-2.09,1.57-1.91,2.48,0.57,3.52c2.57,1.07,5.23,1.49,7.99,0.68c3.05-0.89,6.11-1.75,9.19-2.54c0.7-0.18,1.48-0.01,2.23-0.01
		c-0.41,0.66-0.7,1.43-1.24,1.96c-3.51,3.53-6.73,7.4-11.31,9.7c-0.91,0.46-0.85,1.71,0.18,2.07c1.38,0.48,2.87,0.89,4.31,0.85
		c2.6-0.06,5.2-0.47,7.79-0.75c0.68-0.07,1.35-0.26,2.02-0.27c0.42,0,1.18,0.22,1.19,0.37c0.03,0.48-0.07,1.22-0.4,1.44
		c-3.85,2.55-4.97,6.59-5.94,10.7c-0.44,1.86-1.36,2.74-3.36,2.37c-1.34-0.24-2.72-0.27-4.08-0.38c-2.48-0.21-4.54,0.56-5.76,2.81
		c-1.24,2.29-0.79,4.85,1.18,6.83c1.59,1.6,2.56,3.39,2.76,5.68c0.17,1.91,0.7,2.21,2.41,1.21c1.74-1.02,3.56-2.17,4.83-3.68
		c3.12-3.72,7.02-4.42,11.4-3.49c2.62,0.56,5.13,0.74,7.71-0.14c1.62-0.55,2.03-0.1,1.46,1.66c-0.88,2.7-1.85,5.37-2.9,8
		c-1.14,2.84-2.48,5.61-3.64,8.45c-1.31,3.19-3.37,5.27-7.01,5.63c-1.44,0.14-2.84,0.78-4.21,1.3c-1.18,0.45-1.69,0.1-1.79-1.12
		c-0.2-2.38-0.44-4.76-0.67-7.13c-0.05-0.57,0.03-1.21-0.21-1.68c-0.27-0.52-0.83-1.23-1.27-1.23c-0.44,0-1.2,0.71-1.28,1.2
		c-0.39,2.23-0.88,4.51-0.81,6.76c0.15,5.37-1.95,9.7-5.5,13.52c-1.54,1.66-2.97,3.43-4.54,5.05c-0.4,0.41-1.16,0.53-1.77,0.66
		c-1.11,0.23-2.25,0.32-3.36,0.57c-1.5,0.33-2.38,1.31-2.48,2.85c-0.1,1.45,1,2.97,2.58,3.14c3.61,0.38,7.23,0.72,10.85,0.72
		c1.35,0,2.8-0.84,4.02-1.59c2.32-1.43,4.51-3.08,6.77-4.61c0.26-0.18,0.61-0.23,0.91-0.34c0.03,0.41,0.07,0.81,0.09,1.22
		c0,0.1-0.06,0.23-0.13,0.31c-4.15,5.06-4.88,11.65-7.67,17.34c-1.41,2.88-1.87,6.29-2.45,9.51c-0.76,4.18-2.11,8.12-4.04,11.89
		c-0.19,0.37-0.59,0.64-0.89,0.95c-0.24-0.42-0.58-0.81-0.7-1.26c-0.91-3.27-1.78-6.56-2.67-9.84c-0.08-0.3-0.21-0.6-0.32-0.89
		c-0.27,0.18-0.63,0.29-0.81,0.53c-3.72,5.15-7.42,10.32-11.14,15.48c-0.31,0.43-0.72,0.78-1.08,1.17
		c-0.08-0.54-0.17-1.09-0.22-1.63c-0.24-2.71-0.25-5.47-0.79-8.12c-0.35-1.72-1.31-3.39-2.31-4.87c-0.77-1.14-2.36-0.65-2.34,0.73
		c0.07,7.12-4.05,12.36-7.73,17.82c-0.95,1.41-1.79,2.9-2.74,4.32c-0.2,0.3-0.63,0.46-0.96,0.68c-0.03-0.33-0.13-0.67-0.07-0.98
		c0.41-1.89,0.97-3.74,1.26-5.64c1.11-7.29-0.56-13.99-4.61-20.11c-1.19-1.79-2.4-1.78-3.71-0.03c-0.2,0.27-0.36,0.58-0.51,0.88
		c-1.47,2.86-1.63,3.07-4.15,0.99c-2.07-1.7-3.76-3.88-5.46-5.98c-1.42-1.76-2.68-3.66-3.87-5.58c-0.64-1.02-1.1-2.19-1.43-3.35
		c-0.52-1.85-0.65-3.83-1.31-5.62c-0.97-2.62-2.36-4.87-5.79-4.82c-2.22,0.03-3.68-1.22-4.64-3.37c-0.91-2.04-2.43-3.8-3.54-5.77
		c-3.46-6.13-6.93-12.26-10.18-18.5c-0.6-1.15-0.56-2.95-0.14-4.24c2.07-6.37,4.35-12.67,6.57-18.99c0.53-1.5,1.05-3.01,1.71-4.46
		c1.99-4.32,0.53-8.21-1.46-12.03c-0.1-0.19-0.85-0.16-1.23-0.03c-0.25,0.09-0.42,0.52-0.57,0.82c-2.63,5.27-6.64,9.48-10.71,13.61
		c-2.96,3-4.71,6.65-6.21,10.48c-0.22,0.57-0.76,1.01-1.15,1.51c-0.34-0.63-1.03-1.3-0.97-1.89c0.23-2.13,0.53-4.29,1.12-6.35
		c1.62-5.67,5.04-10.4,8.18-15.27c3.13-4.84,6.7-9.45,7.78-15.38c0.22-1.21,1.16-2.67,2.2-3.25c1.44-0.81,1.77-1.93,2.1-3.25
		c0.56-2.2,1.01-4.44,1.8-6.56c0.28-0.75,1.41-1.19,2.15-1.78c0.56,0.77,1.49,1.5,1.61,2.33c0.21,1.43-0.05,2.94-0.16,4.41
		c-0.39,5.03-0.06,9.92,1.66,14.78c1.77,4.98,1.88,10.3,1.45,15.51c-0.43,5.09-1.33,10.14-2.05,15.21
		c-0.59,4.15-1.27,8.3-1.82,12.46c-0.11,0.86,0.02,1.82,0.29,2.65c1.4,4.21,2.8,8.42,4.37,12.57c1.42,3.75,5.5,4.66,8.67,2.17
		c0.76-0.59,1.78-1.1,2.72-1.16c3.96-0.29,6.35-2.26,8.59-5.64c3.44-5.19,2.07-10.19,0.99-15.4c-0.22-1.07-0.36-2.16-0.54-3.24
		c1.01,0.25,2.02,0.66,3.04,0.72c1.85,0.11,2.21,1.31,2.32,2.77c0.29,3.96,0.64,7.91,0.82,11.87c0.09,2.02,0.59,3.8,1.94,5.32
		c0.93,1.05,1.86,1.6,3.49,1.5c2.1-0.12,4.26,0.45,6.36,0.9c0.68,0.14,1.36,0.72,1.85,1.28c1.55,1.78,2.72,1.98,4.96,0.94
		c2.45-1.15,5.01-2.07,7.44-3.26c1.39-0.68,2.77-1.52,3.88-2.57c1.24-1.17,2.36-2.05,4.2-1.57c0.37,0.1,1.25-0.44,1.36-0.83
		c0.95-3.55,1.26-7.16,0.55-10.8c-0.09-0.44-0.23-0.94-0.53-1.24c-1.19-1.17-2.78-2.08-3.59-3.46c-0.72-1.23-0.12-3.37-0.97-4.36
		c-1.25-1.44-3.17-2.5-5-3.18c-1.54-0.58-3.36-0.41-5.06-0.53c-1.02-0.07-1.24-0.45-0.54-1.22c1.87-2.06,3.25-4.35,3.8-7.12
		c0.48-2.41,0.1-4.55-1.78-6.23c-1.97-1.76-4.21-1.49-6.41-0.56c-2.76,1.16-5.1,2.82-6.99,5.26c-3.13,4.04-6.54,7.86-9.75,11.84
		c-1.14,1.41-2.04,1.29-3.4,0.27c-1.99-1.49-4.04-3-6.29-4.01c-1.8-0.82-3.91-1.09-5.92-1.29c-3.7-0.38-4.32-1.13-3.02-4.45
		c2.05-5.24,1.59-5.59,7.06-2.84c3.47,1.75,7.06,2.78,10.47-0.25c1.11-0.98,2.02-0.48,3.06,0.16c1.85,1.13,2.19,1.13,2.92-0.83
		c1.63-4.34,3.09-8.75,4.47-13.18c0.3-0.97,0.48-1.71,1.62-1.77c2.65-0.14,3.43-2.23,3.76-4.2c0.7-4.14,1.32-8.33,1.41-12.51
		c0.08-3.54,1.45-6.12,4.06-8.22c2.83-2.28,5.7-4.5,8.58-6.72c0.43-0.33,1.04-0.79,1.47-0.71c4.18,0.76,8.41,0.2,12.64,1.87
		c4.01,1.58,7.87,3.46,11.83,5.13c0.55,0.23,0.97,0.8,1.45,1.21c-0.64,0.12-1.27,0.33-1.92,0.36c-1.25,0.06-2.5,0.02-3.75,0.02
		C518.3,108.48,518.3,108.44,518.3,108.4z M459.41,206.97c0.1,1.36,0.09,2.74,0.31,4.08c0.52,3.12,4.35,7.22,6.95,7.13
		c3.83-0.12,7.7-0.01,11.26-2.06c1.41-0.81,3.22-1.12,4.87-1.23c4.63-0.3,8.31-2.84,12.24-4.83c0.29-0.15,0.53-0.44,0.73-0.71
		c1.55-2.02,0.91-3.87-1.59-4.36c-2.01-0.39-4.04-0.69-6.07-0.89c-6.33-0.61-11.58-2.97-15.01-8.67c-0.79-1.32-2.25-2.22-3.33-3.39
		c-1.11-1.19-1.71-0.89-2.47,0.42c-1.47,2.54-2.77,5.35-4.81,7.35C460.35,201.94,459.08,203.98,459.41,206.97z M503.7,108.87
		c0.01-2.33-1.5-3.16-3.61-2c-0.97,0.53-1.95,1.51-2.92,1.49c-1.77-0.03-2.15,1.1-2.43,2.24c-0.34,1.41-0.42,2.89-0.48,4.35
		c-0.05,1.25,0.73,1.72,1.71,0.96c1.27-0.99,2.61-1.48,4.18-1.84C502.35,113.58,503.69,111.29,503.7,108.87z"/>
	<path class="st0" d="M471.88,71.94c0.04,3.79-0.56,4.62-3.22,4.95c-4.61,0.57-9.23,1.08-13.86,1.44c-1.5,0.12-2.56,0.55-3.48,1.72
		c-1.47,1.88-3.06,3.67-4.59,5.5c-1.33,1.59-2.73,2.99-5.01,3.22c-0.64,0.06-1.44,0.75-1.76,1.36c-1,1.89-1.8,3.89-2.69,5.84
		c-0.3,0.66-0.65,1.3-0.97,1.94c-0.08-0.67-0.25-1.34-0.23-2c0.06-2.22,0.89-4.19,2.1-6.03c0.37-0.56,0.96-1.33,0.82-1.81
		c-0.99-3.18,1.25-5.15,2.69-7.34c2.24-3.42,4.69-6.71,7.11-10.01c2-2.73,4.78-4.5,7.76-5.98c1.32-0.66,2.77-1.14,3.96-1.97
		c2.2-1.55,4.56-1.35,6.87-0.74c0.94,0.25,2.08,1.22,2.39,2.12C470.74,67.03,471.38,70.03,471.88,71.94z"/>
	<path class="st0" d="M456.81,108.85c-0.86,1.64,0.22,3.27,0.58,5.08c0.52,2.68,1.53,5.91-1.76,7.99c-0.45,0.29-0.61,1.18-0.74,1.83
		c-0.43,2.22-0.85,4.45-1.13,6.7c-0.13,1.07-0.15,2.35-1.43,2.21c-0.61-0.07-1.4-1.39-1.52-2.22c-0.21-1.43-0.09-2.94,0.12-4.39
		c0.47-3.21,0.47-3.09-2.27-4.56c-2.38-1.28-4.69-2.73-6.84-4.36c-0.78-0.59-1.35-1.85-1.47-2.87c-0.4-3.25-0.56-6.54-0.76-9.81
		c-0.01-0.15,0.64-0.52,0.7-0.46c2.89,2.45,6.2,1.49,9.43,1.23c1.24-0.1,2.49-0.29,3.73-0.28
		C455.91,104.96,456.88,106.04,456.81,108.85z M450.65,115.97c-0.12-0.49-0.16-1.71-0.73-2.61c-0.45-0.71-1.59-1.46-2.34-1.38
		c-0.78,0.08-1.68,1.01-2.13,1.79c-0.58,1.01-0.03,1.94,0.98,2.54c0.78,0.46,1.51,1,2.31,1.41
		C450.39,118.59,450.65,118.42,450.65,115.97z"/>
	<path class="st0" d="M492.71,176.28c-1.72-0.79-3.52-1.45-5.13-2.42c-1.2-0.73-1.31-3.2-0.44-4.32c0.79-1.01,1.97-0.85,3.2,0.22
		c1.16,1.01,2.49,1.83,3.71,2.78c0.68,0.53,1.28,1.15,1.92,1.72c-0.8,0.52-1.59,1.06-2.41,1.56c-0.17,0.1-0.45,0.04-0.67,0.05
		C492.84,176.01,492.77,176.15,492.71,176.28z"/>
	<path class="st0" d="M494.4,183.59c-0.01,1.88-1.18,3.26-2.72,3.19c-1.39-0.06-2.25-1.15-2.23-2.81c0.03-2.1,1.24-3.51,2.91-3.38
		C493.61,180.68,494.4,181.84,494.4,183.59z"/>
	<path class="st0" d="M453.84,180.75c-0.23,1.18-1.5,1.93-2.9,1.69c-1.61-0.27-2.64-1.7-2.21-3.19c0.29-1.01,0.83-1.94,2.12-1.72
		C452.41,177.8,454.06,179.63,453.84,180.75z"/>
	<path class="st0" d="M484.23,179.35c-0.19,1.61-1.03,2.41-2.35,2.23c-1.18-0.16-2-1.41-1.83-2.8c0.15-1.23,1.42-2.16,2.68-1.97
		C483.94,176.98,484.42,177.79,484.23,179.35z"/>
	<path class="st0" d="M501.78,177.7c-1.05,0.5-1.73,1.03-2.45,1.08c-0.41,0.03-0.88-0.73-1.32-1.13c0.72-0.57,1.4-1.21,2.2-1.63
		C500.36,175.95,500.99,176.83,501.78,177.7z"/>
</g>
</svg>
