<?xml version="1.0" encoding="utf-8"?>
<!-- Generator: Adobe Illustrator 23.0.4, SVG Export Plug-In . SVG Version: 6.00 Build 0)  -->
<svg version="1.1" id="Layer_1" xmlns="http://www.w3.org/2000/svg" xmlns:xlink="http://www.w3.org/1999/xlink" x="0px" y="0px"
	 viewBox="0 0 746 436" style="enable-background:new 0 0 746 436;" xml:space="preserve">
<style type="text/css">
	.st0{fill:#480B43;}
	.st1{fill:#D6B777;}
</style>
<g>
	<path class="st0" d="M308.02,429.43c-2.66,0-4.96,0.03-7.26-0.01c-10.26-0.17-20.52-0.37-30.78-0.55c-1.2-0.02-2.41-0.11-3.61-0.01
		c-2.74,0.22-4.51-1.2-5.33-3.55c-1.03-2.95-1.85-6-2.43-9.06c-0.56-2.99-0.7-6.05-1.04-9.08c-0.36-3.22-1.75-6.03-3.67-8.57
		c-1.45-1.92-3.35-2.99-5.87-3.24c-2.35-0.23-4.64-0.99-7.1-1.55c-0.2-1.5-0.4-2.76-0.54-4.03c-0.53-5.13-0.65-10.35-1.7-15.37
		c-0.64-3.06-2.41-6.03-4.24-8.65c-3.54-5.07-7.29-10.03-11.35-14.69c-1.82-2.09-4.59-3.35-6.95-4.95c-1.68-1.14-3.48-2.11-5.1-3.33
		c-2.73-2.04-3.72-4.97-3.78-8.27c-0.03-1.62,0.46-3.06,1.5-4.36c2.31-2.87,4.63-5.74,6.78-8.74c0.84-1.17,1.6-2.61,1.76-4.01
		c0.98-8.48-1.49-15.82-8.2-21.25c-4.44-3.6-9.33-6.65-13.98-10c-3.97-2.86-7.89-5.81-11.83-8.72c-0.15-0.11-0.31-0.22-0.42-0.36
		c-3.39-4.23-8.24-6.44-12.76-9.01c-7.22-4.12-14.68-7.83-21.96-11.85c-2.9-1.6-5.64-3.52-8.4-5.38c-2.68-1.81-5.4-3.59-7.9-5.64
		c-2.85-2.34-5.64-4.79-8.14-7.5c-3-3.26-5.78-6.74-8.43-10.29c-3.76-5.03-6.05-10.76-7.63-16.81c-0.58-2.23-1.55-4.36-2.15-6.59
		c-0.52-1.94-0.82-3.95-1.1-5.95c-0.52-3.75-1.23-7.51-1.35-11.27c-0.22-6.55-0.2-13.12,0.01-19.68c0.13-4.14,0.72-8.28,1.26-12.4
		c0.47-3.61,1.9-6.92,3.41-10.22c2.74-5.96,5.33-11.99,8.01-17.97c0.49-1.1,0.37-1.97-0.61-2.67c-1.57-1.13-3.08-2.39-4.76-3.33
		c-3.71-2.07-7.38-4.32-11.32-5.87c-4.18-1.65-8.58-3.01-13.01-3.73c-5.04-0.82-9.95-2-14.88-3.21
		c-11.55-2.82-22.57-1.88-32.67,4.95c-2.07,1.4-4.1,2.87-6.23,4.16c-4.26,2.57-7.45,6.16-9.48,10.6c-1.96,4.27-3.65,8.7-5.07,13.17
		c-1.12,3.5-0.99,7.08,1.05,10.43c0.75,1.23,1.22,2.72,1.44,4.15c0.91,6.04,4.36,10.02,9.75,12.56c3.86,1.82,7.9,2.45,12.14,2.09
		c3.22-0.27,5.62-1.87,7.2-4.56c1.07-1.82,2.13-3.76,2.62-5.78c1.97-8.21,7.28-13.57,14.46-17.3c6.16-3.19,12.5-5.94,19.28-7.66
		c3.62-0.92,7.16-0.65,10.73-0.19c0.8,0.1,1.55,0.66,2.29,1.35c-8.35,1.63-15.73,5.02-22.25,10.24c-0.89,0.72-1.48,1.81-1.92,3.16
		c0.55-0.17,1.11-0.29,1.63-0.51c3.24-1.34,6.49-2.67,9.71-4.06c2.73-1.18,5.55-0.92,8.5-0.8c-2.94,3.81-6.12,7.07-10.06,9.62
		c-3.15,2.04-4.69,3.91-6.2,6.75c2.34-0.64,3.8-2.21,5.6-3.11c1.8-0.91,3.57-1.89,5.36-2.85c0.15,0.34,0.31,0.55,0.26,0.63
		c-2.43,3.82-4.57,7.87-7.39,11.36c-3.37,4.16-7.41,7.76-11.95,10.69c-0.85,0.55-1.79,0.95-2.67,1.46
		c-3.91,2.24-8.25,2.49-12.58,2.86c-1.14,0.1-2.24,0.61-3.37,0.88c-0.79,0.19-1.6,0.43-2.4,0.43c-3.89,0.01-7.77,0.02-11.66-0.1
		c-9.66-0.28-16.97-5.06-23.08-12.14c-3.55-4.11-5.25-9.08-6.89-14.1c-0.11-0.35-0.14-0.74-0.3-1.07
		c-3.23-6.53-1.74-13.21-0.57-19.85c0.53-2.98,1.33-5.92,2.07-8.87c0.15-0.61,0.51-1.19,0.86-1.73c1.9-2.95,3.88-5.86,5.75-8.84
		c2.94-4.69,7.37-7.4,12.28-9.56c1.34-0.59,2.69-1.23,3.9-2.05c5.14-3.48,10.88-5.74,16.84-6.9c6.5-1.26,13.14-2.09,19.83-1.98
		c4.9,0.08,9.81,0.07,14.71-0.02c5.86-0.11,11.66,0.55,17.33,1.88c3.94,0.92,7.68,2.65,11.58,3.78c10.33,2.98,20.56,3.47,30.42-1.83
		c1.55-0.83,3.16-1.55,4.67-2.45c7.03-4.22,14.8-5.73,22.81-6c9.71-0.34,19.43-0.09,29.13-0.48c8.95-0.37,17.84-1.44,26.66-3.28
		c10.93-2.28,21.15-6.62,31.71-9.95c10.16-3.21,19.84-7.63,29.85-11.16c2.7-0.95,5.5-1.65,8.15-2.7c4.55-1.8,9.04-3.74,13.53-5.71
		c6.94-3.04,13.81-6.24,20.79-9.2c8.45-3.58,16.49-7.94,24.54-12.3c2.44-1.32,4.82-2.78,7.34-3.91c5.3-2.36,9.85-5.81,14.36-9.36
		c2.93-2.31,6.1-4.12,9.6-5.45c6.3-2.38,12.46-5.16,18.81-7.4c5.13-1.81,10.36-3.73,15.7-4.42c7.02-0.91,14.08-0.51,21.2,0.95
		c6.47,1.33,12.52,3.75,18.82,5.45c3.65,0.99,7.24,2.17,10.86,3.27c3.65,1.11,7.42,1.35,11.18,1.83c4.07,0.52,8.02,2.06,12.01,3.2
		c2.22,0.64,4.43,1.33,6.6,2.1c1.56,0.55,3.26,1.01,4.54,1.99c4.13,3.16,9.05,4.07,13.87,5.3c2.76,0.71,5.52,1.47,8.29,2.14
		c2.14,0.52,4.29,1.12,6.47,1.38c5.08,0.61,9.96,1.81,14.71,3.74c3.5,1.42,7.12,2.57,10.74,3.65c1.49,0.45,2.7,1.12,3.74,2.22
		c1.14,1.21,2.43,2.3,3.47,3.58c2.08,2.55,4.89,3.13,7.91,3.12c1.73,0,3.26,0.44,4.74,1.3c5.11,2.95,10.39,5.64,15.33,8.85
		c3.78,2.46,7.18,5.51,10.68,8.38c1.81,1.48,1.7,3.03-0.33,4.21c-7.75,4.49-14.24,10.53-20.66,16.66c-2.86,2.73-4.33,6.17-5.02,9.99
		c-0.45,2.46-0.84,4.92-1.32,7.37c-0.5,2.58-0.12,5,1.29,7.19c1.69,2.64,3.49,5.22,5.3,7.79c1.16,1.64,2.22,3.43,3.69,4.76
		c3.47,3.15,7.74,5.24,12.13,6.51c4.27,1.24,8.67,0.48,11.95-3.19c1.23-1.38,2.56-2.68,3.72-4.11c1.48-1.81,1.61-4.06,1.78-6.27
		c0.17-2.12,0.35-4.24,0.42-6.36c0.06-1.71,0.93-2.68,2.43-3.35c1.77-0.78,3.49-1.69,5.22-2.55c1.78-0.89,2.79-0.71,3.7,1
		c2.53,4.76,4.69,9.65,4.74,15.19c0.03,3.05,0.02,6.11,0.2,9.15c0.34,5.57-1.3,10.59-3.99,15.34c-2.64,4.66-5.08,9.46-8.05,13.91
		c-2.8,4.2-5.65,8.46-9.82,11.58c-2.91,2.17-5.21,4.93-7.26,7.95c-1.29,1.9-2.92,3.58-4.51,5.24c-3.76,3.91-6.72,8.32-8.95,13.26
		c-2.13,4.71-4.23,9.46-6.68,14c-1.97,3.65-4.39,7.07-6.7,10.53c-3.15,4.71-5.7,9.68-7.76,14.97c-1.13,2.9-2.87,5.58-4.57,8.22
		c-1.18,1.84-4.83,2.63-7.42,1.46c-3.32-1.51-7.06-2.31-9.69-5.2c-0.46-0.5-1.47-0.62-2.25-0.69c-1.38-0.11-2.78,0.02-4.16-0.08
		c-3.16-0.23-4.4-1.62-4.62-4.7c-0.2-2.75-0.72-5.48-0.86-8.23c-0.25-4.73-0.03-9.43,2.47-13.68c1.09-1.86,1.91-3.8,1.95-6
		c0.03-1.51-0.48-2.59-1.89-3.39c-1.15-0.65-2.07-1.7-3.31-2.77c-2.98,3.15-5.21,6.61-5.36,11.11c-0.08,2.31,0.1,4.64-0.07,6.94
		c-0.12,1.53-0.48,3.11-1.06,4.53c-0.82,1.99-1.93,2.59-3.99,1.92c-2.44-0.79-4.9-1.75-7.07-3.09c-2.22-1.36-3.35-3.65-3.26-6.37
		c0.15-4.62,0.42-9.23,0.44-13.85c0.03-7.03-0.15-14.06-0.16-21.08c-0.02-8.41,0.04-16.82,0.08-25.24c0-0.46,0.07-0.93,0.18-1.37
		c2.56-9.92,4.76-19.95,9.32-29.23c0.32-0.66,0.56-1.37,0.8-2.07c0.05-0.14-0.03-0.33-0.06-0.57c-0.23,0.17-0.51,0.28-0.64,0.49
		c-3.31,5.23-6.85,10.33-9.83,15.74c-3.92,7.1-6.33,14.79-7.15,22.88c-0.38,3.76-0.27,7.56-0.36,11.35
		c-0.03,1.02,0.08,2.05-0.04,3.05c-0.15,1.32-1.04,1.91-2.12,1.16c-1.55-1.09-2.99-2.44-4.19-3.91c-1.79-2.21-3.37-4.59-5.96-6.61
		c-0.15,0.9-0.34,1.47-0.32,2.03c0.14,3.8,0.35,7.56,2.64,10.88c0.99,1.43,0.62,2.69-0.99,3.44c-2.23,1.05-4.37,2.47-7,2.47
		c-0.45,0-0.95,0.07-1.35,0.26c-4.08,1.94-8.37,3.47-11.97,6.35c-1.57,1.25-2.47,2.68-2.46,4.7c0.03,10.73,0.04,21.46,0.06,32.2
		c0.01,2.87,0.02,5.73,0.03,8.6c0.01,3.33-0.05,6.66,0.08,9.98c0.04,0.94,0.55,1.9,0.98,2.79c0.59,1.22,1.49,2.31,1.93,3.58
		c2.18,6.28,4.15,12.62,7.23,18.56c1.78,3.43,3.68,7,3.03,11.05c-0.55,3.45-1.48,6.85-2.39,10.23c-0.22,0.83-0.88,1.72-1.59,2.2
		c-2.59,1.76-5.15,3.57-8.32,4.26c-1.33,0.29-2.63,0.85-3.86,1.46c-2.11,1.04-4.26,1.55-6.64,1.64c-4.82,0.18-9.55,1.16-14.06,2.86
		c-4.57,1.72-8.99,3.85-13.51,5.71c-2.39,0.98-4.8,1.96-7.28,2.64c-4.31,1.17-7.71,3.95-11.4,6.2c-4.05,2.48-8.23,4.23-13.09,3.55
		c-1.35-0.19-2.69-0.55-4.01-0.92c-3.82-1.05-7.65-2.06-11.44-3.24c-6.14-1.92-12.71-2.49-18.39-5.91
		c-1.98-1.19-4.12-2.12-6.51-2.16c-1.17-0.02-1.85-0.63-2.37-1.6c-0.96-1.79-1.98-3.55-3.1-5.54c1.53-1.8,3.05-3.63,4.61-5.43
		c2.97-3.44,6.13-6.51,10.45-8.46c4.27-1.92,8.16-4.67,12.28-6.94c1.51-0.83,3.21-1.3,4.81-1.97c1.01-0.43,2.04-0.85,2.99-1.39
		c2.32-1.29,4.44-1.53,6.61,0.44c1.56,1.42,3.35,2.61,5.09,3.84c1.27,0.9,2.63,1.68,3.98,2.53c-0.85,3.53-3.24,6.25-5.39,9.14
		c-1.26,1.69-2.46,3.47-3.35,5.37c-0.86,1.83-1.84,3.35-3.72,4.26c-0.87,0.42-1.56,1.21-2.7,2.14c1.02,0.27,1.59,0.56,2.14,0.54
		c4.93-0.13,8.89-1.96,11.55-6.34c0.94-1.55,2.16-2.98,3.44-4.28c2.34-2.38,3.62-5.33,4.74-8.37c1.01-2.75,0.96-2.65,3.89-2.9
		c2.93-0.25,5.85-0.76,8.76-1.24c3.82-0.63,7.62-1.49,11.46-1.96c1.68-0.2,3.45,0.33,5.18,0.54c1.09,0.13,2.19,0.45,3.26,0.38
		c2.07-0.13,2.73-1.27,1.98-3.23c-1.33-3.48-2.96-6.88-5.71-9.41c-6.6-6.05-12.44-12.96-19.97-17.99c-0.84-0.56-1.66-1.23-2.27-2.02
		c-2.19-2.88-5.06-4.9-8.27-6.38c-4.84-2.23-6.28-6.56-6.98-11.2c-0.44-2.92,0.18-5.84,1.07-8.73c0.96-3.14,1.38-6.44,2.03-9.68
		c-0.24-0.09-0.49-0.18-0.73-0.26c-0.68,1.34-1.38,2.68-2.04,4.02c-0.33,0.66-0.54,1.39-0.93,2c-0.47,0.75-1.26,0.89-1.91,0.35
		c-0.7-0.58-1.34-1.28-1.85-2.04c-2.48-3.67-4.92-7.37-7.35-11.08c-0.45-0.69-0.96-1.42-1.15-2.2c-1.42-5.91-3.28-11.74-2.88-17.97
		c0.38-5.99,0.45-12.01,0.65-18.01c0.03-0.9,0-1.8,0-2.7c-0.22-0.04-0.43-0.07-0.65-0.11c-0.57,1.97-1.29,3.9-1.7,5.9
		c-1.07,5.34-2.01,10.71-2.99,16.07c-0.02,0.09,0,0.19-0.03,0.27c-1.67,4.42-1.32,9.09-1.68,13.68c-0.23,2.94,0.23,5.61,1.5,8.31
		c2.68,5.74,6.04,11.04,10.04,15.91c1.78,2.17,1.89,4.55,1.63,7.06c-0.16,1.57-1.14,2.73-2.46,3.52c-0.78,0.47-1.64,0.97-2.52,1.11
		c-3.81,0.64-7.52,1.72-11.42,2.01c-5.28,0.4-10.39,1.77-15.23,3.96c-2.51,1.14-5.03,1.68-7.77,1.54
		c-7.66-0.38-15.41-0.1-22.98-1.18c-8.51-1.22-16.98-1.17-25.46-0.76c-5.51,0.27-10.99,1.38-16.46,2.27
		c-1.42,0.23-2.74,1.01-4.3,1.61c-0.99-1.69-1.98-3.43-3.03-5.14c-2.27-3.71-4.59-7.38-6.84-11.1c-1.61-2.66-3.74-4.88-6.29-6.56
		c-2.98-1.96-6.17-3.6-9.44-5.21c0.56,2.08,1.34,3.97,2.72,5.57c0.84,0.98,1.64,2.04,2.64,2.84c2.36,1.89,3.35,4.53,4.28,7.22
		c1.74,4.97,3.42,9.95,5.14,14.92c1.39,4.02,2.74,8.05,4.24,12.03c0.82,2.17,0.89,4.35,0.49,6.55c-0.63,3.45-1.34,6.89-2.11,10.32
		c-0.97,4.33-3.57,7.88-5.73,11.64c-2.71,4.72-5.58,9.36-8.13,14.18c-3.84,7.27-7.47,14.65-11.17,21.99
		c-1.55,3.08-1.94,6.25-0.98,9.65c2.01,7.07,4.98,13.71,8.32,20.23c3.28,6.41,6.56,12.84,9.53,19.39c1.42,3.13,3.41,5.66,5.84,7.96
		c3.23,3.05,6.43,6.12,9.64,9.18c0.47,0.45,0.9,0.98,1.45,1.28c6.38,3.4,9.45,9.43,12.08,15.64c1.76,4.15,2.87,8.58,4.25,12.89
		C307.83,428.05,307.87,428.6,308.02,429.43z M259.31,172.53c0.19-0.03,0.38-0.06,0.57-0.08c0-0.91,0-1.81,0-2.72
		c0-4.99-0.01-9.98,0.02-14.98c0.01-2.31,0.29-4.62,0.14-6.92c-0.17-2.63,0.04-5.16,0.81-7.66c1.88-6.1,3.91-12.14,7.52-17.51
		c1.08-1.61,2.12-3.25,3.1-4.93c0.27-0.46,0.24-1.08,0.42-2.04c-0.85,0.4-1.32,0.5-1.64,0.79c-2,1.78-3.97,3.59-5.95,5.39
		c-1.09,0.99-2.05,2.28-3.33,2.88c-2.53,1.18-4.31,3.17-6.16,5.07c-0.74,0.76-1.22,1.85-1.56,2.88c-0.72,2.18-1.32,4.4-1.88,6.63
		c-0.31,1.24-0.57,2.51-0.64,3.79c-0.19,3.21,0.93,6.16,1.88,9.17c0.83,2.63,1.74,5.31,1.99,8.03
		C255.04,164.91,257.1,168.72,259.31,172.53z M450.04,110c0.14-0.21,0.28-0.41,0.42-0.62c-1.15-1.02-2.34-1.99-3.43-3.05
		c-4.48-4.38-7.46-9.83-10.73-15.08c-1.71-2.73-2.49-5.69-2.78-8.88c-0.2-2.18-0.82-4.32-1.26-6.48c-0.28-1.35-0.63-2.69-0.84-4.05
		c-0.3-1.91-0.33-3.88-0.77-5.75c-0.8-3.35-1.14-6.72-1.08-10.16c0.05-2.69-0.28-5.35-1.5-7.79c-0.29-0.58-0.94-1.31-1.47-1.35
		c-0.53-0.04-1.2,0.62-1.67,1.11c-0.51,0.52-0.8,1.25-1.29,1.79c-1.54,1.69-2.01,3.67-1.89,5.89c0.11,2.12,0.16,4.24,0.21,6.37
		c0.15,6.58,1.75,12.86,4.8,18.6c2.54,4.78,4.7,9.84,8.25,14.06c0.87,1.04,1.49,2.35,2.01,3.62c1.48,3.57,4.42,5.88,7.2,8.25
		C445.92,107.91,448.08,108.84,450.04,110z M439.82,242.57c-0.21,0.1-0.43,0.21-0.64,0.31c-0.15,3.78-0.01,7.4,2.55,10.68
		c2.38,3.04,4.4,6.37,6.5,9.62c2.2,3.41,4.14,7,6.5,10.29c2.13,2.97,3.75,6.1,4.97,9.52c0.67,1.88,1.65,3.7,2.75,5.37
		c0.68,1.03,0.77,1.79,0.07,2.73c-1.29,1.72-2.58,3.44-3.91,5.22c2.72,0.46,5.28,0.03,7.77-1.54c2.65-1.67,3.56-4.82,2-7.6
		c-1.85-3.29-3.53-6.68-5.38-9.97c-1.21-2.16-2.62-4.21-3.91-6.33c-0.86-1.41-1.79-2.81-2.45-4.31c-1.24-2.88-2.32-5.82-3.45-8.75
		c-0.77-2.01-1.88-3.75-3.52-5.21c-1.86-1.65-3.56-3.48-5.31-5.26C442.84,245.76,441.34,244.16,439.82,242.57z M368.93,44.11
		c-0.85,0-1.13-0.06-1.37,0.01c-4.57,1.19-8.96,2.78-12.96,5.41c-4.47,2.95-9.12,5.61-14.14,7.56c-0.83,0.32-1.66,0.9-2.23,1.57
		c-1.92,2.23-4.39,3.63-6.92,4.98c-1.45,0.77-2.81,1.7-4.2,2.55c0,1.48,0,2.73,0,4.08c2.61-1.08,5.03-2.22,7.53-3.1
		c6.64-2.35,13-5.24,18.89-9.15c1.76-1.17,3.74-1.99,5.55-3.09c1.41-0.85,2.97-1.65,4-2.87C365.09,49.7,366.79,47.06,368.93,44.11z
		 M247.54,343.39c0.23-0.01,0.45-0.01,0.68-0.02c0.2-1.13,0.53-2.26,0.58-3.4c0.1-2.12,0.09-4.25,0.05-6.37
		c-0.13-6.73,2.25-12.76,5.96-18.1c3.32-4.77,5.81-9.84,7.8-15.22c1-2.71,0.66-5.5,0.56-8.39c-0.54,0.17-0.79,0.17-0.87,0.28
		c-3.94,5.56-8.21,10.93-11.68,16.77c-2.13,3.58-3.19,7.85-4.4,11.9c-0.62,2.07-0.79,4.38-0.66,6.54c0.28,4.51,0.89,9,1.4,13.49
		C247.06,341.73,247.34,342.56,247.54,343.39z M225.37,183.89c-0.2-0.15-0.4-0.29-0.59-0.44c-1.59,1.26-3.14,2.57-4.77,3.75
		c-1.49,1.08-2.96,2.39-4.66,2.96c-6.46,2.15-12.7,5.06-19.71,5.37c-3.68,0.17-6.35,2.43-8.4,5.75c3.64,0.52,6.98,0.72,10.18,1.5
		c6.92,1.68,12.79-0.96,17.78-4.94C219.69,194.24,221.92,188.53,225.37,183.89z M497.4,148.01c0.22,0.01,0.45,0.02,0.67,0.03
		c0.13-0.23,0.34-0.45,0.39-0.7c0.21-0.99,0.51-1.99,0.54-3c0.17-6.95,2.33-13.45,4.62-19.88c2.32-6.51,4.94-12.92,7.46-19.35
		c0.15-0.39,0.55-0.7,0.86-1.02c1.23-1.27,1.44-2.16,0.8-3.4c-0.7-1.36-1.97-2.09-3.48-1.4c-2.16,0.98-4.22,2.24-6.14,3.64
		c-1.27,0.93-1.89,2.42-2.06,4.09c-0.25,2.57-0.75,5.12-1,7.69c-0.73,7.63-1.43,15.27-2.07,22.91
		C497.71,141.07,497.6,144.54,497.4,148.01z M363.96,159.69c0.17-0.72,0.3-1.05,0.32-1.39c0.45-7.54,2.28-14.85,5.15-21.71
		c1.75-4.17,2.83-8.06,2-12.46c-0.07-0.36,0.01-0.74-0.04-1.11c-0.29-2.28-0.59-4.56-0.92-6.84c-0.24-1.64-0.52-3.27-0.81-4.91
		c-0.1-0.59-0.29-1.16-0.47-1.82c-2.35,1.78-3.22,3.9-2.9,6.62c0.18,1.55,0.01,3.14,0.04,4.7c0.1,4.88-0.91,9.59-2.77,14.03
		c-2.64,6.3-2.86,12.72-1.79,19.29C362.08,155.95,362.65,157.78,363.96,159.69z M255.06,91.76c6.19,0.33,12.29-0.03,18.28-1.67
		c8.2-2.25,16.52-3.89,25-4.61c1.71-0.15,3.02-0.78,4.01-2.1c1.77-2.36,3.52-4.74,5.25-7.14c0.34-0.47,0.55-1.03,0.99-1.87
		c-4.25,1.04-7.96,2.26-11.55,3.99c-7.08,3.42-14.33,6.41-22.22,7.37C267.88,86.58,261.6,89.56,255.06,91.76z M392.52,291.94
		c-4.89,0.53-20.83,11.79-23.85,16.49c3.02,4.63,8.07,7.33,13.75,7.3c0.3-1.42-0.01-2.55-1.03-3.73c-2.54-2.94-2.24-5.1,0.67-7.69
		c0.67-0.59,1.07-1.48,1.63-2.2c1.8-2.32,3.58-4.66,5.46-6.92C390.02,294.15,391.11,293.28,392.52,291.94z M297.55,422.18
		c-0.97-7.15-10.62-21.42-14.47-23.15c2.68,6.51,6.12,12.75,5,20.26c-4.48,0.3-9.19,0.31-13.9,2.66c2.39,1.21,4.5,1.04,6.58,0.97
		c4.71-0.14,9.41-0.31,14.12-0.49C295.77,422.41,296.66,422.27,297.55,422.18z M171.67,235.14c0.11-0.09,0.22-0.19,0.32-0.28
		c-0.14-0.31-0.23-0.66-0.43-0.93c-1.69-2.3-3.62-4.25-6.02-5.97c-4.85-3.49-9.3-7.53-13.95-11.29c-0.77-0.62-1.65-1.28-2.58-1.5
		c-2.23-0.54-4.52-0.42-6.77-0.05c0.34,4.21,1.05,5.29,4.55,6.95c0.83,0.39,1.69,0.73,2.54,1.08c2.72,1.12,5.59,1.99,8.14,3.41
		C162.3,229.24,166.95,232.26,171.67,235.14z M242.81,241.05c0.32-0.33,0.41-0.38,0.44-0.46c0.1-0.26,0.21-0.51,0.26-0.78
		c1.08-5.9,3.27-11.27,7.45-15.72c1.03-1.09,0.26-6.13-1.09-6.8c-0.71-0.35-1.78-0.32-2.58-0.08c-0.63,0.18-1.19,0.87-1.6,1.45
		c-2.15,3.05-3.95,6.3-4.35,10.06c-0.24,2.27,0.24,4.63-0.11,6.88C240.89,237.75,241.71,239.28,242.81,241.05z M565.74,167.05
		c0.18-0.02,0.36-0.04,0.54-0.07c0.03-0.53,0.18-1.08,0.09-1.59c-0.42-2.26-0.95-4.5-1.37-6.76c-1.3-6.95-0.11-13.22,5.14-18.33
		c0.52-0.51,1.12-0.94,1.7-1.43c-0.43-0.95-0.75-1.69-1.19-2.66c-1.04,0.24-2.02,0.4-2.94,0.71c-0.87,0.29-1.67,0.78-2.52,1.12
		c-3.21,1.3-4.46,3.08-4.35,6.58c0.07,2.12,0.38,4.23,0.48,6.35c0.25,5.24,1.98,10.1,3.73,14.97
		C565.19,166.33,565.51,166.68,565.74,167.05z M582.08,166.75c0.22,0.12,0.43,0.25,0.65,0.37c1.91-1.84,3.96-3.56,5.68-5.56
		c2.85-3.29,3.6-6.97,1.32-10.96c-0.4-0.7-0.64-1.48-0.93-2.19c-3.95,0.45-6.92,3.72-7.1,7.93c-0.12,2.76-0.02,5.53,0.03,8.3
		C581.74,165.34,581.96,166.05,582.08,166.75z M545.27,86.82c0.73-0.05,0.82-0.03,0.88-0.07c6.93-4.84,14.39-8.53,22.59-10.7
		c0.42-0.11,1.02-0.29,1.17-0.61c0.86-1.88,1.93-3.72,1.85-5.98c-2.03-0.63-3.71-0.22-5.25,1.03c-2.96,2.41-6.26,4.07-9.9,5.32
		C551.37,77.61,548.27,81.87,545.27,86.82z M460.01,146.95c-0.77,0.32-1.09,0.43-1.39,0.59c-3.33,1.82-5.86,4.49-7.85,7.68
		c-1.58,2.55-3.79,4.27-6.55,5.3c-0.86,0.32-1.83,0.38-2.66,0.75c-0.68,0.31-1.23,0.9-1.83,1.37c0.46,0.52,0.82,1.26,1.39,1.53
		c3.05,1.39,6.1,2.32,9.53,0.89c1.79-0.75,2.78-1.65,2.79-3.57c0.01-2.59,0.98-4.88,2.24-7.06c1.11-1.92,2.3-3.79,3.45-5.7
		C459.4,148.3,459.59,147.83,460.01,146.95z M140.35,149.59c-3.79,4-7.42,7.27-8.93,12.18c-0.48,1.55-1.57,2.91-2.33,4.38
		c-0.41,0.8-0.95,1.64-1.03,2.5c-0.36,3.6-0.05,7.14,1.8,11.11c0.27-1.65,0.51-2.69,0.61-3.75c0.36-3.87,1.44-7.4,4.29-10.24
		c0.7-0.7,1.29-1.61,1.65-2.53c1.37-3.52,2.67-7.07,3.9-10.64C140.56,151.88,140.35,151,140.35,149.59z M520.77,85.87
		c0.28,0.09,0.56,0.17,0.85,0.26c4.28-7.78,11.36-13.12,17.06-19.67c-0.38-0.44-0.53-0.79-0.73-0.82c-2.87-0.51-5.74-0.82-7.94,1.69
		c-3.86,4.41-7.19,9.16-8.89,14.85C520.77,83.34,520.88,84.64,520.77,85.87z M388.64,113.15c0.92,4.01,3.46,7.31,5.02,11.04
		c1.59,3.8,3.84,7.24,6.42,10.63C401.28,127.09,398.59,118.47,388.64,113.15z M265.23,271.59c0.21,0,0.42,0.01,0.62,0.01
		c0.85-1.9,1.56-3.84,1.59-5.98c0.04-3.42-0.21-6.68-1.64-9.97c-1.06-2.45-2.22-4.83-3.51-7.16c-0.55-1-1.35-1.53-2.52-1.01
		c-1.05,0.46-1.62,1.27-1.36,2.42c0.18,0.8,0.48,1.58,0.85,2.31c1.33,2.63,2.74,5.23,4.08,7.86c1.4,2.76,2.18,5.67,1.88,8.81
		C265.15,269.78,265.23,270.69,265.23,271.59z M585.78,177.28c0.17,0.19,0.34,0.38,0.51,0.56c0.78-0.42,1.65-0.73,2.33-1.28
		c3.16-2.54,6.47-4.96,9.34-7.81c1.85-1.84,3.23-4.25,4.45-6.6c1.26-2.43,0.62-4.23-1.52-5.72
		C597.76,164.75,590.89,170.38,585.78,177.28z M455.4,222.57c0.21-0.06,0.41-0.11,0.62-0.17c0.1-1.09,0.04-2.22,0.32-3.26
		c0.42-1.57,0.83-3.23,1.66-4.59c1.88-3.07,1.19-5.99,0.06-9.02c-0.62,0.68-0.94,1.41-1.31,2.12c-0.85,1.63-1.51,3.44-2.66,4.82
		c-1.54,1.84-1.57,3.64-0.74,5.64C453.99,219.61,454.71,221.08,455.4,222.57z M556.47,230.05c0.46-0.57,0.78-0.81,0.87-1.12
		c0.89-2.85,0.33-5.67-0.4-8.44c-0.12-0.46-0.86-0.94-1.39-1.05c-0.87-0.19-1.86-0.27-2.45,0.75c-0.73,1.26-0.89,3.48,0.03,4.16
		C555.01,225.72,556.06,227.5,556.47,230.05z"/>
	<path class="st0" d="M47.43,422.81c0-1.26-0.01-2.17,0-3.07c0.11-7.03,0.54-14.06,0.26-21.07c-0.23-5.58-2.13-10.7-7.31-13.86
		c-2.05-1.24-4.15-2.39-6.42-3.7c0.08-0.49,0.03-1.17,0.31-1.69c1.49-2.76,3.11-5.44,4.58-8.21c1.95-3.68,3.78-7.47,3.87-11.73
		c0.2-10.01,1.32-19.91,2.88-29.79c0.55-3.46,0.76-6.98,0.89-10.48c0.15-4.16,0.03-8.33,0.08-12.49c0.03-2.56-0.62-4.85-1.93-7.1
		c-2.65-4.54-4.18-9.42-3.95-14.79c0.14-3.3,1.16-6.11,3.54-8.46c1-0.98,2.05-1.64,3.42-1.48c5.35,0.64,10.41-1.29,15.65-1.68
		c1.66-0.12,3.35-1.01,4.86-1.84c2.7-1.49,5.45-2.73,8.5-3.24c2.09-0.35,3.78-1.44,5.3-2.84c2.31-2.13,4.68-4.12,7.48-5.68
		c2.62-1.46,4.18-4.15,5.52-6.8c4.81-9.47,7.46-19.47,7.23-30.16c-0.08-3.51-0.01-7.02,0.24-10.61c3.38,14.07,8.38,27.23,20,36.9
		c-3.6,4.01-5.92,8.57-10.35,11.48c-3.2,2.1-5.94,4.91-8.64,7.84c3.01-1.27,6.02-2.54,9.03-3.82c3.4-1.45,6.83-2.84,10.18-4.4
		c3-1.39,5.91-2.97,9.13-4.61c3.81,2.63,8.29,4.84,12.34,8.4c-1.03,0.79-1.82,1.52-2.72,2.06c-4.4,2.68-8.83,5.32-13.1,8.46
		c0.65-0.09,1.3-0.16,1.95-0.26c4.65-0.74,9.32-1.42,13.95-2.25c2.36-0.42,4.66-1.16,7-1.66c0.74-0.16,1.69-0.3,2.31,0.02
		c4.82,2.51,9.59,5.14,14.84,7.98c-1.01,0.52-1.49,0.9-2.03,1.02c-5.09,1.13-9.83,3.24-14.53,5.39c-5.28,2.41-10.8,3.68-16.51,4.48
		c-5.3,0.74-10.59,1.71-15.83,2.81c-3.47,0.73-6.61,2.45-9.31,4.75c-3.94,3.35-7.64,6.98-11.59,10.32c-2.96,2.5-6.03,4.91-9.25,7.05
		c-3.18,2.12-5.13,5.06-6.46,8.45c-4.89,12.47-6.12,25.41-4.86,38.7c0.5,5.24,0.38,10.53,0.57,15.79c0.04,1.24-0.44,1.94-1.55,2.61
		c-3.95,2.41-4.03,7.92-0.35,10.73c1.29,0.99,2.53,2.14,3.5,3.43c2.48,3.33,4.74,6.83,7.2,10.18c3.48,4.73,4.92,10.3,6.73,15.73
		c0.06,0.17,0.07,0.36,0.1,0.55c0.58,4.22,0.02,5.01-4.21,4.81c-3.68-0.17-7.34-0.76-11.01-1.14c-9.03-0.94-18.08-1.21-27.15-1.04
		C50.52,422.83,49.23,422.81,47.43,422.81z M58.06,323.36c-0.26-0.04-0.53-0.09-0.79-0.13c-0.44,1.09-1.03,2.14-1.28,3.28
		c-1.5,6.54-2.93,13.1-4.35,19.66c-0.47,2.16-1.17,4.32-1.23,6.5c-0.18,5.81-0.08,11.62-0.05,17.43c0,0.55,0.35,1.1,0.58,1.77
		c2.38-1.34,3.76-3.02,3.86-5.59c0.08-2.03,0.22-4.06,0.37-6.08c0.1-1.38,0.18-2.77,0.4-4.13c0.41-2.45,1.08-4.87,1.36-7.33
		c0.41-3.57,0.91-7.19,0.71-10.75c-0.13-2.34,0.04-4.53,0.43-6.8C58.52,328.58,58.59,325.95,58.06,323.36z M70.05,393.93
		c-0.22,0.19-0.44,0.39-0.67,0.58c1.21,3.16,2.47,6.31,3.61,9.5c0.49,1.37,0.73,2.83,1.1,4.24c0.53,2.05-0.57,3.33-2.08,4.39
		c-0.52,0.36-1.16,0.55-1.73,0.83c-2.36,1.14-4.72,2.29-7.09,3.43c1.05,0.52,1.96,0.53,2.86,0.51c4.34-0.06,8.68-0.16,13.02-0.16
		c1.73,0,3.12-0.2,4.32-1.78c1.19-1.57,1.78-2.53,0.81-3.94c-1.1-1.59-2.24-3.27-3.73-4.41c-1.26-0.96-1.95-2.12-2.69-3.38
		c-1.17-1.98-2.25-4.04-3.65-5.85C72.99,396.41,71.43,395.24,70.05,393.93z"/>
	<path class="st0" d="M526.32,289.6c-0.79-1.41-1.71-2.69-2.29-4.12c-1.58-3.89-4.57-6.49-7.94-8.62
		c-4.14-2.62-8.48-4.92-12.66-7.46c-1.32-0.8-2.57-1.81-3.61-2.95c-4.24-4.68-8.61-9.1-14.39-11.99c-2.77-1.39-4.09-4-4.85-7.25
		c-1.36-5.84-0.11-11.37,0.69-17.03c0.37-2.64,0.42-5.33,0.5-7.99c0.08-2.4-0.09-4.81,0.03-7.21c0.07-1.36,0.38-2.75,0.8-4.05
		c0.39-1.22,0.69-2.35,0.78-3.68c0.1-1.61,1.23-3.16,2.05-5.05c0.83,0.65,1.42,0.93,1.74,1.4c2.5,3.55,4.9,7.17,7.43,10.7
		c5.49,7.67,11.01,15.31,16.57,22.93c1.74,2.39,3.58,4.7,5.44,6.99c0.51,0.63,1.25,1.09,1.95,1.54c3.66,2.34,7.36,4.61,11.01,6.98
		c1.39,0.9,2.71,1.94,3.99,3c3.7,3.06,7.39,6.14,11.03,9.28c0.74,0.64,1.33,1.5,1.82,2.36c0.59,1.04,0.96,2.2,1.49,3.28
		c1.2,2.44,3.03,4.24,5.72,4.87c2.61,0.61,4.4,2.13,5.9,4.26c1.11,1.58,2.38,3.11,3.82,4.37c3.58,3.13,6.52,6.8,9.32,10.61
		c2.41,3.28,4.88,6.51,7.32,9.77c0.39,0.52,0.8,1.03,1.09,1.6c1.23,2.34,0.11,4.25-2.54,4.34c-1.47,0.05-2.95-0.04-4.41,0.1
		c-4.04,0.39-8.07,0.86-12.09,1.31c-1.01,0.11-2.02,0.28-3.01,0.48c-4.24,0.84-8.48,1.71-12.72,2.57c-1.97,0.4-2.44-0.08-2.86-2.17
		c-0.36-1.79-0.86-3.6-1.63-5.25c-0.57-1.24-0.71-2.4-0.71-3.72c0-3.32,0.09-6.68-0.38-9.94c-0.39-2.72-2.79-3.98-5.22-4.82
		c-2.27-0.79-4.58-0.39-6.86,0.05C527.92,289.21,527.22,289.39,526.32,289.6z M557.16,284.73c-0.2,0.25-0.39,0.5-0.59,0.74
		c0.92,1.11,1.86,2.2,2.75,3.33c1.99,2.54,4.04,5.03,5.88,7.68c1.24,1.79,0.91,3.61-0.75,4.54c-1.75,0.98-3.66,1.7-5.52,2.46
		c-2.05,0.83-4.16,1.51-6.17,2.4c-0.43,0.19-0.58,0.99-0.86,1.52c0.53,0.25,1.05,0.53,1.6,0.75c0.15,0.06,0.36-0.05,0.54-0.08
		c5.28-0.77,10.46-2.28,15.86-2.17c1.03,0.02,2.12-0.55,2.01-1.48c-0.26-2.1,0.61-4.23-0.84-6.36c-3-4.39-7.12-7.67-10.66-11.51
		C559.59,285.68,558.25,285.32,557.16,284.73z M503.08,249.59c-0.19,0.13-0.39,0.27-0.58,0.4c0.42,0.72,0.76,1.51,1.27,2.16
		c2.38,3.06,4.73,6.15,7.25,9.09c2.73,3.18,6,5.68,9.82,7.53c2.72,1.33,5.26,3.04,7.89,4.57c0.54,0.31,1.14,0.54,1.71,0.81
		c-0.07-0.75-0.32-1.14-0.64-1.46c-3.22-3.19-6.45-6.35-8.61-10.42c-0.21-0.4-0.54-0.77-0.9-1.04c-2.46-1.79-4.93-3.55-7.43-5.29
		c-0.43-0.3-1.12-0.68-1.47-0.52c-1.96,0.86-2.89-0.55-4-1.63C505.95,252.4,504.51,250.99,503.08,249.59z"/>
	<path class="st1" d="M643.87,68.78c2.68,0,5.36,0,8.04,0c2.96,0.01,5.81,0.5,8.62,1.57c1.87,0.71,3.9,1.13,5.89,1.34
		c2.97,0.3,5.79,1.01,8.4,2.43c5.47,3,10.96,5.97,16.35,9.1c2.62,1.52,5.13,3.29,6.77,5.95c0.46,0.74,0.8,1.67,0.84,2.53
		c0.07,1.65-0.92,2.35-2.53,1.86c-1.84-0.56-3.63-1.26-5.45-1.85c-1.75-0.56-3.52-1.02-5.27-1.57c-4.47-1.4-9.01-2.52-13.67-2.95
		c-3.03-0.28-6.09-0.13-9.14-0.15c-5.35-0.04-10.56,0.93-15.82,1.82c-4.9,0.83-9.39,2.59-13.73,4.75c-3.53,1.76-6.89,3.9-10.16,6.12
		c-2.58,1.75-3.84,4.66-5.22,7.35c-1.29,2.52-2.37,5.14-3.51,7.74c-1.79,4.1-4.84,7.12-8.3,9.78c-1.39,1.07-2.9,1.2-4.7,0.82
		c-4.49-0.95-7.99-3.66-11.68-6.05c-0.81-0.52-1.35-1.5-1.92-2.32c-0.58-0.83-0.91-1.87-1.59-2.59c-1.63-1.74-1.75-3.79-1.52-5.95
		c0.37-3.38,0.67-6.77,1.2-10.12c0.19-1.2,0.72-2.52,1.52-3.42c2.69-3.03,5.49-5.98,8.42-8.79c1.62-1.55,3.53-2.81,5.36-4.12
		c6.09-4.36,12.75-7.48,19.75-10.18C628.36,68.97,636.03,68.62,643.87,68.78z"/>
	<path class="st0" d="M607.38,426.55c-7.06,0.59-13.58,1.35-20.13,0.52c-7.38-0.93-14.73-0.86-22.12,0
		c-6.19,0.73-12.37-0.15-18.55-0.56c-5.9-0.38-11.81-0.51-17.71-0.68c-1-0.03-2.05,0.14-3.01,0.45c-5.66,1.84-11.35,0.99-17.05,0.3
		c-2.84-0.34-5.69-0.51-8.54-0.77c-0.45-0.04-0.9-0.13-1.64-0.24c0.51-0.66,0.8-1.21,1.25-1.58c6.95-5.8,13.87-11.64,20.91-17.34
		c2.72-2.2,5.72-4.05,8.58-6.07c2.71-1.92,7.86-4.28,11.07-4.93c6.61-1.33,13.23-2.6,19.84-3.92c0.9-0.18,1.78-0.49,2.65-0.8
		c1.05-0.37,2.05-0.89,3.11-1.18c3.52-0.93,6.57-0.9,9.67,1.94c6.56,6,13.07,12.01,18.63,18.97c1.15,1.44,2.23,2.95,3.41,4.37
		c1.24,1.49,2.58,2.89,3.82,4.37C603.45,421.67,605.27,423.95,607.38,426.55z"/>
	<path class="st0" d="M502.25,361.95c0.06-0.24,0.04-0.68,0.25-0.93c2.85-3.27,5.69-6.55,8.61-9.76c1.24-1.36,2.99-1.87,4.76-1.97
		c4.79-0.25,9.52-0.45,14.23,1.28c3.07,1.13,6.49,1.64,9.77,1.76c7.38,0.28,14.78,0.15,22.17,0.21c1.76,0.01,2.69-0.68,3.57-2.35
		c1.17-2.24,2.92-4.24,4.71-6.07c1.14-1.17,2.01-2.35,2.45-3.9c1.12-3.9,2.39-7.77,3.35-11.71c0.41-1.67,0.2-3.48,0.31-5.23
		c0.08-1.25-0.53-2.96,0.82-3.56c1.53-0.68,3.49-1.22,5.03-0.84c2.89,0.72,5.45,0.42,8.25-0.93c0.46,0.43,1.03,0.87,1.47,1.41
		c2.96,3.61,6.43,6.63,10.33,9.17c3.9,2.54,7.5,5.39,10.04,9.4c1.24,1.96,1.21,2.5-0.57,3.91c-9.85,7.81-19.7,15.62-29.55,23.41
		c-1.88,1.49-3.77,2.99-5.75,4.34c-0.79,0.54-1.85,0.97-2.78,0.95c-6.17-0.07-12.31,0.1-18.51-0.86
		c-5.85-0.91-11.56-2.49-17.42-3.19c-6.49-0.77-12.89-2.19-19.52-1.94c-3.33,0.13-6.72-0.96-10.08-1.53
		C506.31,362.74,504.44,362.36,502.25,361.95z"/>
	<path class="st0" d="M362.65,384.42c3.28-0.57,6.17-1.07,9.06-1.59c6-1.07,12.01-2.1,18-3.26c1.71-0.33,3.38-0.95,5.02-1.58
		c4.45-1.73,8.66-1.32,12.77,1.05c2.72,1.57,5.53,2.97,8.28,4.49c0.91,0.5,1.67,0.43,2.59-0.02c7.13-3.49,13.2-8.49,19.27-13.49
		c0.91-0.75,1.7-1.74,2.27-2.77c0.9-1.61,2.18-2.21,3.91-1.94c2.1,0.33,4.26,0.52,6.26,1.18c5.49,1.8,11.1,2.77,16.86,3.08
		c0.72,0.04,1.79,0.41,2.04,0.94c0.5,1.05-0.25,1.95-1.22,2.46c-2.04,1.07-4.13,2.06-6.17,3.15c-1.22,0.65-2.48,1.28-3.53,2.16
		c-2.69,2.25-5.37,4.55-7.89,6.99c-5.18,5.02-10.28,10.12-15.37,15.24c-2.11,2.12-4.41,3.97-7.13,5.2c-3,1.36-5.53,3.31-7.83,5.64
		c-1.49,1.51-3.07,2.94-4.63,4.39c-1.54,1.43-3.22,1.66-5.08,0.59c-4.54-2.63-9.36-4.82-12.76-9.11c-1.12-1.42-2.81-2.38-4.18-3.63
		c-1.22-1.12-2.5-2.22-3.47-3.54c-1.16-1.59-2.56-2.32-4.47-2.24c-2.77,0.12-5.56,0.03-8.3,0.36c-2.81,0.34-4.91-0.53-6.47-2.79
		c-1-1.44-1.83-3-2.86-4.42C366.11,388.87,364.51,386.85,362.65,384.42z"/>
	<path class="st0" d="M250.55,426.35c-1.48,0.21-2.26,0.43-3.04,0.42c-5.64-0.03-11.28-0.08-16.91-0.18
		c-4.06-0.07-8.12-0.28-12.18-0.35c-1.28-0.02-2.57,0.33-3.85,0.3c-2.01-0.05-4.01-0.24-6.02-0.43c-1.1-0.1-2.18-0.44-3.28-0.45
		c-6.19-0.07-12.39-0.18-18.58-0.04c-2.84,0.06-5.66,0.64-8.49,1.03c-1.68,0.23-3.16,0.15-4.75-0.79
		c-5.16-3.04-10.04-6.57-15.69-8.79c-1.92-0.76-3.64-2.18-5.25-3.54c-2.97-2.51-6.06-4.81-9.43-6.78c-2.26-1.32-4.29-3.03-6.43-4.56
		c0.05-0.24,0.1-0.47,0.15-0.71c5.53-1.36,11.03-2.82,16.59-4.03c1.35-0.29,2.95,0.04,4.32,0.46c3.61,1.11,7.12,2.56,10.74,3.64
		c3.97,1.19,8.03,2.12,12.04,3.18c1.16,0.31,2.39,0.52,3.42,1.09c2.53,1.4,4.8,0.7,7.07-0.53c2.03-1.1,4.07-2.17,6.07-3.32
		c4.59-2.63,9.41-4.62,14.57-5.91c2.48-0.62,4.79-1.92,7.16-2.93c2.48-1.06,2.99-0.9,4.61,1.32c4.2,5.77,9.14,10.85,14.39,15.66
		c1.29,1.18,2.42,2.54,3.49,3.93C244.25,417.91,247.16,421.84,250.55,426.35z"/>
	<path class="st0" d="M452.11,393.55c1.28-1.03,2.5-2.14,3.85-3.07c5.19-3.6,9.84-7.79,14.16-12.4c4.27-4.55,9.57-7.79,14.75-11.21
		c3.29-2.16,6.22-2.17,9.88-1.15c9.16,2.57,18.41,4.82,28.02,5.08c2.47,0.07,4.92,0.8,7.4,1.04c7.8,0.78,15.62,1.44,23.42,2.21
		c3.12,0.31,6.23,0.77,9.34,1.17c2.5,0.32,3.11,1.01,3.2,3.61c0.02,0.65,0.04,1.29,0.05,1.94c0.06,3.74-1.44,5.76-5.14,6.34
		c-5.66,0.88-11.37,1.44-17.02,2.33c-5.04,0.79-10.07,1.25-15.17,1.27c-2.28,0.01-4.54,0.85-6.83,1.05
		c-2.74,0.23-5.51,0.18-8.26,0.25c-1.93,0.05-3.86-0.01-5.78,0.16c-7.98,0.72-15.85,2.62-23.96,1.89c-1.99-0.18-4.03,0.3-6.05,0.44
		c-2.11,0.15-4.23,0.4-6.35,0.38c-5.45-0.06-10.91-0.24-16.36-0.38c-0.98-0.03-1.95-0.12-2.93-0.19
		C452.25,394.05,452.18,393.8,452.11,393.55z"/>
	<path class="st1" d="M641.64,414.27c-1.71,2.59-3.64,4.36-6.38,5.43c-1.94,0.75-3.59,2.23-5.38,3.35c-1.64,1.02-3.26,2.1-4.99,2.96
		c-0.94,0.47-2.06,0.64-3.12,0.78c-1.98,0.27-3.36-0.68-4.85-1.99c-5.15-4.53-9.83-9.48-14.07-14.86c-0.11-0.14-0.24-0.29-0.38-0.4
		c-7.88-6.49-13.87-14.83-21.24-21.81c-1.94-1.84-3.95-3.62-5.9-5.45c-0.65-0.61-1.24-1.3-2-2.1c2.13-1.24,3.99-2.28,6.29-2.38
		c1.47-0.06,2.87-0.49,3.86-1.83c0.93-1.26,2.46-1.09,3.82-1.16c5.38-0.25,10.71,0.22,15.93,1.57c4.39,1.14,8.78,0.85,13.18,0.15
		c2-0.32,4.03-0.51,6.04-0.79c1.28-0.18,2.13,0.28,2.57,1.51c0.87,2.42,1.74,4.84,2.63,7.25c1.58,4.33,3.09,8.68,4.79,12.96
		c1.88,4.73,4.29,9.19,7.19,13.39C640.36,411.91,640.94,413.07,641.64,414.27z"/>
	<path class="st1" d="M369.92,404.54c-3.84,3.37-6.13,7.37-8.54,11.32c-2.83,4.63-6.95,8.12-11.08,11.54
		c-0.56,0.46-1.52,0.58-2.31,0.61c-3.5,0.15-7.01,0.17-10.52,0.3c-2.86,0.11-5.71,0.39-8.57,0.47c-3.78,0.11-7.57,0.17-11.35,0.11
		c-2.09-0.03-3.64-1.26-3.89-3.27c-0.79-6.38-2.52-12.47-4.97-18.39c-0.1-0.25-0.11-0.54-0.18-0.81c-0.82-3.11-0.3-4.38,2.59-5.6
		c3.72-1.58,7.65-2.71,11.2-4.6c5.3-2.83,11.13-3.76,16.74-5.47c3.24-0.99,6.27-2.62,9.44-3.86c0.68-0.27,1.67-0.41,2.28-0.12
		c1.55,0.76,3.11,1.65,4.42,2.77c3.08,2.65,6.11,5.37,8.97,8.24C366.16,399.79,367.86,402.1,369.92,404.54z"/>
	<path class="st1" d="M641.48,425.25c0.24-1.8,1.19-2.64,2.3-3.36c4.64-3.03,9.27-6.07,13.93-9.08c0.77-0.49,1.63-0.84,2.46-1.23
		c2.84-1.34,5.6-2.79,7.95-4.95c2.02-1.86,4.24-3.5,6.37-5.25c1.39-1.14,3.02-1.55,4.69-1.09c3.72,1.02,7.4,2.22,11.1,3.33
		c3.26,0.98,6.5,2.05,9.81,2.86c6.36,1.57,12.75,3.01,19.14,4.47c2.33,0.53,4.69,1,7.04,1.42c1.48,0.26,2.42,1.07,3.26,2.28
		c2.95,4.24,5.74,8.61,9.54,12.2c0.46,0.44,0.88,1.38,0.71,1.89c-0.15,0.47-1.1,0.9-1.73,0.96c-3.18,0.31-6.3,1.15-9.61,0.37
		c-2.1-0.5-4.42-0.2-6.63-0.09c-3.74,0.19-7.35-0.28-10.9-1.48c-4-1.36-8.12-1.61-12.3-0.87c-0.9,0.16-1.85,0.16-2.76,0.06
		c-2.47-0.28-4.92-0.78-7.39-0.95c-5.06-0.33-10.13-0.49-15.19-0.72c-5.71-0.26-11.42-0.61-17.14-0.78
		c-3.78-0.11-7.57,0.01-11.36,0.03C643.69,425.25,642.61,425.25,641.48,425.25z"/>
	<path class="st1" d="M512.4,400.11c-5.07,4.57-10.05,9.24-15.24,13.67c-4.71,4.02-9.58,7.85-14.5,11.6
		c-3.82,2.91-8.27,3.58-12.84,2.35c-9.09-2.45-18.28-2.09-27.51-1.36c-2.76,0.22-5.57,0.08-8.29,0.49
		c-5.05,0.75-10.03,1.51-14.84-1.41c0.01,0.2-0.07-0.06,0-0.12c4.75-3.82,9.42-7.73,14.29-11.38c3.09-2.32,6.53-4.18,9.72-6.37
		c1.73-1.19,3.38-2.54,4.89-3.99c1.07-1.02,2.23-1.13,3.55-1.13c3.88,0.01,7.77,0.14,11.64-0.08c7.28-0.41,14.55-1.06,21.83-1.53
		c2.39-0.16,4.81,0.02,7.21-0.14c4.23-0.27,8.45-0.71,12.68-1.03c2.37-0.17,4.75-0.23,7.13-0.34
		C512.22,399.59,512.31,399.85,512.4,400.11z"/>
	<path class="st0" d="M684.64,386.71c-5.76,4.44-11.11,8.91-16.8,12.88c-5.74,4.01-11.82,7.53-17.85,11.33
		c-2.88-4.44-6.38-8.42-8.1-13.63c-1.42-4.27-3.45-8.35-5.38-12.43c-0.61-1.29-0.73-2.33-0.24-3.65c0.7-1.9,1.28-3.86,1.72-5.84
		c0.33-1.48,0.37-3.03,0.55-4.67c2.13-1.79,4.43-3.82,6.85-5.72c1.21-0.95,2.62-1.65,3.95-2.45c3.7-2.25,7.46-4.41,11.08-6.78
		c2.42-1.58,2.84-1.65,4.25,0.84c5.39,9.49,11.39,18.57,18,27.25C683.26,384.64,683.8,385.5,684.64,386.71z"/>
	<path class="st0" d="M724.71,401.07c-4.65-1.35-8.83-2.35-13.26-2.16c-1.98,0.09-4.04-0.47-5.97-1.05
		c-3.06-0.92-6.15-1.25-9.3-1.08c-1.73,0.1-3.27-0.41-4.78-1.13c-1.98-0.95-2.75-2.67-1.94-4.76c0.83-2.14,1.83-4.22,2.75-6.34
		c-0.04-0.17-0.02-0.42-0.13-0.51c-3.79-3.03-5.79-7.32-8.11-11.4c-1.22-2.14-2.92-4.02-4.38-6.02c-1.63-2.22-3.4-4.37-4.83-6.71
		c-1.72-2.83-3.17-5.84-4.69-8.79c-0.46-0.9-0.91-1.85-1.1-2.83c-0.13-0.65-0.05-1.64,0.36-2.05c2.59-2.6,5.3-5.09,8.05-7.68
		c2.47,2.39,4.7,4.56,6.94,6.72c5.59,5.38,11.12,10.81,16.78,16.11c3.64,3.4,7.53,6.54,11.17,9.94c1.11,1.03,2.03,2.43,2.6,3.83
		c3.03,7.53,5.93,15.12,8.85,22.7C724.07,398.78,724.3,399.75,724.71,401.07z"/>
	<path class="st1" d="M627.96,160.59c1.2-1.46,2.36-2.52,3.1-3.82c2.45-4.32,5.68-8.23,7.06-13.14c0.3-1.07,0.62-2.13,0.96-3.18
		c0.64-2.01,1.26-2.28,3.29-1.48c1.63,0.64,3.21,1.59,4.9,1.85c6.5,1.03,13.07,1.03,19.63,0.67c0.54-0.03,1.1-0.19,1.6-0.4
		c5.12-2.1,10.28-4.11,15.34-6.36c5.49-2.45,9.86-6.46,14.08-10.64c0.51-0.5,1.06-0.95,1.94-1.74c0.38,0.9,0.79,1.49,0.87,2.11
		c0.34,2.55-0.21,4.98-1.45,7.21c-3.69,6.63-7.69,12.9-13.45,18.14c-5.84,5.31-12.4,9.06-19.76,11.32
		c-5.98,1.83-12.21,2.95-18.59,2.43c-2.02-0.16-4.08,0.03-6.09-0.18c-2.74-0.29-5.47-0.72-8.17-1.26
		C631.43,161.77,629.71,161.12,627.96,160.59z"/>
	<path class="st1" d="M671.02,331.25c-1.93,0.06-3.27,0.07-4.61,0.15c-7.65,0.46-15.33,0.67-22.94,1.49
		c-5.95,0.64-11.83,1.96-17.71,3.12c-1.5,0.3-2.59,0.17-3.79-0.84c-4.52-3.81-9.08-7.57-13.73-11.22c-2.24-1.76-4.72-3.22-7.09-4.81
		c-0.46-0.31-0.94-0.6-1.36-0.95c-1.86-1.57-1.57-3.29,0.79-4.1c1.39-0.48,2.84-0.91,4.29-1.05c2.21-0.22,3.98-1.33,5.88-2.28
		c1.38-0.69,2.83-1.31,4.33-1.64c3.7-0.8,7.43-1.41,11.15-2.11c3.03-0.57,5.83-1.68,8.39-3.44c1.69-1.16,1.95-1.17,3.32,0.22
		c2.6,2.62,5.19,5.2,7.34,8.27c3.2,4.58,7.25,8.39,12.46,10.71c4.08,1.81,7.77,4.25,11.34,6.9
		C669.59,330.03,670.05,330.45,671.02,331.25z"/>
	<path class="st0" d="M665.02,339.99c-0.64,0.5-1.28,0.99-1.91,1.5c-5.07,4.01-10.14,8.02-15.22,12.01
		c-0.94,0.74-1.89,1.58-2.98,1.98c-2.73,1-4.61,2.98-6.49,5.04c-1.11,1.21-2.4,2.25-3.59,3.39c-0.66,0.64-1.31,1.29-1.91,1.99
		c-2.01,2.36-4.34,3.85-7.63,3.77c-4.98-0.12-10.04,0.53-14.94-0.1c-6.75-0.87-13.46-0.44-20.19-0.61c-0.37-0.01-0.74-0.03-1.1-0.1
		c-0.16-0.03-0.3-0.19-0.69-0.44c0.21-0.49,0.32-1.13,0.68-1.54c0.55-0.61,1.23-1.12,1.93-1.57c4.96-3.21,9.88-6.47,14.91-9.55
		c5.5-3.37,11.01-6.67,15.81-11.04c0.74-0.67,1.94-0.88,2.97-1.15c0.6-0.16,1.29-0.06,1.93-0.02c4.84,0.3,9.54-0.68,14.3-1.35
		c3.91-0.55,7.91-0.6,11.88-0.69c2.6-0.06,5.12-0.2,7.6-1.15c1.39-0.53,2.97-0.57,4.46-0.84
		C664.91,339.67,664.97,339.83,665.02,339.99z"/>
	<path class="st0" d="M462.93,358.81c2.86-2.99,5.34-5.66,7.9-8.26c4.91-5,9.83-10,14.82-14.94c3.67-3.64,7.49-7.12,11.17-10.76
		c1.35-1.33,2.87-1.54,4.58-1.27c4.46,0.69,8.91,1.51,13.38,2.07c2.46,0.31,4.98,0.17,7.46,0.36c0.74,0.06,1.64,0.37,2.09,0.89
		c0.23,0.27-0.26,1.36-0.67,1.9c-0.95,1.24-1.97,2.46-3.11,3.52c-3.17,2.96-6.48,5.78-9.63,8.76c-2.88,2.73-5.74,5.49-8.39,8.43
		c-1.73,1.92-3.72,3.3-6.08,4.18c-2.59,0.96-5.22,1.84-7.88,2.62c-2.89,0.85-5.52,2.1-7.63,4.28c-1.43,1.48-3.13,1.6-4.82,0.75
		c-3.38-1.71-6.96-2.35-10.71-2.34C464.8,359.02,464.18,358.92,462.93,358.81z"/>
	<path class="st1" d="M403.25,370.28c0.73-0.84,1.25-1.74,2.02-2.28c11.49-8.03,23.01-16.01,34.51-24.02
		c2.35-1.64,4.68-3.29,6.95-5.04c1.31-1.01,2.66-1.51,4.33-1.51c6.48-0.01,12.93-0.45,19.29-1.83c0.69-0.15,1.5,0.27,2.25,0.43
		c-0.16,0.67-0.14,1.46-0.5,1.99c-1.14,1.68-2.31,3.36-3.67,4.87c-4.45,4.95-8.99,9.81-13.47,14.73c-1,1.1-2.21,1.27-3.54,1.05
		c-1.83-0.29-3.65-0.61-5.46-0.97c-2.73-0.55-4.94,0.3-6.56,2.52c-2.39,3.28-5.56,5.6-8.86,7.87c-3.5,2.4-6.82,5.08-10.11,7.77
		c-1.52,1.25-2.76,1.29-4.5,0.4C411.95,374.22,407.83,372.42,403.25,370.28z"/>
	<path class="st0" d="M555.47,345.88c-4.22-0.46-8.43-1.01-12.66-1.36c-3.77-0.31-7.55-0.52-11.33-0.54
		c-2.56-0.01-5.12,0.37-7.69,0.58c-0.46,0.04-0.96,0.17-1.37,0.05c-0.65-0.2-1.4-0.46-1.77-0.95c-0.18-0.24,0.28-1.14,0.64-1.59
		c3.65-4.65,7.34-9.27,11.02-13.9c0.46-0.58,0.97-1.12,1.4-1.72c1.3-1.81,3.02-2.32,5.25-2.37c4.89-0.13,9.78-0.63,14.67-0.95
		c1.66-0.11,3.33-0.07,4.99-0.2c1.74-0.14,3.47-0.43,5.21-0.6c1.55-0.16,3.12-0.36,4.67-0.34c1.62,0.02,2.22,0.66,2,2.28
		c-0.24,1.73-0.67,3.45-1.26,5.09c-0.65,1.82-1.6,3.53-2.36,5.31c-0.94,2.21-1.95,4.39-2.69,6.67c-1.27,3.88-1.72,4.29-5.9,4.32
		c-0.92,0.01-1.85,0-2.77,0C555.49,345.73,555.48,345.81,555.47,345.88z"/>
	<path class="st1" d="M100.79,425.73c0.73-1.31,1.06-2.08,1.55-2.72c0.31-0.4,1.03-0.98,1.29-0.86c1.7,0.77,2.59-0.59,3.66-1.3
		c4.55-3.01,8.98-6.19,13.59-9.1c2.8-1.77,5.82-3.2,8.77-4.72c2.02-1.04,3.72-0.75,5.52,0.87c4.61,4.13,9.39,8.07,14.15,12.02
		c0.91,0.75,2.03,1.27,3.09,1.81c2.29,1.18,4.6,2.3,6.85,3.72C139.9,426.44,120.58,424.94,100.79,425.73z"/>
	<path class="st0" d="M363.96,426.75c1.57-4.09,13.02-16.27,18.76-19.97c4.87,3.5,9.74,7.12,14.05,11.45c2.27,2.29,4.66,4.45,7,6.67
		c0.32,0.3,0.65,0.6,1.36,1.25c-7.22,0.21-13.95,0.48-20.68,0.57C377.64,426.83,370.83,426.75,363.96,426.75z"/>
</g>
</svg>
