<?xml version="1.0" encoding="utf-8"?>
<!-- Generator: Adobe Illustrator 23.0.4, SVG Export Plug-In . SVG Version: 6.00 Build 0)  -->
<svg version="1.1" id="Layer_1" xmlns="http://www.w3.org/2000/svg" xmlns:xlink="http://www.w3.org/1999/xlink" x="0px" y="0px"
	 viewBox="0 0 615 448" style="enable-background:new 0 0 615 448;" xml:space="preserve">
<style type="text/css">
	.st0{fill:#FDBD10;}
	.st1{fill:#FFFFFF;}
</style>
<g>
	<path class="st0" d="M342.02,16.54c1.65,1.34,2.63,3.2,3.88,4.86c2.8,3.73,5.3,7.79,9.79,9.85c2.56,2.78,5.92,4.28,9.23,5.89
		c3.82,1.85,7.86,2.82,12.05,3.26c1.65,0.17,3.32,0.71,4.93,0.56c5.05-0.46,10.13-0.87,14.95-2.63c2.24-0.82,4.28-1.75,4.48-4.73
		c0.1-1.52,1.79-1.91,3.1-2.04c5.37-0.52,10.76-1.02,16.16-0.64c3.29,0.23,6.5,1.1,9.51,2.53c0.5,0.24,0.98,0.57,1.5,0.71
		c0.4,0.1,0.87-0.03,1.3-0.06c-0.16-0.33-0.27-0.69-0.49-0.99c-0.19-0.27-0.46-0.51-0.75-0.69c-4.6-2.85-9.17-5.76-14.47-7.18
		c-0.84-0.23-1.7-0.49-2.57-0.53c-1.7-0.09-3.4-0.01-5.1-0.05c-9.13-0.2-18.26-0.42-27.39-0.65c-0.66-0.02-1.37-0.06-1.96-0.32
		c-4.69-2.06-8.96-4.83-13.16-7.74c-0.16-0.11-0.24-0.34-0.35-0.51c0.21-0.06,0.43-0.22,0.61-0.18c4.08,0.86,8.13,2.02,12.25,2.53
		c3.77,0.46,7.5-0.26,10.88-2.34c1.49-0.92,3.18-1.49,4.71-2.35c2.02-1.14,3.94-2.45,5.96-3.61c1.32-0.76,2.68-1.53,4.11-2.03
		c2.06-0.73,4.18-1.56,6.33-1.73c3.49-0.27,7.07-0.38,10.53,0.06c4.34,0.55,8.61,1.74,12.91,2.6c0.7,0.14,0.89,0.45,0.96,1.1
		c0.07,0.64,0.49,1.27,0.47,1.9c-0.11,3.55,2.16,5.98,4.02,8.56c1.24,1.72,2.65,3.35,4.16,4.85c1.74,1.74,3.67,3.29,5.53,4.92
		c0.17,0.15,0.36,0.39,0.54,0.39c3.46,0.02,6.68,1.75,10.19,1.42c0.3-0.03,0.57-0.22,0.86-0.34c-0.13-0.18-0.25-0.38-0.4-0.54
		c-0.32-0.32-0.62-0.73-1.01-0.9c-2.14-0.92-3.92-2.43-5.89-3.58c-4.21-2.48-7.32-5.95-9.97-9.83c-2.49-3.66-3.66-7.99-5.04-12.17
		c-0.09-0.28,0.09-0.64,0.15-0.97c0.25,0.12,0.56,0.19,0.76,0.38c1.64,1.57,3.17,3.26,4.9,4.71c2.43,2.04,5.52,2.7,8.49,3.44
		c3.41,0.85,6.89,1.43,10.36,2.07c2.09,0.39,4.02-0.57,5.72-1.41c3.49-1.74,7.3-2.42,10.88-3.83c0.97-0.39,1.88-0.69,2.51-1.47
		c1.54-1.91,3.75-2.76,5.86-3.75c0.58-0.27,1.29-0.33,1.94-0.36c1.13-0.06,2.27,0.02,3.4-0.04c3.12-0.18,6.24-0.41,9.36-0.61
		c0.56-0.04,1.16-0.13,1.7,0.01c2.97,0.77,6,1.39,8.84,2.49c1.48,0.57,2.78,1.89,3.88,3.12c2.76,3.06,5.72,5.87,9.02,8.33
		c0.81,0.6,1.41,1.29,1.39,2.53c-0.02,1.64,0.35,3.29,0.58,4.93c0.14,1.01-0.21,1.73-1.07,2.29c-0.42,0.27-0.74,0.7-1.08,1.09
		c-1.1,1.26-1.33,1.38-2.34,0.17c-3.43-4.09-8.17-5.54-13.08-6.67c-1.47-0.34-2.84-0.77-4.46-0.12c-1.18,0.47-2.69,0.14-4.05,0.14
		c-2.26,0-4.42,0.55-6.35,1.63c-1.55,0.87-3.11,1.08-4.81,1.12c-2.9,0.08-5.78,0.13-8.69,0.43c-3.27,0.33-6.96,0.25-9.62-2.61
		c-0.22-0.24-0.52-0.46-0.83-0.54c-0.89-0.24-1.8-1.43-2.64-0.3c-0.18,0.24,0.81,1.38,1.31,2.08c1.88,2.62,4.72,3.58,7.65,4.31
		c4.12,1.03,8.29,1.57,12.58,1.48c3.45-0.07,6.92,0.43,10.38,0.53c3.51,0.11,7.03,0.04,10.55,0.05c1.78,0.01,3.12,1.06,4.52,1.93
		c0.47,0.29,0.81,0.79,1.25,1.15c0.59,0.48,1.22,0.91,1.83,1.35c-0.83,0.54-1.61,1.2-2.51,1.57c-0.58,0.24-1.34,0.1-2.02,0.07
		c-2.59-0.1-5.03,0.47-7.49,1.3c-3.74,1.27-7.55,2.33-11.36,3.33c-1.17,0.31-2.47,0.12-3.71,0.16c-4.59,0.13-9.16,0.06-13.6-1.37
		c-0.84-0.27-1.66-0.58-2.5-0.84c-0.62-0.2-1.26-0.44-1.9-0.47c-0.32-0.02-0.74,0.33-0.95,0.63c-0.09,0.12,0.17,0.69,0.4,0.81
		c1.76,0.91,3.5,1.88,5.34,2.61c5.67,2.23,11.57,3.07,17.65,2.8c1.47-0.07,2.95-0.05,4.42-0.04c0.19,0,0.37,0.2,0.56,0.31
		c-0.19,0.11-0.36,0.27-0.56,0.32c-1.9,0.47-3.21,1.85-4.75,2.9c-1.76,1.21-3.96,1.93-6.08,2.44c-2.14,0.52-4.41,0.53-6.62,0.76
		c-1.49,0.15-2.81-0.31-4.21-0.8c-1.74-0.62-3.63-0.84-5.46-1.18c-2.92-0.55-5.85-1.08-8.78-1.6c-0.49-0.09-1.17-0.33-1.46-0.11
		c-1.64,1.23-3.33,0.82-5.02,0.32c-1.79-0.53-3.58-1.08-5.31-1.76c-0.8-0.32-1.66-0.83-2.16-1.5c-1.77-2.39-3.65-4.66-4.69-7.57
		c-1.16-3.25-3.2-6.07-5.47-8.7c-1.07-1.23-2.44-2-3.91-2.48c-2.18-0.71-4.23-1.99-6.65-1.81c-0.21,0.02-0.41,0.13-0.61,0.2
		c0.15,0.18,0.27,0.42,0.46,0.53c0.77,0.45,1.51,1.02,2.35,1.25c2.66,0.72,3.95,2.81,5.04,5c1.32,2.66,2.17,5.48,2.8,8.42
		c0.71,3.33,1.71,6.66,5.01,8.58c0.45,0.26,0.66,0.92,1.09,1.24c1.33,0.95,2.6,2.17,4.09,2.64c3.02,0.96,5.47,2.88,8.25,4.23
		c0.19,0.09,0.4,0.24,0.5,0.41c0.5,0.88-1.37,4.16-2.41,4.24c-0.11,0.01-0.23,0.03-0.34,0c-3.53-0.93-7.03,0.21-10.56,0.11
		c-3.86-0.11-7.21-1.19-9.92-4c-0.16-0.16-0.3-0.37-0.49-0.46c-0.28-0.14-0.79-0.36-0.87-0.26c-0.26,0.29-0.42,0.71-0.51,1.11
		c-0.25,1.05,0.48,1.66,1.11,2.32c2.8,2.91,5.61,5.78,9.65,6.99c0.28,0.08,0.46,0.48,0.68,0.73c-0.29,0.1-0.57,0.27-0.87,0.28
		c-3.25,0.17-6.38-0.5-9.57-1.1c-5.24-0.97-9.71-3.29-14.2-6.01c-3.63-2.2-7.82-3.5-11.84-4.99c-1.1-0.41-2.49-0.21-3.72-0.07
		c-4.29,0.46-8.52,0.95-12.21,3.69c-2.29,1.7-5,2.83-7.51,4.25c-0.67,0.38-1.37,0.78-1.9,1.31c-0.31,0.32-0.6,1.17-0.43,1.36
		c0.4,0.44,1.15,0.96,1.63,0.86c1.28-0.26,2.58-0.68,3.71-1.32c4.14-2.32,8.55-3.13,13.21-2.62c2.19,0.24,4.37,0.62,6.52,1.07
		c3.03,0.63,5.27,2.75,7.73,4.41c3.22,2.18,6.27,4.64,9.61,6.6c2.18,1.28,4.81,1.66,7.42,1.53c0.25-0.01,0.51,0.22,0.77,0.34
		c-0.15,0.17-0.29,0.35-0.44,0.52c-0.08,0.08-0.18,0.14-0.26,0.22c-2.14,2.19-4.82,2.54-7.69,2.28c-0.79-0.07-1.59-0.08-2.38,0
		c-2.81,0.3-5.04-0.71-7.44-2.24c-3.82-2.44-8.19-3.82-12.83-3.9c-3.4-0.06-6.8,0.03-10.21-0.04c-2.93-0.06-5.71,0.63-8.5,1.37
		c-2.97,0.79-6.01,1.33-8.95,2.22c-3.96,1.2-7.3,3.66-10.73,5.87c-1.24,0.8-2.4,1.56-3.97,1.51c-0.61-0.02-1.27,0.33-1.85,0.61
		c-3.75,1.8-7.73,2.57-11.86,2.75c-0.45,0.02-0.91-0.01-1.36,0.07c-0.17,0.03-0.43,0.3-0.41,0.43c0.05,0.29,0.17,0.71,0.38,0.8
		c0.7,0.31,1.44,0.61,2.19,0.7c2.43,0.3,4.87,0.56,7.31,0.72c1.69,0.11,3.4-0.02,5.1,0.07c3.07,0.17,5.88-0.52,8.76-1.62
		c2.73-1.05,5.63-1.97,8.7-1.85c3.03,0.12,5.96-0.74,8.76-1.64c5.9-1.89,11.9-1.8,17.93-1.68c1.52,0.03,3.03,0.52,4.54,0.84
		c2.79,0.59,5.58,1.21,8.36,1.83c0.86,0.19,1.69,0.47,2.56,0.62c0.87,0.15,1.76,0.19,2.64,0.28c-0.72,0.6-1.39,1.29-2.17,1.79
		c-2.23,1.44-4.54,2.75-6.75,4.21c-1.49,0.99-3.33,0.89-4.56,0.39c-2.23-0.91-4.19-0.13-6.17,0.22c-3.15,0.56-6.23,1.53-8.73,3.71
		c-0.22,0.2-0.34,0.52-0.5,0.78c0.31,0.09,0.62,0.27,0.93,0.27c1.22-0.01,2.36-0.05,3.58-0.61c3.33-1.53,6.8-0.73,10.11,0.17
		c3.33,0.9,3.28,1.1,0.92,3.46c-1.68,1.68-3.28,3.46-5.08,5.02c-1.85,1.6-3.78,3.15-5.87,4.4c-1.17,0.7-2.73,0.74-4.11,1.09
		c-0.85,0.22-1.76,0.32-2.52,0.71c-1.72,0.88-3.43,1.47-5.42,1.39c-1.05-0.04-2.13,0.48-3.19,0.74c-0.51,0.13-1.01,0.28-1.52,0.37
		c-0.25,0.04-0.53-0.06-0.8-0.1c0.09,0.3,0.08,0.76,0.27,0.86c2.16,1.14,4.43,1.96,6.88,2.17c0.79,0.07,1.59,0.03,2.38,0.03
		c3.06-0.01,6.24,0.5,9.15-0.17c2.83-0.65,5.35-2.6,8.09-3.78c2.82-1.22,5.74-2.2,8.63-3.25c0.12-0.04,0.55,0.28,0.54,0.4
		c-0.39,2.96-0.88,5.92-3.95,7.41c-2.48,1.2-5.02,2.29-7.55,3.4c-0.9,0.4-1.86,0.67-2.76,1.08c-1.81,0.83-3.59,1.5-5.62,1.89
		c-1.96,0.38-3.62,0.21-5.49-0.1c-2.18-0.36-4.46,0.06-6.63-0.75c-1.02-0.38-2.19-0.36-3.21-0.75c-3.89-1.5-7.93-2.15-12.06-1.97
		c-4.29,0.19-8.5-0.57-12.76-0.73c-1.92-1.29-3.85-0.17-5.77-0.01c-0.21,0.02-0.42-0.1-0.63-0.15c0.13-0.25,0.19-0.62,0.39-0.72
		c2.06-1.07,4.08-2.26,6.24-3.1c4.2-1.63,8.56-2.82,12.64-4.76c0.78-0.37,1.72-0.77,2.52-0.68c3.48,0.41,6.48-1.18,9.69-1.96
		c1.72-0.41,3.6-0.14,5.41-0.17c0.57-0.01,1.14,0.01,1.7-0.04c0.17-0.01,0.33-0.2,0.5-0.31c-0.14-0.18-0.24-0.4-0.42-0.53
		c-0.26-0.19-0.56-0.45-0.85-0.47c-2.56-0.12-5.03-1.06-7.65-0.76c-1.34,0.15-2.72,0-4.08,0.03c-1.55,0.03-3.05,0.12-4.61,0.58
		c-1.99,0.59-4.11,0.82-6.25,0.91c-2.96,0.12-5.96,0.61-8.82,1.39c-1.23,0.34-2.38,0.47-3.59,0.51c-0.68,0.02-1.52-0.23-2.01,0.08
		c-1.78,1.13-3.52,0.28-5.11-0.14c-4.45-1.18-8.82-2.67-13.2-4.08c-0.72-0.23-1.55-0.59-2-1.16c-1.71-2.18-4.23-2.73-6.63-3.52
		c-2.19-0.72-4.17-2.02-6.54-2.23c-0.98-0.09-1.95-0.34-2.93-0.48c-0.56-0.08-1.22,0.11-1.66-0.14c-0.8-0.45-2.1-1.2-2.05-1.72
		c0.11-1.07,1.39-0.8,2.27-0.82c5.93-0.1,11.72,0.51,17.39,2.49c4.31,1.51,8.89,0.9,13.38,0.86c0.16,0,0.31-0.24,0.46-0.36
		c-0.19-0.11-0.38-0.21-0.57-0.32c-3.7-2.05-7.79-2.95-11.81-4.07c-2.01-0.56-4.02-1.11-5.97-1.83c-2.29-0.85-4.57-1.68-7.06-1.58
		c-0.82,0.03-1.44-0.21-2.13-0.72c-1.35-0.99-2.98-1.43-4.69-1.33c-2.26,0.14-4.39-0.29-6.54-1.01c-1.96-0.66-4.03-0.99-6.04-1.59
		c-2.44-0.73-4.76-1.67-7.09-2.67c-2.92-1.26-5.92-2.33-8.89-3.45c-0.4-0.15-0.89-0.11-1.33-0.14c-1.77-0.09-3.55,0.15-5.3-0.56
		c-0.78-0.32-1.87-0.28-2.69-0.02c-2.87,0.93-5.8,0.59-8.69,0.55c-3.77-0.06-6.95,1.44-9.85,3.52c-2.62,1.9-5.15,3.84-8.46,4.33
		c-0.32,0.05-0.61,0.3-0.93,0.33c-2.89,0.26-5.78,0.49-8.67,0.73l0.01,0.01c0.81-0.71,1.7-1.34,2.42-2.13
		c4.54-5.07,10.19-8.63,16.07-11.89c1.92-1.07,3.78-2.11,6.08-2.43c1.69-0.23,3.28-1.23,4.88-1.95c2.38-1.07,4.81-0.62,7.24-0.34
		c0.54,0.06,1.06,0.3,1.6,0.34c3.91,0.26,7.83,0.39,11.73,0.76c1.61,0.15,3.18,0.81,4.78,1.19c0.27,0.06,0.74-0.05,0.86-0.24
		c0.12-0.18-0.03-0.79-0.19-0.84c-4.64-1.65-8.81-4.73-14.13-4.33c-1.96,0.15-4.03,0.46-5.98-0.53c-0.54-0.28-1.4-0.23-2.01-0.02
		c-2.18,0.76-4.43,0.49-6.65,0.64c-0.63,0.04-1.26,0.34-1.87,0.58c-4.54,1.78-8.95,3.82-12.9,6.73c-0.16,0.12-0.42,0.09-0.64,0.12
		c0.02-0.26-0.05-0.56,0.06-0.79c1.51-3.24,3.98-5.79,6.71-7.89c3.77-2.9,7.85-5.4,11.89-7.92c1.78-1.11,3.92-1.32,5.96-1.84
		c4.06-1.04,7.96,0.75,11.94,0.16c0.47-0.07,1.02,0.35,1.52,0.56c3.26,1.32,6.42,2.78,10.11,2.93c1.81,0.07,3.63,1.49,5.34,2.49
		c5.53,3.23,10.94,6.72,17.22,8.38c2.86,0.76,5.79,1.29,8.68,1.93c2.04,0.45,4.07,0.93,6.11,1.35c2.26,0.47,4.53,0.9,6.8,1.32
		c0.3,0.05,0.66-0.06,0.96-0.18c0.51-0.21,0.99-0.49,1.49-0.75c-0.37-0.42-0.66-1-1.12-1.24c-1.76-0.9-3.57-1.72-5.38-2.52
		c-1.21-0.53-2.45-0.97-3.69-1.43c-0.61-0.23-1.23-0.62-1.86-0.64c-3.2-0.08-5.95-1.44-8.79-2.7c-3.88-1.72-7.45-3.9-10.86-6.39
		c-0.45-0.33-0.89-0.72-1.25-1.15c-3.31-3.95-7.96-6.04-12.19-8.7c-3.47-2.17-7.03-4.19-10.55-6.28c-0.38-0.23-0.83-0.42-1.08-0.76
		c-1.68-2.18-4.11-2.41-6.56-2.66c-0.66-0.07-1.32-0.18-1.95-0.35c-0.63-0.16-1.24-0.41-1.85-0.62c0.69-0.28,1.44-0.9,2.05-0.77
		c3.21,0.66,6.31-0.64,9.51-0.29c5.51,0.61,11.04,0.92,15.91,4.03c1.11,0.71,2.36,1.23,3.6,1.69c3.57,1.31,6.01,4.18,8.96,6.34
		c0.45,0.33,0.91,0.75,1.16,1.23c1.41,2.76,3.93,4.31,6.52,5.54c5.31,2.52,10.83,4.22,16.83,4.48c2.76,0.12,5.55,0.56,8.34,0.48
		c2.88-0.08,5.69-0.67,8.31-1.92c0.34-0.16,0.61-0.49,0.92-0.74c-0.31-0.23-0.61-0.66-0.92-0.65c-3.52,0.03-6.66-1.35-9.94-2.33
		c-3.41-1.02-6.64-2.35-9.76-3.97c-3.19-1.66-5.85-3.91-8.05-6.9c-1.71-2.33-3.52-4.53-4.97-7.09c-1.03-1.81-2.93-3.12-4.47-4.63
		c-1.21-1.19-2.29-2.39-2.68-4.16c-0.13-0.62-0.84-1.28-1.46-1.6c-2.8-1.42-5.36-3.12-7.67-5.31c-1.82-1.73-4.26-2.28-6.8-2.2
		c-0.32,0.01-0.64-0.16-0.95-0.24c0.3-0.31,0.58-0.86,0.9-0.89c1-0.09,2.02,0.01,3.03,0.04c0.26-1.57,1.99-0.57,2.68-1.51
		c0.12-0.17,0.84,0.04,1.26,0.16c2.41,0.74,4.79,1.58,7.21,2.25c1.53,0.42,2.88,1.01,4.09,2.1c0.97,0.88,2.12,1.63,3.31,2.19
		c2.37,1.12,4.32,2.72,6.17,4.55c3.29,3.24,6.75,6.31,10.07,9.52c0.94,0.91,2.03,1.28,3.03,0.71c1.07-0.61,1.57-0.25,2.31,0.42
		c2.83,2.55,6.4,3.93,9.61,5.9c1.98,1.21,4.12,2.09,6.03,3.5c1.29,0.95,3.32,1.14,5.04,1.23c3.34,0.18,6.63,0.49,9.88,1.33
		c0.96,0.25,2.09,0.26,3.04-0.01c5.38-1.5,10.74-3.12,16.1-4.7c0.2-0.06,0.39-0.19,0.58-0.29c-0.26-0.13-0.51-0.36-0.77-0.38
		c-0.9-0.05-1.81-0.04-2.72-0.04c-5.1,0.01-10.21-0.17-15.3,0.08c-5,0.25-9.64-1.08-14.37-2.33c-5-1.32-8.94-4.28-12.61-7.58
		c-1.43-1.28-2.74-3.04-3.2-5.33c-0.58-2.89-2.27-5.45-3.66-8.08c-1.1-2.07-1.96-4.25-1.65-6.69L342.02,16.54z"/>
	<path class="st0" d="M88.19,177.13c-0.89-0.83-1.91-1.56-2.64-2.51c-1.56-2.01-2.96-4.15-4.46-6.21c-0.33-0.45-0.74-0.88-1.2-1.19
		c-5.13-3.49-10.12-7.23-15.85-9.72c-1.29-0.56-2.49-1.04-4.11-0.35c-1.67,0.71-3.78-0.04-5.54,0.93c-0.48,0.26-1.05,0.38-1.51,0.67
		c-0.3,0.2-0.48,0.59-0.71,0.9c0.26,0.17,0.5,0.45,0.77,0.48c1.98,0.26,3.96,0.58,5.95,0.65c1.3,0.05,2.39,0.42,3.44,1.09
		c4.95,3.16,9.53,6.8,13.27,11.32c2.65,3.19,5,6.65,8.14,9.39c2.44,2.13,5,4.14,7.62,6.04c0.95,0.69,2.19,1.06,3.36,1.34
		c1.14,0.27,2.51-0.07,2.53,1.82c0,0.28,0.86,0.67,1.38,0.8c2.38,0.58,4.78,1.4,7.24,0.88c1.47-0.32,3.01-0.94,4.19-1.85
		c1.76-1.35,3.31-2.96,4.11-5.21c1.45-4.04,3.31-7.95,3.31-12.37c0-1.92-0.47-3.72-1.32-5.43c-1.03-2.09-1.64-4.31-2.1-6.59
		c-0.15-0.75-0.38-1.52-0.75-2.18c-0.95-1.7-1.25-3.5-1.32-5.43c-0.09-2.44-0.6-4.88-0.59-7.32c0.01-1.74,0.38-3.54,0.95-5.19
		c0.86-2.48,2.19-4.56,5.24-4.99c1.24-0.18,2.39-1.14,3.54-1.81c2.72-1.6,5.81-2.22,8.79-2.71c3.37-0.54,6.85-0.47,10.1,1.48
		c2.33,1.4,5.07,2.09,7.6,3.18c3.63,1.56,6.26,4.18,8.03,7.72c0.49,0.98,1.31,1.79,1.9,2.74c0.34,0.54,0.55,1.17,0.75,1.78
		c0.92,2.81,0.98,5.88,2.61,8.48c0.17,0.28,0.29,0.59,0.44,0.88c0.14-0.39,0.42-0.79,0.39-1.16c-0.19-1.99,0.59-4.07-0.59-5.97
		c-0.16-0.25-0.07-0.67-0.06-1c0.03-1.46,0.08-2.91,0.12-4.37c0.93,1,1.86,2.01,2.79,3.01c2.46,2.65,2.99,6.11,3.79,9.4
		c0.65,2.67,0.83,5.46,1.47,8.13c0.33,1.36,1.07,2.68,1.88,3.85c1.9,2.74,3.94,5.39,5.93,8.07c0.66,0.89,1.38,1.74,2.01,2.66
		c0.3,0.43,1.42,0.73,0.42,1.51c-0.63,0.49-1,1.7-2.19,0.84c-0.44-0.32-1.01-0.49-1.42-0.84c-2.04-1.76-4.03-3.58-6.08-5.34
		c-1.89-1.63-3.18-3.72-4.49-5.8c-0.12-0.18-0.49-0.21-0.74-0.3c-0.03,0.22-0.16,0.47-0.09,0.64c1.26,3.16,2.49,6.33,3.84,9.46
		c0.32,0.74,1.11,1.27,1.51,1.99c0.28,0.5,0.28,1.17,0.4,1.76c-0.53-0.03-1.11,0.08-1.58-0.1c-3.44-1.32-5.65-3.84-6.92-7.26
		c-0.61-1.65-1.28-3.27-1.87-4.93c-0.55-1.55-1.46-3.14-1.42-4.69c0.1-3.16-1.07-5.9-2.25-8.61c-1.98-4.59-3.96-9.25-7.96-12.59
		c-0.51-0.42-1.05-0.83-1.63-1.12c-0.24-0.12-0.63,0.06-0.96,0.1c0.08,0.26,0.1,0.55,0.24,0.76c1.27,1.95,2.7,3.8,3.79,5.85
		c0.81,1.53,1.24,3.27,1.71,4.96c0.09,0.32-0.37,1.12-0.69,1.18c-1.62,0.34-3.28,0.51-4.92,0.73c-2.56,0.35-4.88,1.28-6.99,2.81
		c-2.13,1.54-2.34,3.98-2.88,6.18c-0.37,1.5-0.35,3.22-0.01,4.73c0.95,4.22,1.89,8.38,2.09,12.75c0.09,2.05,0.68,4.18,0.5,6.27
		c-0.4,4.73-0.68,9.58-2.32,14.02c-1.86,5.05-4.94,9.42-10.44,11.34c-0.41,0.14-0.85,0.39-1.26,0.37c-3.42-0.2-6.52,1.16-9.65,2.17
		c-2.79,0.9-5.51,0.78-8.26,0.26c-3.89-0.73-7.75-1.59-11.64-2.35c-0.38-0.07-0.82,0.18-1.23,0.29c0.21,0.27,0.41,0.54,0.62,0.8
		c1.56,1.91,3.87,2.63,5.96,3.59c2.48,1.14,5.14,1.92,7.73,2.82c3.62,1.26,7.25,0.72,10.87-0.04c2.04-0.43,4.08-0.87,6.12-1.3
		c1.07-0.22,2.15-0.45,3.23-0.63c0.19-0.03,0.41,0.1,0.62,0.15c-0.09,0.18-0.15,0.4-0.29,0.53c-2.74,2.65-5,5.99-8.76,7.24
		c-4.05,1.35-7.95,3.01-12.49,2.99c-5.01-0.02-9.69-0.98-14.35-2.49c-4.23-1.36-8.18-3.24-11.95-5.63c-2.12-1.35-4.57-2.2-6.95-3.07
		c-1.11-0.41-2.45-0.62-3.59-0.42c-4.11,0.72-8.19,1.65-12.14,2.98c-3.52,1.18-6.87,0.57-10.29-0.32
		c-5.01-1.31-9.86-3.04-14.56-5.26c-1.89-0.89-3.56-1.98-4.76-3.61c-1.38-1.86-2.9-3.6-3.98-5.74c-1.54-3.05-3.45-5.94-5.38-8.77
		c-0.66-0.97-1.86-1.56-2.77-2.36c-0.15-0.13-0.12-0.48-0.18-0.72c0.22,0.01,0.48-0.06,0.64,0.04c3.36,1.93,7.23,3.02,9.8,6.23
		c0.67,0.84,1.69,1.47,2.66,1.99c2.93,1.58,5.85,3.18,8.89,4.51c1.37,0.6,3.02,0.63,4.56,0.76c1.35,0.12,2.73,0.13,4.08,0.01
		c3.3-0.31,6.41,0.43,9.49,1.47c0.72,0.24,1.47,0.51,2.22,0.55c0.88,0.05,1.77-0.12,2.66-0.2c-0.54-0.66-1.04-1.36-1.63-1.98
		c-2.78-2.96-5.94-5.43-9.72-6.99c-1.62-0.67-3.28-1.45-4.98-1.64c-3.77-0.42-7.15-2.16-10.82-2.9c-2.13-0.43-3.7-2.25-4.85-4.02
		c-1.5-2.29-2.59-4.85-3.84-7.31c-0.65-1.28-1.31-2.57-1.89-3.88c-0.51-1.16-0.13-1.65,1.11-1.69c2.18-0.07,4.13,0.9,6.01,1.68
		c2.51,1.03,5.3,1.98,6.5,4.88c0.08,0.2,0.27,0.4,0.46,0.49c0.78,0.38,1.57,0.72,2.36,1.08c-0.28-0.74-0.4-1.6-0.86-2.21
		c-1.83-2.4-3.61-4.86-5.68-7.03c-2.82-2.94-6.14-4.92-10.48-5.14c-3.04-0.16-6.16-0.67-8.35-3.46c-1.08-1.37-2.61-2.46-4.1-3.42
		c-2.72-1.75-3.56-4.63-4.78-7.3c-0.09-0.19,0.03-0.49-0.07-0.67c-3.34-5.53-1.75-11.62-1.9-17.48c-0.05-2.03,0.8-4.08,1.24-6.12
		c0.15-0.69,0.28-1.38,0.42-2.07c0.08,0.77,0.26,1.54,0.22,2.31c-0.09,1.62,0.28,3.04,1.11,4.47c1.78,3.06,3.19,6.35,5.1,9.32
		c2.24,3.48,5.07,6.46,8.37,9.08c2.62,2.08,5.47,3.3,8.56,4.21c0.52,0.15,1.06,0.3,1.6,0.36c0.31,0.03,0.64-0.11,0.96-0.18
		c-0.13-0.26-0.2-0.56-0.39-0.76c-0.87-0.89-1.68-1.89-2.69-2.59c-1.29-0.91-2.19-2.17-3.29-3.19c-4.39-4.06-5.94-9.49-7.88-14.78
		c-0.8-2.17-1.68-4.3-2.56-6.44c-1.18-2.88-2.11-5.81-2.07-8.98c0.01-0.87-0.32-1.75-0.32-2.62c0-0.84,0.39-1.69,0.34-2.52
		c-0.2-3.19,1.37-6.02,1.81-9.07c0.31-2.14,1.61-3.95,2.91-5.49c3.49-4.12,7.7-7.46,12.46-10.08c3.22-1.78,6.76-2.61,10.31-3.38
		c4.27-0.93,7.31-0.86,11.91-0.07c1.74,0.3,3.59-0.1,5.26,0.76c0.27,0.14,0.55,0.24,0.83,0.36c-0.31,0.1-0.61,0.25-0.93,0.28
		c-8.52,0.9-15.6,7.42-17.82,15.42c-1.12,4.02-1.65,8.34-0.21,12.54c0.14,0.41,0.15,0.89,0.36,1.26c1.51,2.71,2.88,5.51,4.64,8.05
		c1.51,2.18,3.59,3.97,5.7,5.56c3.63,2.74,7.84,4.43,11.94,6.38c3.97,1.9,8.31,2.99,12.01,5.49c2.71,1.83,5.38,3.7,7.48,6.2
		c1.04,1.24,1.69,2.85,2.37,4.35c1.83,4,3.38,8.11,4.48,12.37c0.11,0.43,0.03,0.9,0.05,1.36L88.19,177.13z M109.42,204.15
		c1.6,0.18,3.15,0.42,4.66-0.38c0.93-0.49,2.12-0.62,3.2-0.71c6.39-0.51,9.31-5.01,11.68-10.12c0.22-0.47,0.14-1.14,0.03-1.68
		c-0.23-1.12-1.52-1.46-2.28-0.57c-0.49,0.56-0.77,1.3-1.13,1.97c-0.42,0.77-0.65,1.74-1.26,2.31c-2.63,2.45-5.68,4.44-9.31,4.51
		c-4.01,0.08-8.01,0.27-12.09-0.41c-5.26-0.88-9.79-3.17-14.27-5.71c-1.06-0.6-2.04-1.32-3.24-1.58c-2.12-0.46-3.76-1.81-5.54-2.9
		c-0.66-0.41-1.3-0.85-1.98-1.22c-4.13-2.26-8.93-3.41-12.08-7.3c-0.19-0.24-0.57-0.32-0.84-0.51c-2.74-1.9-5.86-3.05-8.82-4.54
		c-3.75-1.88-7.81-1.35-11.66-2.21c-0.34-0.08-1.06,0.39-1.19,0.75c-0.25,0.74,0.17,1.08,1.01,1.31c2.42,0.68,4.84,1.43,7.16,2.41
		c1.92,0.82,3.65,2.06,5.53,3.01c5.12,2.57,9.19,6.46,12.81,10.75c1.5,1.78,3.22,3,5.11,4.07c2.4,1.36,4.96,2.45,7.46,3.63
		c2.09,0.98,4.23,1.88,6.32,2.87c4.58,2.18,9.66,2.04,14.48,3.14c0.65,0.15,1.37,0.09,2.03-0.02
		C106.62,204.78,108.02,204.45,109.42,204.15z M21.38,133.16c0.1,1.13,0.03,2.85,0.44,4.45c1.28,4.99,3.8,9.42,6.81,13.53
		c1.02,1.39,2.55,2.59,4.11,3.37c2.04,1.02,4.33,1.53,6.52,2.28c1.24,0.42,2.47,0.92,3.73,1.29c0.62,0.18,1.21-0.51,0.86-0.99
		c-0.98-1.35-1.85-2.94-3.16-3.87c-3.74-2.64-6.64-5.95-9.01-9.81c-1.51-2.46-2.64-5.08-3.35-7.87c-0.32-1.28-0.31-2.65-0.73-3.89
		c-1.05-3.1-1.52-6.27-1.27-9.51c0.13-1.76,0.35-3.54,0.79-5.24c0.66-2.6,0.7-5.62,3.83-6.89c0.06-0.02,0.04-0.46-0.07-0.61
		c-0.1-0.15-0.39-0.3-0.55-0.26c-2.39,0.53-5.16,3.48-5.38,6.02c-0.11,1.28-0.55,2.35-1.05,3.47c-0.45,0.99-0.8,2.04-1.06,3.1
		C21.94,125.3,21.6,128.94,21.38,133.16z M118.02,156.34c0.09,1.18-0.04,2.04,0.23,2.74c1.25,3.29,2.55,6.56,3.94,9.78
		c0.48,1.1,1.24,2.09,1.98,3.05c0.2,0.26,0.91,0.46,1.12,0.31c0.34-0.24,0.68-0.83,0.62-1.2c-0.23-1.29-0.47-2.63-1.01-3.81
		c-0.94-2.06-0.76-4.2-0.55-6.29c0.17-1.72,0.87-3.39,1.25-5.1c1.32-5.99,5.09-10.62,12.47-10.66c0.32,0,0.63-0.15,0.95-0.23
		c-0.16-0.26-0.28-0.55-0.48-0.78c-1.88-2.15-4.35-2.9-7.11-3.14c-2.79-0.24-5.06,0.55-6.87,2.72c-0.65,0.78-1.39,1.5-2.14,2.19
		C119.23,148.83,118.66,152.78,118.02,156.34z"/>
	<path class="st0" d="M216.11,107.06c3.67-0.1,7.28-0.58,10.9-1.24c1.94-0.35,4.07-0.15,6.03,0.23c2.29,0.45,4.36,0.49,6.42-0.76
		c0.82-0.5,1.84-0.85,2.79-0.9c3.24-0.16,6.51,0.09,9.7-0.73c0.96-0.24,1.92-0.46,2.88-0.7c5.75-1.42,11.64-2.23,17.21-4.42
		c1.94-0.76,3.95-0.7,5.87,1.06c2.21,2.03,5.19,2.86,8.18,3.31c0.86,0.13,1.82,0.05,2.65-0.21c2.51-0.81,5.01-1.64,7.43-2.67
		c1.67-0.71,3.31-0.65,4.9-0.17c3.99,1.2,7.91,2.62,11.9,3.82c7.41,2.24,14.46,5.28,21.37,8.74c3.51,1.76,7.36,2.45,11.34,2.13
		c0.3-0.02,0.61,0.17,0.92,0.26c-0.26,0.14-0.54,0.25-0.76,0.44c-2.37,2.07-4.72,4.16-7.1,6.22c-0.58,0.51-1.26,0.91-1.86,1.39
		c-0.15,0.12-0.29,0.44-0.23,0.56c0.12,0.25,0.36,0.57,0.59,0.6c0.67,0.09,1.36,0.08,2.04,0.04c2.6-0.14,5.06,0.22,7.49,1.29
		c1.48,0.65,3.19,0.79,4.82,1.1c3.91,0.73,7.69,2.12,11.8,1.76c3.04-0.26,5.82,1.18,8.6,2.14c0.91,0.31,1.93,1.66,2.01,3.17
		c0.11,1.97-0.24,3.76-1.34,5.42c-2.46,3.7-3.67,7.98-5.49,11.98c-1.61,3.55-3.26,7.1-6.96,9.06c-0.49,0.26-1.02,0.5-1.39,0.89
		c-1.72,1.75-3.81,2.09-6.17,2.03c-4.25-0.11-4.44-0.13-2.18-3.88c1.79-2.98,2.64-6.26,3.85-9.43c0.51-1.33,1.07-2.69,1.88-3.85
		c0.94-1.35,2.57-2.24,2.32-4.27c-0.03-0.28,0.58-0.64,0.9-0.95c0.24-0.23,0.49-0.46,0.73-0.69c-0.25-0.23-0.46-0.56-0.75-0.66
		c-1.58-0.56-2.43-0.13-3.12,1.47c-0.21,0.49-0.34,1.23-0.71,1.41c-3.25,1.57-4.49,4.88-6.58,7.46c-1.54,1.9-2.98,3.88-4.5,5.79
		c-1.19,1.49-2.58,2.83-3.62,4.41c-1.44,2.2-3.21,3.98-5.42,5.39c-0.66,0.42-1.18,1.05-1.74,1.62c-1.12,1.13-2.32,1.99-3.96,2.33
		c-1.38,0.29-2.68,0.98-3.98,1.58c-3.44,1.58-7.09,1.9-10.76,1.65c-2.17-0.15-4.32-0.77-6.46-1.26c-0.85-0.19-1.65-0.59-2.47-0.93
		c-0.97-0.41-1.73-0.94-1.51-2.22c0.06-0.36-0.27-0.82-0.49-1.2c-0.43-0.75-0.9-1.48-1.35-2.21c1.03,0.24,2.16,0.28,3.06,0.77
		c2.65,1.43,5.42,1.93,8.38,1.72c0.68-0.05,1.37-0.09,2.04,0.01c3.9,0.59,7.14-0.96,10.23-3.08c0.91-0.62,1.97-1.05,2.82-1.74
		c0.94-0.77,2.04-1.59,2.52-2.65c2.24-4.88,5.54-9.08,8.41-13.55c1.02-1.59,1.93-3.2,3.24-4.64c2.47-2.71,5.5-4.51,8.61-6.28
		c0.25-0.14,0.49-0.3,0.74-0.45c-0.32-0.31-0.62-0.85-0.97-0.89c-0.88-0.1-1.85-0.19-2.66,0.1c-2.48,0.86-5.02,1.59-7.23,3.18
		c-1.51,1.09-3.25,1.87-4.9,2.78c-1.58,0.87-3.15,1.75-3.88,3.53c-0.49,1.19-1.47,1.4-2.51,1.16c-1.38-0.32-2.76-0.74-4.05-1.31
		c-2.13-0.93-4.23-1.94-6.26-3.07c-1.43-0.79-2.88-0.99-4.48-1.06c-5.19-0.21-10.1,1.2-15.08,2.26c-1.72,0.37-3.42,1.01-5.14,1.09
		c-2.4,0.12-4.47,1.15-6.67,1.82c-4.24,1.3-8.5,2.47-13,2.4c-1.32-0.02-2.61,0.19-3.94,0.48c-2.03,0.44-4.18-0.08-6.29-0.41
		c-2.3-0.35-4.55-0.73-6.79-1.4c-1.47-0.44-2.6-1.17-3.7-2.14c-3.43-3.02-7.04-5.75-11.65-6.82c-0.94-0.22-1.88-0.72-2.67-1.3
		c-2.71-1.96-5.84-2.36-9.04-2.81c-5.31-0.75-10.62-1.4-16-1.31c-0.3,0.01-0.61-0.18-0.92-0.28c0.27-0.14,0.57-0.25,0.81-0.43
		c4.27-3.22,9.27-4.35,14.38-5.51c3.08-0.69,6.24,0.03,9.24-1.13c0.89-0.34,2.12-0.33,3.02,0c2.09,0.78,4.22,0.4,6.32,0.58
		c1.76,0.15,3.54,0.34,5.25,0.75c0.78,0.19,1.65,0.84,2.08,1.53c2.19,3.54,5.51,5.88,8.68,8.37c1,0.79,2.36,1.35,3.63,1.53
		c4.11,0.57,8.24,1.1,12.41,0.74c1.97-0.17,3.56-1.49,4.87-2.65c2.31-2.04,5.08-2.81,7.81-3.36c3.68-0.75,7.38-1.73,11.2-1.49
		c1.7-1.05,3.41-0.01,5.12-0.02c0.77-0.01,1.55-0.13,2.28-0.33c0.18-0.05,0.23-0.62,0.34-0.94c-1.93-0.48-3.43-1.87-5.51-2.23
		c-2.34-0.4-4.66-0.68-6.99-0.53c-3.08,0.2-6.19,0.41-8.96,2.04c-0.19,0.11-0.39,0.3-0.58,0.3c-2.67,0.1-5.15,1.3-7.72,1.6
		c-3.47,0.4-7.02,0.11-10.54,0.07c-0.53-0.01-1.09-0.17-1.59-0.39c-3.09-1.34-6.14-2.86-8.21-5.59c-1.73-2.28-3.11-4.85-4.52-7.36
		c-0.38-0.69-0.08-1.3,0.92-1.75c3.86-1.75,5.68-1.59,8.65,1.35c1.32,1.31,2.79,1.92,4.64,2.33c2.56,0.56,5.34,0.28,7.71,1.73
		c0.26,0.16,0.67,0.24,0.96,0.16c3.2-0.82,6.72-0.04,9.72-1.76c2.84-1.62,5.99-2.14,9.07-2.96c1.48-0.4,2.93-1.18,4.42-1.24
		c2.99-0.13,5.99,0.15,8.59,1.95c0.85,0.58,1.55,1.55,2.86,0.73c0.51-0.32,1.3-0.19,1.96-0.26c-0.43-0.58-0.77-1.26-1.3-1.73
		c-3.27-2.94-7.05-4.89-11.51-4.15c-3.81,0.63-7.6,0.42-11.4,0.63c-1.31,0.07-2.64,0.32-3.91,0.67c-3.53,0.99-6.99,0.39-10.56,0.16
		c-4.39-0.29-7.87-2-11.25-4.43c-0.89-0.64-1.92-1.13-2.94-1.53c-0.55-0.21-1.26-0.19-1.87-0.08c-3.91,0.72-7.81,1.45-11.78,1.92
		c-4.7,0.55-9.54,0.04-14.14,1.75c-1.5,0.55-3.47,0.45-5.05,0.03c-3.24-0.87-6.48-0.44-9.72-0.56c-2.14-0.08-4.07-0.6-5.69-2.05
		L216.11,107.06z"/>
	<path class="st0" d="M565.36,45.53c-0.2,1.67-0.47,4.22-0.83,6.75c-0.2,1.37-0.94,2.49-1.99,3.38c-4.46,3.77-6.11,9.13-8.03,14.32
		c-0.29,0.79-0.34,1.91,0,2.64c0.98,2.09,0.29,4.23,0.49,6.33c0.02,0.25-0.22,0.71-0.42,0.77c-0.25,0.07-0.75-0.09-0.87-0.31
		c-0.94-1.62-2.3-3.2-2.6-4.95c-0.64-3.79-1.68-7.67-0.18-11.53c0.04-0.1,0.03-0.23,0.02-0.34c-0.44-4.58,1.79-8.32,3.79-12.14
		c0.09-0.17-0.08-0.6-0.26-0.76c-0.17-0.16-0.56-0.23-0.78-0.15c-0.51,0.2-1.09,0.41-1.44,0.8c-1.34,1.49-2.87,2.91-3.81,4.64
		c-0.73,1.34-1.5,1.7-2.86,1.7c-3.82-0.01-7.14,1.35-9.88,4.04c-1.64,1.6-3.77,2.75-4.62,5.09c-0.07,0.2-0.55,0.28-0.85,0.33
		c-0.06,0.01-0.3-0.37-0.26-0.54c0.39-2.04,0.92-4.07,1.2-6.12c0.47-3.38,2.33-5.94,4.58-8.3c1.48-1.56,2.91-3.21,4.6-4.52
		c3.01-2.36,5.94-5.01,10.18-4.88c0.63,0.02,0.97-0.23,1.14-0.92c0.45-1.82,1.09-3.55,0.23-5.5c-0.42-0.96-0.19-2.21-0.24-3.33
		c-0.07-1.62-0.39-3.09-1.99-3.95c-0.32-0.17-0.63-0.57-0.71-0.92c-0.3-1.29-0.5-2.6-0.74-3.9c-0.11-0.6-0.26-1.19-0.39-1.78
		c0.5,0.23,1.04,0.39,1.48,0.69c3.56,2.46,7.55,4.26,10.5,7.63c2.46,2.81,4.19,5.98,5.18,9.49
		C565.46,40.95,565.23,42.84,565.36,45.53z"/>
	<path class="st0" d="M157.88,445.42c-5.86-0.34-10.47-0.43-15.03-0.95c-2.81-0.32-5.55-1.26-8.32-1.97
		c-1.24-0.32-2.58-2.38-2.02-3.77c0.77-1.92,0.46-3.61,0-5.47c-0.29-1.18-0.01-2.48-0.07-3.73c-0.06-1.33-0.25-2.66-0.32-3.99
		c-0.02-0.35,0.11-0.93,0.35-1.03c0.89-0.4,1.83-0.8,2.79-0.93c1.11-0.16,2.26-0.05,3.4-0.04c3.58,0.05,7.05-0.66,10.55-1.27
		c1.76-0.31,3.62-0.15,5.43-0.08c0.47,0.02,1.04,0.43,1.35,0.82c2.03,2.64,4.1,5.27,5.96,8.03c0.84,1.25,1.3,2.78,1.79,4.24
		c0.94,2.8,1.78,5.63,2.6,8.47c0.06,0.19-0.43,0.76-0.71,0.8C162.63,444.93,159.64,445.24,157.88,445.42z M155.64,443.38
		c0-0.04,0.01-0.08,0.01-0.12c1.36,0,2.72,0.08,4.07-0.03c0.85-0.07,1.68-0.45,2.53-0.64c0.96-0.21,0.97-0.98,0.74-1.57
		c-1.13-2.85-2.21-5.74-3.59-8.47c-1.17-2.32-1.34-2.24-4.07-1.76c-0.21,0.04-0.48,0.18-0.64,0.1c-2.24-1.17-4.65-0.32-6.96-0.63
		c-0.55-0.07-1.18-0.01-1.61-0.28c-1.55-0.97-2.81-0.03-4.06,0.58c-1.07,0.52-1.01,1.41,0.11,1.83c1.42,0.54,2.89,1.02,4.38,1.32
		c2.69,0.55,5.41,0.95,8.12,1.41c1.04,0.18,1.63,0.75,1.54,1.83c-0.12,1.28-1.16,0.75-1.83,0.79c-1.9,0.11-4.05-0.55-5.13,1.86
		c-0.06,0.14-0.39,0.19-0.6,0.22c-1.3,0.23-2.6,0.44-3.9,0.65c-0.65,0.1-1.31,0.18-1.96,0.27c0.55,0.44,1.07,0.95,1.68,1.31
		c0.46,0.27,1.01,0.46,1.54,0.51C149.2,442.86,152.42,443.11,155.64,443.38z"/>
	<path class="st0" d="M559.79,347.99c0,1.8,0,3.84,0,5.87c0,0.57,0.1,1.17-0.05,1.69c-0.38,1.24-0.88,2.45-1.33,3.67
		c-1-0.54-2.13-0.94-2.99-1.66c-2.14-1.81-4.37-3.57-6.16-5.7c-2.53-3.01-4.92-6.09-8.46-8.02c-0.27-0.14-0.55-0.36-0.69-0.62
		c-1.48-2.85-3.03-5.65-2.81-9.07c0.07-1.2,0.39-2.3,1.08-3.08c1.75-1.98,3.58-3.92,5.57-5.68c0.3-0.27,0.79-0.51,1.18-0.49
		c2.55,0.1,5.09-0.21,7.66,0.55c3.25,0.96,4.52,3.15,4.95,6.2c0.17,1.19,0.23,2.47,0.71,3.54
		C560.25,339.26,559.67,343.54,559.79,347.99z M556.43,345.59c-0.01,0-0.01,0-0.02,0c0-0.68,0.03-1.35-0.01-2.02
		c-0.03-0.5,0.12-1.2-0.86-0.6c-2.76,1.68-5.24,0.89-7.55-1.03c-1.03-0.86-2.15-1.58-3.59-1.45c-0.21,0.02-0.42,0.09-0.63,0.14
		c0.09,0.25,0.1,0.58,0.27,0.74c2.21,2.04,4.45,4.06,6.67,6.09c0.5,0.45,0.97,0.94,1.46,1.4c0.97,0.89,2.15,0.65,3.17,0.33
		c0.94-0.29,1.19-1.24,1.09-2.23C556.4,346.5,556.43,346.04,556.43,345.59z"/>
	<path class="st0" d="M250.88,94.18c1.02,0.4,2.03,0.82,3.05,1.21c0.92,0.35,1.84,0.67,2.76,1.01c-0.89,0.53-1.76,1.1-2.69,1.54
		c-0.3,0.14-0.93,0.05-1.14-0.18c-0.89-0.99-1.67-2.07-2.49-3.12c-0.06-0.07-0.07-0.18-0.1-0.27
		C250.48,94.31,250.68,94.24,250.88,94.18z"/>
	<path class="st1" d="M340.65,265.63c0.17,0.08,0.34,0.16,0.51,0.24c-0.08,0.07-0.17,0.15-0.25,0.22c-0.08-0.16-0.16-0.32-0.23-0.49
		L340.65,265.63z"/>
	<path class="st0" d="M257.26,416.7c3.71-0.74,5.77,2.33,8.32,4.36c0.41,0.32,0.49,1.05,0.89,1.37c2.91,2.28,4.37,5.63,6.35,8.58
		c1.14,1.7,1.76,3.78,2.43,5.75c0.4,1.18-0.06,1.63-1.28,1.68c-1.02,0.04-2.04,0.01-3.06,0.02c-2.23,0.02-4.48-0.16-6.63,0.68
		c-3.05,1.18-6.26,0.89-9.34,0.56c-3.02-0.31-5.93-1.53-8.92-2.24c-1.21-0.29-1.46-1.27-1.86-2.13c-0.22-0.47-0.13-1.11-0.09-1.67
		c0.31-4.17-0.57-8.28-0.75-12.42c-0.02-0.52-0.32-1.03-0.49-1.54c0.62-0.2,1.23-0.54,1.86-0.57
		C248.9,418.89,252.7,416.53,257.26,416.7z M257.03,435.22c0-0.07,0.01-0.13,0.01-0.2c1.46,0.08,2.93,0.07,4.38,0.26
		c1.52,0.2,3.01,0.57,4.51,0.91c1.47,0.33,3.4-0.46,4.29-1.81c0.67-1.01,0.62-3.76-0.51-4.32c-1.56-0.77-1.65-2.2-2.37-3.35
		c-0.59-0.93-1.25-1.83-2.01-2.63c-0.9-0.95-1.9-0.77-3.04-0.17c-2.9,1.53-5.87,2.91-8.8,4.38c-0.24,0.12-0.52,0.45-0.52,0.67
		c0.01,0.22,0.38,0.63,0.55,0.62c2.65-0.25,5.39,0.72,7.98-0.55c0.37-0.18,0.89-0.09,1.34-0.06c1.21,0.07,1.21,1.23,1.47,1.94
		c0.28,0.76-0.62,0.62-1.12,0.76c-2.11,0.57-4.22,1.15-6.31,1.79c-1.29,0.4-2.55,0.91-3.82,1.37
		C254.38,434.95,255.71,435.08,257.03,435.22z"/>
	<path class="st0" d="M580.91,322.83c0.05-2.14,0.48-4.83,1.98-7.3c0.44-0.72,0.53-1.67,0.75-2.52c0.38-1.53,0.62-1.74,2.27-1.81
		c0.45-0.02,0.91,0.02,1.36-0.01c3.35-0.19,6.69-0.36,10.03-0.62c1.71-0.13,2.73,0.3,3.76,1.93c2.86,4.5,5.39,9.13,7.26,14.12
		c0.27,0.72,0.79,1.35,1.08,2.06c0.72,1.78,2.22,3.43,0.85,5.6c-0.23,0.37,0.23,1.19,0.38,1.8c-0.88,0.09-1.75,0.22-2.63,0.23
		c-0.42,0.01-0.85-0.21-1.27-0.31c-1.43-0.33-2.79-0.69-4.36-0.39c-1.87,0.35-3.66-0.54-5.43-1.16c-4.92-1.7-9.53-4.02-14.07-6.57
		c-1.52-0.86-2.19-1.74-1.97-3.4C580.95,324.17,580.91,323.83,580.91,322.83z M600.6,322.49c0.04,0,0.09,0.01,0.13,0.01
		c-0.14,1.22-0.14,2.47-0.45,3.64c-0.34,1.29-1,1.6-2.22,1.36c-2.16-0.42-4.3-0.9-6.46-1.3c-0.66-0.12-1.36-0.11-2.04-0.03
		c-0.39,0.04-0.75,0.32-1.12,0.49c0.28,0.45,0.45,1.09,0.85,1.3c0.96,0.51,2.02,0.86,3.07,1.2c2.6,0.85,5.19,1.8,7.85,2.43
		c2.01,0.47,4.19,0.29,5.93,1.75c0.14,0.12,0.96-0.18,0.98-0.35c0.11-0.83,0.36-2.25,0.02-2.43c-1.05-0.55-0.83-1.38-1.09-2.18
		c-0.58-1.76-0.93-3.64-2.41-5.03c-0.7-0.66-1.27-1.61-1.52-2.54c-0.28-1.04-0.42-1.96-1.7-2.09c0.06,0.69,0.15,1.38,0.19,2.08
		C600.63,321.36,600.6,321.93,600.6,322.49z"/>
	<g>
		<path class="st1" d="M555.24,309.5c-0.46-3.98-1.41-8.01-0.79-12.05c0.3-1.96-0.72-3.36-1.85-4.45c-2.4-2.33-4.94-4.6-7.73-6.42
			c-1.97-1.29-2.39-2.96-2.76-4.93c-0.18-0.96-0.37-2-0.87-2.81c-1.1-1.8-2.5-3.41-3.59-5.22c-3.14-5.19-6.22-10.38-7.89-16.33
			c-0.88-3.15-2.56-6.09-3.94-9.09c-0.46-0.99-0.94-2.11-1.73-2.8c-3.28-2.88-7.03-4.99-11.19-6.32c-0.83-0.27-1.69-0.62-2.54-0.63
			c-2.04,0-3.92-0.62-5.82-1.2c-3.26-0.98-6.46-2.27-9.79-2.84c-3.62-0.62-7.36-0.56-11.05-0.78c-0.79-0.05-1.63,0.11-2.36-0.1
			c-3.24-0.91-6.51-1.43-9.88-1.25c-2.43,0.13-4.55-0.73-6.56-2.03c-1.11-0.72-2.24-1.55-3.48-1.93c-2.51-0.76-5.21-0.93-7.35-2.69
			c-0.08-0.07-0.21-0.12-0.31-0.11c-2.94,0.22-5.49-1.97-8.5-1.4c-0.3,0.06-0.97-0.34-0.99-0.56c-0.03-0.35,0.26-0.92,0.57-1.07
			c0.57-0.27,1.26-0.41,1.9-0.43c5.14-0.12,10.22-0.08,15.21,1.67c2.35,0.82,5.02,1.65,7.52,0.89c1.47-0.44,2.86-0.43,4.29-0.48
			c1.93-0.07,3.86-0.01,5.78-0.03c0.56,0,1.26,0.14,1.66-0.14c3.28-2.28,6.51-4.63,9.75-6.97c1.3-2.97,3.69-5.05,5.94-7.23
			c1.95-1.89,2.84-4.17,3.05-6.82c0.07-0.86,0.4-1.7,0.65-2.54c0.19-0.63,0.6-1.22,0.68-1.85c0.62-5.29-0.56-10.19-3.4-14.69
			c-0.1-0.16-0.24-0.3-0.36-0.45c-0.08,0.2-0.24,0.4-0.24,0.6c-0.02,2.84-0.06,5.67-0.02,8.51c0.03,2.17-0.08,4.23-1.82,5.89
			c-0.51,0.49-0.74,1.36-0.91,2.1c-0.54,2.42-1.69,4.55-3.12,6.52c-1.1,1.53-2.15,3.06-2.79,4.85c-0.25,0.71-0.76,1.35-1.23,1.96
			c-2.34,2.97-5.69,4.09-9.14,5.12c-0.8,0.24-1.05-0.16-1.27-0.54c-0.16-0.28-0.07-0.92,0.17-1.15c0.95-0.96,2.06-1.76,2.99-2.73
			c0.96-1,1.86-1.96,2.21-3.51c0.45-2,0.45-3.98,0.58-5.98c0.14-2.1,0.55-4.19,0.62-6.3c0.11-2.94,0.03-5.9,0.01-8.85
			c-0.01-0.78-0.01-1.58-0.19-2.34c-0.51-2.26-1.08-4.49-1.23-6.84c-0.11-1.73-0.59-3.47-1.08-5.15c-1.7-5.8-4.69-10.94-8.29-15.75
			c-1.28-1.7-2.39-3.54-2.11-5.81c0.06-0.48,0.43-1.31,0.62-1.3c0.6,0.04,1.22,0.33,1.76,0.65c0.23,0.14,0.27,0.58,0.42,0.88
			c1.31,2.63,2.73,5.13,5.83,6.1c0.59,0.18,0.99,0.91,1.52,1.34c1.3,1.06,2.6,2.13,3.97,3.1c0.27,0.19,0.87,0.05,1.25-0.1
			c0.14-0.06,0.23-0.61,0.14-0.87c-0.61-1.76-1.19-3.54-1.94-5.25c-0.7-1.61-1.69-3.09-2.38-4.71c-2.73-6.31-4.18-12.96-5.06-19.75
			c-0.17-1.31-0.48-2.6-0.66-3.91c-0.18-1.31,0.06-2.62-0.56-3.95c-0.43-0.93-0.4-2.35-0.03-3.34c0.84-2.21,0.4-4.45,0.58-6.66
			c0.22-2.78,0.37-5.57,0.75-8.33c0.18-1.28,0.83-2.49,1.32-3.72c0.06-0.14,0.57-0.28,0.63-0.21c0.5,0.59,1.21,1.17,1.34,1.85
			c0.38,1.96,0.57,3.95,0.73,5.94c0.27,3.34,0.46,6.69,0.72,10.04c0.02,0.24,0.25,0.47,0.38,0.71c0.08-0.2,0.17-0.4,0.24-0.61
			c0.83-2.49,1.68-4.98,2.49-7.48c1.43-4.44,3.47-8.57,5.82-12.59c2.55-4.37,5.37-8.57,9.22-11.85c2.17-1.85,4.14-4.16,7.01-5.04
			c2.1-0.64,4.05-1.79,6.33-1.8c0.36,0,0.72-0.13,1.09-0.2c0,0.44,0.12,0.92-0.03,1.3c-0.65,1.64-1.34,3.26-2.08,4.86
			c-0.98,2.12-1.82,4.38-1.79,6.64c0.08,5.73-0.39,11.44,0.44,17.2c0.62,4.26,2.31,7.57,5.25,10.47c2.75,2.71,5.46,5.45,8.21,8.15
			c2.42,2.39,4.07,5.37,5.4,8.37c1.4,3.18,2.21,6.75,2.28,10.24c0.06,2.99,1.27,5.6,1.74,8.43c0.21,1.28,0.74,2.58,2,3.33
			c1.21-1.06,1.08-2.5,1.08-3.9c0-2.95,0.01-5.9,0-8.85c0-2.09,0.77-3.67,2.84-4.43c1.43-0.53,2.87-1.06,4.32-1.54
			c0.26-0.09,0.69-0.02,0.91,0.15c2.09,1.62,3.78,3.64,4.17,6.27c0.46,3.08,0.53,6.23,0.71,9.35c0.08,1.47,0.11,2.95,0,4.42
			c-0.11,1.54,0.34,2.48,1.87,3.12c1.2,0.5,2.24,2.23,3.24,2.14c1.39-0.12,0.97-2.25,1.71-3.33c0.19-0.28,0.45-0.54,0.54-0.85
			c0.5-1.67,1.93-2.37,3.33-2.28c2.01,0.12,2.94-0.85,3.47-2.44c0.59-1.76,1.19-3.57,1.42-5.4c0.53-4.16-0.56-8.27-0.65-12.42
			c-0.01-0.31-0.25-0.62-0.31-0.94c-0.75-3.91-1.68-7.81-1.69-11.81c-0.03-15.77-0.02-31.53,0.02-47.3c0.01-2.11-0.3-4.22,0.53-6.33
			c0.39-0.98,0.09-2.24,0.07-3.38c-0.02-0.75-1.12-1.86-1.91-1.85c-0.96,0.02-1.32,0.69-1.4,1.58c-0.1,1.21-0.37,2.42-0.53,3.59
			c-0.42,2.95-0.23,6,1.26,8.74c0.68,1.26,0.38,2.19-0.96,2.32c-0.76,0.07-1.72,0.14-2.29-0.24c-2.5-1.64-4.9-3.44-7.34-5.19
			c-0.09-0.06-0.18-0.16-0.21-0.26c-1.09-2.89-3.22-5.29-3.66-8.5c-0.26-1.9-1.22-2.6-3-2.04c-2,0.62-3.97,0.53-5.97,0.6
			c-2.55,0.08-4.39,1.79-4.52,4.26c-0.07,1.24-0.01,2.5-0.07,3.74c-0.01,0.27-0.26,0.68-0.47,0.73c-0.25,0.06-0.69-0.1-0.87-0.31
			c-3.32-3.92-5.27-8.35-5.48-13.57c-0.11-2.83,0.55-5.53,0.89-8.29c0.11-0.9-0.25-1.95,0.09-2.71c1.47-3.29,3.41-6.28,6.46-8.38
			c0.46-0.31,0.96-0.59,1.33-0.99c2.8-3.03,6.2-4.98,10.24-5.89c1.56-0.35,1.89-1.88,1.01-3.46c-0.42-0.76-1.13-1.9-0.86-2.4
			c0.96-1.72-0.34-3.21-0.17-4.83c0.11-1.03-0.25-2.23-0.74-3.17c-2.14-4.12-3.46-8.57-5.34-12.79c-0.66-1.49-1.71-2.8-2.63-4.17
			c-0.39-0.58-0.84-0.17-0.98,0.2c-0.23,0.6-0.37,1.28-0.38,1.92c-0.05,3.18-0.02,6.35-0.07,9.53c-0.02,1.1-0.28,2.21-0.41,3.27
			c-0.33,2.85-0.76,5.81,0.41,8.64c0.63,1.52,1.19,3.08,1.69,4.65c0.18,0.57,0.35,1.53,0.06,1.78c-0.7,0.6-1.15-0.24-1.57-0.71
			c-1.33-1.51-2.63-3.05-3.96-4.56c-0.5-0.57-0.77-0.54-1.02,0.28c-0.22,0.73-0.83,1.33-1.09,2.05c-0.88,2.45-2.49,4.45-3.98,6.5
			c-1.32,1.82-3.09,3.3-5.21,4.12c-4.81,1.87-9.67,3.6-14.52,5.37c-0.3,0.11-0.67,0.13-0.99,0.1c-3.47-0.32-6.47,1.19-9.57,2.37
			c-2.68,1.02-5.43,1.91-8.38,1.76c-1.02-0.05-2.06-0.12-3.06,0.04c-1.39,0.22-2.97,0.33-4.04,1.09c-1.2,0.86-1.88,2.43-2.85,3.64
			c-3.64,4.52-7.93,8.17-13.63,9.79c-1.01,0.29-2.23,0.35-3.21,0.06c-0.99-0.3-1.39-0.48-1.55,0.76c-0.21,1.69-1.3,2.71-2.82,3.44
			c-0.88,0.42-1.86,1.01-2.34,1.8c-2.31,3.75-5.72,6.81-7.04,11.18c-0.06,0.21-0.09,0.48-0.24,0.61c-2.29,2.04-2.68,5.03-3.77,7.65
			c-1.82,4.36-2.89,9.01-5.28,13.16c-1.99,3.45-3.86,6.96-5.84,10.41c-0.24,0.42-0.88,0.92-1.28,0.88c-0.98-0.1-0.67-1.02-0.61-1.62
			c0.05-0.52,0.4-1.02,0.62-1.52c0.7-1.6,1.37-3.21,2.1-4.8c1.44-3.13,1.68-6.59,2.66-9.85c0.17-0.57-0.1-1.35-0.8-1.07
			c-1.83,0.73-3.83,0.83-4.74,3.46c-1.76,5.11-4.18,10.02-7.43,14.39c-1.1,1.49-2.14,2.73-2.02,4.75c0.05,0.87-0.69,1.82-1.18,2.67
			c-0.44,0.76-1.03,1.44-1.55,2.16c-1.32,1.79-2.36,3.92-4.02,5.31c-3.34,2.8-7.36,4.5-11.65,5.23c-2.21,0.37-4.53-0.02-6.79,0.1
			c-2.22,0.11-4.43,0.69-6.63,0.6c-2.97-0.12-5.59,0.15-7.41,2.85c-0.22,0.33-0.83,0.37-1.11,0.68c-0.43,0.47-0.9,1.01-1.08,1.6
			c-1.37,4.7-3.69,8.96-6.13,13.17c-3.18,5.49-7.65,9.17-14,10.36c-3.24,0.61-6.45,1.41-9.69,1.99c-2.18,0.4-4.27,1.87-6.63,0.7
			c-0.16-0.08-0.46,0-0.65,0.09c-3.71,1.65-7.8,2.38-11.21,4.82c-1.08,0.78-2.67,0.99-4.06,1.16c-1.56,0.19-3.17-0.02-4.76,0.05
			c-4.42,0.22-8.59-0.54-12.62-2.48c-1.49-0.72-3.19-1.58-5.07-0.36c-0.68,0.44-1.99,0.4-2.36-1.04c-0.11-0.44-0.51-0.77-1.29-0.53
			c-1.04,0.32-2.36,0.58-3.29,0.2c-1.67-0.69-3.32-0.34-4.97-0.52c-1.98-0.22-3.98-0.39-5.94-0.79c-1.17-0.24-2.25-0.88-3.38-1.3
			c-3.49-1.31-6.93-2.8-10.5-3.86c-3.79-1.12-7.58-2.52-11.67-2.25c-2.69,0.18-5.33-0.11-7.88-1.1c-0.4-0.16-0.87-0.26-1.3-0.23
			c-4.14,0.26-8.26-0.13-12.45,0.48c-4.84,0.7-9.43,2.18-14.15,3.24c-3.53,0.8-6.78,2.86-10.6,2.4c-0.2-0.02-0.42,0.1-0.63,0.17
			c-1.88,0.6-3.72,1.46-5.64,1.75c-2.19,0.32-3.58,1.86-5.34,2.81c-1.07,0.58-2.09,1.25-3.08,1.95c-1.72,1.23-3.27,2.74-5.11,3.72
			c-2.9,1.54-5.32,3.65-7.74,5.79c-1.85,1.63-3.71,3.26-5.59,4.86c-1.19,1.01-2.56,1.84-3.63,2.97c-3.28,3.47-6.48,6.89-8.47,11.47
			c-1.48,3.4-3.3,6.73-4.9,10.12c-2.07,4.39-4.07,8.88-3.79,13.95c0.02,0.44-0.01,0.91-0.13,1.33c-0.82,2.86-1.4,5.77-2.03,8.67
			c-1.1,5.02-1.86,10.03-1.88,15.16c0,1.93,0.09,3.86-0.02,5.78c-0.24,4.4-0.03,8.82,0.83,13.08c0.67,3.3,0.26,6.63,1.07,9.93
			c0.73,2.99-0.59,6.12-0.99,9.19c-0.42,3.2-2.08,5.55-4.36,7.67c-1.05,0.98-1.83,2.24-2.8,3.32c-1.06,1.18-2,2.69-3.33,3.35
			c-2.52,1.25-4.66,2.97-6.97,4.51c-1.91,1.27-4.05,2.21-6,3.44c-3.3,2.09-6.65,3.64-10.68,4.22c-4.57,0.66-6.12,1.46-7.25,5.95
			c-0.51,2.03-0.71,4.13-0.99,6.21c-0.07,0.54-0.02,1.14,0.14,1.66c0.66,2.09,1.22,4.24,2.12,6.23c2.95,6.5,4.26,13.4,5.18,20.41
			c0.23,1.76,0.3,3.57,0.81,5.24c1.35,4.4,1.33,8.99,1.75,13.48c0.34,3.63-0.31,7.36-0.57,11.05c-0.04,0.52-0.44,1.01-0.6,1.53
			c-1.25,4.04-2.04,8.16-2.08,12.4c-0.01,1.79,0.03,1.77,1.99,2.09c0.53,0.09,1.18,0.18,1.51,0.53c0.71,0.75,1.53,0.85,2.46,0.81
			c2.68-0.12,4.32,1.39,5.64,3.52c1.13,1.84,1.43,3.92,1.96,5.93c0.22,0.84-0.09,2.08,0.39,2.52c0.52,0.47,1.69,0.26,2.58,0.24
			c1.46-0.02,2.97,0.1,4.36-0.24c3.58-0.86,7.16-0.34,10.75-0.26c0.5,0.01,1,0.18,1.51,0.27c-0.35-0.42-0.71-0.84-1.04-1.27
			c-0.54-0.7-1-1.47-1.59-2.13c-3.2-3.55-4.6-8.07-6.48-12.3c-1.1-2.48-1.86-5.23-1.64-8.07c0.18-2.26-0.56-4.39-1-6.56
			c-0.46-2.25-1.16-4.46-1.68-6.7c-1-4.28-1.85-8.6-2.97-12.85c-0.61-2.32-0.98-4.78-2.45-6.81c-0.81-5.03-2.08-9.98-2.1-15.13
			c-0.01-4.54,2.27-7.67,5.64-10.38c1.29-1.04,3.06-1.01,4.1-2.05c2.17-2.16,4.96-2.87,7.65-3.83c2.37-0.85,4.79-1.66,7.25-2.13
			c4.06-0.79,7.82-2.08,11.37-4.28c3.47-2.15,6.87-4.42,10.63-6.14c4.53-2.08,8.98-4.38,12.78-7.75c2.33-2.08,4.83-3.97,7.23-5.97
			c1.46-1.22,3.13-2.29,4.28-3.76c2.28-2.92,4.56-5.81,7.15-8.47c0.91-0.93,1.68-2.11,2.17-3.31c2.82-6.84,5.77-13.62,9.21-20.17
			c1.49-2.84,2.7-5.79,3.42-8.91c0.27-1.19,0.16-2.46,0.44-3.65c0.89-3.62,1.88-7.2,3.22-10.71c1.08-2.82,2.64-5.19,4.9-7.04
			c3.63-2.98,7.81-5.04,12.35-6.23c2.86-0.75,5.75-0.49,8.52,0.59c0.29,0.11,0.73,0.53,0.68,0.68c-0.11,0.36-0.41,0.85-0.73,0.94
			c-5.08,1.49-9.13,4.92-13.78,7.23c-2.36,1.18-4.24,3.02-5.36,5.38c-0.98,2.07-1.57,4.33-2.29,6.51c-0.04,0.12,0.38,0.54,0.4,0.52
			c2.34-1.45,5.01-1.61,7.62-2.07c2.16-0.39,4.33-0.77,6.34-1.71c5.57,0.22,11.24-0.94,16.67,1.27c0.36,0.15,0.86-0.08,1.3-0.13
			c-0.15-0.38-0.24-0.79-0.45-1.13c-1.08-1.77-2.97-2.11-4.73-2.74c-1.75-0.62-3.46-1.35-5.16-2.11c-0.37-0.17-0.61-0.65-0.9-0.99
			c0.4-0.12,0.8-0.32,1.21-0.34c4.04-0.2,8.02,0.45,11.88,1.44c4.47,1.15,8.99,2.46,12.68,5.41c2.15,1.71,4.41,3.24,6.17,5.56
			c2.79,3.67,6.89,5.96,10.8,8.34c0.28,0.17,0.6,0.32,0.92,0.35c0.3,0.03,0.72-0.03,0.9-0.22c0.16-0.17,0.18-0.71,0.04-0.87
			c-1.2-1.28-2.02-2.79-3.54-3.93c-2.38-1.79-4.94-3.73-6.11-6.65c-0.63-1.57-1.48-2.94-2.41-4.29c-1.58-2.28-3.37-4.42-4.34-7.07
			c-0.07-0.21,0.05-0.48,0.08-0.73c0.21,0.04,0.47,0.01,0.63,0.13c2.82,1.98,5.52,4.13,8.46,5.91c2.57,1.55,4.46,3.58,6.12,6.03
			c1.28,1.89,2.42,3.87,4.52,5.24c3.91,2.54,7.56,5.49,11.3,8.3c1.98,1.49,4.22,2.38,6.6,2.86c0.83,0.17,1.75-0.09,2.62-0.22
			c0.17-0.02,0.43-0.31,0.43-0.48c0-0.19-0.21-0.46-0.4-0.54c-3.61-1.61-6.43-4.36-9.59-6.62c-0.89-0.64-1.89-1.25-2.53-2.11
			c-1.29-1.72-2.75-3.17-4.51-4.44c-1.13-0.82-1.87-2.18-2.79-3.3c-1.08-1.31-0.88-2.94-1.14-4.46c-0.08-0.48-0.08-0.98-0.12-1.47
			c0.5,0.17,1.04,0.26,1.49,0.52c3.15,1.81,6.29,3.64,9.42,5.5c0.76,0.45,1.55,0.93,2.14,1.56c5.59,6.03,12.49,9.69,20.49,11.32
			c1.61,0.33,3.25,0.47,4.88,0.7c-0.2-0.22-0.38-0.48-0.62-0.62c-3.58-2.04-7.23-3.99-9.49-7.69c-0.4-0.66-1.04-1.24-1.7-1.65
			c-2.11-1.31-3.18-3.29-3.84-5.57c-0.27-0.95-0.45-1.92-0.62-2.89c-0.01-0.08,0.45-0.39,0.57-0.33c0.6,0.29,1.19,0.61,1.71,1.02
			c3.7,2.9,7.84,5.06,12.16,6.78c4.21,1.67,8.47,3.13,12.13,5.91c0.59,0.45,1.34,0.72,2.06,0.96c3.96,1.31,8.04,0.5,12.07,0.7
			c0.2,0.01,0.41-0.13,0.61-0.21c-0.07-0.18-0.11-0.4-0.23-0.52c-1.14-1.1-2.18-2.35-3.46-3.25c-3.82-2.71-6.85-6.13-8.99-10.25
			c-0.95-1.83-1.42-3.91-2.09-5.89c-0.06-0.18,0.07-0.43,0.12-0.64c0.27,0.05,0.56,0.06,0.79,0.17c0.38,0.19,0.86,0.37,1.06,0.7
			c1.55,2.61,4.26,3.86,6.49,5.67c3.67,2.96,8.02,4.69,12.17,6.79c1.85,0.94,3.73,1.39,5.78,1.31c0.79-0.03,1.76-0.27,2.35,0.09
			c1.62,0.97,3.32,0.37,4.97,0.6c1.64,0.22,3.29,0.53,4.94,0.62c2.04,0.12,4.09-0.04,6.12,0.08c3.67,0.23,7.06-0.81,10.38-2.14
			c0.25-0.1,0.53-0.74,0.43-0.99c-1.55-3.87-2.32-8.08-5.06-11.45c-0.61-0.75-0.9-1.78-1.35-2.66c-0.41-0.81-0.27-1.48,0.37-2.12
			c0.67-0.67,1.17-0.26,1.77,0.11c0.85,0.52,1.85,0.82,2.61,1.43c3.84,3.07,6.58,7.04,8.57,11.46c1.39,3.1,2.21,6.45,3.57,9.56
			c0.87,1.98,1.91,4.04,4.22,4.93c4.3,1.64,8.78,1.51,13.26,1.31c0.41-0.02,0.78-0.42,1.2-0.54c4.87-1.47,9.69-2.94,14.92-2.97
			c2.39-0.01,4.87-0.4,7.31-0.6c1.39-0.12,2.87-0.47,4.1-1.12c3.54-1.86,7.32-3,11.1-4.18c5.78-1.8,11.71-2.97,17.63-4.18
			c2.26-0.46,4.58-0.75,6.77-1.46c2.56-0.83,5.03-0.89,7.51,0c2.89,1.03,5.76,2.15,8.61,3.28c0.47,0.19,0.92,0.55,1.26,0.94
			c0.26,0.3,0.33,0.76,0.49,1.14c-0.32,0.09-0.63,0.21-0.95,0.28c-0.72,0.15-1.45,0.28-2.17,0.42c0.43,0.63,0.88,1.24,1.3,1.88
			c0.42,0.65,0.83,1.31,1.21,1.99c0.49,0.87,0.82,1.85,1.42,2.62c2.74,3.52,5.61,6.95,8.32,10.5c1.8,2.37,3.76,4.68,4.4,7.73
			c0.22,1.07,0.71,2.08,0.95,3.14c0.84,3.75,2.36,7.29,2.94,11.16c0.45,3.02,1.68,6.12,5.72,6.3c0.49,0.02,1.04,0.44,1.44,0.8
			c1.22,1.1,2.42,2.23,3.57,3.41c2.52,2.58,4.26,5.36,2.81,9.23c-0.55,1.47,0.01,1.97,1.6,2.02c0.9,0.03,2-0.27,2.66,0.14
			c1.32,0.81,2.64,0.37,3.96,0.51c0.89,0.1,1.21-0.31,1.15-1.17C555.51,315.3,555.58,312.42,555.24,309.5z M551.86,123.23
			c-0.01,3.14,0.22,6.39,1.12,9.51c0.24,0.84,0,1.81,0.11,2.7c0.14,1.08,0.56,2.14,0.62,3.22c0.1,1.77,1.76,0.94,2.58,1.6
			c0.97,0.79,1.86,1.47,2.42,2.62c0.83,1.69,1.64,3.39,3.14,4.67c0.52,0.44,0.66,1.32,0.73,1.46c0.04,1.92-0.31,2.97-1.51,3.7
			c-0.65,0.4-1.21,1-1.71,1.59c-1.34,1.58-2.79,1.56-3.86-0.29c-0.75-1.31-1.46-2.76-1.7-4.23c-0.2-1.26-0.76-2.29-1.18-3.42
			c-0.38-1.02-0.98-2.11-0.89-3.12c0.18-2.03-0.52-3.67-1.53-5.29c-0.28-0.45-0.53-1.01-0.55-1.53c-0.05-1.89-0.48-3.76-0.57-5.61
			c-0.2-4-0.59-7.95-1.45-11.87c-0.17-0.76-0.06-1.58-0.03-2.37c0.01-0.2,0.18-0.39,0.28-0.58c0.18,0.12,0.36,0.25,0.55,0.36
			C551.2,117.84,551.86,120.11,551.86,123.23z M540.17,81c0.13-0.83,0.5-1.69,1-2.38c0.36-0.5,2.55-0.24,3.15,0.33
			c1.31,1.24,2.77,2.41,3.75,3.89c0.74,1.12,0.82,2.68,1.01,3.36c-0.25,3.41-0.58,6.04-1.69,8.47c-0.32,0.7-1.1,0.97-1.46,0.06
			c-0.37-0.95-1.07-1.38-1.87-1.72c-1.53-0.64-2.47-1.49-2.13-3.4c0.16-0.91-0.44-1.92-0.45-2.89c-0.01-1.36-0.1-2.64-0.77-3.86
			C540.38,82.29,540.08,81.58,540.17,81z M532.69,138.08c0.52-2.3,1.68-3.17,4.78-3.11c0.62,0.16,1.83,0.36,2.94,0.78
			c0.74,0.29,1.28,0.97,1.04,1.89c-0.21,0.82-0.73,1.37-1.65,1.37c-1.24,0.01-2.48-0.04-3.71,0.03c-1.82,0.1-2.19,0.66-1.87,2.58
			c0.04,0.25,0.02,0.51,0.03,0.77c-0.3-0.08-0.65-0.09-0.9-0.25c-0.27-0.18-0.69-0.62-0.63-0.73
			C533.29,140.28,532.44,139.18,532.69,138.08z M517.58,92.1c0.05-1.06,0.61-1.65,1.28-2.24c0.8-0.7,2.08-0.87,2.35-2.21
			c0.04-0.18,0.8-0.37,1.18-0.3c0.52,0.09,1.02,0.4,1.5,0.67c1.34,0.76,1.48,1.08,0.92,2.7c-1.37,3.92-2.83,7.82-4.18,11.75
			c-1.08,3.16-1.93,6.37-1.55,9.77c0.17,1.53,0.44,3.05,0.62,4.58c0.03,0.3-0.15,0.63-0.23,0.94c-0.33-0.26-0.8-0.46-0.96-0.8
			c-0.97-2.13-1.41-4.4-1.51-6.72c-0.09-2.03-0.02-4.07-0.02-6.1c-0.07-0.01-0.15-0.01-0.22-0.02
			C517.03,100.12,517.37,96.11,517.58,92.1z M134.43,325.52c-0.57,0.53-1.27,0.95-1.78,1.53c-0.81,0.93-1.75,1.26-2.96,1.27
			c-0.85,0.01-1.7,0.36-2.55,0.57c-1.19,0.31-1.62,1.14-1.44,2.29c0.39,2.54-0.47,4.82-1.4,7.09c-0.12,0.28-0.37,0.76-0.49,0.74
			c-0.4-0.07-1-0.24-1.1-0.52c-0.76-2.04-1.42-4.11-1.99-5.81c0.47-2.6,0.81-4.69,3.49-5.2c0.49-0.09,0.98-0.53,1.34-0.92
			c0.74-0.81,1.59-1.05,2.68-1.14c1.18-0.1,2.32-0.61,3.49-0.89c0.74-0.18,1.5-0.36,2.26-0.4c0.37-0.02,0.76,0.29,1.14,0.45
			C134.9,324.9,134.71,325.26,134.43,325.52z M213.35,178.97c0.98-0.66,2.05-1.18,3.12-1.71c0.62-0.3,2.19,0.9,2.39,1.89
			c0.13,0.65,0.02,1.34,0.02,2.01c0.02,0,0.04,0,0.06,0c-0.03,0.56,0.06,1.16-0.1,1.67c-0.42,1.29-2.65,2.7-3.66,2.41
			c-2.05-0.6-3.25-2.25-3.18-4.1C212.04,180.09,212.63,179.46,213.35,178.97z M169.15,234.41c-1.7,3.44-2.1,7.14-2.7,10.84
			c-0.66,4.02-0.37,8.06-0.75,12.06c-0.17,1.78-0.1,3.77-1.21,5.41c-0.16,0.23-0.3,0.47-0.45,0.71c-0.24-0.23-0.64-0.43-0.7-0.7
			c-0.36-1.61-0.83-3.22-0.91-4.85c-0.15-2.82-0.04-5.66-0.04-8.49c0-2.27,0.02-4.53,0-6.8c-0.02-2.68,0.62-5.26,1.15-7.86
			c0.38-1.84,0.66-3.7,0.86-5.57c0.74-6.9,3.07-13.06,7.96-18.18c1.76-1.84,3.14-4.03,4.71-6.06c0.82-1.06,1.55-2.2,2.51-3.12
			c4.22-4.07,8.47-8.1,12.79-12.07c2.22-2.05,4.91-3.38,7.78-4.3c0.52-0.17,1.12-0.2,1.66-0.13c0.87,0.12,1.52,0.69,1.42,1.57
			c-0.06,0.58-0.46,1.42-0.92,1.61c-5,1.98-8.82,5.54-12.52,9.25c-2.56,2.56-5.12,5.13-7.65,7.73c-0.53,0.54-1.21,1.2-1.29,1.87
			c-0.55,4.64-3.14,8.44-5.07,12.49c-0.81,1.69-1.99,3.21-3.12,4.72c-1.16,1.55-1.45,3.41-2.02,5.17
			C170.12,231.28,169.87,232.96,169.15,234.41z M171.43,314.87c0.16-0.08,0.32-0.15,0.48-0.23c-0.07,0.16-0.15,0.32-0.22,0.48
			C171.6,315.03,171.51,314.95,171.43,314.87z M247.22,209.74c-2.98,1.57-5.21,3.86-7.52,6.14c-2.34,2.31-4.67,4.62-6.96,6.99
			c-0.69,0.71-1.36,1.52-1.77,2.4c-2.73,5.88-5.53,11.74-6.65,18.22c-0.83,4.77-2.16,9.43-2.8,14.25c-0.36,2.68-1.19,5.34-2.6,7.78
			c-2.15,3.73-4.09,7.59-6.25,11.32c-2.38,4.12-5.08,8.06-7.32,12.26c-2.17,4.07-5.54,7.22-7.91,11.11
			c-1.05,1.72-2.89,2.74-4.73,3.62c-1.8,0.86-3.61,1.71-5.34,2.69c-3.47,1.96-6.88,4.02-10.32,6.03c-1.6,0.94-3.07,2.21-5.12,2.05
			c1.38-1.86,2.73-3.72,3.55-5.92c0.84-2.23,3.02-3.29,4.73-4.58c5.79-4.37,9.24-10.04,10.72-17.05c0.2-0.96,0.37-2.04,0.91-2.79
			c3.57-4.92,5.07-10.73,7.15-16.29c0.07-4.37,1.75-8.38,2.77-12.53c0.68-2.75,1.13-13.49,0.69-16.48c-0.4-2.71-1.11-5.38-1.61-8.08
			c-0.22-1.19-0.54-2.49-0.3-3.63c1.15-5.38,2.51-10.66,5.57-15.42c1.41-2.2,2.89-4.24,4.78-6.01c0.27-0.26,0.67-0.38,1-0.57
			c0.06,0.43,0.24,0.89,0.16,1.3c-0.4,1.93-1,3.83-1.28,5.78c-0.49,3.4,0.3,6.65,1.67,9.74c0.89,2.02,1.98,3.96,3.01,5.92
			c0.25,0.49,0.53,0.98,0.9,1.38c1.03,1.12,1.81,1.24,2.85,0.13c1.76-1.88,3.43-3.86,5.03-5.87c1.78-2.25,3.39-4.57,5.74-6.4
			c2.66-2.08,4.86-4.74,7.31-7.09c2.18-2.08,4.6-3.81,7.5-4.78c0.31-0.1,0.63-0.32,0.93-0.29c1.71,0.17,3.52-0.61,5.11,0.58
			C249.65,207.05,248.73,208.95,247.22,209.74z M408.05,208.29c-0.04,1.31-0.37,2.61-0.63,3.9c-0.07,0.36-0.4,0.66-0.61,0.99
			c-0.26-0.28-0.67-0.51-0.76-0.84c-0.72-2.64-1.28-5.33-2.1-7.94c-1.08-3.45-1.57-7.05-3.05-10.4c-1.27-2.87-2.76-5.56-5.13-7.65
			c-1.03-0.91-1.51-1.88-1.33-3.24c0.1-0.78,0-1.58,0.03-2.37c0.04-0.89,0.12-1.78,0.18-2.66c0.66,0.51,1.34,1,1.98,1.52
			c2.16,1.77,4.54,3.04,7.29,3.73c1.49,0.38,3.42,0.54,3.81,2.65c0.14,0.75,0.33,1.52,0.33,2.27c0.04,3.51,0.02,7.02,0.02,10.52
			h0.01C408.08,201.95,408.14,205.13,408.05,208.29z M444.22,127.51c0.25-0.6,0.97-1.15,1.61-1.4c0.91-0.37,1.04,0.54,1.25,1.14
			c1.14,3.17,2.29,6.34,3.39,9.52c0.37,1.07-0.45,1.99-1.49,1.57c-0.99-0.4-2.09-0.96-2.7-1.78c-1.45-1.95-2.8-4.04-2.13-6.53
			C444.16,129.06,443.95,128.19,444.22,127.51z M429.18,217.9c0.44-4.2,1.47-8.56,3.37-12.69c0.64-1.38,0.98-2.83,2.09-4.08
			c2.07-2.31,4.61-2.87,7.46-2.96c0.92-0.03,1.72,0.3,1.88,1.07c0.17,0.78,0.06,1.83-0.36,2.48c-0.67,1.02-1.69,1.8-2.57,2.68
			c-1.35,1.34-2.53,2.68-3.12,4.64c-0.49,1.63-1.67,3.1-2.74,4.49c-1.5,1.95-3.17,3.76-4.8,5.61c-0.26,0.29-0.66,0.46-1,0.69
			c-0.07-0.43-0.15-0.86-0.21-1.29C429.17,218.44,429.18,218.32,429.18,217.9z M463.86,251.33c-1.41,0.25-2.82,0.58-4.24,0.69
			c-3.9,0.3-7.84,0.31-11.71,0.82c-1.53,0.2-3.08,0.37-4.6,0.62c-1.04,0.17-1.97,0.9-2.97,1.33c-2.62,1.13-5.23,2.28-7.89,3.3
			c-0.69,0.26-1.57,0.04-2.17,0.04c-4.24,0.71-6.83-3.05-7.9-6.02c-0.11-0.31,0.09-0.83-0.09-0.99c-2.17-1.9-1.91-4.25-1.33-6.69
			c0.19-0.82,0.29-1.66,0.44-2.49c0.34,0.69,0.63,1.4,1.02,2.07c1.12,1.92,2.11,3.97,4.56,4.61c0.34,0.09,0.63,0.5,0.86,0.82
			c2.15,2.97,4.84,4.16,8.44,2.74c0.6-0.24,1.33-0.25,1.99-0.18c3.34,0.36,6.36-0.75,9.29-2.1c1.07-0.5,2.1-0.73,3.23-0.66
			c3.8,0.24,7.59,0.46,11.39,0.76c0.63,0.05,1.25,0.41,1.86,0.65c0.16,0.07,0.28,0.25,0.42,0.38
			C464.25,251.13,464.07,251.29,463.86,251.33z"/>
		<path class="st1" d="M340.67,265.61c-0.02,0-0.03,0-0.05-0.01c0.01,0.01,0.02,0.02,0.03,0.03L340.67,265.61z"/>
		<path class="st1" d="M388.37,266.98c-2.09-0.14-3.62,1.05-5.2,2.17c-0.7,0.5-1.49,1.12-2.29,1.19c-2.16,0.21-3.99,1.11-5.91,1.99
			c-3.8,1.73-7.65,3.39-11.61,4.72c-2.29,0.77-4.92-0.29-7.28,0.78c-0.24,0.11-0.63-0.12-0.95-0.18c-0.87-0.15-1.74-0.39-2.61-0.41
			c-2.57-0.05-5.09,0.03-7.67,0.51c-2.52,0.47-5.19,0.1-7.8,0.1c0,0.01,0,0.01,0,0.02c-2.61,0-5.21,0-7.82,0.01
			c-0.21,0-0.41,0.12-0.62,0.19c0.14,0.25,0.23,0.58,0.44,0.75c2.39,1.93,5.4,1.99,8.18,2.31c3.88,0.45,7.81,0.18,11.73,0.71
			c4.34,0.58,8.6-0.49,12.73-1.92c1.45-0.5,2.9-1.15,4.4-1.35c7.29-0.94,13.72-3.91,19.71-8.01c1.09-0.75,2.29-1.35,3.34-2.16
			c0.35-0.27,0.6-1.06,0.47-1.48C389.28,265.91,388.81,267,388.37,266.98z"/>
		<path class="st1" d="M597.64,301.14c-0.35-1.26-0.74-2.52-1.08-3.79c-1.01-3.78-1.71-7.59-1.41-11.54
			c0.06-0.86-0.19-1.75-0.4-2.61c-1.21-5.12-3.88-9.34-7.6-13.05c-3.75-3.73-7.82-7.18-10.9-11.55c-1.91-2.71-4.14-5.22-4.94-8.57
			c-0.07-0.31-0.28-0.6-0.47-0.87c-2.78-4.01-4.4-8.58-6.34-12.99c-1.46-3.33-2.88-6.68-4.35-10c-0.9-2.03-2.64-3.32-4.25-4.72
			c-1.94,0.33-3.28-1.12-4.91-1.63c-2.18-0.68-4.55-0.79-6.85-1.05c-0.37-0.04-0.77,0.44-1.18,0.56c-4.15,1.23-8.34,2.4-12.72,2.05
			c-2.56-0.21-4.77,0.84-7.12,1.4c-0.21,0.05-0.4,0.17-0.59,0.26c0.13,0.13,0.24,0.3,0.4,0.37c1.84,0.78,3.41,2.08,5.77,1.5
			c1.51-0.37,3.25-0.03,4.95,0.31c2.47,0.49,5.08,0.32,7.43,1.54c0.36,0.19,0.89,0.03,1.35,0.04c1.13,0.01,2.27,0,3.4,0.03
			c1.44,0.04,2.55,0.63,2.34,1.3c-0.34,1.08-1.43,1.32-2.38,1.4c-3.45,0.31-6.91,0.52-10.37,0.73c-1.13,0.07-2.27,0.02-3.4,0.04
			c-0.21,0-0.42,0.12-0.63,0.18c0.08,0.18,0.13,0.39,0.26,0.52c0.56,0.56,1.06,1.38,1.73,1.57c0.57,0.16,1.33-0.57,2.03-0.66
			c1.07-0.12,2.19-0.19,3.23,0.01c2.59,0.48,5.13,1.49,7.72,1.61c3.95,0.18,7.22,1.49,10.02,4.19c-1.3,0.23-2.59,0.5-3.89,0.69
			c-0.75,0.11-0.98,0.46-0.66,1.11c1.37,2.76,2.68,5.55,4.17,8.25c0.85,1.55,1.78,3.16,3.05,4.34c2.29,2.13,4.29,4.48,6.09,6.99
			c3.6,5.01,6.33,10.41,6.23,16.8c-0.02,1.44,0.29,2.79,1.42,3.6c1.31,0.94,2.59,2.12,4.5,1.8c1.34-0.23,2.74-0.01,3.56,1.26
			c1.26,1.95,2.38,3.99,3.61,5.95c0.67,1.06,0.84,2.06,0.07,3.12c-0.99,1.36-0.9,2.94-0.93,4.51c-0.02,0.98-0.19,1.98-0.42,2.94
			c-0.76,3.14,2.33,6.75,5.59,6.77c1.35,0.01,1.9-1.27,2.95-1.33c1.18-0.06,2.42,0.61,3.56,0.46
			C597.52,304.68,598.24,303.3,597.64,301.14z M556.64,238.22c-0.08-0.16-0.15-0.33-0.23-0.49c0.16,0.08,0.33,0.16,0.49,0.24
			C556.82,238.05,556.73,238.13,556.64,238.22z"/>
		<path class="st1" d="M269.26,285.11c-0.37-0.38-0.52-0.97-0.85-1.4c-0.42-0.53-0.86-1.08-1.4-1.47c-2.07-1.48-4.31-2.77-6.26-4.4
			c-1.5-1.25-3.54,0.58-4.79-1.16c-0.12,0.15-0.29,0.28-0.36,0.45c-0.25,0.61-0.45,1.24-0.69,1.85c-1.32,3.38-2.62,6.78-4.77,9.74
			c-2.22,3.06-4.54,6.04-6.86,9.02c-0.11,0.14-0.74,0.08-0.94-0.1c-0.69-0.65-0.47-1.34-0.08-2.13c1.07-2.18,2.48-4.31,2.95-6.63
			c0.53-2.61,1.25-5.13,2.25-7.55c1.14-2.76,0.67-5.19-0.74-7.63c-0.82-1.43-2.11-1.86-3.63-1.96c-1.25-0.08-2.24,0.12-2.54,1.59
			c-0.06,0.29-0.37,0.69-0.63,0.76c-1.52,0.37-1.38,1.5-1.33,2.64c0.03,0.68,0.1,1.4-0.07,2.03c-1.08,4.02-2.22,8.03-3.37,12.04
			c-0.27,0.94-0.56,1.93-1.09,2.75c-2.65,4.09-5.36,8.15-8.09,12.18c-0.81,1.2-1.7,2.37-2.72,3.4c-1.58,1.6-3.1,3.16-3.78,5.41
			c-0.18,0.59-1.06,1.39-1.59,1.37c-1.36-0.06-1.99,0.82-2.86,1.51c-1.66,1.31-3.3,2.68-5.13,3.71c-4.17,2.35-7.94,5.28-11.92,7.9
			c-2.27,1.5-4.07,3.86-7.11,4.03c-0.21,0.01-0.54,0.43-0.56,0.68c-0.12,1.96-1.76,2.45-3.08,3.2c-2.42,1.38-3.79,3.59-2.98,6.05
			c0.61,1.88,1.13,3.77,1.67,5.66c0.48,1.68,1.28,3.33,3.25,3.96c0.44,0.14,0.77,0.65,1.13,1.02c0.55,0.56,0.98,1.38,1.64,1.67
			c2.83,1.23,4.93,3.4,7.32,5.22c3.55,2.7,6.38,5.95,8.78,9.6c2.74,4.16,5.3,8.45,7.84,12.74c1.12,1.89,2.08,3.88,2.92,5.91
			c0.63,1.51,0.62,3.36,1.47,4.68c1.12,1.73,1.51,3.44,1.26,5.36c-0.21,1.55,0.52,2.58,1.6,3.49c1.05,0.89,2.18,1.51,3.62,1.46
			c1.47-0.05,2.95-0.04,4.42,0.02c0.65,0.02,1.34,0.12,1.93,0.37c1.1,0.47,2.1,1.31,3.23,1.57c2.42,0.56,3.73,1.84,3.61,4.38
			c-0.04,0.94,0.47,1.54,1.26,1.79c2.05,0.65,5.35-0.27,6.45-1.93c1.38-2.07,1.73-4.37,0.45-6.62c-1.31-2.31-2.7-4.58-4.2-6.77
			c-2.51-3.66-5.18-7.19-7.42-11.04c-2.57-4.42-5.23-8.81-9.07-12.35c-1.21-1.12-2.09-2.6-3.1-3.94c-1.52-2.03-2.78-4.2-5.06-5.64
			c-1.97-1.24-3.66-2.95-5.36-4.58c-0.95-0.92-1.57-2.18-2.5-3.12c-2-2.04-2.7-4.52-2.83-7.69c-0.51-1.32,0.52-2.25,1.82-3.06
			c0.92-0.58,1.83-1.19,2.74-1.79c2.11,1.52,3.25-0.16,4.59-1.34c0.4-0.35,0.95-0.6,1.48-0.75c3.56-0.99,6.69-2.93,9.89-4.66
			c3.21-1.74,6.88-2.33,9.93-4.43c3.71-2.55,7.15-5.29,9.88-8.95c1.73-2.32,3.83-4.41,6.44-5.9c2.57-1.46,4.95-3.19,6.53-5.83
			c0.97-1.62,2.09-3.15,3.22-4.65c3.26-4.32,5.02-9.26,6.15-14.49c0.3-1.39,1.46-2.9,1.12-4.02
			C271.97,287.06,270.31,286.21,269.26,285.11z M207.76,359.28c-0.26,0.12-0.69,0.23-0.88,0.1c-3.09-2.12-6.2-4.23-9.21-6.46
			c-1.91-1.41-3.16-3.41-4.23-5.5c-0.24-0.47-0.4-1.03-0.43-1.56c-0.08-1.38,0.62-2.02,2.55-1.95c1.65,0.24,3.27,1.43,4.17,3.29
			c0.8,1.67,2.01,2.9,3.21,4.22c1.5,1.65,2.92,3.37,4.27,5.15c0.44,0.58,0.56,1.4,0.77,2.13
			C208.02,358.88,207.9,359.22,207.76,359.28z M234.71,312.07c-1.96,4.42-4.83,8.14-8.33,11.48c-1.36,1.3-3.09,2.51-3.53,4.64
			c-0.08,0.39-0.71,0.78-1.17,0.95c-4.02,1.47-7.96,3.13-11.84,4.95c-0.83,0.39-1.97,0.28-2.93,0.14c-0.93-0.14-1.25-1.45-0.49-2.07
			c3.33-2.72,6.12-6.09,10.33-7.74c1.81-0.71,3.46-1.73,5.47-2c2.13-0.28,3.42-1.74,4.41-3.64c1.34-2.54,2.89-4.96,4.43-7.39
			c0.59-0.93,1.34-1.77,2.13-2.54c0.46-0.44,1.14-0.65,1.71-0.97c0.13,0.64,0.26,1.28,0.42,2.11
			C235.15,310.61,235.02,311.38,234.71,312.07z"/>
	</g>
</g>
</svg>
