<?xml version="1.0" encoding="utf-8"?>
<!-- Generator: Adobe Illustrator 23.0.4, SVG Export Plug-In . SVG Version: 6.00 Build 0)  -->
<svg version="1.1" id="Layer_1" xmlns="http://www.w3.org/2000/svg" xmlns:xlink="http://www.w3.org/1999/xlink" x="0px" y="0px"
	 viewBox="0 0 1360 1025" style="enable-background:new 0 0 1360 1025;" xml:space="preserve">
<style type="text/css">
	.st0{fill:#CDB271;}
	.st1{fill:#FDF6EA;}
</style>
<g>
	<g>
		<path class="st0" d="M240.51,448.92c-1.2,6.07,1.22,11.27,3.64,16.22c2.58,5.27,3.51,10.62,3.15,16.35
			c-0.32,5.1-3.76,8.91-8.86,8.9c-5.35,0-10.63,0.78-16.05,0.29c-10.41-0.93-17.68-6.16-22.86-14.82
			c-2.88-4.81-5.34-9.89-8.42-14.56c-3.14-4.76-7.57-8.28-12.59-11c-0.59-0.32-1.32-0.4-2.64-0.79c1.04,3.33,1.93,6.02,2.72,8.73
			c2.61,8.95-3.33,16.93-12.5,17.26c-5.23,0.19-9.46-1.59-13.17-5.05c-5.38-5.02-9.56-10.73-10.18-18.35
			c-0.15-1.85,0.21-3.74,0.37-5.61c1.01-11.6,0.18-22.85-6.12-33.12c-1.2-1.96-2.01-4.15-3.06-6.21c-0.15-0.29-0.61-0.42-1.26-0.84
			c-1.65,1.68-1.9,3.92-2.36,6.09c-1.14,5.31-3.36,10.13-8.57,12.39c-3.27,1.42-6.97,2.25-10.54,2.51
			c-10.51,0.77-19.81-2.75-28.03-9.12c-7.09-5.49-13.46-11.74-19.01-18.81c-2.51-3.2-4.97-6.44-7.64-9.5
			c-4.57-5.26-6.72-11.71-9.25-17.99c-0.71-1.76-1.62-3.51-2.77-5.01c-2.36-3.07-5.02-5.91-7.39-8.97c-0.78-1-1.36-2.37-1.49-3.63
			c-0.24-2.29-0.07-4.61-0.07-7.45c1.59,0.75,2.78,1.01,3.56,1.72c8.44,7.78,18.26,13.71,27.31,20.65
			c3.83,2.94,7.46,6.38,10.44,10.17c7.33,9.31,17.52,12.34,28.49,13.83c4.16,0.57,6.76-1.21,7.33-4.83
			c1.68-10.82-0.21-21.01-5.9-30.39c-1.7-2.81-3.86-5.33-5.72-8.05c-0.5-0.73-0.66-1.68-0.97-2.51c2.01-1.42,3.58-0.81,5.11,0.2
			c9.02,5.98,18.16,11.8,27,18.03c4.74,3.34,9.09,7.26,13.4,11.16c5.07,4.6,8.78,9.88,10.91,16.77c2.38,7.67,5.34,15.32,9.52,22.35
			c2.59,4.35,6.24,7.29,10.82,9.25c2.32,0.99,4.6,2.06,6.88,3.13c4.56,2.15,7.74,5.84,10.37,9.92c4.15,6.45,9.44,11.83,15.03,16.98
			c0.14,0.13,0.28,0.28,0.43,0.4c7.11,5.66,9.84,3.37,12.82-3.07c4.29-9.26,3.45-18.28-2.76-26.26c-3.17-4.08-7.5-7.29-11.44-10.74
			c-2.77-2.42-5.68-4.7-8.69-6.82c-1.42-1-1.63-2.13-1.16-3.48c0.62-1.77,2.2-1.41,3.46-1.07c12.3,3.25,24.51,6.81,35.92,12.58
			c11.82,5.99,21.63,14.32,29.19,25.26c1.87,2.71,3.8,5.38,5.81,7.99c1.46,1.9,3.42,3,5.82,3.57c3.27,0.78,5.81,0.17,7.25-2.86
			c2.93-6.21,4.73-12.48,2.43-19.58c-4.84-14.91-12.79-27.71-24.53-38.05c-2.88-2.54-6.18-4.67-9.52-6.59
			c-9.91-5.71-17.98-13.34-25.24-22.14c-7.12-8.63-12.13-18.44-17.38-28.15c-0.26-0.47-0.27-1.08-0.4-1.68
			c1.89-1.28,3.76-1.06,5.56-0.17c1.9,0.95,3.87,1.86,5.55,3.14c5.55,4.21,10.94,8.62,16.46,12.87c8.43,6.49,16.64,13.45,27.08,16.5
			c3.24,0.95,7.07,1.34,10.3,0.57c10.55-2.5,20.03,0.13,28.94,5.3c8.43,4.89,15.64,11.47,22.33,18.5c4.39,4.62,8.06,9.92,12.19,14.8
			c5.89,6.94,13.55,10.68,22.49,11.97c2.09,0.3,4.22,0.98,6.28,0.79c2.4-0.21,4.73-1.18,7.12-1.82c1.02-5.86,1.22-11.4,0.23-16.66
			c-0.63-3.36-3.24-6.5-5.42-9.39c-1.98-2.62-4.64-4.71-6.9-7.14c-1.3-1.4-2.39-3-3.52-4.46c2.99-3.72,2.9-3.51,6.48-2.03
			c6.73,2.8,13.55,5.38,20.36,7.97c7.1,2.7,13.6,6.49,19.48,11.22c2.36,1.9,4.2,4.58,5.88,7.16c2.32,3.56,5.25,6.14,9.18,7.73
			c4.05,1.65,7.54,0.87,10.78-1.91c1.97-1.69,2.84-3.83,2.17-6.26c-0.86-3.16-2.06-6.24-3.19-9.32c-0.26-0.7-0.74-1.39-1.28-1.91
			c-7.12-6.9-14.22-13.81-21.44-20.6c-2.68-2.52-5.54-4.86-8.52-7.01c-4.07-2.94-8.4-5.51-12.47-8.45
			c-4.98-3.61-8.35-8.66-11.17-13.98c-4.12-7.77-5.91-16.37-7.1-24.93c-1.29-9.37-4.78-17.92-7.93-26.65
			c-1.54-4.27-3.96-7.99-7.39-11.04c-1.54-1.37-2.92-2.93-4.7-4.74c7.52-1.34,13.6,0.7,19.41,4.05c6.75,3.89,12.77,8.72,18.37,14.13
			c8.24,7.96,17.71,13.86,29.11,15.9c4.55,0.81,9.3,0.48,13.95,0.68c15.84,0.68,30.57,4.46,42.87,15.18
			c4.09,3.57,8.34,6.95,12.42,10.52c4.76,4.16,10.27,6.59,16.24,8.64c4.2,1.44,8.24,1.82,12.51,1.99c2.72,0.11,4.82-0.84,6.96-2.33
			c4.93-3.43,6.51-8.54,7-14.05c0.28-3.15-2.01-5.38-4.19-7.36c-4.79-4.35-10.41-7.45-16.28-10.03c-4.37-1.93-9.05-3.18-13.4-5.15
			c-9.33-4.25-17.37-10.15-23.19-18.82c-3.81-5.67-6.73-11.77-9.66-17.92c-2.52-5.28-2.11-10.84-3.28-17.28
			c1.34,1,2.08,1.27,2.31,1.77c3.37,7.36,9.92,9.76,17.13,10.09c9.69,0.44,19.42,0.96,29.1-0.71c6.26-1.08,12.6-2.06,18.93-2.3
			c4.97-0.19,10.02,0.58,14.97,1.34c4.93,0.76,9.81,1.95,14.67,3.13c7.35,1.78,14.35,4.16,20.4,9.15
			c6.89,5.68,14.95,8.81,24.11,8.51c4.67-0.15,9.36-0.24,14.03-0.06c4.21,0.16,7.04-1.91,9.11-5.16c3.41-5.35,3.29-16.03-1.97-19.75
			c-1.99-1.4-4.36-2.73-6.71-3.08c-15.02-2.25-27.09-9.88-37.52-20.37c-5.48-5.52-9.67-12.08-12.7-19.3
			c-2.02-4.82-4.08-9.62-5.93-14.51c-1.16-3.05-1-3.11,0.88-6.37c5.05,1.84,10.09,3.72,15.17,5.51c3.45,1.22,6.93,2.34,10.41,3.44
			c10.45,3.3,20.86,2.58,31.54,0.71c6.8-1.19,14.16-1.54,20.89-0.28c8.93,1.68,17.28,5.79,23.94,12.38
			c5.57,5.5,12.4,8.26,19.69,10.69c5.24,1.75,10.62,2.32,15.9,2.86c3.9,0.4,8.48-0.18,11.85-3.48c4.11-4.03,4.88-10.56,0.26-14.93
			c-2.21-2.09-4.96-3.69-7.65-5.17c-4.22-2.33-8.6-4.38-12.91-6.54c-11.22-5.64-19.31-13.96-23.41-26.12
			c-2.09-6.19-4.42-12.31-8.53-17.7c-4.36-5.71-9.69-9.91-15.88-13.25c-2.37-1.28-4.87-2.34-7.16-3.76
			c-1.22-0.75-2.1-2.05-3.74-3.71c5.56-1.25,10.27-1.35,14.91-0.06c17.13,4.78,33.54,11.6,50.1,18c5.35,2.07,10.71,4.42,16.29,5.5
			c4.47,0.86,9.51,0.88,13.88-0.29c10.08-2.71,18.95,0.05,27.81,4.21c9.58,4.49,17.65,10.95,25.31,18.2
			c6.93,6.55,15.2,10.95,24.55,13.7c6.01,1.77,12.11,2.57,18.16,3.38c5.45,0.72,10.78-1.07,13.55-6.75c2.78-5.71,4.09-11.64,2.54-18
			c-0.59-2.43-0.65-5.02-1.45-7.36c-2.3-6.73-6.85-11.91-13.07-15.01c-3.48-1.74-7.3-3.55-11.54-3.37
			c-8.75,0.39-17.38-0.89-25.91-2.54c-3.51-0.68-7.01-2.09-10.16-3.83c-15.86-8.75-25.71-22.58-31.86-39.19
			c-2.13-5.76-3.26-11.9-4.75-17.89c-0.21-0.86,0.08-1.85,0.16-3.07c3.05,0.55,5.47,1.3,7.47,3.37c7.2,7.49,16.07,12.64,25.38,16.87
			c4.66,2.12,9.96,2.87,14.99,4.12c8.23,2.05,16.63,1.18,24.95,1.1c9.77-0.1,18.92,2.39,27.34,6.77c5.64,2.93,11,3.16,16.78,1.96
			c5.72-1.19,11.46-2.14,17.32-1.76c2.29,0.15,4.65,0.47,6.81,1.2c6.25,2.11,12.25,4.79,17.69,8.64c4.59,3.24,9.27,6.37,15.2,6.79
			c1.02,0.07,1.96,1.15,3.01,1.82c6.83-4.93,7.23-12.05,6.14-19.38c-0.43-2.87-2.46-5.29-5.39-6.5c-3.1-1.28-5.73-3.16-8.09-5.57
			c-1.32-1.34-3.15-2.24-4.85-3.14c-3.59-1.89-7.19-3.77-10.91-5.39c-1.9-0.83-4.04-1.5-6.08-1.52c-9.12-0.09-18.13-0.81-27.18-2.18
			c-5.33-0.81-10.73-1.29-15.95-2.71c-5.16-1.4-9.62-4.17-13.03-8.33c-3.55-4.33-6.91-8.82-10.62-13.58c0.53-0.36,1.3-1.2,2.23-1.45
			c7.74-2.03,15.25-0.65,22.73,1.61c6.97,2.11,14.1,2.25,21.29,1.34c8.97-1.14,17.16-4.2,24.71-9.22c3-2,6.43-3.38,9.71-4.93
			c0.84-0.39,1.9-0.52,2.84-0.45c4.19,0.3,8-0.86,11.79-2.49c7.79-3.35,16.12-4.27,24.44-4.45c15.78-0.33,31.57-0.07,47.36-0.22
			c3.05-0.03,6.34-0.23,9.09-1.36c4.87-2.01,10.24-1.74,15.05-4.11c2.98-1.47,5.83,1.82,5.31,5.43c-0.48,3.4-2.5,5.53-5.4,7.11
			c-2.36,1.29-4.67,2.66-6.91,4.15c-4.44,2.95-9.21,4.89-14.55,5.37c-1.35,0.12-2.82,0-4.02,0.5c-6.6,2.72-13.27,2.42-19.98,0.7
			c-5.73-1.47-11.58-1.31-17.38-1.25c-6.59,0.07-13.21,0.44-19.73,1.33c-2.91,0.4-5.82,2.06-8.33,3.74
			c-2.2,1.47-3.85,3.78-6.56,6.55c2.42,0,3.85,0.09,5.26-0.01c8.82-0.66,17.37,0.71,25.89,2.94c5.22,1.37,10.6,2.25,15.96,2.95
			c8.23,1.08,12.88,8.52,8.5,15.7c-4.78,7.83-5.07,16.52-6.86,24.93c-0.52,2.42-1.14,4.52-2.99,6.09
			c-5.63,4.78-7.89,11.45-9.93,18.11c-1.06,3.46-1.22,7.23-1.46,10.89c-0.38,5.81-1.25,11.41-3.25,16.99
			c-2.28,6.35-7.08,9.84-12.56,12.19c-4.26,1.83-8.95,3.5-14.07,1.78c-2.66-0.89-5.06-1.83-7.03-3.82c-2.33-2.36-4.8-4.59-6.97-7.08
			c-2.68-3.08-6.03-4.78-9.91-5.7c-4.18-0.99-7.93-2.48-11.23-5.65c-3.35-3.22-7.7-5.24-12.72-4.82c-3.24,0.27-6.56-0.47-9.66,0.45
			c-0.66,2.19,0.51,3.18,1.92,3.99c8.6,4.94,13.16,12.74,15.84,21.99c1.82,6.26,2.77,12.45,0.64,18.81
			c-1.23,3.66-3.18,6.28-7.22,7.61c-7.34,2.43-14.46,5.52-21.69,8.29c-1.07,0.41-2.25,0.52-3.36,0.81c-2.79,0.74-5.79,1.05-8.3,2.34
			c-5.13,2.63-10.7,3.72-16.18,4.39c-3.82,0.46-7.9-1.2-11.87-1.9c-2.85-0.5-5.7-1.01-8.56-1.44c-7.8-1.17-15.1-3.41-20.67-9.45
			c-4.62-5-9.27-9.97-13.85-14.99c-4.43-4.85-9.67-7.28-16.45-7.06c-5.38,0.18-10.8-0.78-16.2-1.15c-1.91-0.13-3.84-0.02-6.26-0.02
			c0.66,4.67,2.76,8.24,5.09,11.63c4.9,7.12,11.18,12.88,18.33,17.7c3.53,2.37,7.14,4.63,10.58,7.13c3.14,2.28,6.04,4.87,7.02,9.16
			c-1.72,1.95-3.98,2.03-6.27,2.39c-3.03,0.48-6.12,1.08-8.93,2.24c-6.47,2.69-12.66,5.93-18.08,10.48
			c-1.47,1.23-3.11,2.39-4.86,3.14c-5.33,2.3-10.79,4.33-16.13,6.61c-1.57,0.67-2.79,0.65-4.38-0.05c-7.8-3.4-15.38-7.38-23.96-8.75
			c-2.02-0.32-3.93-1.67-5.75-2.79c-7.06-4.34-14.77-4.62-22.56-3.36c-2.29,0.37-4.37,0.25-6.18-0.63
			c-4.07-1.99-8.42-2.83-12.74-3.87c-3.74-0.9-7.46-1.84-11.87-2.92c0.53,1.26,0.64,2.56,1.31,2.98c3.42,2.16,6.93,4.21,10.52,6.07
			c3.42,1.77,6.97,3.29,10.48,4.89c1.05,0.48,2.13,1.01,3.25,1.21c7.66,1.35,12.9,6.79,18.64,11.24c1.43,1.11,2.45,3.77,2.34,5.65
			c-0.56,9.73-2.82,18.5-12.05,24.34c-6.67,4.22-12.52,9.74-18.72,14.69c-6.23,4.98-12.61,9.73-20.7,11.21
			c-2.25,0.41-4.71,0.79-6.89,0.33c-7.75-1.61-15.05-4.39-22.07-8.24c-7.98-4.38-16.34-8.09-24.65-11.82
			c-5.27-2.36-11.04-2.7-16.6-1.66c-7.92,1.49-15.38,0.59-22.7-2.51c-1.03-0.43-2.11-0.72-3.39-1.15c0.22,2.82,1.72,4.49,3.77,5.61
			c3.2,1.76,6.49,3.35,9.77,4.98c3.3,1.65,6.67,3.16,9.93,4.9c5.71,3.04,9.06,8.41,12.51,13.5c4.08,6.01,6.28,12.8,6.59,20.15
			c0.38,9.09-2.57,17.19-7.75,24.4c-4.54,6.31-10.29,11.49-16.73,15.95c-5.43,3.76-11.64,4.95-17.86,6.02
			c-2.15,0.37-4.54-0.66-6.82-0.98c-3.04-0.43-6.09-1.04-9.15-1.12c-4.86-0.13-9.76-0.11-14.61,0.25
			c-9.78,0.73-16.96-3.95-22.42-11.22c-8.52-11.36-18.99-19.77-32.62-24.07c-4.57-1.44-9.1-3.05-14.18-4.04
			c1.33,1.41,2.65,2.84,4,4.23c1.36,1.4,2.77,2.75,4.13,4.14c4.47,4.57,7.55,9.78,7.87,16.38c0.06,1.31,0.65,2.61,1.08,3.89
			c2.64,7.93,8.34,13.62,14.77,18.28c5.86,4.25,12.49,7.48,18.86,10.99c5.75,3.17,11.69,5.98,17.42,9.19
			c6.67,3.74,9.99,10.2,8.41,17.05c-1.4,6.06-4.68,11.13-10.49,13.96c-2.31,1.13-4.81,1.03-7.26-0.28
			c-2.68-1.44-5.47-2.68-8.29-3.82c-9.17-3.73-18.74-1.73-28.94-2.29c0.81,1.55,1.12,2.61,1.78,3.32c6.2,6.72,4.25,14.44-0.47,20.51
			c-2.62,3.36-6.87,4.05-11.05,4.36c-6.64,0.5-13.18-0.46-19.68-1.47c-2.77-0.43-5.61-1.82-7.92-3.47c-3.1-2.22-6.59-4.02-8.66-7.62
			c-2.02-3.49-5.93-4.22-9.54-4.9c-2.91-0.55-4.22,1.22-3.51,4.19c1.31,5.43,2.94,10.81,3.9,16.3c0.87,4.95,1.44,10.09-0.74,14.91
			c-1.38,3.07-3.53,5.4-7.29,5.41c-2.34,0.01-4.68,0.06-7.02,0.07c-8.29,0.01-8.3,0.01-14.47-5.3c-3.96-3.41-7.91-6.82-11.82-10.28
			c-2.49-2.21-4.31-4.71-5.41-8.06c-3.55-10.76-9.39-20.39-15.89-29.61c-2.89-4.11-5.79-8.21-8.74-12.27
			c-0.55-0.76-1.4-1.31-2.65-2.45c-0.18,1.54-0.59,2.59-0.37,3.48c2.56,10.15,4.08,20.45,4.61,30.9c0.33,6.67-1.23,13.1-3,19.42
			c-1.41,5.03-5.17,7.66-10.06,9.51c-5.36,2.03-11.03,2.83-16.4,2.98c-6.16,0.17-12.47-1.44-17.98-5.36
			c-6.67-4.75-10.52-11.3-13.19-18.61c-3.1-8.45-9.01-13.69-17.13-16.86c-0.72-0.28-1.4-0.68-2.11-0.98
			C241.79,449.28,241.26,449.15,240.51,448.92z"/>
		<g>
			<path class="st1" d="M936.85,455.03c-4.42,6.79-8.18,14.04-8.78,22.58c-0.42,5.95-1.19,11.89-2.03,17.8
				c-0.25,1.75,0.03,2.86,1.31,4.08c4.75,4.53,9.3,9.27,14.07,13.78c1.8,1.71,4.02,2.98,6,4.51c2.44,1.89,4.99,3.68,7.19,5.82
				c3.4,3.32,4.01,7.51,1.45,11.6c-4.73,7.58-10.06,14.68-16.81,20.69c-3.28,2.92-6.35,6.23-8.8,9.86
				c-3.58,5.3-8.33,9.18-13.69,12.19c-6.92,3.88-14.05,7.38-20.48,12.08c-2.5,1.83-4.9,3.79-7.33,5.72c-0.91,0.72-1.67,1.81-2.7,2.2
				c-3.96,1.5-7.02,3.9-9.21,7.58c-0.6,1.01-2.01,1.7-3.19,2.18c-4.49,1.79-9.04,3.44-13.58,5.12c-2.91,1.07-6.11,1.64-8.7,3.22
				c-9.66,5.89-20.48,9.26-30.43,14.5c-3.44,1.82-7.26,2.5-11.22,2.66c-3.84,0.15-7.71,0.63-11.48,1.38
				c-6.45,1.29-12.91,2.33-19.51,2.26c-4.98-0.06-5.63-0.78-5.43-5.86c0.04-0.96-0.05-2.06,0.37-2.85
				c3.37-6.25,3.08-13.08,3.32-19.83c0.1-2.73,0.06-5.46,0.01-8.19c-0.09-4.47,0.19-8.86,1.07-13.28c0.78-3.95,0.94-8.05,1.03-12.09
				c0.16-6.82-0.13-13.65,0.1-20.46c0.16-4.65-1.13-8.76-3.26-12.78c-2.06-3.89-3.88-7.91-5.9-12.07c0,3.74-0.11,7.43,0.02,11.11
				c0.33,9.37-1.45,18.46-3.1,27.61c-0.95,5.3-1.26,10.74-1.55,16.13c-0.24,4.47-0.27,8.98-0.01,13.44
				c0.55,9.4-2.29,17.63-8.27,24.73c-4.05,4.81-6.78,10.31-9.65,15.83c-6.34,12.2-11.31,25.01-17.03,37.49
				c-2.58,5.64-5.31,11.21-7.82,16.88c-1.01,2.28-1.56,4.76-2.44,7.1c-2.6,6.92-6.37,13.17-10.42,19.37
				c-4.73,7.24-10.33,13.58-16.57,19.43c-2.25,2.11-4.6,4.41-7.34,5.65c-9.68,4.38-17.29,11.76-25.9,17.64
				c-7.39,5.05-15.21,9.23-22.81,13.86c-1.27,0.78-2.9,1.17-4.41,1.31c-5.39,0.48-10.81,1.24-16.19,1.01
				c-6.3-0.27-9.87,3.88-14.02,7.25c-0.61,0.5-0.91,1.75-0.86,2.63c0.44,7.68-1.61,14.92-3.57,22.22c-0.79,2.95-1.18,6.11-1.08,9.16
				c0.18,5.54-1.04,10.77-2.5,16.01c-0.46,1.66-0.93,3.36-1.06,5.07c-1.66,20.77-1.15,41.58-1.2,62.38c0,1.93,0,3.87,0,5.89
				c2.02,1.41,3.95,2.67,5.8,4.06c3.55,2.67,7.04,5.27,9.72,9.06c2.9,4.1,7.35,6.19,12.61,6.07c3.7-0.09,7.41-0.13,11.11,0.04
				c1.46,0.07,3.25,0.35,4.26,1.25c5.62,5.01,10.1,11.02,15.24,17.32c-8.64,1.79-12.05,8.36-15.58,14.59
				c-1.37,2.43-1.61,5.49-2.46,8.23c-0.32,1.04-0.94,1.98-1.42,2.97c-7.02-1.54-12.99-3.99-17.94-9.26
				c-5.13-5.47-11.14-10.13-17.5-14.73c0.21,0.73,0.33,1.49,0.64,2.17c1.38,2.98,2.94,5.88,4.17,8.92c0.56,1.38,0.7,3.02,0.66,4.53
				c-0.07,2.69-1.26,4.09-3.93,3.99c-7.06-0.27-12.15,3.21-16.63,8.09c-1.18,1.29-2.42,2.53-3.67,3.76
				c-2.93,2.85-7.11,3.15-9.73,0.16c-3.42-3.92-6.81-7.89-6.08-13.9c0.97-8.02-4.25-13.69-8.4-19.84c-0.7,3.99-1.01,7.95-0.53,11.79
				c0.79,6.3-3.85,10.45-10.96,8.47c-3.13-0.88-6.13-0.72-9.19-0.87c-3.54-0.17-6.33,1.34-8.51,4.1c-2.16,2.74-4.42,5.4-6.56,8.16
				c-1.26,1.62-2.58,1.95-4.55,1.16c-5.47-2.19-7.82-6.48-6.57-12.47c0.9-4.34,1.93-8.65,2.65-13.02c0.74-4.45,2.21-8.58,4.18-12.62
				c3.75-7.67,7.66-15.28,10.87-23.17c3.2-7.86,6.12-15.92,8.24-24.13c1.42-5.53,0.87-11.49-0.32-17.18
				c-2.06-9.82-4.26-19.62-6.41-29.43c-0.41-1.89-0.64-3.86-1.35-5.64c-2.46-6.21-2.3-12.87-3.58-19.26
				c-1.46-7.3,1.96-13.09,4.47-19.26c0.22-0.53,0.68-0.95,0.97-1.46c6.84-11.74,7.93-15.82,6.3-29.34
				c-0.64-5.32-2.27-10.55-3.81-15.71c-1.38-4.62-1-9.3-0.55-13.86c0.33-3.37,3.58-5.59,6.42-7.11c5.43-2.91,10.77-6.1,17-7.31
				c2.38-0.46,4.8-1.59,6.79-2.99c10.23-7.2,17.99-16.46,22.31-28.32c3.16-8.69,6.32-17.39,9.15-26.19
				c2.64-8.21,3.15-16.75,2.48-25.31c-0.16-2.07-1.29-4.05-1.7-6.12c-0.28-1.43-0.73-3.58,0-4.31c2.67-2.7,2.25-5.95,1.56-8.8
				c-1.17-4.83-0.87-9.66-1.02-14.49c-0.14-4.48,0.04-8.97-0.08-13.45c-0.25-8.93-0.52-17.86-1.01-26.78
				c-0.16-2.87-0.96-5.72-1.61-8.55c-0.14-0.61-0.92-1.07-1.52-1.72c-2.54,2.19-2.62,4.9-2.65,7.61
				c-0.05,5.46,0.04,10.92-0.16,16.37c-0.09,2.49-0.28,5.17-1.26,7.39c-2.76,6.27-4.44,12.83-5.66,19.49
				c-0.88,4.83-3.82,7.71-7.82,9.41c-11.57,4.93-23.31,9.33-35.92,11c-17.8,2.36-35.31,6.34-52.86,10.03
				c-4.15,0.87-8.46,0.98-12.66,1.65c-3.99,0.63-7.92,1.63-11.9,2.3c-3.03,0.51-6.11,1.06-9.17,1.09
				c-9.93,0.09-19.94,0.64-29.79-0.3c-9.14-0.88-18.22-0.6-27.32-0.71c-4.03-0.05-8.1,1.08-12.1,0.81
				c-16.5-1.1-33.02-0.65-49.53-0.97c-5.18-0.1-10.33-1.25-15.5-1.92c-0.76-0.1-1.53-0.26-2.29-0.31
				c-6.77-0.41-13.54-0.72-20.3-1.22c-2.1-0.16-4.16-0.89-6.26-1.17c-4.02-0.55-8.14-0.57-12.06-1.51
				c-8.98-2.15-17.95-4.37-26.48-8.14c-5.1-2.25-10.55-3.73-15.84-5.54c-4.39-1.5-8.8-2.94-13.18-4.46
				c-6.38-2.21-12.75-4.46-19.12-6.71c-1.27-0.45-2.61-0.8-3.79-1.44c-10.03-5.49-20.23-10.7-29.97-16.66
				c-7.08-4.33-13.3-10.07-20.34-14.49c-10.48-6.58-19.15-15.17-28.02-23.58c-3.37-3.2-6.99-6.14-10.26-9.42
				c-3.29-3.3-6.32-6.85-9.41-10.34c-6.02-6.8-12-13.64-17.99-20.46c-0.51-0.58-1.1-1.13-1.5-1.79
				c-5.19-8.67-11.51-16.52-17.53-24.61c-7.06-9.49-13.41-19.47-18.71-30.09c-6.48-13.01-12.67-26.17-17.43-39.91
				c-2.26-6.53-3.29-13.48-4.98-20.22c-2.96-11.85-5.05-23.81-4.98-36.07c0.01-1.36-0.15-2.82,0.28-4.05
				c0.32-0.92,1.39-2.04,2.26-2.17c0.8-0.12,2.12,0.75,2.63,1.55c4.99,7.84,9.91,15.71,14.73,23.65c4.03,6.62,7.8,13.4,11.89,19.99
				c1.62,2.61,3.66,5.01,5.72,7.3c5.33,5.93,11.03,11.54,16.14,17.65c7.27,8.69,15.92,15.95,23.96,23.83
				c7.22,7.07,15.85,12.44,24.38,17.85c1.79,1.14,3.5,2.41,5.32,3.51c2.81,1.69,5.63,3.35,8.52,4.89c5.81,3.1,11.63,6.18,17.51,9.13
				c3.8,1.91,7.65,3.73,11.59,5.34c6.95,2.84,13.91,5.71,21.01,8.14c10.39,3.55,20.59,7.72,31.65,9.15
				c5.14,0.67,10.1,2.55,15.19,3.7c9.77,2.2,19.57,4.28,29.37,6.4c0.38,0.08,0.78,0.04,1.17,0.06c8.33,0.46,16.65,1.23,24.98,1.31
				c15.98,0.16,31.96-0.01,47.94-0.19c3.26-0.04,6.52-0.81,9.78-1.17c3.07-0.34,6.14-0.88,9.21-0.85c5.85,0.06,11.62-0.25,17.24-2
				c0.55-0.17,1.13-0.4,1.68-0.37c6.84,0.33,13.48-1.08,20.13-2.37c2.65-0.52,5.35-0.92,7.89-1.79c4.97-1.7,9.98-2.71,15.26-3.06
				c4.38-0.28,8.69-1.71,12.99-2.76c0.86-0.21,1.56-1.06,2.34-1.61c0.71-0.5,1.39-1.35,2.16-1.44c9.35-1.12,17.82-4.95,26.43-8.38
				c11.28-4.49,21.3-10.99,30.8-18.48c4.86-3.83,10.31-6.89,15.37-10.47c8.04-5.7,15.89-11.67,24-17.27
				c2.98-2.06,5.17-4.75,7.12-7.55c7.79-11.25,18.92-18.16,30.8-24.03c5-2.47,9.57-5.09,11.9-10.45c0.08-0.18,0.09-0.41,0.21-0.54
				c8.16-8.29,10.52-19.71,15.76-29.57c3.67-6.92,7.78-13.38,13.47-18.72c8.63-8.09,17.33-16.11,26.18-23.95
				c3.02-2.68,6.52-4.85,9.92-7.06c6.15-4.01,12.4-7.87,18.59-11.82c5.54-3.54,11.11-6.99,17.12-9.75
				c5.63-2.59,10.97-5.83,16.51-8.63c2.94-1.48,6.12-2.47,9.06-3.95c18.7-9.38,38.04-17.33,57.23-25.62
				c4.07-1.76,7.99-3.89,12.04-5.69c6.17-2.75,12.41-5.17,19.1-6.64c10.16-2.23,20.12-5.35,30.23-7.83c4.08-1,8.32-1.71,12.51-1.82
				c6.51-0.17,12.61-1.61,18.69-3.8c10.7-3.87,21.53-7.4,32.31-11.05c7.13-2.41,14.45-4.35,21.36-7.27
				c6.55-2.77,12.71-6.47,18.96-9.91c1.31-0.72,2.2-2.3,3.98-1.15c4.62-1.81,9.61-2.68,13.79-5.65c2.68-1.91,5.48-3.69,8.39-5.23
				c7.16-3.79,10.86-10.27,13.73-17.36c0.46-1.13,0.31-2.77-0.15-3.94c-0.93-2.36-0.27-4.39,0.18-6.72
				c1.99-10.41,6.46-19.84,10.61-29.45c3.6-8.35,6.4-17.05,9.61-25.57c1.57-4.17,3.24-8.3,4.93-12.42c0.36-0.88,0.89-1.8,1.59-2.42
				c5.02-4.49,8.1-10.38,11.4-16.06c1.52-2.63,3.27-4.95,5.8-6.38c6.46-3.65,10.86-9.46,15.36-14.97c2.83-3.48,6.08-5.92,9.84-7.89
				c5.82-3.06,11.8-5.82,17.59-8.93c2.2-1.18,4.23-2.81,6.05-4.53c5.78-5.46,11.75-10.61,18.94-14.19c2.8-1.4,3.42-4.63,4.63-7.09
				c4.31-8.82,11.79-12.42,20.87-13.28c4.99-0.48,10.13-0.39,14.63,2.6c2.3,1.53,4.54,1.33,6.23-0.81c2.22-2.81,5.55-3.61,8.55-4.6
				c2.18-0.72,4.92-0.21,7.31,0.26c5.5,1.07,9.77,4.73,13.76,8.18c5.08,4.38,10.13,4.13,15.72,2.15c3.09-1.1,6.12-2.38,9.25-3.36
				c1.63-0.51,3.42-0.82,5.11-0.71c3.27,0.21,6.53,0.65,9.75,1.23c3.86,0.7,7.32,2.19,9.88,5.44c3.63,4.59,8.42,6.29,14.33,6.21
				c17.14-0.24,34.29-0.09,51.43-0.07c1.54,0,3.25-0.16,4.59,0.43c4.27,1.88,8.72,1.81,13.18,1.66c2.77-0.1,5.29,0.54,7.89,1.44
				c3.06,1.06,6.38,1.37,9.5,2.3c1.98,0.59,3.94,1.49,5.66,2.62c4.35,2.88,8.02,6.56,11.88,10.05c3.23,2.92,7.44,4.91,11.48,6.72
				c3.45,1.55,6.41,3.29,8.58,6.51c1.28,1.9,3.17,3.41,4.9,4.97c2.13,1.93,3.15,4.09,3.2,7.12c0.11,6.97,0.51,13.95,1.14,20.89
				c0.49,5.51-1.75,10.26-3.6,15.1c-0.95,2.5-2.49,4.86-4.15,6.98c-2.88,3.68-4.92,7.29-5.5,12.29c-0.5,4.35-3.51,8.46-5.67,12.54
				c-0.64,1.21-2.15,1.97-3.49,3.13c-0.43-0.98-0.87-1.5-0.82-1.96c0.65-5.53-2.77-9.55-5.15-13.93c-0.45-0.83-1.2-1.56-1.97-2.13
				c-2.65-1.95-5.51-0.6-5.77,2.73c-0.12,1.55,0.12,3.13-0.06,4.67c-0.67,5.79-2.82,10.74-8.1,13.99c-1.68-3.71-3.1-7.2-4.82-10.52
				c-1.79-3.45-5.31-4.94-8.03-6.9c-2.83,5.67-5.6,11.08-8.23,16.56c-1.4,2.93-3.38,4.08-6.79,2.72c-0.43-2.06-0.9-4.29-1.35-6.52
				c-0.15-0.76-0.03-1.66-0.4-2.29c-1.56-2.65-2.81-5.75-5.05-7.64c-1.43-1.21-4.4-0.59-6.98-0.82c-0.62,2.69-1.29,5.08-1.69,7.51
				c-0.79,4.76-3.57,8.58-5.97,12.53c-0.57,0.94-2.5,1.06-4.3,1.74c-0.25-2.04-0.35-3.34-0.57-4.62
				c-0.98-5.95-4.52-10.22-9.33-13.47c-2.64-1.78-4.67-0.93-5.72,2.21c-1.29,3.83-2.26,7.77-3.61,11.58
				c-0.47,1.31-1.65,2.37-2.91,4.1c-0.7-1.57-1.25-2.37-1.42-3.25c-1.71-8.7-8.07-12.91-16.53-10.63c-4.59,1.24-8.75-0.22-13-1.39
				c-1.65-0.46-3.24-1.13-4.86-1.71c-3.37-1.21-6.59-2.02-9.85,0.6c-4.29,3.45-8.66,6.75-8.4,13.01c0.23,5.58-0.91,11.26,1.17,16.74
				c0.31,0.83-0.04,1.9-0.08,2.86c-2.19,1.48-3.65,0.61-5.05-1.09c-2.19-2.64-4.58-5.12-6.73-7.81c-2.18-2.72-4.16-5.61-6.46-8.74
				c-0.01,5.5,1.94,9.98,4.22,14.38c0.8,1.54,1.7,3.1,2.1,4.75c1,4.19,4.16,5.98,7.74,7.09c4.4,1.36,8.93,2.32,13.41,3.43
				c3.93,0.97,7.69,0.66,11.24-1.49c3.8-2.32,7.65-4.56,11.51-6.86c3.51,3.12,3.7,3.73,2,7.65c-0.62,1.42-1.52,2.73-2.09,4.16
				c-0.97,2.45-0.45,4.88,1.05,5.86c1.53,0.98,5.21,0.92,6.69-0.26c2.86-2.28,5.7-4.6,8.46-6.99c2.68-2.32,4.98-4.9,5.78-8.55
				c0.24-1.08,0.91-2.07,1.42-3.19c3.94,4.47,6.13,9.24,5.34,15.1c-0.3,2.25,0.11,4.28,2.72,5.11c2.67,0.85,4.7-0.39,6.12-2.28
				c2.2-2.95,4.03-6.18,6.01-9.29c0.6-0.95,1.18-1.9,2.17-3.5c2.02,2.77,3.86,4.97,5.32,7.41c1.44,2.4,2.1,5.04,0.26,7.66
				c-1.13,1.62-1.23,3.29,0.2,4.73c1.65,1.66,3.61,0.98,5.39,0.25c0.86-0.35,1.68-1.03,2.27-1.77c3.84-4.78,8.95-8.75,9.84-16.1
				c1.58,0.75,2.92,1.03,3.71,1.84c0.85,0.88,1.61,2.24,1.68,3.43c0.21,3.69,0.07,7.4,0.07,11.1c0,1.56-0.2,3.14,0.03,4.66
				c0.43,2.77,3.03,4.06,5.65,2.98c4.9-2.02,7.12-6.38,9.31-10.74c1.28-2.55,2.41-5.17,3.83-8.25c3.87,6.95,6.84,13.28,5.24,20.83
				c2.62,1.12,4.48-0.2,5.82-2.29c1.25-1.94,2.2-4.08,3.24-6.15c0.87-1.74,1.46-3.65,2.57-5.2c0.52-0.73,2.01-1.13,3-1.05
				c0.73,0.06,1.38,1.14,2.05,1.79c0.12,0.12,0.16,0.36,0.15,0.55c-0.19,5.79,0.99,11.62-0.95,17.36c-1.31,3.86-3.29,6.9-7.23,8.48
				c-4.49,1.8-8.86,3.89-13.39,5.54c-2.12,0.78-4.52,1.2-6.77,1.16c-7.36-0.14-14.72-0.87-22.07-0.82
				c-8.9,0.07-17.86,1.55-26.69,0.92c-21.58-1.54-43.16-0.55-64.73-1.11c-4.97-0.13-9.97-1.34-14.85-2.51
				c-5.3-1.27-10.65-0.92-15.98-1.3c-1.42-0.1-2.95-0.66-4.15-1.45c-1.88-1.23-3.77-1.82-6.02-1.74c-4.09,0.14-8.19,0.18-12.28,0.12
				c-8.01-0.12-15.82-1.27-23.26-4.45c-1.6-0.68-3.27-1.3-4.97-1.62c-6.66-1.25-10.84-5.69-14.37-10.96
				c-2.71-4.03-5.39-8.08-7.92-12.22c-2.98-4.88-6.69-9.01-11.33-12.39c-2.98-2.17-5.7-4.68-8.53-7.06
				c-0.9-0.75-1.72-1.59-2.65-2.29c-1.2-0.91-2.72-1.19-3.65,0.03c-0.51,0.67-0.46,2.36,0.05,3.09c2.22,3.17,4.68,6.18,7.11,9.21
				c1.94,2.41,4.04,4.71,5.93,7.16c0.68,0.88,1.3,2.07,1.34,3.14c0.14,4.14,2.12,7.31,4.62,10.41c3.39,4.19,16.7,16.27,21.25,18.91
				c7.84,4.55,16.59,6.34,25.3,8.14c3.58,0.74,7.31,0.76,10.94,1.32c1.48,0.23,2.93,0.91,4.29,1.6c2.4,1.22,4.71,2.61,7.61,4.23
				c-1.19,2.96-2.46,6.12-3.74,9.27c-1.02,2.51-2.29,4.96-3.04,7.55c-1.58,5.44-3.94,10.33-7.34,14.95
				c-5.41,7.35-9.3,15.51-11.76,24.44c-2.45,8.93-5.74,17.62-8.61,26.44c-0.72,2.2-1.42,4.43-1.83,6.71
				c-1.44,8.02-3.73,15.77-6.71,23.35c-2.05,5.2-3.57,10.61-5.67,15.78c-4.94,12.2-13.31,22.26-20.89,32.79
				c-2.49,3.45-4.96,6.92-7.62,10.25c-7.23,9.07-14.17,18.41-23.78,25.27c-1.22,0.87-2.05,2.3-2.98,3.53
				c-0.82,1.08-1.39,2.37-2.3,3.35c-9.8,10.65-14.98,23.78-19.56,37.14c-1.02,2.98-0.62,6.51-0.56,9.78
				c0.02,0.98,0.95,2.06,1.68,2.9c5.12,5.88,10.41,11.58,17.43,15.29c2.9,1.53,5.85,2.99,8.83,4.34
				c8.27,3.73,16.69,7.16,24.82,11.16c5.97,2.94,11.2,7.1,14.53,13.04c1.42,2.53,3.31,4.13,5.78,5.45c3.06,1.62,5.89,3.7,8.95,5.32
				c2.21,1.17,4.58,2.21,7,2.79c3.23,0.77,5.32,2.59,5.89,5.71c1.48,8.08,7.77,12.78,12.8,18.25c2.66,2.89,4.24,5.72,4.55,9.63
				c0.55,6.93-1.22,13.46-2.96,20c-0.45,1.68-0.89,4.01-3.95,3.51c-0.27-2.44-0.35-4.96-0.86-7.39c-1.55-7.4-5.69-13.04-11.96-17.24
				c-4.31-2.89-8.46-6.01-12.87-9.16c-0.67,2.79-0.25,5.63,1.38,8.33c3.77,6.22,3.91,12.85,1.58,19.46
				c-1.47,4.18-3.74,8.08-5.57,12.14c-1,2.23-2.43,3.88-5.41,4.95c-0.56-3.89-0.88-7.45-1.62-10.92c-1.05-4.89-2.33-9.74-3.73-14.55
				c-0.35-1.2-1.37-2.33-2.34-3.19c-1.59-1.41-3.39-2.58-5.19-3.92c-1.59,1.07-2.83,2.03-2.27,4.59c1.2,5.46-1.73,12.13-6.59,14.72
				c-4.72,2.51-9.58,4.98-15.84,5.11c0.29-1.06,0.42-1.71,0.64-2.32c3.05-8.55,3.61-17.43,3.55-26.39
				c-0.02-4.26,0.11-8.49-1.08-12.7c-1.56-5.51-6.18-9.81-11.75-10.24c-6.88-0.53-12.54-3.89-17.74-8
				c-4.44-3.51-9.26-6.32-14.05-9.27c-4.61-2.83-8.76-6.41-13.11-9.66c-0.16-0.12-0.27-0.3-0.43-0.39
				c-4.71-2.36-8.19-6.28-12.21-9.52c-1.47-1.18-3.3-2.54-5.03-2.64c-7.94-0.45-14.25-4.72-20.87-8.3
				c-3.74-2.02-7.35-4.3-11.08-6.34c-2.37-1.29-4.1-3.28-4.64-5.7c-1.69-7.51-4.09-14.96-3.53-22.79
				C935.48,464.93,936.26,459.99,936.85,455.03z M668.3,726.72c2.75,0.02,3.84-2.43,5.48-3.91c4.28-3.87,7.82-8.57,13.34-11.03
				c1.29-0.57,2.15-2.18,3.13-3.37c0.98-1.18,1.75-2.56,2.81-3.65c4.08-4.18,5.7-10.62,3.71-16.79c-6,7.69-12.24,15.52-18.27,23.5
				c-3.48,4.6-6.65,9.44-9.93,14.2c-0.2,0.28-0.12,0.75-0.17,1.14c-0.16,0.3-0.32,0.59-0.48,0.89
				C668.04,727.37,668.17,727.04,668.3,726.72z M1060.47,129.54c5.34-0.12,9.17-0.18,13-0.31c5.28-0.18,9.79,1.33,13.78,5.01
				c4.82,4.45,11.03,6.32,17.25,5.07c6.94-1.4,13.64-4.13,20.35-6.53c3.11-1.11,6.08-2.49,9.48-2.39c5.27,0.15,9.8-1.94,14.03-4.85
				c2.71-1.86,5.52-3.59,8.12-5.6c1.63-1.26,3.19-2.77,4.36-4.46c2.18-3.15,4.07-6.51,6.06-9.8c6.76-11.19,17.45-12.43,28.99-11.42
				c0.93,0.08,1.87,0.57,2.71,1.05c2.28,1.31,2.75,3.65,3.1,5.97c0.34,2.23-1.44,2.82-2.93,3.8c-1.9,1.26-3.65,2.79-5.31,4.37
				c-0.94,0.9-0.92,2.28,0.07,3.14c0.78,0.67,1.9,1.11,2.94,1.27c0.66,0.11,1.46-0.41,2.15-0.75c5.04-2.5,10.03-5.07,15.1-7.51
				c1.89-0.91,3.9-2.16,5.87-2.19c9.16-0.14,17.89-2.71,26.77-4.35c8.19-1.51,16.25-3.62,24.69-2.79c1.16,0.11,2.34,0.04,3.51,0.01
				c6.03-0.15,11.9,0.32,17.81,2.02c4.81,1.38,9.8,1.27,14.12-2.79c3.61-3.39,8-5.93,12.44-9.13c-3.56-1.92-4.26-4.59-3.89-8.01
				c0.53-4.87-2.04-8.36-6.38-10.03c-4.63-1.78-7.61-5.03-10.44-8.86c-3.99-5.41-9.31-8.71-16.31-8.76c-1.54-0.01-3.06-0.4-4.6-0.56
				c-4.61-0.47-9.22-1.12-13.85-1.31c-2.87-0.11-5.77,0.55-8.66,0.75c-5.42,0.38-10.84,0.7-16.27,1c-1.16,0.06-2.35,0.04-3.48-0.16
				c-9.51-1.71-18.99-3.58-28.52-5.15c-2.9-0.48-6.13-0.86-8.36,2.09c2.58,3.01,2.58,3.08,5.24,3.3
				c8.88,0.73,16.47,4.72,22.83,10.45c5.38,4.84,5.04,10.08-2.09,13.09c-4.47,1.89-9.25,1.52-13.74,0.6
				c-2.53-0.52-4.43-0.44-6.58,0.72c-3.13,1.68-6.51,2.38-10.1,2.27c-6.22-0.2-12.35,0.25-18.44,1.88
				c-5.11,1.36-11.49-2.87-12.21-8.21c-1.03-7.66,0.32-14.7,7.19-19.71c1.72-1.25,4.14-2.24,4.41-5.32
				c-2.62-0.87-5.14-1.8-7.71-2.54c-6.84-1.96-14.18-0.83-20.94-3.41c-0.84-0.32-1.94-0.07-2.89,0.06
				c-5.87,0.78-11.55-0.29-16.9-2.46c-4.56-1.85-9.19-0.98-13.78-1.3c-0.81-0.06-1.8,0.69-2.51,1.3c-5.56,4.78-11.97,7.73-19.08,9.4
				c-2.87,0.68-5.88,2.24-6.75,5.11c-1.77,5.88-5.34,11.23-5.35,17.65c-0.02,8.78-11.31,21.01-21,19.37
				c-3.57-0.6-7.32-0.1-10.79-0.1c-2.14,3.79-2.33,7.49-2.01,11.13c0.16,1.79,1.01,3.93,2.29,5.12c3.29,3.05,7.24,5.27,11.83,5.68
				c9.8,0.87,18.37-1.81,25.17-9.23c4.74-5.17,9.8-9.96,15.91-13.53c5.87-3.43,12.08-3.83,18.48-2.06c2.38,0.66,4.69,1.65,6.95,2.68
				c2.45,1.11,5.06,2.11,7.14,3.73c4.58,3.57,5.93,11.24,3.13,15.84c-1.41,2.32-3,4.53-4.34,6.88c-2.33,4.08-5.97,5.88-10.45,6.46
				c-7.11,0.92-14.12,1.77-21.38,0.26c-4.13-0.86-8.5-0.49-12.27-2.93c-1.46-0.94-2.78-0.92-4.3,0.1c-4.38,2.92-9.3,4.6-14.31,6.14
				C1066.3,126.58,1063.95,127.96,1060.47,129.54z M710.19,475.44c-4.86,0-9.03-0.6-12.98,0.11c-10.78,1.94-21.44,4.53-32.18,6.66
				c-3.57,0.71-5.62,2.75-6.03,6.08c-0.6,4.78-0.65,9.63-1.06,14.45c-0.32,3.85-0.47,7.76-1.3,11.5
				c-1.78,7.95-7.79,11.97-15.07,13.59c-4.26,0.95-8.93,0.37-13.38,0c-4.04-0.33-7.4-2.22-9.17-6.19c-0.31-0.7-0.7-1.4-1.16-2.01
				c-2.49-3.27-5.12-6.99-9.18-7.69c-4.7-0.81-9.7-0.53-14.49,0.02c-3.5,0.4-4.09,1.92-4.28,5.81c-0.23,4.71,1.03,9.07,2.2,13.6
				c0.91,3.51,2.82,4.92,5.43,5.87c2.29,0.84,4.89,0.93,7.37,1.15c8.94,0.8,17.06,3.21,23.21,10.41c2.86,3.35,5.64,6.8,9.3,9.5
				c1.87,1.38,3.25,3.95,3.98,6.26c1.21,3.84,2.37,7.91,2.36,11.88c-0.01,4.8,1.23,8.68,4.58,12.08c0.87-0.23,1.83-0.78,2.68-0.65
				c3.03,0.47,6,1.44,9.03,1.74c4.75,0.48,9.96-0.06,12.47-4.25c2.59-4.34,3.96-9.63,4.89-14.69c0.67-3.6,0.95-7.23,2.23-10.74
				c0.85-2.33,1.22-4.86,1.63-7.33c1.88-11.6,8.64-19.16,19.44-23.19c7.05-2.63,14.24-4.85,21.32-7.39c3.65-1.32,5.66-4.72,4.5-8.3
				c-0.93-2.88-2.53-5.61-4.23-8.15c-1.82-2.73-4.24-5.06-6.14-7.75c-2.35-3.32-4.35-6.82-4.64-11.09
				C711.28,483.12,710.68,479.52,710.19,475.44z M630.94,477.56c-1.9-3.83-1.76-4.12-4.1-5.24c-4.59-2.18-5.87-5.7-5.44-10.47
				c0.41-4.5,2.21-8.31,5.48-11.17c2.8-2.44,6.23-1.25,9.41-0.29c0.19,0.06,0.37,0.12,0.56,0.15c3.35,0.6,6.4,0.69,9.05-2.28
				c1.91-2.14,4.59-3.53,7.56-4.03c5.5-0.92,10.96-2.2,16.5-2.66c8.93-0.73,17.79,0.49,26.28,3.3c5.85,1.93,10.49,1.21,14.31-4.24
				c-4.92-8.62-11-15.73-21.84-16.88c-5.93-0.63-11.85-1.42-17.78-2.1c-7.68-0.88-15.41-1.42-23.03-2.68
				c-5.68-0.94-11.25-2.5-16.09-6.11c-4.18-3.12-8.78-5.67-13.21-8.44c-4.59-2.88-9.6-2.37-13.71,1.3
				c-4.57,4.08-7.99,8.78-9.15,15.02c-0.56,3.02-1.93,5.87-2.67,8.87c-1.11,4.49-1.85,9.06-3,13.54c-0.56,2.19-1.25,4.6-2.64,6.28
				c-3.33,4.03-7.16,7.64-10.69,11.5c-1.67,1.83-3.39,3.7-4.6,5.83c-2.78,4.93-4.93,10.11-4.49,16.01c0.08,1.1-0.45,2.24-0.6,3.37
				c-0.15,1.14-0.49,2.41-0.16,3.43c0.37,1.15,1.26,2.7,2.2,2.92c0.99,0.24,2.63-0.6,3.42-1.48c2.33-2.56,4.4-5.37,6.54-8.09
				c6.03-7.66,12.82-9.36,20.94-6.77c4.61,1.47,9.24,2.75,14.02,3.43C619.64,480.39,625.15,479.95,630.94,477.56z M611.12,722.66
				c3.17-0.69,6.16-1.35,9.15-1.99c5.18-1.11,10-2.87,13.97-6.66c2.39-2.29,4.28-5.5,8.27-5.54c0.45-0.01,0.91-0.68,1.32-1.09
				c3.15-3.17,6.69-6.05,9.36-9.58c5.34-7.06,11.33-13.69,14.92-22c1.03-2.38,2.98-4.51,4.91-6.33c4.08-3.85,8.59-7.25,12.59-11.17
				c2.8-2.75,5.59-5.27,9.21-6.95c1.88-0.87,3.84-2.17,5.04-3.81c6.1-8.31,11.5-17.06,13.99-27.23c3.07-12.54,6.35-25.04,8.86-37.7
				c1.4-7.05,1.06-14.33-2.44-21.01c-2.33-4.45-7.95-7.06-12.62-5.95c-6.24,1.49-9.74,5.38-10.07,10.99
				c-0.26,4.51,0.33,8.9,1.46,13.24c2.03,7.79,1.15,14.74-4.77,20.93c-4.27,4.46-7.89,9.57-11.6,14.54
				c-4.45,5.95-7.15,12.81-9.64,19.74c-0.87,2.42-1.96,4.34-4.41,5.76c-2.81,1.62-5.07,4.18-7.62,6.26
				c-1.79,1.47-3.54,3.06-5.54,4.19c-5.81,3.3-10.08,7.99-12.4,14.15c-2.44,6.46-5.66,12.28-10.58,17.2
				c-2.33,2.33-4.93,5.3-4.49,8.51c0.65,4.74-1.67,7.7-4.25,10.8c-2.61,3.13-5.43,6.07-8.02,9.22c-1.84,2.23-3.48,4.63-5.13,7.01
				C609.45,719.88,609.79,721.45,611.12,722.66z M766.99,381.78c-3.35,1.52-5.42,3.82-6.03,7.03c-0.65,3.41-1.2,6.92-1.14,10.37
				c0.15,8.73,0.56,17.45,1.07,26.17c0.24,4.04,0.86,8.07,1.49,12.08c0.54,3.43,1.31,6.82,2.02,10.21
				c1.19,5.71,2.66,11.3,6.19,16.13c1.37,1.87,2.65,3.85,3.72,5.91c4.23,8.13,9.19,15.7,15.27,22.62
				c9.03,10.29,18.72,19.71,30.87,26.32c4.68,2.55,8.31,6.17,11.38,10.61c4.95,7.18,10.16,14.22,15.66,20.99
				c4.16,5.12,9.48,8.49,16.57,8.11c4.27-0.23,8.57-0.24,12.85-0.05c9.36,0.42,16.32-4.98,23.66-9.49c0.23-0.14,0.19-0.71,0.33-1.32
				c-1.77-3.04-4.61-4.15-8.15-4.29c-6.78-0.27-13.58-0.45-20.33-1.15c-7.12-0.74-13.46-3.29-17.9-9.43
				c-3.64-5.03-7.47-9.92-11.33-14.78c-1.32-1.66-2.92-3.13-4.51-4.56c-2.74-2.46-5.57-4.83-8.38-7.22
				c-2.81-2.39-5.4-5.18-8.53-7.03c-6.57-3.88-11.34-9.39-15.48-15.56c-12.03-17.9-22.82-36.43-30.53-56.71
				c-3.65-9.6-5.8-19.21-5.58-29.42c0.07-3.11-0.05-6.23,0.03-9.34C770.25,385.46,769.41,383.46,766.99,381.78z M979.14,477.27
				c0.18-1.01,0.57-1.85,0.35-2.08c-2.5-2.49-2.2-5.84-2.94-8.89c-1.52-6.24-0.87-12.27,1.35-18.21c3.03-8.11,5.41-16.41,7.57-24.8
				c1.15-4.46,1.47-9.01,0.64-13.25c-1.52-7.77-0.81-15.48-0.65-23.2c0.07-3.23,0.8-6.58,3.37-8.99c3.38-3.17,4.11-7.38,4.54-11.63
				c0.29-2.89-0.09-5.85,0.18-8.75c0.91-9.9-7.84-17.83-16.32-18.73c-3.62-0.38-6.76-1.66-9.95-2.96c-5.2-2.12-10.31-4.48-15.4-6.88
				c-3.23-1.52-6.56-2.45-10.12-2.04c-2.29,0.27-4.65,0.6-6.78,1.41c-3.85,1.45-5.28,6.42-2.67,11.44c2.48,4.77,5.66,9.25,8.99,13.5
				c2.24,2.86,4.88,6.27,8.05,7.34c6.1,2.07,7.88,6.95,10.15,11.8c0.49,1.05,0.81,2.18,1.13,3.29c2.4,8.38,6.17,16.19,10.12,23.92
				c3.32,6.48,5.3,13.47,4.92,20.6c-0.42,8.09-2.08,16.12-7.62,22.68c-1.81,2.14-2.72,4.65-2.73,7.51
				c-0.01,1.34-0.32,2.68-0.55,4.01c-0.96,5.72-0.16,11.1,2.34,16.41C969.53,475.9,973.2,478.03,979.14,477.27z M812.47,368.06
				c-0.12-0.02-0.25-0.04-0.37-0.06c0-1.36,0.05-2.73-0.01-4.09c-0.18-3.79-2.08-5.25-5.71-4.21c-1.26,0.36-2.64,1.05-3.48,2.01
				c-4.15,4.77-7.45,9.99-6.81,16.7c0.56,5.78,1.23,11.55,2.01,17.29c1.55,11.3,2.92,22.64,4.92,33.87
				c1.89,10.61,5.81,20.55,13.05,28.76c6.56,7.44,13.32,14.73,20.32,21.75c8.24,8.27,16.86,16.15,25.24,24.27
				c2.08,2.02,4,4.23,5.83,6.49c4.81,5.92,10.48,10.3,18.38,11.15c2.49,0.27,5.12,0.54,7.36,1.54c4.72,2.1,9.84,1.97,14.72,3.09
				c3.62,0.84,7.23,0.23,10.72-1.6c7.49-3.93,7.2-7.64,0.54-12.98c-0.75-0.6-1.68-0.96-2.53-1.43c-5.55-3.08-11.68-4.07-17.85-4.66
				c-3.76-0.36-7.24-1.33-10.5-3.09c-4.44-2.4-8.88-4.81-13.18-7.44c-3.64-2.22-7.54-4.29-10.56-7.22
				c-7.28-7.06-16.02-12.23-23.63-18.92c-7.81-6.87-12.5-15.77-18.95-23.45c-0.6-0.72-0.89-1.72-1.25-2.62
				c-3.86-9.63-5.44-19.78-6.05-30.02c-0.35-5.87-1.16-11.51-2.83-17.13c-1.9-6.38-2.65-12.86-0.87-19.47
				C811.71,373.81,811.98,370.9,812.47,368.06z M855.88,336.38c-1.21-0.13-2.18-0.22-3.14-0.35c-3.81-0.52-6.48,0.99-7.73,4.62
				c-1.26,3.64-2.52,7.3-3.43,11.04c-1.37,5.63-2.04,11.44-3.71,16.97c-3.47,11.48-2.63,22.46,2.08,33.43
				c2.51,5.84,4.3,12,6.36,18.03c2.63,7.69,4.87,15.46,10.86,21.58c5.43,5.55,10.43,11.55,15.29,17.61
				c5.47,6.81,11.93,12.17,20.13,15.28c3.25,1.23,6.73,1.91,9.88,3.35c3.71,1.69,6.73,0.75,9.82-1.31c3.39-2.26,3.82-5.42,0.75-8.03
				c-1.61-1.36-3.5-2.57-5.47-3.27c-3.96-1.42-7.23-3.74-10.05-6.75c-5.05-5.39-10.09-10.8-15.03-16.3
				c-7.74-8.6-14.2-17.93-16.9-29.46c-0.61-2.63-1.67-5.16-2.59-7.7c-2.13-5.89-3.07-11.92-3.15-18.22
				c-0.17-13.4,1.25-26.82-0.8-40.2C858.51,343.2,857.98,339.83,855.88,336.38z M1237.98,203.78c-2.68-2.2-5.56-2.25-8.51-2.2
				c-6.23,0.12-12.45,0.19-18.68,0.2c-3.3,0-6.46-0.42-9.58-1.9c-2.37-1.12-5.23-1.77-7.85-1.7c-5.01,0.12-9.55-1.23-14.08-3.03
				c-1.61-0.64-3.27-1.21-4.94-1.65c-11.26-2.94-22.31-6.43-32.46-12.3c-2.06-1.19-4.03-1.92-6.59-0.92
				c-1.71,0.67-3.85,0.43-5.78,0.3c-6-0.4-9.83-4.6-9.87-10.67c-0.01-1.95,0.38-3.99-0.08-5.81c-0.39-1.52-1.53-3.64-2.76-3.99
				c-2.42-0.68-4.79-2.8-7.7-1.05c-0.78,0.47-2.14-0.06-3.23-0.05c-0.91,0.01-2.1-0.23-2.7,0.24c-4.62,3.67-8.66,7.94-8.93,14.18
				c-0.42,10.06,4.24,18.16,10.65,25.49c1.39,1.59,3.07,1.62,4.78,1.41c4.39-0.54,8.74-1.51,13.14-1.82
				c7.31-0.52,14.7-1.46,21.11,3.85c1.81,1.5,4.53,2.26,6.94,2.62c4.96,0.74,10,0.96,15,1.46c2.49,0.25,5.05,0.34,7.41,1.06
				c4.58,1.4,9.02,1.28,13.7,0.48c4.55-0.77,9.21-0.93,13.8,0.55c3.85,1.25,7.84,2.03,11.73,3.14c10.4,2.97,21.03,3.16,31.72,2.87
				c1.51-0.04,3.06,0.28,4.21-1.31c1.96-2.72,0.82-6.02-2.66-6.62c-2.47-0.43-5.04-0.24-7.57-0.37c-0.33-0.02-0.64-0.3-0.95-0.46
				C1237.45,205.25,1237.65,204.71,1237.98,203.78z M434.39,548.28c0.12-9.55-1.81-11.36-10.33-10.77c-0.95,0.07-1.89,0.35-2.84,0.5
				c-7.11,1.1-14.04,2.75-20.23,6.66c-0.64,0.41-1.39,0.76-2.14,0.87c-3.86,0.57-5.36,3.49-6.53,6.62
				c-1.25,3.35-1.46,6.79-0.3,10.26c0.98,2.93,2.05,5.85,2.83,8.84c1.3,5.03,2.61,9.98,1.4,15.39c-1.01,4.5-1.27,9.23-1.3,13.86
				c-0.03,5.5,2.71,9.68,7.74,12.01c6.25,2.91,10.44,0.91,12.23-5.7c0.45-1.66,0.67-3.42,0.71-5.14c0.11-4.86,0.1-9.73,0.1-14.6
				c0-4.36,1.54-7.9,5.26-10.39c1.61-1.08,3.18-2.25,4.66-3.5c3.66-3.09,6.38-7,7.36-11.6C434,556.88,434.04,551.97,434.39,548.28z
				 M476.86,592.78c4.03-0.32,4.96-1.07,5.43-4.89c0.17-1.35,0.15-2.72,0.14-4.08c-0.05-5.65,0.25-11.33-0.29-16.93
				c-0.65-6.62,1.38-11.53,6.63-15.69c6.34-5.03,8.76-12.21,8.46-20.08c-0.27-6.99-2.52-13.66-4.64-20.3
				c-0.59-1.83-1.92-2.68-3.97-2.77c-3.82-0.16-6.72,1.83-9.46,3.96c-5.5,4.28-10.78,8.73-17.17,11.86
				c-6.95,3.41-7.4,7.97-3.59,14.35c0.2,0.33,0.59,0.57,0.71,0.92c0.44,1.24,1.18,2.51,1.15,3.75c-0.15,5.52,1.2,10.82,2.73,15.97
				c1.7,5.69,2.27,11.38,2.11,17.22c-0.06,2.14,0.02,4.31-0.31,6.41c-0.64,4.17,1.17,6.76,4.91,8.13
				C472.04,591.46,474.47,592.06,476.86,592.78z M551.53,826.63c-0.4,6.92,0.67,13.56,3.04,20.02c2.56,6.99,3.19,14.36,3.71,21.68
				c0.74,10.46,1.03,20.96,1.38,31.45c0.09,2.61,0.19,4.96,2.39,6.86c0.73,0.63,0.95,2.01,1.14,3.1c0.19,1.14-0.05,2.34,0.08,3.5
				c0.28,2.49,2.93,4.18,6.13,4.04c2.23-0.1,2.62-0.69,2.94-4.07c0.76-8.27,1.57-16.53,2.31-24.8c0.1-1.16,0.13-2.37-0.1-3.49
				c-0.8-3.98-1.8-7.92-2.59-11.9c-0.71-3.58-1.79-7.2-1.76-10.8c0.16-15.93-1.14-31.88,1.06-47.79c1.14-8.19-1.16-16.59,1.17-24.82
				c0.62-2.19-0.93-4.27-3.01-5.02c-2.08-0.76-4.38-1-5.95,0.89c-1.46,1.76-2.89,3.74-3.6,5.87c-1.9,5.68-2.98,11.66-5.18,17.21
				C552.34,814.45,551.09,820.38,551.53,826.63z M931.53,430.03c1.89-2.32,2.21-4.23,1.59-6.8c-1.39-5.77-4.27-10.63-9-13.87
				c-7.52-5.16-12.79-11.75-15.56-20.41c-0.35-1.1-0.95-2.12-1.46-3.17c-4.31-8.93-4.52-18.24-3.08-27.86
				c0.91-6.12,1.54-12.33,1.57-18.51c0.02-5.21-1.96-9.87-7-12.57c-3.34-1.79-4.59-1.68-7.22,0.94c-2.51,2.5-4.61,5.33-5.41,8.84
				c-0.77,3.38-1.5,6.81-1.82,10.25c-0.88,9.51-0.89,19.04,1.77,28.29c3.55,12.32,9.49,23.3,18.94,32.25
				c2.94,2.78,5.96,5.84,7.78,9.37C916.76,424.77,924.56,426.6,931.53,430.03z M329.35,551.74c-6.78,7.1-9.27,14.59-5.13,23.66
				c1.35,2.95,1.87,6.29,2.73,9.45c1.61,5.91,1.12,11.97,1.07,17.98c-0.03,4.11,1.38,7.56,3.75,10.76c1.47,1.99,3.38,3.52,5.89,3.03
				c2.08-0.4,2.89-2.37,3.35-4.37c0.22-0.94,0.79-1.8,0.92-2.74c0.82-5.74,1.88-11.47,2.23-17.24c0.35-5.9,2.95-9.86,8.21-12.29
				c4.5-2.08,8.17-5.31,11.33-9.02c1.31-1.54,2.38-3.63,2.68-5.6c0.49-3.25,0.24-6.61,0.34-9.92c0.06-1.96-0.73-3.24-2.51-4.18
				c-5.71-3-11.46-3.25-17.32-0.58C341.28,553.23,335.59,554.35,329.35,551.74z M547.68,489.34c0-2.34,0.11-4.68-0.03-7.01
				c-0.22-3.57-1.87-5.24-5.33-5.76c-4.55-0.69-8.28,0.74-11.66,3.87c-5.2,4.81-8.9,10.74-12.97,16.41
				c-3.63,5.05-4.59,10.52-2.9,16.52c1.46,5.21,2.78,10.45,4.14,15.69c1.93,7.48,3.71,15.01,5.81,22.44
				c1.11,3.93,3.69,5.7,7.16,5.71c2.86,0.01,5.37-2.07,6.37-5.82c0.69-2.6,1.02-5.33,1.23-8.02c0.61-7.64-0.84-15.06-2.81-22.38
				c-1.09-4.03-0.48-7.28,3.25-9.59c2.58-1.6,4.19-3.98,5.43-6.69C547.61,499.8,547.73,494.59,547.68,489.34z M283.9,547.68
				c-8.9,0.57-15.66,0.99-22.43,1.44c-0.76,0.05-1.6,0.07-2.27,0.39c-5.19,2.51-7.89,9.15-6.08,14.78c0.18,0.55,0.2,1.18,0.48,1.67
				c4.59,7.93,3.88,16.47,2.5,24.92c-0.95,5.85,0.4,10.83,4.26,15.03c2.92,3.18,6.86,3.6,8.05-1.77c0.96-4.31,1.78-8.71,2.05-13.11
				c0.26-4.12,0.95-8.03,2.4-11.87c1.48-3.9,3.71-6.48,8.21-7.12c5.19-0.73,10.11-2.32,13.91-6.44c1.39-1.51,3.52-2.36,5.35-3.45
				c4.27-2.54,4.58-7.49,0.42-10.28c-1.89-1.27-4.12-2.28-6.34-2.73C290.28,548.31,286.03,547.96,283.9,547.68z M195.19,588.44
				c3.71-2.37,5-5.36,5.37-9.09c1.02-10.07,6.58-17.48,18.45-17.65c2.79-0.04,5.63-1.2,8.33-2.15c2.39-0.84,3.53-2.76,3.7-5.39
				c0.21-3.08-0.46-5.78-2.54-8.07c-4.34-4.78-8.8-9.25-15.68-10.32c-3.21-0.5-6.27-1.94-9.45-2.69c-2.99-0.71-6.04-1.24-9.1-1.5
				c-1.2-0.1-2.99,0.38-3.63,1.25c-4.14,5.6-7.29,11.7-4.53,18.85c2.05,5.3,2.38,10.6,1.02,15.94c-1.87,7.36,1.4,13.23,5.01,19.03
				C192.67,587.5,194.08,587.81,195.19,588.44z M731.17,397.22c-0.25,0.55-0.6,1.05-0.69,1.59c-0.98,5.5-1.76,11.05-2.92,16.52
				c-1.28,6.04-2.65,12.08-4.43,17.98c-1.82,6.02-0.29,10.72,3.54,15.57c5.74,7.27,11.48,14.57,15.49,23.1
				c2.86,6.07,6.61,11.72,9.91,17.47c2.24-0.17,4-0.18,5.71-0.48c1.76-0.31,3.47-0.9,5.28-1.39c-1.35-2.47-2.63-4.42-3.54-6.53
				c-3.58-8.35-7.56-16.58-10.42-25.18c-4.08-12.26-7.31-24.79-7.36-37.91c-0.01-3.66-0.54-7.34-1.13-10.96
				c-0.34-2.06-1.16-4.08-1.99-6.03C737.23,397.7,734.88,396.13,731.17,397.22z M683.91,401.04c0.96-2.22,2.21-3.92,1.44-6.29
				c-0.9-2.78-1.38-6.03-4.09-7.47c-4.45-2.36-7.12-6.52-10.84-9.58c-3.95-3.26-5.47-7.59-5.4-12.36c0.08-5.22,0.7-10.44,1.36-15.63
				c0.58-4.48,0-5.78-4.2-6.3c-2.87-0.35-5.68-0.29-8.5,1.13c-5.18,2.6-6.85,7.01-7.49,12.29c-0.83,6.83-3.28,13.1-7.29,18.66
				c-5.03,6.98-2.24,12.82,3.85,14.68c5.49,1.69,10.95,2.62,16.61,1.96c4.83-0.57,8.79,0.57,11.84,4.58
				c1.99,2.61,4.73,3.94,8.11,3.87C680.63,400.55,681.95,400.83,683.91,401.04z M138.51,510.01c-0.04,0.17-0.07,0.34-0.11,0.52
				c-0.97,0-1.95-0.06-2.91,0.01c-4.94,0.37-8.16,3.21-8.18,8.03c-0.01,2.12,0.92,4.89,2.43,6.26c4.12,3.74,4.21,8.2,2.82,12.71
				c-2.05,6.64,1.21,11.67,4.26,16.78c1.47,2.47,5.09,2.59,7.05,0.43c1.14-1.26,1.99-2.85,2.72-4.41c1.14-2.45,2.13-4.97,3.08-7.5
				c1.93-5.12,5.82-7.41,11.05-7.99c1.9-0.21,3.86-0.52,5.63-1.2c3.95-1.53,5.46-4.54,5.07-9.38c-0.27-3.39-3.54-7.33-6.58-8.03
				c-4.3-0.99-8.58-2.04-12.87-3.05C147.48,512.12,143,511.06,138.51,510.01z M1081.07,254.16c0.43-6.3-3.68-11.72-9.04-14.38
				c-3.46-1.72-7-3.28-10.59-4.71c-3.03-1.21-6.04-1.26-8.65,1.23c-2.93,2.79-3.63,5.55-2.11,9.43c0.99,2.51,2.09,4.98,3.24,7.43
				c3,6.36,4.16,12.82,1.44,19.61c-0.57,1.42-0.97,2.95-1.13,4.47c-0.39,3.65,0.02,6.95,3.94,8.84c1.07,0.52,1.86,1.87,2.49,3
				c1.32,2.36,2.39,4.87,3.7,7.24c0.65,1.17,1.43,2.38,2.46,3.19c0.61,0.48,2,0.54,2.68,0.16c0.59-0.33,0.94-1.57,0.9-2.39
				c-0.04-0.91-0.64-1.8-1-2.7c-1.85-4.53-1.85-9.09,0.25-13.47c2.25-4.71,4.65-9.36,7.28-13.87
				C1079.32,263.15,1080.84,258.88,1081.07,254.16z M716.9,371.73c0.77-1.8,1.44-2.78,1.6-3.83c0.71-4.76-0.4-9.2-2.42-13.51
				c-2.57-5.49-3.23-11.07-0.47-16.78c1.54-3.19,2.03-6.63,1.89-10.18c-0.16-4.21-1.66-5.99-5.82-6.42
				c-3.75-0.39-7.44,0.28-10.63,2.14c-4.68,2.73-9.17,5.81-13.6,8.94c-4.64,3.28-6.67,7.85-6.16,13.58c0.16,1.77,0.78,2.96,2.5,3.48
				c1.1,0.33,2.22,0.85,3.33,0.86c3.43,0.03,5.7,1.88,7.91,4.25c2.09,2.24,4.49,4.22,6.91,6.12c3.49,2.73,7.13,5.28,10.69,7.93
				C713.86,369.21,715.01,370.2,716.9,371.73z M793.6,540.1c-0.49,8.43-0.59,16.75,1.64,24.85c0.77,2.79,1.82,6.05,5.84,6.45
				c0.89,0.09,1.58,1.62,2.47,2.35c1.33,1.1,2.66,2.25,4.17,3.08c3.89,2.14,8.15,3.73,11.77,6.25c4.75,3.3,9.9,4.32,15.4,4.2
				c4.64-0.1,9.28-0.6,13.92-0.88c2.18-0.13,4.11-0.61,5.17-3.08c-1.29-0.5-2.35-0.99-3.45-1.32c-5.56-1.63-11.14-3.21-16.7-4.83
				c-3.82-1.11-7.12-3.06-9.74-6.09c-2.16-2.5-4.3-5.01-6.45-7.52c-2.4-2.8-4.44-6.05-7.27-8.31c-4.65-3.73-8.49-7.93-11.07-13.29
				C798.28,539.9,796.69,539.19,793.6,540.1z M619.9,663.52c0.56-4.75,1.06-9.16,1.63-13.56c0.12-0.94,0.46-1.86,0.77-2.77
				c1.07-3.11,2.16-6.21,3.28-9.31c0.72-1.98,1.25-4.08,2.3-5.87c2.82-4.81,4.2-9.82,4.31-15.47c0.2-10.15-6.07-15.89-13.43-20.91
				c-2.65-1.81-7.32-0.72-9.69,1.66c-2.37,2.38-3.42,5.15-1.87,8.46c0.9,1.93,1.82,3.86,2.56,5.85c1.35,3.61,3.11,7.19,3.72,10.94
				c1.08,6.67,1.7,13.44,1.98,20.2c0.18,4.22-0.55,8.49-0.96,12.74C614.13,659.33,614.93,662.39,619.9,663.52z M732.47,318.68
				c0.92,0.63,2.17,1.56,3.48,2.37c7.58,4.7,10.46,11.6,9.65,20.31c-0.2,2.12-0.07,4.28-0.01,6.42c0.03,0.96,0.09,1.98,0.43,2.85
				c1.38,3.52,5.71,4.2,7.88,1.11c1.78-2.52,3.32-5.25,3.29-8.54c-0.02-2.53,0.14-5.06,0.06-7.59c-0.09-2.84,0.63-5.27,2.44-7.54
				c3.7-4.64,4.5-10.17,4.41-15.9c-0.05-3.27-1.69-5.91-3.58-8.4c-1.05-1.38-2.51-1.83-4.15-1.05c-3.89,1.87-7.94,3.01-12.29,3.05
				c-0.71,0.01-1.6,0.33-2.09,0.82C738.65,309.99,734.32,312.61,732.47,318.68z M1018.16,349.31c-0.04,0-0.07,0-0.11,0
				c0,2.14-0.09,4.28,0.02,6.41c0.38,7.42,1.61,14.64,5.79,20.98c1.37,2.09,3.09,3.98,4.86,5.74c0.47,0.47,2.03,0.49,2.56,0.06
				c0.47-0.38,0.6-1.9,0.23-2.51c-1.43-2.31-2.77-4.47-3.17-7.34c-0.58-4.11-0.08-8.02,0.87-11.93c0.59-2.4,0.97-5.21,2.46-6.96
				c5-5.85,6.58-12.46,6.25-19.94c-0.46-10.2-8.48-15.36-17.69-11.1c-4.84,2.24-6.67,7.9-3.85,12.46c1.28,2.07,1.96,4.13,1.82,6.57
				C1018.05,344.25,1018.16,346.79,1018.16,349.31z M999.83,292.45c-0.58-2.33-0.83-4.28-1.56-6.01c-1.09-2.56-2.65-3.57-5.06-2.61
				c-3.26,1.3-6.52,0.72-9.78,0.92c-6.08,0.39-11.9,1.67-17,5.19c-4.06,2.8-5.54,7.17-4.15,11.69c1.2,3.9,3.58,5.63,9.24,5.03
				c6.51-0.69,11.18,2.34,15.75,6.1c1.03,0.84,1.96,1.87,3.11,2.49c2.69,1.46,4.33,0.63,4.02-2.32c-0.34-3.34,0.59-6.2,1.72-9.2
				C997.56,299.95,998.66,296.06,999.83,292.45z M787.6,321.54c-0.02,0-0.04,0-0.06,0c0,2.53-0.1,5.06,0.03,7.58
				c0.1,1.89,2.2,3.54,4.03,3.1c2.32-0.56,4.52-1.64,5.21-4.15c0.62-2.22,1.11-4.55,1.11-6.83c0.01-3.68,1.27-6.85,3.26-9.77
				c1.3-1.91,2.96-3.59,4.34-5.45c0.78-1.05,1.8-2.24,1.9-3.43c0.26-3.08,0.33-6.24-0.07-9.29c-0.2-1.57-1.21-3.55-2.48-4.38
				c-3.32-2.16-12.12-3.24-15.29,0.64c-1.95,2.39-4.39,3.58-7.48,3.88c-1.46,0.14-2.97,0.94-4.21,1.81
				c-2.54,1.79-2.67,5.52-0.4,7.58c0.71,0.65,1.54,1.2,2.41,1.62c6.28,3,8.58,8.04,7.7,14.77
				C787.51,319.98,787.6,320.76,787.6,321.54z M1009.47,261.24c4.27-1.32,6.38-3.46,6.39-7.71c0.01-5.36,0.16-10.78,0.97-16.07
				c1.16-7.55-1.18-13.34-7.17-17.84c-0.47-0.35-0.86-0.79-1.31-1.16c-5.43-4.47-12.24-2.91-14.51,3.77
				c-1.24,3.65-3.17,6.57-5.94,9.26c1.96,1.25,3.73,2.43,5.55,3.53c4.67,2.82,7.38,6.7,7.22,12.38c-0.11,3.89,1.38,7.17,4.39,9.73
				C1006.54,258.38,1007.9,259.77,1009.47,261.24z M822.83,281.57c1.24,1.59,2.51,3.54,4.09,5.21c3.82,4.05,4.44,8.75,3.66,14.03
				c-0.59,4.01-0.61,8.1-0.91,12.16c-0.18,2.37,1.17,3.59,3.21,4.2c4.4,1.32,7.02-0.15,8.34-4.62c0.16-0.55,0.19-1.15,0.25-1.73
				c0.74-7,3.55-13.01,8.8-17.72c2.6-2.33,3.09-5.19,3.01-8.42c-0.13-4.87-1.76-6.8-6.47-8.25c-4.99-1.54-10.05-0.55-15.06-0.94
				C827.24,275.15,824.29,276.73,822.83,281.57z M86.15,498.67c-0.64,4.61-0.43,7.83,2.58,10.61c5.01,4.63,7.38,4.58,10.62-1.45
				c1.89-3.52,4.78-4.87,8.31-5.55c0.94-0.18,1.94-0.07,2.91-0.13c5.24-0.34,6.37-1.98,4.66-7.13c-0.67-2-1.46-4.04-2.59-5.8
				c-2.82-4.36-6.59-7.74-11.74-8.98c-4.3-1.04-8.72-1.61-13.09-2.34c-4.14-0.69-6.19,0.92-6.6,5.16c-0.23,2.38,0,4.55,1.8,6.48
				C85.64,492.36,86.93,495.74,86.15,498.67z M896.71,267.01c-0.12-0.03-0.25-0.07-0.37-0.1c0-0.39,0.01-0.78,0-1.17
				c-0.16-4.66-4.91-9.22-9.53-9.1c-0.55,0.01-1.32,0.09-1.61,0.45c-3.05,3.74-7.25,4.09-11.6,4.1c-1.94,0-3.21,0.92-4.01,2.78
				c-2.01,4.67-1.04,6.99,3.95,8.91c0.72,0.28,1.45,0.53,2.17,0.82c3.31,1.32,4.88,3.73,4.5,7.3c-0.22,2.12-0.47,4.23-0.83,6.33
				c-0.52,3.05-1.39,6.05-1.64,9.12c-0.28,3.42,2.52,5.35,5.7,4.08c2.4-0.96,4.48-2.34,4.83-5.31c0.15-1.33,0.64-2.63,0.95-3.95
				c1.46-6.22,2.93-12.41,5.88-18.17C896.03,271.28,896.2,269.05,896.71,267.01z M938.45,253.59c0.69-2.34-0.8-4.28-2.76-6.11
				c-2.41-2.24-5.47-2.71-8.46-3.52c-2.5-0.68-2.63,1.79-3.96,2.63c-0.47,0.3-1.1,0.56-1.62,0.5c-4.19-0.47-5.04,2.11-5.89,5.52
				c-0.69,2.78,0.27,5.01,1.01,7.31c1.52,4.72,2.79,9.28-0.09,13.97c-0.57,0.93-0.49,2.25-0.75,3.39c-0.95,4.17-0.13,5.14,4.15,5.2
				c1.91,0.03,3.52-0.49,4.6-2c1.56-2.19,3.19-4.39,4.32-6.81c1.87-4.02,3.24-8.19,6.43-11.58
				C937.36,260.03,938.76,257.27,938.45,253.59z M962.03,228.29c-1.15,0.97-1.77,1.43-2.31,1.97c-3.46,3.44-3.49,4.51-0.08,8.15
				c7.48,7.98,6.7,11.94,2.91,19.27c-1.59,3.08-3.06,6.26-2.73,9.85c9.02,4.63,16.72,0.3,17.23-9.43c0.12-2.29,0.72-4.56,1.2-6.81
				c0.4-1.88,1.04-3.72,1.42-5.61c0.95-4.73-0.55-7.49-5.08-8.82c-2.76-0.8-5.66-1.11-8.78-1.69
				C964.72,233.18,963.52,231.01,962.03,228.29z M1006.68,172.63c-0.58,2.57-1.4,4.78-1.51,7.03c-0.16,3.5-0.38,6.87-1.68,10.21
				c-1.32,3.38-0.26,6.1,2.71,8.06c2.27,1.5,4.67,2.74,7.57,2.55c5.05-0.34,10.05-0.04,14.86,1.76c0.54,0.2,1.13,0.3,1.7,0.34
				c3.06,0.25,4.15-0.92,4.19-4.06c0.04-3.33-2.43-4.62-4.65-6.14c-6.1-4.17-11.78-8.67-14.97-15.68
				C1013.49,173.62,1010.83,172.19,1006.68,172.63z M1011.54,118.87c-1,0.9-2.2,1.86-3.27,2.95c-3.84,3.92-5.19,8.33-3.12,13.72
				c1.52,3.94,2.31,8.17,3.83,12.1c1.58,4.07,4.14,7.3,8.78,8.51c4.2,1.09,8.29,2.63,12.7,4.06c-0.27-1.59-0.44-3.26-0.85-4.87
				c-0.33-1.3-0.79-2.61-1.45-3.77c-2.61-4.51-5.17-9.07-8.07-13.4c-2.13-3.18-3.36-6.47-3.32-10.28c0.02-1.36,0.01-2.73-0.18-4.07
				C1016.18,121.1,1014.87,119.14,1011.54,118.87z M1054.05,539.7c0.81-4.32-2.25-6.79-5.16-8.91c-3.78-2.75-7.11-5.85-10.23-9.31
				c-2.04-2.26-4.39-4.46-7.03-5.9c-6.76-3.7-13.64-7.25-20.71-10.29c-4.41-1.89-8.1-4.43-11.31-7.88c-1.34-1.44-2.78-2.77-4.33-4.3
				c-1.28,3.24,1.12,4.85,1.57,6.94c1.09,5.14,4.44,8.56,8.35,11.26c4.74,3.27,10,5.77,15.03,8.63c9.25,5.25,18.5,10.5,27.72,15.8
				C1050.03,536.95,1052.01,538.37,1054.05,539.7z M42.89,437.41c0.07,0.93-0.03,1.74,0.22,2.41c2.22,5.98,4.63,11.9,6.74,17.92
				c1.67,4.78,4.19,8.2,10.05,7.77c1.22-0.87,2.71-1.78,4.04-2.89c5.55-4.66,4.46-14.19-1.9-17.78c-2.69-1.52-5.41-3.12-7.71-5.15
				C50.89,436.67,47.26,436.07,42.89,437.41z M578.94,744.99c-1.44,3.06-3.53,4.86-6.44,5.92c-1.63,0.59-3.06,1.69-4.66,2.38
				c-1.56,0.67-3.17,1.37-4.83,1.61c-3.9,0.56-3.71,0.51-4.79,4.41c-0.61,2.19,0.04,3.75,1.22,5.32c3.95,5.24,15.78,6.33,20.55,1.77
				c1.21-1.15,2.01-2.83,2.7-4.39c0.54-1.21,0.58-2.64,0.92-3.95c0.75-2.88,0.26-5.66-1.96-7.47
				C579.71,749.01,579.53,747.07,578.94,744.99z M1086.39,155.16c0.82-4.96-1.03-8.76-5.63-10.89c-4.54-2.1-8.78-0.97-12.52,1.93
				c-4.58,3.55-4.33,6.53,0.06,10.44c3.51,3.13,8.02,5.36,9.67,10.35c0.76,2.3,3.02,2.1,5,1.93c2.13-0.18,3.2-1.81,3.35-3.52
				C1086.59,162.01,1086.39,158.58,1086.39,155.16z M1031.99,92.65c0-2.19-0.06-4.32,0.02-6.46c0.07-1.95-1.11-3.18-2.67-3.14
				c-0.99,0.02-2.09,1.44-2.87,2.43c-0.41,0.52-0.29,1.49-0.34,2.25c-0.34,5.21-0.7,10.42-0.97,15.63
				c-0.28,5.39,2.95,9.49,5.3,13.89c0.4,0.74,1.5,1.16,2.35,1.59c2.18,1.09,3.51,0.57,3.78-1.68c0.4-3.28,0.68-6.61-1.26-9.6
				C1032.36,102.99,1031.14,98.03,1031.99,92.65z M823.68,604.51c-0.07-0.49-0.15-0.98-0.22-1.47c-1.66-0.08-3.64-0.77-4.92-0.12
				c-3.67,1.88-7.74,2.19-11.5,3.61c-2.33,0.88-4.7,1.67-7.05,2.49c-4.15,1.44-7.9,3.51-11.15,6.56c4.1,4,4.8,4.29,8.69,2.2
				c3.87-2.08,8.55-2.55,11.77-5.95c0.48-0.51,1.42-0.9,2.1-0.84C816.99,611.47,819.8,607.04,823.68,604.51z"/>
			<path class="st1" d="M924.87,884.58c4.25,0,7.33,0.16,10.39-0.04c3.32-0.22,6.01,0.43,8.28,3.18c1.3,1.58,3.32,2.61,5.1,3.74
				c1.45,0.91,3.03,1.6,5.12,2.67c-3.75,2.21-7.29,3.72-10.07,6.1c-2.74,2.35-4.73,5.59-7.41,8.89c-4.12-1.8-8.7-3.71-13.2-5.79
				c-3.52-1.63-6.88-3.62-10.42-5.21c-2.79-1.26-3.31-0.9-5.25,2.48c2.53,3.83,7.28,4.19,10.91,6.92c1.14,2.64,0.76,4.83-2.4,6.33
				c-3.68,1.75-5.57,5.29-7.84,8.43c-3.83,5.31-9.38,5.94-14.3,1.6c-4.94-4.36-10.33-5.21-16.59-2.93
				c-7.48,2.73-14.93,1.64-21.83-2.04c-4.66-2.48-5.41-4.5-3.91-9.58c1.52-5.13,1.96-10.31,1.65-15.56
				c-0.16-2.67-0.61-5.41-1.43-7.95c-1.71-5.35-3.33-10.8-5.76-15.83c-3.45-7.15-7.21-14.21-11.56-20.84
				c-4.16-6.36-6.75-12.99-7.11-20.55c-0.07-1.51-0.51-3.03-0.94-4.5c-1.84-6.3-2.81-12.76-3.88-19.22
				c-0.65-3.97-2.76-7.32-5.71-10.4c-4.12-4.3-7.47-9.34-11.25-13.97c-1.23-1.5-1.63-3.13-1.33-4.89
				c1.33-7.99,2.99-15.88,6.41-23.33c1.78-3.89,4.78-5.4,8.68-5.72c1.74-0.14,3.51-0.13,5.26-0.01c2.46,0.17,4.78-0.4,6.48-2.05
				c2.5-2.4,5.59-3.39,8.68-4.53c1.24-0.46,2.73-0.75,3.61-1.61c3.29-3.23,6.46-6.6,9.49-10.08c0.84-0.96,1.38-2.44,1.5-3.73
				c0.77-8.49-0.77-16.49-4.83-24.09c-4.64-8.7-11.48-15.63-18.02-22.74c-8.04-8.75-15.37-17.92-20.53-28.7
				c-0.34-0.7-1.28-1.52-1.98-1.57c-1.95-0.12-2.73-1.22-3.3-3.31c1.27-0.5,2.56-1.3,3.94-1.5c6.98-1,13.47-3.36,19.86-6.29
				c8.27-3.79,16.71-7.19,25.06-10.8c3.18-1.37,6.22-3.11,9.47-4.24c4-1.38,8.19-2.23,12.25-3.45c2.2-0.66,4.38-1.48,6.43-2.48
				c3.12-1.53,5.99-3.64,9.2-4.88c8.33-3.21,15.07-8.48,20.94-15.05c0.33-0.37,0.98-0.46,1.64-0.75
				c-0.14,10.43,3.34,19.6,10.19,26.91c5.18,5.52,6.82,11.9,8.07,18.8c1.18,6.53,1.53,13.1,1.29,19.7c-0.12,3.4,0.37,6.67,1.92,9.59
				c3.67,6.89,2.63,13.99,0.73,20.86c-2.73,9.87-5.57,19.69-7.85,29.69c-2.13,9.34-6.46,17.79-12.9,25.07
				c-9,10.17-17.93,20.41-26.76,30.74c-2.5,2.92-4.53,6.25-6.75,9.41c-1.75,2.5-3.46,5.02-5.4,7.84c0.84,2.63,1.75,5.77,2.86,8.83
				c0.72,1.98,1.46,4.06,2.7,5.72c6.68,8.94,11.63,18.56,14.03,29.61c1.34,6.16,4.12,12.02,6.32,17.99
				c1.04,2.83,3.36,4.08,6.18,4.72c2.23,0.51,4.42,1.21,6.62,1.85c6.75,1.96,13.58,2.71,20.64,2.19c6.97-0.51,14.12-1.4,20.92-0.35
				c5.54,0.85,10.85,4,15.93,6.74c3.16,1.7,3.59,5.17,2.18,8.13c-1.75,3.65-3.43,7.32-5.06,11.03c-1.49,3.41-2.36,3.88-5.67,2.07
				c-3.22-1.76-6.21-3.97-9.42-5.76c-2.71-1.51-5.56-2.61-8.78-2.89c-4.8-0.41-9.55-1.32-14.35-1.84
				C929.79,881.11,927.47,881.23,924.87,884.58z M881.94,634.42c-3.16,0.57-6.14,0.68-8.79,1.69c-2.86,1.09-5.44,2.93-8.07,4.58
				c-1.11,0.7-2.19,1.59-2.97,2.64c-1.74,2.31-3.03,5-4.95,7.12c-3.09,3.43-3.08,7.07-1.05,10.69c0.98,1.74,2.8,3.25,4.59,4.23
				c2.09,1.15,3.27,2.77,3.84,4.85c2.95,10.8,7.81,20.97,9.39,32.26c1.21,8.64,1.82,16.89-1.73,25.08c-1.23,2.84-2.22,5.79-3.27,8.7
				c-0.65,1.82-1.46,3.64-1.75,5.52c-0.63,4.11,2.32,6.97,6.33,5.9c1.91-0.51,4.02-1.77,5.18-3.33c3-4.03,5.16-8.65,8.94-12.16
				c0.94-0.87,1.3-2.37,1.95-3.56c1.12-2.05,2.15-4.15,3.4-6.11c4.88-7.68,6.39-16.58,9.14-25.03c0.59-1.8,0.61-3.84,0.61-5.77
				c0-2.77-0.7-5.29-3.05-7.16c-5.77-4.6-7.55-11-7.92-18.02c-0.33-6.2-0.93-12.38-1.09-18.58c-0.11-4.07-1.81-7-4.86-9.48
				C884.33,637.28,883.14,635.7,881.94,634.42z M844.18,787.34c0.42,3.17,0.27,6.42,1.32,9.23c5.69,15.23,8.43,31.39,14.85,46.36
				c3.04,7.09,4.74,14.73,8.95,21.35c2.71,4.26,5.1,8.71,7.68,13.05c0.26,0.45,0.83,0.71,1.25,1.06c1.45-1.09,2.82-2.11,4.27-3.2
				c-0.19-1.1-0.34-2.05-0.52-2.99c-0.69-3.58-1.37-7.17-2.09-10.75c-0.56-2.82-0.59-5.94-1.87-8.39c-3.26-6.23-5.4-12.86-7.7-19.43
				c-2.82-8.03-5.73-16.03-8.11-24.19c-2.22-7.6-3.7-15.4-5.69-23.07c-0.9-3.44-1.43-7.1-3.58-9.83
				C850.01,780.16,847.21,783.61,844.18,787.34z M839.05,776.1c5.22-6.9,8.93-14.36,12.44-22.27c-5.94-0.65-8.1,3.84-11.32,6.93
				c-2.25,0-4.61-0.21-6.91,0.05c-3.75,0.43-5.98,3.78-4.47,7.16c1.35,3.02,2.46,6.71,6.98,6.78
				C836.81,774.77,837.83,775.57,839.05,776.1z"/>
			<path class="st1" d="M1160.63,513.37c0.99-12.66-4.88-21.94-14.77-29.48c-1.6,4.52-4.43,8-8.35,10.69
				c-1.74,1.19-3.03,3.01-4.63,4.43c-1.14,1.01-2.39,1.93-3.7,2.72c-1.4,0.85-3.11,1.18-4.25-0.18c-1.09-1.29-0.7-2.82,0.31-4.26
				c2.45-3.5,3.05-7.12,1.9-11.48c-0.82-3.08-0.3-6.56-1.81-9.59c-1.85-3.71-4.11-6.9-8.43-8.27c-2.75-0.87-5.27-2.45-7.88-3.73
				c-5.91-2.89-11.82-5.55-18.44-6.75c-4.29-0.77-8.7-2.48-12.33-4.87c-5.76-3.8-12.12-5.76-18.55-7.59
				c-2.7-0.77-4.35-2.39-5.82-4.43c-1.26-1.75-1.29-3.57,0.13-5.35c4.96-6.21,9.71-12.6,14.88-18.62c3.53-4.12,6.46-8.5,8.68-13.42
				c0.78-1.74,1.87-3.4,3.1-4.86c1.73-2.06,4.01-2.09,6.04-0.13c1.39,1.34,2.73,2.8,3.76,4.42c3.51,5.53,7.39,10.74,9.94,16.97
				c1.91,4.67,6.61,7.92,11.75,8.74c7.49,1.2,13.21,4.91,18.51,10.02c3.75,3.61,8.16,6.52,12.19,9.84c2.39,1.97,4.73,4.03,6.92,6.22
				c6.16,6.18,13.44,10.37,21.86,12.59c1.68,0.44,3.36,0.93,5.06,1.2c9.3,1.47,13.94,8.23,17.92,15.72c0.9,1.7,1.43,3.59,2.35,5.28
				c2.48,4.53,3.66,9.32,3.47,14.49c-0.12,3.31-0.04,6.62-0.02,9.94c0.02,1.94-0.52,3.46-2.67,3.87c-2.22,0.43-3.77-0.34-4.2-2.9
				c-1.02-6.18-5.54-10.05-9.06-14.59c-0.23-0.3-0.5-0.63-0.83-0.8c-3.56-1.88-7.14-3.74-11.05-5.78c-0.08,1.5-0.36,3.13-0.22,4.74
				c0.48,5.69-2.29,10.04-5.64,14.18C1165.31,514.08,1163.56,514.46,1160.63,513.37z M1081.62,429.35
				c-0.88,2.18,0.44,3.33,1.96,4.29c2.6,1.63,5.23,3.21,7.9,4.74c1.16,0.66,2.39,1.47,3.66,1.64c5.3,0.72,10.63,1.21,16.24,1.83
				c-7.4-4.83-16.16-6.79-22.12-12.49C1086.4,429.35,1084,429.35,1081.62,429.35z"/>
			<path class="st1" d="M522.41,988.42c-0.12-8.37,3.49-13.61,12.29-15.24c4.93-0.92,9.61-1,14.26,0.79
				c2.22,0.86,3.95,2.17,5.06,4.5c4.88,10.23,4.85,25.38-0.51,35.33c-1.23,2.29-3.18,4.19-5.1,6.65c-0.78-1.92-1.45-3.3-1.91-4.76
				c-2.1-6.74-5.94-12.54-9.7-18.4c-1.66-2.58-4.24-3.87-6.93-5.1C527.28,991.01,524.77,989.62,522.41,988.42z"/>
			<path class="st1" d="M684.59,988.87c-1.52-1.43-3.11-2.78-4.53-4.3c-1.92-2.05-4.18-3.33-6.89-4.13
				c-7.56-2.24-15.25-3.02-23.01-1.71c-3.66,0.62-6.51-1.14-8.94-2.93c-1.44-1.06-2.11-4.27-1.83-6.34
				c0.45-3.34,1.53-6.77,3.12-9.75c3.38-6.33,9.42-7.08,15.6-5.73c6.76,1.47,12.73,4.51,16.62,10.78c1.83,2.95,4.32,5.48,6.47,8.24
				c2.19,2.82,3.75,5.82,3.53,9.61c-0.11,1.83,0.49,3.7,0.77,5.56C685.19,988.41,684.89,988.64,684.59,988.87z"/>
			<path class="st1" d="M617.77,1010.93c-0.64-0.82-1.61-1.56-1.87-2.49c-1.91-6.75-7.65-9.83-12.77-13.5
				c-0.56-0.4-1.51-0.5-2.23-0.4c-4.4,0.59-8.35-1.22-12.42-2.28c-3.27-0.84-4.19-2.19-4.53-5.75c-0.11-1.16-0.2-2.31-0.34-3.46
				c-0.19-1.68,0.35-2.93,1.85-3.84c1.81-1.09,3.43-2.52,5.31-3.47c5.6-2.84,11.15-3.85,17.01-0.2c6.18,3.84,10.11,8.84,10.45,16.32
				c0.05,1.13,0.46,2.26,0.79,3.36c1.5,5.13,0.17,10.19,0.18,15.28C618.72,1010.65,618.25,1010.79,617.77,1010.93z"/>
			<path class="st1" d="M979.25,887.54c-1.64-0.85-2.99-1.55-4.78-2.48c0.53-1.14,0.75-2.77,1.64-3.28c1.6-0.92,3.62-1.73,5.39-1.59
				c3.44,0.26,6.72,1.21,9.58,3.58c5.91,4.89,8.59,11.26,9.36,18.66c0.44,4.22,0.96,8.43,1.33,12.65c0.11,1.31-0.13,2.65-0.22,4
				c-2.48,1.03-4.07,0.84-5.31-1.74c-2.42-5.02-6.94-8.37-11.04-11.79c-2.32-1.93-6.05-2.19-9.17-3.12
				c-0.91-0.27-2.02-0.01-2.85-0.4c-1.27-0.61-2.27-1.66-1.39-3.27c0.65-1.17,1.42-2.28,2.17-3.39
				C975.67,892.8,977.4,890.26,979.25,887.54z"/>
			<path class="st1" d="M945.43,952c-2.57,1.02-4.1,0.72-5.19-1.53c-2.36-4.91-6.29-8.28-11.09-10.71
				c-2.59-1.31-5.18-2.63-7.74-4.01c-2.07-1.11-4.09-2.14-6.58-1.88c-2.64,0.28-4.33-1.18-5.61-3.52c2.32-2.96,4.53-5.87,6.83-8.72
				c1.64-2.03,3.53-3.65,6.46-3.13c0.56,0.1,1.19,0.06,1.73-0.11c2-0.62,3.9-1.87,6.08-0.4c2.82,1.89,6.4,2.72,7.81,6.47
				c0.74,1.96,2.08,3.72,3.33,5.45c1.18,1.63,1.94,3.25,1.92,5.35c-0.02,1.49,0.46,3.02,0.93,4.47
				C945.6,943.67,945.9,947.66,945.43,952z"/>
			<path class="st1" d="M945.13,912.99c3.72-5.41,9.08-7.5,14.7-9.11c0.65-0.19,1.48,0.02,2.16,0.25c8,2.82,13.63,8.04,15.98,16.35
				c1.31,4.63,2.37,9.34,3.54,14.01c0.09,0.37,0.27,0.86,0.11,1.13c-0.55,0.96-1.04,2.32-1.89,2.64c-0.81,0.31-2.35-0.19-3.02-0.87
				c-1.75-1.77-3.02-4.03-4.81-5.74c-2.84-2.7-6.1-4.72-10.24-5.02c-2.95-0.21-5.2-1.31-6.89-4.29c-1.56-2.77-4.4-4.82-6.74-7.13
				C947.25,914.45,946.28,913.86,945.13,912.99z"/>
			<path class="st1" d="M922.17,910.34c-0.32-0.16-0.65-0.33-0.97-0.49c0.29,0.2,0.58,0.39,0.87,0.59L922.17,910.34z"/>
			<path class="st1" d="M922.08,910.43c0.29,0.13,0.58,0.27,0.87,0.4c-0.26-0.17-0.52-0.33-0.77-0.5L922.08,910.43z"/>
			<path class="st1" d="M1126.22,50.23c7.07-0.8,13.42,2.06,19.84,4.05c6.53,2.02,9.07,11.94,4.34,16.83
				c-3.89,4.02-8.36,7.49-12.66,11.09c-1.04,0.87-2.38,1.06-3.79,0.33c-2.58-1.32-5.26-2.42-7.87-3.69
				c-4.03-1.97-8.11-3.61-12.74-3.42c-2.52,0.1-5.06-0.12-7.59-0.09c-4.99,0.05-8.84-2.76-12.64-5.33c-2.73-1.84-2.56-7.8-0.4-10.39
				c3.51-4.21,7.71-6.84,13.35-7.26C1112.79,51.86,1119.5,50.96,1126.22,50.23z"/>
			<path class="st1" d="M1281.73,83.93c-1-0.16-3.35,0.01-5.12-0.93c-4.29-2.27-8.61-1.79-13.06-1.18c-1.7,0.23-3.54,0.52-5.14,0.1
				c-3.05-0.82-3.67-3.78-1.12-5.68c5.05-3.76,10.72-6.19,17.1-6.61c1.55-0.1,3.14,0.14,4.67-0.08c5.87-0.84,9.57,2.47,12.76,6.61
				c2.28,2.96,1.07,6.16-2.55,7.25c-0.37,0.11-0.77,0.14-1.15,0.17C1286.37,83.68,1284.62,83.77,1281.73,83.93z"/>
		</g>
	</g>
</g>
</svg>
