<svg xmlns="http://www.w3.org/2000/svg" viewBox="0 0 400 400"><title>logo</title><rect width="400" height="400" style="fill:#0000d8"/><polygon points="100 300 141.67 300 141.67 100 100 100 100 300" style="fill:#fff"/><polygon points="258.33 300 300 300 300 100 258.33 100 258.33 300" style="fill:#fff"/><path d="M218.84,162.51a22.62,22.62,0,0,0-19,10.6,22.62,22.62,0,0,0-19-10.6c-12.61,0-22.83,10.6-22.83,23.68,0,27.62,30.44,41.43,41.85,51.3,11.41-9.87,41.85-23.68,41.85-51.3,0-13.08-10.22-23.68-22.83-23.68" style="fill:#fff"/></svg>