<svg
    xmlns="http://www.w3.org/2000/svg"
    viewBox="0 0 1274 129"
    id="vector"
    width="1274px"
    height="129px">
    <path
        id="path"
        d="M 22.6 106.2 L 63.6 106.2 L 63.6 127.6 L -0.1 127.6 L -0.1 1.6 L 22.6 1.6 L 22.6 106.2 Z M 147.7 82.1 C 147.9 83.8 148.1 85.2 148.2 86.3 C 148.3 87.4 148.3 88.1 148.3 88.4 C 148.4 89.7 148.4 91 148.4 92.2 C 148.3 93.4 148.2 94.6 147.9 95.8 C 147.1 100.5 145.4 104.8 143 108.8 C 140.6 112.8 137.6 116.3 134.1 119.2 C 130.6 122.1 126.6 124.5 122.2 126.1 C 117.8 127.8 113.2 128.6 108.4 128.6 C 103.7 128.6 99.2 127.8 94.8 126.1 C 90.4 124.4 86.5 122.1 82.9 119.2 C 79.4 116.3 76.4 112.8 74 108.8 C 71.6 104.8 70 100.4 69.1 95.8 C 68.9 94.6 68.7 93.4 68.7 92.2 C 68.6 91 68.6 89.7 68.6 88.4 C 68.7 88.2 68.8 87.5 68.9 86.3 C 69 85.2 69.1 83.8 69.4 82.1 C 69.8 79.7 70.1 77 70.5 74 C 70.9 71 71 68.1 71 65.4 C 71 62.6 70.7 59.6 70.2 56.2 C 69.7 52.8 69.3 49.8 69 47 C 68.8 44.8 68.6 43 68.6 41.5 L 68.6 38.5 C 68.8 33.2 70.1 28.3 72.3 23.6 C 74.5 19 77.5 15 81.1 11.5 C 84.8 8.1 88.9 5.4 93.6 3.4 C 98.3 1.4 103.2 0.4 108.4 0.4 C 113.6 0.4 118.5 1.4 123.3 3.4 C 128 5.4 132.2 8.1 135.9 11.5 C 139.6 14.9 142.5 18.9 144.8 23.6 C 147.1 28.2 148.3 33.2 148.4 38.5 L 148.4 41.5 C 148.4 43 148.3 44.8 148 47 C 147.8 49.8 147.4 52.8 146.8 56.2 C 146.3 59.6 146 62.6 146 65.4 C 146 68.2 146.2 71 146.5 74 C 147 77 147.3 79.7 147.7 82.1 Z M 125.2 79.5 C 125 77.5 124.7 75.2 124.5 72.8 C 124.3 70.4 124.1 68.1 124.1 65.8 C 124.1 63.2 124.3 60.3 124.6 57.3 C 125 54.2 125.3 51.4 125.5 48.8 C 125.6 47.5 125.7 46.3 125.8 45.3 C 125.9 44.3 125.9 43.4 125.9 42.5 L 125.9 40.2 C 125.9 37.8 125.4 35.6 124.4 33.5 C 123.4 31.5 122.1 29.7 120.4 28.1 C 118.8 26.5 116.9 25.3 114.8 24.4 C 112.7 23.5 110.6 23 108.4 23 C 106.2 23 104.1 23.5 102.1 24.4 C 100.1 25.3 98.2 26.5 96.6 28.1 C 95 29.7 93.7 31.5 92.6 33.5 C 91.6 35.5 91.1 37.8 91.1 40.2 L 91.1 42.5 C 91.2 43.3 91.3 44.3 91.3 45.3 C 91.3 46.3 91.4 47.5 91.5 48.8 C 91.7 51.4 92 54.3 92.4 57.3 C 92.8 60.3 92.9 63.2 92.9 65.8 C 92.9 68.1 92.7 70.4 92.4 72.8 C 92.1 75.2 91.8 77.4 91.6 79.5 C 91.5 80.8 91.4 82.1 91.3 83.2 C 91.2 84.3 91.2 85.4 91.2 86.3 C 91.1 87.3 91 88.2 91 89 C 91 91.3 91.5 93.5 92.5 95.6 C 93.5 97.7 94.8 99.5 96.5 101.1 C 98.1 102.7 99.9 103.9 102 104.8 C 104 105.7 106.1 106.2 108.3 106.2 C 110.5 106.2 112.6 105.7 114.7 104.8 C 116.8 103.9 118.7 102.7 120.3 101.1 C 121.9 99.5 123.2 97.7 124.3 95.6 C 125.3 93.5 125.8 91.3 125.8 89 C 125.8 88.2 125.7 87.3 125.6 86.3 C 125.7 84.5 125.6 82.2 125.2 79.5 Z M 215 89.1 C 215 86.5 215.1 84.1 215.2 82 C 215.3 79.9 215.5 77.9 215.7 75.9 C 215.9 73.9 216.2 71.9 216.6 69.8 C 217 67.7 217.5 65.4 218 62.9 C 218.7 59.4 219.1 55.9 219.1 52.5 C 219 50.2 218.7 48 218.4 45.8 C 218 43.6 217.7 41.4 217.5 39.1 C 217.3 36.6 217 34 216.6 31.5 C 216.2 28.9 215.9 26.4 215.7 23.9 C 215.6 22.1 215.5 20 215.4 17.5 C 215.3 15 215.3 12.7 215.3 10.4 C 215.2 7.9 215.1 5.2 215.1 2.5 L 215.1 1.6 L 237.8 1.6 L 237.8 2.5 C 237.8 5.4 237.8 8.2 237.7 11.1 C 237.6 13.9 237.7 16.7 237.8 19.5 C 237.8 23.3 238 27.1 238.3 30.7 C 238.7 34.4 239.1 38.1 239.7 41.8 C 239.9 43.5 240.2 45.2 240.4 46.9 C 240.6 48.6 240.8 50.4 240.9 52 C 241.1 54.2 241.1 56.3 240.8 58.5 C 240.5 60.7 240.2 62.8 239.8 64.8 C 239.2 68.3 238.7 71.7 238.4 75.1 C 238 78.5 237.8 82 237.7 85.5 L 237.5 89.1 L 237.5 90.7 C 237.4 96 236.3 100.9 234.2 105.6 C 232.1 110.2 229.3 114.2 225.9 117.7 C 222.5 121.1 218.5 123.8 213.9 125.8 C 209.3 127.8 204.5 128.8 199.3 128.8 C 194 128.8 189.1 127.8 184.4 125.7 C 179.8 123.7 175.7 120.8 172.3 117.2 C 168.8 113.6 166.1 109.4 164 104.6 C 162 99.8 160.9 94.6 160.9 89.1 C 160.9 86.5 161 84.1 161.1 82 C 161.2 79.9 161.4 77.9 161.6 75.9 C 161.8 73.9 162.2 71.9 162.6 69.8 C 163 67.7 163.5 65.4 164 62.9 C 164.7 59.2 165 55.7 164.9 52.5 C 164.8 50.2 164.6 48 164.3 45.8 C 164 43.6 163.7 41.4 163.5 39.1 C 163.1 36.6 162.8 34 162.4 31.5 C 162 28.9 161.7 26.4 161.5 23.9 C 161.4 22.1 161.3 20 161.2 17.5 C 161.1 15 161.1 12.7 161.1 10.4 C 161 7.9 160.9 5.2 160.9 2.5 L 160.9 1.6 L 183.6 1.6 L 183.6 19.4 C 183.6 23.2 183.8 27 184.2 30.6 C 184.6 34.3 185.1 38 185.7 41.7 L 186.3 46.8 C 186.5 48.5 186.7 50.3 186.9 51.9 C 187.1 54.1 187.1 56.2 186.7 58.4 C 186.3 60.6 186 62.7 185.8 64.7 C 185.2 68.2 184.7 71.6 184.3 75 C 183.9 78.4 183.6 81.9 183.5 85.4 L 183.5 89 C 183.5 91.3 183.9 93.5 184.8 95.6 C 185.6 97.7 186.7 99.5 188.1 101.1 C 189.5 102.7 191.1 103.9 193.1 104.8 C 195 105.7 197.1 106.2 199.2 106.2 C 201.4 106.2 203.4 105.7 205.3 104.8 C 207.2 103.9 208.9 102.7 210.3 101.1 C 211.7 99.5 212.8 97.7 213.6 95.6 C 214.6 93.5 215 91.4 215 89.1 Z M 290.1 1.6 C 295 1.6 299.6 2.5 304 4.4 C 308.3 6.3 312.1 8.8 315.2 12 C 318.4 15.2 320.9 19 322.8 23.3 C 324.7 27.6 325.6 32.2 325.6 37.2 L 325.6 92 C 325.6 96.9 324.7 101.5 322.8 105.9 C 320.9 110.2 318.4 114 315.2 117.2 C 312 120.4 308.3 123 304 124.8 C 299.7 126.7 295.1 127.6 290.1 127.6 L 250.3 127.6 L 250.5 89.3 C 250.4 86.5 250.5 83.8 250.9 81.2 C 251.3 78.6 251.7 75.9 252.3 73.3 C 252.7 71.6 253 69.9 253.4 68.3 C 253.8 66.6 253.8 64.9 253.6 63.1 C 253.4 61.4 253.1 59.7 253 58 C 252.8 56.3 252.5 54.6 252.2 52.9 C 251.6 50.3 251.1 47.7 250.8 45.1 C 250.5 42.5 250.4 39.9 250.5 37.3 L 250.3 1.8 L 290.1 1.8 Z M 303 38.7 C 303 34.7 301.6 31.4 298.8 28.5 C 296 25.7 292.6 24.3 288.6 24.3 L 273 24.3 L 273 37.8 C 273 40.8 273.2 43.8 273.6 46.8 C 274 49.8 274.5 52.8 275.1 55.8 C 276.2 60.5 276.4 65.2 275.6 70 C 275.4 71.7 275.1 73.4 274.8 75.1 C 274.5 76.8 274.2 78.6 274 80.4 C 273.5 84.4 273.2 88.4 273.2 92.4 C 273.1 96.4 273 100.5 272.9 104.5 L 272.9 104.9 L 288.6 104.9 C 292.6 104.9 295.9 103.5 298.8 100.8 C 301.6 98 303 94.6 303 90.5 L 303 38.7 Z M 401.8 23 L 360.8 23 L 360.8 48.9 L 395.2 48.9 L 395.2 70.5 L 360.8 70.5 L 360.8 106.1 L 401.8 106.1 L 401.8 127.5 L 338.1 127.5 L 338.1 1.6 L 401.8 1.6 L 401.8 23 Z M 473.1 59.4 C 478.1 62.9 482 67.1 484.8 71.9 C 487.6 76.8 488.9 82.4 488.9 88.9 L 488.9 127.6 L 466.4 127.6 L 466.4 88.9 C 466.4 84.3 465 80.5 462.1 77.5 C 459.2 74.5 455.5 72.9 450.9 72.9 L 436.9 72.9 L 436.9 127.6 L 414.4 127.6 L 414.4 1.6 L 449.5 1.6 C 454.4 1.6 459.1 2.5 463.5 4.2 C 467.9 5.9 471.7 8.3 474.9 11.4 C 478.1 14.5 480.7 18 482.6 22.1 C 484.5 26.2 485.4 30.5 485.4 35.1 C 485.4 39.9 484.2 44.4 481.9 48.5 C 479.5 52.6 476.6 56.3 473.1 59.4 Z M 448.1 47.3 C 451.6 47.3 454.5 46.1 457 43.7 C 459.5 41.3 460.7 38.4 460.7 35.1 C 460.7 31.6 459.5 28.7 457 26.4 C 454.5 24.1 451.6 22.9 448.1 22.9 L 436.9 22.9 L 436.9 47.4 L 448.1 47.4 Z M 580.2 23 L 558.8 23 L 558.8 1.6 L 624 1.6 L 624 23 L 602.8 23 L 602.8 24.3 C 602.8 28.7 602.9 32.7 603.3 36.2 C 603.6 39.7 603.9 42.9 604.2 45.7 C 604.5 48.6 604.8 51.4 605.1 54.1 C 605.4 56.8 605.6 59.7 605.6 62.6 C 605.6 65.6 605.4 68.7 605.1 71.9 C 604.8 75.1 604.5 78.1 604.2 81.1 C 603.9 84 603.6 86.8 603.3 89.3 C 603 91.8 602.8 93.9 602.8 95.4 L 602.8 127.6 L 580.3 127.6 L 580.3 101 C 580.2 99.8 580.2 97.7 580.3 94.6 C 580.4 91.5 580.7 88.1 581.2 84.2 C 581.7 81 582.2 77.7 582.9 74.3 C 583.6 70.9 583.9 67.3 583.9 63.5 C 583.9 59.3 583.6 55.3 582.9 51.4 C 582.2 47.5 581.7 43.9 581.2 40.5 C 580.6 36.7 580.3 33.3 580.3 30.5 L 580.3 23 Z M 684.3 89.6 C 684.4 84.8 684.7 80.3 685.1 76.2 C 685.5 72.1 686.2 67.6 687.2 62.8 C 687.9 59.1 688.2 55.6 688.1 52.4 C 688.1 50.1 687.9 47.9 687.6 45.7 C 687.2 43.5 686.9 41.3 686.7 39 C 686.3 36.5 686 33.9 685.6 31.4 C 685.2 28.8 685 26.3 684.9 23.8 C 684.8 22 684.7 19.9 684.6 17.4 C 684.5 14.9 684.4 12.6 684.3 10.3 L 684.3 1.6 L 706.8 1.6 L 706.8 19.4 C 706.8 23.2 707 27 707.4 30.6 C 707.8 34.3 708.3 38 708.9 41.7 C 709.1 43.4 709.4 45.1 709.6 46.8 C 709.8 48.5 710 50.3 710.1 51.9 C 710.3 54.1 710.3 56.2 710 58.4 C 709.7 60.6 709.4 62.7 709 64.7 C 708.4 68.2 707.9 71.6 707.6 75 C 707.2 78.4 707 81.9 706.9 85.4 C 706.8 86.4 706.7 87.3 706.8 88.3 C 706.9 89.3 706.9 90.2 706.9 91.2 L 706.7 127.6 L 684.2 127.6 L 684.2 111 L 656.3 111 L 656.3 127.6 L 633.6 127.6 L 633.8 93.9 C 633.8 88.6 634 83.4 634.4 78.2 C 634.8 73 635.5 67.9 636.5 62.7 C 636.9 61 637.2 59.3 637.4 57.5 C 637.6 55.7 637.7 54 637.6 52.3 C 637.5 50 637.2 47.8 636.9 45.6 C 636.5 43.4 636.2 41.2 636 38.9 C 635.8 36.4 635.5 33.8 635.1 31.3 C 634.7 28.7 634.4 26.2 634.2 23.7 C 634.1 21.9 634 19.8 633.9 17.3 C 633.8 14.8 633.8 12.5 633.8 10.2 C 633.7 7.7 633.6 5 633.6 2.3 L 633.6 1.6 L 656.3 1.6 L 656.3 19.4 C 656.3 23.2 656.5 27 656.8 30.6 C 657.2 34.3 657.6 38 658.2 41.7 C 658.4 43.4 658.7 45.1 658.9 46.8 C 659.1 48.5 659.4 50.3 659.6 51.9 C 659.8 54.1 659.8 56.2 659.4 58.4 C 659 60.6 658.7 62.7 658.3 64.7 C 657.7 68.2 657.2 71.6 656.9 75 C 656.5 78.4 656.3 81.9 656.2 85.4 L 656.2 89.5 L 684.3 89.5 Z M 811.3 127.6 L 787.4 127.6 L 783.3 112.8 L 745.3 112.8 L 741.2 127.6 L 717.3 127.6 L 726.7 94.5 C 727.5 91.4 728.4 88.3 729.4 85.3 C 730.4 82.3 731.6 79.4 733.2 76.5 C 734.4 74.1 735.4 71.9 736.3 70 C 737.1 68.1 737.8 66.2 738.4 64.3 C 738.9 62.4 739.4 60.4 739.8 58.3 C 740.2 56.1 740.5 53.7 740.8 51.1 C 741.2 48 741.5 45 741.9 42 C 742.3 39.1 742.9 36.1 743.7 33.1 L 752.5 1.6 L 776.4 1.6 L 785.2 33.1 C 785.9 36.1 786.5 39.1 786.9 42 C 787.3 44.9 787.6 48 787.9 51.1 C 788.5 56 789.3 60.4 790.4 64.2 C 791.5 68 793.2 72.1 795.6 76.4 C 797.2 79.3 798.4 82.2 799.4 85.2 C 800.4 88.2 801.3 91.3 802.1 94.4 L 811.3 127.6 Z M 777.3 91.4 C 777.2 91.2 777.1 90.9 777.1 90.5 C 776.1 88.2 775.3 86 774.6 83.7 C 773.9 81.5 773 79.2 772.1 76.9 C 771.1 74.5 770.3 72 769.7 69.5 C 769 67 768.5 64.5 768.2 61.9 C 767.8 59 767.3 56.1 766.7 53.1 C 766 50.1 765.2 47.2 764.3 44.5 C 763.3 47.3 762.6 50.1 762 53.1 C 761.4 56.1 760.9 59 760.4 61.9 C 760 64.4 759.6 66.9 759 69.5 C 758.4 72 757.6 74.5 756.7 76.9 C 755.7 79.2 754.9 81.4 754.1 83.7 C 753.3 85.9 752.5 88.2 751.7 90.5 C 751.7 90.6 751.7 90.7 751.6 90.9 C 751.5 91 751.5 91.2 751.5 91.4 L 777.3 91.4 Z M 896.3 1.6 L 896.3 127.6 L 873.8 127.6 L 873.8 85.7 L 843.9 43.9 L 843.9 127.6 L 821.4 127.6 L 821.4 1.6 L 843.9 1.6 L 873.8 43.2 L 873.8 1.6 L 896.3 1.6 Z M 991.5 106.2 L 1032.5 106.2 L 1032.5 127.6 L 968.8 127.6 L 968.8 1.6 L 991.5 1.6 L 991.5 106.2 Z M 1116.6 82.1 C 1116.8 83.8 1117 85.2 1117 86.3 C 1117.1 87.4 1117.1 88.1 1117.1 88.4 C 1117.2 89.7 1117.2 91 1117.2 92.2 C 1117.1 93.4 1117 94.6 1116.7 95.8 C 1115.9 100.5 1114.2 104.8 1111.8 108.8 C 1109.4 112.8 1106.4 116.3 1102.9 119.2 C 1099.4 122.1 1095.4 124.5 1091 126.1 C 1086.6 127.8 1082 128.6 1077.2 128.6 C 1072.5 128.6 1068 127.8 1063.6 126.1 C 1059.2 124.4 1055.3 122.1 1051.7 119.2 C 1048.2 116.3 1045.2 112.8 1042.8 108.8 C 1040.4 104.8 1038.8 100.4 1037.9 95.8 C 1037.7 94.6 1037.5 93.4 1037.4 92.2 C 1037.3 91 1037.3 89.7 1037.3 88.4 C 1037.4 88.2 1037.5 87.5 1037.6 86.3 C 1037.7 85.2 1037.8 83.8 1038 82.1 C 1038.4 79.7 1038.7 77 1039.1 74 C 1039.5 71 1039.6 68.1 1039.6 65.4 C 1039.6 62.6 1039.3 59.6 1038.8 56.2 C 1038.3 52.8 1037.9 49.8 1037.6 47 C 1037.4 44.8 1037.2 43 1037.2 41.5 L 1037.2 38.5 C 1037.4 33.2 1038.7 28.3 1040.9 23.6 C 1043.1 19 1046.1 15 1049.7 11.5 C 1053.4 8.1 1057.5 5.4 1062.2 3.4 C 1066.9 1.4 1071.8 0.4 1077 0.4 C 1082.2 0.4 1087.1 1.4 1091.8 3.4 C 1096.5 5.4 1100.7 8.1 1104.4 11.5 C 1108.1 14.9 1111 18.9 1113.3 23.6 C 1115.6 28.2 1116.8 33.2 1116.9 38.5 L 1116.9 41.5 C 1116.9 43 1116.8 44.8 1116.5 47 C 1116.3 49.8 1115.9 52.8 1115.3 56.2 C 1114.8 59.6 1114.5 62.6 1114.5 65.4 C 1114.5 68.2 1114.7 71 1115 74 C 1115.9 77 1116.3 79.7 1116.6 82.1 Z M 1094.1 79.5 C 1093.9 77.5 1093.6 75.2 1093.4 72.8 C 1093.2 70.4 1093 68.1 1093 65.8 C 1093 63.2 1093.2 60.3 1093.5 57.3 C 1093.9 54.2 1094.2 51.4 1094.4 48.8 C 1094.5 47.5 1094.6 46.3 1094.7 45.3 C 1094.8 44.3 1094.8 43.4 1094.8 42.5 L 1094.8 40.2 C 1094.8 37.8 1094.3 35.6 1093.3 33.5 C 1092.3 31.5 1091 29.7 1089.3 28.1 C 1087.7 26.5 1085.8 25.3 1083.7 24.4 C 1081.6 23.5 1079.5 23 1077.3 23 C 1075.1 23 1073 23.5 1071 24.4 C 1069 25.3 1067.1 26.5 1065.5 28.1 C 1063.9 29.7 1062.6 31.5 1061.5 33.5 C 1060.5 35.5 1060 37.8 1060 40.2 L 1060 42.5 C 1060.1 43.3 1060.2 44.3 1060.2 45.3 C 1060.2 46.3 1060.3 47.5 1060.4 48.8 C 1060.6 51.4 1060.9 54.3 1061.3 57.3 C 1061.7 60.4 1061.8 63.2 1061.8 65.8 C 1061.8 68.1 1061.6 70.4 1061.4 72.8 C 1061.1 75.2 1060.8 77.4 1060.6 79.5 C 1060.5 80.8 1060.4 82.1 1060.3 83.2 C 1060.2 84.3 1060.2 85.4 1060.2 86.3 C 1060.1 87.3 1060 88.2 1060 89 C 1060 91.3 1060.5 93.5 1061.5 95.6 C 1062.5 97.7 1063.8 99.5 1065.5 101.1 C 1067.1 102.7 1068.9 103.9 1071 104.8 C 1073 105.7 1075.1 106.2 1077.3 106.2 C 1079.5 106.2 1081.6 105.7 1083.7 104.8 C 1085.8 103.9 1087.7 102.7 1089.3 101.1 C 1090.9 99.5 1092.2 97.7 1093.3 95.6 C 1094.3 93.5 1094.8 91.3 1094.8 89 C 1094.8 88.2 1094.7 87.3 1094.6 86.3 C 1094.7 84.5 1094.5 82.2 1094.1 79.5 Z M 1161.6 68.9 C 1162.6 66 1163.5 63.2 1164.5 60.4 C 1165.5 57.6 1166.4 54.7 1167.4 51.9 C 1168 49.9 1168.4 47.8 1168.7 45.6 C 1168.9 43.4 1169.2 41.3 1169.4 39.3 C 1169.8 34.3 1170.5 29.2 1171.6 24 C 1172.7 18.8 1173.8 13.8 1175 8.9 C 1175.2 7.6 1175.5 6.4 1175.9 5.2 C 1176.3 4.1 1176.6 2.9 1176.8 1.7 L 1200 1.7 C 1199.8 2.7 1199.5 3.6 1199.3 4.6 C 1199.1 5.4 1198.9 6.3 1198.8 7.2 C 1198.7 8.1 1198.5 8.9 1198.3 9.4 C 1197.7 12.2 1197 15 1196.2 17.9 C 1195.4 20.8 1194.8 23.6 1194.3 26.4 C 1193.5 31.8 1192.9 37.4 1192.7 43.1 C 1192.3 51 1190.7 58.5 1187.7 65.6 C 1185.7 70.4 1184 75.2 1182.7 80.1 C 1181.4 85 1180.3 89.9 1179.4 95 L 1172 127.8 L 1151.5 127.8 L 1144.3 95 C 1143.2 90 1142.1 85 1140.9 80.1 C 1139.7 75.2 1138.1 70.4 1136 65.6 C 1132.9 58.5 1131.2 51 1131 43.1 C 1130.6 37.2 1130.1 31.6 1129.4 26.4 C 1128.9 23.6 1128.3 20.8 1127.4 17.9 C 1126.6 15 1125.8 12.2 1125.2 9.4 C 1125.1 8.8 1124.9 8 1124.7 7.2 C 1124.5 6.3 1124.3 5.4 1124.1 4.6 C 1123.9 3.6 1123.6 2.7 1123.4 1.7 L 1146.8 1.7 C 1147 2.9 1147.3 4.1 1147.6 5.2 C 1147.9 6.3 1148.2 7.6 1148.4 8.9 C 1149.6 13.8 1150.7 18.9 1151.8 24 C 1152.9 29.2 1153.7 34.3 1154.1 39.3 C 1154.3 41.3 1154.6 43.4 1154.8 45.6 C 1155 47.8 1155.5 49.9 1156.1 51.9 C 1157.1 54.8 1158 57.6 1158.9 60.4 C 1159.7 63.2 1160.7 66 1161.6 68.9 Z M 1273.6 23 L 1232.6 23 L 1232.6 48.9 L 1267 48.9 L 1267 70.5 L 1232.6 70.5 L 1232.6 106.1 L 1273.6 106.1 L 1273.6 127.5 L 1209.9 127.5 L 1209.9 1.6 L 1273.6 1.6 L 1273.6 23 Z"
        fill="#000000"
        stroke-width="1"/>
</svg>
