<svg xmlns="http://www.w3.org/2000/svg" viewBox="0 0 1274 129">
    <path
        id="path"
        d="M 22.6 106.2 L 63.6 106.2 L 63.6 127.6 L -0.1 127.6 L -0.1 1.6 L 22.6 1.6 L 22.6 106.2 Z M 148.4 82.1 C 148.4 83.15 148.4 84.2 148.4 85.25 C 148.4 86.3 148.4 87.35 148.4 88.4 C 148.4 88.4 148.4 91 148.3 92.2 C 148.2 93.4 148.1 94.6 147.8 95.8 C 147 100.5 145.3 104.8 142.9 108.8 C 140.5 112.8 137.5 116.3 134 119.2 C 130.5 122.1 126.5 124.5 122.1 126.1 C 117.7 127.8 113.1 128.6 108.3 128.6 C 103.6 128.6 99.1 127.8 94.7 126.1 C 90.3 124.4 86.4 122.1 82.8 119.2 C 79.3 116.3 76.3 112.8 73.9 108.8 C 71.5 104.8 69.9 100.4 69 95.8 C 68.8 94.6 68.6 93.4 68.6 92.2 C 68.5 91 68.5 89.7 68.5 88.4 C 68.5 86.1 68.5 83.8 68.5 81.5 C 68.5 79.2 68.5 76.9 68.5 74.6 C 68.5 72.3 68.5 70 68.5 67.7 C 68.5 65.4 68.5 63.1 68.5 60.8 C 68.5 58.5 68.5 56.2 68.5 53.9 C 68.5 51.6 68.5 49.3 68.5 47 C 68.5 45.167 68.5 43.333 68.5 41.5 L 68.5 38.5 C 68.7 33.2 70 28.3 72.2 23.6 C 74.4 19 77.4 15 81 11.5 C 84.7 8.1 88.8 5.4 93.5 3.4 C 98.2 1.4 103.1 0.4 108.3 0.4 C 113.5 0.4 118.4 1.4 123.2 3.4 C 127.9 5.4 132.1 8.1 135.8 11.5 C 139.5 14.9 142.4 18.9 144.7 23.6 C 147 28.2 148.2 33.2 148.3 38.5 L 148.3 45.767 C 148.3 48.189 148.3 50.611 148.3 53.033 C 148.3 55.456 148.3 57.878 148.3 60.3 C 148.3 62.722 148.3 65.144 148.3 67.567 C 148.3 69.989 148.3 72.411 148.3 74.833 C 148.3 77.256 148.3 79.678 148.3 82.1 Z M 125.9 79.5 C 125.9 77.22 125.9 74.94 125.9 72.66 C 125.9 70.38 125.9 68.1 125.9 65.82 C 125.9 63.54 125.9 61.26 125.9 58.98 C 125.9 56.7 125.9 54.42 125.9 52.14 C 125.9 49.86 125.9 47.58 125.9 45.3 C 125.9 44.367 125.9 43.433 125.9 42.5 L 125.9 40.2 C 125.9 37.8 125.4 35.6 124.4 33.5 C 123.4 31.5 122.1 29.7 120.4 28.1 C 118.8 26.5 116.9 25.3 114.8 24.4 C 112.7 23.5 110.6 23 108.4 23 C 106.2 23 104.1 23.5 102.1 24.4 C 100.1 25.3 98.2 26.5 96.6 28.1 C 95 29.7 93.7 31.5 92.6 33.5 C 91.6 35.5 91.1 37.8 91.1 40.2 L 91.1 45.08 C 91.1 46.707 91.1 48.333 91.1 49.96 C 91.1 51.587 91.1 53.213 91.1 54.84 C 91.1 56.467 91.1 58.093 91.1 59.72 C 91.1 61.347 91.1 62.973 91.1 64.6 C 91.1 66.227 91.1 67.853 91.1 69.48 C 91.1 71.107 91.1 72.733 91.1 74.36 C 91.1 75.987 91.1 77.613 91.1 79.24 C 91.1 80.867 91.1 82.493 91.1 84.12 C 91.1 85.747 91.1 87.373 91.1 89 C 91.1 91.3 91.6 93.5 92.6 95.6 C 93.6 97.7 94.9 99.5 96.6 101.1 C 98.2 102.7 100 103.9 102.1 104.8 C 104.1 105.7 106.2 106.2 108.4 106.2 C 110.6 106.2 112.7 105.7 114.8 104.8 C 116.9 103.9 118.8 102.7 120.4 101.1 C 122 99.5 123.3 97.7 124.4 95.6 C 125.4 93.5 125.9 91.3 125.9 89 C 125.9 88.1 125.9 87.2 125.9 86.3 C 125.9 84.033 125.9 81.767 125.9 79.5 Z M 215 89.1 C 215 86.856 215 84.613 215 82.369 C 215 80.126 215 77.882 215 75.638 C 215 73.395 215 71.151 215 68.908 C 215 66.664 215 64.421 215 62.177 C 215 59.933 215 57.69 215 55.446 C 215 53.203 215 50.959 215 48.715 C 215 46.472 215 44.228 215 41.985 C 215 39.741 215 37.497 215 35.254 C 215 33.01 215 30.767 215 28.523 C 215 26.279 215 24.036 215 21.792 C 215 19.549 215 17.305 215 15.062 C 215 12.818 215 10.574 215 8.331 L 215 1.6 L 237.7 1.6 L 237.7 2.5 C 237.7 5.4 237.7 8.2 237.6 11.1 C 237.633 13.9 237.667 16.7 237.7 19.5 C 237.7 22.25 237.7 25 237.7 27.75 C 237.7 30.5 237.7 33.25 237.7 36 C 237.7 38.75 237.7 41.5 237.7 44.25 C 237.7 47 237.7 49.75 237.7 52.5 C 237.7 55.25 237.7 58 237.7 60.75 C 237.7 63.5 237.7 66.25 237.7 69 C 237.7 71.75 237.7 74.5 237.7 77.25 C 237.7 80 237.7 82.75 237.7 85.5 L 237.5 89.1 L 237.5 90.7 C 237.4 96 236.3 100.9 234.2 105.6 C 232.1 110.2 229.3 114.2 225.9 117.7 C 222.5 121.1 218.5 123.8 213.9 125.8 C 209.3 127.8 204.5 128.8 199.3 128.8 C 194 128.8 189.1 127.8 184.4 125.7 C 179.8 123.7 175.7 120.8 172.3 117.2 C 168.8 113.6 166.1 109.4 164 104.6 C 162 99.8 160.9 94.6 160.9 89.1 C 160.9 86.712 160.9 84.324 160.9 81.936 C 160.9 79.548 160.9 77.161 160.9 74.773 C 160.9 72.385 160.9 69.997 160.9 67.609 C 160.9 65.221 160.9 62.833 160.9 60.445 C 160.9 58.058 160.9 55.67 160.9 53.282 C 160.9 50.894 160.9 48.506 160.9 46.118 C 160.9 43.73 160.9 41.342 160.9 38.955 C 160.9 36.567 160.9 34.179 160.9 31.791 C 160.9 29.403 160.9 27.015 160.9 24.627 C 160.9 22.239 160.9 19.852 160.9 17.464 C 160.9 15.076 160.9 12.688 160.9 10.3 C 160.9 8.85 160.9 7.4 160.9 5.95 L 160.9 1.6 L 183.6 1.6 L 183.6 10.35 C 183.6 13.267 183.6 16.183 183.6 19.1 C 183.6 22.017 183.6 24.933 183.6 27.85 L 183.6 36.6 C 183.6 39.517 183.6 42.433 183.6 45.35 C 183.6 48.267 183.6 51.183 183.6 54.1 C 183.6 57.017 183.6 59.933 183.6 62.85 C 183.6 65.767 183.6 68.683 183.6 71.6 C 183.6 74.517 183.6 77.433 183.6 80.35 L 183.6 89.1 C 183.6 91.4 184 93.6 184.9 95.7 C 185.7 97.8 186.8 99.6 188.2 101.2 C 189.6 102.8 191.2 104 193.2 104.9 C 195.1 105.8 197.2 106.3 199.3 106.3 C 201.5 106.3 203.5 105.8 205.4 104.9 C 207.3 104 209 102.8 210.4 101.2 C 211.8 99.6 212.9 97.8 213.7 95.7 C 214.6 93.5 215 91.4 215 89.1 Z M 290.1 1.6 C 295 1.6 299.6 2.5 304 4.4 C 308.3 6.3 312.1 8.8 315.2 12 C 318.4 15.2 320.9 19 322.8 23.3 C 324.7 27.6 325.6 32.2 325.6 37.2 L 325.6 92 C 325.6 96.9 324.7 101.5 322.8 105.9 C 320.9 110.2 318.4 114 315.2 117.2 C 312 120.4 308.3 123 304 124.8 C 299.7 126.7 295.1 127.6 290.1 127.6 L 250.3 127.6 L 250.5 89.3 C 250.4 86.5 250.5 81.2 250.5 81.2 C 250.5 79.189 250.5 77.178 250.5 75.167 C 250.5 73.156 250.5 71.144 250.5 69.133 C 250.5 67.122 250.5 65.111 250.5 63.1 C 250.5 61.089 250.5 59.078 250.5 57.067 C 250.5 55.056 250.5 53.044 250.5 51.033 C 250.5 49.022 250.5 47.011 250.5 45 C 250.5 45 250.4 39.8 250.5 37.2 L 250.3 1.7 L 290.1 1.7 Z M 303 38.7 C 303 34.7 301.6 31.4 298.8 28.5 C 296 25.7 292.6 24.3 288.6 24.3 L 273 24.3 L 273 33.256 C 273 36.241 273 39.226 273 42.211 C 273 45.196 273 48.181 273 51.167 C 273 54.152 273 57.137 273 60.122 C 273 63.107 273 66.093 273 69.078 C 273 72.063 273 75.048 273 78.033 C 273 81.019 273 84.004 273 86.989 C 273 89.974 273 92.959 273 95.944 L 273 104.9 L 288.7 104.9 C 292.7 104.9 296 103.5 298.9 100.8 C 301.7 98 303.1 94.6 303.1 90.5 L 303.1 38.7 Z M 401.8 23 L 360.8 23 L 360.8 48.9 L 395.2 48.9 L 395.2 70.5 L 360.8 70.5 L 360.8 106.1 L 401.8 106.1 L 401.8 127.5 L 338.1 127.5 L 338.1 1.6 L 401.8 1.6 L 401.8 23 Z M 473.1 59.4 C 478.1 62.9 482 67.1 484.8 71.9 C 487.6 76.8 488.9 82.4 488.9 88.9 L 488.9 127.6 L 466.4 127.6 L 466.4 88.9 C 466.4 84.3 465 80.5 462.1 77.5 C 459.2 74.5 455.5 72.9 450.9 72.9 L 436.9 72.9 L 436.9 127.6 L 414.4 127.6 L 414.4 1.6 L 449.5 1.6 C 454.4 1.6 459.1 2.5 463.5 4.2 C 467.9 5.9 471.7 8.3 474.9 11.4 C 478.1 14.5 480.7 18 482.6 22.1 C 484.5 26.2 485.4 30.5 485.4 35.1 C 485.4 39.9 484.2 44.4 481.9 48.5 C 479.5 52.6 476.6 56.3 473.1 59.4 Z M 448.1 47.3 C 451.6 47.3 454.5 46.1 457 43.7 C 459.5 41.3 460.7 38.4 460.7 35.1 C 460.7 31.6 459.5 28.7 457 26.4 C 454.5 24.1 451.6 22.9 448.1 22.9 L 436.9 22.9 L 436.9 47.4 L 448.1 47.4 Z M 580.2 23 L 558.8 23 L 558.8 1.6 L 624 1.6 L 624 23 L 602.8 23 L 602.8 33.46 C 602.8 36.947 602.8 40.433 602.8 43.92 C 602.8 47.407 602.8 50.893 602.8 54.38 C 602.8 57.867 602.8 61.353 602.8 64.84 C 602.8 68.327 602.8 71.813 602.8 75.3 C 602.8 78.787 602.8 82.273 602.8 85.76 C 602.8 89.247 602.8 92.733 602.8 96.22 C 602.8 99.707 602.8 103.193 602.8 106.68 C 602.8 110.167 602.8 113.653 602.8 117.14 L 602.8 127.6 L 580.3 127.6 L 580.3 101 C 580.2 99.8 580.3 94.6 580.3 94.6 C 580.3 90.993 580.3 87.387 580.3 83.78 C 580.3 80.173 580.3 76.567 580.3 72.96 C 580.3 69.353 580.3 65.747 580.3 62.14 C 580.3 58.533 580.3 54.927 580.3 51.32 C 580.3 47.713 580.3 44.107 580.3 40.5 C 580.3 37.167 580.3 33.833 580.3 30.5 L 580.3 23 Z M 684.3 89.6 C 684.4 84.8 684.3 76.2 684.3 76.2 C 684.3 73.454 684.3 70.708 684.3 67.963 C 684.3 65.217 684.3 62.471 684.3 59.725 C 684.3 56.979 684.3 54.233 684.3 51.487 C 684.3 48.742 684.3 45.996 684.3 43.25 C 684.3 40.504 684.3 37.758 684.3 35.013 C 684.3 32.267 684.3 29.521 684.3 26.775 C 684.3 24.029 684.3 21.283 684.3 18.538 C 684.3 15.792 684.3 13.046 684.3 10.3 L 684.3 1.6 L 706.8 1.6 L 706.8 10.787 C 706.8 13.85 706.8 16.913 706.8 19.975 C 706.8 23.038 706.8 26.1 706.8 29.163 C 706.8 32.225 706.8 35.288 706.8 38.35 C 706.8 41.413 706.8 44.475 706.8 47.538 C 706.8 50.6 706.8 53.663 706.8 56.725 C 706.8 59.788 706.8 62.85 706.8 65.912 C 706.8 68.975 706.8 72.037 706.8 75.1 C 706.867 78.567 706.933 82.033 707 85.5 C 706.967 86.467 706.933 87.433 706.9 88.4 C 706.9 88.4 707 90.3 707 91.3 L 706.8 127.7 L 684.3 127.7 L 684.3 111 L 656.4 111 L 656.4 127.6 L 633.7 127.6 L 633.9 93.9 C 633.9 90.979 633.9 88.058 633.9 85.138 C 633.9 82.217 633.9 79.296 633.9 76.375 C 633.9 73.454 633.9 70.533 633.9 67.612 C 633.9 64.692 633.9 61.771 633.9 58.85 C 633.9 55.929 633.9 53.008 633.9 50.087 C 633.9 47.167 633.9 44.246 633.9 41.325 C 633.9 38.404 633.9 35.483 633.9 32.563 C 633.9 29.642 633.9 26.721 633.9 23.8 C 633.933 21.667 633.967 19.533 634 17.4 C 634 17.4 633.9 12.6 633.9 10.3 C 633.8 7.8 633.7 5.1 633.7 2.4 L 633.7 1.6 L 656.4 1.6 L 656.4 10.4 C 656.4 13.333 656.4 16.267 656.4 19.2 C 656.4 22.133 656.4 25.067 656.4 28 C 656.4 30.933 656.4 33.867 656.4 36.8 C 656.4 39.733 656.4 42.667 656.4 45.6 C 656.4 48.533 656.4 51.467 656.4 54.4 C 656.4 57.333 656.4 60.267 656.4 63.2 C 656.4 66.133 656.4 69.067 656.4 72 C 656.4 74.933 656.4 77.867 656.4 80.8 L 656.4 89.6 L 684.3 89.6 Z M 811.3 127.6 L 787.4 127.6 L 783.3 112.8 L 745.3 112.8 L 741.2 127.6 L 717.3 127.6 L 726.7 94.5 C 727.5 91.4 729.4 85.3 729.4 85.3 C 730.167 82.367 730.933 79.433 731.7 76.5 C 732.333 74.333 732.967 72.167 733.6 70 C 734.1 68.1 734.6 66.2 735.1 64.3 C 735.7 62.3 736.3 60.3 736.9 58.3 C 737.5 55.9 738.1 53.5 738.7 51.1 C 739.5 48.067 740.3 45.033 741.1 42 C 741.9 39.033 742.7 36.067 743.5 33.1 L 752.3 1.6 L 776.2 1.6 L 785 33.1 C 785.8 36.067 786.6 39.033 787.4 42 C 788.2 45.033 789 48.067 789.8 51.1 C 791 55.467 792.2 59.833 793.4 64.2 C 794.5 68.267 795.6 72.333 796.7 76.4 C 797.533 79.333 798.367 82.267 799.2 85.2 C 799.2 85.2 801.1 91.3 801.9 94.4 L 811.3 127.6 Z M 777.3 91.4 C 777.2 91.2 777.1 90.5 777.1 90.5 C 776.433 88.233 775.767 85.967 775.1 83.7 C 774.467 81.433 773.833 79.167 773.2 76.9 C 772.5 74.433 771.8 71.967 771.1 69.5 C 770.433 67 769.767 64.5 769.1 62 C 768.267 59.067 767.433 56.133 766.6 53.2 C 766.6 53.2 765.1 47.3 764.2 44.6 C 763.2 47.4 761.9 53.2 761.9 53.2 C 761.1 56.133 760.3 59.067 759.5 62 C 758.8 64.533 758.1 67.067 757.4 69.6 C 756.7 72.067 756 74.533 755.3 77 C 754.667 79.267 754.033 81.533 753.4 83.8 C 753.4 83.8 752.3 88.3 751.5 90.6 C 751.5 90.7 751.5 90.8 751.4 91 C 751.3 91.1 751.3 91.3 751.3 91.5 L 777.3 91.5 Z M 896.3 1.6 L 896.3 127.6 L 873.8 127.6 L 873.8 85.7 L 843.9 43.9 L 843.9 127.6 L 821.4 127.6 L 821.4 1.6 L 843.9 1.6 L 873.8 43.2 L 873.8 1.6 L 896.3 1.6 Z M 991.5 106.2 L 1032.5 106.2 L 1032.5 127.6 L 968.8 127.6 L 968.8 1.6 L 991.5 1.6 L 991.5 106.2 Z M 1117.3 82.1 C 1117.3 83.15 1117.3 84.2 1117.3 85.25 C 1117.3 86.3 1117.3 87.35 1117.3 88.4 C 1117.3 88.4 1117.3 91 1117.2 92.2 C 1117.1 93.4 1117 94.6 1116.7 95.8 C 1115.9 100.5 1114.2 104.8 1111.8 108.8 C 1109.4 112.8 1106.4 116.3 1102.9 119.2 C 1099.4 122.1 1095.4 124.5 1091 126.1 C 1086.6 127.8 1082 128.6 1077.2 128.6 C 1072.5 128.6 1068 127.8 1063.6 126.1 C 1059.2 124.4 1055.3 122.1 1051.7 119.2 C 1048.2 116.3 1045.2 112.8 1042.8 108.8 C 1040.4 104.8 1038.8 100.4 1037.9 95.8 C 1037.7 94.6 1037.5 93.4 1037.4 92.2 C 1037.3 91 1037.3 89.7 1037.3 88.4 C 1037.4 88.2 1037.3 86.3 1037.3 86.3 C 1037.3 83.811 1037.3 81.322 1037.3 78.833 C 1037.3 76.344 1037.3 73.856 1037.3 71.367 C 1037.3 68.878 1037.3 66.389 1037.3 63.9 C 1037.3 61.411 1037.3 58.922 1037.3 56.433 C 1037.3 53.944 1037.3 51.456 1037.3 48.967 C 1037.3 46.478 1037.3 43.989 1037.3 41.5 L 1037.3 38.5 C 1037.5 33.2 1038.8 28.3 1041 23.6 C 1043.2 19 1046.2 15 1049.8 11.5 C 1053.5 8.1 1057.6 5.4 1062.3 3.4 C 1067 1.4 1071.9 0.4 1077.1 0.4 C 1082.3 0.4 1087.2 1.4 1091.9 3.4 C 1096.6 5.4 1100.8 8.1 1104.5 11.5 C 1108.2 14.9 1111.1 18.9 1113.4 23.6 C 1115.7 28.2 1116.9 33.2 1117 38.5 L 1117 45.767 C 1117 48.189 1117 50.611 1117 53.033 C 1117 55.456 1117 57.878 1117 60.3 C 1117 62.722 1117 65.144 1117 67.567 C 1117 69.989 1117 72.411 1117 74.833 C 1117 77.256 1117 79.678 1117 82.1 Z M 1094.8 79.5 C 1094.8 77.444 1094.8 75.389 1094.8 73.333 C 1094.8 71.278 1094.8 69.222 1094.8 67.167 C 1094.8 65.111 1094.8 63.056 1094.8 61 C 1094.8 58.944 1094.8 56.889 1094.8 54.833 C 1094.8 52.778 1094.8 50.722 1094.8 48.667 C 1094.8 46.611 1094.8 44.556 1094.8 42.5 L 1094.8 40.2 C 1094.8 37.8 1094.3 35.6 1093.3 33.5 C 1092.3 31.5 1091 29.7 1089.3 28.1 C 1087.7 26.5 1085.8 25.3 1083.7 24.4 C 1081.6 23.5 1079.5 23 1077.3 23 C 1075.1 23 1073 23.5 1071 24.4 C 1069 25.3 1067.1 26.5 1065.5 28.1 C 1063.9 29.7 1062.6 31.5 1061.5 33.5 C 1060.5 35.5 1060 37.8 1060 40.2 L 1060 45.08 C 1060 46.707 1060 48.333 1060 49.96 C 1060 51.587 1060 53.213 1060 54.84 C 1060 56.467 1060 58.093 1060 59.72 C 1060 61.347 1060 62.973 1060 64.6 C 1060 66.227 1060 67.853 1060 69.48 C 1060 71.107 1060 72.733 1060 74.36 C 1060 75.987 1060 77.613 1060 79.24 C 1060 80.867 1060 82.493 1060 84.12 C 1060 85.747 1060 87.373 1060 89 C 1060 91.3 1060.5 93.5 1061.5 95.6 C 1062.5 97.7 1063.8 99.5 1065.5 101.1 C 1067.1 102.7 1068.9 103.9 1071 104.8 C 1073 105.7 1075.1 106.2 1077.3 106.2 C 1079.5 106.2 1081.6 105.7 1083.7 104.8 C 1085.8 103.9 1087.7 102.7 1089.3 101.1 C 1090.9 99.5 1092.2 97.7 1093.3 95.6 C 1094.3 93.5 1094.8 89 1094.8 89 C 1094.8 87.417 1094.8 85.833 1094.8 84.25 C 1094.8 82.667 1094.8 81.083 1094.8 79.5 Z M 1161.6 68.9 C 1162.267 66.067 1162.933 63.233 1163.6 60.4 C 1164.267 57.567 1164.933 54.733 1165.6 51.9 C 1166.067 49.8 1166.533 47.7 1167 45.6 C 1167.567 43.267 1168.133 40.933 1168.7 38.6 C 1169.733 33.633 1170.767 28.667 1171.8 23.7 C 1172.933 18.767 1174.067 13.833 1175.2 8.9 C 1175.467 7.7 1175.733 6.5 1176 5.3 C 1176 5.3 1176.6 2.9 1176.8 1.7 L 1200 1.7 C 1199.8 2.7 1199.3 4.6 1199.3 4.6 C 1199.3 4.6 1198.8 6.3 1198.7 7.2 C 1198.6 8.1 1198.2 9.5 1198.2 9.5 C 1197.567 12.333 1196.933 15.167 1196.3 18 C 1195.667 20.8 1195.033 23.6 1194.4 26.4 C 1193.167 31.933 1191.933 37.467 1190.7 43 C 1189.033 50.433 1187.367 57.867 1185.7 65.3 C 1184.633 70.233 1183.567 75.167 1182.5 80.1 C 1181.4 85.067 1180.3 90.033 1179.2 95 L 1171.8 127.8 L 1151.3 127.8 L 1144.1 95 C 1143 90 1140.7 80.1 1140.7 80.1 C 1139.633 75.267 1138.567 70.433 1137.5 65.6 C 1135.833 58.1 1134.167 50.6 1132.5 43.1 C 1131.267 37.533 1130.033 31.967 1128.8 26.4 C 1128.2 23.567 1127.6 20.733 1127 17.9 C 1126.367 15.067 1125.733 12.233 1125.1 9.4 C 1125.1 9.4 1124.8 8 1124.6 7.2 C 1124.4 6.3 1124.2 5.4 1124 4.6 C 1123.8 3.6 1123.5 2.7 1123.3 1.7 L 1146.7 1.7 C 1146.9 2.9 1147.5 5.2 1147.5 5.2 C 1147.767 6.433 1148.033 7.667 1148.3 8.9 C 1149.433 13.933 1150.567 18.967 1151.7 24 C 1152.8 29.1 1153.9 34.2 1155 39.3 C 1155.467 41.4 1155.933 43.5 1156.4 45.6 C 1156.867 47.7 1157.333 49.8 1157.8 51.9 C 1158.433 54.733 1159.067 57.567 1159.7 60.4 C 1160.333 63.233 1160.967 66.067 1161.6 68.9 Z M 1273.6 23 L 1232.6 23 L 1232.6 48.9 L 1267 48.9 L 1267 70.5 L 1232.6 70.5 L 1232.6 106.1 L 1273.6 106.1 L 1273.6 127.5 L 1209.9 127.5 L 1209.9 1.6 L 1273.6 1.6 L 1273.6 23 Z" >
</svg>
