<?xml version="1.0" encoding="utf-8"?>
<!-- Generator: Adobe Illustrator 23.0.4, SVG Export Plug-In . SVG Version: 6.00 Build 0)  -->
<svg version="1.1" id="Layer_1" xmlns="http://www.w3.org/2000/svg" xmlns:xlink="http://www.w3.org/1999/xlink" x="0px" y="0px"
	 viewBox="0 0 363 81" style="enable-background:new 0 0 363 81;" xml:space="preserve">
<style type="text/css">
	.st0{clip-path:url(#SVGID_2_);fill:url(#SVGID_3_);}
</style>
<g>
	<g>
		<path d="M38.5,53.22h6.48c0.69,0,1.25-0.53,1.25-1.19l0-17.65c0-3.85-0.18-9.19,4.49-9.19c4.6,0,3.99,5.47,3.99,9.19l0.01,17.65
			c0,0.63,0.51,1.15,1.16,1.19h6.48c0.69,0,1.25-0.53,1.25-1.19V34.38c0-1.89-0.06-4.69,0.6-6.37c0.66-1.68,2.3-2.74,3.87-2.74
			c1.87,0,3.33,0.63,3.82,2.88c0.31,1.33,0.18,4.83,0.18,6.23v17.65c0,0.63,0.51,1.15,1.16,1.19h6.48c0.69,0,1.25-0.53,1.25-1.19
			L81,31.01c0-3.58,0.42-7.64-1.64-10.44c-1.81-2.53-4.78-3.65-7.51-3.65c-3.81,0-7.39,1.97-8.96,6.16
			c-1.82-4.2-4.36-6.16-8.42-6.16c-3.99,0-6.96,1.97-8.54,6.16h-0.12v-4.34c-0.04-0.6-0.55-1.09-1.19-1.12l-6.04,0
			c-0.69,0-1.26,0.53-1.26,1.2v33.3C37.39,52.73,37.89,53.18,38.5,53.22"/>
		<path d="M104.56,44.2c-1.03,1.83-2.67,2.95-4.49,2.95c-2.49,0-3.94-1.9-3.94-4.71c0-5.53,4.96-6.53,9.65-6.53v1.41
			C105.77,39.86,105.83,41.96,104.56,44.2 M105.77,30.73c-3.76,0.42-8.68,0.7-12.2,2.25c-4.07,1.75-6.92,5.34-6.92,10.6
			c0,6.74,4.25,10.12,9.71,10.12c4.61,0,7.14-1.09,10.7-4.72c1.19,1.71,1.56,2.54,3.72,4.33c0.48,0.25,1.1,0.23,1.53-0.16l0.02,0.01
			c1.3-1.15,3.65-3.19,4.98-4.31c0.52-0.43,0.43-1.13,0.02-1.72c-1.18-1.64-2.45-2.97-2.45-6.01V31.01c0-4.28,0.31-8.22-2.85-11.17
			c-2.49-2.38-6.62-3.23-9.77-3.23c-6.18,0-13.07,2.31-14.52,9.93c-0.14,0.81,0.44,1.24,0.97,1.35L95,28.58
			c0.59-0.03,1.01-0.61,1.13-1.19c0.54-2.63,2.74-3.89,5.22-3.89c1.33,0,2.86,0.49,3.64,1.69c0.91,1.32,0.78,3.16,0.78,4.7V30.73z"
			/>
		<path d="M164.89,47.06c-5.09,0-5.03-8.69-5.03-12.75c0-4.06,0.31-10.58,5.09-10.58c2.06,0,3.51,0.92,4.24,3.23
			c0.85,2.66,0.97,6.02,0.97,8.83C170.15,40.06,169.91,47.06,164.89,47.06 M164.89,16.93c-9.38,0-14.59,8.05-14.59,18.42
			c0,10.3,5.15,18.57,14.59,18.57c9.09,0,14.83-8.05,14.83-18.22C179.72,25.2,174.51,16.93,164.89,16.93"/>
		<path d="M209.52,20.85c-1.82-2.87-4.66-3.93-7.57-3.93c-4.48,0-7.03,2.17-8.84,6.73h-0.13v-5.08c-0.11-0.52-0.58-0.91-1.15-0.94
			l-6.02,0c-0.65,0-1.19,0.48-1.24,1.09l0.01,33.31c0,0.63,0.52,1.15,1.16,1.19h6.47c0.69,0,1.25-0.53,1.26-1.19V34.1
			c0-2.25,0.12-4.27,1.03-6.31c0.73-1.6,2.18-2.66,3.75-2.66c4.49,0,4.06,5.32,4.06,8.97v18.08c0.07,0.57,0.55,1.01,1.15,1.04h6.5
			c0.64,0,1.17-0.46,1.24-1.04V31.23C211.21,28.01,211.21,23.52,209.52,20.85"/>
		<path d="M19.52,44.2c-1.03,1.83-2.67,2.95-4.49,2.95c-2.49,0-3.95-1.9-3.95-4.71c0-5.53,4.96-6.53,9.65-6.53v1.41
			C20.73,39.86,20.79,41.96,19.52,44.2 M32.28,47.12c-1.19-1.64-2.45-2.97-2.45-6.01V31.01c0-4.29,0.3-8.22-2.86-11.17
			c-2.48-2.38-6.61-3.23-9.77-3.23c-6.17,0-13.07,2.31-14.5,9.93c-0.16,0.81,0.44,1.24,0.97,1.35l6.28,0.68
			c0.59-0.02,1.02-0.61,1.13-1.19c0.54-2.63,2.74-3.9,5.21-3.9c1.34,0,2.86,0.49,3.65,1.69c0.91,1.32,0.78,3.16,0.78,4.7v0.84
			c-3.76,0.42-8.68,0.7-12.19,2.24c-4.07,1.76-6.92,5.34-6.92,10.61c0,6.74,4.25,10.11,9.71,10.11c4.61,0,7.13-1.09,10.7-4.72
			c1.17,1.71,1.56,2.54,3.72,4.33c0.48,0.26,1.1,0.23,1.54-0.16l0.01,0.02c1.3-1.15,3.65-3.19,4.98-4.31
			C32.79,48.41,32.7,47.72,32.28,47.12"/>
		<path d="M146.04,44.2c-3.73-2.09-8.07-2.71-12.16-2.61l11.04-15.77c1.03-1.42,1.6-2.31,1.61-2.99v-4.09c0-0.7-0.54-1.2-1.23-1.2
			l-21.32,0.01c-0.66,0-1.2,0.49-1.21,1.2v4.76c0,0.72,0.54,1.2,1.24,1.2l11.14,0l-12.8,18.35c-0.78,1.18-0.79,2.5-0.79,3.27v4.83
			c0,0.7,0.77,1.5,1.52,1.1c7.26-3.85,15.97-3.47,22.53-0.03c0.8,0.41,1.57-0.39,1.57-1.1v-5.07
			C147.11,45.37,146.88,44.68,146.04,44.2"/>
		<path d="M122.19,58.1c-1.08,0.75-0.89,1.79,0.31,1.65c3.92-0.47,12.67-1.52,14.22,0.47c1.56,1.99-1.73,10.22-3.2,13.89
			c-0.45,1.11,0.51,1.56,1.52,0.72c6.53-5.47,8.22-16.92,6.88-18.57C140.59,54.62,129.17,53.2,122.19,58.1"/>
		<path d="M129.88,63.16c-13.65,5.79-28.49,8.6-41.99,8.6c-20.01,0-39.39-5.49-55.05-14.61c-1.37-0.8-2.38,0.61-1.24,1.65
			C46.12,71.9,65.3,79.77,86.61,79.77c15.2,0,32.86-4.77,45.04-13.76C133.67,64.52,131.94,62.29,129.88,63.16"/>
	</g>
	<g>
		<defs>
			<path id="SVGID_1_" d="M325.54,17.6l-9.19,13l-8.96-13h-7.25l12.4,17.63l-12.85,17.71h7.1l9.34-13.22l9.26,13.22h7.1
				l-12.55-17.86l12.62-17.48H325.54z M229.23,42.26c0-2.17,0.97-3.96,2.76-5c1.5-0.75,3.36-1.2,6.2-1.28l5.75-0.22v8.52
				c-1.49,1.57-4.49,4.04-8.52,4.04C231.62,48.31,229.23,45.92,229.23,42.26 M224.68,20.22l2.32,4.56c2.54-1.49,5.6-2.76,9.64-2.76
				c4.26,0,7.32,2.17,7.32,7.17v1.86l-6.58,0.22c-3.59,0.15-6.43,0.6-8.89,1.8c-3.59,1.72-5.98,4.85-5.98,9.56
				c0,6.8,4.86,11.05,11.35,11.05c4.41,0,7.84-2.01,10.53-4.56l1.12,3.81h5.68c-0.45-1.79-0.67-5.01-0.67-11.06V29.04
				c0-8.52-5.08-12.33-13.07-12.33C233.27,16.71,228.78,17.75,224.68,20.22 M284.37,21.94c5.31,0,7.7,4.93,7.84,9.86h-16.06
				C276.23,26.42,279.29,21.94,284.37,21.94 M269.43,35.01c0,10.09,5.38,18.68,17.11,18.68c4.04,0,8.37-1.12,11.66-3.22l-2.09-4.56
				c-2.46,1.35-5.38,2.39-8.74,2.39c-7.02,0-11.06-4.93-11.21-11.58h22.86v-1.64c0-11.28-5.38-18.38-14.64-18.38
				C275.33,16.71,269.43,24.26,269.43,35.01 M339.74,42.26c0-2.17,0.97-3.96,2.76-5c1.5-0.75,3.37-1.2,6.2-1.28l5.75-0.22v8.52
				c-1.49,1.57-4.49,4.04-8.52,4.04C342.12,48.31,339.74,45.92,339.74,42.26 M335.18,20.22l2.31,4.56c2.54-1.49,5.61-2.76,9.64-2.76
				c4.26,0,7.32,2.17,7.32,7.17v1.86l-6.58,0.22c-3.59,0.15-6.43,0.6-8.89,1.8c-3.59,1.72-5.98,4.85-5.98,9.56
				c0,6.8,4.86,11.05,11.36,11.05c4.41,0,7.84-2.01,10.53-4.56l1.12,3.81h5.58V52.5c-0.38-1.87-0.57-5.03-0.57-10.61V29.04
				c0-8.52-5.08-12.33-13.07-12.33C343.77,16.71,339.28,17.75,335.18,20.22 M256.28,0.05v45.94c0,4.71,2.39,7.4,7.32,7.4
				c1.72,0,3.81-0.37,5.46-1.05l-1.35-5.16c-0.6,0.22-1.64,0.45-2.17,0.45c-1.87,0-2.69-0.82-2.69-3.51V0.05H256.28z"/>
		</defs>
		<clipPath id="SVGID_2_">
			<use xlink:href="#SVGID_1_"  style="overflow:visible;"/>
		</clipPath>
		
			<linearGradient id="SVGID_3_" gradientUnits="userSpaceOnUse" x1="-821.7046" y1="1382.5906" x2="-818.9797" y2="1382.5906" gradientTransform="matrix(0 19.686 19.686 0 -26925.6758 16176.1553)">
			<stop  offset="0" style="stop-color:#24B9D8"/>
			<stop  offset="0.2225" style="stop-color:#22B5D5"/>
			<stop  offset="0.4565" style="stop-color:#1CA8CC"/>
			<stop  offset="0.6957" style="stop-color:#1293BD"/>
			<stop  offset="0.9371" style="stop-color:#0476A8"/>
			<stop  offset="1" style="stop-color:#006DA2"/>
		</linearGradient>
		<rect x="222.51" y="0.05" class="st0" width="139.09" height="53.64"/>
	</g>
</g>
</svg>
