<?xml version="1.0" encoding="utf-8"?>
<!-- Generator: Adobe Illustrator 23.0.4, SVG Export Plug-In . SVG Version: 6.00 Build 0)  -->
<svg version="1.1" id="Layer_1" xmlns="http://www.w3.org/2000/svg" xmlns:xlink="http://www.w3.org/1999/xlink" x="0px" y="0px"
	 viewBox="0 0 212 44" style="enable-background:new 0 0 212 44;" xml:space="preserve">
<g>
	<polygon points="90.19,41.12 97.55,41.12 97.55,19.18 122.42,42.32 122.42,2.92 115.05,2.92 115.05,25 90.19,1.82 	"/>
	<g>
		<path d="M57.89,35.29c-7.22,0-13.08-5.93-13.08-13.22c0-7.28,5.86-13.21,13.08-13.21c7.21,0,13.08,5.93,13.08,13.21
			C70.97,29.36,65.1,35.29,57.89,35.29 M57.89,1.45c-11.37,0-20.63,9.25-20.63,20.63S46.52,42.7,57.89,42.7s20.62-9.25,20.62-20.63
			S69.26,1.45,57.89,1.45"/>
		<path d="M24.72,22.42c-1.96-1.49-4.53-2.7-8.37-3.92c-7.47-2.38-7.47-4.26-7.47-5.16c0-2.12,2.37-4.32,6.33-4.32
			c3.34,0,5.94,1.66,6.9,2.38l0.51,0.39l5.94-4.01L27.92,7c-0.19-0.23-4.76-5.55-12.71-5.55c-3.82,0-7.33,1.22-9.89,3.44
			c-2.55,2.21-4.01,5.29-4.01,8.44c0,3.39,1.48,6.23,4.4,8.46c1.96,1.49,4.53,2.7,8.37,3.92c7.47,2.38,7.47,4.26,7.47,5.16
			c0,2.12-2.37,4.32-6.34,4.32c-3.35,0-5.94-1.67-6.9-2.38L7.8,32.42l-5.94,4.01l0.65,0.77c0.19,0.22,4.76,5.55,12.71,5.55
			c3.82,0,7.33-1.22,9.89-3.44c2.55-2.21,4.01-5.29,4.01-8.44C29.11,27.49,27.63,24.64,24.72,22.42"/>
		<path d="M154.71,35.44c-7.21,0-13.08-5.93-13.08-13.21c0-7.29,5.86-13.21,13.08-13.21s13.08,5.93,13.08,13.21
			C167.79,29.51,161.92,35.44,154.71,35.44 M154.71,1.6c-11.37,0-20.62,9.25-20.62,20.63c0,11.37,9.25,20.62,20.62,20.62
			c11.38,0,20.63-9.25,20.63-20.62C175.33,10.85,166.08,1.6,154.71,1.6"/>
		<path d="M187.88,21.88c1.96,1.49,4.53,2.7,8.37,3.92c7.47,2.37,7.47,4.26,7.47,5.16c0,2.12-2.37,4.32-6.34,4.32
			c-3.34,0-5.94-1.67-6.9-2.38l-0.52-0.38l-5.94,4.01l0.65,0.77c0.19,0.23,4.75,5.55,12.7,5.55c3.82,0,7.33-1.22,9.89-3.44
			c2.55-2.21,4.01-5.29,4.01-8.44c0-3.39-1.48-6.23-4.39-8.46c-1.95-1.49-4.53-2.7-8.37-3.92c-7.47-2.38-7.47-4.26-7.47-5.17
			c0-2.12,2.37-4.32,6.34-4.32c3.35,0,5.94,1.67,6.89,2.38l0.52,0.39l5.94-4.01l-0.65-0.77c-0.19-0.23-4.76-5.55-12.7-5.55
			c-3.82,0-7.33,1.22-9.89,3.44c-2.55,2.21-4.01,5.29-4.01,8.44C183.49,16.81,184.96,19.66,187.88,21.88"/>
	</g>
</g>
</svg>
