<?xml version="1.0" encoding="utf-8"?>
<!-- Generator: Adobe Illustrator 23.0.3, SVG Export Plug-In . SVG Version: 6.00 Build 0)  -->
<svg version="1.1" id="Layer_1" xmlns="http://www.w3.org/2000/svg" xmlns:xlink="http://www.w3.org/1999/xlink" x="0px" y="0px"
	 viewBox="0 0 2034.2 833.8" style="enable-background:new 0 0 2034.2 833.8;" xml:space="preserve">
<style type="text/css">
	.st0{fill:#CDB270;}
	.st1{fill:#FDF6EA;}
</style>
<path class="st0" d="M356.1,669.3c-1.8,9.2,1.8,17.1,5.5,24.6c3.9,8,5.3,16.1,4.8,24.7c-0.5,7.7-5.7,13.5-13.4,13.5
	c-8.1,0-16.1,1.2-24.3,0.4c-15.8-1.4-26.8-9.3-34.6-22.4c-4.4-7.3-8.1-15-12.8-22c-4.7-7.2-11.5-12.5-19.1-16.6
	c-0.9-0.5-2-0.6-4-1.2c1.6,5,2.9,9.1,4.1,13.2c3.9,13.5-5,25.6-18.9,26.1c-7.9,0.3-14.3-2.4-19.9-7.6c-8.2-7.6-14.5-16.2-15.4-27.8
	c-0.2-2.8,0.3-5.7,0.6-8.5c1.5-17.6,0.3-34.6-9.3-50.1c-1.8-3-3-6.3-4.6-9.4c-0.2-0.4-0.9-0.6-1.9-1.3c-2.5,2.5-2.9,5.9-3.6,9.2
	c-1.7,8-5.1,15.3-13,18.8c-4.9,2.2-10.5,3.4-16,3.8c-15.9,1.2-30-4.2-42.4-13.8c-10.7-8.3-20.4-17.8-28.8-28.5
	c-3.8-4.8-7.5-9.7-11.6-14.4c-6.9-8-10.2-17.7-14-27.2c-1.1-2.7-2.5-5.3-4.2-7.6c-3.6-4.7-7.6-8.9-11.2-13.6
	c-1.2-1.5-2.1-3.6-2.2-5.5c-0.4-3.5-0.1-7-0.1-11.3c2.4,1.1,4.2,1.5,5.4,2.6c12.8,11.8,27.6,20.7,41.3,31.3
	c5.8,4.5,11.3,9.7,15.8,15.4c11.1,14.1,26.5,18.7,43.1,20.9c6.3,0.9,10.2-1.8,11.1-7.3c2.5-16.4-0.3-31.8-8.9-46
	c-2.6-4.2-5.8-8.1-8.7-12.2c-0.8-1.1-1-2.5-1.5-3.8c3-2.2,5.4-1.2,7.7,0.3c13.7,9.1,27.5,17.9,40.9,27.3c7.2,5.1,13.8,11,20.3,16.9
	c7.7,7,13.3,15,16.5,25.4c3.6,11.6,8.1,23.2,14.4,33.8c3.9,6.6,9.4,11,16.4,14c3.5,1.5,7,3.1,10.4,4.7c6.9,3.2,11.7,8.8,15.7,15
	c6.3,9.8,14.3,17.9,22.7,25.7c0.2,0.2,0.4,0.4,0.7,0.6c10.8,8.6,14.9,5.1,19.4-4.6c6.5-14,5.2-27.7-4.2-39.8
	c-4.8-6.2-11.4-11-17.3-16.3c-4.2-3.7-8.6-7.1-13.2-10.3c-2.1-1.5-2.5-3.2-1.7-5.3c0.9-2.7,3.3-2.1,5.2-1.6
	c18.6,4.9,37.1,10.3,54.4,19c17.9,9.1,32.7,21.7,44.2,38.2c2.8,4.1,5.8,8.1,8.8,12.1c2.2,2.9,5.2,4.5,8.8,5.4
	c4.9,1.2,8.8,0.3,11-4.3c4.4-9.4,7.2-18.9,3.7-29.6c-7.3-22.6-19.4-41.9-37.1-57.6c-4.4-3.8-9.4-7.1-14.4-10
	c-15-8.6-27.2-20.2-38.2-33.5c-10.8-13.1-18.4-27.9-26.3-42.6c-0.4-0.7-0.4-1.6-0.6-2.5c2.9-1.9,5.7-1.6,8.4-0.3
	c2.9,1.4,5.9,2.8,8.4,4.8c8.4,6.4,16.6,13.1,24.9,19.5c12.8,9.8,25.2,20.4,41,25c4.9,1.4,10.7,2,15.6,0.9c16-3.8,30.3,0.2,43.8,8
	c12.8,7.4,23.7,17.4,33.8,28c6.6,7,12.2,15,18.5,22.4c8.9,10.5,20.5,16.2,34,18.1c3.2,0.5,6.4,1.5,9.5,1.2c3.6-0.3,7.2-1.8,10.8-2.8
	c1.5-8.9,1.8-17.3,0.3-25.2c-1-5.1-4.9-9.8-8.2-14.2c-3-4-7-7.1-10.4-10.8c-2-2.1-3.6-4.5-5.3-6.7c4.5-5.6,4.4-5.3,9.8-3.1
	c10.2,4.2,20.5,8.1,30.8,12.1c10.8,4.1,20.6,9.8,29.5,17c3.6,2.9,6.4,6.9,8.9,10.8c3.5,5.4,7.9,9.3,13.9,11.7
	c6.1,2.5,11.4,1.3,16.3-2.9c3-2.6,4.3-5.8,3.3-9.5c-1.3-4.8-3.1-9.4-4.8-14.1c-0.4-1.1-1.1-2.1-1.9-2.9
	c-10.8-10.4-21.5-20.9-32.5-31.2c-4-3.8-8.4-7.4-12.9-10.6c-6.2-4.5-12.7-8.3-18.9-12.8c-7.5-5.5-12.6-13.1-16.9-21.2
	c-6.2-11.8-9-24.8-10.7-37.7c-2-14.2-7.2-27.1-12-40.3c-2.3-6.5-6-12.1-11.2-16.7c-2.3-2.1-4.4-4.4-7.1-7.2
	c11.4-2,20.6,1.1,29.4,6.1c10.2,5.9,19.3,13.2,27.8,21.4c12.5,12,26.8,21,44.1,24.1c6.9,1.2,14.1,0.7,21.1,1c24,1,46.3,6.7,64.9,23
	c6.2,5.4,12.6,10.5,18.8,15.9c7.2,6.3,15.5,10,24.6,13.1c6.4,2.2,12.5,2.8,18.9,3c4.1,0.2,7.3-1.3,10.5-3.5
	c7.5-5.2,9.8-12.9,10.6-21.3c0.4-4.8-3-8.1-6.3-11.1c-7.3-6.6-15.8-11.3-24.6-15.2c-6.6-2.9-13.7-4.8-20.3-7.8
	c-14.1-6.4-26.3-15.4-35.1-28.5c-5.8-8.6-10.2-17.8-14.6-27.1c-3.8-8-3.2-16.4-5-26.2c2,1.5,3.2,1.9,3.5,2.7
	c5.1,11.1,15,14.8,25.9,15.3c14.7,0.7,29.4,1.5,44.1-1.1c9.5-1.6,19.1-3.1,28.7-3.5c7.5-0.3,15.2,0.9,22.7,2
	c7.5,1.2,14.9,3,22.2,4.7c11.1,2.7,21.7,6.3,30.9,13.9c10.4,8.6,22.6,13.3,36.5,12.9c7.1-0.2,14.2-0.4,21.2-0.1
	c6.4,0.2,10.7-2.9,13.8-7.8c5.2-8.1,5-24.3-3-29.9c-3-2.1-6.6-4.1-10.2-4.7c-22.7-3.4-41-15-56.8-30.8c-8.3-8.4-14.6-18.3-19.2-29.2
	c-3.1-7.3-6.2-14.6-9-22c-1.8-4.6-1.5-4.7,1.3-9.6c7.6,2.8,15.3,5.6,23,8.3c5.2,1.8,10.5,3.5,15.8,5.2c15.8,5,31.6,3.9,47.8,1.1
	c10.3-1.8,21.4-2.3,31.6-0.4c13.5,2.5,26.2,8.8,36.2,18.7c8.4,8.3,18.8,12.5,29.8,16.2c7.9,2.7,16.1,3.5,24.1,4.3
	c5.9,0.6,12.8-0.3,17.9-5.3c6.2-6.1,7.4-16,0.4-22.6c-3.3-3.2-7.5-5.6-11.6-7.8c-6.4-3.5-13-6.6-19.5-9.9
	c-17-8.5-29.2-21.1-35.4-39.5c-3.2-9.4-6.7-18.6-12.9-26.8c-6.6-8.6-14.7-15-24-20.1c-3.6-1.9-7.4-3.5-10.8-5.7
	c-1.8-1.1-3.2-3.1-5.7-5.6c8.4-1.9,15.6-2,22.6-0.1c25.9,7.2,50.8,17.6,75.8,27.2c8.1,3.1,16.2,6.7,24.7,8.3
	c6.8,1.3,14.4,1.3,21-0.4c15.3-4.1,28.7,0.1,42.1,6.4c14.5,6.8,26.7,16.6,38.3,27.5c10.5,9.9,23,16.6,37.2,20.7
	c9.1,2.7,18.3,3.9,27.5,5.1c8.2,1.1,16.3-1.6,20.5-10.2c4.2-8.6,6.2-17.6,3.8-27.2c-0.9-3.7-1-7.6-2.2-11.1
	c-3.5-10.2-10.4-18-19.8-22.7c-5.3-2.6-11.1-5.4-17.5-5.1c-13.2,0.6-26.3-1.3-39.2-3.8c-5.3-1-10.6-3.2-15.4-5.8
	c-24-13.2-38.9-34.2-48.2-59.3c-3.2-8.7-4.9-18-7.2-27.1c-0.3-1.3,0.1-2.8,0.2-4.7c4.6,0.8,8.3,2,11.3,5.1
	c10.9,11.3,24.3,19.1,38.4,25.5c7.1,3.2,15.1,4.3,22.7,6.2c12.5,3.1,25.2,1.8,37.8,1.7c14.8-0.2,28.6,3.6,41.4,10.2
	c8.5,4.4,16.6,4.8,25.4,3c8.7-1.8,17.3-3.2,26.2-2.7c3.5,0.2,7,0.7,10.3,1.8c9.5,3.2,18.5,7.3,26.8,13.1c7,4.9,14,9.6,23,10.3
	c1.5,0.1,3,1.7,4.6,2.8c10.3-7.5,10.9-18.2,9.3-29.3c-0.6-4.3-3.7-8-8.2-9.8c-4.7-1.9-8.7-4.8-12.3-8.4c-2-2-4.8-3.4-7.3-4.8
	c-5.4-2.9-10.9-5.7-16.5-8.2c-2.9-1.3-6.1-2.3-9.2-2.3c-13.8-0.1-27.4-1.2-41.1-3.3c-8.1-1.2-16.2-2-24.1-4.1
	c-7.8-2.1-14.6-6.3-19.7-12.6c-5.4-6.6-10.5-13.3-16.1-20.6c0.8-0.5,2-1.8,3.4-2.2c11.7-3.1,23.1-1,34.4,2.4
	c10.6,3.2,21.3,3.4,32.2,2c13.6-1.7,26-6.4,37.4-14c4.5-3,9.7-5.1,14.7-7.5c1.3-0.6,2.9-0.8,4.3-0.7c6.3,0.5,12.1-1.3,17.9-3.8
	c11.8-5.1,24.4-6.5,37-6.7c23.9-0.5,47.8-0.1,71.7-0.3c4.6,0,9.6-0.3,13.8-2.1c7.4-3,15.5-2.6,22.8-6.2c4.5-2.2,8.8,2.8,8,8.2
	c-0.7,5.1-3.8,8.4-8.2,10.8c-3.6,1.9-7.1,4-10.5,6.3c-6.7,4.5-13.9,7.4-22,8.1c-2,0.2-4.3,0-6.1,0.8c-10,4.1-20.1,3.7-30.3,1.1
	c-8.7-2.2-17.5-2-26.3-1.9c-10,0.1-20,0.7-29.9,2c-4.4,0.6-8.8,3.1-12.6,5.7c-3.3,2.2-5.8,5.7-9.9,9.9c3.7,0,5.8,0.1,8,0
	c13.4-1,26.3,1.1,39.2,4.5c7.9,2.1,16,3.4,24.2,4.5c12.5,1.6,19.5,12.9,12.9,23.8c-7.2,11.9-7.7,25-10.4,37.7
	c-0.8,3.7-1.7,6.8-4.5,9.2c-8.5,7.2-11.9,17.3-15,27.4c-1.6,5.2-1.8,10.9-2.2,16.5c-0.6,8.8-1.9,17.3-4.9,25.7
	c-3.5,9.6-10.7,14.9-19,18.5c-6.5,2.8-13.6,5.3-21.3,2.7c-4-1.4-7.7-2.8-10.6-5.8c-3.5-3.6-7.3-6.9-10.5-10.7
	c-4.1-4.7-9.1-7.2-15-8.6c-6.3-1.5-12-3.8-17-8.6c-5.1-4.9-11.7-7.9-19.2-7.3c-4.9,0.4-9.9-0.7-14.6,0.7c-1,3.3,0.8,4.8,2.9,6
	c13,7.5,19.9,19.3,24,33.3c2.7,9.5,4.2,18.8,1,28.5c-1.9,5.5-4.8,9.5-10.9,11.5c-11.1,3.7-21.9,8.4-32.8,12.5
	c-1.6,0.6-3.4,0.8-5.1,1.2c-4.2,1.1-8.8,1.6-12.6,3.5c-7.8,4-16.2,5.6-24.5,6.6c-5.8,0.7-12-1.8-18-2.9c-4.3-0.8-8.6-1.5-13-2.2
	c-11.8-1.8-22.9-5.2-31.3-14.3c-7-7.6-14-15.1-21-22.7c-6.7-7.3-14.6-11-24.9-10.7c-8.1,0.3-16.3-1.2-24.5-1.7c-2.9-0.2-5.8,0-9.5,0
	c1,7.1,4.2,12.5,7.7,17.6c7.4,10.8,16.9,19.5,27.8,26.8c5.3,3.6,10.8,7,16,10.8c4.8,3.5,9.1,7.4,10.6,13.9c-2.6,3-6,3.1-9.5,3.6
	c-4.6,0.7-9.3,1.6-13.5,3.4c-9.8,4.1-19.2,9-27.4,15.9c-2.2,1.9-4.7,3.6-7.4,4.8c-8.1,3.5-16.3,6.6-24.4,10c-2.4,1-4.2,1-6.6-0.1
	c-11.8-5.1-23.3-11.2-36.3-13.2c-3.1-0.5-6-2.5-8.7-4.2c-10.7-6.6-22.4-7-34.2-5.1c-3.5,0.6-6.6,0.4-9.4-1c-6.2-3-12.7-4.3-19.3-5.9
	c-5.7-1.4-11.3-2.8-18-4.4c0.8,1.9,1,3.9,2,4.5c5.2,3.3,10.5,6.4,15.9,9.2c5.2,2.7,10.5,5,15.9,7.4c1.6,0.7,3.2,1.5,4.9,1.8
	c11.6,2,19.5,10.3,28.2,17c2.2,1.7,3.7,5.7,3.5,8.5c-0.8,14.7-4.3,28-18.2,36.8c-10.1,6.4-18.9,14.7-28.3,22.2
	c-9.4,7.5-19.1,14.7-31.3,17c-3.4,0.6-7.1,1.2-10.4,0.5c-11.7-2.4-22.8-6.6-33.4-12.5c-12.1-6.6-24.7-12.2-37.3-17.9
	c-8-3.6-16.7-4.1-25.1-2.5c-12,2.3-23.3,0.9-34.4-3.8c-1.6-0.7-3.2-1.1-5.1-1.7c0.3,4.3,2.6,6.8,5.7,8.5c4.8,2.7,9.8,5.1,14.8,7.5
	c5,2.5,10.1,4.8,15,7.4c8.6,4.6,13.7,12.7,18.9,20.4c6.2,9.1,9.5,19.4,10,30.5c0.6,13.8-3.9,26-11.7,36.9
	c-6.9,9.6-15.6,17.4-25.3,24.1c-8.2,5.7-17.6,7.5-27,9.1c-3.3,0.6-6.9-1-10.3-1.5c-4.6-0.6-9.2-1.6-13.8-1.7
	c-7.4-0.2-14.8-0.2-22.1,0.4c-14.8,1.1-25.7-6-33.9-17c-12.9-17.2-28.7-29.9-49.4-36.4c-6.9-2.2-13.8-4.6-21.5-6.1
	c2,2.1,4,4.3,6.1,6.4c2.1,2.1,4.2,4.2,6.2,6.3c6.8,6.9,11.4,14.8,11.9,24.8c0.1,2,1,3.9,1.6,5.9c4,12,12.6,20.6,22.4,27.7
	c8.9,6.4,18.9,11.3,28.6,16.6c8.7,4.8,17.7,9,26.4,13.9c10.1,5.7,15.1,15.4,12.7,25.8c-2.1,9.2-7.1,16.8-15.9,21.1
	c-3.5,1.7-7.3,1.6-11-0.4c-4.1-2.2-8.3-4-12.5-5.8c-13.9-5.7-28.4-2.6-43.8-3.5c1.2,2.4,1.7,3.9,2.7,5c9.4,10.2,6.4,21.9-0.7,31
	c-4,5.1-10.4,6.1-16.7,6.6c-10.1,0.8-20-0.7-29.8-2.2c-4.2-0.7-8.5-2.8-12-5.3c-4.7-3.4-10-6.1-13.1-11.5c-3.1-5.3-9-6.4-14.4-7.4
	c-4.4-0.8-6.4,1.8-5.3,6.3c2,8.2,4.5,16.4,5.9,24.7c1.3,7.5,2.2,15.3-1.1,22.6c-2.1,4.6-5.3,8.2-11,8.2c-3.5,0-7.1,0.1-10.6,0.1
	c-12.6,0-12.6,0-21.9-8c-6-5.2-12-10.3-17.9-15.6c-3.8-3.3-6.5-7.1-8.2-12.2c-5.4-16.3-14.2-30.9-24.1-44.8
	c-4.4-6.2-8.8-12.4-13.2-18.6c-0.8-1.1-2.1-2-4-3.7c-0.3,2.3-0.9,3.9-0.6,5.3c3.9,15.4,6.2,31,7,46.8c0.5,10.1-1.9,19.8-4.5,29.4
	c-2.1,7.6-7.8,11.6-15.2,14.4c-8.1,3.1-16.7,4.3-24.8,4.5c-9.3,0.3-18.9-2.2-27.2-8.1c-10.1-7.2-15.9-17.1-20-28.2
	c-4.7-12.8-13.6-20.7-25.9-25.5c-1.1-0.4-2.1-1-3.2-1.5C358.1,669.8,357.3,669.6,356.1,669.3z"/>
<path class="st1" d="M1410.2,678.5c-6.7,10.3-12.4,21.3-13.3,34.2c-0.6,9-1.8,18-3.1,26.9c-0.4,2.7,0,4.3,2,6.2
	c7.2,6.9,14.1,14,21.3,20.9c2.7,2.6,6.1,4.5,9.1,6.8c3.7,2.9,7.6,5.6,10.9,8.8c5.1,5,6.1,11.4,2.2,17.6
	c-7.2,11.5-15.2,22.2-25.5,31.3c-5,4.4-9.6,9.4-13.3,14.9c-5.4,8-12.6,13.9-20.7,18.4c-10.5,5.9-21.3,11.2-31,18.3
	c-3.8,2.8-7.4,5.7-11.1,8.7c-1.4,1.1-2.5,2.7-4.1,3.3c-6,2.3-10.6,5.9-13.9,11.5c-0.9,1.5-3,2.6-4.8,3.3c-6.8,2.7-13.7,5.2-20.6,7.7
	c-4.4,1.6-9.3,2.5-13.2,4.9c-14.6,8.9-31,14-46.1,22c-5.2,2.7-11,3.8-17,4c-5.8,0.2-11.7,1-17.4,2.1c-9.8,2-19.5,3.5-29.5,3.4
	c-7.5-0.1-8.5-1.2-8.2-8.9c0.1-1.5-0.1-3.1,0.6-4.3c5.1-9.5,4.7-19.8,5-30c0.1-4.1,0.1-8.3,0-12.4c-0.1-6.8,0.3-13.4,1.6-20.1
	c1.2-6,1.4-12.2,1.6-18.3c0.2-10.3-0.2-20.7,0.2-31c0.2-7-1.7-13.3-4.9-19.3c-3.1-5.9-5.9-12-8.9-18.3c0,5.7-0.2,11.2,0,16.8
	c0.5,14.2-2.2,27.9-4.7,41.8c-1.4,8-1.9,16.3-2.3,24.4c-0.4,6.8-0.4,13.6,0,20.3c0.8,14.2-3.5,26.7-12.5,37.4
	c-6.1,7.3-10.3,15.6-14.6,24c-9.6,18.5-17.1,37.9-25.8,56.7c-3.9,8.5-8,17-11.8,25.6c-1.5,3.4-2.4,7.2-3.7,10.7
	c-3.9,10.5-9.6,19.9-15.8,29.3c-7.2,11-15.6,20.6-25.1,29.4c-3.4,3.2-7,6.7-11.1,8.6c-14.7,6.6-26.2,17.8-39.2,26.7
	c-11.2,7.6-23,14-34.5,21c-1.9,1.2-4.4,1.8-6.7,2c-8.2,0.7-16.4,1.9-24.5,1.5c-9.5-0.4-14.9,5.9-21.2,11c-0.9,0.8-1.4,2.7-1.3,4
	c0.7,11.6-2.4,22.6-5.4,33.6c-1.2,4.5-1.8,9.3-1.6,13.9c0.3,8.4-1.6,16.3-3.8,24.2c-0.7,2.5-1.4,5.1-1.6,7.7
	c-2.5,31.4-1.7,62.9-1.8,94.4c0,2.9,0,5.9,0,8.9c3.1,2.1,6,4,8.8,6.1c5.4,4,10.7,8,14.7,13.7c4.4,6.2,11.1,9.4,19.1,9.2
	c5.6-0.1,11.2-0.2,16.8,0.1c2.2,0.1,4.9,0.5,6.4,1.9c8.5,7.6,15.3,16.7,23.1,26.2c-13.1,2.7-18.2,12.7-23.6,22.1
	c-2.1,3.7-2.4,8.3-3.7,12.5c-0.5,1.6-1.4,3-2.2,4.5c-10.6-2.3-19.7-6-27.2-14c-7.8-8.3-16.9-15.3-26.5-22.3c0.3,1.1,0.5,2.3,1,3.3
	c2.1,4.5,4.5,8.9,6.3,13.5c0.8,2.1,1.1,4.6,1,6.9c-0.1,4.1-1.9,6.2-6,6c-10.7-0.4-18.4,4.9-25.2,12.2c-1.8,2-3.7,3.8-5.6,5.7
	c-4.4,4.3-10.8,4.8-14.7,0.2c-5.2-5.9-10.3-11.9-9.2-21c1.5-12.1-6.4-20.7-12.7-30c-1.1,6-1.5,12-0.8,17.9
	c1.2,9.5-5.8,15.8-16.6,12.8c-4.7-1.3-9.3-1.1-13.9-1.3c-5.4-0.3-9.6,2-12.9,6.2c-3.3,4.1-6.7,8.2-9.9,12.3c-1.9,2.5-3.9,3-6.9,1.8
	c-8.3-3.3-11.8-9.8-9.9-18.9c1.4-6.6,2.9-13.1,4-19.7c1.1-6.7,3.3-13,6.3-19.1c5.7-11.6,11.6-23.1,16.5-35.1
	c4.8-11.9,9.3-24.1,12.5-36.5c2.2-8.4,1.3-17.4-0.5-26c-3.1-14.9-6.4-29.7-9.7-44.5c-0.6-2.9-1-5.8-2-8.5
	c-3.7-9.4-3.5-19.5-5.4-29.1c-2.2-11.1,3-19.8,6.8-29.2c0.3-0.8,1-1.4,1.5-2.2c10.3-17.8,12-24,9.5-44.4c-1-8-3.4-16-5.8-23.8
	c-2.1-7-1.5-14.1-0.8-21c0.5-5.1,5.4-8.5,9.7-10.8c8.2-4.4,16.3-9.2,25.7-11.1c3.6-0.7,7.3-2.4,10.3-4.5
	c15.5-10.9,27.2-24.9,33.8-42.9c4.8-13.2,9.6-26.3,13.9-39.6c4-12.4,4.8-25.4,3.8-38.3c-0.2-3.1-1.9-6.1-2.6-9.3
	c-0.4-2.2-1.1-5.4,0-6.5c4-4.1,3.4-9,2.4-13.3c-1.8-7.3-1.3-14.6-1.5-21.9c-0.2-6.8,0.1-13.6-0.1-20.4c-0.4-13.5-0.8-27-1.5-40.5
	c-0.2-4.3-1.4-8.7-2.4-12.9c-0.2-0.9-1.4-1.6-2.3-2.6c-3.8,3.3-4,7.4-4,11.5c-0.1,8.3,0.1,16.5-0.2,24.8c-0.1,3.8-0.4,7.8-1.9,11.2
	c-4.2,9.5-6.7,19.4-8.6,29.5c-1.3,7.3-5.8,11.7-11.8,14.2c-17.5,7.5-35.3,14.1-54.4,16.7c-26.9,3.6-53.4,9.6-80,15.2
	c-6.3,1.3-12.8,1.5-19.2,2.5c-6,1-12,2.5-18,3.5c-4.6,0.8-9.2,1.6-13.9,1.6c-15,0.1-30.2,1-45.1-0.5c-13.8-1.3-27.6-0.9-41.4-1.1
	c-6.1-0.1-12.3,1.6-18.3,1.2c-25-1.7-50-1-75-1.5c-7.8-0.2-15.6-1.9-23.5-2.9c-1.2-0.2-2.3-0.4-3.5-0.5c-10.2-0.6-20.5-1.1-30.7-1.9
	c-3.2-0.2-6.3-1.3-9.5-1.8c-6.1-0.8-12.3-0.9-18.3-2.3c-13.6-3.3-27.2-6.6-40.1-12.3c-7.7-3.4-16-5.6-24-8.4
	c-6.6-2.3-13.3-4.4-20-6.7c-9.7-3.3-19.3-6.8-28.9-10.2c-1.9-0.7-4-1.2-5.7-2.2c-15.2-8.3-30.6-16.2-45.4-25.2
	c-10.7-6.6-20.1-15.2-30.8-21.9c-15.9-10-29-23-42.4-35.7c-5.1-4.8-10.6-9.3-15.5-14.3c-5-5-9.6-10.4-14.2-15.7
	c-9.1-10.3-18.2-20.6-27.2-31c-0.8-0.9-1.7-1.7-2.3-2.7c-7.9-13.1-17.4-25-26.5-37.2c-10.7-14.4-20.3-29.5-28.3-45.5
	c-9.8-19.7-19.2-39.6-26.4-60.4c-3.4-9.9-5-20.4-7.5-30.6c-4.5-17.9-7.6-36-7.5-54.6c0-2.1-0.2-4.3,0.4-6.1c0.5-1.4,2.1-3.1,3.4-3.3
	c1.2-0.2,3.2,1.1,4,2.3c7.5,11.9,15,23.8,22.3,35.8c6.1,10,11.8,20.3,18,30.3c2.5,4,5.5,7.6,8.7,11.1c8.1,9,16.7,17.5,24.4,26.7
	c11,13.2,24.1,24.2,36.3,36.1c10.9,10.7,24,18.8,36.9,27c2.7,1.7,5.3,3.6,8.1,5.3c4.2,2.6,8.5,5.1,12.9,7.4
	c8.8,4.7,17.6,9.3,26.5,13.8c5.7,2.9,11.6,5.7,17.5,8.1c10.5,4.3,21,8.6,31.8,12.3c15.7,5.4,31.2,11.7,47.9,13.9
	c7.8,1,15.3,3.9,23,5.6c14.8,3.3,29.6,6.5,44.5,9.7c0.6,0.1,1.2,0.1,1.8,0.1c12.6,0.7,25.2,1.9,37.8,2c24.2,0.2,48.4,0,72.6-0.3
	c4.9-0.1,9.9-1.2,14.8-1.8c4.6-0.5,9.3-1.3,13.9-1.3c8.9,0.1,17.6-0.4,26.1-3c0.8-0.3,1.7-0.6,2.5-0.6c10.4,0.5,20.4-1.6,30.5-3.6
	c4-0.8,8.1-1.4,11.9-2.7c7.5-2.6,15.1-4.1,23.1-4.6c6.6-0.4,13.2-2.6,19.7-4.2c1.3-0.3,2.4-1.6,3.5-2.4c1.1-0.8,2.1-2,3.3-2.2
	c14.2-1.7,27-7.5,40-12.7c17.1-6.8,32.2-16.6,46.6-28c7.4-5.8,15.6-10.4,23.3-15.9c12.2-8.6,24.1-17.7,36.3-26.1
	c4.5-3.1,7.8-7.2,10.8-11.4c11.8-17,28.6-27.5,46.6-36.4c7.6-3.7,14.5-7.7,18-15.8c0.1-0.3,0.1-0.6,0.3-0.8
	c12.4-12.6,15.9-29.8,23.9-44.8c5.6-10.5,11.8-20.3,20.4-28.3c13.1-12.2,26.2-24.4,39.6-36.3c4.6-4.1,9.9-7.3,15-10.7
	c9.3-6.1,18.8-11.9,28.1-17.9c8.4-5.4,16.8-10.6,25.9-14.8c8.5-3.9,16.6-8.8,25-13.1c4.4-2.2,9.3-3.7,13.7-6
	c28.3-14.2,57.6-26.2,86.6-38.8c6.2-2.7,12.1-5.9,18.2-8.6c9.3-4.2,18.8-7.8,28.9-10.1c15.4-3.4,30.5-8.1,45.8-11.8
	c6.2-1.5,12.6-2.6,18.9-2.8c9.8-0.3,19.1-2.4,28.3-5.8c16.2-5.9,32.6-11.2,48.9-16.7c10.8-3.6,21.9-6.6,32.3-11
	c9.9-4.2,19.2-9.8,28.7-15c2-1.1,3.3-3.5,6-1.7c7-2.7,14.5-4.1,20.9-8.6c4.1-2.9,8.3-5.6,12.7-7.9c10.8-5.7,16.4-15.5,20.8-26.3
	c0.7-1.7,0.5-4.2-0.2-6c-1.4-3.6-0.4-6.6,0.3-10.2c3-15.8,9.8-30,16.1-44.6c5.4-12.6,9.7-25.8,14.6-38.7c2.4-6.3,4.9-12.6,7.5-18.8
	c0.5-1.3,1.4-2.7,2.4-3.7c7.6-6.8,12.3-15.7,17.3-24.3c2.3-4,4.9-7.5,8.8-9.7c9.8-5.5,16.4-14.3,23.2-22.7c4.3-5.3,9.2-9,14.9-12
	c8.8-4.6,17.9-8.8,26.6-13.5c3.3-1.8,6.4-4.3,9.2-6.9c8.8-8.3,17.8-16.1,28.7-21.5c4.2-2.1,5.2-7,7-10.7
	c6.5-13.3,17.8-18.8,31.6-20.1c7.6-0.7,15.3-0.6,22.1,3.9c3.5,2.3,6.9,2,9.4-1.2c3.4-4.3,8.4-5.5,12.9-7c3.3-1.1,7.4-0.3,11.1,0.4
	c8.3,1.6,14.8,7.2,20.8,12.4c7.7,6.6,15.3,6.3,23.8,3.3c4.7-1.7,9.3-3.6,14-5.1c2.5-0.8,5.2-1.2,7.7-1.1c4.9,0.3,9.9,1,14.8,1.9
	c5.8,1.1,11.1,3.3,15,8.2c5.5,7,12.7,9.5,21.7,9.4c25.9-0.4,51.9-0.1,77.9-0.1c2.3,0,4.9-0.2,6.9,0.6c6.5,2.8,13.2,2.7,19.9,2.5
	c4.2-0.1,8,0.8,11.9,2.2c4.6,1.6,9.7,2.1,14.4,3.5c3,0.9,6,2.2,8.6,4c6.6,4.4,12.1,9.9,18,15.2c4.9,4.4,11.3,7.4,17.4,10.2
	c5.2,2.3,9.7,5,13,9.8c1.9,2.9,4.8,5.2,7.4,7.5c3.2,2.9,4.8,6.2,4.8,10.8c0.2,10.5,0.8,21.1,1.7,31.6c0.7,8.3-2.7,15.5-5.5,22.9
	c-1.4,3.8-3.8,7.3-6.3,10.6c-4.4,5.6-7.4,11-8.3,18.6c-0.8,6.6-5.3,12.8-8.6,19c-1,1.8-3.3,3-5.3,4.7c-0.6-1.5-1.3-2.3-1.2-3
	c1-8.4-4.2-14.4-7.8-21.1c-0.7-1.3-1.8-2.4-3-3.2c-4-3-8.3-0.9-8.7,4.1c-0.2,2.3,0.2,4.7-0.1,7.1c-1,8.8-4.3,16.3-12.3,21.2
	c-2.5-5.6-4.7-10.9-7.3-15.9c-2.7-5.2-8-7.5-12.2-10.5c-4.3,8.6-8.5,16.8-12.5,25.1c-2.1,4.4-5.1,6.2-10.3,4.1
	c-0.7-3.1-1.4-6.5-2.1-9.9c-0.2-1.2,0-2.5-0.6-3.5c-2.4-4-4.3-8.7-7.6-11.6c-2.2-1.8-6.7-0.9-10.6-1.2c-0.9,4.1-1.9,7.7-2.6,11.4
	c-1.2,7.2-5.4,13-9,19c-0.9,1.4-3.8,1.6-6.5,2.6c-0.4-3.1-0.5-5-0.9-7c-1.5-9-6.8-15.5-14.1-20.4c-4-2.7-7.1-1.4-8.7,3.3
	c-1.9,5.8-3.4,11.8-5.5,17.5c-0.7,2-2.5,3.6-4.4,6.2c-1.1-2.4-1.9-3.6-2.1-4.9c-2.6-13.2-12.2-19.5-25-16.1
	c-6.9,1.9-13.2-0.3-19.7-2.1c-2.5-0.7-4.9-1.7-7.4-2.6c-5.1-1.8-10-3.1-14.9,0.9c-6.5,5.2-13.1,10.2-12.7,19.7
	c0.3,8.5-1.4,17,1.8,25.3c0.5,1.3-0.1,2.9-0.1,4.3c-3.3,2.2-5.5,0.9-7.7-1.6c-3.3-4-6.9-7.8-10.2-11.8c-3.3-4.1-6.3-8.5-9.8-13.2
	c0,8.3,2.9,15.1,6.4,21.8c1.2,2.3,2.6,4.7,3.2,7.2c1.5,6.3,6.3,9.1,11.7,10.7c6.7,2.1,13.5,3.5,20.3,5.2c6,1.5,11.6,1,17-2.3
	c5.8-3.5,11.6-6.9,17.4-10.4c5.3,4.7,5.6,5.6,3,11.6c-0.9,2.2-2.3,4.1-3.2,6.3c-1.5,3.7-0.7,7.4,1.6,8.9c2.3,1.5,7.9,1.4,10.1-0.4
	c4.3-3.5,8.6-7,12.8-10.6c4.1-3.5,7.5-7.4,8.7-12.9c0.4-1.6,1.4-3.1,2.1-4.8c6,6.8,9.3,14,8.1,22.9c-0.5,3.4,0.2,6.5,4.1,7.7
	c4,1.3,7.1-0.6,9.3-3.5c3.3-4.5,6.1-9.4,9.1-14.1c0.9-1.4,1.8-2.9,3.3-5.3c3.1,4.2,5.8,7.5,8.1,11.2c2.2,3.6,3.2,7.6,0.4,11.6
	c-1.7,2.4-1.9,5,0.3,7.2c2.5,2.5,5.5,1.5,8.2,0.4c1.3-0.5,2.5-1.6,3.4-2.7c5.8-7.2,13.5-13.2,14.9-24.4c2.4,1.1,4.4,1.6,5.6,2.8
	c1.3,1.3,2.4,3.4,2.5,5.2c0.3,5.6,0.1,11.2,0.1,16.8c0,2.4-0.3,4.8,0,7.1c0.6,4.2,4.6,6.2,8.6,4.5c7.4-3.1,10.8-9.7,14.1-16.3
	c1.9-3.9,3.6-7.8,5.8-12.5c5.9,10.5,10.4,20.1,7.9,31.5c4,1.7,6.8-0.3,8.8-3.5c1.9-2.9,3.3-6.2,4.9-9.3c1.3-2.6,2.2-5.5,3.9-7.9
	c0.8-1.1,3-1.7,4.5-1.6c1.1,0.1,2.1,1.7,3.1,2.7c0.2,0.2,0.2,0.5,0.2,0.8c-0.3,8.8,1.5,17.6-1.4,26.3c-2,5.8-5,10.4-10.9,12.8
	c-6.8,2.7-13.4,5.9-20.3,8.4c-3.2,1.2-6.8,1.8-10.3,1.8c-11.1-0.2-22.3-1.3-33.4-1.2c-13.5,0.1-27,2.4-40.4,1.4
	c-32.7-2.3-65.3-0.8-98-1.7c-7.5-0.2-15.1-2-22.5-3.8c-8-1.9-16.1-1.4-24.2-2c-2.2-0.2-4.5-1-6.3-2.2c-2.8-1.9-5.7-2.8-9.1-2.6
	c-6.2,0.2-12.4,0.3-18.6,0.2c-12.1-0.2-24-1.9-35.2-6.7c-2.4-1-5-2-7.5-2.4c-10.1-1.9-16.4-8.6-21.8-16.6c-4.1-6.1-8.2-12.2-12-18.5
	c-4.5-7.4-10.1-13.6-17.2-18.8c-4.5-3.3-8.6-7.1-12.9-10.7c-1.4-1.1-2.6-2.4-4-3.5c-1.8-1.4-4.1-1.8-5.5,0c-0.8,1-0.7,3.6,0.1,4.7
	c3.4,4.8,7.1,9.4,10.8,13.9c2.9,3.7,6.1,7.1,9,10.8c1,1.3,2,3.1,2,4.8c0.2,6.3,3.2,11.1,7,15.8c5.1,6.3,25.3,24.6,32.2,28.6
	c11.9,6.9,25.1,9.6,38.3,12.3c5.4,1.1,11.1,1.1,16.6,2c2.2,0.3,4.4,1.4,6.5,2.4c3.6,1.8,7.1,3.9,11.5,6.4c-1.8,4.5-3.7,9.3-5.7,14
	c-1.5,3.8-3.5,7.5-4.6,11.4c-2.4,8.2-6,15.6-11.1,22.6c-8.2,11.1-14.1,23.5-17.8,37c-3.7,13.5-8.7,26.7-13,40
	c-1.1,3.3-2.2,6.7-2.8,10.2c-2.2,12.1-5.6,23.9-10.2,35.3c-3.1,7.9-5.4,16.1-8.6,23.9c-7.5,18.5-20.1,33.7-31.6,49.6
	c-3.8,5.2-7.5,10.5-11.5,15.5c-10.9,13.7-21.5,27.9-36,38.2c-1.8,1.3-3.1,3.5-4.5,5.3c-1.2,1.6-2.1,3.6-3.5,5.1
	c-14.8,16.1-22.7,36-29.6,56.2c-1.5,4.5-0.9,9.9-0.9,14.8c0,1.5,1.4,3.1,2.5,4.4c7.7,8.9,15.8,17.5,26.4,23.1
	c4.4,2.3,8.8,4.5,13.4,6.6c12.5,5.7,25.3,10.8,37.6,16.9c9,4.4,17,10.8,22,19.7c2.2,3.8,5,6.3,8.8,8.2c4.6,2.5,8.9,5.6,13.6,8.1
	c3.3,1.8,6.9,3.3,10.6,4.2c4.9,1.2,8,3.9,8.9,8.6c2.2,12.2,11.8,19.3,19.4,27.6c4,4.4,6.4,8.7,6.9,14.6c0.8,10.5-1.8,20.4-4.5,30.3
	c-0.7,2.5-1.4,6.1-6,5.3c-0.4-3.7-0.5-7.5-1.3-11.2c-2.3-11.2-8.6-19.7-18.1-26.1c-6.5-4.4-12.8-9.1-19.5-13.9
	c-1,4.2-0.4,8.5,2.1,12.6c5.7,9.4,5.9,19.4,2.4,29.5c-2.2,6.3-5.7,12.2-8.4,18.4c-1.5,3.4-3.7,5.9-8.2,7.5
	c-0.8-5.9-1.3-11.3-2.5-16.5c-1.6-7.4-3.5-14.7-5.6-22c-0.5-1.8-2.1-3.5-3.5-4.8c-2.4-2.1-5.1-3.9-7.9-5.9c-2.4,1.6-4.3,3.1-3.4,6.9
	c1.8,8.3-2.6,18.4-10,22.3c-7.1,3.8-14.5,7.5-24,7.7c0.4-1.6,0.6-2.6,1-3.5c4.6-12.9,5.5-26.4,5.4-39.9c0-6.4,0.2-12.9-1.6-19.2
	c-2.4-8.3-9.3-14.9-17.8-15.5c-10.4-0.8-19-5.9-26.8-12.1c-6.7-5.3-14-9.6-21.3-14c-7-4.3-13.3-9.7-19.8-14.6
	c-0.2-0.2-0.4-0.5-0.7-0.6c-7.1-3.6-12.4-9.5-18.5-14.4c-2.2-1.8-5-3.8-7.6-4c-12-0.7-21.6-7.1-31.6-12.6
	c-5.7-3.1-11.1-6.5-16.8-9.6c-3.6-2-6.2-5-7-8.6c-2.6-11.4-6.2-22.6-5.3-34.5C1408.1,693.5,1409.3,686,1410.2,678.5z M1003.7,1089.8
	c4.2,0,5.8-3.7,8.3-5.9c6.5-5.9,11.8-13,20.2-16.7c2-0.9,3.2-3.3,4.7-5.1c1.5-1.8,2.6-3.9,4.3-5.5c6.2-6.3,8.6-16.1,5.6-25.4
	c-9.1,11.6-18.5,23.5-27.7,35.6c-5.3,7-10.1,14.3-15,21.5c-0.3,0.4-0.2,1.1-0.3,1.7c-0.2,0.4-0.5,0.9-0.7,1.3
	C1003.3,1090.8,1003.5,1090.3,1003.7,1089.8z M1597.4,185.8c8.1-0.2,13.9-0.3,19.7-0.5c8-0.3,14.8,2,20.9,7.6
	c7.3,6.7,16.7,9.6,26.1,7.7c10.5-2.1,20.6-6.2,30.8-9.9c4.7-1.7,9.2-3.8,14.4-3.6c8,0.2,14.8-2.9,21.2-7.3c4.1-2.8,8.4-5.4,12.3-8.5
	c2.5-1.9,4.8-4.2,6.6-6.8c3.3-4.8,6.2-9.9,9.2-14.8c10.2-16.9,26.4-18.8,43.9-17.3c1.4,0.1,2.8,0.9,4.1,1.6c3.4,2,4.2,5.5,4.7,9
	c0.5,3.4-2.2,4.3-4.4,5.8c-2.9,1.9-5.5,4.2-8,6.6c-1.4,1.4-1.4,3.5,0.1,4.8c1.2,1,2.9,1.7,4.4,1.9c1,0.2,2.2-0.6,3.2-1.1
	c7.6-3.8,15.2-7.7,22.9-11.4c2.9-1.4,5.9-3.3,8.9-3.3c13.9-0.2,27.1-4.1,40.5-6.6c12.4-2.3,24.6-5.5,37.4-4.2c1.8,0.2,3.5,0.1,5.3,0
	c9.1-0.2,18,0.5,27,3.1c7.3,2.1,14.8,1.9,21.4-4.2c5.5-5.1,12.1-9,18.8-13.8c-5.4-2.9-6.5-7-5.9-12.1c0.8-7.4-3.1-12.7-9.7-15.2
	c-7-2.7-11.5-7.6-15.8-13.4c-6-8.2-14.1-13.2-24.7-13.3c-2.3,0-4.6-0.6-7-0.8c-7-0.7-14-1.7-21-2c-4.3-0.2-8.7,0.8-13.1,1.1
	c-8.2,0.6-16.4,1.1-24.6,1.5c-1.7,0.1-3.6,0.1-5.3-0.2c-14.4-2.6-28.7-5.4-43.2-7.8c-4.4-0.7-9.3-1.3-12.7,3.2
	c3.9,4.6,3.9,4.7,7.9,5c13.4,1.1,24.9,7.1,34.6,15.8c8.1,7.3,7.6,15.3-3.2,19.8c-6.8,2.9-14,2.3-20.8,0.9c-3.8-0.8-6.7-0.7-10,1.1
	c-4.7,2.5-9.9,3.6-15.3,3.4c-9.4-0.3-18.7,0.4-27.9,2.8c-7.7,2.1-17.4-4.4-18.5-12.4c-1.6-11.6,0.5-22.2,10.9-29.8
	c2.6-1.9,6.3-3.4,6.7-8.1c-4-1.3-7.8-2.7-11.7-3.8c-10.3-3-21.5-1.3-31.7-5.2c-1.3-0.5-2.9-0.1-4.4,0.1c-8.9,1.2-17.5-0.4-25.6-3.7
	c-6.9-2.8-13.9-1.5-20.9-2c-1.2-0.1-2.7,1.1-3.8,2c-8.4,7.2-18.1,11.7-28.9,14.2c-4.3,1-8.9,3.4-10.2,7.7c-2.7,8.9-8.1,17-8.1,26.7
	c0,13.3-17.1,31.8-31.8,29.3c-5.4-0.9-11.1-0.1-16.3-0.1c-3.2,5.7-3.5,11.3-3,16.9c0.2,2.7,1.5,6,3.5,7.7c5,4.6,11,8,17.9,8.6
	c14.8,1.3,27.8-2.7,38.1-14c7.2-7.8,14.8-15.1,24.1-20.5c8.9-5.2,18.3-5.8,28-3.1c3.6,1,7.1,2.5,10.5,4.1c3.7,1.7,7.7,3.2,10.8,5.7
	c6.9,5.4,9,17,4.7,24c-2.1,3.5-4.5,6.9-6.6,10.4c-3.5,6.2-9,8.9-15.8,9.8c-10.8,1.4-21.4,2.7-32.4,0.4c-6.3-1.3-12.9-0.7-18.6-4.4
	c-2.2-1.4-4.2-1.4-6.5,0.1c-6.6,4.4-14.1,7-21.7,9.3C1606.2,181.3,1602.6,183.4,1597.4,185.8z M1067.1,709.4
	c-7.4,0-13.7-0.9-19.6,0.2c-16.3,2.9-32.4,6.9-48.7,10.1c-5.4,1.1-8.5,4.2-9.1,9.2c-0.9,7.2-1,14.6-1.6,21.9
	c-0.5,5.8-0.7,11.7-2,17.4c-2.7,12-11.8,18.1-22.8,20.6c-6.4,1.4-13.5,0.6-20.3,0c-6.1-0.5-11.2-3.4-13.9-9.4
	c-0.5-1.1-1.1-2.1-1.8-3c-3.8-5-7.7-10.6-13.9-11.6c-7.1-1.2-14.7-0.8-21.9,0c-5.3,0.6-6.2,2.9-6.5,8.8c-0.4,7.1,1.6,13.7,3.3,20.6
	c1.4,5.3,4.3,7.4,8.2,8.9c3.5,1.3,7.4,1.4,11.2,1.7c13.5,1.2,25.8,4.9,35.1,15.8c4.3,5.1,8.5,10.3,14.1,14.4c2.8,2.1,4.9,6,6,9.5
	c1.8,5.8,3.6,12,3.6,18c0,7.3,1.9,13.1,6.9,18.3c1.3-0.3,2.8-1.2,4.1-1c4.6,0.7,9.1,2.2,13.7,2.6c7.2,0.7,15.1-0.1,18.9-6.4
	c3.9-6.6,6-14.6,7.4-22.2c1-5.5,1.4-10.9,3.4-16.3c1.3-3.5,1.9-7.4,2.5-11.1c2.8-17.6,13.1-29,29.4-35.1c10.7-4,21.6-7.3,32.3-11.2
	c5.5-2,8.6-7.1,6.8-12.6c-1.4-4.4-3.8-8.5-6.4-12.3c-2.8-4.1-6.4-7.7-9.3-11.7c-3.6-5-6.6-10.3-7-16.8
	C1068.8,721,1067.9,715.6,1067.1,709.4z M947.1,712.6c-2.9-5.8-2.7-6.2-6.2-7.9c-6.9-3.3-8.9-8.6-8.2-15.9
	c0.6-6.8,3.3-12.6,8.3-16.9c4.2-3.7,9.4-1.9,14.2-0.4c0.3,0.1,0.6,0.2,0.8,0.2c5.1,0.9,9.7,1,13.7-3.4c2.9-3.2,7-5.3,11.5-6.1
	c8.3-1.4,16.6-3.3,25-4c13.5-1.1,26.9,0.7,39.8,5c8.9,2.9,15.9,1.8,21.7-6.4c-7.5-13.1-16.6-23.8-33.1-25.6c-9-1-17.9-2.1-26.9-3.2
	c-11.6-1.3-23.3-2.1-34.9-4.1c-8.6-1.4-17-3.8-24.4-9.3c-6.3-4.7-13.3-8.6-20-12.8c-7-4.4-14.5-3.6-20.8,2
	c-6.9,6.2-12.1,13.3-13.8,22.7c-0.8,4.6-2.9,8.9-4,13.4c-1.7,6.8-2.8,13.7-4.5,20.5c-0.9,3.3-1.9,7-4,9.5
	c-5,6.1-10.8,11.6-16.2,17.4c-2.5,2.8-5.1,5.6-7,8.8c-4.2,7.5-7.5,15.3-6.8,24.2c0.1,1.7-0.7,3.4-0.9,5.1c-0.2,1.7-0.7,3.7-0.2,5.2
	c0.6,1.7,1.9,4.1,3.3,4.4c1.5,0.4,4-0.9,5.2-2.2c3.5-3.9,6.7-8.1,9.9-12.2c9.1-11.6,19.4-14.2,31.7-10.3c7,2.2,14,4.2,21.2,5.2
	C930.1,716.9,938.4,716.2,947.1,712.6z M917.2,1083.6c4.8-1,9.3-2,13.9-3c7.8-1.7,15.1-4.3,21.1-10.1c3.6-3.5,6.5-8.3,12.5-8.4
	c0.7,0,1.4-1,2-1.7c4.8-4.8,10.1-9.2,14.2-14.5c8.1-10.7,17.2-20.7,22.6-33.3c1.6-3.6,4.5-6.8,7.4-9.6c6.2-5.8,13-11,19.1-16.9
	c4.2-4.2,8.5-8,13.9-10.5c2.8-1.3,5.8-3.3,7.6-5.8c9.2-12.6,17.4-25.8,21.2-41.2c4.6-19,9.6-37.9,13.4-57.1
	c2.1-10.7,1.6-21.7-3.7-31.8c-3.5-6.7-12-10.7-19.1-9c-9.4,2.3-14.8,8.1-15.2,16.6c-0.4,6.8,0.5,13.5,2.2,20
	c3.1,11.8,1.7,22.3-7.2,31.7c-6.5,6.8-11.9,14.5-17.6,22c-6.7,9-10.8,19.4-14.6,29.9c-1.3,3.7-3,6.6-6.7,8.7
	c-4.2,2.5-7.7,6.3-11.5,9.5c-2.7,2.2-5.4,4.6-8.4,6.3c-8.8,5-15.3,12.1-18.8,21.4c-3.7,9.8-8.6,18.6-16,26c-3.5,3.5-7.5,8-6.8,12.9
	c1,7.2-2.5,11.7-6.4,16.3c-3.9,4.7-8.2,9.2-12.1,14c-2.8,3.4-5.3,7-7.8,10.6C914.6,1079.4,915.1,1081.8,917.2,1083.6z M1153.1,567.6
	c-5.1,2.3-8.2,5.8-9.1,10.6c-1,5.2-1.8,10.5-1.7,15.7c0.2,13.2,0.8,26.4,1.6,39.6c0.4,6.1,1.3,12.2,2.3,18.3
	c0.8,5.2,2,10.3,3.1,15.5c1.8,8.6,4,17.1,9.4,24.4c2.1,2.8,4,5.8,5.6,8.9c6.4,12.3,13.9,23.8,23.1,34.2
	c13.7,15.6,28.3,29.8,46.7,39.8c7.1,3.9,12.6,9.3,17.2,16.1c7.5,10.9,15.4,21.5,23.7,31.8c6.3,7.8,14.3,12.9,25.1,12.3
	c6.5-0.3,13-0.4,19.4-0.1c14.2,0.6,24.7-7.5,35.8-14.4c0.3-0.2,0.3-1.1,0.5-2c-2.7-4.6-7-6.3-12.3-6.5c-10.3-0.4-20.6-0.7-30.8-1.7
	c-10.8-1.1-20.4-5-27.1-14.3c-5.5-7.6-11.3-15-17.2-22.4c-2-2.5-4.4-4.7-6.8-6.9c-4.2-3.7-8.4-7.3-12.7-10.9
	c-4.3-3.6-8.2-7.8-12.9-10.6c-9.9-5.9-17.2-14.2-23.4-23.6c-18.2-27.1-34.5-55.1-46.2-85.9c-5.5-14.5-8.8-29.1-8.4-44.5
	c0.1-4.7-0.1-9.4,0-14.1C1158,573.2,1156.8,570.2,1153.1,567.6z M1474.2,712.2c0.3-1.5,0.9-2.8,0.5-3.2c-3.8-3.8-3.3-8.8-4.4-13.5
	c-2.3-9.4-1.3-18.6,2-27.6c4.6-12.3,8.2-24.8,11.5-37.5c1.7-6.8,2.2-13.6,1-20.1c-2.3-11.8-1.2-23.4-1-35.1c0.1-4.9,1.2-10,5.1-13.6
	c5.1-4.8,6.2-11.2,6.9-17.6c0.4-4.4-0.1-8.9,0.3-13.2c1.4-15-11.9-27-24.7-28.3c-5.5-0.6-10.2-2.5-15.1-4.5
	c-7.9-3.2-15.6-6.8-23.3-10.4c-4.9-2.3-9.9-3.7-15.3-3.1c-3.5,0.4-7,0.9-10.3,2.1c-5.8,2.2-8,9.7-4,17.3c3.8,7.2,8.6,14,13.6,20.4
	c3.4,4.3,7.4,9.5,12.2,11.1c9.2,3.1,11.9,10.5,15.4,17.9c0.7,1.6,1.2,3.3,1.7,5c3.6,12.7,9.3,24.5,15.3,36.2c5,9.8,8,20.4,7.5,31.2
	c-0.6,12.2-3.1,24.4-11.5,34.3c-2.7,3.2-4.1,7-4.1,11.4c0,2-0.5,4.1-0.8,6.1c-1.4,8.7-0.2,16.8,3.5,24.8
	C1459.7,710.1,1465.2,713.3,1474.2,712.2z M1221.9,546.9c-0.2,0-0.4-0.1-0.6-0.1c0-2.1,0.1-4.1,0-6.2c-0.3-5.7-3.1-7.9-8.6-6.4
	c-1.9,0.5-4,1.6-5.3,3c-6.3,7.2-11.3,15.1-10.3,25.3c0.8,8.7,1.9,17.5,3,26.2c2.3,17.1,4.4,34.3,7.4,51.3
	c2.9,16.1,8.8,31.1,19.7,43.5c9.9,11.3,20.2,22.3,30.8,32.9c12.5,12.5,25.5,24.5,38.2,36.7c3.2,3.1,6,6.4,8.8,9.8
	c7.3,9,15.9,15.6,27.8,16.9c3.8,0.4,7.7,0.8,11.1,2.3c7.2,3.2,14.9,3,22.3,4.7c5.5,1.3,10.9,0.3,16.2-2.4
	c11.3-5.9,10.9-11.6,0.8-19.6c-1.1-0.9-2.5-1.5-3.8-2.2c-8.4-4.7-17.7-6.2-27-7.1c-5.7-0.5-11-2-15.9-4.7c-6.7-3.6-13.4-7.3-20-11.3
	c-5.5-3.4-11.4-6.5-16-10.9c-11-10.7-24.3-18.5-35.8-28.6c-11.8-10.4-18.9-23.9-28.7-35.5c-0.9-1.1-1.3-2.6-1.9-4
	c-5.9-14.6-8.2-29.9-9.2-45.4c-0.5-8.9-1.8-17.4-4.3-25.9c-2.9-9.7-4-19.5-1.3-29.5C1220.8,555.6,1221.2,551.2,1221.9,546.9z
	 M1287.7,498.9c-1.8-0.2-3.3-0.3-4.8-0.5c-5.8-0.8-9.8,1.5-11.7,7c-1.9,5.5-3.8,11.1-5.2,16.7c-2.1,8.5-3.1,17.3-5.6,25.7
	c-5.2,17.4-4,34,3.1,50.6c3.8,8.8,6.5,18.2,9.6,27.3c4,11.6,7.4,23.4,16.4,32.7c8.2,8.4,15.8,17.5,23.2,26.7
	c8.3,10.3,18.1,18.4,30.5,23.1c4.9,1.9,10.2,2.9,15,5.1c5.6,2.6,10.2,1.1,14.9-2c5.1-3.4,5.8-8.2,1.1-12.2c-2.4-2.1-5.3-3.9-8.3-5
	c-6-2.2-10.9-5.7-15.2-10.2c-7.6-8.2-15.3-16.4-22.8-24.7c-11.7-13-21.5-27.1-25.6-44.6c-0.9-4-2.5-7.8-3.9-11.7
	c-3.2-8.9-4.6-18-4.8-27.6c-0.3-20.3,1.9-40.6-1.2-60.9C1291.6,509.2,1290.8,504.1,1287.7,498.9z M1866.1,298.2
	c-4.1-3.3-8.4-3.4-12.9-3.3c-9.4,0.2-18.9,0.3-28.3,0.3c-5,0-9.8-0.6-14.5-2.9c-3.6-1.7-7.9-2.7-11.9-2.6
	c-7.6,0.2-14.5-1.9-21.3-4.6c-2.4-1-4.9-1.8-7.5-2.5c-17-4.4-33.8-9.7-49.1-18.6c-3.1-1.8-6.1-2.9-10-1.4c-2.6,1-5.8,0.6-8.7,0.5
	c-9.1-0.6-14.9-7-14.9-16.1c0-2.9,0.6-6-0.1-8.8c-0.6-2.3-2.3-5.5-4.2-6c-3.7-1-7.2-4.2-11.7-1.6c-1.2,0.7-3.2-0.1-4.9-0.1
	c-1.4,0-3.2-0.3-4.1,0.4c-7,5.6-13.1,12-13.5,21.5c-0.6,15.2,6.4,27.5,16.1,38.6c2.1,2.4,4.6,2.4,7.2,2.1c6.6-0.8,13.2-2.3,19.9-2.8
	c11.1-0.8,22.2-2.2,32,5.8c2.7,2.3,6.9,3.4,10.5,4c7.5,1.1,15.1,1.4,22.7,2.2c3.8,0.4,7.6,0.5,11.2,1.6c6.9,2.1,13.7,1.9,20.7,0.7
	c6.9-1.2,13.9-1.4,20.9,0.8c5.8,1.9,11.9,3.1,17.8,4.8c15.7,4.5,31.8,4.8,48,4.3c2.3-0.1,4.6,0.4,6.4-2c3-4.1,1.2-9.1-4-10
	c-3.7-0.6-7.6-0.4-11.5-0.6c-0.5,0-1-0.5-1.4-0.7C1865.3,300.4,1865.5,299.6,1866.1,298.2z M649.6,819.7
	c0.2-14.5-2.7-17.2-15.6-16.3c-1.4,0.1-2.9,0.5-4.3,0.8c-10.8,1.7-21.2,4.2-30.6,10.1c-1,0.6-2.1,1.2-3.2,1.3
	c-5.8,0.9-8.1,5.3-9.9,10c-1.9,5.1-2.2,10.3-0.5,15.5c1.5,4.4,3.1,8.9,4.3,13.4c2,7.6,4,15.1,2.1,23.3c-1.5,6.8-1.9,14-2,21
	c-0.1,8.3,4.1,14.7,11.7,18.2c9.5,4.4,15.8,1.4,18.5-8.6c0.7-2.5,1-5.2,1.1-7.8c0.2-7.4,0.1-14.7,0.1-22.1c0-6.6,2.3-12,8-15.7
	c2.4-1.6,4.8-3.4,7-5.3c5.5-4.7,9.7-10.6,11.1-17.6C649,832.7,649.1,825.3,649.6,819.7z M713.9,887c6.1-0.5,7.5-1.6,8.2-7.4
	c0.3-2,0.2-4.1,0.2-6.2c-0.1-8.5,0.4-17.2-0.4-25.6c-1-10,2.1-17.5,10-23.8c9.6-7.6,13.3-18.5,12.8-30.4c-0.4-10.6-3.8-20.7-7-30.7
	c-0.9-2.8-2.9-4.1-6-4.2c-5.8-0.2-10.2,2.8-14.3,6c-8.3,6.5-16.3,13.2-26,18c-10.5,5.2-11.2,12.1-5.4,21.7c0.3,0.5,0.9,0.9,1.1,1.4
	c0.7,1.9,1.8,3.8,1.7,5.7c-0.2,8.4,1.8,16.4,4.1,24.2c2.6,8.6,3.4,17.2,3.2,26.1c-0.1,3.2,0,6.5-0.5,9.7c-1,6.3,1.8,10.2,7.4,12.3
	C706.6,885,710.3,886,713.9,887z M826.9,1241c-0.6,10.5,1,20.5,4.6,30.3c3.9,10.6,4.8,21.7,5.6,32.8c1.1,15.8,1.6,31.7,2.1,47.6
	c0.1,3.9,0.3,7.5,3.6,10.4c1.1,1,1.4,3,1.7,4.7c0.3,1.7-0.1,3.5,0.1,5.3c0.4,3.8,4.4,6.3,9.3,6.1c3.4-0.2,4-1,4.4-6.2
	c1.2-12.5,2.4-25,3.5-37.5c0.2-1.7,0.2-3.6-0.1-5.3c-1.2-6-2.7-12-3.9-18c-1.1-5.4-2.7-10.9-2.7-16.3c0.2-24.1-1.7-48.3,1.6-72.3
	c1.7-12.4-1.8-25.1,1.8-37.6c0.9-3.3-1.4-6.5-4.6-7.6c-3.2-1.1-6.6-1.5-9,1.3c-2.2,2.7-4.4,5.7-5.5,8.9c-2.9,8.6-4.5,17.7-7.8,26.1
	C828.2,1222.6,826.3,1231.6,826.9,1241z M1402.2,640.7c2.9-3.5,3.3-6.4,2.4-10.3c-2.1-8.7-6.5-16.1-13.6-21
	c-11.4-7.8-19.4-17.8-23.6-30.9c-0.5-1.7-1.4-3.2-2.2-4.8c-6.5-13.5-6.8-27.6-4.7-42.2c1.4-9.3,2.3-18.7,2.4-28
	c0-7.9-3-14.9-10.6-19c-5-2.7-7-2.5-10.9,1.4c-3.8,3.8-7,8.1-8.2,13.4c-1.2,5.1-2.3,10.3-2.7,15.5c-1.3,14.4-1.4,28.8,2.7,42.8
	c5.4,18.7,14.4,35.3,28.7,48.8c4.5,4.2,9,8.8,11.8,14.2C1379.8,632.7,1391.6,635.5,1402.2,640.7z M490.6,824.9
	c-10.3,10.7-14,22.1-7.8,35.8c2,4.5,2.8,9.5,4.1,14.3c2.4,9,1.7,18.1,1.6,27.2c-0.1,6.2,2.1,11.4,5.7,16.3c2.2,3,5.1,5.3,8.9,4.6
	c3.1-0.6,4.4-3.6,5.1-6.6c0.3-1.4,1.2-2.7,1.4-4.2c1.2-8.7,2.9-17.4,3.4-26.1c0.5-8.9,4.5-14.9,12.4-18.6c6.8-3.2,12.4-8,17.2-13.7
	c2-2.3,3.6-5.5,4.1-8.5c0.7-4.9,0.4-10,0.5-15c0.1-3-1.1-4.9-3.8-6.3c-8.6-4.5-17.4-4.9-26.2-0.9
	C508.7,827.2,500.1,828.9,490.6,824.9z M821.1,730.4c0-3.5,0.2-7.1,0-10.6c-0.3-5.4-2.8-7.9-8.1-8.7c-6.9-1-12.5,1.1-17.7,5.9
	c-7.9,7.3-13.5,16.3-19.6,24.8c-5.5,7.7-6.9,15.9-4.4,25c2.2,7.9,4.2,15.8,6.3,23.7c2.9,11.3,5.6,22.7,8.8,34
	c1.7,5.9,5.6,8.6,10.8,8.6c4.3,0,8.1-3.1,9.6-8.8c1-3.9,1.5-8.1,1.9-12.1c0.9-11.6-1.3-22.8-4.3-33.9c-1.6-6.1-0.7-11,4.9-14.5
	c3.9-2.4,6.3-6,8.2-10.1C821,746.3,821.2,738.4,821.1,730.4z M421.8,818.8c-13.5,0.9-23.7,1.5-33.9,2.2c-1.2,0.1-2.4,0.1-3.4,0.6
	c-7.9,3.8-11.9,13.9-9.2,22.4c0.3,0.8,0.3,1.8,0.7,2.5c6.9,12,5.9,24.9,3.8,37.7c-1.4,8.9,0.6,16.4,6.4,22.7
	c4.4,4.8,10.4,5.4,12.2-2.7c1.4-6.5,2.7-13.2,3.1-19.8c0.4-6.2,1.4-12.1,3.6-18c2.2-5.9,5.6-9.8,12.4-10.8
	c7.9-1.1,15.3-3.5,21.1-9.7c2.1-2.3,5.3-3.6,8.1-5.2c6.5-3.8,6.9-11.3,0.6-15.6c-2.9-1.9-6.2-3.4-9.6-4.1
	C431.5,819.7,425.1,819.2,421.8,818.8z M287.5,880.5c5.6-3.6,7.6-8.1,8.1-13.8c1.5-15.2,10-26.5,27.9-26.7c4.2-0.1,8.5-1.8,12.6-3.3
	c3.6-1.3,5.3-4.2,5.6-8.2c0.3-4.7-0.7-8.7-3.9-12.2c-6.6-7.2-13.3-14-23.7-15.6c-4.9-0.8-9.5-2.9-14.3-4.1
	c-4.5-1.1-9.1-1.9-13.8-2.3c-1.8-0.2-4.5,0.6-5.5,1.9c-6.3,8.5-11,17.7-6.9,28.5c3.1,8,3.6,16,1.5,24.1c-2.8,11.1,2.1,20,7.6,28.8
	C283.7,879,285.8,879.5,287.5,880.5z M1098.9,591c-0.4,0.8-0.9,1.6-1,2.4c-1.5,8.3-2.7,16.7-4.4,25c-1.9,9.1-4,18.3-6.7,27.2
	c-2.8,9.1-0.4,16.2,5.4,23.6c8.7,11,17.4,22.1,23.5,35c4.3,9.2,10,17.7,15,26.4c3.4-0.3,6.1-0.3,8.6-0.7c2.7-0.5,5.3-1.4,8-2.1
	c-2-3.7-4-6.7-5.4-9.9c-5.4-12.6-11.4-25.1-15.8-38.1c-6.2-18.6-11.1-37.5-11.1-57.4c0-5.5-0.8-11.1-1.7-16.6
	c-0.5-3.1-1.8-6.2-3-9.1C1108.1,591.7,1104.5,589.4,1098.9,591z M1027.3,596.8c1.5-3.4,3.3-5.9,2.2-9.5c-1.4-4.2-2.1-9.1-6.2-11.3
	c-6.7-3.6-10.8-9.9-16.4-14.5c-6-4.9-8.3-11.5-8.2-18.7c0.1-7.9,1.1-15.8,2.1-23.7c0.9-6.8,0-8.8-6.4-9.5c-4.3-0.5-8.6-0.4-12.9,1.7
	c-7.8,3.9-10.4,10.6-11.3,18.6c-1.3,10.3-5,19.8-11,28.3c-7.6,10.6-3.4,19.4,5.8,22.2c8.3,2.6,16.6,4,25.1,3
	c7.3-0.9,13.3,0.9,17.9,6.9c3,3.9,7.2,6,12.3,5.9C1022.4,596,1024.4,596.5,1027.3,596.8z M201.7,761.7c-0.1,0.3-0.1,0.5-0.2,0.8
	c-1.5,0-2.9-0.1-4.4,0c-7.5,0.6-12.4,4.9-12.4,12.2c0,3.2,1.4,7.4,3.7,9.5c6.2,5.7,6.4,12.4,4.3,19.2c-3.1,10,1.8,17.7,6.4,25.4
	c2.2,3.7,7.7,3.9,10.7,0.7c1.7-1.9,3-4.3,4.1-6.7c1.7-3.7,3.2-7.5,4.7-11.4c2.9-7.8,8.8-11.2,16.7-12.1c2.9-0.3,5.8-0.8,8.5-1.8
	c6-2.3,8.3-6.9,7.7-14.2c-0.4-5.1-5.4-11.1-10-12.2c-6.5-1.5-13-3.1-19.5-4.6C215.3,764.9,208.5,763.3,201.7,761.7z M1628.5,374.4
	c0.7-9.5-5.6-17.7-13.7-21.8c-5.2-2.6-10.6-5-16-7.1c-4.6-1.8-9.1-1.9-13.1,1.9c-4.4,4.2-5.5,8.4-3.2,14.3c1.5,3.8,3.2,7.5,4.9,11.2
	c4.5,9.6,6.3,19.4,2.2,29.7c-0.9,2.1-1.5,4.5-1.7,6.8c-0.6,5.5,0,10.5,6,13.4c1.6,0.8,2.8,2.8,3.8,4.5c2,3.6,3.6,7.4,5.6,11
	c1,1.8,2.2,3.6,3.7,4.8c0.9,0.7,3,0.8,4.1,0.2c0.9-0.5,1.4-2.4,1.4-3.6c-0.1-1.4-1-2.7-1.5-4.1c-2.8-6.9-2.8-13.8,0.4-20.4
	c3.4-7.1,7-14.2,11-21C1625.9,388.1,1628.2,381.6,1628.5,374.4z M1077.3,552.4c1.2-2.7,2.2-4.2,2.4-5.8c1.1-7.2-0.6-13.9-3.7-20.5
	c-3.9-8.3-4.9-16.8-0.7-25.4c2.3-4.8,3.1-10,2.9-15.4c-0.2-6.4-2.5-9.1-8.8-9.7c-5.7-0.6-11.3,0.4-16.1,3.2
	c-7.1,4.1-13.9,8.8-20.6,13.5c-7,5-10.1,11.9-9.3,20.6c0.2,2.7,1.2,4.5,3.8,5.3c1.7,0.5,3.4,1.3,5,1.3c5.2,0.1,8.6,2.8,12,6.4
	c3.2,3.4,6.8,6.4,10.5,9.3c5.3,4.1,10.8,8,16.2,12C1072.7,548.6,1074.4,550.1,1077.3,552.4z M1193.4,807.3
	c-0.7,12.8-0.9,25.4,2.5,37.6c1.2,4.2,2.7,9.2,8.8,9.8c1.3,0.1,2.4,2.5,3.7,3.6c2,1.7,4,3.4,6.3,4.7c5.9,3.2,12.3,5.6,17.8,9.5
	c7.2,5,15,6.5,23.3,6.4c7-0.2,14-0.9,21.1-1.3c3.3-0.2,6.2-0.9,7.8-4.7c-2-0.8-3.6-1.5-5.2-2c-8.4-2.5-16.9-4.9-25.3-7.3
	c-5.8-1.7-10.8-4.6-14.7-9.2c-3.3-3.8-6.5-7.6-9.8-11.4c-3.6-4.2-6.7-9.2-11-12.6c-7-5.6-12.9-12-16.8-20.1
	C1200.5,807,1198.1,805.9,1193.4,807.3z M930.4,994.1c0.9-7.2,1.6-13.9,2.5-20.5c0.2-1.4,0.7-2.8,1.2-4.2c1.6-4.7,3.3-9.4,5-14.1
	c1.1-3,1.9-6.2,3.5-8.9c4.3-7.3,6.4-14.9,6.5-23.4c0.3-15.4-9.2-24.1-20.3-31.6c-4-2.7-11.1-1.1-14.7,2.5c-3.6,3.6-5.2,7.8-2.8,12.8
	c1.4,2.9,2.8,5.8,3.9,8.9c2,5.5,4.7,10.9,5.6,16.6c1.6,10.1,2.6,20.4,3,30.6c0.3,6.4-0.8,12.9-1.5,19.3
	C921.7,987.8,922.9,992.4,930.4,994.1z M1100.8,472.1c1.4,1,3.3,2.4,5.3,3.6c11.5,7.1,15.8,17.6,14.6,30.7c-0.3,3.2-0.1,6.5,0,9.7
	c0,1.4,0.1,3,0.7,4.3c2.1,5.3,8.6,6.4,11.9,1.7c2.7-3.8,5-7.9,5-12.9c0-3.8,0.2-7.7,0.1-11.5c-0.1-4.3,1-8,3.7-11.4
	c5.6-7,6.8-15.4,6.7-24.1c-0.1-5-2.6-8.9-5.4-12.7c-1.6-2.1-3.8-2.8-6.3-1.6c-5.9,2.8-12,4.6-18.6,4.6c-1.1,0-2.4,0.5-3.2,1.2
	C1110.2,459,1103.6,462.9,1100.8,472.1z M1533.3,518.5c-0.1,0-0.1,0-0.2,0c0,3.2-0.1,6.5,0,9.7c0.6,11.2,2.4,22.2,8.8,31.8
	c2.1,3.2,4.7,6,7.4,8.7c0.7,0.7,3.1,0.7,3.9,0.1c0.7-0.6,0.9-2.9,0.3-3.8c-2.2-3.5-4.2-6.8-4.8-11.1c-0.9-6.2-0.1-12.1,1.3-18.1
	c0.9-3.6,1.5-7.9,3.7-10.5c7.6-8.9,10-18.9,9.5-30.2c-0.7-15.4-12.8-23.3-26.8-16.8c-7.3,3.4-10.1,12-5.8,18.9
	c1.9,3.1,3,6.3,2.8,9.9C1533.1,510.8,1533.3,514.7,1533.3,518.5z M1505.6,432.4c-0.9-3.5-1.2-6.5-2.4-9.1c-1.7-3.9-4-5.4-7.7-4
	c-4.9,2-9.9,1.1-14.8,1.4c-9.2,0.6-18,2.5-25.7,7.9c-6.1,4.2-8.4,10.9-6.3,17.7c1.8,5.9,5.4,8.5,14,7.6c9.9-1,16.9,3.5,23.8,9.2
	c1.6,1.3,3,2.8,4.7,3.8c4.1,2.2,6.6,1,6.1-3.5c-0.5-5,0.9-9.4,2.6-13.9C1502.1,443.8,1503.8,437.9,1505.6,432.4z M1184.3,476.4
	C1184.3,476.4,1184.2,476.4,1184.3,476.4c-0.1,3.8-0.3,7.7,0,11.5c0.2,2.9,3.3,5.4,6.1,4.7c3.5-0.8,6.8-2.5,7.9-6.3
	c0.9-3.4,1.7-6.9,1.7-10.3c0-5.6,1.9-10.4,4.9-14.8c2-2.9,4.5-5.4,6.6-8.2c1.2-1.6,2.7-3.4,2.9-5.2c0.4-4.7,0.5-9.4-0.1-14.1
	c-0.3-2.4-1.8-5.4-3.8-6.6c-5-3.3-18.3-4.9-23.1,1c-2.9,3.6-6.6,5.4-11.3,5.9c-2.2,0.2-4.5,1.4-6.4,2.7c-3.8,2.7-4,8.3-0.6,11.5
	c1.1,1,2.3,1.8,3.6,2.5c9.5,4.5,13,12.2,11.7,22.4C1184.2,474.1,1184.3,475.3,1184.3,476.4z M1520.2,385.2c6.5-2,9.7-5.2,9.7-11.7
	c0-8.1,0.2-16.3,1.5-24.3c1.8-11.4-1.8-20.2-10.9-27c-0.7-0.5-1.3-1.2-2-1.8c-8.2-6.8-18.5-4.4-22,5.7c-1.9,5.5-4.8,9.9-9,14
	c3,1.9,5.6,3.7,8.4,5.3c7.1,4.3,11.2,10.1,10.9,18.7c-0.2,5.9,2.1,10.8,6.6,14.7C1515.7,380.8,1517.8,382.9,1520.2,385.2z
	 M1237.6,415.9c1.9,2.4,3.8,5.4,6.2,7.9c5.8,6.1,6.7,13.2,5.5,21.2c-0.9,6.1-0.9,12.3-1.4,18.4c-0.3,3.6,1.8,5.4,4.9,6.4
	c6.7,2,10.6-0.2,12.6-7c0.2-0.8,0.3-1.7,0.4-2.6c1.1-10.6,5.4-19.7,13.3-26.8c3.9-3.5,4.7-7.9,4.6-12.7c-0.2-7.4-2.7-10.3-9.8-12.5
	c-7.6-2.3-15.2-0.8-22.8-1.4C1244.3,406.2,1239.8,408.6,1237.6,415.9z M122.5,744.6c-1,7-0.6,11.9,3.9,16.1c7.6,7,11.2,6.9,16.1-2.2
	c2.9-5.3,7.2-7.4,12.6-8.4c1.4-0.3,2.9-0.1,4.4-0.2c7.9-0.5,9.6-3,7.1-10.8c-1-3-2.2-6.1-3.9-8.8c-4.3-6.6-10-11.7-17.8-13.6
	c-6.5-1.6-13.2-2.4-19.8-3.5c-6.3-1-9.4,1.4-10,7.8c-0.3,3.6,0,6.9,2.7,9.8C121.7,735,123.7,740.1,122.5,744.6z M1349.5,393.9
	c-0.2,0-0.4-0.1-0.6-0.1c0-0.6,0-1.2,0-1.8c-0.2-7.1-7.4-14-14.4-13.8c-0.8,0-2,0.1-2.4,0.7c-4.6,5.7-11,6.2-17.6,6.2
	c-2.9,0-4.9,1.4-6.1,4.2c-3,7.1-1.6,10.6,6,13.5c1.1,0.4,2.2,0.8,3.3,1.2c5,2,7.4,5.6,6.8,11.1c-0.3,3.2-0.7,6.4-1.3,9.6
	c-0.8,4.6-2.1,9.2-2.5,13.8c-0.4,5.2,3.8,8.1,8.6,6.2c3.6-1.5,6.8-3.5,7.3-8c0.2-2,1-4,1.4-6c2.2-9.4,4.4-18.8,8.9-27.5
	C1348.4,400.4,1348.7,397,1349.5,393.9z M1412.6,373.6c1-3.5-1.2-6.5-4.2-9.2c-3.6-3.4-8.3-4.1-12.8-5.3c-3.8-1-4,2.7-6,4
	c-0.7,0.4-1.7,0.8-2.5,0.8c-6.3-0.7-7.6,3.2-8.9,8.4c-1,4.2,0.4,7.6,1.5,11.1c2.3,7.1,4.2,14-0.1,21.1c-0.9,1.4-0.7,3.4-1.1,5.1
	c-1.4,6.3-0.2,7.8,6.3,7.9c2.9,0,5.3-0.7,7-3c2.4-3.3,4.8-6.6,6.5-10.3c2.8-6.1,4.9-12.4,9.7-17.5
	C1411,383.3,1413.1,379.2,1412.6,373.6z M1448.3,335.3c-1.7,1.5-2.7,2.2-3.5,3c-5.2,5.2-5.3,6.8-0.1,12.3
	c11.3,12.1,10.1,18.1,4.4,29.2c-2.4,4.7-4.6,9.5-4.1,14.9c13.7,7,25.3,0.5,26.1-14.3c0.2-3.5,1.1-6.9,1.8-10.3
	c0.6-2.9,1.6-5.6,2.2-8.5c1.4-7.2-0.8-11.3-7.7-13.3c-4.2-1.2-8.6-1.7-13.3-2.6C1452.4,342.7,1450.6,339.4,1448.3,335.3z
	 M1515.9,251c-0.9,3.9-2.1,7.2-2.3,10.6c-0.2,5.3-0.6,10.4-2.5,15.5c-2,5.1-0.4,9.2,4.1,12.2c3.4,2.3,7.1,4.2,11.5,3.9
	c7.6-0.5,15.2-0.1,22.5,2.7c0.8,0.3,1.7,0.4,2.6,0.5c4.6,0.4,6.3-1.4,6.3-6.1c0.1-5-3.7-7-7-9.3c-9.2-6.3-17.8-13.1-22.7-23.7
	C1526.2,252.5,1522.2,250.4,1515.9,251z M1523.3,169.7c-1.5,1.4-3.3,2.8-4.9,4.5c-5.8,5.9-7.9,12.6-4.7,20.8
	c2.3,6,3.5,12.4,5.8,18.3c2.4,6.2,6.3,11.1,13.3,12.9c6.4,1.7,12.5,4,19.2,6.1c-0.4-2.4-0.7-4.9-1.3-7.4c-0.5-2-1.2-4-2.2-5.7
	c-4-6.8-7.8-13.7-12.2-20.3c-3.2-4.8-5.1-9.8-5-15.6c0-2.1,0-4.1-0.3-6.2C1530.3,173,1528.3,170.1,1523.3,169.7z M1587.6,806.7
	c1.2-6.5-3.4-10.3-7.8-13.5c-5.7-4.2-10.8-8.8-15.5-14.1c-3.1-3.4-6.6-6.7-10.6-8.9c-10.2-5.6-20.6-11-31.4-15.6
	c-6.7-2.9-12.3-6.7-17.1-11.9c-2-2.2-4.2-4.2-6.6-6.5c-1.9,4.9,1.7,7.3,2.4,10.5c1.7,7.8,6.7,13,12.6,17c7.2,4.9,15.1,8.7,22.7,13.1
	c14,8,28,15.9,42,23.9C1581.5,802.5,1584.5,804.7,1587.6,806.7z M57,651.8c0.1,1.4,0,2.6,0.3,3.7c3.4,9.1,7,18,10.2,27.1
	c2.5,7.2,6.3,12.4,15.2,11.8c1.9-1.3,4.1-2.7,6.1-4.4c8.4-7,6.7-21.5-2.9-26.9c-4.1-2.3-8.2-4.7-11.7-7.8
	C69.1,650.7,63.6,649.8,57,651.8z M868.4,1117.4c-2.2,4.6-5.3,7.4-9.7,9c-2.5,0.9-4.6,2.6-7.1,3.6c-2.4,1-4.8,2.1-7.3,2.4
	c-5.9,0.9-5.6,0.8-7.2,6.7c-0.9,3.3,0.1,5.7,1.8,8c6,7.9,23.9,9.6,31.1,2.7c1.8-1.7,3-4.3,4.1-6.6c0.8-1.8,0.9-4,1.4-6
	c1.1-4.4,0.4-8.6-3-11.3C869.6,1123.5,869.3,1120.6,868.4,1117.4z M1636.6,224.6c1.2-7.5-1.6-13.3-8.5-16.5
	c-6.9-3.2-13.3-1.5-18.9,2.9c-6.9,5.4-6.6,9.9,0.1,15.8c5.3,4.7,12.1,8.1,14.6,15.7c1.2,3.5,4.6,3.2,7.6,2.9
	c3.2-0.3,4.8-2.7,5.1-5.3C1636.9,235,1636.6,229.8,1636.6,224.6z M1554.2,130c0-3.3-0.1-6.5,0-9.8c0.1-2.9-1.7-4.8-4-4.8
	c-1.5,0-3.2,2.2-4.4,3.7c-0.6,0.8-0.4,2.2-0.5,3.4c-0.5,7.9-1.1,15.8-1.5,23.7c-0.4,8.2,4.5,14.4,8,21c0.6,1.1,2.3,1.8,3.6,2.4
	c3.3,1.7,5.3,0.9,5.7-2.5c0.6-5,1-10-1.9-14.5C1554.8,145.6,1553,138.1,1554.2,130z M1238.9,904.8c-0.1-0.7-0.2-1.5-0.3-2.2
	c-2.5-0.1-5.5-1.2-7.4-0.2c-5.6,2.8-11.7,3.3-17.4,5.5c-3.5,1.3-7.1,2.5-10.7,3.8c-6.3,2.2-12,5.3-16.9,9.9
	c6.2,6.1,7.3,6.5,13.2,3.3c5.9-3.1,12.9-3.9,17.8-9c0.7-0.8,2.1-1.4,3.2-1.3C1228.8,915.3,1233,908.6,1238.9,904.8z"/>
<path class="st1" d="M1749,766.8c1.5-19.2-7.4-33.2-22.4-44.6c-2.4,6.8-6.7,12.1-12.6,16.2c-2.6,1.8-4.6,4.6-7,6.7
	c-1.7,1.5-3.6,2.9-5.6,4.1c-2.1,1.3-4.7,1.8-6.4-0.3c-1.7-2-1.1-4.3,0.5-6.4c3.7-5.3,4.6-10.8,2.9-17.4c-1.2-4.7-0.5-9.9-2.7-14.5
	c-2.8-5.6-6.2-10.4-12.8-12.5c-4.2-1.3-8-3.7-11.9-5.6c-8.9-4.4-17.9-8.4-27.9-10.2c-6.5-1.2-13.2-3.8-18.7-7.4
	c-8.7-5.7-18.3-8.7-28.1-11.5c-4.1-1.2-6.6-3.6-8.8-6.7c-1.9-2.6-2-5.4,0.2-8.1c7.5-9.4,14.7-19.1,22.5-28.2
	c5.4-6.2,9.8-12.9,13.1-20.3c1.2-2.6,2.8-5.1,4.7-7.4c2.6-3.1,6.1-3.2,9.1-0.2c2.1,2,4.1,4.2,5.7,6.7c5.3,8.4,11.2,16.3,15,25.7
	c2.9,7.1,10,12,17.8,13.2c11.3,1.8,20,7.4,28,15.2c5.7,5.5,12.3,9.9,18.5,14.9c3.6,3,7.2,6.1,10.5,9.4c9.3,9.4,20.3,15.7,33.1,19.1
	c2.5,0.7,5.1,1.4,7.7,1.8c14.1,2.2,21.1,12.5,27.1,23.8c1.4,2.6,2.2,5.4,3.6,8c3.7,6.9,5.5,14.1,5.2,21.9c-0.2,5-0.1,10,0,15
	c0,2.9-0.8,5.2-4,5.9c-3.4,0.6-5.7-0.5-6.4-4.4c-1.5-9.4-8.4-15.2-13.7-22.1c-0.4-0.5-0.8-0.9-1.3-1.2c-5.4-2.9-10.8-5.7-16.7-8.7
	c-0.1,2.3-0.5,4.7-0.3,7.2c0.7,8.6-3.5,15.2-8.5,21.5C1756,767.9,1753.4,768.5,1749,766.8z M1629.4,639.6c-1.3,3.3,0.7,5,3,6.5
	c3.9,2.5,7.9,4.9,12,7.2c1.8,1,3.6,2.2,5.5,2.5c8,1.1,16.1,1.8,24.6,2.8c-11.2-7.3-24.5-10.3-33.5-18.9
	C1636.6,639.6,1633,639.6,1629.4,639.6z"/>
</svg>
