<?xml version="1.0" encoding="utf-8"?>
<!-- Generator: Adobe Illustrator 23.0.4, SVG Export Plug-In . SVG Version: 6.00 Build 0)  -->
<svg version="1.1" id="Layer_1" xmlns="http://www.w3.org/2000/svg" xmlns:xlink="http://www.w3.org/1999/xlink" x="0px" y="0px"
	 viewBox="0 0 544 562" style="enable-background:new 0 0 544 562;" xml:space="preserve">
<style type="text/css">
	.st0{fill:#008E9F;stroke:#008E9F;stroke-width:0.2457;stroke-linecap:round;stroke-miterlimit:10;}
</style>
<g id="_x37_CWu0n.tif">
	<path class="st0" d="M535.95,514.12c-3.79,0.38-7.39-1.9-11.21-0.67c-0.36,0.12-0.89,0.02-1.25-0.16c-2.15-1.15-4.5-2.08-6.35-3.59
		c-2.55-2.08-4.76-4.58-7.04-6.98c-1.34-1.41-1.98-3.18-2.39-5.12c-0.61-2.9-1.21-5.76-0.72-8.75c0.08-0.5-0.19-1.04-0.2-1.57
		c-0.05-2.23-0.1-4.46-0.09-6.7c0.01-2.43,0.08-4.86,0.1-7.3c0.01-0.73-0.09-1.46-0.07-2.19c0.29-7.37-1.11-14.53-2.56-21.7
		c-1.05-5.17-3.27-9.85-5.59-14.53c-1.89-3.81-4.48-7-7.88-9.5c-1.06-0.78-1.4-1.58-1.58-2.86c-0.26-1.84-0.56-3.68-0.82-5.52
		c-0.48-3.43-1.32-6.88-3.02-10.01c-2.49-4.57-4.44-9.45-7.8-13.52c-0.34-0.41-0.6-0.88-0.9-1.32c-0.76-1.13-1.38-2.37-2.29-3.36
		c-3.42-3.75-6.33-7.71-7.01-12.95c-0.13-1-0.59-2.18-1.3-2.85c-1.92-1.82-2.32-4.27-2.94-6.56c-1.73-6.35-4.69-12.04-8.53-17.33
		c-2.12-2.92-4.42-5.73-6.29-8.8c-2.76-4.52-5.94-8.49-10.7-11.1c-1.41-0.78-2.44-2.29-3.55-3.56c-0.25-0.28-0.08-0.92-0.11-1.39
		c0.48,0.07,1.05,0,1.44,0.23c1.07,0.65,1.96,1.71,3.09,2.1c2.81,0.95,5.68,1.92,8.59,2.29c2.9,0.37,5.9,0.05,8.85-0.03
		c0.33-0.01,0.65-0.42,0.97-0.64c-0.26-0.18-0.52-0.36-0.77-0.54c-2.95-2.09-5.99-4.06-8.81-6.31c-1.47-1.17-2.62-2.76-3.79-4.27
		c-2.53-3.26-3.44-7.27-4.89-11.02c-0.77-1.98-2.29-3.95-2.23-5.88c0.07-2.06,1.52-4.12,2.54-6.08c1.75-3.35,2.32-6.73,1.23-10.44
		c-0.47-1.6-0.91-3.46-0.55-5.01c0.51-2.19-0.15-3.97-0.85-5.85c-1.55-4.14-3.81-7.83-6.98-10.95c-0.82-0.81-1.48-1.78-2.14-2.74
		c-1.38-2.01-2.69-4.08-4.06-6.1c-1.08-1.58-2.22-3.12-3.3-4.7c-0.54-0.8-0.69-1.6-0.51-2.68c0.31-1.87,0.58-3.92,0.13-5.7
		c-1.22-4.82-2.44-9.7-4.38-14.25c-2.34-5.48-3.82-11-3.7-16.95c0.06-2.89-0.17-5.72-1.14-8.49c-0.3-0.85-0.42-2.04-0.05-2.8
		c1.29-2.68,1.04-5.61,1.63-8.4c0.46-2.18,0.12-4.21-1.89-5.69c-0.75-0.55-1.31-1.39-1.9-2.15c-2.41-3.13-4.81-6.25-8.23-8.38
		c-0.36-0.22-0.78-0.45-0.99-0.79c-1.78-2.81-4.48-4.45-7.28-6.05c-1.79-1.02-3.18-2.59-3.31-4.78c-0.09-1.48-0.08-3.04,0.32-4.45
		c0.98-3.44,1.02-6.93,0.9-10.44c-0.06-1.59-0.44-3.16-0.46-4.75c-0.03-2.65-0.69-5.19-2.25-7.2c-2.26-2.92-1.66-5.67-0.5-8.68
		c1.29-3.36,2.39-6.79,3.52-10.21c0.22-0.67,0.19-1.44,0.21-2.16c0.02-0.5-0.07-1-0.12-1.49c0.39,0.33,0.75,0.71,1.18,0.99
		c0.88,0.57,1.76,1.18,2.7,1.62c1.72,0.8,3.86,0.98,5.24,0.07c3.53-2.31,6.85-5.03,7.99-9.46c0.14-0.55,0.13-1.14,0.18-1.72
		c-0.48,0.15-0.99,0.24-1.44,0.45c-1.64,0.76-3.28,1.61-5.16,1.24c-3.58-0.69-6.76-2.36-9.92-4.09c-0.76-0.41-1.03-0.7,0-1.1
		c1.96-0.76,3.97-1.44,5.86-2.35c3.98-1.91,7.23-8.33,6.5-12.6c-0.1-0.61-0.29-0.57-0.78-0.19c-1.5,1.15-3.03,2.3-4.65,3.27
		c-1.68,1.01-3.43,1.28-5.44,0.57c-2.08-0.73-4.33-0.92-6.49-1.45c-0.91-0.22-1.9-0.51-2.61-1.07c-1.23-0.98-2.34-2.13-3.35-3.33
		c-0.66-0.79-1.2-1.75-1.53-2.73c-0.58-1.7-0.82-3.53-1.47-5.19c-0.61-1.56-1.44-3.08-2.43-4.43c-1.26-1.7-2.83-3.18-4.2-4.81
		c-1.02-1.22-2.28-2.41-2.82-3.84c-1.25-3.32-3.83-5.57-5.96-8.17c-1.29-1.57-2.93-2.74-4.79-3.64c-1.81-0.88-3.53-1.98-5.2-3.11
		c-3.8-2.58-7.75-4.94-12.21-6.09c-4.57-1.17-8.66-3.4-12.91-5.31c-0.58-0.26-1.18-0.54-1.66-0.94c-3.9-3.26-8.01-6.33-11.62-9.9
		c-5.19-5.13-11.29-8.72-18.14-10.72c-6.57-1.91-13.3-3.34-20.15-4.12c-5.2-0.59-10.36-1.64-15.54-2.4
		c-3.66-0.54-7.34-1.09-11.02-1.36c-2.97-0.22-5.96,0.04-8.94-0.03c-1.46-0.04-2.92-0.38-4.38-0.51c-3.54-0.3-7.01-0.84-10.61,0.23
		c-6.18,1.83-12.5,3.15-18.73,4.79c-2.45,0.64-4.93,1.32-7.21,2.39c-4.3,2.02-8.43,4.37-12.68,6.51c-1.11,0.56-2.36,1.08-3.58,1.17
		c-2.7,0.2-5.19,0.97-7.62,2.05c-2.27,1.01-4.68,1.75-7.1,1.11c-3.71-0.97-7.13-0.36-10.55,1.04c-1.87,0.76-3.73,1.97-5.64,2.07
		c-3.37,0.17-6.12,1.79-8.9,3.18c-5.68,2.84-11.04,6.3-16.72,9.15c-0.55,0.28-1.02,0.74-1.49,1.15c-0.62,0.54-1.12,1.27-1.81,1.67
		c-2.11,1.22-4.27,2.38-6.46,3.45c-2.29,1.12-4.79,1.88-6.93,3.22c-4.23,2.65-8.39,5.47-11.9,9.09c-3.48,3.6-6.94,7.22-10.22,11
		c-5.5,6.34-9.56,13.54-12,21.6c-1.32,4.37-2.52,8.77-3.95,13.1c-1.18,3.57-1.89,7.18-1.8,10.94c0.03,1.17,0.08,2.37-0.13,3.51
		c-0.89,4.64-2.87,8.94-4.27,13.42c-1.26,4.04-3.04,7.93-4.26,11.99c-1.32,4.37-2.23,8.87-2.07,13.48c0.09,2.69-1.39,4.63-2.86,6.58
		c-0.28,0.37-1.11,0.53-1.64,0.45c-3.56-0.53-7.1-0.58-10.71-0.44c-2.71,0.11-4.95,0.85-7.01,2.46c-3.53,2.77-6.77,5.83-9.34,9.54
		c-0.6,0.86-1.11,1.83-1.44,2.82c-2.01,6.08-2.47,12.22-0.4,18.4c0.47,1.4,1,2.78,1.38,4.21c1.28,4.83,3.06,9.44,5.58,13.77
		c0.58,1,0.91,2.15,1.3,3.25c1.42,4.02,1.97,8.23,2.77,12.39c0.57,3.01,0.38,5.84-0.24,8.78c-0.58,2.78-0.95,5.63-1.17,8.47
		c-0.47,6.27,0.65,12.44,1.47,18.61c0.5,3.75,1.02,7.56,3.03,10.95c1.35,2.27,2.58,4.6,3.78,6.95c0.57,1.12,0.91,2.36,1.4,3.53
		c0.86,2.05,1.57,4.2,2.69,6.11c1.4,2.38,3.06,4.73,6.01,5.37c2.57,0.56,5,1.84,7.76,1.57c0.59-0.06,1.23,0.25,1.82,0.47
		c0.91,0.33,1.06,0.94,0.56,1.76c-1.85,2.98-3.73,5.94-5.52,8.95c-2.61,4.38-5.21,8.78-7.71,13.23c-1.44,2.57-1.84,5.64-3.86,7.98
		c-0.52,0.6-0.79,1.53-0.92,2.35c-0.72,4.44-2.54,8.53-4.02,12.72c-1,2.83-1.62,5.7-1.47,8.74c0.11,2.12,0.02,4.27-0.2,6.38
		c-0.43,4.14-0.52,8.26,0.07,12.4c0.56,3.99,0.99,8,1.53,11.99c0.16,1.15,0.27,2.4,0.8,3.39c1.82,3.42,2.85,7.08,3.67,10.83
		c0.09,0.41,0.25,0.81,0.45,1.18c3.78,7.09,5.48,14.65,5.28,22.66c-0.04,1.71-0.12,3.42,0.02,5.12c0.36,4.45-0.6,8.66-2.03,12.81
		c-0.38,1.1-0.75,2.21-1.18,3.3c-1.62,4.05-3.17,8.14-5.94,11.6c-2.13,2.66-4.3,5.29-6.46,7.91c-0.4,0.48-0.79,1.1-1.32,1.33
		c-2.52,1.09-5.07,2.14-7.66,3.06c-3.41,1.22-6.87,2.32-9.51,4.99c-1.57,1.59-3.05,3.23-5.19,4.16c-0.81,0.36-1.41,1.27-2.04,1.97
		c-0.71,0.79-1.26,1.75-2.05,2.43c-1.95,1.7-2.68,4.04-3.61,6.3c-0.3,0.73-0.12,1.34,0.51,1.6c0.36,0.15,1.01-0.05,1.38-0.31
		c1.11-0.79,2.08-1.77,3.21-2.51c1.41-0.92,2.92-1.68,4.41-2.48c0.54-0.3,1.11-0.56,1.68-0.78c2.74-1.04,5.55-1.1,8.4-0.61
		c0.29,0.05,0.56,0.19,0.84,0.29c-0.18,0.26-0.35,0.53-0.56,0.77c-1.81,2.1-3.78,4.07-5.39,6.31c-1.6,2.23-3.19,4.58-4.13,7.13
		c-1.87,5.05-3.3,10.27-4.9,15.43c-0.35,1.11-0.73,2.22-1.02,3.35c-0.16,0.6-0.22,1.25-0.19,1.86c0.01,0.15,0.78,0.46,0.86,0.37
		c1.12-1.21,2.8-1.87,3.2-3.82c0.18-0.89,1.19-1.68,1.95-2.37c1.1-1,2.31-1.89,3.49-2.79c1.86-1.42,3.7-2.87,5.61-4.21
		c1.88-1.31,3.98-1.95,6.33-1.7c3.41,0.36,6.69,1.05,9.64,2.93c0.98,0.62,2.1,1.03,3.19,1.44c2.52,0.96,4.77,2.35,6.69,4.24
		c2.24,2.2,4.86,3.76,7.7,5.05c1.53,0.69,2.92,1.68,4.37,2.54c1.91,1.14,3.74,2.47,5.76,3.37c2.8,1.24,5.88,1.89,8.59,3.27
		c4.02,2.04,8.29,2.4,12.63,2.67c0.74,0.05,1.49,0.01,2.24,0.03c0.18,0.01,0.36,0.13,0.55,0.2c-0.11,0.18-0.2,0.39-0.34,0.53
		c-1.45,1.41-2.88,2.85-4.39,4.19c-3.55,3.13-6.8,6.43-7.81,11.32c-0.14,0.67-0.69,1.3-1.15,1.86c-0.64,0.77-2.04,1.42-0.99,2.55
		c0.93,1.01,1.91-0.26,2.85-0.58c0.19-0.07,0.34-0.26,0.51-0.39c1.86-1.39,3.71-2.82,5.6-4.17c2.59-1.86,5.49-3.38,7.78-5.55
		c4.26-4.03,9.47-5.18,14.92-5.45c6.17-0.31,12.37-0.14,18.56-0.13c1.05,0,2.19-0.01,3.14,0.37c3.13,1.23,6.4,1.09,9.65,1.26
		c1.78,0.09,3.62,0.25,5.28,0.83c2.65,0.92,5.29,1.44,8.1,1.39c3.72-0.07,7.42,0.07,11.12,0.74c5.16,0.92,10.38,1.16,15.38-0.88
		c4.27-1.75,8.49-1.63,12.75-0.11c7.07,2.52,14.46,3.47,21.85,3.97c5.49,0.38,11.03,0.57,16.56-0.39c4.29-0.74,8.65-0.98,12.56-3.18
		c0.63-0.36,1.39-0.55,2.12-0.67c3.1-0.53,5.69-2.12,8.46-3.48c2.72-1.33,5.84-1.93,8.41-3.7c1.54-1.06,3.2-1.74,5.03-1.8
		c2.36-0.08,4.26-1.2,6.13-2.45c0.44-0.29,0.8-0.71,1.21-1.04c0.79-0.62,1.51-0.64,2.21,0.2c2.69,3.23,6.25,5.41,9.68,7.7
		c1.46,0.97,3.28,1.42,4.98,2.01c2.7,0.94,5.47,1.69,8.15,2.71c3.82,1.45,7.69,2.42,11.8,2.24c5.1-0.22,10.21-0.3,15.3-0.67
		c3.8-0.28,7.6-0.73,10.96-2.92c1.12-0.73,2.54-1.21,3.88-1.37c4.85-0.56,9.73-0.9,14.59-1.38c4.09-0.41,7.79,0.97,11.35,2.65
		c5.14,2.42,7.82,7.35,11.26,11.5c0.87,1.05,0.65,2.19,0.99,3.27c0.13,0.4,0.28,0.87,0.58,1.12c0.35,0.3,0.87,0.54,1.31,0.53
		c0.23,0,0.62-0.6,0.63-0.93c0.04-1.49-0.2-3-0.03-4.47c0.63-5.34-1.39-9.88-4.48-13.92c-2.45-3.2-5.36-6.04-8.06-9.03
		c-0.2-0.22-0.42-0.43-0.63-0.65c0.3-0.01,0.63-0.1,0.89-0.01c4.02,1.35,8.06,2.66,12.04,4.11c2.79,1.02,5.45,2.4,8.27,3.28
		c1.06,0.33,1.93,0.67,2.72,1.42c3.24,3.08,6.48,6.17,9.78,9.19c3.41,3.12,7.3,5.13,12.1,4.79c3.18-0.22,6.36-0.41,9.54-0.58
		c1.06-0.06,2.16-0.14,3.19,0.05c2.54,0.46,4.76-0.27,6.99-1.4c4.36-2.2,8.83-4.2,13.17-6.44c1.96-1.01,3.77-2.33,5.6-3.58
		c1.84-1.26,3.59-2.65,5.43-3.91c1.21-0.83,2.84-1.27,3.92-0.45c2.1,1.6,4.55,1.59,6.88,2.09c1.85,0.4,3.78,0.66,5.67,0.63
		c3.93-0.06,7.85-0.45,11.78-0.52c5.8-0.1,11.37-0.99,16.46-4c0.6-0.35,1.41-0.41,2.13-0.46c1.06-0.08,2.13-0.02,3.2-0.02
		c0.01,0.09,4.11-0.02,5.94-0.69c2.65-0.98,4.96-2.71,7.87-3.24c1.46-0.27,2.73-1.56,4.07-2.4c2.5-1.58,5.03-3.11,7.46-4.79
		c0.65-0.45,1.13-1.28,1.46-2.04C538.31,514.81,537.76,513.93,535.95,514.12z M468.74,396.22c0-0.28,0.12-0.57,0.19-0.87
		c0.23,0.16,0.44,0.24,0.56,0.4c4.08,5.05,7.43,10.52,9.35,16.78c0.37,1.2,0.55,2.47,0.74,3.72c0.28,1.92,0.18,2.06-1.64,1.16
		c-2.64-1.32-5.16-2.88-7.76-4.29c-1.06-0.58-1.46-1.37-1.45-2.57C468.77,405.77,468.73,400.99,468.74,396.22z M452.61,390.68
		c0.15-6.93,0.1-13.86,0.13-20.79c0-0.85-0.02-1.71-0.01-2.56c0-0.2,0.09-0.4,0.14-0.6c0.13,0.18,0.32,0.35,0.38,0.55
		c0.32,1.12,0.59,2.26,0.91,3.38c1.06,3.78,2.26,7.52,3.14,11.34c0.59,2.57,0.81,5.23,1.01,7.87c0.31,4.02,0.46,8.06,0.67,12.09
		c0.27,5.13-0.21,10.17-1.56,15.14c-0.3,1.11-0.17,2.32-0.31,3.48c-0.15,1.26-0.39,2.51-0.6,3.76c-0.17,1.02-0.63,0.53-0.99,0.16
		c-2.2-2.31-3.61-4.93-3.5-8.27c0.11-3.41,0.02-6.83,0.02-10.24c-0.06,0-0.12-0.01-0.18-0.01
		C452.13,400.88,452.5,395.78,452.61,390.68z M434.78,389.16c0.08-5.86,0.02-11.73,0.14-17.59c0.09-4.89,0.45-9.77,0.48-14.66
		c0.02-2.82-0.37-5.64-0.59-8.45c3.44,2.72,5.34,6.25,6.4,10.54c2.21,8.92,1.75,17.95,1.73,26.97c-0.01,4.67-0.44,9.34-0.62,14.01
		c-0.2,5.21-0.37,10.41-0.46,15.62c-0.03,1.47,0.28,2.94,0.41,4.42c0.03,0.3-0.03,0.62-0.05,0.92c-0.21-0.3-0.51-0.56-0.62-0.89
		c-1-3.02-1.92-6.06-2.96-9.06c-1.12-3.23-1.52-6.59-1.94-9.96c-0.14-1.15-0.3-2.36-0.74-3.42
		C434.82,394.89,434.74,392.05,434.78,389.16z M407.21,241.95c1.17,2.95,2.27,5.95,3.73,8.76c2.98,5.73,7.21,10.47,12.24,14.52
		c0.48,0.39,1.09,0.81,1.27,1.35c0.91,2.69,2.9,4.67,4.4,6.96c1.39,2.12,2.21,4.32,2.07,6.89c-0.09,1.6-0.09,3.2-0.02,4.8
		c0.12,2.72-0.71,5.16-1.57,7.72c-1.77,5.33-3.36,10.79-1.28,16.48c0.09,0.25-0.04,0.58-0.07,0.87c-0.37-0.06-0.8-0.03-1.09-0.21
		c-0.34-0.22-0.69-0.58-0.82-0.95c-0.51-1.5-1.38-3.06-1.31-4.56c0.18-4.12-1.28-7.97-1.63-11.98c-0.04-0.52-0.27-1.03-0.25-1.54
		c0.08-2.22,0.11-4.46,0.37-6.67c0.29-2.41-0.71-4.03-2.55-5.44c-1.15-0.88-2.12-2.03-3.08-3.13c-0.87-0.99-1.67-1.93-3.2-1.65
		c-1.15,0.21-2.05-0.36-2.84-1.16c-0.52-0.53-1.05-1.07-1.63-1.54c-3.65-2.93-5.76-6.64-6.41-11.33
		c-0.99-7.1-5.72-11.15-11.95-13.71c-2.83-1.16-5.79-2-8.69-2.99c-0.91,1.1-1.99,0.13-2.5-0.23c-2.55-1.76-6.83,1.28-8.12,1.72
		c-2.4,0.81-4.72,1.87-7.08,2.84c-0.59,0.24-1.17,0.71-1.75,0.7c-3.18-0.04-6.37-0.12-9.55-0.34c-1.41-0.1-2.5-0.89-3.41-2.08
		c-1.09-1.43-2.46-2.66-3.78-3.9c-1.07-1-2.34-1.81-2.31-3.53c0-0.27-0.26-0.6-0.48-0.81c-0.5-0.49-1.01-1.24-1.6-1.32
		c-1.05-0.15-1.57,0.98-1.52,1.7c0.14,2.32-1.44,3.69-2.61,5.28c-0.78,1.07-1.88,1.74-3.23,1.84c-3.39,0.24-6.77,0.58-10.16,0.68
		c-8.32,0.23-16.23-1.72-23.88-4.82c-2.2-0.89-4.13-1.17-6.18,0.51c-2.03,1.67-4.28,3.1-6.53,4.48c-2.54,1.56-5.33,2.54-8.3,2.95
		c-1.47,0.2-2.93,0.44-4.39,0.67c-1.56,0.24-3.12,0.57-4.69,0.71c-3.13,0.26-5.87,1.73-8.73,2.8c-0.59,0.22-1.03,1.06-1.38,1.69
		c-0.46,0.83-0.74,1.76-1.14,2.63c-0.49,1.06-0.85,2.24-1.57,3.13c-0.7,0.87-1.78,1.45-2.69,2.16c0-0.99-0.08-1.99,0.01-2.97
		c0.25-2.78,0.78-5.53,2.44-7.82c1.87-2.58,3.97-4.99,5.97-7.47c0.33-0.41,0.82-0.73,1.06-1.19c2.12-3.9,5.51-6.35,9.34-8.33
		c0.47-0.24,0.9-0.57,1.28-0.93c0.62-0.59,0.34-1.61-0.51-1.65c-1.04-0.06-2.23-0.14-3.11,0.29c-3.21,1.59-6.32,3.26-8.89,6
		c-2.52,2.69-5.67,4.8-8.62,7.07c-1.88,1.44-3.54,3.01-4.86,5.01c-0.86,1.31-1.99,2.45-3.06,3.62c-3.49,3.82-5.65,8.47-8.06,12.96
		c-1.56,2.9-2.99,5.86-4.49,8.78c-1.28,2.49-3.15,4.5-5.14,6.42c-0.81,0.78-1.75,1.01-2.87,1.15c-2.4,0.29-4.77,0.8-7.14,1.3
		c-0.31,0.06-0.52,0.6-0.77,0.91c0.27,0.13,0.53,0.35,0.81,0.37c0.85,0.06,1.7,0.04,2.56,0.05c0.87,0.01,0.75,1.66,2.07,1.15
		c0.74-0.29,1.69-0.04,2.54-0.04c0.96,0,1.93,0.07,2.88-0.02c0.84-0.08,1.65-0.44,2.49-0.5c3.74-0.3,6.59-2.14,8.02-5.48
		c1.1-2.59,3.52-2.83,5.39-4.02c0.68-0.44,1.67,0.36,1.82,1.28c0.25,1.47-0.22,2.78-1.15,3.86c-2.08,2.43-4.09,4.94-6.39,7.13
		c-2.16,2.06-4.74,3.45-7.93,3.6c-4.76,0.23-9.52,0.74-14.27,1.14c-2.32,0.2-4.64,0.52-6.97,0.58c-1.57,0.04-3.16-0.29-4.74-0.41
		c-0.73-0.05-1.58-0.22-2.19,0.07c-3.41,1.64-6.99,2.3-10.74,2.26c-0.53-0.01-1.13-0.05-1.58,0.16c-3.56,1.65-7.23,3.18-10.11,5.89
		c-1.84,1.73-3.71,3.19-6.21,3.6c-1.71,0.28-2.49,1.47-3.26,2.77c-0.09,0.15-0.34,0.2-0.51,0.3c-0.14-0.24-0.44-0.55-0.38-0.72
		c0.48-1.26,0.25-2.75,1.4-3.83c0.5-0.46,0.76-1.28,0.92-1.99c0.88-3.89,3.01-6.98,5.96-9.58c0.71-0.62,1.39-1.3,2.01-2.01
		c1.77-2.01,3.7-3.83,6.12-5.05c0.57-0.29,1.15-0.75,1.74-0.77c3.34-0.16,6.08-1.74,8.77-3.5c0.44-0.29,0.93-0.54,1.44-0.67
		c3.07-0.8,6.13-1.71,9.24-2.29c7.6-1.42,13.55-5.1,17.7-11.79c3.95-6.36,6.83-13.21,9.78-20.04c1.46-3.4,2.63-6.93,4.22-10.26
		c0.9-1.88,2.14-3.74,3.66-5.13c2.24-2.05,4.59-4.14,7.72-4.87c0.41-0.1,0.79-0.35,1.2-0.37c0.63-0.03,1.26,0.07,1.89,0.12
		c-0.33,0.5-0.66,0.99-0.99,1.49c-3.46,5.24-7.09,10.37-9.78,16.08c-0.44,0.94-1.18,1.75-1.76,2.63c-0.87,1.33-1.93,2.61-1.77,4.33
		c0.05,0.47,0.32,1.19,0.65,1.3c0.52,0.17,1.18-0.08,1.78-0.16c0.09-0.01,0.18-0.12,0.24-0.2c3.42-4.19,7.61-7.67,10.8-12.1
		c3.87-5.38,8.49-10.09,13.95-13.93c2.7-1.9,5.69-2.71,8.95-2.95c2.51-0.18,5.03-0.38,7.4-1.57c1.28-0.64,2.85-0.7,4.3-0.95
		c1.46-0.25,3.01-0.19,4.38-0.67c3.05-1.06,5.82-0.54,8.62,0.78c1.23,0.58,2.62,0.82,3.93,1.24c0.69,0.22,1.44,0.37,2.04,0.75
		c1.04,0.66,1.92,1.07,3.12,0.19c0.41-0.3,1.42,0,2.03,0.29c0.64,0.3,1.09,1,1.72,1.36c1.02,0.6,2.11,1.07,3.18,1.59
		c-1.25,0.02-2.51-0.02-3.76,0.08c-2.85,0.21-5.7,0.46-8.54,0.75c-0.83,0.09-1.65,0.35-2.46,0.58c-0.51,0.15-0.98,0.49-1.49,0.56
		c-3.35,0.48-6.7,0.89-10.05,1.37c-1.15,0.17-2.32,0.37-3.41,0.75c-0.49,0.17-0.82,0.82-1.22,1.26c0.48,0.36,0.95,0.99,1.46,1.02
		c1.79,0.11,3.63,0.24,5.38-0.06c2.41-0.4,4.88-0.55,7.21-1.05c3.5-0.75,6.74-0.71,10.22,0.03c2.05,0.43,4.08,0.86,6.12,1.39
		c3.44,0.9,6.9,1.46,10.2,3.01c1.57,0.74,3.79,0.26,5.69,0.09c0.77-0.07,2.69-0.43,3.23-0.76c0.12-0.07,0.24-0.06,0.33,0
		c0.15-0.09,0.31-0.18,0.47-0.27l1.09-1.9c0.56-0.29,1.05-0.73,1.63-0.96c0.54-0.22,1.2-0.47,1.71-0.34
		c5.68,1.4,11.32,1.37,17.01-0.03c1.2-0.29,2.6-0.27,3.8,0.02c3.02,0.74,6.05,0.59,9.1,0.6c2.2,0.01,4.22-0.6,6.02-1.74
		c4.48-2.84,9.06-2.77,13.65-0.58c3.81,1.82,7.93,3.07,11.21,5.9c0.31,0.27,0.74,0.44,1.14,0.55
		C405.01,237.61,406.27,239.59,407.21,241.95z M421.12,345.42c-1.16-2.37-2.67-4.57-4.14-6.78c-0.56-0.84-0.56-1.43,0.4-1.63
		c1.13-0.23,1.54-2.16,2.66-1.48c0.69,0.41,0.74,1.89,1.06,2.89c1.17,3.63,2.39,7.25,3.46,10.9c0.53,1.82,0.79,3.71,1.16,5.53
		c-0.11,0.31-0.2,0.55-0.28,0.8c-0.07-0.2-0.12-0.4-0.2-0.6C423.89,351.83,422.66,348.55,421.12,345.42z M396.5,296.37
		c-0.03-0.29,0.11-0.6,0.17-0.9c0.27,0.16,0.62,0.26,0.79,0.49c1.96,2.76,3.99,5.47,5.76,8.34c0.62,1.01,0.61,2.43,0.8,3.67
		c0.32,2.09,0.55,4.19,0.87,6.28c0.5,3.28,2.37,5.84,4.42,8.31c0.54,0.65,1.18,1.34,1.35,2.11c0.22,0.95,0,2.01-0.04,3.02
		c-0.69-0.58-1.5-1.08-2.06-1.77c-2.23-2.7-4.53-5.36-6.53-8.22c-3.15-4.49-5.59-9.29-4.83-15.66
		C397.01,300.54,396.74,298.46,396.5,296.37z M410.54,299.1c-2.8-4.11-4.99-8.69-9.28-11.63c-0.68-0.47-1.11-1.28-1.71-1.87
		c-1.58-1.55-3.2-3.07-4.8-4.59c-0.54-0.51-1.12-0.97-1.62-1.52c-1.75-1.91-3.9-2.93-6.5-2.88c-1.21,0.02-2.15-0.31-3.21-1.02
		c-1.46-0.98-3.23-1.52-4.91-2.14c-2.09-0.77-4.31-1.23-6.3-2.18c-5.49-2.64-10.89-2.24-16.33,0.01c-0.39,0.16-0.8,0.32-1.15,0.55
		c-1.93,1.28-3.58,1.23-5.79,0.07c-2.75-1.44-5.97-2-8.99-2.93c-0.2-0.06-0.47,0.02-0.63-0.08c-2.95-1.92-5.62-0.78-8.31,0.67
		c-1.6,0.87-3.35,1.15-5.18,1.33c-1.97,0.2-3.88,0.97-5.83,1.41c-0.79,0.18-1.63,0.25-2.44,0.21c-1.36-0.06-2.79-0.57-4.06-0.3
		c-2.09,0.45-3.64-0.21-5.08-1.53c-4.82-4.43-10.53-4.98-16.66-3.9c-1.55,0.27-3.17,0.25-4.76,0.24c-2.06-0.01-3.86,0.72-5.79,1.36
		c-3.94,1.3-7.03,3.31-8.88,7.12c-0.64,1.32-1.62,2.48-2.42,3.73c-0.75,1.16-1.27,2.55-2.24,3.47c-1.68,1.59-2.85,3.35-3.28,5.63
		c-0.07,0.35-0.5,0.63-0.76,0.94c-0.3-0.37-0.83-0.73-0.86-1.13c-0.18-2.21-0.61-4.48,1.69-6.08c0.5-0.35,0.73-1.26,0.83-1.95
		c0.61-4.12,3.09-7.42,4.84-11.02c0.53-1.1,1.7-1.88,2.58-2.81c2.56-2.71,5.17-5.37,7.66-8.13c1.85-2.05,4.06-3.38,6.75-3.96
		c0.41-0.09,0.8-0.28,1.2-0.42c6.69-2.25,13.05-0.26,19.44,1.48c3.39,0.92,6.55,2.23,9.44,4.26c0.99,0.7,2.34,0.91,3.56,1.26
		c2.03,0.58,4.09,1.05,6.11,1.65c1.83,0.54,3.52,0.45,5.22-0.51c1.28-0.72,2.68-1.23,4.06-1.78c2.18-0.86,4.36-0.24,6.54,0.09
		c2.4,0.36,4.81,0.74,7.21,1.11c0.1,0.02,0.23-0.02,0.32,0.02c3.7,1.55,6.75,0.07,9.82-1.88c6.38-4.04,13.49-5.12,20.85-4.38
		c3.54,0.36,6.76,1.75,8.88,4.98c1.1,1.68,1.74,3.39,1.46,5.74c-0.19,0.81,0.09,1.5,1.16,2.3c2.46,1.85,2.65,3.76,0.86,6.29
		c-0.6,0.85-0.25,0.98,0.42,1.3c2.2,1.05,4.37,2.15,6.56,3.24c1.81,0.9,2.76,2.59,3.84,4.17c0.86,1.26,1.16,3.12,3.24,3.17
		c0.23,0.01,0.5,0.4,0.66,0.66c2.14,3.64,4.7,7.13,4.37,11.69c-0.08,1.09-0.21,2.17-0.32,3.26
		C411.54,300.97,411.13,299.97,410.54,299.1z M250.42,292.76c-0.07,1.05,0.06,2.21-0.34,3.13c-2.41,5.67-4.8,11.35-8.46,16.37
		c-2.83,3.87-6.17,7.02-11.15,7.85c-0.49,0.08-0.95,0.42-1.39,0.7c-3.57,2.29-7.13,4.59-10.7,6.88c-0.15,0.1-0.35,0.12-0.54,0.16
		c0.28-2.58,1.07-4.88,3.15-6.67c0.66-0.57,1.26-1.57,1.31-2.41c0.12-1.75,1.2-2.61,2.4-3.53c1.76-1.35,3.61-2.63,5.17-4.19
		c3.46-3.45,6.75-7.07,10.15-10.59c0.5-0.52,1.16-0.97,1.83-1.23c2.9-1.08,5.22-2.81,6.75-5.55c0.26-0.46,0.67-0.83,1.01-1.23
		c0.19-0.22,0.41-0.42,0.61-0.63C250.29,292.14,250.43,292.45,250.42,292.76z M86.95,378.89c0.6,2.89,0.59,5.9,0.83,8.86
		c0.02,0.19-0.11,0.39-0.17,0.59c-0.1-0.15-0.23-0.3-0.28-0.46c-0.43-1.31-0.9-2.61-1.24-3.94c-1.2-4.64-1.8-9.37-1.99-14.15
		c-0.09-2.23-0.4-4.44-0.46-6.67c-0.03-0.92,0.13-1.93,0.52-2.75c1.65-3.47,3.63-6.69,6.46-9.42c3.06-2.95,5.87-6.18,7.82-10.02
		c2.07-4.1,3.71-8.32,3.65-13.04c-0.05-4.05,0.04-8.1-0.02-12.16c-0.09-5.83,1.52-11.33,3.27-16.79c0.41-1.29,1.5-2.35,2.32-3.51
		c-1,4.12-0.71,8.32-0.73,12.49c-0.03,7.88,0.04,15.75-0.02,23.63c-0.02,2.97-0.06,5.98-0.54,8.9c-0.64,3.8-2.2,7.34-4.62,10.38
		c-3.05,3.82-6.23,7.55-9.45,11.23c-1.43,1.63-2.56,3.37-3.22,5.44c-0.52,1.62-1.18,3.19-1.63,4.83
		C86.85,374.46,86.46,376.56,86.95,378.89z M75.3,345.62c4.55-6.46,8.51-13.2,11.37-20.58c0.12-0.31,0.48-0.53,0.73-0.79
		c0.11,0.28,0.31,0.56,0.33,0.85c0.23,3.73,0.19,7.4-1.43,10.93c-2.25,4.92-4.48,9.85-6.45,14.88c-1.55,3.94-2.71,8.03-4,12.08
		c-0.19,0.59-0.14,1.27-0.14,1.9c0.01,5.76-0.12,11.52,0.09,17.26c0.24,6.64,2,12.94,4.8,19c1.24,2.68,2.04,5.57,2.98,8.37
		c0.23,0.69,0.35,1.45,0.37,2.19c0.01,0.53-0.24,1.06-0.38,1.6c-0.43-0.45-1.03-0.82-1.26-1.35c-0.38-0.86-0.44-1.86-0.77-2.75
		c-0.9-2.37-1.49-4.97-2.89-7c-3.36-4.85-5.56-10.23-7.99-15.54c-2.45-5.34-3.54-10.88-3.15-16.65
		C66.62,360.74,70.18,352.89,75.3,345.62z M90.55,429.54c2.37-5.19,2.36-10.68,2.27-16.21c-0.04-2.41,0.37-4.83,0.49-7.24
		c0.14-2.75,0.5-5.55,0.19-8.26c-0.52-4.57-0.72-9.09,0.01-13.64c0.07-0.42,0.12-0.86,0.07-1.27c-0.57-4.52,1.47-8.28,3.51-12.02
		c0.55-1,1.39-1.86,2.18-2.71c3.03-3.27,6.15-6.46,9.13-9.79c4.52-5.06,6.9-11.15,8.16-17.72c0.26-1.34,0.15-2.76,0.15-4.15
		c0.01-10.55,0.22-21.11-0.07-31.65c-0.19-6.7,2.76-11.67,7.39-15.88c2.51-2.28,5.41-4.12,8.14-6.16c0.16-0.12,0.38-0.17,0.57-0.25
		c-0.02,0.24,0.04,0.55-0.09,0.72c-2.45,3.38-4.31,6.98-5.31,11.11c-1.22,5.07-1.51,10.17-1.48,15.32
		c0.05,9.34,0.22,18.69,0.18,28.03c-0.01,2.08-0.65,4.16-1.03,6.24c-0.48,2.6-0.87,5.23-1.51,7.79c-0.82,3.26-2.6,6.03-4.9,8.47
		c-2.86,3.01-5.83,5.92-8.56,9.04c-4.15,4.75-7.75,9.88-9.07,16.22c-0.34,1.65-0.4,3.36-0.46,5.05c-0.22,6.59-0.34,13.18-0.62,19.77
		c-0.07,1.56-0.54,3.12-0.94,4.66c-0.53,2.05-1.14,4.08-1.74,6.11c-0.18,0.61-0.34,1.25-0.67,1.78c-1.91,3.07-3.87,6.11-5.82,9.15
		c-0.11,0.18-0.27,0.32-0.56,0.67c-0.15-0.36-0.35-0.59-0.31-0.77C90.05,431.15,90.21,430.3,90.55,429.54z M91.73,454.42
		c1.16-1.38,2.23-2.85,3.5-4.12c1.99-1.99,3.41-4.24,4.49-6.85c1.69-4.11,3.75-8.07,5.61-12.11c0.75-1.64,1.42-3.31,2.09-4.99
		c0.59-1.47,0.97-2.89,0.45-4.59c-0.39-1.26-0.1-2.74-0.04-4.12c0.18-3.6,0.34-7.2,0.63-10.8c0.13-1.68,0.3-3.42,0.85-4.98
		c1.28-3.59,2.79-7.1,4.25-10.63c0.49-1.17,1.11-2.29,1.7-3.42c0.13-0.26,0.38-0.46,0.57-0.68c0.08,0.3,0.21,0.6,0.22,0.9
		c0.03,0.85,0.01,1.7,0.01,3.14c-0.37,3.11-0.8,6.79-1.23,10.47c-0.05,0.42-0.21,1.04-0.01,1.24c2.45,2.44,1.16,5.43,1.27,8.2
		c0.07,1.91-0.11,3.84-0.01,5.75c0.07,1.36,0.13,2.85,0.73,4.02c1.7,3.34,0.43,6.09-1.23,8.89c-1.13,1.91-2.16,3.89-3.32,5.79
		c-3.53,5.81-8.59,10.23-13.63,14.64c-1.99,1.74-4.22,3.21-6.36,4.77c-0.19,0.14-0.56,0.02-0.84,0.02
		C91.54,454.77,91.61,454.57,91.73,454.42z M97.73,463.46c3.89-3.13,7.85-6.19,11.65-9.42c2.58-2.19,5.06-4.53,7.36-7.01
		c1.27-1.37,2.12-3.16,3.08-4.8c1.29-2.2,2.68-4.36,3.73-6.67c1.32-2.9,2.49-5.89,2.27-9.19c1.67-4.31,1.23-8.82,1.09-13.25
		c-0.16-5.08-0.77-10.14-1.03-15.21c-0.17-3.4-0.08-6.82-0.07-10.22c0-0.41,0.15-0.84,0.32-1.22c1.14-2.45,2.49-4.76,4.54-6.58
		c-1.78,5.21-1.46,10.61-1.17,15.95c0.17,3.05,0.85,6.08,1.42,9.1c2.23,11.76,1.26,23.28-2.94,34.45c-1.95,5.2-5.35,9.65-8.59,14.13
		c-2,2.76-4.04,5.39-7.05,7.24c-4.54,2.8-9.47,3.54-14.64,3.49c-0.2,0-0.39-0.12-0.59-0.19C97.33,463.85,97.51,463.64,97.73,463.46z
		 M130.41,454.57c2.54-3.68,4.83-7.5,6.59-11.61c2.1-4.9,3.21-10.08,4.08-15.31c0.92-5.59,0.97-11.25,0.54-16.86
		c-0.36-4.74-1.36-9.43-2.05-14.14c-0.67-4.65-1.01-9.26,0.72-13.81c0.9-2.37,1.52-4.85,2.3-7.27c0.08-0.26,0.43-0.44,0.66-0.65
		c0.09,0.27,0.25,0.54,0.25,0.81c0.02,3.51,0.01,7.03,0.01,10.54h-0.12c0,1.07,0.04,2.13-0.01,3.2c-0.23,5.67,0.59,11.21,1.77,16.73
		c0.51,2.37,0.78,4.84,0.76,7.26c-0.05,6.38-0.26,12.75-0.52,19.12c-0.11,2.54-0.44,5.07-0.83,7.58c-0.61,3.91-2.65,7.12-5.3,9.97
		c-1.38,1.48-2.95,2.8-4.2,4.38c-1.4,1.77-3.36,2.08-5.29,2.58c-0.13,0.03-0.61-0.53-0.56-0.63
		C129.56,455.8,129.99,455.18,130.41,454.57z M141.83,358.06c-1.37,1.12-2.76,2.21-4.6,2.43c2.62-4.83,4.53-9.93,6.14-15.18
		c0.68-2.23,1.34-4.34,1.62-6.69c0.32-2.68,1.37-5.32,2.39-7.86c2.38-5.9,4.95-11.73,7.43-17.58c1.76-4.15,4.36-7.77,7.22-11.21
		c0.14-0.17,0.37-0.26,0.55-0.38c0.01,0.21,0.09,0.45,0.01,0.62c-1.83,4.26-2.01,8.85-2.66,13.34c-0.4,2.72-0.69,5.46-1.04,8.18
		c-0.82,6.4-1.5,12.82-3.81,18.93c-1.81,4.78-4.54,8.83-8.8,11.8C144.72,355.54,143.31,356.85,141.83,358.06z M162.27,287.1
		c-4.46,4.15-8.46,8.69-11.87,13.75c-2.39,3.54-4.26,7.34-5.76,11.35c-2.13,5.66-4.4,11.27-6.54,16.93
		c-0.63,1.68-1.04,3.44-1.55,5.17c-0.09,0.3-0.19,0.6-0.29,0.9c-0.07-0.34-0.21-0.68-0.21-1.02c-0.02-1.49-0.01-2.99-0.01-4.48
		c0.31-8.82,1.18-17.56,3.32-26.16c1.06-4.25,2.95-8.17,4.44-12.24c0.74-2.03,2.62-3.48,4.67-4.14c6.83-2.23,13.07-6.22,20.5-6.67
		c1.78-0.11,3.52-0.73,5.29-1.08c0.29-0.06,0.62,0.07,0.93,0.11c-0.2,0.17-0.38,0.4-0.61,0.5c-0.97,0.43-1.93,0.88-2.94,1.22
		C168.02,282.41,165.03,284.53,162.27,287.1z M167.97,349.98c0.02-8.63,2.78-16.44,7.16-23.76c0.43-0.73,0.95-1.42,1.5-2.06
		c2.07-2.42,4.14-4.85,6.27-7.22c0.99-1.1,2.11-2.08,3.19-3.1c0.23-0.21,0.51-0.47,0.79-0.5c3.47-0.4,6.64-2.1,10.25-2.07
		c4.45,0.04,8.91-0.33,13.37-0.51c0.38-0.02,0.78,0.12,1.16,0.18c-0.39,0.15-0.78,0.29-1.17,0.45c-1.36,0.55-2.73,1.08-4.08,1.65
		c-2.04,0.86-4.12,1.64-6.09,2.63c-2.17,1.1-4.24,2.4-6.35,3.61c-2.49,1.42-4.99,2.81-7.46,4.27c-6.06,3.59-9.73,9.07-12.03,15.55
		c-0.71,2.01-1.84,3.86-2.48,5.8c-0.91,2.75-2.21,5.26-3.39,7.85c-0.16,0.35-0.32,0.7-0.48,1.04c-0.05-0.42-0.14-0.84-0.15-1.25
		C167.95,351.68,167.97,350.83,167.97,349.98z M385.49,174.46c1.64,0.71,3.1,1.84,4.64,2.79c1.41,0.88,2.84,1.42,4.5,0.6
		c0.42-0.21,1.12-0.35,1.47-0.15c2.94,1.68,6.16,3.11,6.06,7.39c-0.04,1.67,0.43,3.35,0.74,5.59c-0.7,3.46-1.48,7.4-2.3,11.34
		c-0.06,0.26-0.38,0.47-0.58,0.71c-0.2-0.21-0.43-0.41-0.61-0.64c-1.18-1.52-2.37-2.88-4.48-3.34c-1.13-0.25-2.02-1.48-3.11-2.13
		c-0.45-0.27-1.12-0.16-1.69-0.22c0,0.6-0.24,1.36,0.03,1.76c0.65,0.96,1.45,1.87,2.37,2.56c1.1,0.83,1.59,1.83,1.95,3.13
		c0.67,2.46,1.28,4.87,1.26,7.48c-0.02,2.73,1.23,5.12,2.97,7.23c0.54,0.65,1.08,1.3,1.57,1.99c0.15,0.2,0.12,0.53,0.17,0.8
		c-0.2,0.01-0.43,0.11-0.59,0.03c-2.8-1.37-5.82-1-8.78-1.14c-3.39-0.15-6.77-0.4-10.15-0.6c-0.54-0.03-1.15,0.03-0.55-0.81
		c2.77-3.9,1.99-8.34,1.79-12.65c-0.04-0.97-0.8-1.92-1.28-2.85c-0.39-0.75-1.07-1.41-1.27-2.19c-0.82-3.17-3.44-4.65-5.76-6.45
		c-2.35-1.83-4.64-3.74-6.02-6.46c-0.12-0.23-0.12-0.67,0.02-0.83c0.14-0.15,0.57-0.15,0.82-0.06c2.1,0.7,4.13,1.69,6.28,2.1
		c2.58,0.49,5.2,0.6,7.86-0.17c2.16-0.62,2.99-2.24,3.86-3.93c0.33-0.64,0.06-1.26-0.74-1.44c-1.65-0.37-3.32-0.67-4.95-1.11
		c-3.46-0.94-6.95-1.82-10.33-3c-1.77-0.62-3.57-1.55-4.95-2.78c-4.48-4.02-9.25-7.79-12.54-12.98c-0.55-0.87-1.46-1.52-2.1-2.35
		c-0.57-0.73-1.12-1.52-1.48-2.37c-0.95-2.28-0.28-3.21,2.19-2.8c2.18,0.36,4.33,1.02,6.45,1.65c2.8,0.84,5.66,0.89,8.53,0.85
		c0.53-0.01,1.14,0.03,1.56-0.21c0.61-0.35,1.07-0.94,1.6-1.43c-0.5-0.34-0.94-0.82-1.49-1c-2.78-0.89-5.57-1.83-8.4-2.52
		c-2.61-0.64-4.66-1.84-6.01-4.23c-0.69-1.23-1.87-2.25-1.33-3.88c1.21,0.76,2.5,1.42,3.61,2.31c0.97,0.78,1.62,1.96,2.61,2.69
		c1.49,1.12,2.32-0.75,3.46-1.15c0.98-0.35,0.85-1.59,0.16-2.47c-1.03-1.33-1.65-2.65-0.71-4.37c1.05-1.93,2.87-2.62,4.74-1.5
		c1.25,0.74,2.01,1.89,2.21,3.35c0.09,0.63,0.02,1.29,0.16,1.91c0.14,0.61,0.45,1.17,0.68,1.75c0.38-0.41,0.7-0.93,1.16-1.21
		c0.89-0.54,1.81-1.16,2.8-1.38c2.03-0.44,2.15-0.13,3.25,1.74c0.96,1.63,2.04,3.31,3.43,4.55c2.44,2.18,3.36,4.54,2.11,7.65
		c-0.19,0.48-0.14,1.05-0.19,1.58c-0.05,0.61-0.25,0.65-0.78,0.34c-1.91-1.15-3.85-2.25-5.8-3.34c-0.45-0.25-0.97-0.49-1.47-0.51
		c-0.35-0.01-0.86,0.27-1.02,0.58c-0.15,0.27-0.05,0.89,0.17,1.09c0.86,0.78,1.79,1.5,2.75,2.16c0.7,0.48,1.5,0.81,2.22,1.26
		c2.12,1.29,3.53,2.95,3.43,5.67C381.58,171.24,382.75,173.29,385.49,174.46z M378.64,135.43c0.95,1.51-0.04,2.28-0.91,3.19
		c-0.58,0.61-0.84,0.38-1.04-0.28c-0.47-1.51-0.82-3.07-1.46-4.5c-1.58-3.52-4.17-5.22-8.27-5.21c-3.71,0.01-6.88,1.09-9.89,2.94
		c-1.8,1.11-3.51,2.4-5.16,3.72c-1.23,0.99-2.47,2.02-2.46,3.89c0,0.71-0.63,1.08-1.38,0.95c-0.62-0.1-1.23-0.3-1.86-0.38
		c-2.25-0.26-2.57-0.48-2.17-2.67c0.24-1.31,0.74-2.74,1.58-3.74c3.93-4.64,8.77-7.97,14.76-9.43c0.71-0.17,2.28-0.34,2.31-0.43
		c1.4,0.42,2.81,0.77,4.18,1.28c1.79,0.66,3.56,1.37,5.28,2.18c1.52,0.72,3.04,1.51,4.4,2.49c1.22,0.88,2.05,2.11,1.85,3.82
		C378.32,133.97,378.29,134.87,378.64,135.43z M79.13,106.28c1.61-9.64,5.77-18.23,11.41-26.04c6.52-9.03,14.11-17.23,23.63-23.08
		c6.64-4.08,12.77-8.82,19.24-13.09c4.94-3.26,10.39-5.32,15.92-7.24c1.58-0.55,3.17-1.16,4.8-1.39c1.67-0.24,3.41,0.01,5.11-0.08
		c1.15-0.06,2.32-0.25,3.44-0.55c4.15-1.12,8.36-1.55,12.64-1.25c1.68,0.12,3.1-0.23,4.47-1.25c2.29-1.71,4.63-3.35,7-4.93
		c3.12-2.07,6.58-3.3,10.24-4.06c4.14-0.86,8.25-1.84,12.37-2.82c0.92-0.22,1.87-0.5,2.68-0.98c4.28-2.57,9.08-2.25,13.76-2.49
		c3.33-0.17,6.69,0.07,10.01-0.23c4.21-0.38,8.39-1.11,12.58-1.69c0.42-0.06,0.85-0.05,1.27-0.09c3.68-0.33,7.39-0.47,11.03-1.03
		c6.02-0.91,11.77,0.1,17.52,1.72c4.99,1.41,9.94,2.9,14.55,5.34c0.65,0.35,1.33,0.68,2.04,0.87c2.88,0.79,5.52,1.97,7.76,4.03
		c1.27,1.17,2.9,1.56,4.6,1.99c2.23,0.56,4.3,1.74,6.42,2.7c0.37,0.17,0.73,0.49,0.97,0.82c1.46,2.07,2.85,4.19,4.34,6.24
		c0.61,0.85,0.04,0.82-0.48,0.8c-3.66-0.14-7.15-0.92-10.3-2.88c-0.81-0.51-1.6-1.14-2.5-1.39c-0.58-0.16-1.66,0.05-1.92,0.46
		c-0.29,0.46-0.05,1.42,0.25,2.02c0.26,0.52,0.92,0.86,1.43,1.24c3.95,2.92,8.54,4.23,13.25,5.13c3.33,0.64,6.72,0.91,10.07,1.43
		c0.92,0.14,1.82,0.55,2.68,0.95c3.37,1.58,6.81,3.04,10.04,4.87c2.96,1.67,5.69,3.73,8.52,5.63c0.26,0.18,0.46,0.48,0.74,0.6
		c5.14,2.2,8.12,6.69,11.52,10.75c1.57,1.87,3.44,3.49,5.11,5.28c0.85,0.91,1.69,1.87,2.32,2.93c1.34,2.29,2.58,4.65,3.78,7.02
		c0.66,1.31,0.52,1.48-0.9,2.04c-1.77,0.71-3.53,1.45-5.29,2.18c-0.63,0.27-1.25,0.57-1.88,0.85c-0.09-0.73-0.31-1.47-0.24-2.19
		c0.12-1.15,0.44-2.27,0.66-3.41c0.07-0.36,0.08-0.73,0.12-1.09c-0.4,0.01-0.85-0.09-1.2,0.05c-7.22,2.79-13.81,6.46-18.26,13.13
		c-1.76,2.63-3.66,5.17-5.48,7.76c-0.17,0.24-0.34,0.56-0.33,0.84c0.01,0.95,0.19,1.84-0.83,2.54c-1.25,0.85-2.41,1.75-4.01,1.74
		c-2.02-0.02-4.05-0.04-6.07,0c-1.31,0.03-1.46,0.33-0.79,1.55c0.35,0.64,0.78,1.25,1.25,1.81c0.55,0.65,1.35,1.15,1.73,1.87
		c1.33,2.53,3.7,3.2,6.19,3.89c2.65,0.73,5.22,1.77,7.85,2.6c3.3,1.04,4.49,0.7,6.02-2.25c1.91-3.7,4.79-6.55,7.97-8.99
		c1.65-1.27,4.06-1.64,6.2-2.17c1.28-0.32,2.38,0.53,2.62,1.8c0.28,1.46,1.18,1.87,2.4,2.13c3.41,0.74,6.8,1.64,10.24,2.22
		c1.49,0.25,2,0.84,2.09,2.22c0.07,1.15,0.33,2.3,0.52,3.44c0.34,2.04-0.55,3.77-1.55,5.38c-0.58,0.93-3.3,1.12-4.34,0.52
		c-4.15-2.4-8.52-3.88-13.39-3.19c-1.78,0.25-3.54,0.67-5.27,1.14c-1.26,0.35-2.05,0.02-2.5-1.19c-0.07-0.2-0.12-0.42-0.23-0.59
		c-0.33-0.53-0.68-1.05-1.03-1.57c-0.44,0.29-0.87,0.61-1.33,0.87c-3.27,1.86-6.8,2.87-10.54,3.25c-3.63,0.36-6.92-0.81-10.18-2.14
		c-0.88-0.36-1.69-0.9-2.55-1.32c-1.55-0.74-2.02-0.57-2.61,1.05c-0.72,1.98-1.28,4.03-2.08,5.98c-1.04,2.51-0.58,4.92,0.81,6.94
		c2.71,3.93,5.76,7.61,8.61,11.44c1.26,1.69,2.45,3.45,3.56,5.25c1.09,1.77,1.38,3.79,1.29,5.83c-0.19,4.4,1.61,8.2,3.43,12.03
		c1.27,2.67,2.25,5.48,3.35,8.23c0.29,0.73-0.12,1-0.74,0.98c-4.34-0.15-8.36,1.24-12.44,2.41c-1.1,0.32-2.32,0.23-3.48,0.36
		c-1.69,0.2-3.39,0.34-5.04,0.7c-0.46,0.1-1.06,0.85-1.08,1.32c-0.01,0.39,0.68,1.04,1.17,1.16c3.77,0.95,7.61,0.87,11.41,0.36
		c4-0.54,7.81-0.25,11.5,1.46c1.64,0.76,3.31,1.46,4.98,2.15c0.58,0.24,1.22,0.58,1.81,0.54c2.78-0.17,4.89,0.86,6.97,2.75
		c2.76,2.49,5.87,4.57,8.11,7.62c1.89,2.58,2.86,5.41,2.63,8.65c-0.18,2.5-1.39,4.39-3.69,5.01c-2.3,0.62-3.91,1.97-5.61,3.43
		c-0.93,0.8-2.07,1.48-3.24,1.87c-2.98,0.99-5.71,2.25-7.85,4.67c-0.58,0.66-1.53,1.18-2.4,1.39c-3.18,0.75-6.37,0.97-9.08-1.38
		c-0.82-0.71-1.67-0.83-2.65-0.8c-4.97,0.15-9.29-1.6-13.53-4.07c-4.32-2.51-8.91-4.53-13.4-6.73c-1.62-0.8-3.34-1.4-4.93-2.25
		c-3.05-1.64-6.29-2.47-9.7-2.81c-1.66-0.16-2.82,0.6-3.96,1.66c-2.42,2.24-4.92,4.4-7.34,6.64c-0.93,0.87-1.77,1.06-3.12,0.83
		c-1.71-0.28-3.56,0.1-5.32,0.4c-0.79,0.13-1.36,0.2-1.99-0.37c-0.63-0.56-1.3-1.21-2.06-1.46c-1.94-0.64-2.66-2.25-2.85-3.89
		c-0.53-4.51-0.57-8.98,3.4-12.32c0.62-0.52,1.29-1.21,1.53-1.95c1.34-4.16,2.72-8.29,5.53-11.76c0.1-0.13,0.12-0.41,0.04-0.56
		c-0.05-0.1-0.36-0.19-0.48-0.13c-6.92,3.05-13.35,6.73-16.76,13.95c-2.45,5.18-4.75,10.44-7.18,15.62
		c-0.44,0.93-1.19,1.74-1.87,2.54c-0.9,1.05-2.08,1.92-2.76,3.08c-0.88,1.51-2.27,2.17-3.68,2.1c-3.51-0.17-6.18,1.58-8.59,3.62
		c-2,1.69-3.76,3.79-5.2,5.98c-3.1,4.69-5.9,9.57-8.86,14.34c-1.68,2.71-3.83,5.02-6.39,6.93c-0.28,0.21-0.7,0.25-1.05,0.37
		c0.07-0.28,0.09-0.57,0.21-0.82c2.47-5.1,3.49-10.68,5.27-16.01c1.75-5.22,3.83-9.33,7.45-13.63c0.75-0.9,1.06-1.77,1.29-2.12
		c0.77-1.13,1.72-2.14,2.48-3.28c0.29-0.44,0.25-1.11,0.35-1.67c-0.58-0.05-1.23-0.3-1.71-0.11c-0.97,0.38-1.93,0.88-2.73,1.54
		c-2.21,1.82-4.28,3.83-6.51,5.62c-2.93,2.35-5.5,5-7.66,8.08c-1.46,2.08-3.06,4.09-4.82,5.9c-3.19,3.29-6.03,6.78-8.3,10.8
		c-3.68,6.51-8.9,11.6-15.4,15.26c-2.55,1.44-5.17,2.9-8.21,3.16c-0.47,0.04-0.95-0.01-1.42-0.01c0.2-0.37,0.34-0.8,0.62-1.1
		c1.96-2.08,3.89-4.2,5.95-6.19c4.88-4.73,8.73-10.05,10.59-16.72c1.64-5.88,4.87-11.04,8.11-16.14c1.46-2.3,3.46-4.2,5.78-5.71
		c0.23-0.15,0.3-0.53,0.45-0.8c-0.3-0.08-0.62-0.3-0.88-0.23c-3.49,0.89-6.86,1.86-9.69,4.42c-3.92,3.54-7.03,7.54-9.58,12.17
		c-2.58,4.7-4.93,9.59-8.46,13.74c-4.38,5.15-8.65,10.39-12.99,15.57c-1.2,1.43-2.78,2.29-4.62,2.57c-0.23,0.04-0.56-0.22-0.76-0.43
		c-0.09-0.09-0.03-0.43,0.07-0.58c1.27-1.94,2.58-3.86,3.85-5.8c2.43-3.7,3.47-7.88,4.16-12.18c0.25-1.57,0.49-3.14,0.69-4.72
		c0.03-0.28-0.17-0.59-0.27-0.89c-0.28,0.12-0.65,0.16-0.83,0.37c-0.35,0.39-0.65,0.85-0.89,1.32c-2.24,4.52-5.51,8.33-9.09,11.74
		c-3.03,2.89-6.26,5.66-9.96,7.79c-0.99,0.57-1.88,0.83-2.98,0.83c-2.77-0.01-5.55-0.07-8.32,0.11c-2.42,0.16-4.84,0.52-7.24,0.94
		c-6.44,1.15-11.3,5.18-16.24,9.05c-0.29,0.23-0.64,0.36-0.97,0.54c-0.06-0.31-0.06-0.64-0.17-0.93c-1.06-2.81,0.24-4.9,2.03-6.86
		c1.21-1.33,2.57-2.55,2.61-4.6c0.01-0.42,0.74-0.97,1.26-1.19c1.91-0.85,3.9-1.55,5.81-2.4c2.8-1.24,5.62-2.34,8.62-3.09
		c3.02-0.76,5.45-2.81,7.65-4.95c4.11-4,8.14-8.09,12.13-12.21c4.71-4.86,8.01-10.66,10.84-16.75c0.09-0.19,0.17-0.39,0.19-0.6
		c0.02-0.2-0.01-0.56-0.09-0.58c-0.22-0.06-0.57-0.08-0.71,0.06c-2.53,2.27-5.11,4.5-7.52,6.88c-2.73,2.7-5.69,5.02-9.03,6.92
		c-2.12,1.2-4.21,2.51-6.1,4.03c-3.56,2.86-7.73,4.36-11.95,5.78c-1.79,0.61-3.68,0.92-5.5,1.44c-2,0.58-3.65,1.7-4.9,3.39
		c-1.46,1.96-2.89,3.95-4.4,5.87c-0.5,0.63-1.14,1.37-1.86,1.58c-3.87,1.16-6.75,3.48-8.75,6.97c-0.13,0.23-0.36,0.41-0.56,0.61
		c-0.04-2.97,1.78-5.31,2.83-7.89c0.75-1.86,1.91-3.55,2.85-5.33c1.45-2.75,3.26-5.06,6.03-6.76c2.12-1.3,4.07-3.1,5.19-5.47
		c0.54-1.14,1.34-1.49,2.51-1.83c4.67-1.34,9.26-2.9,13.24-5.87c2.43-1.82,4.17-4.2,5.87-6.61c1.45-2.06,2.63-4.31,3.9-6.49
		c0.13-0.22,0.04-0.56,0.05-0.85c-0.37,0.06-0.9-0.02-1.09,0.2c-2.82,3.28-6.88,4.46-10.63,5.94c-5.2,2.06-10.39,4.12-15.35,6.7
		c-0.82,0.43-1.72,0.69-2.59,1.03c-0.03-1.34,1.07-1.97,1.86-2.74c2.33-2.26,4.21-4.8,5.22-7.91c0.4-1.25,1.17-1.83,2.46-2.17
		c1.82-0.47,3.71-1.01,5.29-1.98c3.24-1.99,6.37-4.18,9.41-6.47c2.8-2.12,4.39-5.09,5.1-8.52c0.04-0.17-0.07-0.42-0.19-0.56
		c-0.04-0.05-0.39,0.03-0.48,0.14c-2.82,3.55-6.74,4.41-10.99,4.72c-3.27,0.24-6.54,0.64-9.74,1.33c-1.92,0.41-3.75,1.4-5.52,2.33
		c-1.49,0.79-2.82,1.89-4.25,2.8c-0.55,0.35-1.21,0.53-1.82,0.78c0.04-0.72-0.09-1.5,0.15-2.14c0.97-2.58,2.08-5.1,3.1-7.67
		c0.42-1.05,1.16-1.24,2.21-1.41c2.5-0.4,4.94-1.1,7.42-1.6c3.06-0.62,5.8-1.83,8.23-3.81c1.31-1.07,2.77-1.96,4.18-2.9
		c2.67-1.79,3.42-4.45,3.35-7.46c0-0.19-0.14-0.38-0.21-0.57c-0.25,0.11-0.57,0.16-0.74,0.35c-1.7,1.9-3.78,2.98-6.31,3.41
		c-1.22,0.21-2.37,0.89-3.54,1.39c-1.68,0.73-3.43,1-5.26,1.05c-3.6,0.1-7.2,0.24-10.78,0.55c-3.78,0.33-7.18,1.68-10.02,4.3
		c-0.77,0.71-1.66,1.31-2.49,1.96c0.29-1.06,0.63-2.11,0.86-3.18c0.22-1.05,0.84-1.65,1.82-2.02c1.92-0.73,3.01-2.02,3.54-4.13
		c0.36-1.46,1.57-2.73,2.51-4c0.25-0.33,0.94-0.44,1.44-0.47c3.7-0.26,7.47-1,11.1-0.58c6.84,0.79,14.16-6.88,14.86-13
		c0.03-0.29-0.12-0.6-0.19-0.9c-0.26,0.08-0.6,0.09-0.76,0.26c-2.91,3.09-6.55,4.16-10.68,3.94c-0.74-0.04-1.49,0.04-2.24-0.02
		c-3.44-0.26-6.76,0.15-9.93,1.6c-0.53,0.24-1.19,0.2-1.8,0.28c0.32-2.1,2.02-3.18,3.47-4.29c3.05-2.33,6.07-4.62,8.49-7.68
		c0.95-1.21,2.52-1.91,3.66-3c1.44-1.38,2.85-2.82,4.04-4.41c1.4-1.85,2.62-3.82,4.54-5.23c0.33-0.24,0.63-0.95,0.52-1.3
		c-0.26-0.81-1.04-1.12-1.82-0.8c-2.46,0.98-4.96,1.9-7.3,3.11c-1.68,0.87-3.21,2.08-4.68,3.28c-1.7,1.4-3.58,2.14-5.75,2.43
		c-1.94,0.26-3.85,0.81-5.77,1.24c1.24-2.4,2.41-4.85,3.75-7.2c3.25-5.73,6.58-11.41,9.87-17.12c0.14-0.24,0.14-0.57,0.21-0.85
		c-0.27,0.01-0.58-0.05-0.8,0.05c-3.07,1.45-6.26,2.72-9.17,4.46c-3.18,1.9-6.12,4.21-9.13,6.39c-1.38,1-2.66,2.12-4.02,3.16
		c-1.18,0.9-2.33,1.71-4.02,1.49c-1.53-0.21-2.5,0.93-3.39,2.04c-0.18,0.22-0.53,0.3-0.81,0.44c-0.06-0.38-0.28-0.82-0.15-1.12
		c0.91-2.14,1.79-4.3,2.87-6.36c1.08-2.07,2.3-4.05,2.82-6.37c0.82-3.65,3.03-6.47,5.43-9.22c3.15-3.6,6.1-7.38,9.27-10.96
		c1.9-2.14,4.15-3.97,6.1-6.07c2.6-2.8,5.27-5.48,8.45-7.62c0.62-0.41,0.62-1.03,0.15-1.66c-1.18-1.57-2.37-1.88-4.13-1.06
		c-3.33,1.57-5.85,4.21-8.62,6.52c-1.06,0.88-2.19,1.43-3.44,2.01c-3.32,1.54-6.91,2.93-9.14,6.13c-2.5,3.59-6.02,5.98-9.72,8.07
		c-2.2,1.25-3.08,3.06-3.59,5.32c-0.15,0.65-0.54,1.34-1.03,1.77c-0.44,0.38-1.17,0.42-1.77,0.61c0.05-0.58,0.08-1.17,0.17-1.75
		c0.49-3.14,1.55-5.93,4.33-7.85c0.53-0.36,0.77-1.22,1.01-1.9c0.65-1.81,1.36-3.53,2.73-4.97c0.94-0.99,1.65-2.21,2.4-3.37
		c1.75-2.74,4.02-4.79,6.8-6.57c3.11-1.99,5.89-4.55,8.63-7.05c1.06-0.97,1.5-2.58,2.47-3.69c2.3-2.64,4.75-5.16,7.14-7.74
		c1.66-1.8,3.27-3.64,4.97-5.4c0.8-0.83,1.75-1.53,2.66-2.25c2.42-1.91,4.87-3.78,7.29-5.69c0.32-0.25,0.6-0.61,0.78-0.98
		c0.12-0.25,0.13-0.75-0.02-0.88c-0.28-0.24-0.78-0.47-1.09-0.37c-0.59,0.19-1.12,0.59-1.64,0.95c-2.8,1.93-5.61,3.86-8.38,5.84
		c-0.68,0.48-1.27,1.11-1.81,1.75c-2.58,3.01-5.29,5.81-9.1,7.33c-2.6,1.04-4.72,2.83-6.72,4.78c-3.12,3.05-6.13,6.26-9.58,8.9
		c-3.12,2.39-6.74,4.13-10.15,6.14c4.34-8.65,9.8-16.48,16.26-23.75c4.87-5.48,10.16-10.26,16.22-14.29
		c0.96-0.64,1.74-1.56,2.58-2.38c2.37-2.31,4.73-4.61,7.07-6.95c0.25-0.25,0.49-0.92,0.38-1.03c-0.34-0.34-0.94-0.78-1.29-0.68
		c-0.9,0.25-1.96,0.57-2.53,1.23c-4.27,4.99-10.23,7.57-15.57,11c-4.14,2.65-7.95,5.7-11.82,8.68c-1.52,1.17-3.01,2.44-4.7,3.28
		c-2.59,1.29-4.29,3.42-5.94,5.62c-5.01,6.65-9.06,13.87-12.72,21.32c-0.14,0.29-0.42,0.51-0.63,0.77
		C79.12,106.91,79.08,106.59,79.13,106.28z M54.01,282.82c-0.74-0.6-1.54-1.13-2.26-1.75c-2.6-2.21-3.99-5.05-4.87-8.35
		c-1.38-5.12-1.34-10.31-1.22-15.5c0.14-6.56,0.49-13.12,0.69-19.68c0.14-4.46,0.07-8.91-1.11-13.27c-0.25-0.91-0.08-1.93-0.29-2.85
		c-0.35-1.51-0.66-2.94-2.22-3.97c-1.99-1.31-3.01-3.53-3.86-5.74c-0.61-1.57-1.09-3.2-1.74-4.75c-2.1-4.99-3.58-10.17-4.68-15.45
		c-0.45-2.16-0.09-4.37,0.38-6.61c0.98-4.73,4-8.05,7.12-11.32c1.55-1.63,3.66-2.51,5.9-2.87c1.01-0.17,2.06-0.14,3.09-0.17
		c7.11-0.2,7.14-0.26,14.4,3.75c2.58,1.43,5.14,1.79,7.97,1.04c1.63-0.43,3.31-0.67,4.98-0.91c1.74-0.25,3.42,0.16,4.83,1.17
		c4.08,2.92,10.8,9.53,11,9.31c0.17,0.23,1.82,1.7,1.98,1.84c1.32,1.2,1.01,3.23,2.57,4.1c0.89,0.5,0.79,1.14,0.67,1.88
		c-0.69,4.28-1.4,8.57-2.06,12.86c-0.07,0.46-0.1,1.12,0.16,1.42c1.4,1.61,1.37,3.51,1.34,5.44c-0.01,0.96-0.03,1.92,0.03,2.88
		c0.02,0.32,0.3,0.63,0.47,0.95c0.27-0.31,0.75-0.6,0.77-0.92c0.06-1.08,0.44-1.52,1.55-1.93c0.83-0.31,1.27-1.63,1.93-2.45
		c1.59-1.99,3.21-3.95,4.83-5.91c0.11-0.13,0.33-0.17,0.5-0.26c0.06,0.19,0.21,0.41,0.17,0.57c-1.09,4.21-1.86,8.54-5.62,11.48
		c-1.42,1.11-2.62,2.5-3.89,3.79c-2.38,2.43-3.69,5.47-4.41,8.7c-0.28,1.24,0.23,2.7,0.57,4.01c0.2,0.76,1.03,0.74,1.58,0.32
		c0.49-0.37,0.84-0.94,1.22-1.44c3.04-4.01,6.52-7.61,10.56-10.6c2.21-1.64,4.88-2.32,7.65-2.47c-4.22,4.57-8.53,9.06-12.62,13.74
		c-4.54,5.19-6.82,11.43-7.79,18.19c-0.13,0.92-0.27,1.99-0.79,2.69c-2.53,3.4-3.73,7.35-5.08,11.27c-0.55,1.59-1.52,3.04-2.03,4.64
		c-0.71,2.2-1.23,4.47-1.71,6.74c-0.2,0.92-0.14,1.91-0.09,2.87c0.08,1.56-0.48,2.61-1.98,3.26c-1.16,0.5-2.25,1.21-3.27,1.97
		c-2.74,2.06-5.98,2.54-9.2,3.05c-1.04,0.16-2.15-0.14-3.18,0.05C61.64,288.58,57.77,285.87,54.01,282.82z M51.96,366.28
		c-1.6,4.71-2.17,9.51-1.95,14.44c0.02,0.42-0.08,0.84-0.13,1.26c-0.28-0.42-0.72-0.8-0.81-1.26c-0.41-2.07-0.72-4.15-0.93-5.46
		c0.48-6.23,0.92-11.62,2.19-16.91c1.63-6.83,3.87-13.46,6.66-19.89c0.42-0.97,0.87-1.94,1.43-2.83c2.34-3.8,4.64-7.63,7.14-11.31
		c0.93-1.37,2.35-2.4,3.58-3.55c2.09-1.96,4.21-3.9,6.3-5.85c0.31-0.29,0.5-0.72,0.83-0.96c0.67-0.47,1.41-0.85,2.12-1.27
		c0.12,0.8,0.29,1.59,0.36,2.4c0.27,2.99-0.96,5.63-2.1,8.23c-2.57,5.86-5.9,11.29-9.42,16.63c-1.58,2.39-2.93,4.94-4.47,7.35
		c-1.08,1.7-2.23,3.37-3.51,4.93C55.84,356.4,53.69,361.21,51.96,366.28z M51.32,468.05c0.46-0.58,1.02-1.09,1.56-1.6
		c1.83-1.71,2.99-3.78,3.84-6.15c2.54-7.12,4.25-14.44,5.54-21.86c0.71-4.06,0.94-8.21,1.38-12.32c0.18-1.69,0.53-3.39,0.44-5.07
		c-0.28-5.18-0.6-10.38-1.19-15.53c-0.37-3.21-1.73-6.15-4.11-8.45c-2.21-2.13-3.06-4.59-2.97-7.71c0.13-4.71,0.81-9.29,2.04-13.81
		c0.39-1.43,1-2.76,2.47-3.44c0.02,0.61,0.08,1.22,0.05,1.83c-0.34,7.44,1.22,14.57,3.79,21.47c1.17,3.16,2.75,6.18,4.18,9.25
		c0.59,1.26,1.2,2.43,0.9,3.94c-0.15,0.77,0.22,1.65,0.39,2.47c0.51,2.59,1.22,5.17,1.52,7.79c0.4,3.47,0.45,6.98,0.72,10.47
		c0.68,8.96-2.37,16.87-6.63,24.51c-1.95,3.5-4.45,6.46-7.24,9.24c-1.96,1.95-3.91,3.93-5.93,5.82c-0.64,0.59-1.5,0.95-2.26,1.41
		C50.31,469.57,50.76,468.77,51.32,468.05z M44.04,489.15c-1.5,0.51-2.86,1.5-4.38,1.88c-2.42,0.61-4.92,0.9-7.39,1.32
		c2.71-2.64,5.75-4.83,9.26-6.28c2.92-1.21,5.88-2.19,9.03-2.78c2.77-0.52,5.45-1.69,8.06-2.81c4.8-2.06,9.87-3.14,14.87-4.49
		c0.1-0.03,0.2-0.07,0.31-0.07c3.69-0.27,7.38-0.66,11.07-0.77c4.14-0.13,8.3,0.11,12.44-0.02c4.02-0.12,7.97-0.62,11.67-2.52
		c2.62-1.34,5.59-1.89,8.12-3.56c1.06-0.7,2.65-0.58,3.99-0.91c3.07-0.77,6.12-1.6,9.2-2.36c1.4-0.35,2.83-0.58,4.25-0.86
		c-0.18,0.46-0.27,1.04-0.6,1.32c-3.26,2.69-6.13,5.94-10.46,7.09c-0.81,0.21-1.62,0.61-2.29,1.1c-4.36,3.15-9.58,3.88-14.6,5.09
		c-4.73,1.14-9.52,2.01-14.29,2.96c-0.93,0.19-1.9,0.24-2.85,0.25c-3.2,0.04-6.39,0.1-9.59,0.05
		C67.51,482.58,55.65,485.18,44.04,489.15z M55.29,499.08c-1.86-0.41-3.73-0.79-5.59-1.21c-0.18-0.04-0.31-0.27-0.46-0.41
		c0.16-0.17,0.29-0.43,0.49-0.49c5.47-1.74,11.07-2.98,16.73-3.71c3.67-0.47,7.45-0.09,11.18-0.09c0-0.07,0-0.13,0-0.2
		c2.66,0,5.33,0.1,7.99-0.02c4.01-0.19,8-0.36,11.94-1.49c3.65-1.04,7.46-1.47,11.21-2.15c0.18-0.03,0.39,0.11,0.59,0.17
		c-0.1,0.18-0.17,0.39-0.31,0.53c-2.54,2.38-4.62,5.36-8.29,6.27c-0.59,0.15-1.09,0.65-1.64,0.96c-2.48,1.38-4.79,3.19-7.87,3.11
		c-0.51-0.01-1.09,0.17-1.52,0.44c-2.92,1.78-6.28,1.78-9.48,2.42c-3.43,0.69-6.78-0.31-10.1-0.91
		C65.17,501.4,60.24,500.16,55.29,499.08z M148.23,509.25c-0.94,2.25-8.43,10.72-10.58,11.71c-1.82,0.84-3.72,1.63-5.67,2.01
		c-2.77,0.53-4.84,2.45-7.42,3.29c-3.33,1.08-6.78,0.82-10.13,0.44c-4.4-0.49-8.75-1.54-13.11-2.39c-0.93-0.18-1.91-0.37-2.74-0.79
		c-2.73-1.36-5.56-1.81-8.61-1.87c-4.84-0.09-9.19-2.2-13.57-4.02c-0.78-0.33-1.53-0.84-2.34-0.96c-2.1-0.31-3.77-1.36-5.3-2.74
		c-0.24-0.21-0.47-0.44-0.72-0.63c-0.66-0.51-1.33-1.01-2-1.52c0.95,0.07,1.9,0.09,2.84,0.22c1.88,0.28,3.81,0.45,5.62,0.99
		c2.91,0.87,5.68,0.01,8.5-0.27c1.58-0.16,3.19-0.47,4.74-0.29c5.49,0.63,10.97,1.17,16.51,1.17c1.47,0,2.95,0.25,4.4,0.51
		c6.47,1.19,12.89,0.85,19.27-0.59c1.23-0.28,2.38-0.89,3.56-1.36c1.28-0.51,2.52-1.14,3.83-1.52c2.38-0.68,4.56-1.68,6.54-3.17
		c0.83-0.63,1.83-1.31,2.81-1.42c2.55-0.3,4.28-1.72,5.83-3.55c0.18-0.21,0.46-0.33,0.71-0.47
		C150.21,504.44,149.23,506.85,148.23,509.25z M202.16,518.96c-0.1,0.1-0.36,0.04-0.54,0.06c0-0.18-0.04-0.38,0.01-0.55
		c1.07-3.66,2.14-7.33,3.23-10.99c1.37-4.58,2.11-9.29,2.81-14.01c0.92-6.16,0.71-12.35,0.44-18.49c-0.22-4.95-1.47-9.83-3.16-14.55
		c-2.22-6.2-5.62-11.61-10.18-16.38c-3.84-4.02-6.97-8.57-8.91-13.85c-0.11-0.29-0.26-0.55-0.4-0.83c-0.13,0.36-0.37,0.72-0.37,1.08
		c0.03,3.33,0.57,6.57,2.07,9.56c1.07,2.13,1.56,4.36,1.83,6.7c0.35,2.95,1.01,5.84,2.63,8.42c2.96,4.73,4.73,9.85,5.86,15.35
		c1.49,7.21,1.1,14.35,0.54,21.56c-0.13,1.69,0.05,3.41-0.05,5.11c-0.16,2.53-0.35,5.07-0.71,7.58c-0.15,1.01-0.56,2.14-1.22,2.89
		c-1.9,2.16-2.66,4.79-3.37,7.44c-0.81,3.02-2.25,5.8-3.99,8.29c-1.79,2.56-3.94,5.07-7.7,4.84c-1.58-0.1-2.93,0.67-3.87,1.9
		c-0.82,1.08-1.81,1.32-3.05,1.27c-1.92-0.07-3.84-0.02-5.76-0.05c-0.3-0.01-0.6-0.18-0.89-0.28c0.13-0.37,0.15-0.83,0.4-1.08
		c2.6-2.67,5.2-5.35,7.87-7.95c5.47-5.33,9.14-11.61,10.92-19.09c1.13-4.73,3.07-9.28,4-14.04c0.6-3.04,0.42-6.39-0.16-9.47
		c-0.48-2.56-1.49-5.01-1.64-7.7c-0.2-3.65-1.72-6.97-3.04-10.33c-1.16-2.95-2.5-5.89-3.2-8.96c-1.01-4.47-3.31-8.2-5.72-11.94
		c-1.02-1.59-2.02-3.21-2.32-5.16c-0.06-0.42-0.57-0.78-0.87-1.16l-0.03,0.03c0.18,1.03,0.41,2.06,0.52,3.1
		c0.48,4.32,0.89,8.66,1.39,12.98c0.47,4,0.92,8.01,1.55,11.98c1.47,9.24,2.88,18.52,2.13,27.89c-0.39,4.84-1.66,9.55-4.57,13.74
		c-3.88,5.57-8.53,10.31-14.02,14.26c-2.07,1.49-4.02,3.13-6.05,4.66c-0.49,0.37-1.08,0.63-1.66,0.89c-0.16,0.07-0.4-0.05-0.61-0.08
		c0.07-0.24,0.08-0.53,0.23-0.7c0.28-0.31,0.63-0.58,0.98-0.81c2.59-1.66,4.29-4.07,5.78-6.7c1.78-3.15,3.61-6.27,5.52-9.33
		c1.51-2.41,2.32-4.98,2.47-7.79c0.04-0.84,0.03-1.75,0.33-2.51c2.15-5.5,2.69-11.31,3.55-17.08c0.88-5.87,0.64-11.61-0.58-17.4
		c-0.48-2.27-0.4-4.65-0.68-6.97c-0.64-5.37-1.35-10.73-2.04-16.09c-0.05-0.41-0.25-0.81-0.43-1.19c-0.13-0.28-0.33-0.53-0.5-0.8
		c-0.24,0.2-0.58,0.35-0.71,0.6c-0.38,0.76-0.74,1.54-0.99,2.34c-1.04,3.45-1.98,6.93-3.07,10.36c-0.87,2.72-1.9,5.38-2.88,8.07
		c-0.8,2.19-1.54,4.39-2.44,6.54c-2.12,5.08-3.81,10.31-6.72,15.09c-2.78,4.59-6.52,8.4-9.49,12.78c-2.37,3.49-5.6,5.75-9.15,7.71
		c-0.99,0.54-2.23,0.61-3.31,1.02c-4.09,1.57-8.38,1.14-12.61,1.33c-1.48,0.07-2.95,0.3-4.42,0.44c-0.18,0.02-0.37-0.12-0.55-0.18
		c0.1-0.18,0.17-0.4,0.31-0.55c0.59-0.61,1.19-1.22,1.81-1.8c3.97-3.73,7.57-7.79,10.74-12.22c2.02-2.82,4.67-4.9,7.59-6.72
		c6.12-3.82,11.33-8.43,14.92-14.92c4.12-7.45,6.29-15.51,8.29-23.63c0.56-2.26,1.16-4.41,1.98-6.59c1.29-3.45,2.07-7.13,2.68-10.78
		c1.07-6.44,0.63-12.97,0.46-19.45c-0.13-4.86-0.96-9.71-1.46-14.56c-0.09-0.85-0.13-1.7-0.14-2.55c-0.03-4.37-0.05-8.74-0.06-13.12
		c0-0.74-0.03-1.51,0.11-2.23c0.14-0.72,0.47-1.4,0.71-2.1c0.27,0.65,0.53,1.3,0.8,1.95c0.87,2.16,1.74,4.32,2.61,6.48
		c0.2,0.49,0.53,0.97,0.59,1.48c0.85,6.98,4.24,13.31,5.15,20.29c0.22,1.66,0.93,3.26,1.36,4.9c0.48,1.84,0.88,3.69,1.33,5.54
		c0.2,0.82,0.29,1.73,0.7,2.43c0.68,1.15,1.59,2.17,2.41,3.25c1.4-1,0.82-2.49,0.84-3.77c0.06-4.48-0.07-8.96,0-13.44
		c0.03-2.22,0.38-4.43,0.52-6.65c0.07-1.06,0.07-2.13-0.01-3.19c-0.16-2.22-0.42-4.43-0.59-6.65c-0.2-2.65-0.53-5.3-0.5-7.94
		c0.05-4.14,0.36-8.28,0.59-12.41c0.03-0.51,0.08-1.3,0.39-1.48c1.77-1.01,1.49-2.91,2.1-4.42c1.92-4.79,4.04-9.46,8.23-12.79
		c-0.44,1.24-0.83,2.51-1.36,3.72c-2.23,5.08-3.69,10.43-4.73,15.83c-1.17,6.06-1.6,12.24,0.77,18.24c0.46,1.17,0.64,2.46,0.95,3.7
		c0.65,2.58,1.48,5.06,2.95,7.34c1.09,1.69,1.9,3.56,2.76,5.38c1.99,4.27,4.89,7.7,8.98,10.09c0.34,0.2,0.71,0.35,1.07,0.53
		c-0.01-0.49,0.12-1.02-0.04-1.46c-1.17-3.3-2.44-6.57-3.58-9.88c-1.21-3.5-2.88-6.86-3.45-10.56c-0.13-0.84-0.25-1.68-0.26-2.53
		c-0.06-5.97,0-11.95-0.17-17.92c-0.11-3.73,1.14-7.15,2.19-10.56c2.16-7.01,4.88-13.86,8.98-20.01c1.52-2.27,3.59-4.18,5.46-6.2
		c0.2-0.22,0.73-0.13,1.11-0.18c-0.02,0.29,0.02,0.6-0.08,0.86c-1.87,4.86-3.89,9.66-5.61,14.57c-1.86,5.31-3.16,10.79-3.75,16.39
		c-0.34,3.27-0.47,6.57-0.67,9.85c-0.31,5.07,0.67,9.92,2.39,14.68c0.72,1.98,1.15,4.08,1.66,6.13c0.72,2.89,1.71,5.64,3.31,8.22
		c2.35,3.79,4.15,7.95,6.73,11.56c1.83,2.55,3.36,5.15,4.44,8.04c0.33,0.89,0.53,1.83,0.79,2.75c0.19,0.68,1.76,2.93,2.56,5.01
		c1.15,2.99,1.63,5.98,1.89,6.56c2.16,4.73,4.37,9.44,6.42,14.21c1.37,3.18,2.53,6.45,2.52,10c-1.65-2.64-3.56-5.15-4.87-7.94
		c-2.42-5.15-5.8-9.61-9.22-14.07c-0.71-0.93-1.6-1.8-2.01-2.85c-0.89-2.28-2.69-3.36-4.69-4.44c-1.65-0.89-3.26-2.02-4.59-3.34
		c-4.68-4.63-9.59-8.99-14.73-13.11c-2.2-1.77-3.87-4.2-5.77-6.33c-0.47-0.53-0.94-1.07-1.41-1.61l-0.07,0.06
		c0.81,2.28,1.55,4.6,2.47,6.84c0.88,2.16,1.8,4.33,2.96,6.35c1.26,2.2,2.7,4.32,4.28,6.3c2.85,3.57,5.86,7.02,8.8,10.51
		c0.55,0.65,1.03,1.37,1.64,1.94c2.45,2.29,4.19,5.04,5.68,8.02c1.56,3.13,3.86,5.87,4.89,9.29c0.46,1.52,1.03,3.01,1.41,4.55
		c1.39,5.66,2.9,11.29,3.54,17.1c0.22,2.01,0.15,4.05,0.19,6.07c0.03,1.6-0.11,3.21,0.05,4.79c0.53,5.21-0.9,10.13-2.2,15.05
		c-0.34,1.28-1.19,2.48-1.99,3.58c-1.8,2.5-3.6,5.01-5.62,7.33C206.21,515.18,204.13,517.03,202.16,518.96z M216.89,525.92
		c-0.83,1.22-2,1.72-3.6,1.37c-1.44-0.31-2.96-0.2-4.43-0.38c-0.43-0.05-0.82-0.46-1.23-0.7c0.29-0.36,0.53-1,0.87-1.05
		c3.66-0.56,5.5-3.36,7.5-5.97c1.74-2.28,3.43-4.6,5.25-6.82c2.2-2.68,3.84-5.59,4.34-9.07c0.13-0.94,0.38-1.88,0.68-2.78
		c1.34-3.96,2.15-7.99,1.75-11.46c0-2.44-0.01-4.15,0.01-5.85c0-0.2,0.11-0.4,0.17-0.6c0.15,0.19,0.32,0.36,0.44,0.56
		c2.99,5.28,2.82,11.06,2.39,16.79c-0.33,4.33-0.94,8.68-2.9,12.64c-1.31,2.65-2.74,5.28-4.38,7.74c-0.73,1.09-2.04,1.85-3.21,2.56
		C219.16,523.74,217.83,524.53,216.89,525.92z M269.17,483.13c-0.59,4.93-1.32,9.85-2.15,14.75c-0.58,3.45-1.4,6.85-2.91,10.05
		c-0.58,1.24-0.97,2.58-1.32,3.91c-1.18,4.48-3.86,8.1-6.67,11.63c-0.58,0.72-1.43,1.25-2.23,1.76c-1.16,0.74-2.4,1.37-3.59,2.07
		c-4.34,2.53-9.19,3.85-13.94,5.12c-4.14,1.11-8.61,1.02-12.93,1.45c-0.32,0.03-0.64,0.02-0.96-0.02c-0.17-0.02-0.33-0.14-0.49-0.21
		c0.12-0.17,0.21-0.38,0.37-0.5c1.77-1.35,3.52-2.73,5.34-4.01c1.11-0.78,2.3-1.28,3.74-1.57c3.77-0.75,7.29-2.38,10.16-4.97
		c2.59-2.35,4.87-5.04,7.27-7.6c0.58-0.62,1.06-1.34,1.68-1.92c4.4-4.12,7.06-9.17,8.32-15.04c0.49-2.27,1.46-4.45,1.86-6.73
		c0.59-3.33,0.96-6.71,1.25-10.09c0.4-4.76,0.65-9.53,0.96-14.29c-0.09-0.01-0.34-3.22-0.27-4.81c0.16-3.85-0.37-7.62-1.02-11.4
		c-0.05-0.29,0.02-0.6,0.04-0.9c0.22,0.2,0.55,0.35,0.66,0.6c1.58,3.59,3.18,7.18,4.67,10.8
		C269.91,468.29,270.06,475.68,269.17,483.13z M269.16,432.32c-0.5-2.81-0.37-5.73-0.74-8.57c-1.13-8.66-0.94-17.38-1.39-26.07
		c-0.52-9.99-3.33-19.45-8.27-28.17c-1.35-2.38-3.35-4.38-5.08-6.54c-0.26-0.32-0.68-0.51-1.03-0.74c-0.58-0.39-1.14-0.5-1.7,0.09
		c-0.59,0.62-0.31,1.16,0.08,1.7c0.44,0.6,0.84,1.25,1.35,1.78c2.52,2.59,3.22,5.9,3.75,9.29c0.56,3.56,1.16,7.11,1.7,10.68
		c0.16,1.05,0.22,2.12,0.22,3.18c0,8-0.08,16,0,23.99c0.03,3.39,0.39,6.78,0.58,10.17c0.06,1.06,0.06,2.13,0.05,3.2
		c0,0.06-0.43,0.21-0.49,0.15c-0.22-0.22-0.37-0.52-0.55-0.78c-3.27-4.58-6.32-9.19-7.44-14.93c-0.74-3.81-2.49-7.42-3.63-11.16
		c-1.24-4.08-1.54-8.33-1.87-12.56c-0.09-1.15-0.37-2.29-0.59-3.43c-0.03-0.17-0.26-0.3-0.4-0.45c-0.12,0.17-0.29,0.32-0.36,0.51
		c-0.42,1.2-0.88,2.39-1.21,3.62c-0.49,1.84-0.87,3.71-1.31,5.57c-1.13,4.73-0.93,9.44-0.26,14.23c0.35,2.49,1.39,4.65,2.11,6.96
		c1.42,4.54,2.59,9.16,3.86,13.75c0.08,0.31,0.17,0.62,0.2,0.93c0.04,0.59,0.04,1.19,0.06,1.79c-0.86-0.47-2.17-0.74-2.51-1.45
		c-1.3-2.77-2.23-5.7-3.4-8.53c-0.89-2.15-1.91-4.24-2.9-6.35c-0.36-0.77-0.9-1.46-1.21-2.24c-3.3-8.28-7.04-16.39-9.69-24.92
		c-0.53-1.69-1.63-3.19-2.27-4.85c-1.28-3.38-2.48-6.8-2.41-10.49c0.15-7.45,0.35-14.9,0.51-22.35c0.02-0.83-0.14-1.66-0.22-2.49
		c-0.45,0.67-0.99,1.29-1.33,2.01c-1.6,3.38-2.63,6.92-3.09,10.65c-0.39,3.15-1.26,6.27-1.45,9.43c-0.26,4.23-0.22,8.49-0.04,12.72
		c0.29,6.71,3.28,12.68,5.59,18.82c1.68,4.47,3.23,8.99,5.01,13.43c0.82,2.04,2.05,3.93,3.11,5.87c0.51,0.93,1.07,1.83,1.56,2.77
		c2.28,4.33,4.41,8.75,6.86,12.98c1.31,2.27,2.01,4.61,2.51,7.12c0.37,1.86,0.97,3.68,1.55,5.49c1.14,3.54,2.06,7.12,2.34,10.85
		c0.28,3.7,0.88,7.39,1.03,11.09c0.13,3.17-0.23,6.36-0.28,9.55c-0.06,3.85-0.69,7.61-1.46,11.36c-0.57,2.8-1.25,5.58-1.88,8.37
		c-0.07,0.31-0.04,0.68-0.2,0.93c-2.02,3.06-3.11,6.48-3.97,10.01c-0.25,1-0.9,1.92-2.18,1.93c0.12-1.14,0.23-2.27,0.37-3.41
		c0.3-2.52,0.6-5.04,0.91-7.56c0.26-2.11,0.52-4.21,0.78-6.32c0.18-1.47,0.49-2.94,0.54-4.41c0.25-7.23,0.8-14.47,0.53-21.68
		c-0.21-5.78-0.36-11.66-2.47-17.24c-1.15-3.07-2.01-6.26-2.76-9.46c-1.69-7.12-4.84-13.52-8.64-19.74
		c-5.61-9.17-10.57-18.68-13.84-29c-1.18-3.74-2.44-7.45-3.71-11.15c-2.04-5.97-1.98-12.06-1.39-18.25
		c0.42-4.35,1.12-8.63,2.15-12.85c1.11-4.5,3.8-7.98,7.51-10.67c3.61-2.62,7.33-5.1,10.95-7.71c1.74-1.26,3.57-2.2,5.6-2.93
		c2.28-0.82,4.42-2.01,6.58-3.13c2.17-1.13,4.2-2.54,6.43-3.51c2.97-1.29,5.06-3.47,6.98-5.92c0.33-0.42,0.56-0.91,0.88-1.33
		c0.91-1.2,1.85-2.38,2.78-3.57c-0.52,1.48-0.95,3-1.59,4.43c-0.74,1.65-1.55,3.28-2.52,4.8c-2.93,4.56-5.83,9.09-9.94,12.79
		c-2.35,2.11-4.21,4.79-6.14,7.32c-0.82,1.08-1.48,2.37-1.88,3.67c-1.48,4.87-2.52,9.86-3.14,14.9c-0.33,2.7,0.1,5.49,0.28,8.24
		c0.24,3.82,0.57,7.63,0.85,11.45c0.06,0.74-0.04,1.53,0.16,2.22c0.16,0.54,0.62,1.31,1.04,1.37c0.84,0.12,0.8-0.74,0.88-1.36
		c0.47-3.91,0.82-7.79,0.08-11.73c-0.33-1.75-0.17-3.62-0.05-5.42c0.05-0.8,0.41-1.65,0.85-2.35c2.75-4.42,5.38-8.93,8.39-13.17
		c2.95-4.15,6.13-8.18,9.56-11.93c3.9-4.25,7.36-8.8,10.77-13.43c2.95-4,4.01-8.59,4.85-13.3c0.36-1.97,0.42-4,0.8-5.97
		c0.22-1.12,0.77-2.19,1.23-3.26c0.09-0.21,0.5-0.27,0.76-0.41c0.09,0.29,0.31,0.6,0.26,0.87c-1.11,6.37-0.49,12.68,0.45,19
		c0.3,1.99,0.31,4.04,0.27,6.06c-0.07,3.55,1.01,6.91,1.6,10.35c0.11,0.62,0.31,1.27,0.66,1.78c1.54,2.24,2.18,4.81,2.91,7.37
		c0.23,0.81,0.8,1.53,1.23,2.29c-0.2-4.2-0.52-8.4-0.54-12.61c-0.01-3.71,0.28-7.43,0.54-11.14c0.08-1.15,0.35-2.32,0.74-3.4
		c1.59-4.38,2.26-9.1,4.77-13.13c2.08-3.34,4.19-6.65,6.38-9.92c0.54-0.8,1.41-1.38,2.15-2.05c-0.77,2.15-1.5,4.3-2.32,6.43
		c-1.34,3.5-2.16,7.12-2.19,10.87c-0.04,5.33-0.05,10.67,0.07,16c0.04,1.9,0.19,3.88,0.78,5.66c1.99,5.98,4.8,11.51,8.85,16.46
		c2.91,3.56,6.75,5.82,10.22,8.58c2.38,1.9,4.4,4,5.79,6.69c2.53,4.9,5.42,9.68,6.48,15.18c0.4,2.06,0.58,4.25,0.36,6.33
		c-0.76,7.38-1.48,14.78-4.08,21.83c-1.06,2.87-1.83,5.8-3.31,8.56c-1.26,2.36-1.68,5.23-2.19,7.93c-0.57,3.01-0.96,6.07-1.19,9.13
		c-0.51,6.89,0.83,13.54,2.85,20.08c0.62,2.02,1.08,4.1,1.59,6.15c0.05,0.18-0.07,0.41-0.11,0.62c-0.24-0.08-0.57-0.09-0.72-0.26
		c-2.77-3.04-4.73-6.61-6-10.45c-1.5-4.52-2.58-9.18-3.78-13.79c-0.21-0.81-0.15-1.7-0.15-2.55c-0.02-2.67,0.11-5.34-0.03-8
		c-0.29-5.57,0.46-11.05,1.53-16.47c0.89-4.52,1.3-9.04,1.21-13.63c-0.07-3.31-0.08-6.61-0.15-9.92
		c-0.2-10.71-4.4-19.77-11.54-27.58c-0.92-1.01-2.03-1.85-3.09-2.72c-0.21-0.18-0.71-0.34-0.83-0.24c-0.28,0.25-0.64,0.74-0.56,1
		c0.33,0.98,0.61,2.11,1.29,2.82c2.63,2.74,3.6,6.13,4.46,9.7c2.27,9.39,1.17,18.82,0.78,28.26c-0.24,5.66-1.75,11.1-2.49,16.67
		c-0.36,2.73-0.59,5.49-0.77,8.24c-0.12,1.81,0.06,3.63-0.04,5.44c-0.54,8.88,1.59,17.31,4.55,25.54c0.88,2.46,2.55,4.64,3.9,6.92
		c0.54,0.91,1.21,1.75,1.81,2.63c0.09,0.13,0.08,0.32,0.12,0.48c-0.19-0.02-0.44,0.02-0.56-0.08c-0.89-0.76-1.75-1.56-2.62-2.34
		c-1.58-1.42-3.13-2.88-4.75-4.25c-3.73-3.14-7.09-6.49-7.69-11.69c-0.05-0.41-0.24-0.82-0.41-1.2c-2.31-5.01-2.31-10.34-2.02-15.67
		c0.12-2.2,0.65-4.4,1.21-6.55c1.03-3.94,1.54-7.88,1.45-11.97c-0.12-5.11-0.44-10.18-1.24-15.23c-0.53-3.35-1.12-6.71-1.3-10.08
		c-0.28-5.12-1.53-9.85-4.53-14.05c-1.42-1.99-2.9-3.94-4.27-5.96c-0.65-0.95-1.21-1.99-1.63-3.06c-1.53-3.94-3.73-7.12-8.05-8.45
		c-1.25-0.39-2.27-1.5-3.4-2.28c-1.26-0.87-2.53-1.75-3.79-2.62c1.09,2.46,2.17,4.93,3.27,7.39c0.13,0.28,0.35,0.54,0.56,0.77
		c4.97,5.45,7.32,12.07,8.24,19.22c0.58,4.51,1.09,9.07,1.06,13.6c-0.03,6.14-0.77,12.28-0.92,18.43c-0.21,8.3-0.26,16.6-0.13,24.9
		c0.04,2.28,0.81,4.59,1.51,6.8c1.18,3.74,2.37,7.49,3.92,11.08c1.04,2.4,2.69,4.54,4.12,6.76c1.41,2.21,2.88,4.39,4.33,6.58
		c-3.18-2.67-6.39-5.31-9.52-8.03c-0.69-0.6-1.24-1.47-1.61-2.33C272.45,447.68,270.55,440.06,269.16,432.32z M317.13,501.2
		c3.15,1.98,6.08,4.25,8.82,6.81c1.44,1.35,3.34,2.2,5.07,3.22c1.92,1.13,3.88,2.18,5.81,3.3c0.17,0.1,0.2,0.44,0.3,0.67
		c-0.2,0.02-0.43,0.1-0.61,0.04c-3.59-1.27-7.31-1.16-11.04-1.13c-6.38,0.04-12.35-1.73-18.17-4.18c-0.49-0.21-0.94-0.51-1.43-0.71
		c-4.72-1.92-8.84-4.57-11.54-9.09c-0.59-0.99-1.5-1.79-2.3-2.63c-1.26-1.33-2.12-2.81-2.61-4.64c-0.58-2.14-1.52-4.19-2.44-6.21
		c-1.16-2.55-1.81-5.2-1.96-7.98c-0.05-1.55,0.06-1.63,1.56-0.84c3.2,1.68,6.35,3.47,9.98,4.08c1.88,0.32,3.75,0.83,5.64,0.9
		c2.13,0.09,3.13,1.13,4.06,2.93c1.96,3.76,4.2,7.39,6.37,11.04C313.75,498.61,315.29,500.04,317.13,501.2z M350.39,528.15
		c-1.81,0.03-3.64-0.11-5.43,0.09c-2.62,0.28-5.4,0.35-7.79,1.3c-4.09,1.62-8.21,2.05-13.6,1.74c-1.88,0.15-4.84,0.38-7.8,0.64
		c-4.23,0.37-8.24-0.51-12.11-2.14c-2.55-1.08-5.16-1.93-7.91-2.28c-0.52-0.07-1.05-0.22-1.51-0.47c-3.93-2.12-7.85-4.26-10.62-7.95
		c-0.57-0.76-1.24-1.48-1.96-2.1c-2.82-2.44-4.7-5.48-5.72-9.04c-0.28-0.98-0.46-2.13-0.22-3.08c1.1-4.22,1.9-8.48,2.33-12.81
		c0.02-0.2,0.28-0.37,0.42-0.56c0.15,0.15,0.37,0.27,0.44,0.44c0.53,1.5,1.07,3,1.55,4.51c0.83,2.67,2.11,5.07,3.97,7.17
		c1.55,1.75,3.17,3.46,4.51,5.37c1.63,2.33,3.68,4.08,6.09,5.5c7.49,4.4,15.4,7.63,24.07,8.73c1.89,0.24,3.79,0.51,5.69,0.56
		c3.61,0.08,7.15,0.15,10.73,1.09c3.04,0.79,6.32,0.73,9.5,0.82c2.14,0.06,3.91,0.89,5.67,1.9c0.18,0.1,0.33,0.24,0.5,0.37
		C350.92,528.01,350.66,528.15,350.39,528.15z M397.97,525.46c-1.95-2.13-4.4-3.13-7.19-3.81c-2.01-0.49-4.02-1.51-5.68-2.75
		c-4.89-3.63-10.18-6.13-16.26-6.82c-3.58-1.75-7.52-1.22-11.29-1.62c-3.33-0.35-6.43-1.24-9.56-2.24
		c-3.33-1.07-6.62-2.18-9.43-4.39c-0.65-0.51-1.49-0.87-2.29-1.1c-2.23-0.64-3.9-2.08-5.63-3.51c-2.37-1.96-4.78-3.91-7.36-5.57
		c-1.76-1.13-3.25-2.37-4.32-4.15c-0.33-0.55-0.72-1.06-1.06-1.59c-0.61-0.96-1.2-1.93-1.8-2.89c1.59-0.54,3.17-1.09,4.76-1.63
		c0.02,0.15,3,0.57,4.46,0.77c0.68,0.09,1.39,0.43,1.97,0.82c3.35,2.26,6.64,4.6,10,6.84c0.86,0.57,1.88,0.95,2.86,1.3
		c1.1,0.39,2.37,0.43,3.34,1c4.07,2.43,8.52,3.78,13.1,4.75c4.45,0.94,8.85,2.07,13.4,2.6c2.97,0.35,5.99,1.53,8.65,2.97
		c6.75,3.64,12.17,8.79,16.12,15.44c1.08,1.82,2.48,3.45,3.71,5.19c0.15,0.21,0.14,0.54,0.21,0.81
		C398.43,525.75,398.15,525.65,397.97,525.46z M413.04,527.73c-2.56-2.99-5.16-5.94-7.6-9.02c-1.44-1.83-2.52-3.95-3.92-5.81
		c-2.36-3.14-4.46-6.64-7.38-9.17c-3.82-3.32-8.18-6.11-12.6-8.63c-2.61-1.49-5.78-2.01-8.7-2.97c-0.4-0.13-0.81-0.36-1.21-0.36
		c-6.26,0.13-12.04-2.3-18.08-3.36c-1.01-0.18-1.95-0.81-2.9-1.28c-2.18-1.08-4.38-2.02-6.76-2.7c-2.25-0.65-4.33-2.26-6.18-3.81
		c-2.61-2.18-4.87-4.75-6.1-8.04c-0.22-0.58-0.61-1.14-1.06-1.57c-2.68-2.6-4.06-5.92-5.27-9.34c-2.15-6.12-3.87-12.37-4.74-18.79
		c-0.38-2.8-0.14-5.73,0.22-8.56c0.48-3.78,1.21-7.54,2.1-11.24c0.69-2.88,1.94-5.62,2.66-8.5c0.59-2.35,0.86-4.79,1.13-7.21
		c0.28-2.42,0.42-4.86,0.58-7.3c0.2-3.01-0.45-5.9-1.27-8.77c-0.32-1.1-0.67-2.35-0.44-3.4c0.51-2.3-0.06-4.39-0.63-6.53
		c-0.38-1.44-0.65-2.9-0.99-4.34c-1.72-7.12-4.96-13.53-9.03-19.58c-0.92-1.37-1.36-3.06-2.05-4.58c-1.32-2.9-2.74-5.76-4-8.69
		c-1.44-3.35-2.24-6.86-2.09-10.55c0.23-5.64,0.06-11.32,0.76-16.9c0.92-7.42,3.86-14.11,9.21-19.55c0.37-0.38,0.92-0.58,1.39-0.87
		c-0.07,0.51-0.06,1.05-0.22,1.53c-0.96,2.8-2.08,5.55-2.91,8.39c-0.62,2.12-0.87,4.34-1.32,6.51c-0.44,2.16-1.07,4.3-1.36,6.48
		c-1.04,7.88-0.64,15.49,2.45,23.08c2.4,5.87,6.65,9.99,10.68,14.46c2.34,2.6,4.6,5.28,6.7,8.08c1.46,1.94,2.33,4.22,2.8,6.66
		c0.5,2.59,1.35,5.12,1.86,7.72c0.99,4.99,1.35,10.04,1.28,15.13c-0.05,4.05-0.04,8.1-0.03,12.15c0,0.4,0.2,0.8,0.3,1.2
		c0.19-0.32,0.4-0.63,0.55-0.96c4.33-9.32,5.59-19.2,5.7-29.36c0.08-6.71-1.31-12.92-4.23-18.98c-2.08-4.33-4.73-8.24-7.3-12.23
		c-3.05-4.74-5.78-9.62-6.57-15.32c-0.16-1.15-0.42-2.3-0.44-3.45c-0.06-3.63,0.03-7.25-0.05-10.88c-0.03-1.44,0.31-2.7,0.97-3.96
		c1.94-3.7,4.5-6.96,7.1-10.2c0.13-0.16,0.34-0.25,0.51-0.37c0.07,0.3,0.21,0.6,0.2,0.89c-0.16,2.96-0.36,5.91-0.54,8.87
		c-0.03,0.53,0.03,1.06-0.01,1.59c-0.42,6.61,1.21,12.82,3.64,18.88c0.63,1.57,1.07,3.22,1.77,4.77c2.12,4.71,5.78,8.36,8.7,12.51
		c4.19,5.95,7.41,12.27,8.34,19.69c0.81,6.48,0.44,12.96,0.6,19.43c0.02,0.96-0.06,1.92-0.04,2.87c0.01,0.3,0.18,0.59,0.28,0.88
		c0.3-0.28,0.75-0.5,0.88-0.84c0.7-1.89,1.31-3.8,1.96-5.7c2.14-6.27,3.34-12.7,3.31-19.34c-0.01-1.28-0.08-2.57,0.06-3.83
		c0.51-4.55-1.17-8.52-3.04-12.49c-1.72-3.66-4.05-6.93-6.17-10.35c-3-4.85-5.57-10-7.95-15.19c-0.97-2.11-1.23-4.65-1.36-7.01
		c-0.23-4.04-0.11-8.1-0.11-12.15c0-0.29,0.16-0.57,0.25-0.86c0.18,0.26,0.38,0.5,0.53,0.77c1.33,2.43,2.63,4.87,3.97,7.29
		c1.48,2.67,2.77,5.49,4.32,8.07c2.21,3.67,5.1,7.02,8.11,10.11c4.71,4.83,8.81,10.01,11.23,16.35c0.55,1.44,0.68,3.05,0.96,4.59
		c0.11,0.63,0.03,1.29,0.18,1.9c0.18,0.7,0.53,1.36,0.81,2.04c0.11-0.67,0.3-1.33,0.31-2c0.05-1.71-0.08-3.42,0.03-5.12
		c0.3-4.33-0.84-8.5-2.09-12.47c-1.58-5.01-3.79-9.9-7.63-13.81c-1.24-1.26-2.12-2.87-3.12-4.35c-2.55-3.75-3.02-8.07-3.37-12.42
		c-0.01-0.18,0.06-0.37,0.1-0.56c0.19,0.04,0.42,0.04,0.57,0.14c0.26,0.17,0.51,0.39,0.72,0.63c3.17,3.55,7.37,5.74,11.1,8.55
		c1.86,1.4,3.77,2.76,5.5,4.3c2.61,2.32,3.93,5.51,5.12,8.67c1.34,3.56,2.26,7.26,2.7,11.06c0.03,0.28,0.4,0.52,0.61,0.77
		c0.15-0.25,0.43-0.5,0.45-0.76c0.16-3.38,0.29-6.77,0.42-10.15c-0.03,0-0.06,0-0.1,0c0-1.17-0.11-2.36,0.02-3.51
		c0.45-4.03-0.91-7.74-2.03-11.48c-0.26-0.88-1.01-1.6-1.44-2.44c-0.97-1.88-1.9-3.78-2.78-5.7c-0.07-0.16,0.39-0.81,0.54-0.79
		c0.91,0.14,1.93,0.19,2.69,0.65c2.53,1.55,4.22,3.8,5.22,6.63c0.81,2.3,1.79,4.54,2.69,6.81c0.04,0.1,0.03,0.23,0.09,0.31
		c2.7,3.64,3.79,7.95,5.26,12.15c0.85,2.44,2.45,4.75,5.31,5.52c1.88,0.5,3.03,1.78,4.11,3.31c3.45,4.88,6.31,10.09,8.52,15.62
		c0.8,2,0.89,4.35,0.99,6.55c0.16,3.62,0.14,7.25,0.05,10.87c-0.06,2.43-0.48,4.85-0.55,7.29c-0.26,8.6-0.18,17.19,0.03,25.79
		c0.08,3.29,0.33,6.57,0.57,9.85c0.06,0.83,0.31,1.67,0.6,2.46c1.37,3.79,2.48,7.71,4.24,11.32c2.42,4.99,5.59,9.54,9.97,13.11
		c0.66,0.54,1.33,1.07,1.95,1.65c0.37,0.35,0.66,0.78,0.99,1.17c-0.49-0.08-0.99-0.14-1.47-0.24c-3.66-0.71-6.43-2.98-8.6-5.73
		c-4.4-5.58-8.94-11.13-11.39-17.97c-1.79-5.01-3.24-10.03-3.18-15.5c0.07-6.83,0.99-13.57,1.33-20.36
		c0.18-3.47-0.04-6.95-0.01-10.43c0.04-5.13-0.56-10.23-2.05-15.1c-1.62-5.33-4.25-10.21-9.09-13.48c-0.25-0.17-0.55-0.28-0.82-0.41
		c0.03,0.37-0.06,0.8,0.09,1.12c1.04,2.16,1.29,4.45,1.45,6.8c0.42,6.12-0.41,12-2.06,17.93c-2.14,7.68-4.45,15.22-7.68,22.56
		c-2.9,6.59-5.03,13.54-5.7,20.8c-0.3,3.28-0.44,6.57-0.59,9.86c-0.11,2.35,0.06,4.65,0.87,6.92c0.49,1.37,0.4,2.94,0.78,4.36
		c0.72,2.68,1.79,5.22,3.4,7.52c2.51,3.58,5.29,6.94,8.53,9.88c1.48,1.35,3.21,2.42,4.83,3.62c1.96,1.46,3.88,2.98,5.88,4.37
		c2.09,1.46,4.2,2.88,6.39,4.17c2.38,1.39,4.83,2.67,7.32,3.86c1.7,0.82,3.47,1.61,5.29,2.03c2.86,0.66,4.97,2.01,6.55,4.57
		c1.92,3.11,3.51,6.28,4.08,9.93c0.13,0.82,0.6,1.58,0.93,2.37c2.19,5.3,4.33,10.62,6.59,15.89c1.34,3.13,3.3,5.66,6.87,6.57
		c0.96,0.25,1.79,1.02,2.68,1.55c-0.88,0.5-1.71,1.14-2.64,1.47c-1.88,0.68-3.79,1.35-5.75,1.73c-1.63,0.32-3.08-0.23-4.05-1.82
		c-0.49-0.8-1.25-1.46-1.97-2.09c-4.1-3.57-6.14-8.32-7.79-13.32c-0.23-0.69-0.56-1.37-0.93-2c-0.65-1.1-1.49-2.09-2.06-3.23
		c-2.76-5.5-7.59-8.04-13.23-9.6c-1.72-0.47-3.3-1.45-4.92-2.24c-3.15-1.53-6.2-3.32-9.46-4.58c-3.8-1.47-6.64-4.15-9.6-6.71
		c-4.5-3.9-7.66-8.82-10.34-14.05c-2.28-4.47-3.81-9.16-3.96-14.3c-0.11-3.7-0.88-7.37-1.3-11.06c-0.24-2.11-0.35-4.23-0.52-6.34
		c-0.06-0.74,0-1.52-0.22-2.2c-0.13-0.41-0.66-0.78-1.09-0.95c-0.16-0.06-0.7,0.45-0.83,0.79c-0.25,0.68-0.47,1.42-0.48,2.14
		c-0.05,5.23-1.12,10.33-1.75,15.49c-0.57,4.75-0.44,9.54,0.61,14.29c0.93,4.2,2.64,8.05,4.68,11.79c0.36,0.65,0.75,1.29,1.1,1.94
		c0.07,0.14,0.02,0.35,0.02,0.53c-0.18-0.04-0.42-0.02-0.54-0.13c-0.49-0.41-0.96-0.85-1.43-1.28c-1.17-1.09-2.22-2.36-3.53-3.25
		c-5.1-3.46-7.09-8.71-8.76-14.28c-1.81-6.07-1.79-12.29-1.1-18.38c0.7-6.17,2.18-12.3,5.11-17.97c1.85-3.58,3.15-7.46,5.08-10.99
		c2.36-4.32,3.93-8.94,5.89-13.41c1.3-2.95,1.82-6.08,2.44-9.2c0.41-2.09-0.19-4-0.9-5.88c-0.45-1.19-1.22-2.27-1.62-3.47
		c-0.71-2.14-2.86-2.28-4.35-3.32c-0.08-0.06-0.88,0.53-0.94,0.89c-0.2,1.18,0.44,2.07,1.42,2.64c0.87,0.5,0.99,1.22,1.04,2.13
		c0.24,4.48-1.63,8.25-3.89,11.89c-0.45,0.72-1.22,1.25-1.59,2c-3.24,6.58-7.63,12.55-10.19,19.49c-0.59,1.59-1.49,3.06-2.22,4.6
		c-3.22,6.69-4.7,13.91-5.57,21.14c-0.86,7.18,0.03,14.39,1.91,21.48c1.31,4.95,3.94,9.16,6.43,13.45c0.92,1.58,2.68,2.67,4.12,3.93
		c3.2,2.8,6.44,5.57,9.66,8.35c0.14,0.12,0.26,0.28,0.39,0.42c-0.2,0.05-0.41,0.15-0.61,0.14c-0.42-0.02-0.87-0.02-1.26-0.16
		c-1.9-0.64-3.65-0.88-5.79-0.51c-2.8,0.49-5.69-0.59-8.08-2.35c-4.12-3.03-8.17-6.15-11.18-10.39c-4.12-5.81-7.33-11.92-7.31-19.32
		c0.01-3.5-0.57-7.01-0.49-10.51c0.12-5.55,1.28-10.88,3.67-15.99c1.09-2.34,1.3-5.1,1.85-7.68c0.05-0.23-0.22-0.73-0.4-0.76
		c-0.49-0.08-1.28-0.18-1.47,0.08c-0.55,0.73-1.1,1.61-1.22,2.49c-0.35,2.76-1.62,4.92-3.38,7.05c-1.53,1.84-2.45,4.19-3.59,6.35
		c-0.39,0.75-0.52,1.64-0.94,2.36c-2.22,3.79-2.93,7.92-3.05,12.23c-0.04,1.59-0.3,3.17-0.47,4.75c-0.59,5.49,1.17,10.52,3.23,15.43
		c1.48,3.53,3.01,7.16,5.9,9.76c5.13,4.63,10.18,9.37,15.83,13.4c2.23,1.59,4.69,2.31,7.31,2.91c7.64,1.74,15.38,2.09,23.15,1.75
		c2.36-0.1,4.1,0.71,5.71,2.22c2.6,2.44,4.42,5.44,6.16,8.5c4.2,7.4,8.38,14.81,12.56,22.23c0.73,1.3,1.43,2.61,2.12,3.94
		c0.12,0.22,0.07,0.53,0.09,0.8C413.57,527.96,413.21,527.92,413.04,527.73z M392.65,411.38c0.07-1.68,0.17-3.47,0.79-4.99
		c1.65-4.14,3.58-8.17,5.41-12.23c0.15-0.33,0.44-0.59,0.69-0.87c-0.01,4.65,0.01,9.3-0.05,13.95c-0.05,3.84,0.13,7.6,1.37,11.32
		c2.22,6.69,4.65,13.22,9.12,18.82c1.65,2.07,3.11,4.3,4.6,6.49c2.01,2.95,4.63,5.3,7.52,7.3c1.72,1.2,3.64,2.31,5.63,2.88
		c6.9,1.98,12.67,5.97,18.42,9.99c1.02,0.71,1.88,1.74,2.61,2.77c2.67,3.71,5.14,7.57,7.91,11.2c1.79,2.34,2.99,4.83,3.66,7.68
		c0.55,2.37,1.47,4.65,2,7.02c0.53,2.37,0.79,4.8,1.13,7.2c0.19,1.36,0.27,2.74,0.47,4.1c0.18,1.27-0.82,3.17-2.03,3.52
		c-0.32,0.09-0.83-0.1-1.11-0.34c-1.79-1.51-3.59-3.01-5.28-4.63c-0.66-0.63-1.17-1.51-1.52-2.37c-1.15-2.85-2.18-5.75-3.27-8.63
		c-0.3-0.8-0.58-1.6-0.95-2.37c-1.37-2.89-2.27-5.88-3.02-9.02c-1.15-4.81-3.76-9.09-7.08-12.7c-2.6-2.82-6.07-4.57-9.96-5.29
		c-1.01-0.19-1.98-0.7-2.91-1.17c-2.36-1.21-4.72-2.43-7.01-3.77c-1.92-1.12-3.75-2.39-5.58-3.65c-2.09-1.44-4.02-3.18-6.24-4.38
		c-3.71-2-6.04-5.33-8.71-8.33c-2.45-2.76-4.08-5.89-4.25-9.74c-0.07-1.65-0.79-3.29-1.33-4.9c-0.71-2.14-1.15-4.29-1.09-6.56
		C392.67,416.93,392.53,414.15,392.65,411.38z M465.48,517.47c-1.15,1.77-2.41,3.49-3.77,5.11c-1.57,1.87-3.19,3.73-5.74,4.35
		c-1.41,0.34-2.49,1.21-3.22,2.45c-1.51,2.56-3.55,4.48-6.35,5.54c-0.4,0.15-0.84,0.3-1.13,0.59c-1.65,1.62-3.26,1.41-5.06,0.19
		c-0.83-0.56-1.91-0.87-2.92-1.01c-2.94-0.41-5.48-1.6-7.67-3.58c-1.57-1.42-3.16-2.83-4.76-4.22c-1.98-1.71-3.1-4.04-4.38-6.23
		c-4.73-8.07-9.39-16.18-14.14-24.23c-0.97-1.64-2.21-3.12-3.31-4.69c-0.21-0.29-0.32-0.66-0.47-0.99c0.4,0.07,0.81,0.1,1.19,0.22
		c3.14,0.95,6.28,1.89,9.4,2.88c2.75,0.88,4.76,2.84,6.5,4.98c2.81,3.46,5.4,7.09,8.11,10.63c1.35,1.77,2.47,3.59,3.24,5.75
		c0.57,1.6,2.01,2.91,3.11,4.31c0.92,1.17,2.01,2.22,2.83,3.46c1.88,2.84,4.6,3.19,7.57,2.67c0.89-0.16,1.78-0.7,2.51-1.26
		c1.07-0.82,2.19-1.1,3.52-1.19c1.34-0.08,2.71-0.46,3.96-0.98c4.55-1.92,8.81-4.3,11.66-8.57c0.09-0.13,0.27-0.21,0.41-0.31
		c0.05,0.21,0.09,0.41,0.27,1.21C466.52,515.23,466.15,516.44,465.48,517.47z M476.51,491.53c-1.86-6.74-3.52-13.53-5.29-20.3
		c-1.03-3.91-3.42-7.04-5.92-10.1c-0.81-0.99-1.68-1.95-2.29-3.06c-1.95-3.57-5.03-5.94-8.25-8.26c-3.27-2.35-6.39-4.92-9.51-7.47
		c-2.71-2.22-5.34-4.55-7.98-6.86c-4-3.5-6.97-7.7-8.71-12.75c-0.35-1-0.53-2.1-1.05-3c-2.04-3.56-2.4-7.38-2.34-11.39
		c0.06-4.03-0.32-8.06-0.49-12.09c-0.03-0.64-0.02-1.28,0.02-1.92c0.01-0.25,0.14-0.49,0.21-0.74c0.05,0.2,0.13,0.4,0.16,0.61
		c0.76,4.37,2.83,8.47,2.7,13.04c-0.02,0.71,0.29,1.45,0.51,2.16c1.78,5.77,3.25,11.65,5.85,17.15c1.91,4.02,4.66,7.35,8.34,9.88
		c2.19,1.5,4.34,3.09,6.6,4.46c1.99,1.21,4.11,2.21,6.2,3.25c1.14,0.57,2.44,0.86,3.47,1.57c3.07,2.1,6.16,4.2,8.99,6.6
		c1.41,1.19,2.37,2.98,3.33,4.61c0.97,1.66,1.77,3.33,3.6,4.34c0.73,0.4,1.29,1.44,1.53,2.31c0.78,2.75,1.69,5.52,1.99,8.34
		c0.64,6.02,0.89,12.07,1.38,18.11c0.22,2.74,0.65,5.47,0.97,8.2c0.12,1,0.19,2,0.28,3C478.49,498.38,477.45,494.95,476.51,491.53z
		 M506.27,520.26c-2.7,0.53-5.43,1.32-8.16,0.3c-1.06-0.39-2.17-0.91-2.98-1.67c-1.39-1.31-2.57-2.84-3.83-4.28
		c-2.09-2.4-2.47-5.37-2.65-8.34c-0.07-1.06-0.14-4.04-0.04-7.32c0.12-3.94,0.43-8.3,0.43-10.21c0.01-4.03-0.23-8.09-0.65-12.1
		c-0.38-3.68-0.99-7.36-1.77-10.98c-1.55-7.24-5.1-13.46-10.08-18.91c-1.14-1.25-2.32-2.51-3.23-3.93
		c-2.28-3.56-5.11-6.8-6.38-10.97c-0.57-1.88-0.77-3.75-0.63-5.67c0.14-1.9,0.41-3.79,0.62-5.69c0.08-0.78,0.3-1.29,1.15-0.65
		c3.16,2.35,6.47,4.52,9.41,7.11c2.38,2.09,4.58,4.51,6.38,7.11c3.47,5.01,6,10.54,7.41,16.48c1.35,5.67,2.42,11.4,3.49,17.13
		c0.41,2.18,0.5,4.43,0.63,6.66c0.26,4.46,0.73,8.92,0.61,13.37c-0.15,5.68,1.54,10.89,3.3,16.12c0.7,2.1,1.53,4.15,2.18,6.28
		c0.91,3.03,2.8,5.68,5.48,7.61c0.67,0.48,1.24,1.08,1.86,1.63C507.98,519.65,507.15,520.09,506.27,520.26z"/>
	<path class="st0" d="M184.89,141.89c-2.95,2.07-6.11,3.9-9.51,4.9c-4.51,1.33-9.23,1.3-13.8-0.06c-1.04-0.31-1.93-1.29-2.73-2.11
		c-0.72-0.74-1.21-1.69-1.81-2.55c1.1-0.81,1.97,0.25,2.89,0.47c2.44,0.59,4.91,0.76,7.24-0.02c3.8-1.27,7.85-2.13,10.87-5.05
		c2.59-2.5,5.03-5.17,7.61-7.68c1.82-1.77,3.8-3.36,5.63-5.11c1.06-1.02,1.97-2.19,2.93-3.31c0.1-0.12,0.08-0.34,0.12-0.51
		c-0.2-0.02-0.42-0.09-0.59-0.04c-4.34,1.32-8.85,1.88-13.16,3.45c-3.14,1.15-6.6,1.45-9.94,2.06c-6.44,1.18-12.94,0.54-19.42,0.65
		c-2.65,0.04-4.51-1.69-6.48-3.12c-0.13-0.1-0.15-0.35-0.23-0.53c0.2-0.07,0.39-0.18,0.59-0.2c0.85-0.06,1.7-0.08,2.55-0.12
		c4.45-0.23,8.94-0.18,13.34-0.77c3.7-0.49,7.33-1.54,11.07-1.97c1.44-0.16,2.82-0.91,4.2-1.45c1.29-0.5,2.38-1.2,3.3-2.36
		c1.29-1.64,2.79-3.17,4.97-3.74c0.39-0.1,0.75-0.41,1.06-0.69c3.3-3.14,7.45-4.23,11.78-4.93c0.3-0.05,0.59-0.21,0.89-0.32
		c-0.27-0.29-0.5-0.74-0.83-0.83c-2.62-0.72-5.15-0.77-7.7,0.55c-4.8,2.47-9.63,4.91-14.57,7.09c-2.86,1.26-5.58,3.11-8.9,3.1
		c-0.4,0-0.81-0.12-1.21-0.19c0.17-0.35,0.34-0.7,0.51-1.05c1.9-3.76,3.78-7.52,5.71-11.26c2.48-4.81,6.34-8.13,11.17-10.47
		c6.13-2.97,12.65-3.91,19.35-3.85c5.07,0.05,10.13,0.33,15.19,0.58c1.04,0.05,2.05,0.46,3.09,0.62c0.25,0.04,0.7-0.17,0.78-0.37
		c0.09-0.22-0.05-0.72-0.25-0.84c-1.71-1.05-3.39-2.19-5.22-3.01c-1.53-0.68-3.26-0.89-4.86-1.43c-2.93-0.97-5.77-0.3-8.64,0.26
		c-0.38,0.07-0.78,0.02-1.16,0.02c0.13-0.46,0.14-1,0.42-1.35c0.45-0.57,0.99-1.19,1.63-1.49c4.77-2.24,9.26-5.25,14.45-6.43
		c7.54-1.72,14.96-1.39,21.87,2.7c1.82,1.08,3.69,2.19,5.68,2.85c1.97,0.65,4.11,0.83,6.19,1.03c0.69,0.07,1.31-0.43,1.39-1.41
		c0.14-1.81-0.62-3.04-2.08-3.99c-2.66-1.74-5.3-3.52-7.93-5.31c-0.3-0.2-0.46-0.6-0.68-0.91c0.34-0.23,0.69-0.67,1.02-0.66
		c1.05,0.04,2.09,0.32,3.14,0.36c2.66,0.1,5.33,0.18,7.99,0.14c4.85-0.07,9.07,1.57,12.9,4.43c1.19,0.89,2.34,1.85,3.64,2.54
		c4.17,2.22,7.35,5.64,10.76,8.77c0.67,0.62,1.02,1.6,1.51,2.41c1.73,2.89,3.77,5.37,7.25,6.29c1.22,0.32,2.32,1.04,3.51,1.5
		c2.2,0.86,4.33,1.68,4.59,4.57c0.12,1.36,1.41,1.86,2.59,1.99c1.14,0.13,2.43,0.2,3.47-0.18c4.19-1.52,8.3-3.19,11.65-6.34
		c2.49-2.34,4.25-5.19,6.13-7.96c0.36-0.53,0.6-1.14,0.99-1.64c0.42-0.55,1.04-0.49,1.23,0.13c0.51,1.62,1.07,3.26,1.25,4.93
		c0.23,2.17,0.12,4.38,0.14,6.57c0,0.31,0.03,0.73-0.15,0.93c-2.26,2.44-2.63,5.76-3.74,8.65c-1.53,3.97-3.92,7.2-6.57,10.33
		c-0.88,1.03-2.07,1.82-3.19,2.63c-2.04,1.49-4.29,2.35-6.87,2.03c-1.34-0.17-2.43,0.19-3.54,1.04c-2.78,2.14-5.69,4.11-8.52,6.18
		c-0.19,0.14-0.2,0.51-0.3,0.78c0.2,0.06,0.42,0.21,0.6,0.17c1.54-0.36,3.11-0.61,4.58-1.15c2.79-1.02,5.54-2.15,8.25-3.36
		c1.64-0.73,3.18-1.69,4.77-2.54c0.76-0.41,1.24-0.27,1.19,0.66c-0.1,1.79-0.13,3.6-0.42,5.37c-0.39,2.4-1.02,4.77-1.51,7.16
		c-0.85,4.13-2.77,7.83-5.04,11.28c-1.12,1.7-3.06,2.91-4.75,4.17c-1.36,1.01-2.87,1.84-4.38,2.61c-3.3,1.66-6.13,3.83-8.1,6.98
		c-1.8,2.88-4.69,4.62-7.07,6.88c-0.71,0.67-1.87,1.05-2.88,1.19c-3.94,0.55-7.59,1.96-11.23,3.44c-0.74,0.3-1.32,0.91-2.35,0.6
		c-0.45-0.14-1.26,0.56-1.77,1.03c-3.6,3.35-6.41,7.37-9.38,11.26c-2.66,3.48-5.96,6.32-9.73,8.54c-2.37,1.4-4.86,2.58-7.32,3.83
		c-0.56,0.29-1.16,0.52-1.77,0.68c-0.26,0.07-0.58-0.13-0.88-0.2c0.1-0.27,0.12-0.61,0.31-0.79c2.51-2.49,4.58-5.29,6.09-8.5
		c0.31-0.67,0.52-1.38,0.82-2.05c0.54-1.23,0.54-2.23-0.89-2.88c-0.46-0.21-0.79-0.71-1.16-1.08c-0.98-0.99-2.03-0.97-3.13-0.23
		c-2.3,1.55-4.52,3.17-5.79,5.79c-2.95,6.08-8.12,9.69-14.15,12.1c-2.71,1.08-5.59,1.84-8.64,1.77c-2.1-0.05-4.2,0.38-6.3,0.47
		c-4.13,0.19-6.95,2.72-9.88,5.2c-2.18,1.85-4.52,3.49-6.81,5.21c-1.02,0.77-2.1,1.46-3.1,2.24c-0.65,0.51-1.22,1.12-1.82,1.69
		c0.15-0.81,0.31-1.63,0.45-2.44c0.97-5.43,4.07-9.72,7.49-13.82c0.44-0.53,1.12-1.04,1.77-1.19c2.87-0.66,5.25-2.02,7.35-4.13
		c2.2-2.22,5.18-2.73,8.19-2.99c2.74-0.23,5.48-0.5,8.23-0.77c0.21-0.02,0.42-0.15,0.62-0.22c-0.2-0.06-0.4-0.14-0.6-0.18
		c-4.47-0.86-8.92-1.81-13.41-2.54c-2.13-0.35-4.2,0.22-6.13,1.28c-2.34,1.28-4.86,1.99-7.44,2.68c-3.29,0.88-6.38,2.44-8.79,4.91
		c-1.98,2.03-4.4,3.69-5.73,6.33c-0.13,0.25-0.49,0.38-0.75,0.57c-0.08-0.39-0.35-0.85-0.22-1.15c1.87-4.34,2.6-9.26,6.44-12.58
		c0.14-0.12,0.2-0.34,0.29-0.52c-0.29-0.03-0.65-0.18-0.86-0.06c-2.24,1.25-4.34,2.69-5.8,4.85c-0.69,1.01-1.44,1.74-2.7,2.03
		c-2.03,0.45-4,1.18-6.04,1.59c-1.1,0.22-2.3,0.13-3.44-0.02c-0.62-0.08-1.19-0.55-1.78-0.85c0.58-0.43,1.11-1.01,1.77-1.26
		c1.08-0.42,2.23-0.65,3.36-0.91c3.86-0.89,7.08-2.69,9.2-6.18c0.83-1.36,1.67-2.71,2.58-4.02c2.12-3.07,4.84-4.98,8.81-4.55
		c3.14,0.33,6.33,0.32,9.44,0.83c2.17,0.36,4.21,1.27,6.51,1.28c3.28,0.02,6.56,0.34,9.83,0.57c3.11,0.23,5.77-1.08,8.44-2.38
		c1.99-0.97,4.02-1.84,5.93-2.95c3.83-2.21,8.09-3.87,10.89-7.51c1.75-2.28,3.89-3.11,6.66-2.68c2.81,0.44,5.62,0.86,8.44,1.2
		c1.14,0.14,2.36,0.25,3.46,0.02c1.57-0.33,3.32-3.16,3.28-4.97c0-0.2-0.3-0.51-0.52-0.56c-1.02-0.25-2.06-0.48-3.1-0.63
		c-4.3-0.65-8.61-1.18-12.88-1.94c-1.54-0.27-3-1.01-4.45-1.65c-2.32-1.02-4.55-2.27-6.91-3.17c-2.13-0.82-3.98-1.93-5.55-3.57
		c-1.1-1.15-2.35-2.18-3.38-3.38c-2.34-2.72-5.62-3.05-8.81-3.57c-0.5-0.08-1.15,0.41-1.66,0.74c-2.14,1.38-4.25,2.81-6.38,4.2
		c-0.35,0.23-0.8,0.36-1.1,0.64c-0.7,0.65-1.69,1.29-1.88,2.09c-0.14,0.56,0.88,1.38,1.33,2.1c3.36,5.33,8.34,7.94,14.44,8.75
		c0.84,0.11,1.68,0.24,2.49,0.46c0.52,0.14,1.36-0.81,1.5,0.28c0.05,0.42-0.63,1.08-1.12,1.37c-1.19,0.68-2.45,1.27-3.72,1.77
		c-1.67,0.66-3.36,1.29-5.08,1.75c-1.42,0.38-2.9,0.54-4.36,0.74c-1.67,0.23-3.36,0.36-5.03,0.62c-3.08,0.47-5.87-0.59-8.68-1.54
		c-1.1-0.37-2.14-0.98-3.27-1.2c-2.19-0.42-3.39-2.05-4.74-3.53c-0.11-0.12-0.17-0.43-0.1-0.5c0.12-0.13,0.42-0.24,0.55-0.17
		c4.02,2.27,8.45,1.71,12.78,1.9c2.72,0.12,5.43,0.34,8.15,0.5c0.3,0.02,0.62-0.11,0.92-0.17c-0.26-0.17-0.51-0.39-0.79-0.52
		c-1.54-0.66-3.08-1.32-4.62-1.95c-2.06-0.84-3.4-2.43-4.53-4.27c-0.97-1.58-1.03-1.48-2.77-0.84c-3.78,1.39-7.52,2.95-11.41,3.91
		c-2.63,0.65-5.45,0.53-8.11-0.78c-3.73-1.84-7.6-3.14-11.92-2.97c-3.37,0.13-6.41,1.34-9.57,2.19c-0.61,0.16-1.16,0.55-1.77,0.71
		c-0.24,0.06-0.72-0.12-0.81-0.32c-0.15-0.33-0.25-0.96-0.07-1.11c0.95-0.81,1.9-1.76,3.03-2.19c3.87-1.48,7.81-2.58,12.08-2.52
		c4.02,0.05,8.06-0.35,12.08-0.73c1.34-0.12,2.63-0.75,3.93-1.2c1.1-0.38,2.18-0.82,3.27-1.23c0.49-0.19,0.99-0.37,1.49-0.55
		c-0.57-0.24-1.11-0.57-1.7-0.69c-3.21-0.65-6.43-1.24-9.64-1.87c-0.3-0.06-0.57-0.24-0.86-0.36c0.28-0.3,0.5-0.76,0.83-0.87
		c1.71-0.56,3.46-0.97,5.16-1.54c3.69-1.23,6.59-3.31,7.73-7.2C185.06,141.88,184.99,141.82,184.89,141.89z M312.61,106.76
		c-0.37,0.19-0.74,0.37-1.09,0.6c-4.23,2.73-8.68,4.9-13.68,5.87c-1.53,0.3-2.87,0.51-4.09-0.81c-0.45-0.48-1.29-0.73-1.98-0.83
		c-2.09-0.28-4.2-0.58-6.3-0.59c-3.08-0.01-5.79-1.06-8.47-2.38c-2.09-1.02-4.25-1.91-6.34-2.94c-1.23-0.6-2.36-1.39-3.57-2.05
		c-2.5-1.36-5.02-2.7-7.55-4.02c-0.24-0.13-0.61,0-0.92,0c0.17,0.19,0.33,0.38,0.51,0.56c2.65,2.66,4.81,5.65,6.24,9.13
		c0.17,0.41,0.05,0.95,0.06,1.43c-0.38-0.07-0.78-0.11-1.15-0.23c-2.93-0.89-5.8-2.27-8.78-2.6c-8.23-0.89-16.49-1.52-24.76-1.91
		c-5.53-0.26-10.35,1.18-13.25,6.73c-1.67,3.19-4.3,5.98-7.43,7.76c-2.71,1.54-4.61,3.62-6.38,5.99c-1.21,1.61-2.94,3.03-3.58,4.84
		c-1.79,5.06-4.97,9.16-8.47,12.99c-1.71,1.87-4,3.22-6.07,4.76c-0.12,0.09-0.12,0.19,0.03,0.17c2.58-0.33,5.26-0.37,7.67-1.2
		c4.95-1.71,9.1-4.76,11.33-9.67c1.58-3.5,4.31-5.4,7.6-6.84c0.58-0.25,1.16-0.52,1.75-0.76c1.53-0.62,2.58-1.68,3.55-3.03
		c1.48-2.06,3.27-3.89,4.9-5.84c0.74-0.89,1.53-1.76,2.1-2.75c1.49-2.6,3.57-4.33,6.49-5.16c5.8-1.65,11.71-2.48,17.73-2.4
		c3.37,0.04,6.74,0.4,10.11,0.43c2.02,0.02,3.73,0.71,5.39,1.68c2.2,1.28,4.44,2.51,6.54,3.95c1.14,0.78,2.29,0.95,3.59,1.01
		c3.39,0.16,6.77,0.37,10.15,0.63c1.68,0.13,3.36,0.62,5.03,0.59c2.1-0.04,4.22-0.34,6.29-0.73c2.8-0.53,5.6-1.15,8.34-1.95
		c1.29-0.37,2.69-0.99,3.59-1.93c2.26-2.37,4.33-4.93,5.25-8.17C313.04,106.88,312.8,106.66,312.61,106.76z M258.12,158.77
		c1.07,0,2.15,0.13,3.19-0.03c1.13-0.17,2.54-0.28,3.25-1c1.93-1.94,4.4-2.95,6.57-4.46c1.8-1.26,3.34-2.91,4.85-4.53
		c0.79-0.85,0.54-1.26-0.59-1.27c-1.39-0.01-2.83,0.15-3.99-0.78c-0.86-0.68-1.52-0.45-2.29,0.08c-2.01,1.39-4.24,2.32-6.58,3.03
		c-1.61,0.49-3.17,1.13-4.75,1.72c-0.5,0.19-0.96,0.51-1.47,0.6c-0.22,0.04-0.74-0.34-0.75-0.55c-0.08-1.59,0.08-3.21-0.11-4.79
		c-0.46-3.66-3.06-7.36-7.79-6.38c-2.19,0.45-3.84,1.5-3.62,4.39c0.11,1.47,0.58,2.68,1.49,3.77c0.41,0.49,1.11,0.86,1.27,1.41
		c0.25,0.85,0.15,1.81,0.21,2.72c-0.58-0.02-1.16-0.04-1.75-0.04c-1.38-0.02-2.77,0.04-4.15-0.06c-1.15-0.09-2.34-0.2-3.42-0.57
		c-2.68-0.94-5.3-2.05-7.95-3.08c-0.18-0.07-0.39-0.07-0.59-0.1c0.04,0.23,0.01,0.53,0.13,0.7c2.19,2.89,4.9,5.26,7.71,7.5
		c0.84,0.67,2.14,0.82,3.26,1.1c0.61,0.15,1.27,0.07,1.91,0.08c1.28,0.03,2.56,0.07,3.83,0.08c1.28,0,2.56,0.03,3.83-0.08
		c1.35-0.11,5.73,0.41,6.69,0.58C257.04,158.9,258.12,158.79,258.12,158.77z M250.56,129.45c3.64-0.04,6.86,0.65,9.77,2.67
		c1.11,0.77,2.49,1.13,3.68,1.8c1.26,0.71,2.71,1.33,3.6,2.39c3.62,4.3,7.97,5.26,12.68,2.53c0.26-0.15,0.69-0.53,0.65-0.61
		c-0.16-0.33-0.42-0.72-0.75-0.86c-2.35-1.03-4.59-2.18-6.48-3.98c-2.69-2.56-5.51-4.98-8.21-7.52c-1.27-1.2-2.59-1.99-4.41-2.25
		c-1.63-0.23-3.25-0.97-4.74-1.75c-1.23-0.64-2.38-0.8-3.67-0.47c-0.61,0.16-1.23,0.32-1.85,0.42c-4.77,0.8-9.37,2.32-13.26,5.08
		c-4.32,3.06-8.17,6.77-12.21,10.22c-0.39,0.34-0.68,0.81-0.97,1.25c-0.06,0.09,0.11,0.34,0.21,0.49c0.04,0.06,0.23,0.09,0.28,0.05
		c0.68-0.49,1.34-1,2.03-1.48c1.03-0.73,2-1.89,3.12-2.05c2.81-0.4,5.08-2,7.63-2.91C241.89,130.95,246.08,129.11,250.56,129.45z"/>
	<path class="st0" d="M144.14,111.38c-2.37-0.09-4.54-0.66-5.97-2.82c-0.44-0.67-0.37-1.25,0.49-1.4c4.63-0.82,7.43-4.17,10.33-7.39
		c0.64-0.71,1.14-1.55,1.82-2.21c2.63-2.51,4.73-5.38,6.29-8.67c0.31-0.65,0.75-1.3,1.29-1.74c4.44-3.59,8.76-7.38,14.14-9.57
		c2.34-0.95,4.75-1.71,7.14-2.54c3.29-1.14,6.59-2.28,9.89-3.39c0.47-0.16,1-0.15,1.5-0.21c-0.12,0.56-0.09,1.24-0.39,1.67
		c-1.78,2.49-3.49,5.06-5.52,7.35c-3.72,4.19-8.15,7.32-13.83,8.34c-1.13,0.2-2.21,0.69-3.29,1.11c-1.5,0.58-2.53,1.46-3.39,3.03
		c-2.17,3.99-4.82,7.71-7.94,11.07c-0.43,0.47-0.92,0.9-1.26,1.43C152.79,109.51,148.95,111.3,144.14,111.38z"/>
	<path class="st0" d="M318.27,70.96c-1.9-0.61-3.82-1.15-5.69-1.83c-2.08-0.76-4.08-1.79-6.19-2.46c-2.61-0.83-4.74-2.38-6.74-4.12
		c-4.5-3.93-9.44-7.22-14.64-10.14c-0.55-0.31-1.2-0.54-1.62-0.99c-0.39-0.4-0.53-1.04-0.78-1.57c0.59-0.16,1.2-0.5,1.76-0.42
		c0.82,0.12,1.65,0.43,2.37,0.84c2.67,1.53,5.3,3.13,7.94,4.72c2.91,1.75,5.72,3.72,8.78,5.17c1.85,0.88,4.08,0.97,6.15,1.36
		c1.35,0.25,2.72,0.38,4.08,0.61c2.59,0.45,5.05-0.38,7.56-0.72c4.29-0.57,8.59-1.18,12.9-1.6c1.64-0.16,3.13-0.42,4.45-1.45
		c0.58-0.46,1.21-0.92,1.89-1.17c0.52-0.19,1.33-0.29,1.72-0.02c0.8,0.55,0.8,1.52,0.23,2.26c-0.51,0.66-1.18,1.24-1.89,1.67
		c-3.44,2.1-6.96,4.07-10.37,6.22c-3.14,1.98-6.66,2.63-10.2,3.26c-0.52,0.09-1.06,0.01-1.59,0.01
		C318.34,70.72,318.31,70.84,318.27,70.96z"/>
	<path class="st0" d="M248.21,57.28c1.94-0.25,3.71-0.55,5.5-0.7c2.41-0.2,4.85-0.03,7.23-0.26c5.3-0.52,9.68,1.61,13.85,4.38
		c2.63,1.75,5.09,3.78,7.68,5.59c2.63,1.83,5.55,3.18,8.72,3.59c5.33,0.68,9.82,2.99,13.93,6.31c2.06,1.66,4.13,3.35,6.79,4.03
		c0.2,0.05,0.44,0.13,0.56,0.28c0.25,0.31,0.6,0.68,0.58,1c-0.02,0.24-0.55,0.62-0.87,0.63c-4.05,0.18-8.07,0.06-11.82-1.81
		c-2.66-1.33-5.26-2.81-8.02-3.87c-3.3-1.26-6.28-3.02-9.1-5.08c-1.53-1.12-2.85-2.51-4.35-3.68c-1.24-0.96-2.5-2.07-3.94-2.58
		c-3.57-1.27-7.25-2.24-10.89-3.34c-1.52-0.46-3.13-0.77-4.52-1.49c-2.08-1.08-4.2-1.26-6.47-1.13c-4.19,0.23-8.43-0.13-12.51,1.18
		c-0.1,0.03-0.21,0.04-0.32,0.03c-1.03-0.08-2.06-0.17-3.09-0.26c0.86-0.56,1.66-1.3,2.6-1.63
		C242.53,57.49,245.26,56.09,248.21,57.28z"/>
	<path class="st0" d="M205.97,47.76c0.23,0.02,0.47,0.38,0.63,0.64c0.04,0.07-0.15,0.36-0.3,0.46c-3.81,2.54-7.67,5.01-12.29,5.76
		c-2.96,0.48-5.78,1.22-8.41,2.71c-2.7,1.53-5.65,2.38-8.65,3.08c-3.75,0.88-7.25,2.24-10.33,4.68c-1.55,1.23-3.46,2.03-5.28,2.88
		c-0.44,0.21-1.42,0.02-1.69-0.33c-0.54-0.72,0.05-1.33,0.68-1.83c4.79-3.88,9.99-7.13,15.39-10.09c2.79-1.53,5.39-3.4,8.19-4.91
		c1.66-0.89,3.48-1.65,5.32-1.99c3.73-0.7,7.53-1.08,11.3-1.6C200.54,47.31,204.18,47.63,205.97,47.76z"/>
	<path class="st0" d="M74.92,272.51c-0.89,1.23-1.92,1.73-3.44,0.7c-0.61-0.41-1.66-0.31-2.5-0.24c-4.14,0.36-7.32-1.81-10.53-3.91
		c-0.59-0.39-1.08-1.03-1.46-1.65c-3-4.95-5.43-10.07-5.06-16.11c0.16-2.65-0.05-5.33,0.08-7.98c0.19-3.77-0.22-7.37-1.84-10.84
		c-0.29-0.62-1.38-1.65-0.17-2.42c0.12-0.07,1.14,1.04,1.56,1.72c1.83,2.96,3.61,5.95,5.37,8.95c1.6,2.71,2.43,5.65,2.22,8.8
		c-0.17,2.5,1,4.52,2.17,6.53c0.17,0.3,1.13,0.54,1.22,0.43c1.52-1.99,3.86-2.31,5.98-2.69c3.36-0.6,5.05-2.4,5.34-5.7
		c0.05-0.52,0.32-1.02,0.4-1.54c0.25-1.61,0.06-1.94-1.66-2.44c-3.97-1.15-6.87-5.26-6.63-9.06c0.19-2.96,0.79-5.65,2.35-8.15
		c1.52-2.43,3.23-4.78,4.45-7.35c0.88-1.86,1.11-4.04,1.56-6.1c0.02-0.1-0.68-0.54-0.79-0.46c-1.4,0.99-1.92,0.11-2.26-1.04
		c-0.62-2.12-1.83-3.86-3.71-4.95c-1.14-0.66-2.52-1.02-3.83-1.24c-1.11-0.19-1.79,0.56-1.38,1.5c1.67,3.85,0.71,7.82,0.69,11.74
		c-0.01,3.08,0.01,6.17-0.87,9.15c-0.29,0.97-0.91,1.85-1.38,2.77c-0.19-0.94-0.52-1.87-0.53-2.81c-0.04-3.39-0.3-6.75-1.34-9.98
		c-1.35-4.21-4.23-7.05-8.39-8.52c-5.34-1.89-5.53-1.88-4.93-7.37c0.44-3.98,1.43-7.91,2.18-11.85c0.06-0.31,0.28-0.61,0.26-0.91
		c-0.04-0.72-0.18-1.43-0.29-2.15c-0.68,0.21-1.39,0.34-2.03,0.65c-2.2,1.05-3.81,2.69-4.65,5.02c-0.29,0.8-0.57,1.6-0.9,2.38
		c-0.27,0.65-0.6,1.27-0.91,1.91c-0.55-0.57-1.42-1.07-1.58-1.73c-0.34-1.41-0.7-3.01-0.35-4.35c1.26-4.87,3.11-9.49,7.05-12.97
		c1.6-1.41,3.32-2.12,5.46-2.23c4.81-0.24,9.31,0.67,13.43,3.21c0.9,0.56,1.93,1.02,2.63,1.78c2.45,2.7,5.29,4.83,8.59,6.38
		c0.46,0.22,1,0.59,1.17,1.02c0.7,1.8,2.25,2.7,3.59,3.91c3.96,3.56,7.52,7.48,9.95,12.31c0.79,1.57,1.07,3.11,0.35,4.8
		c-0.23,0.53-0.19,1.23-0.12,1.83c0.37,2.9-0.06,5.77-0.4,8.63c-0.06,0.53-0.59,1.07-1.03,1.47c-1.67,1.54-3.03,3.18-3.52,5.53
		c-0.22,1.06-1.1,2.02-1.79,2.94c-2.28,3.01-2.48,6.01-0.08,8.98c1.18,1.46,1.59,2.87,1.56,4.65c-0.04,2.62-0.09,5.09,1.52,7.61
		c1.28,2.01,0.34,4.79-0.81,7.02c-0.73,1.41-1.74,2.67-2.64,3.99c-1.31,1.91-2.64,3.8-3.96,5.7
		C76.48,269.81,76.13,270.83,74.92,272.51z"/>
</g>
</svg>
