<?xml version="1.0" encoding="utf-8"?>
<!-- Generator: Adobe Illustrator 23.0.4, SVG Export Plug-In . SVG Version: 6.00 Build 0)  -->
<svg version="1.1" id="Layer_1" xmlns="http://www.w3.org/2000/svg" xmlns:xlink="http://www.w3.org/1999/xlink" x="0px" y="0px"
	 viewBox="0 0 101 56" style="enable-background:new 0 0 101 56;" xml:space="preserve">
<style type="text/css">
	.st0{fill:#CDB271;}
</style>
<g>
	<path class="st0" d="M52.99,22.38c2.81-0.09,5.45,0.79,8.16,1.36c6.54,1.38,12.99,1.69,18.65-2.83c2.18-1.73,4.08-3.79,5.5-6.14
		c2.36-3.91,2.84-7.95-1.3-12.52c-0.37-0.27-1.7-1.22-3.16-2.27c-2.34,0-4.8,0-7.4,0c-1.21,0.63-2.4,1.46-2.79,2.68
		c-0.2,1.7,0.55,2.47,1.98,3.11c1.46-1.26,2.99-3.06,6.39-1.36c0.27,0.32,1.24,1.43,2.32,2.68c0,1.69,0,3.49,0,6.02
		c-0.23,1.06-1.22,2.56-2.12,4.25c-1.35,0.72-2.78,1.48-3.87,2.06c-7.07,1.67-13.49-0.1-19.9-1.73c-1.24-0.32-2.52-0.78-3.59-1.47
		c-5.04-3.27-10-6.65-15.01-9.96c-2.31-1.52-4.66-2.97-6.99-4.46c-3.21,0-6.35-0.05-9.48,0.01C13.02,1.96,6.99,4.83,3.29,11.3
		C-0.4,17.78,0.4,24.5,3.51,31.02c0.55,1.15,1.65,1.98,2.89,2.6c5.5,2.78,10.99,3.82,16.67,0.23c1.27-1.47,2.18-3.15,1.85-5.37
		c-1.06-2.17-2.78-2.38-4.82-1.48c-1.61,0.9-0.47,2.97-1.83,4c-0.75,0.77-1.79,0.57-2.76,0.56c-6.55-0.07-9.84-3.23-10.28-9.85
		C4.84,15.7,9.06,8.71,14.69,6.99c8.38-2.57,16.29-1.79,22.4,5.3c4.79,5.56,6.49,12.14,5.23,19.59c-1.04,6.16-3.94,11.26-7.44,16.22
		c-1.43,2.02-3.7,3.87-2.76,6.85c1.8,1.19,2.84,0.03,3.79-1.11c6.28-7.53,11.33-15.59,10.93-25.94c-0.04-0.98-0.01-1.96-0.01-3.54
		c5.24,4.6,10.74,7.83,16.61,10.5c3.3,1.5,6.67,2.49,10.29,2.71c1.77,0.11,3.53,0.71,5.29,0.69c9.31-0.11,16.73-3.58,21.22-12.24
		c0-1.98,0-3.93,0-5.63c-0.84-1.79-2.5-1.82-3.77-2.5c-1.33,0.35-2.3,1.16-2.93,2.25c-0.6,1.53,0.89,2.5,0.83,4.08
		c-0.41,1.32-0.9,2.86-1.36,4.32c-2.3,2.68-5.76,3.17-8.27,4.88c-7,0.57-13.69-0.15-19.86-2.99c-4.36-2.01-9.04-3.78-12.31-7.65
		c-0.41-0.14-0.78-0.31-0.54-0.86C52.57,21.66,52.79,21.99,52.99,22.38z"/>
	<path class="st0" d="M26.18,9.89c-3.37,0-6.34,0-9.26,0c-2.61,1.41-5.46,2.41-7.24,5.01c-2.22,3.8-1.29,7.44,0.81,11.12
		c2.5,1.39,2.5,1.39,5.16,1.17c-0.56-1.84-0.91-2.24-3.23-3.59c-1.15-3.28-0.17-6.03,2.55-8.16c3.13-2.46,6.77-2.63,10.19-1.05
		c3.09,1.43,5.93,3.45,6.94,7.15c0.38,1.39,1.2,2.66,1.71,3.73c0.79,8.06-2.95,13.77-8.47,18.48c-0.54,1.95-0.32,3.69-0.12,6.08
		c7.06-5.05,12.35-10.96,13.19-19.04c0.68-6.49-0.75-13.12-6.64-17.7C30.04,11.77,28.01,11.14,26.18,9.89z"/>
</g>
</svg>
