<?xml version="1.0" encoding="utf-8"?>
<!-- Generator: Adobe Illustrator 23.0.4, SVG Export Plug-In . SVG Version: 6.00 Build 0)  -->
<svg version="1.1" id="Layer_1" xmlns="http://www.w3.org/2000/svg" xmlns:xlink="http://www.w3.org/1999/xlink" x="0px" y="0px"
	 viewBox="0 0 549 639" style="enable-background:new 0 0 549 639;" xml:space="preserve">
<path fill="#FFF" d="M427.59,422.92c-8.06-9.11-17.49-17.28-28.04-24.29c-6.01-3.99-12.22-7.82-18.57-11.47c3.07-1.66,6.11-3.48,9.11-5.45
	c7.75-5.1,14.76-11.22,20.85-18.19c6.14-7.03,11.16-14.97,14.93-23.58c3.87-8.87,5.84-18.6,5.84-28.92
	c0-14.64-3.63-28.16-10.79-40.17c-6.99-11.71-16.26-21.77-27.54-29.92c-11.13-8.03-23.89-14.29-37.93-18.62
	c-13.98-4.31-28.45-6.49-43.02-6.49c-1.4,0-2.75,0.06-4.13,0.08c0.06-0.16,0.15-0.29,0.2-0.45c3.17-10.46,7.32-21.32,12.35-32.26
	c5.11-11.11,11-22.67,17.52-34.35c6.67-11.97,13.47-24.36,20.46-37.23c3.61-6.83,6.65-13.65,9.05-20.26
	c2.37-6.55,4.3-12.9,5.72-18.89c1.44-6.06,2.42-11.8,2.91-17.08c0.48-5.24,0.72-9.68,0.72-13.56c0-2.65-0.11-5-0.31-7.05
	c-0.2-1.94-0.39-3.6-0.58-4.95c-0.04-0.27-0.09-0.54-0.16-0.81c-0.31-1.22-0.54-2.29-0.69-3.2c-0.61-3.69-3.8-6.4-7.55-6.4h-2.74
	c-3.89,0-7.1,2.9-7.59,6.66c-0.16,0.68-0.53,1.96-1.1,3.83c-0.42,1.38-1.52,3.73-4.41,7.14c-2.35,2.78-5.91,5.43-10.57,7.87
	c-4.43,2.32-10.83,3.5-19.02,3.5c-10.52,0-21.03-1.95-31.23-5.8c-10.98-4.14-22.21-8.78-33.36-13.78
	c-11.56-5.17-23.49-9.94-35.46-14.18c-12.62-4.47-25.9-6.73-39.49-6.73c-8.58,0-17.05,0.99-25.19,2.95
	c-7.88,1.9-15.21,4.16-21.79,6.74c-5.82,2.28-11,4.51-15.42,6.66v-4.32c0-4.23-3.42-7.65-7.65-7.65h-3.28
	c-4.22,0-7.65,3.42-7.65,7.65v164.16c0,4.23,3.42,7.65,7.65,7.65h3.28c4.22,0,7.65-3.42,7.65-7.65V172.6c0-4.47,0.71-9.55,2.1-15.11
	c1.25-5,3.83-9.78,7.67-14.23c3.86-4.47,9.5-8.29,16.76-11.37c7.41-3.14,17.64-4.73,30.4-4.73c7.13,0,13.78,0.35,19.77,1.04
	c6.2,0.72,12.27,1.53,18.2,2.43c6.11,0.93,12.3,1.76,18.58,2.5c6.46,0.76,13.58,1.15,21.15,1.15c10.19,0,20.07-1.4,29.38-4.15
	c9.18-2.7,17.91-6.38,25.96-10.94c7.91-4.48,15.38-9.61,22.19-15.28c5.85-4.86,11.23-9.93,16.03-15.1
	c-1.8,4.37-3.89,8.88-6.25,13.53c-3.66,7.15-8.47,15.12-14.29,23.67c-5.77,8.49-13.1,17.64-21.76,27.18
	c-9.44,10.33-19.28,20.03-29.24,28.84c-10.23,9.03-20.26,17.93-30.12,26.69c-9.91,8.81-19.41,17.75-28.23,26.57
	c-9.08,9.08-17.14,18.92-23.96,29.24c-6.9,10.45-12.49,21.91-16.59,34.05c-4.17,12.31-6.29,26.07-6.29,40.9
	c0,9.8,1.39,19.62,4.12,29.18c2.8,9.79,7.12,18.67,12.84,26.39c0.78,1.05,1.65,2,2.48,3c5.57,7.79,12.12,15.08,19.55,21.66
	c4.04,3.59,8.3,7.08,12.74,10.44c-4.89,2.15-9.73,4.59-14.47,7.31c-9.4,5.39-17.88,12.13-25.2,20.04
	c-7.39,7.98-13.43,17.25-17.95,27.57c-4.6,10.5-6.94,22.44-6.94,35.49c0,13.74,4,27.44,11.88,40.71
	c7.68,12.94,18.38,24.63,31.79,34.75c13.28,10.03,29.15,18.2,47.18,24.27c18.04,6.07,37.92,9.15,59.08,9.15
	c11.9,0,23.91-1.55,35.72-4.62c11.75-3.06,23.11-7.46,33.78-13.08c10.67-5.62,20.73-12.48,29.89-20.41
	c9.18-7.94,17.29-16.87,24.1-26.56c6.86-9.77,12.31-20.55,16.18-32.06c3.89-11.59,5.87-23.78,5.87-36.23
	c0-15.7-2.49-29.75-7.41-41.76C442.4,442.9,435.78,432.19,427.59,422.92z M375.09,284.2c2.72,9.78,4.1,19.73,4.1,29.55
	c0,12.78-2.07,25.34-6.16,37.34c-3.28,9.64-7.76,17.89-13.34,24.59c-7.43-3.79-14.95-7.48-22.41-10.99
	c-9.01-4.24-17.73-8.6-25.92-12.97c-8.11-4.31-15.83-8.96-22.96-13.8c-6.86-4.66-12.91-9.8-17.96-15.28
	c-4.84-5.25-8.69-11.21-11.43-17.75c-2.69-6.4-4.05-13.74-4.05-21.8c0-16.61,4.59-28.63,14.03-36.75
	c9.64-8.3,23.89-12.51,42.34-12.51c11.79,0,21.98,2.27,30.3,6.75c8.46,4.55,15.53,10.6,21.03,17.95
	C368.26,266.06,372.44,274.69,375.09,284.2z M229.72,547.38c-3.59-11.81-5.41-23.58-5.41-34.99c0-9.38,0.35-17.83,1.06-25.12
	c0.67-7,1.9-13.44,3.66-19.13c1.71-5.52,4.08-10.63,7.04-15.2c2.05-3.15,4.49-6.25,7.29-9.26c8.66,5.6,17.77,10.95,27.16,15.95
	c11.11,5.92,21.94,11.74,32.51,17.48c10.38,5.64,20.5,11.43,30.06,17.2c9.18,5.54,17.32,11.58,24.2,17.94
	c6.65,6.16,11.98,12.91,15.84,20.05c3.66,6.77,5.51,14.44,5.51,22.77c0,7.88-1.71,15.29-5.07,22.02
	c-3.43,6.87-8.22,12.91-14.22,17.95c-6.08,5.11-13.45,9.15-21.89,12.02c-8.56,2.91-18.09,4.38-28.32,4.38
	c-14.1,0-26.5-2.98-36.86-8.85c-10.59-6-19.51-13.81-26.5-23.22C238.68,569.83,233.27,559.06,229.72,547.38z M58.06,146.97H21.53
	v-10.09c0-1.27-1.03-2.3-2.3-2.3H11.2c-1.27,0-2.3,1.03-2.3,2.3v33.81c0,1.27,1.03,2.3,2.3,2.3h8.03c1.27,0,2.3-1.03,2.3-2.3v-10.09
	h36.53c1.27,0,2.3-1.03,2.3-2.3v-9.04C60.36,148,59.33,146.97,58.06,146.97z M58.06,75.38H11.2c-1.27,0-2.3,1.03-2.3,2.3v9.04
	c0,1.27,1.03,2.3,2.3,2.3h15.44v18.84H11.2c-1.27,0-2.3,1.03-2.3,2.3v9.04c0,1.27,1.03,2.3,2.3,2.3h46.86c1.27,0,2.3-1.03,2.3-2.3
	v-9.04c0-1.27-1.03-2.3-2.3-2.3H39.27V89.01h18.79c1.27,0,2.3-1.03,2.3-2.3v-9.04C60.36,76.4,59.33,75.38,58.06,75.38z M58.06,25.22
	h-8.03c-1.27,0-2.3,1.03-2.3,2.3v17.45h-8.46V32.87c0-1.27-1.03-2.3-2.3-2.3h-8.03c-1.27,0-2.3,1.03-2.3,2.3v12.09h-5.11V28.19
	c0-1.27-1.03-2.3-2.3-2.3H11.2c-1.27,0-2.3,1.03-2.3,2.3V56.3c0,1.27,1.03,2.3,2.3,2.3h46.86c1.27,0,2.3-1.03,2.3-2.3V27.51
	C60.36,26.24,59.33,25.22,58.06,25.22z M490.87,343.17c0.31,0.15,0.65,0.22,0.98,0.22c0.52,0,1.04-0.17,1.45-0.52l19.17-15.65
	c0.55,0.94,1.2,1.81,1.95,2.6c5.86,6.18,16.59,6.21,22.51-0.03c2.78-3.05,4.08-6.79,4.08-11.79v-17.07c0-1.27-1.03-2.3-2.3-2.3
	h-46.86c-1.27,0-2.3,1.03-2.3,2.3v9.04c0,1.27,1.03,2.3,2.3,2.3h18.31l-19.75,15.86c-0.54,0.44-0.86,1.09-0.86,1.79v11.18
	C489.56,341.98,490.07,342.79,490.87,343.17z M528.39,312.26v5.2c0,2.19-0.48,2.63-0.74,2.87c-0.92,0.85-3.07,0.9-4.04,0
	c-0.24-0.22-0.67-0.62-0.67-2.87v-5.2H528.39z M491.85,460.44h46.86c1.27,0,2.3-1.03,2.3-2.3v-9.04c0-1.27-1.03-2.3-2.3-2.3h-24.31
	l25.8-22.07c0.51-0.44,0.8-1.07,0.8-1.75v-6.36c0-1.27-1.03-2.3-2.3-2.3h-46.86c-1.27,0-2.3,1.03-2.3,2.3v9.04
	c0,1.27,1.03,2.3,2.3,2.3h24.31l-25.8,22.07c-0.51,0.44-0.8,1.07-0.8,1.75v6.36C489.56,459.42,490.59,460.44,491.85,460.44z
	 M498.74,522.5c0.4,0.32,0.9,0.49,1.42,0.49h16.71c1.27,0,2.3-1.03,2.3-2.3V499.6c0-1.27-1.03-2.3-2.3-2.3h-6.58
	c-1.27,0-2.3,1.03-2.3,2.3v9.75h-4c-1.64-2.38-2.47-5.12-2.47-8.15c0-7.81,5.92-13.7,13.77-13.7c7.72,0,13.77,5.84,13.77,13.3
	c0,3.62-1.47,7.08-4.15,9.76c-0.44,0.44-0.68,1.04-0.67,1.66c0.01,0.62,0.27,1.21,0.72,1.64l6.16,5.83
	c0.91,0.86,2.35,0.83,3.23-0.07c4.73-4.89,7.34-11.54,7.34-18.74c0-15.39-11.35-26.99-26.4-26.99c-15.05,0-26.39,11.66-26.39,27.13
	C488.89,509.75,492.48,517.59,498.74,522.5z M538.71,535.02h-46.86c-1.27,0-2.3,1.03-2.3,2.3v28.78c0,1.27,1.03,2.3,2.3,2.3h8.03
	c1.27,0,2.3-1.03,2.3-2.3v-17.45h8.46v12.09c0,1.27,1.03,2.3,2.3,2.3h8.03c1.27,0,2.3-1.03,2.3-2.3v-12.09h5.12v16.78
	c0,1.27,1.03,2.3,2.3,2.3h8.03c1.27,0,2.3-1.03,2.3-2.3v-28.11C541.01,536.05,539.98,535.02,538.71,535.02z M492.76,402.74
	l46.86-20.08c0.85-0.36,1.39-1.19,1.39-2.11v-6.36c0-0.92-0.54-1.75-1.39-2.11l-46.86-20.09c-0.71-0.3-1.52-0.23-2.17,0.19
	c-0.64,0.43-1.03,1.14-1.03,1.92v9.44c0,0.92,0.55,1.75,1.4,2.11l6.78,2.89v17.65l-6.78,2.88c-0.85,0.36-1.4,1.19-1.4,2.11v9.44
	c0,0.77,0.39,1.49,1.03,1.92c0.38,0.25,0.82,0.38,1.26,0.38C492.16,402.92,492.47,402.86,492.76,402.74z M518.31,377.33l-9.3,4
	v-7.99L518.31,377.33z"/>
</svg>
