<?xml version="1.0" encoding="utf-8"?>
<!-- Generator: Adobe Illustrator 23.0.3, SVG Export Plug-In . SVG Version: 6.00 Build 0)  -->
<svg version="1.1" id="Layer_1" xmlns="http://www.w3.org/2000/svg" xmlns:xlink="http://www.w3.org/1999/xlink" x="0px" y="0px"
	 viewBox="0 0 714.6 635.2" style="enable-background:new 0 0 714.6 635.2;" xml:space="preserve">
<style type="text/css">
	.st0{clip-path:url(#SVGID_2_);fill:#020203;}
	.st1{clip-path:url(#SVGID_4_);}
	.st2{clip-path:url(#SVGID_6_);}
	.st3{clip-path:url(#SVGID_10_);}
	.st4{clip-path:url(#SVGID_12_);}
	.st5{clip-path:url(#SVGID_16_);}
	.st6{clip-path:url(#SVGID_18_);}
	.st7{fill:#DDC090;}
	.st8{fill:none;}
	.st9{clip-path:url(#SVGID_22_);fill:#DDC090;}
	.st10{clip-path:url(#SVGID_24_);}
	.st11{clip-path:url(#SVGID_26_);}
	.st12{clip-path:url(#SVGID_30_);fill:#D3B075;}
	.st13{clip-path:url(#SVGID_30_);fill:#DDC090;}
	.st14{clip-path:url(#SVGID_32_);}
	.st15{clip-path:url(#SVGID_34_);}
	.st16{clip-path:url(#SVGID_38_);fill:#D3B075;}
</style>
<g>
	<defs>
		<rect id="SVGID_1_" y="-0.1" width="714.8" height="633.6"/>
	</defs>
	<clipPath id="SVGID_2_">
		<use xlink:href="#SVGID_1_"  style="overflow:visible;"/>
	</clipPath>
	<path class="st0" d="M356.2,536.7c-146.7,0-265.6-118.9-265.6-265.6S209.5,5.5,356.2,5.5s265.6,118.9,265.6,265.6
		S502.9,536.7,356.2,536.7"/>
</g>
<g>
	<defs>
		<path id="SVGID_3_" d="M323.2,478l-2.1,4.6l3.6,0.6l-0.5-4.6c-0.1-1.4-0.1-1.7-0.1-2.9C323.8,476.5,323.6,477.2,323.2,478
			 M412.8,469.6l-1.3,0.4l3.3,11.2l1.7-0.5c0.9-0.3,2-0.6,2.6-1.5c1-1.4,0.7-3.7,0.2-5.5c-0.4-1.5-1-2.5-1.6-3.2
			c-0.8-1-1.6-1.3-2.6-1.3C414.4,469.1,413.6,469.3,412.8,469.6 M297.4,441.5l2.5,0.8c0.7,0.2,1.5,0.5,2.3,0.3
			c0.7-0.2,1.3-0.7,1.6-1.7c0.1-0.3,0.3-1,0.1-1.6c-0.3-0.9-1.2-1.2-2.4-1.6l-2.6-0.9L297.4,441.5z M231.5,401.4l2,1.8
			c0.6,0.5,1.2,1.1,2,1.2c0.7,0.1,1.5-0.1,2.1-0.9c0.2-0.2,0.7-0.7,0.7-1.4c0.1-0.9-0.6-1.6-1.5-2.5l-2-1.8L231.5,401.4z
			 M396.2,326.6c0,1.2,0.9,1.6,1.4,1.6c0.5,0,1-0.3,1.3-0.7c0.1-0.2,0.2-0.4,0.3-0.6c0.2-0.5,0.5-1.2,1.5-1.2c0.8,0,1.3,0.6,1.3,1.4
			c0,1-0.7,2-2.1,3.1c-0.9,0.8-1.9,1.4-2.8,2.2c-0.9,0.7-1.4,1.1-1.4,1.9c0,0.3,0.1,1.2,1,1.6c0.3,0.1,0.7,0.1,1.1,0.2l6,0.2
			c0.4,0,0.7,0,1.1-0.3c0.2-0.1,0.5-0.4,0.5-1c0-0.5-0.3-1-0.7-1.3c-0.3-0.2-0.7-0.2-0.9-0.2l-3.3-0.1c0.4-0.3,0.9-0.6,1.3-0.9
			c1.9-1.5,3.6-3.1,3.7-5.3c0.1-2-1.3-4.2-4.5-4.3c-0.1,0-0.1,0-0.2,0C397.5,322.8,396.3,325.4,396.2,326.6 M545.4,322.6
			c-2.4,8.3-0.8,12.9,5.2,14.7c5.6,1.6,9.4-1.4,11.9-10.2c0.5-1.6,0.8-3.2,1.1-4.3l-16.6-4.8C546.3,319.6,545.8,321.2,545.4,322.6
			 M412.6,314c0-0.3,0-0.5,0-0.8c0-0.7,0.1-1.5,0.3-2.2c0.3-1.1,0.9-1.8,1.8-1.8c1.6,0.1,1.8,2.1,1.7,4.1c0,1-0.1,3.8-1.9,3.8h0
			C412.8,317.1,412.6,314.9,412.6,314 M411.8,307.2c-1.8,1.3-2.4,3.5-2.5,5.6c-0.1,3.1,0.6,4.6,1.5,5.6c0.9,1,2,1.5,3.3,1.5
			c1,0,1.9-0.2,2.7-0.6c1.1-0.7,2-1.8,2.4-3.3c0.2-0.6,0.4-1.5,0.4-2.8c0-1.6-0.1-4.4-2.1-6c-0.8-0.6-1.8-0.9-2.9-1
			c-0.1,0-0.1,0-0.2,0C414,306.3,412.9,306.4,411.8,307.2 M429,290.3c-0.8,0-1.2,0.5-1.4,0.7c-0.1,0.1-0.2,0.3-0.3,0.5
			c-0.4,0.6-0.8,0.9-1.7,1c-0.7,0.1-1.1,0.1-1.4,0.5c-0.2,0.2-0.2,0.5-0.2,0.7c0,0.4,0.1,0.7,0.4,1c0.4,0.3,0.9,0.4,1.3,0.4l1.5,0
			l-0.2,6.8c0,0.5,0,1.3,0.8,1.7c0.3,0.1,0.5,0.2,0.8,0.2c0.6,0,1.1-0.2,1.4-0.6c0.3-0.4,0.3-0.8,0.4-1.1l0.3-9.9c0-0.3,0-0.6-0.2-1
			C430.1,290.4,429.4,290.3,429,290.3L429,290.3z M439.5,284.6c-0.2-0.2-0.3-0.6-0.3-1c0-0.3,0.1-0.8,0.6-1.1
			c0.3-0.2,0.7-0.4,1.4-0.3c1.6,0,1.8,1.1,1.8,1.5c0,0.3-0.1,0.7-0.3,1c-0.4,0.5-1.1,0.6-1.4,0.6H441
			C440.4,285.2,439.9,285,439.5,284.6 M439.9,279.3c-0.2-0.2-0.4-0.5-0.3-0.9c0-0.8,0.7-1.3,1.7-1.3c1.2,0,1.6,0.7,1.6,1.4
			c0,0.6-0.5,1.3-1.6,1.3h-0.1C440.9,279.7,440.3,279.6,439.9,279.3 M437.7,275.4c-0.9,0.8-1.2,1.8-1.2,2.6c-0.1,1.7,1,2.5,1.4,2.8
			c-0.5,0.2-1.9,0.7-2,2.9c-0.1,2.2,1.7,4.1,4.9,4.2c3.7,0.1,5.2-2,5.3-3.9c0.1-2-1.2-2.9-1.8-3.2c0.4-0.2,0.8-0.4,1.1-0.9
			c0.2-0.3,0.5-0.9,0.6-1.7c0.1-2.3-1.9-3.8-4.7-3.9c-0.1,0-0.1,0-0.2,0C439.6,274.3,438.4,274.8,437.7,275.4 M270.4,266.8l-0.3,9.5
			c0,0.5,0,1.1,0.4,1.5c0.4,0.4,1,0.4,1.4,0.5l6.2,0.2c0.8,0,1.5,0,2-0.4c0.2-0.2,0.5-0.5,0.5-1c0-0.4-0.1-0.8-0.5-1.1
			c-0.4-0.3-0.9-0.4-1.3-0.4l-5-0.2l0.1-2.6l4.3,0.1c0.4,0,1.2,0,1.6-0.7c0.1-0.2,0.2-0.4,0.2-0.7c0-0.5-0.3-0.9-0.7-1.2
			c-0.3-0.2-0.7-0.2-1-0.3l-4.3-0.1l0.1-2.1l4.5,0.1c0.7,0,1.2,0,1.7-0.3c0.4-0.3,0.5-0.8,0.6-1.1c0-0.6-0.3-1.1-0.7-1.3
			c-0.4-0.2-0.9-0.2-1.4-0.2l-6.3-0.2l-0.1,0C270.5,265,270.5,266.2,270.4,266.8 M284,251.5c0,0.9,0.2,2,1.3,2.9
			c0.8,0.7,1.4,0.9,3.9,1.6c1.6,0.5,2.3,0.7,2.2,1.4c0,0.7-0.9,1.2-2,1.2c-0.2,0-1.4-0.1-2-0.6c-0.2-0.2-0.4-0.4-0.5-0.6
			c-0.1-0.2-0.1-0.4-0.2-0.6c-0.1-0.3-0.4-0.7-0.9-1c-0.2-0.1-0.4-0.1-0.7-0.2c-0.9,0-1.7,0.6-1.8,1.7c0,0.5,0.2,1.5,1,2.4
			c1.1,1.2,2.8,1.7,5.1,1.8c1.8,0.1,3.6-0.3,4.8-1.7c0.7-0.8,0.9-1.8,1-2.6c0-1.7-1-3-2.7-3.7c-0.6-0.2-3.4-1-3.9-1.2
			c-0.4-0.2-0.9-0.4-0.8-0.9c0-0.7,0.8-1.1,1.8-1c0.2,0,1.3,0.1,1.9,0.7c0.1,0.1,0.2,0.2,0.2,0.4c0.1,0.1,0.1,0.3,0.2,0.5
			c0.3,0.6,0.9,0.9,1.4,0.9c0.8,0,1.7-0.6,1.7-1.6c0-1.2-1.2-2.6-2.8-3.1c-0.9-0.3-1.8-0.4-2.7-0.4c-0.1,0-0.2,0-0.3,0
			C285.5,247.5,284.1,249.7,284,251.5 M149.8,237.5L149.8,237.5l21.1,9.4c0.7-1.4,1.7-4.2,2-6c0.3-1.9,0.4-4.2-0.1-5.7L149.8,237.5z
			 M355.2,243.5l15.9,15.3l7.5-9.6l-9.9-13.3l-4.7-3.7L355.2,243.5z M298.7,230.9c-0.4,0.3-0.6,0.7-0.6,1.1c0,0.5,0.3,1,0.6,1.3
			c0.4,0.3,0.8,0.3,1.2,0.3l1.8,0.1l-0.3,8.3c0,0.5,0,1.2,0.6,1.8c0.3,0.3,0.7,0.5,1.3,0.5c0.3,0,1,0,1.5-0.7c0.4-0.5,0.4-1,0.5-1.5
			l0.3-8.3l2,0.1c0.3,0,0.8,0,1.3-0.3c0.3-0.2,0.6-0.6,0.6-1.1c0-0.3-0.1-0.7-0.4-1c-0.4-0.5-1.1-0.5-1.6-0.5l-7.6-0.2l-0.1,0
			C299.3,230.7,299,230.7,298.7,230.9 M317,223.7l-1.1,0l0.2-7.4l1.1,0c0.9,0,1.9,0.1,2.5,0.9c0.4,0.5,0.8,1.4,0.7,2.9
			c0,0.7-0.2,1.7-0.5,2.3c-0.6,1.1-1.6,1.3-2.7,1.3C317.2,223.7,317.1,223.7,317,223.7 M312.9,213.8c-0.4,0.4-0.4,1-0.4,1.4
			l-0.3,9.3c0,0.5,0,1.3,0.8,1.8c0.4,0.3,0.9,0.3,1.3,0.3l2.1,0.1c2.4,0.1,4.2,0.1,5.9-1.6c1.3-1.3,2-3,2-4.9
			c0.1-2.8-1.1-4.8-2.6-5.8c-1.3-0.9-2.9-1-3.7-1l-3.3-0.1c-0.1,0-0.1,0-0.2,0C314,213.3,313.4,213.3,312.9,213.8 M398.3,186
			l-5.6,10.9l17.2,13.6l10.1-7.2c0.7-0.5,0.8-1.6,0-2.1l-19.7-15.5c-0.3-0.2-0.5-0.3-0.8-0.3C399,185.2,398.5,185.5,398.3,186
			 M519.7,196.5c0.2,1,0.9,2.8,1.4,4.2c3.3,8.3,11.1,11.2,22,6.8c10.7-4.3,13.5-12.2,10.5-19.7c-0.5-1.3-1.3-3-1.9-4.2L519.7,196.5z
			 M344.2,205.2l16.9-20.9l3.3-1.7c0,0,17.8,16.4,19.3,17.4l-18.5-10.6c-0.5,0.1-0.8,0.1-1.3,0.2L348.3,208L344.2,205.2z M360,173.5
			l-24.8,31.5l0.3,2.3l80.7,63.5l9.6-12.2l-0.8-36.1l-14.4-11.4l-4.1,5.2l-19-14.9l4.1-5.2l-29.3-23.1L360,173.5z M336.8,371.8
			l3.1-60.1c1.1,1.3,2.3,2.4,3.6,3.5l-3,57.3C339.3,372.3,338,372,336.8,371.8 M373.4,307.5c0.3,1.7,0.8,3.3,1.2,5
			c-7.6,4.1-17.6,5.6-24.6,2.1c1.7,0.4,3.4,0.6,5.1,0.6C362.1,315.2,368.9,311.8,373.4,307.5 M308.8,281.1c-0.4-0.3-0.4-0.8-0.2-1.2
			l4.5-5.7c0.3-0.4,0.8-0.4,1.2-0.2l19.9,15.7c1.2,1,1.8,2.4,1.7,3.9c0,0.5-0.1,0.9-0.3,1.4c-0.1-0.1-0.2-0.3-0.4-0.4l-19.9-15.7
			c-0.4-0.3-0.9-0.2-1.2,0.2l-1,5.5L308.8,281.1z M345.7,291.6l15-19.1l6.5,5.1l-20.6,18.8c-0.4,0.7-3.2,5.3-2.4,12.4
			C341.2,299.1,345.1,292.4,345.7,291.6 M317.5,270.1c-0.4-0.3-0.4-0.9-0.1-1.2l4.5-5.7c0.3-0.4,0.8-0.4,1.2-0.2l19.9,15.7
			c1.6,1.3,2.1,3.4,1.4,5.2c-0.1-0.1-0.2-0.2-0.4-0.4L324,267.9c-0.4-0.3-0.9-0.2-1.2,0.1l-1.4,5.2L317.5,270.1z M326.2,259.1
			c-0.4-0.3-0.4-0.8-0.2-1.2l4.5-5.7c0.3-0.4,0.8-0.4,1.2-0.1l9.4,7.4l-2,2.5l-6.4-5.1c-0.4-0.3-0.9-0.2-1.2,0.1l-1.6,5L326.2,259.1
			z M343.1,270.1c-0.8-0.3-1.7-0.7-2.7-1.1c-0.1,0-0.2-0.1-0.3-0.1l-0.1,0l13.7-17.3l21,16.6c0.8,0.7,1.4,1.6,1.5,2.7l0.4,3.1
			c-0.2-0.4-0.5-0.7-0.9-1L357,258.1l-13.2,12.2C343.6,270.2,343.4,270.2,343.1,270.1 M334.8,248.1c-0.4-0.3-0.4-0.8-0.1-1.2
			l4.5-5.7c0.3-0.4,0.9-0.4,1.2-0.1l9.4,7.4l-2,2.5l-6.4-5.1c-0.4-0.3-0.9-0.2-1.2,0.1l-1.1,5.5L334.8,248.1z M253,270.5
			c0-56.9,46.3-103.2,103.2-103.2c56.9,0,103.2,46.3,103.2,103.2c0,46.3-30.7,85.6-72.8,98.6l-7.8-64.2l0,0c4.8-8.3,5.6-9,4.3-19.7
			l-1.8-14.9c-0.3-2.4-1.5-4.5-3.4-6l-6.8-5.4l-17.3-13.5l-10.3-8.1c-2.6-2-6.3-1.6-8.3,1l-4.5,5.7c-0.8,1-1.2,2.2-1.3,3.3
			c-1.1,0.3-2.2,1-2.9,2l-4.5,5.7c-0.8,1-1.2,2.2-1.3,3.3c-1.1,0.3-2.2,1-2.9,2l-4.5,5.7c-0.8,1-1.2,2.2-1.2,3.3
			c-1.1,0.3-2.2,1-2.9,2l-4.5,5.7c-2,2.6-1.6,6.3,1,8.3l10.3,8.1l0.2,0.1l-27.1,34.4c-2.1,2.6-1.6,6.4,1,8.5l7.1,5.6
			c2.6,2,6.4,1.6,8.4-1l27.3-34.6l4.1,3.2l-4.7,61.4C286.9,360,253,319.2,253,270.5 M245.3,270.5c0,61.1,49.7,110.8,110.8,110.8
			c61.1,0,110.8-49.7,110.8-110.8c0-61.1-49.7-110.8-110.8-110.8C295.1,159.7,245.3,209.4,245.3,270.5 M325.4,155.7
			c10.2-2.7,19.7-13.8,30.8-13.8c11.1,0,20.6,11.1,30.8,13.8c4.5,1.2,9.6,1,14.7,0.8c6.8-0.2,13.5-0.5,18.8,2.6
			c9.4,5.4,12.1,19.7,19.7,27.4c7.6,7.6,21.9,10.3,27.4,19.7c5.4,9.3,0.6,23,3.4,33.5c2.7,10.2,13.8,19.7,13.8,30.8
			c0,11.1-11.1,20.6-13.8,30.8c-2.8,10.6,1.9,24.3-3.4,33.6c-5.4,9.4-19.7,12.1-27.4,19.7c-7.6,7.6-10.3,21.9-19.7,27.4
			c-5.3,3.1-12,2.8-18.8,2.6c-5.1-0.2-10.2-0.4-14.7,0.8c-10.2,2.7-19.7,13.8-30.8,13.8c-11.1,0-20.6-11.1-30.8-13.8
			c-4.5-1.2-9.6-1-14.7-0.8c-6.8,0.2-13.5,0.5-18.8-2.6c-9.4-5.4-12.1-19.7-19.7-27.4c-7.6-7.6-21.9-10.3-27.4-19.7
			c-5.4-9.3-0.6-23-3.4-33.6c-2.7-10.2-13.8-19.7-13.8-30.8c0-11.1,11.1-20.6,13.8-30.8c2.8-10.6-1.9-24.3,3.4-33.6
			c5.4-9.4,19.7-12.1,27.4-19.7c7.6-7.6,10.3-21.9,19.7-27.4c5.3-3.1,12-2.8,18.8-2.6c1.8,0.1,3.7,0.1,5.5,0.1
			C319.4,156.6,322.5,156.4,325.4,155.7 M214.8,270.5c0,78,63.4,141.4,141.4,141.4s141.4-63.4,141.4-141.4s-63.4-141.4-141.4-141.4
			S214.8,192.5,214.8,270.5 M361.3,491.8c-0.6-0.5-0.6-1.3-0.7-2l-0.6-13.5c0-0.7-0.1-1.4,0.5-2c0.2-0.2,0.6-0.5,1.3-0.6
			c0.3,0,0.9,0,1.4,0.5c0.5,0.6,0.6,1.2,0.6,1.9l0.5,12.7l5.8-0.2c0.6,0,1.4,0,1.8,0.8c0.2,0.3,0.2,0.6,0.2,0.8c0,0.3,0,0.6-0.2,0.9
			c-0.4,0.8-1.1,0.9-1.7,0.9l-7.2,0.3h0C362.6,492.3,361.9,492.3,361.3,491.8 M344,492.3c-0.2,0-1-0.1-1.4-0.7
			c-0.4-0.7-0.4-1.5-0.4-2.2l0.7-13.4c0-0.7,0.1-1.5,0.7-2.1c0.5-0.5,1.1-0.5,1.3-0.5c0.3,0,1,0.1,1.4,0.8c0.4,0.7,0.4,1.4,0.3,2
			l-0.7,13.3c-0.1,1-0.1,2.7-1.9,2.7L344,492.3z M316.8,489.2c-0.7-0.1-1.9-0.7-1.7-2.3c0.1-0.5,0.3-0.9,0.5-1.3l6-12
			c0.8-1.7,1.3-2.6,3.1-2.3c1.8,0.3,2.1,1.2,2.2,2.4l2.2,13.9c0.1,0.5,0.1,1,0.1,1.5c-0.2,1.2-1.1,1.8-2.3,1.6
			c-1.2-0.2-1.5-1.2-1.6-2.1l-0.2-2.1l-5.3-0.8l-0.7,1.6c-0.4,0.9-0.9,1.9-1.9,1.9C317,489.2,316.9,489.2,316.8,489.2 M386.8,490.3
			c-1.2-0.2-1.4-1.3-1.5-2l-2.2-13.9c-0.1-0.5-0.2-1.1,0.1-1.6c0.3-0.6,1-0.7,1.5-0.8l8.3-1.3c0.4-0.1,0.8-0.1,1.1,0
			c0.4,0.2,0.9,0.6,1,1.4c0.1,0.3,0.1,0.7-0.1,1c-0.3,0.8-1,0.9-1.6,1l-6.5,1l0.6,3.7l5.9-0.9c0.4-0.1,0.7-0.1,1.1,0
			c0.3,0.1,1,0.4,1.1,1.3c0.1,0.7-0.1,1.3-0.7,1.6c-0.3,0.2-0.6,0.2-1,0.3l-5.9,0.9l0.7,4.6l6.6-1.1c0.6-0.1,1.3-0.2,1.9,0.6
			c0.2,0.3,0.3,0.5,0.3,0.8c0.1,0.9-0.3,1.4-0.6,1.6c-0.3,0.2-0.7,0.3-1,0.3l-8.3,1.3c-0.2,0-0.4,0.1-0.7,0.1
			C386.9,490.3,386.9,490.3,386.8,490.3 M411.4,483.3l-3.9-13.5c-0.2-0.6-0.3-1.2,0-1.8c0.3-0.5,1-0.7,1.4-0.9l3.4-1
			c1.8-0.5,4.3-1.2,6.8,0.5c2,1.3,3.3,3.5,4,5.9c0.6,2.2,0.8,4.5,0.1,6.6c-1.1,3.3-3.7,4.1-5.7,4.8l-3.4,1c-0.4,0.1-0.7,0.2-0.9,0.2
			C412.2,485,411.8,484.4,411.4,483.3 M289.9,482.6c-0.7-0.2-1-0.7-1-0.8c-0.3-0.7-0.1-1.5,0.1-2.2l3.7-13.1
			c0.2-0.6,0.3-1.1,0.8-1.6c0.6-0.5,1.3-0.6,2.1-0.4c1.3,0.4,1.6,1,1.8,2.1l2.6,11.6c0.1-0.4,0.2-0.7,0.3-1.1
			c0.1-0.4,0.2-0.7,0.3-1.1l2-7.1c0.2-0.6,0.4-1.3,1-1.6c0.3-0.2,0.8-0.4,1.4-0.2c0.4,0.1,0.7,0.4,0.7,0.4c0.7,0.7,0.4,1.7,0.2,2.4
			l-3.8,13.3c-0.3,1-0.8,2.5-2.9,1.9c-1.3-0.4-1.4-1.2-1.7-2.5l-2.4-11.5c-0.2,0.8-0.2,1-0.5,1.9l-2.1,7.2c-0.2,0.8-0.7,2.3-1.9,2.3
			C290.3,482.7,290.1,482.7,289.9,482.6 M353.3,458.1c0.2-0.1,1.3-0.5,1.3-1.9c0-0.7-0.3-1.2-0.7-1.5c-0.5-0.4-0.8-0.5-3-1.2
			c-2.7-0.9-5.8-1.9-5.7-5.7c0.1-3.4,2.5-5.5,6.8-5.4c4.2,0.1,6.5,2.5,6.4,4.4c0,1.3-1.1,1.9-2,1.9c-0.5,0-0.9-0.2-1.4-1
			c-0.1-0.2-0.2-0.4-0.3-0.6c-0.5-0.8-1.4-1.3-2.8-1.3c-1.7,0-2.9,0.6-2.9,1.8c0,0.4,0.1,0.8,0.4,1.1c0.3,0.3,0.9,0.5,2.1,0.9
			c3.7,1.2,4,1.3,4.9,1.9c1,0.8,2.1,2.2,2,4.3c0,1.9-0.9,3.4-2.1,4.3c-1.4,1.1-3.2,1.5-5,1.4c-1.7,0-3.3-0.4-4.5-1.1
			c-2.5-1.4-2.6-3.2-2.6-3.7c0-1.3,1-2,1.9-2c0.8,0,1.3,0.6,1.8,1.5c0.5,0.9,1.1,1.9,3.5,1.9h0.2
			C352.3,458.3,352.8,458.3,353.3,458.1 M382,448.2l-0.6-4.6c-0.1-0.7-0.2-1.4,0.2-2c0.1-0.1,0.4-0.7,1.3-0.8c0.1,0,0.5-0.1,0.8,0
			c1.1,0.4,1.3,1.5,1.4,2.3l1.7,13.5c0.1,0.6,0.2,1.4-0.2,2c-0.4,0.8-1.1,0.9-1.3,0.9c-0.1,0-0.4,0-0.7,0c-1.2-0.3-1.4-1.5-1.5-2.3
			l-0.7-5.5l-6,0.8l0.7,5.5c0.1,0.8,0.3,2.5-1.5,2.8c-0.7,0.1-1.1-0.1-1.5-0.4c-0.5-0.5-0.7-1.3-0.7-1.9l-1.7-13.5
			c-0.1-0.7-0.2-1.5,0.3-2.1c0.3-0.5,0.7-0.7,1.3-0.8c0.5-0.1,1.1,0.1,1.5,0.5c0.5,0.6,0.6,1.3,0.7,1.9l0.6,4.5L382,448.2z
			 M328.5,459.5l-8.3-1.4c-0.3,0-0.6-0.1-0.8-0.2c-1.1-0.6-0.9-1.7-0.8-2.4l2.4-13.9c0.1-0.5,0.2-1.1,0.6-1.5
			c0.5-0.5,1.1-0.4,1.7-0.3l8.2,1.4c0.4,0.1,0.8,0.2,1.1,0.4c0.3,0.3,0.7,0.8,0.5,1.7c0,0.3-0.1,0.6-0.4,0.9
			c-0.5,0.6-1.2,0.5-1.8,0.4l-6.5-1.1l-0.6,3.7l5.9,1c0.4,0.1,0.7,0.1,1,0.3c0.3,0.2,0.8,0.7,0.6,1.6c-0.1,0.7-0.5,1.2-1.1,1.3
			c-0.4,0.1-0.7,0-1,0l-5.9-1l-0.8,4.6l6.6,1.1c0.6,0.1,1.3,0.3,1.6,1.2c0.1,0.3,0.1,0.6,0.1,0.8c-0.1,0.9-0.7,1.3-1.1,1.3
			c-0.1,0-0.3,0.1-0.4,0.1C329,459.6,328.8,459.5,328.5,459.5 M409.8,442.3l-0.3-5.5c-0.1-1.5,0-2.6,1.9-3.1c2.5-0.8,3.3-0.1,3.9,2
			l3.9,12.8c0.2,0.7,0.7,2.3-0.9,2.8c-1.7,0.5-2.2-1.1-2.4-1.8l-1.6-5.3c-0.5-1.8-0.6-2.2-1.7-6.4c0.4,3.8,0.4,4.9,0.6,8.1l0.2,4.8
			c0,1.1,0,2-1.8,2.5c-1.7,0.5-2.2-0.2-2.8-1.2l-2.3-3.8c-2-3.4-2.2-3.7-4.2-7.4c1,2.7,1.2,3.4,2.2,6.6l1.5,4.9
			c0.2,0.8,0.7,2.4-0.9,2.9c-1.6,0.5-2.1-1.1-2.4-1.9l-3.9-12.9c-0.2-0.7-0.5-1.8,0.2-2.7c0.4-0.5,1.3-0.8,1.8-1
			c2-0.6,2.6,0,3.3,1.2l2.8,4.7c1,1.7,1.2,2.1,3.5,6.4C410.1,446.4,410.1,445.9,409.8,442.3 M292.4,450.8c-0.3-0.1-0.5-0.2-0.7-0.4
			c-0.9-0.8-0.6-2-0.3-2.7l4.2-12.7c0.2-0.6,0.5-1.5,1.2-1.8c0.7-0.4,1.5-0.2,2,0l4.5,1.5c1.5,0.5,3.1,1.1,4,2.7
			c1,1.7,0.5,3.4,0.3,4c-0.6,1.8-1.7,3.2-3.5,3.4c-0.3,0-0.6,0-1,0c0.3,0.2,0.5,0.4,0.8,0.6c0.8,0.9,0.7,2.1,0.4,3.8
			c-0.1,0.5-0.2,0.9-0.3,1.4c-0.1,0.3-0.1,0.6-0.1,1c0,0.2,0,0.4,0,0.7c0,0.3-0.1,0.5-0.1,0.6c-0.3,0.8-1.1,1.4-2.2,1.1
			c-1.9-0.6-1.5-2.6-1.3-4c0.1-0.4,0.2-0.8,0.2-1.3c0.4-2.1-0.2-2.5-1.8-3.1l-2.5-0.8l-1.4,4.2c-0.2,0.5-0.4,1.2-0.9,1.6
			c-0.4,0.3-0.7,0.4-1,0.4C292.7,450.9,292.5,450.8,292.4,450.8 M268.3,440.2c-0.3-0.2-0.6-0.4-0.8-0.7c-0.5-0.9-0.1-1.7,0.2-2.4
			l6-12.1c0.3-0.6,0.7-1.4,1.6-1.6c0.7-0.2,1.3,0.2,1.8,0.4l6.7,3.3c0.3,0.2,0.7,0.4,0.9,0.7c0.4,0.5,0.4,1.1,0.1,1.7
			c-0.1,0.2-0.3,0.5-0.6,0.8c-0.7,0.5-1.4,0.1-2-0.1l-5.6-2.8L275,431l5,2.5c0.5,0.2,1.2,0.6,1.2,1.5c0,0.3-0.1,0.5-0.2,0.8
			c-0.7,1.5-2,0.8-2.5,0.6l-4.9-2.4l-2.4,4.8c-0.2,0.4-0.5,0.9-0.8,1.2c-0.4,0.4-0.8,0.5-1.2,0.5
			C268.7,440.5,268.4,440.3,268.3,440.2 M434.1,442.4l-6.2-12.6c-0.2-0.4-0.5-1-0.4-1.6c0.1-0.7,0.7-1,1.2-1.2l7.5-3.7
			c0.4-0.2,0.7-0.3,1.1-0.3c0.4,0,1,0.3,1.4,1c0.1,0.3,0.2,0.6,0.2,0.9c-0.1,0.8-0.7,1.1-1.2,1.4l-5.9,2.9l1.6,3.4l5.3-2.6
			c0.3-0.2,0.6-0.3,1-0.3c0.3,0,1.1,0.1,1.5,0.9c0.3,0.6,0.3,1.3-0.1,1.8c-0.2,0.3-0.5,0.4-0.9,0.6l-5.4,2.6l2.1,4.2l6-2.9
			c0.6-0.3,1.2-0.6,2,0c0.3,0.2,0.4,0.4,0.5,0.6c0.4,0.8,0.1,1.5-0.1,1.7c-0.2,0.3-0.5,0.4-0.9,0.6l-7.6,3.7
			c-0.3,0.1-0.5,0.3-0.8,0.3c-0.1,0-0.2,0-0.2,0C434.8,443.9,434.3,443,434.1,442.4 M272.7,469.3c-25.6-10.7-48.5-26.1-68.3-45.7
			c-0.7-0.7-0.7-1.8,0-2.4c0.7-0.7,1.8-0.7,2.4,0c19.5,19.3,42.1,34.4,67.2,45c0.9,0.4,1.3,1.4,0.9,2.3c-0.3,0.7-0.9,1.1-1.6,1.1
			C273.1,469.4,272.9,469.3,272.7,469.3 M435.2,469.2c-0.4-0.9,0.1-1.9,1-2.2c26.3-10.7,49.9-26.4,70-46.5c0.7-0.7,1.8-0.7,2.4,0
			c0.7,0.7,0.7,1.8,0,2.4c-20.5,20.5-44.4,36.4-71.2,47.3c-0.2,0.1-0.4,0.1-0.6,0.1C436.1,470.3,435.4,469.9,435.2,469.2
			 M253.3,431.3c-0.4-0.1-0.7-0.3-1-0.5l-6.9-4.8c-0.3-0.2-0.5-0.3-0.7-0.6c-0.7-0.9-0.1-1.9,0.3-2.4l7.9-11.6
			c0.3-0.4,0.6-0.9,1.2-1.1c0.7-0.2,1.2,0.1,1.6,0.4l6.9,4.7c0.3,0.2,0.6,0.5,0.8,0.8c0.2,0.4,0.3,1-0.2,1.7
			c-0.2,0.3-0.4,0.5-0.7,0.6c-0.8,0.3-1.3,0-1.8-0.4l-5.4-3.7l-2.1,3.1l4.9,3.4c0.3,0.2,0.6,0.4,0.8,0.7c0.2,0.3,0.4,1-0.1,1.7
			c-0.4,0.6-1,0.9-1.6,0.7c-0.3-0.1-0.6-0.3-0.9-0.5l-4.9-3.4l-2.6,3.9l5.5,3.8c0.5,0.4,1.1,0.8,1,1.7c0,0.3-0.2,0.6-0.3,0.8
			c-0.4,0.6-1,0.8-1.4,0.8C253.4,431.3,253.4,431.3,253.3,431.3 M463.1,419.3c-0.2-0.3-0.4-0.6-0.6-0.9l-4.2-6.1
			c-0.3-0.5-0.7-1.1-0.6-1.8c0-0.4,0.2-0.9,0.7-1.2c0.4-0.3,0.7-0.3,0.8-0.3c1-0.1,1.6,0.7,2,1.4l7.9,11.4c0.6,0.8,1.4,2.2-0.4,3.4
			c-1.1,0.7-1.8,0.4-3.1-0.3l-10.4-5.4c0.5,0.6,0.6,0.8,1.2,1.6l4.3,6.2c0.5,0.8,1.6,2.3,0.1,3.3c-0.6,0.4-1.2,0.3-1.3,0.3
			c-0.8-0.2-1.2-0.9-1.6-1.4l-7.7-11.2c-0.4-0.5-0.7-1-0.7-1.6c-0.1-0.8,0.3-1.4,1-1.8c1.1-0.8,1.7-0.6,2.8-0.1l10.6,5.4
			C463.5,419.9,463.3,419.6,463.1,419.3 M223.1,407.7c-0.2-0.2-0.3-0.4-0.5-0.6c-0.5-1.1,0.3-2,0.8-2.6l9.1-9.8
			c0.5-0.5,1.1-1.1,1.8-1.2c0.8-0.1,1.4,0.5,1.8,0.9l3.5,3.2c1.2,1.1,2.4,2.3,2.6,4.1c0.2,2-1,3.3-1.4,3.7c-1.3,1.4-2.9,2.2-4.6,1.7
			c-0.3-0.1-0.6-0.2-0.9-0.4c0.2,0.3,0.4,0.6,0.4,0.9c0.4,1.2-0.3,2.2-1.2,3.6c-0.3,0.4-0.6,0.8-0.8,1.2c-0.2,0.3-0.4,0.5-0.5,0.8
			c-0.1,0.2-0.2,0.4-0.3,0.6c-0.1,0.3-0.3,0.4-0.3,0.5c-0.6,0.6-1.6,0.8-2.4,0.1c-1.4-1.3-0.3-3,0.5-4.1c0.2-0.3,0.5-0.7,0.8-1.1
			c1.2-1.8,0.8-2.4-0.4-3.6l-1.9-1.8l-3,3.3c-0.4,0.4-0.9,0.9-1.5,1.1c-0.2,0-0.3,0.1-0.4,0.1C223.7,408.2,223.3,407.9,223.1,407.7
			 M470,402.5c-0.2-0.2-0.4-0.5-0.5-0.8c-0.2-0.8,0.3-1.3,0.7-1.7l7.2-6.8c0.4-0.4,1-0.9,1.9-0.6c0.3,0.1,0.5,0.3,0.7,0.5
			c0.6,0.6,0.6,1.3,0.4,1.7c-0.1,0.3-0.4,0.6-0.7,0.9l-2.2,2.1l8.7,9.3c0.2,0.2,0.5,0.5,0.6,0.7c0.5,0.7,0.6,1.6-0.2,2.4
			c-0.5,0.5-1,0.6-1.4,0.5c-0.8-0.1-1.3-0.6-1.8-1.1l-8.7-9.3l-2.2,2.1c-0.3,0.2-0.8,0.7-1.4,0.7C470.8,403.1,470.4,402.9,470,402.5
			 M195,390.6c0-3.2,2.6-5.8,5.8-5.8c3.2,0,5.8,2.6,5.8,5.8c0,3.2-2.6,5.8-5.8,5.8C197.7,396.4,195,393.8,195,390.6 M505.7,390.6
			c0-3.2,2.6-5.8,5.8-5.8c3.2,0,5.8,2.6,5.8,5.8c0,3.2-2.6,5.8-5.8,5.8C508.3,396.4,505.7,393.8,505.7,390.6 M518.5,313.3l5.9-20.4
			l1.7,0.5c-0.6,2,0.1,3.4,3.4,4.4l43.2,12.4c2.4,0.7,4.3-0.2,4.8-2l1.7,0.5c-0.9,3.7-2.6,11.8-4.9,19.8
			c-4.6,16.1-11.2,28-27.3,23.4c-8.2-2.3-12.4-9.4-13.2-15.9c-5-0.1-13.1,1.1-18.5,2.9c-1.7,0.6-2.6,1.2-3.2,3.3l-1.7-0.5l5.3-18.3
			c4.5-1.1,12.5-1.1,18.3-0.8c0.2-0.9,0.5-2.4,0.9-3.9c0.4-1.3,0.9-2.7,1.3-3.8l-10.7-3.1c-3.3-0.9-4.6-0.2-5.2,1.9L518.5,313.3z
			 M136.1,296.7l43.9-11.3c3.5-0.9,4.3-2.1,3.7-4.2l1.7-0.4l5,19.4l-1.7,0.4c-0.5-2.1-2-2.8-5.3-1.9l-24.6,6.3l0,0.2l28.2,6.1
			l1.6,6.2l-21.9,18.2l0.1,0.2l24.6-6.3c3.4-0.9,4.3-2.1,3.7-4.3l1.7-0.4l5,19.4l-1.7,0.4c-0.5-2.1-1.8-2.9-5.3-2l-43.6,11.2
			c-2.7,0.7-3.4,2.1-2.9,4.1l-1.7,0.4l-5-19.4c1-0.2,2.2-1,3.6-2.2l21.1-17.7l0-0.2L139,313c-1.8-0.4-3.3-0.7-4.2-0.3l-4.6-17.7
			l1.7-0.4c0.4,1.5,1.3,2.4,2.9,2.4C135.2,296.9,135.6,296.8,136.1,296.7 M528.5,241.1l45-2.8c2.4-0.2,4.1-1.7,4-3.5l1.7-0.1
			l2.2,35.7c0.1,1.2,0.7,3.9,0.9,4.6l-14.3,3.8l-0.7-1.7c2.4-1.5,2.9-2.5,2.7-5.3l-1.2-18.4l-9.9,0.6l1.1,16.8
			c0.1,1.8,0.8,2.7,2.6,2.6l0.1,1.9l-16.5,1l-0.1-1.9c1.7-0.1,2.3-1.1,2.2-2.9l-1.1-16.8l-12.2,0.8l1.2,18.6c0.2,3,1.1,3.9,3.9,5.1
			l-0.5,2l-15.8-2.4c0.4-1.4,0.7-3.9,0.6-5.4l-2.2-35.1l1.8-0.1c0.1,2,1.4,3,3.8,3C528.1,241.2,528.3,241.2,528.5,241.1 M143.3,226
			l45.5-7.5c3.5-0.6,4.1-1.2,4.4-3.2l1.8,0.3l-3.5,21.9l-1.8-0.3c0.3-2.1-0.4-3.3-1.9-3.5c-0.5-0.1-1.3,0.1-2.1,0.2l-1.4,0.2
			c0.4,2.4,0.4,5.8-0.1,8.9c-0.5,2.9-1.5,6-2.7,8.3l1.4,0.8c0.8,0.4,1.4,0.7,1.9,0.8c1.6,0.3,2.4-0.7,2.7-2.4l1.8,0.3l-3.3,20.9
			l-1.8-0.3c0.3-2,0.1-2.7-3-4.4l-41.4-21.8c-0.8-0.4-2.5-1.2-3.3-1.3c-1.3-0.2-2.1,0.3-2.3,1.5l-1.8-0.3l3.4-21.3l1.8,0.3
			c-0.2,1.2,0.5,2,2,2.2c0.2,0,0.5,0.1,0.8,0.1C141,226.4,141.9,226.3,143.3,226 M509.6,184.7l41.6-16.7c2.3-0.9,3.2-2.8,2.6-4.5
			l1.7-0.7c1.9,3.7,4.9,10.2,8.1,18.1c8.2,20.4,1.1,34.4-14.6,40.7c-16.6,6.6-31.2,2.5-40.3-20.1c-2.6-6.6-5.3-14-6.2-17.5l1.7-0.7
			c0.5,1.3,1.3,2,2.7,2C507.5,185.4,508.4,185.1,509.6,184.7 M149.5,179.1l10.4-18.5l1.6,0.9c-1,1.7-0.6,3.4,2.2,5l34.2,19.1
			l9.4-16.8c1.2-2.2,0.8-3.9-0.8-5.9l1.5-1.4l11.9,10.6c-1.1,0.9-2.3,2.3-3.1,3.6L199.3,207l-1.6-0.9c1-1.8,0.5-3.4-2.3-5l-39.3-22
			c-2.1-1.2-4.2-0.7-5.1,0.9L149.5,179.1z M488.3,156.6l35.1-27.8c1.9-1.5,2.3-3.6,1.2-5.1l1.4-1.1l13.2,16.6l-1.4,1.1
			c-1.2-1.5-2.9-1.9-5.5,0.2l-34.8,27.5c-2.6,2.1-3,3.7-1.6,5.4l-1.4,1.1l-13.2-16.6l1.4-1.1c0.6,0.8,1.4,1.3,2.3,1.3
			C485.8,158.2,486.9,157.7,488.3,156.6 M205.6,270.5c0-83.1,67.4-150.6,150.6-150.6c83.2,0,150.6,67.4,150.6,150.6
			c0,83.2-67.4,150.6-150.6,150.6C273,421.1,205.6,353.6,205.6,270.5 M188.8,118.7l15.6-14.3l1.2,1.3c-1.4,1.3-1.6,3,0.6,5.5
			l26.4,28.9l14.2-13c1.9-1.7,2-3.5,1.1-5.8l1.9-0.8l8,13.8c-1.3,0.5-2.9,1.5-4,2.5l-26.4,24.2l-1.2-1.3c1.6-1.4,1.6-3.1-0.6-5.5
			l-30.4-33.2c-1.6-1.8-3.7-2-5.1-0.8L188.8,118.7z M469,144.5c-0.9-0.6-6.7-3-11.4-6.4c-12.6-9.1-16.5-25.2-5.3-40.6
			c11.6-16,29-15.6,40.2-7.5c4.2,3,8.8,7.8,9.8,8.5c1.4,1,2.8,1.2,2.8,1.2l-7.3,15.5l-2.4-0.8c1.7-5.2-3.4-10-7.2-12.8
			c-6.9-5-16.3-5.4-23.7,4.9c-7.5,10.3-3.4,18.9,3.2,23.7c5.6,4.1,10.2,5.5,14.9,2.1l1.6,2.1L471,146.8
			C471,146.8,470.4,145.5,469,144.5 M245.3,73.6l32.7-14.5c1.1-0.5,3.4-2,4-2.4l8.5,12.1l-1.3,1.2c-2.3-1.7-3.4-1.8-5.9-0.7
			l-16.8,7.5l4,9l15.4-6.8c1.6-0.7,2.3-1.7,1.5-3.4l1.7-0.8l6.7,15.1l-1.7,0.8c-0.7-1.6-1.9-1.8-3.5-1l-15.4,6.8l5,11.2l17.1-7.6
			c2.8-1.2,3.3-2.4,3.4-5.4l2.1-0.2l3.3,15.6c-1.5,0.1-3.9,0.7-5.3,1.4l-32.1,14.3l-0.7-1.6c2-0.9,2.4-2.7,1.3-5.2l-18.3-41.2
			c-1-2.2-3-3.3-4.7-2.6L245.3,73.6z M399.3,92.1c0.4-2.2-0.8-3.9-10.9-11c-8.6-6-12.2-11.8-10.7-18.9c2.1-10.2,11.4-16.2,26.2-13.2
			c3.8,0.8,8.6,3.1,10.8,3.6c1.4,0.3,2.4,0.2,3,0.1L416,69.4l-2.4,0c-0.2-1.5-0.7-3.1-2.1-4.5c-1.7-1.7-3.9-3-9.4-4.1
			c-6.1-1.2-8.8,0.6-9.2,2.7c-0.4,2.2,1.6,4.2,9.9,10c7.5,5.2,13,11,11.1,20.4c-2.1,10.6-9.8,16.8-25.1,13.7c-5-1-11.8-4.6-14.3-5.1
			c-1.4-0.3-2.5-0.2-3.1,0l0.8-18.6l3-0.3c0.3,1.7,0.5,3.5,1.5,5.1c1.9,2.9,4.9,5.2,12.1,6.7c1.7,0.3,3.1,0.5,4.3,0.5
			C397.1,95.9,398.9,94.4,399.3,92.1 M313.7,48.8l38-4c1.2-0.1,2.6-0.5,3.3-0.8l4.6,14.4l-2.1,1c-0.9-2-2.2-3.3-4-3.1l-12.6,1.3
			l4.1,38.8c0.4,3.4,1.5,4.7,3.7,4.5l0.2,1.8l-21,2.2l-0.2-1.8c2.2-0.2,3.1-1.7,2.7-5.1L326.2,59l-12.7,1.3
			c-1.8,0.2-2.9,1.6-3.2,3.9l-2.4-0.5l1.4-15c0.3,0.1,1,0.2,1.9,0.2C312,48.9,312.7,48.9,313.7,48.8 M168.7,414.4L168.7,414.4
			l-1.5-1.9l0,0c-29.8-39.6-47.5-88.8-47.5-142C119.7,140.1,225.8,34,356.2,34v2.3c-129.1,0-234.2,105-234.2,234.2
			c0,52.7,17.5,101.5,47.1,140.6l18.4-14.1c-1-2-1.5-4.2-1.5-6.4c0-8.2,6.6-14.8,14.8-14.8c3.6,0,7,1.3,9.6,3.6l17.1-13.1h0
			c-20-26.7-31.8-59.9-31.8-95.7c0-88.4,71.9-160.3,160.3-160.3v2.3c-87.1,0-158,70.9-158,158c0,87.2,71,158,158,158v2.3
			c-51.6,0-97.7-24.5-127.1-62.8l0,0l-18.7,14.4c-2.3-2.6-5.7-4.3-9.4-4.3c-6.9,0-12.5,5.6-12.5,12.5c0,2.6,0.8,5,2.1,7l-20,15.4
			l0,0c44.3,57.6,112.5,91.7,185.7,91.7v2.3C280.9,506.9,212.6,471.4,168.7,414.4 M590.3,270.5c0-129.1-105-234.2-234.2-234.2V34
			c130.4,0,236.4,106.1,236.4,236.4c0,53.3-17.7,102.5-47.5,142v0l-1.4,1.8l-0.1,0.1c-43.9,57-112.1,92.5-187.5,92.5v-2.3
			c73.2,0,141.4-34.1,185.7-91.7l0,0l-20-15.4c1.4-2,2.2-4.4,2.2-7c0-6.9-5.6-12.5-12.5-12.5c-3.8,0-7.2,1.7-9.4,4.3L483.3,368l0,0
			c-29.4,38.2-75.5,62.8-127.1,62.8v-2.3c87,0,158-70.8,158-158c0-87.1-70.9-158-158-158v-2.3c88.4,0,160.3,71.9,160.3,160.3
			c0,35.8-11.8,69-31.8,95.7l17.1,13.1c2.7-2.3,6.1-3.6,9.6-3.6c8.2,0,14.8,6.6,14.8,14.8c0,2.2-0.5,4.4-1.5,6.4l18.4,14.1
			C572.8,371.9,590.3,323.2,590.3,270.5 M112.3,270.5c0,134.7,109.2,243.8,243.8,243.8c134.7,0,243.8-109.2,243.8-243.8
			c0-134.7-109.2-243.8-243.8-243.8C221.5,26.6,112.3,135.8,112.3,270.5 M176.9,449.7c-47.9-47.9-74.3-111.5-74.3-179.3
			c0-67.7,26.4-131.4,74.3-179.3C224.8,43.3,288.5,17,356.2,17c67.7,0,131.4,26.4,179.3,74.3c47.9,47.9,74.3,111.5,74.3,179.3
			c0,67.7-26.4,131.4-74.3,179.3C487.6,497.6,423.9,524,356.2,524C288.5,524,224.8,497.6,176.9,449.7 M349.2,0
			c-69.7,1.7-134.9,29.7-184.3,79.2c-51.1,51.1-79.2,119.1-79.2,191.3c0,72.3,28.1,140.2,79.2,191.3c51.1,51.1,119,79.2,191.3,79.2
			c72.3,0,140.2-28.1,191.3-79.2c51.1-51.1,79.2-119.1,79.2-191.3c0-72.3-28.1-140.2-79.2-191.3C498,29.7,432.8,1.7,363.1,0H349.2z"
			/>
	</defs>
	<clipPath id="SVGID_4_">
		<use xlink:href="#SVGID_3_"  style="overflow:visible;"/>
	</clipPath>
	<g class="st1">
		<g>
			<defs>
				<polygon id="SVGID_5_" points="-136.7,116 201.6,763.1 848.7,424.7 510.4,-222.3 				"/>
			</defs>
			<clipPath id="SVGID_6_">
				<use xlink:href="#SVGID_5_"  style="overflow:visible;"/>
			</clipPath>
			<g class="st2">
				<defs>
					
						<rect id="SVGID_7_" x="-308.9" y="-394.6" transform="matrix(0.8862 -0.4633 0.4633 0.8862 -84.7388 195.7146)" width="1329.8" height="1329.8"/>
				</defs>
				<clipPath id="SVGID_8_">
					<use xlink:href="#SVGID_7_"  style="overflow:visible;"/>
				</clipPath>
				<g style="clip-path:url(#SVGID_8_);">
					
						<image style="overflow:visible;" width="7479" height="7478" xlink:href="B577F9CB88FE2F65.jpg"  transform="matrix(0.24 0 0 0.24 -541.4969 -627.0202)">
					</image>
				</g>
			</g>
		</g>
	</g>
</g>
<g>
	<defs>
		<path id="SVGID_9_" d="M323.2,478l-2.1,4.6l3.6,0.6l-0.5-4.6c-0.1-1.4-0.1-1.7-0.1-2.9C323.8,476.5,323.6,477.2,323.2,478
			 M412.8,469.6l-1.3,0.4l3.3,11.2l1.7-0.5c0.9-0.3,2-0.6,2.6-1.5c1-1.4,0.7-3.7,0.2-5.5c-0.4-1.5-1-2.5-1.6-3.2
			c-0.8-1-1.6-1.3-2.6-1.3C414.4,469.1,413.6,469.3,412.8,469.6 M297.4,441.5l2.5,0.8c0.7,0.2,1.5,0.5,2.3,0.3
			c0.7-0.2,1.3-0.7,1.6-1.7c0.1-0.3,0.3-1,0.1-1.6c-0.3-0.9-1.2-1.2-2.4-1.6l-2.6-0.9L297.4,441.5z M231.5,401.4l2,1.8
			c0.6,0.5,1.2,1.1,2,1.2c0.7,0.1,1.5-0.1,2.1-0.9c0.2-0.2,0.7-0.7,0.7-1.4c0.1-0.9-0.6-1.6-1.5-2.5l-2-1.8L231.5,401.4z
			 M396.2,326.6c0,1.2,0.9,1.6,1.4,1.6c0.5,0,1-0.3,1.3-0.7c0.1-0.2,0.2-0.4,0.3-0.6c0.2-0.5,0.5-1.2,1.5-1.2c0.8,0,1.3,0.6,1.3,1.4
			c0,1-0.7,2-2.1,3.1c-0.9,0.8-1.9,1.4-2.8,2.2c-0.9,0.7-1.4,1.1-1.4,1.9c0,0.3,0.1,1.2,1,1.6c0.3,0.1,0.7,0.1,1.1,0.2l6,0.2
			c0.4,0,0.7,0,1.1-0.3c0.2-0.1,0.5-0.4,0.5-1c0-0.5-0.3-1-0.7-1.3c-0.3-0.2-0.7-0.2-0.9-0.2l-3.3-0.1c0.4-0.3,0.9-0.6,1.3-0.9
			c1.9-1.5,3.6-3.1,3.7-5.3c0.1-2-1.3-4.2-4.5-4.3c-0.1,0-0.1,0-0.2,0C397.5,322.8,396.3,325.4,396.2,326.6 M545.4,322.6
			c-2.4,8.3-0.8,12.9,5.2,14.7c5.6,1.6,9.4-1.4,11.9-10.2c0.5-1.6,0.8-3.2,1.1-4.3l-16.6-4.8C546.3,319.6,545.8,321.2,545.4,322.6
			 M412.6,314c0-0.3,0-0.5,0-0.8c0-0.7,0.1-1.5,0.3-2.2c0.3-1.1,0.9-1.8,1.8-1.8c1.6,0.1,1.8,2.1,1.7,4.1c0,1-0.1,3.8-1.9,3.8h0
			C412.8,317.1,412.6,314.9,412.6,314 M411.8,307.2c-1.8,1.3-2.4,3.5-2.5,5.6c-0.1,3.1,0.6,4.6,1.5,5.6c0.9,1,2,1.5,3.3,1.5
			c1,0,1.9-0.2,2.7-0.6c1.1-0.7,2-1.8,2.4-3.3c0.2-0.6,0.4-1.5,0.4-2.8c0-1.6-0.1-4.4-2.1-6c-0.8-0.6-1.8-0.9-2.9-1
			c-0.1,0-0.1,0-0.2,0C414,306.3,412.9,306.4,411.8,307.2 M429,290.3c-0.8,0-1.2,0.5-1.4,0.7c-0.1,0.1-0.2,0.3-0.3,0.5
			c-0.4,0.6-0.8,0.9-1.7,1c-0.7,0.1-1.1,0.1-1.4,0.5c-0.2,0.2-0.2,0.5-0.2,0.7c0,0.4,0.1,0.7,0.4,1c0.4,0.3,0.9,0.4,1.3,0.4l1.5,0
			l-0.2,6.8c0,0.5,0,1.3,0.8,1.7c0.3,0.1,0.5,0.2,0.8,0.2c0.6,0,1.1-0.2,1.4-0.6c0.3-0.4,0.3-0.8,0.4-1.1l0.3-9.9c0-0.3,0-0.6-0.2-1
			C430.1,290.4,429.4,290.3,429,290.3L429,290.3z M439.5,284.6c-0.2-0.2-0.3-0.6-0.3-1c0-0.3,0.1-0.8,0.6-1.1
			c0.3-0.2,0.7-0.4,1.4-0.3c1.6,0,1.8,1.1,1.8,1.5c0,0.3-0.1,0.7-0.3,1c-0.4,0.5-1.1,0.6-1.4,0.6H441
			C440.4,285.2,439.9,285,439.5,284.6 M439.9,279.3c-0.2-0.2-0.4-0.5-0.3-0.9c0-0.8,0.7-1.3,1.7-1.3c1.2,0,1.6,0.7,1.6,1.4
			c0,0.6-0.5,1.3-1.6,1.3h-0.1C440.9,279.7,440.3,279.6,439.9,279.3 M437.7,275.4c-0.9,0.8-1.2,1.8-1.2,2.6c-0.1,1.7,1,2.5,1.4,2.8
			c-0.5,0.2-1.9,0.7-2,2.9c-0.1,2.2,1.7,4.1,4.9,4.2c3.7,0.1,5.2-2,5.3-3.9c0.1-2-1.2-2.9-1.8-3.2c0.4-0.2,0.8-0.4,1.1-0.9
			c0.2-0.3,0.5-0.9,0.6-1.7c0.1-2.3-1.9-3.8-4.7-3.9c-0.1,0-0.1,0-0.2,0C439.6,274.3,438.4,274.8,437.7,275.4 M270.4,266.8l-0.3,9.5
			c0,0.5,0,1.1,0.4,1.5c0.4,0.4,1,0.4,1.4,0.5l6.2,0.2c0.8,0,1.5,0,2-0.4c0.2-0.2,0.5-0.5,0.5-1c0-0.4-0.1-0.8-0.5-1.1
			c-0.4-0.3-0.9-0.4-1.3-0.4l-5-0.2l0.1-2.6l4.3,0.1c0.4,0,1.2,0,1.6-0.7c0.1-0.2,0.2-0.4,0.2-0.7c0-0.5-0.3-0.9-0.7-1.2
			c-0.3-0.2-0.7-0.2-1-0.3l-4.3-0.1l0.1-2.1l4.5,0.1c0.7,0,1.2,0,1.7-0.3c0.4-0.3,0.5-0.8,0.6-1.1c0-0.6-0.3-1.1-0.7-1.3
			c-0.4-0.2-0.9-0.2-1.4-0.2l-6.3-0.2l-0.1,0C270.5,265,270.5,266.2,270.4,266.8 M284,251.5c0,0.9,0.2,2,1.3,2.9
			c0.8,0.7,1.4,0.9,3.9,1.6c1.6,0.5,2.3,0.7,2.2,1.4c0,0.7-0.9,1.2-2,1.2c-0.2,0-1.4-0.1-2-0.6c-0.2-0.2-0.4-0.4-0.5-0.6
			c-0.1-0.2-0.1-0.4-0.2-0.6c-0.1-0.3-0.4-0.7-0.9-1c-0.2-0.1-0.4-0.1-0.7-0.2c-0.9,0-1.7,0.6-1.8,1.7c0,0.5,0.2,1.5,1,2.4
			c1.1,1.2,2.8,1.7,5.1,1.8c1.8,0.1,3.6-0.3,4.8-1.7c0.7-0.8,0.9-1.8,1-2.6c0-1.7-1-3-2.7-3.7c-0.6-0.2-3.4-1-3.9-1.2
			c-0.4-0.2-0.9-0.4-0.8-0.9c0-0.7,0.8-1.1,1.8-1c0.2,0,1.3,0.1,1.9,0.7c0.1,0.1,0.2,0.2,0.2,0.4c0.1,0.1,0.1,0.3,0.2,0.5
			c0.3,0.6,0.9,0.9,1.4,0.9c0.8,0,1.7-0.6,1.7-1.6c0-1.2-1.2-2.6-2.8-3.1c-0.9-0.3-1.8-0.4-2.7-0.4c-0.1,0-0.2,0-0.3,0
			C285.5,247.5,284.1,249.7,284,251.5 M149.8,237.5L149.8,237.5l21.1,9.4c0.7-1.4,1.7-4.2,2-6c0.3-1.9,0.4-4.2-0.1-5.7L149.8,237.5z
			 M355.2,243.5l15.9,15.3l7.5-9.6l-9.9-13.3l-4.7-3.7L355.2,243.5z M298.7,230.9c-0.4,0.3-0.6,0.7-0.6,1.1c0,0.5,0.3,1,0.6,1.3
			c0.4,0.3,0.8,0.3,1.2,0.3l1.8,0.1l-0.3,8.3c0,0.5,0,1.2,0.6,1.8c0.3,0.3,0.7,0.5,1.3,0.5c0.3,0,1,0,1.5-0.7c0.4-0.5,0.4-1,0.5-1.5
			l0.3-8.3l2,0.1c0.3,0,0.8,0,1.3-0.3c0.3-0.2,0.6-0.6,0.6-1.1c0-0.3-0.1-0.7-0.4-1c-0.4-0.5-1.1-0.5-1.6-0.5l-7.6-0.2l-0.1,0
			C299.3,230.7,299,230.7,298.7,230.9 M317,223.7l-1.1,0l0.2-7.4l1.1,0c0.9,0,1.9,0.1,2.5,0.9c0.4,0.5,0.8,1.4,0.7,2.9
			c0,0.7-0.2,1.7-0.5,2.3c-0.6,1.1-1.6,1.3-2.7,1.3C317.2,223.7,317.1,223.7,317,223.7 M312.9,213.8c-0.4,0.4-0.4,1-0.4,1.4
			l-0.3,9.3c0,0.5,0,1.3,0.8,1.8c0.4,0.3,0.9,0.3,1.3,0.3l2.1,0.1c2.4,0.1,4.2,0.1,5.9-1.6c1.3-1.3,2-3,2-4.9
			c0.1-2.8-1.1-4.8-2.6-5.8c-1.3-0.9-2.9-1-3.7-1l-3.3-0.1c-0.1,0-0.1,0-0.2,0C314,213.3,313.4,213.3,312.9,213.8 M398.3,186
			l-5.6,10.9l17.2,13.6l10.1-7.2c0.7-0.5,0.8-1.6,0-2.1l-19.7-15.5c-0.3-0.2-0.5-0.3-0.8-0.3C399,185.2,398.5,185.5,398.3,186
			 M519.7,196.5c0.2,1,0.9,2.8,1.4,4.2c3.3,8.3,11.1,11.2,22,6.8c10.7-4.3,13.5-12.2,10.5-19.7c-0.5-1.3-1.3-3-1.9-4.2L519.7,196.5z
			 M344.2,205.2l16.9-20.9l3.3-1.7c0,0,17.8,16.4,19.3,17.4l-18.5-10.6c-0.5,0.1-0.8,0.1-1.3,0.2L348.3,208L344.2,205.2z M360,173.5
			l-24.8,31.5l0.3,2.3l80.7,63.5l9.6-12.2l-0.8-36.1l-14.4-11.4l-4.1,5.2l-19-14.9l4.1-5.2l-29.3-23.1L360,173.5z M336.8,371.8
			l3.1-60.1c1.1,1.3,2.3,2.4,3.6,3.5l-3,57.3C339.3,372.3,338,372,336.8,371.8 M373.4,307.5c0.3,1.7,0.8,3.3,1.2,5
			c-7.6,4.1-17.6,5.6-24.6,2.1c1.7,0.4,3.4,0.6,5.1,0.6C362.1,315.2,368.9,311.8,373.4,307.5 M308.8,281.1c-0.4-0.3-0.4-0.8-0.2-1.2
			l4.5-5.7c0.3-0.4,0.8-0.4,1.2-0.2l19.9,15.7c1.2,1,1.8,2.4,1.7,3.9c0,0.5-0.1,0.9-0.3,1.4c-0.1-0.1-0.2-0.3-0.4-0.4l-19.9-15.7
			c-0.4-0.3-0.9-0.2-1.2,0.2l-1,5.5L308.8,281.1z M345.7,291.6l15-19.1l6.5,5.1l-20.6,18.8c-0.4,0.7-3.2,5.3-2.4,12.4
			C341.2,299.1,345.1,292.4,345.7,291.6 M317.5,270.1c-0.4-0.3-0.4-0.9-0.1-1.2l4.5-5.7c0.3-0.4,0.8-0.4,1.2-0.2l19.9,15.7
			c1.6,1.3,2.1,3.4,1.4,5.2c-0.1-0.1-0.2-0.2-0.4-0.4L324,267.9c-0.4-0.3-0.9-0.2-1.2,0.1l-1.4,5.2L317.5,270.1z M326.2,259.1
			c-0.4-0.3-0.4-0.8-0.2-1.2l4.5-5.7c0.3-0.4,0.8-0.4,1.2-0.1l9.4,7.4l-2,2.5l-6.4-5.1c-0.4-0.3-0.9-0.2-1.2,0.1l-1.6,5L326.2,259.1
			z M343.1,270.1c-0.8-0.3-1.7-0.7-2.7-1.1c-0.1,0-0.2-0.1-0.3-0.1l-0.1,0l13.7-17.3l21,16.6c0.8,0.7,1.4,1.6,1.5,2.7l0.4,3.1
			c-0.2-0.4-0.5-0.7-0.9-1L357,258.1l-13.2,12.2C343.6,270.2,343.4,270.2,343.1,270.1 M334.8,248.1c-0.4-0.3-0.4-0.8-0.1-1.2
			l4.5-5.7c0.3-0.4,0.9-0.4,1.2-0.1l9.4,7.4l-2,2.5l-6.4-5.1c-0.4-0.3-0.9-0.2-1.2,0.1l-1.1,5.5L334.8,248.1z M253,270.5
			c0-56.9,46.3-103.2,103.2-103.2c56.9,0,103.2,46.3,103.2,103.2c0,46.3-30.7,85.6-72.8,98.6l-7.8-64.2l0,0c4.8-8.3,5.6-9,4.3-19.7
			l-1.8-14.9c-0.3-2.4-1.5-4.5-3.4-6l-6.8-5.4l-17.3-13.5l-10.3-8.1c-2.6-2-6.3-1.6-8.3,1l-4.5,5.7c-0.8,1-1.2,2.2-1.3,3.3
			c-1.1,0.3-2.2,1-2.9,2l-4.5,5.7c-0.8,1-1.2,2.2-1.3,3.3c-1.1,0.3-2.2,1-2.9,2l-4.5,5.7c-0.8,1-1.2,2.2-1.2,3.3
			c-1.1,0.3-2.2,1-2.9,2l-4.5,5.7c-2,2.6-1.6,6.3,1,8.3l10.3,8.1l0.2,0.1l-27.1,34.4c-2.1,2.6-1.6,6.4,1,8.5l7.1,5.6
			c2.6,2,6.4,1.6,8.4-1l27.3-34.6l4.1,3.2l-4.7,61.4C286.9,360,253,319.2,253,270.5 M245.3,270.5c0,61.1,49.7,110.8,110.8,110.8
			c61.1,0,110.8-49.7,110.8-110.8c0-61.1-49.7-110.8-110.8-110.8C295.1,159.7,245.3,209.4,245.3,270.5 M325.4,155.7
			c10.2-2.7,19.7-13.8,30.8-13.8c11.1,0,20.6,11.1,30.8,13.8c4.5,1.2,9.6,1,14.7,0.8c6.8-0.2,13.5-0.5,18.8,2.6
			c9.4,5.4,12.1,19.7,19.7,27.4c7.6,7.6,21.9,10.3,27.4,19.7c5.4,9.3,0.6,23,3.4,33.5c2.7,10.2,13.8,19.7,13.8,30.8
			c0,11.1-11.1,20.6-13.8,30.8c-2.8,10.6,1.9,24.3-3.4,33.6c-5.4,9.4-19.7,12.1-27.4,19.7c-7.6,7.6-10.3,21.9-19.7,27.4
			c-5.3,3.1-12,2.8-18.8,2.6c-5.1-0.2-10.2-0.4-14.7,0.8c-10.2,2.7-19.7,13.8-30.8,13.8c-11.1,0-20.6-11.1-30.8-13.8
			c-4.5-1.2-9.6-1-14.7-0.8c-6.8,0.2-13.5,0.5-18.8-2.6c-9.4-5.4-12.1-19.7-19.7-27.4c-7.6-7.6-21.9-10.3-27.4-19.7
			c-5.4-9.3-0.6-23-3.4-33.6c-2.7-10.2-13.8-19.7-13.8-30.8c0-11.1,11.1-20.6,13.8-30.8c2.8-10.6-1.9-24.3,3.4-33.6
			c5.4-9.4,19.7-12.1,27.4-19.7c7.6-7.6,10.3-21.9,19.7-27.4c5.3-3.1,12-2.8,18.8-2.6c1.8,0.1,3.7,0.1,5.5,0.1
			C319.4,156.6,322.5,156.4,325.4,155.7 M214.8,270.5c0,78,63.4,141.4,141.4,141.4s141.4-63.4,141.4-141.4s-63.4-141.4-141.4-141.4
			S214.8,192.5,214.8,270.5 M361.3,491.8c-0.6-0.5-0.6-1.3-0.7-2l-0.6-13.5c0-0.7-0.1-1.4,0.5-2c0.2-0.2,0.6-0.5,1.3-0.6
			c0.3,0,0.9,0,1.4,0.5c0.5,0.6,0.6,1.2,0.6,1.9l0.5,12.7l5.8-0.2c0.6,0,1.4,0,1.8,0.8c0.2,0.3,0.2,0.6,0.2,0.8c0,0.3,0,0.6-0.2,0.9
			c-0.4,0.8-1.1,0.9-1.7,0.9l-7.2,0.3h0C362.6,492.3,361.9,492.3,361.3,491.8 M344,492.3c-0.2,0-1-0.1-1.4-0.7
			c-0.4-0.7-0.4-1.5-0.4-2.2l0.7-13.4c0-0.7,0.1-1.5,0.7-2.1c0.5-0.5,1.1-0.5,1.3-0.5c0.3,0,1,0.1,1.4,0.8c0.4,0.7,0.4,1.4,0.3,2
			l-0.7,13.3c-0.1,1-0.1,2.7-1.9,2.7L344,492.3z M316.8,489.2c-0.7-0.1-1.9-0.7-1.7-2.3c0.1-0.5,0.3-0.9,0.5-1.3l6-12
			c0.8-1.7,1.3-2.6,3.1-2.3c1.8,0.3,2.1,1.2,2.2,2.4l2.2,13.9c0.1,0.5,0.1,1,0.1,1.5c-0.2,1.2-1.1,1.8-2.3,1.6
			c-1.2-0.2-1.5-1.2-1.6-2.1l-0.2-2.1l-5.3-0.8l-0.7,1.6c-0.4,0.9-0.9,1.9-1.9,1.9C317,489.2,316.9,489.2,316.8,489.2 M386.8,490.3
			c-1.2-0.2-1.4-1.3-1.5-2l-2.2-13.9c-0.1-0.5-0.2-1.1,0.1-1.6c0.3-0.6,1-0.7,1.5-0.8l8.3-1.3c0.4-0.1,0.8-0.1,1.1,0
			c0.4,0.2,0.9,0.6,1,1.4c0.1,0.3,0.1,0.7-0.1,1c-0.3,0.8-1,0.9-1.6,1l-6.5,1l0.6,3.7l5.9-0.9c0.4-0.1,0.7-0.1,1.1,0
			c0.3,0.1,1,0.4,1.1,1.3c0.1,0.7-0.1,1.3-0.7,1.6c-0.3,0.2-0.6,0.2-1,0.3l-5.9,0.9l0.7,4.6l6.6-1.1c0.6-0.1,1.3-0.2,1.9,0.6
			c0.2,0.3,0.3,0.5,0.3,0.8c0.1,0.9-0.3,1.4-0.6,1.6c-0.3,0.2-0.7,0.3-1,0.3l-8.3,1.3c-0.2,0-0.4,0.1-0.7,0.1
			C386.9,490.3,386.9,490.3,386.8,490.3 M411.4,483.3l-3.9-13.5c-0.2-0.6-0.3-1.2,0-1.8c0.3-0.5,1-0.7,1.4-0.9l3.4-1
			c1.8-0.5,4.3-1.2,6.8,0.5c2,1.3,3.3,3.5,4,5.9c0.6,2.2,0.8,4.5,0.1,6.6c-1.1,3.3-3.7,4.1-5.7,4.8l-3.4,1c-0.4,0.1-0.7,0.2-0.9,0.2
			C412.2,485,411.8,484.4,411.4,483.3 M289.9,482.6c-0.7-0.2-1-0.7-1-0.8c-0.3-0.7-0.1-1.5,0.1-2.2l3.7-13.1
			c0.2-0.6,0.3-1.1,0.8-1.6c0.6-0.5,1.3-0.6,2.1-0.4c1.3,0.4,1.6,1,1.8,2.1l2.6,11.6c0.1-0.4,0.2-0.7,0.3-1.1
			c0.1-0.4,0.2-0.7,0.3-1.1l2-7.1c0.2-0.6,0.4-1.3,1-1.6c0.3-0.2,0.8-0.4,1.4-0.2c0.4,0.1,0.7,0.4,0.7,0.4c0.7,0.7,0.4,1.7,0.2,2.4
			l-3.8,13.3c-0.3,1-0.8,2.5-2.9,1.9c-1.3-0.4-1.4-1.2-1.7-2.5l-2.4-11.5c-0.2,0.8-0.2,1-0.5,1.9l-2.1,7.2c-0.2,0.8-0.7,2.3-1.9,2.3
			C290.3,482.7,290.1,482.7,289.9,482.6 M353.3,458.1c0.2-0.1,1.3-0.5,1.3-1.9c0-0.7-0.3-1.2-0.7-1.5c-0.5-0.4-0.8-0.5-3-1.2
			c-2.7-0.9-5.8-1.9-5.7-5.7c0.1-3.4,2.5-5.5,6.8-5.4c4.2,0.1,6.5,2.5,6.4,4.4c0,1.3-1.1,1.9-2,1.9c-0.5,0-0.9-0.2-1.4-1
			c-0.1-0.2-0.2-0.4-0.3-0.6c-0.5-0.8-1.4-1.3-2.8-1.3c-1.7,0-2.9,0.6-2.9,1.8c0,0.4,0.1,0.8,0.4,1.1c0.3,0.3,0.9,0.5,2.1,0.9
			c3.7,1.2,4,1.3,4.9,1.9c1,0.8,2.1,2.2,2,4.3c0,1.9-0.9,3.4-2.1,4.3c-1.4,1.1-3.2,1.5-5,1.4c-1.7,0-3.3-0.4-4.5-1.1
			c-2.5-1.4-2.6-3.2-2.6-3.7c0-1.3,1-2,1.9-2c0.8,0,1.3,0.6,1.8,1.5c0.5,0.9,1.1,1.9,3.5,1.9h0.2
			C352.3,458.3,352.8,458.3,353.3,458.1 M382,448.2l-0.6-4.6c-0.1-0.7-0.2-1.4,0.2-2c0.1-0.1,0.4-0.7,1.3-0.8c0.1,0,0.5-0.1,0.8,0
			c1.1,0.4,1.3,1.5,1.4,2.3l1.7,13.5c0.1,0.6,0.2,1.4-0.2,2c-0.4,0.8-1.1,0.9-1.3,0.9c-0.1,0-0.4,0-0.7,0c-1.2-0.3-1.4-1.5-1.5-2.3
			l-0.7-5.5l-6,0.8l0.7,5.5c0.1,0.8,0.3,2.5-1.5,2.8c-0.7,0.1-1.1-0.1-1.5-0.4c-0.5-0.5-0.7-1.3-0.7-1.9l-1.7-13.5
			c-0.1-0.7-0.2-1.5,0.3-2.1c0.3-0.5,0.7-0.7,1.3-0.8c0.5-0.1,1.1,0.1,1.5,0.5c0.5,0.6,0.6,1.3,0.7,1.9l0.6,4.5L382,448.2z
			 M328.5,459.5l-8.3-1.4c-0.3,0-0.6-0.1-0.8-0.2c-1.1-0.6-0.9-1.7-0.8-2.4l2.4-13.9c0.1-0.5,0.2-1.1,0.6-1.5
			c0.5-0.5,1.1-0.4,1.7-0.3l8.2,1.4c0.4,0.1,0.8,0.2,1.1,0.4c0.3,0.3,0.7,0.8,0.5,1.7c0,0.3-0.1,0.6-0.4,0.9
			c-0.5,0.6-1.2,0.5-1.8,0.4l-6.5-1.1l-0.6,3.7l5.9,1c0.4,0.1,0.7,0.1,1,0.3c0.3,0.2,0.8,0.7,0.6,1.6c-0.1,0.7-0.5,1.2-1.1,1.3
			c-0.4,0.1-0.7,0-1,0l-5.9-1l-0.8,4.6l6.6,1.1c0.6,0.1,1.3,0.3,1.6,1.2c0.1,0.3,0.1,0.6,0.1,0.8c-0.1,0.9-0.7,1.3-1.1,1.3
			c-0.1,0-0.3,0.1-0.4,0.1C329,459.6,328.8,459.5,328.5,459.5 M409.8,442.3l-0.3-5.5c-0.1-1.5,0-2.6,1.9-3.1c2.5-0.8,3.3-0.1,3.9,2
			l3.9,12.8c0.2,0.7,0.7,2.3-0.9,2.8c-1.7,0.5-2.2-1.1-2.4-1.8l-1.6-5.3c-0.5-1.8-0.6-2.2-1.7-6.4c0.4,3.8,0.4,4.9,0.6,8.1l0.2,4.8
			c0,1.1,0,2-1.8,2.5c-1.7,0.5-2.2-0.2-2.8-1.2l-2.3-3.8c-2-3.4-2.2-3.7-4.2-7.4c1,2.7,1.2,3.4,2.2,6.6l1.5,4.9
			c0.2,0.8,0.7,2.4-0.9,2.9c-1.6,0.5-2.1-1.1-2.4-1.9l-3.9-12.9c-0.2-0.7-0.5-1.8,0.2-2.7c0.4-0.5,1.3-0.8,1.8-1
			c2-0.6,2.6,0,3.3,1.2l2.8,4.7c1,1.7,1.2,2.1,3.5,6.4C410.1,446.4,410.1,445.9,409.8,442.3 M292.4,450.8c-0.3-0.1-0.5-0.2-0.7-0.4
			c-0.9-0.8-0.6-2-0.3-2.7l4.2-12.7c0.2-0.6,0.5-1.5,1.2-1.8c0.7-0.4,1.5-0.2,2,0l4.5,1.5c1.5,0.5,3.1,1.1,4,2.7
			c1,1.7,0.5,3.4,0.3,4c-0.6,1.8-1.7,3.2-3.5,3.4c-0.3,0-0.6,0-1,0c0.3,0.2,0.5,0.4,0.8,0.6c0.8,0.9,0.7,2.1,0.4,3.8
			c-0.1,0.5-0.2,0.9-0.3,1.4c-0.1,0.3-0.1,0.6-0.1,1c0,0.2,0,0.4,0,0.7c0,0.3-0.1,0.5-0.1,0.6c-0.3,0.8-1.1,1.4-2.2,1.1
			c-1.9-0.6-1.5-2.6-1.3-4c0.1-0.4,0.2-0.8,0.2-1.3c0.4-2.1-0.2-2.5-1.8-3.1l-2.5-0.8l-1.4,4.2c-0.2,0.5-0.4,1.2-0.9,1.6
			c-0.4,0.3-0.7,0.4-1,0.4C292.7,450.9,292.5,450.8,292.4,450.8 M268.3,440.2c-0.3-0.2-0.6-0.4-0.8-0.7c-0.5-0.9-0.1-1.7,0.2-2.4
			l6-12.1c0.3-0.6,0.7-1.4,1.6-1.6c0.7-0.2,1.3,0.2,1.8,0.4l6.7,3.3c0.3,0.2,0.7,0.4,0.9,0.7c0.4,0.5,0.4,1.1,0.1,1.7
			c-0.1,0.2-0.3,0.5-0.6,0.8c-0.7,0.5-1.4,0.1-2-0.1l-5.6-2.8L275,431l5,2.5c0.5,0.2,1.2,0.6,1.2,1.5c0,0.3-0.1,0.5-0.2,0.8
			c-0.7,1.5-2,0.8-2.5,0.6l-4.9-2.4l-2.4,4.8c-0.2,0.4-0.5,0.9-0.8,1.2c-0.4,0.4-0.8,0.5-1.2,0.5
			C268.7,440.5,268.4,440.3,268.3,440.2 M434.1,442.4l-6.2-12.6c-0.2-0.4-0.5-1-0.4-1.6c0.1-0.7,0.7-1,1.2-1.2l7.5-3.7
			c0.4-0.2,0.7-0.3,1.1-0.3c0.4,0,1,0.3,1.4,1c0.1,0.3,0.2,0.6,0.2,0.9c-0.1,0.8-0.7,1.1-1.2,1.4l-5.9,2.9l1.6,3.4l5.3-2.6
			c0.3-0.2,0.6-0.3,1-0.3c0.3,0,1.1,0.1,1.5,0.9c0.3,0.6,0.3,1.3-0.1,1.8c-0.2,0.3-0.5,0.4-0.9,0.6l-5.4,2.6l2.1,4.2l6-2.9
			c0.6-0.3,1.2-0.6,2,0c0.3,0.2,0.4,0.4,0.5,0.6c0.4,0.8,0.1,1.5-0.1,1.7c-0.2,0.3-0.5,0.4-0.9,0.6l-7.6,3.7
			c-0.3,0.1-0.5,0.3-0.8,0.3c-0.1,0-0.2,0-0.2,0C434.8,443.9,434.3,443,434.1,442.4 M272.7,469.3c-25.6-10.7-48.5-26.1-68.3-45.7
			c-0.7-0.7-0.7-1.8,0-2.4c0.7-0.7,1.8-0.7,2.4,0c19.5,19.3,42.1,34.4,67.2,45c0.9,0.4,1.3,1.4,0.9,2.3c-0.3,0.7-0.9,1.1-1.6,1.1
			C273.1,469.4,272.9,469.3,272.7,469.3 M435.2,469.2c-0.4-0.9,0.1-1.9,1-2.2c26.3-10.7,49.9-26.4,70-46.5c0.7-0.7,1.8-0.7,2.4,0
			c0.7,0.7,0.7,1.8,0,2.4c-20.5,20.5-44.4,36.4-71.2,47.3c-0.2,0.1-0.4,0.1-0.6,0.1C436.1,470.3,435.4,469.9,435.2,469.2
			 M253.3,431.3c-0.4-0.1-0.7-0.3-1-0.5l-6.9-4.8c-0.3-0.2-0.5-0.3-0.7-0.6c-0.7-0.9-0.1-1.9,0.3-2.4l7.9-11.6
			c0.3-0.4,0.6-0.9,1.2-1.1c0.7-0.2,1.2,0.1,1.6,0.4l6.9,4.7c0.3,0.2,0.6,0.5,0.8,0.8c0.2,0.4,0.3,1-0.2,1.7
			c-0.2,0.3-0.4,0.5-0.7,0.6c-0.8,0.3-1.3,0-1.8-0.4l-5.4-3.7l-2.1,3.1l4.9,3.4c0.3,0.2,0.6,0.4,0.8,0.7c0.2,0.3,0.4,1-0.1,1.7
			c-0.4,0.6-1,0.9-1.6,0.7c-0.3-0.1-0.6-0.3-0.9-0.5l-4.9-3.4l-2.6,3.9l5.5,3.8c0.5,0.4,1.1,0.8,1,1.7c0,0.3-0.2,0.6-0.3,0.8
			c-0.4,0.6-1,0.8-1.4,0.8C253.4,431.3,253.4,431.3,253.3,431.3 M463.1,419.3c-0.2-0.3-0.4-0.6-0.6-0.9l-4.2-6.1
			c-0.3-0.5-0.7-1.1-0.6-1.8c0-0.4,0.2-0.9,0.7-1.2c0.4-0.3,0.7-0.3,0.8-0.3c1-0.1,1.6,0.7,2,1.4l7.9,11.4c0.6,0.8,1.4,2.2-0.4,3.4
			c-1.1,0.7-1.8,0.4-3.1-0.3l-10.4-5.4c0.5,0.6,0.6,0.8,1.2,1.6l4.3,6.2c0.5,0.8,1.6,2.3,0.1,3.3c-0.6,0.4-1.2,0.3-1.3,0.3
			c-0.8-0.2-1.2-0.9-1.6-1.4l-7.7-11.2c-0.4-0.5-0.7-1-0.7-1.6c-0.1-0.8,0.3-1.4,1-1.8c1.1-0.8,1.7-0.6,2.8-0.1l10.6,5.4
			C463.5,419.9,463.3,419.6,463.1,419.3 M223.1,407.7c-0.2-0.2-0.3-0.4-0.5-0.6c-0.5-1.1,0.3-2,0.8-2.6l9.1-9.8
			c0.5-0.5,1.1-1.1,1.8-1.2c0.8-0.1,1.4,0.5,1.8,0.9l3.5,3.2c1.2,1.1,2.4,2.3,2.6,4.1c0.2,2-1,3.3-1.4,3.7c-1.3,1.4-2.9,2.2-4.6,1.7
			c-0.3-0.1-0.6-0.2-0.9-0.4c0.2,0.3,0.4,0.6,0.4,0.9c0.4,1.2-0.3,2.2-1.2,3.6c-0.3,0.4-0.6,0.8-0.8,1.2c-0.2,0.3-0.4,0.5-0.5,0.8
			c-0.1,0.2-0.2,0.4-0.3,0.6c-0.1,0.3-0.3,0.4-0.3,0.5c-0.6,0.6-1.6,0.8-2.4,0.1c-1.4-1.3-0.3-3,0.5-4.1c0.2-0.3,0.5-0.7,0.8-1.1
			c1.2-1.8,0.8-2.4-0.4-3.6l-1.9-1.8l-3,3.3c-0.4,0.4-0.9,0.9-1.5,1.1c-0.2,0-0.3,0.1-0.4,0.1C223.7,408.2,223.3,407.9,223.1,407.7
			 M470,402.5c-0.2-0.2-0.4-0.5-0.5-0.8c-0.2-0.8,0.3-1.3,0.7-1.7l7.2-6.8c0.4-0.4,1-0.9,1.9-0.6c0.3,0.1,0.5,0.3,0.7,0.5
			c0.6,0.6,0.6,1.3,0.4,1.7c-0.1,0.3-0.4,0.6-0.7,0.9l-2.2,2.1l8.7,9.3c0.2,0.2,0.5,0.5,0.6,0.7c0.5,0.7,0.6,1.6-0.2,2.4
			c-0.5,0.5-1,0.6-1.4,0.5c-0.8-0.1-1.3-0.6-1.8-1.1l-8.7-9.3l-2.2,2.1c-0.3,0.2-0.8,0.7-1.4,0.7C470.8,403.1,470.4,402.9,470,402.5
			 M195,390.6c0-3.2,2.6-5.8,5.8-5.8c3.2,0,5.8,2.6,5.8,5.8c0,3.2-2.6,5.8-5.8,5.8C197.7,396.4,195,393.8,195,390.6 M505.7,390.6
			c0-3.2,2.6-5.8,5.8-5.8c3.2,0,5.8,2.6,5.8,5.8c0,3.2-2.6,5.8-5.8,5.8C508.3,396.4,505.7,393.8,505.7,390.6 M518.5,313.3l5.9-20.4
			l1.7,0.5c-0.6,2,0.1,3.4,3.4,4.4l43.2,12.4c2.4,0.7,4.3-0.2,4.8-2l1.7,0.5c-0.9,3.7-2.6,11.8-4.9,19.8
			c-4.6,16.1-11.2,28-27.3,23.4c-8.2-2.3-12.4-9.4-13.2-15.9c-5-0.1-13.1,1.1-18.5,2.9c-1.7,0.6-2.6,1.2-3.2,3.3l-1.7-0.5l5.3-18.3
			c4.5-1.1,12.5-1.1,18.3-0.8c0.2-0.9,0.5-2.4,0.9-3.9c0.4-1.3,0.9-2.7,1.3-3.8l-10.7-3.1c-3.3-0.9-4.6-0.2-5.2,1.9L518.5,313.3z
			 M136.1,296.7l43.9-11.3c3.5-0.9,4.3-2.1,3.7-4.2l1.7-0.4l5,19.4l-1.7,0.4c-0.5-2.1-2-2.8-5.3-1.9l-24.6,6.3l0,0.2l28.2,6.1
			l1.6,6.2l-21.9,18.2l0.1,0.2l24.6-6.3c3.4-0.9,4.3-2.1,3.7-4.3l1.7-0.4l5,19.4l-1.7,0.4c-0.5-2.1-1.8-2.9-5.3-2l-43.6,11.2
			c-2.7,0.7-3.4,2.1-2.9,4.1l-1.7,0.4l-5-19.4c1-0.2,2.2-1,3.6-2.2l21.1-17.7l0-0.2L139,313c-1.8-0.4-3.3-0.7-4.2-0.3l-4.6-17.7
			l1.7-0.4c0.4,1.5,1.3,2.4,2.9,2.4C135.2,296.9,135.6,296.8,136.1,296.7 M528.5,241.1l45-2.8c2.4-0.2,4.1-1.7,4-3.5l1.7-0.1
			l2.2,35.7c0.1,1.2,0.7,3.9,0.9,4.6l-14.3,3.8l-0.7-1.7c2.4-1.5,2.9-2.5,2.7-5.3l-1.2-18.4l-9.9,0.6l1.1,16.8
			c0.1,1.8,0.8,2.7,2.6,2.6l0.1,1.9l-16.5,1l-0.1-1.9c1.7-0.1,2.3-1.1,2.2-2.9l-1.1-16.8l-12.2,0.8l1.2,18.6c0.2,3,1.1,3.9,3.9,5.1
			l-0.5,2l-15.8-2.4c0.4-1.4,0.7-3.9,0.6-5.4l-2.2-35.1l1.8-0.1c0.1,2,1.4,3,3.8,3C528.1,241.2,528.3,241.2,528.5,241.1 M143.3,226
			l45.5-7.5c3.5-0.6,4.1-1.2,4.4-3.2l1.8,0.3l-3.5,21.9l-1.8-0.3c0.3-2.1-0.4-3.3-1.9-3.5c-0.5-0.1-1.3,0.1-2.1,0.2l-1.4,0.2
			c0.4,2.4,0.4,5.8-0.1,8.9c-0.5,2.9-1.5,6-2.7,8.3l1.4,0.8c0.8,0.4,1.4,0.7,1.9,0.8c1.6,0.3,2.4-0.7,2.7-2.4l1.8,0.3l-3.3,20.9
			l-1.8-0.3c0.3-2,0.1-2.7-3-4.4l-41.4-21.8c-0.8-0.4-2.5-1.2-3.3-1.3c-1.3-0.2-2.1,0.3-2.3,1.5l-1.8-0.3l3.4-21.3l1.8,0.3
			c-0.2,1.2,0.5,2,2,2.2c0.2,0,0.5,0.1,0.8,0.1C141,226.4,141.9,226.3,143.3,226 M509.6,184.7l41.6-16.7c2.3-0.9,3.2-2.8,2.6-4.5
			l1.7-0.7c1.9,3.7,4.9,10.2,8.1,18.1c8.2,20.4,1.1,34.4-14.6,40.7c-16.6,6.6-31.2,2.5-40.3-20.1c-2.6-6.6-5.3-14-6.2-17.5l1.7-0.7
			c0.5,1.3,1.3,2,2.7,2C507.5,185.4,508.4,185.1,509.6,184.7 M149.5,179.1l10.4-18.5l1.6,0.9c-1,1.7-0.6,3.4,2.2,5l34.2,19.1
			l9.4-16.8c1.2-2.2,0.8-3.9-0.8-5.9l1.5-1.4l11.9,10.6c-1.1,0.9-2.3,2.3-3.1,3.6L199.3,207l-1.6-0.9c1-1.8,0.5-3.4-2.3-5l-39.3-22
			c-2.1-1.2-4.2-0.7-5.1,0.9L149.5,179.1z M488.3,156.6l35.1-27.8c1.9-1.5,2.3-3.6,1.2-5.1l1.4-1.1l13.2,16.6l-1.4,1.1
			c-1.2-1.5-2.9-1.9-5.5,0.2l-34.8,27.5c-2.6,2.1-3,3.7-1.6,5.4l-1.4,1.1l-13.2-16.6l1.4-1.1c0.6,0.8,1.4,1.3,2.3,1.3
			C485.8,158.2,486.9,157.7,488.3,156.6 M205.6,270.5c0-83.1,67.4-150.6,150.6-150.6c83.2,0,150.6,67.4,150.6,150.6
			c0,83.2-67.4,150.6-150.6,150.6C273,421.1,205.6,353.6,205.6,270.5 M188.8,118.7l15.6-14.3l1.2,1.3c-1.4,1.3-1.6,3,0.6,5.5
			l26.4,28.9l14.2-13c1.9-1.7,2-3.5,1.1-5.8l1.9-0.8l8,13.8c-1.3,0.5-2.9,1.5-4,2.5l-26.4,24.2l-1.2-1.3c1.6-1.4,1.6-3.1-0.6-5.5
			l-30.4-33.2c-1.6-1.8-3.7-2-5.1-0.8L188.8,118.7z M469,144.5c-0.9-0.6-6.7-3-11.4-6.4c-12.6-9.1-16.5-25.2-5.3-40.6
			c11.6-16,29-15.6,40.2-7.5c4.2,3,8.8,7.8,9.8,8.5c1.4,1,2.8,1.2,2.8,1.2l-7.3,15.5l-2.4-0.8c1.7-5.2-3.4-10-7.2-12.8
			c-6.9-5-16.3-5.4-23.7,4.9c-7.5,10.3-3.4,18.9,3.2,23.7c5.6,4.1,10.2,5.5,14.9,2.1l1.6,2.1L471,146.8
			C471,146.8,470.4,145.5,469,144.5 M245.3,73.6l32.7-14.5c1.1-0.5,3.4-2,4-2.4l8.5,12.1l-1.3,1.2c-2.3-1.7-3.4-1.8-5.9-0.7
			l-16.8,7.5l4,9l15.4-6.8c1.6-0.7,2.3-1.7,1.5-3.4l1.7-0.8l6.7,15.1l-1.7,0.8c-0.7-1.6-1.9-1.8-3.5-1l-15.4,6.8l5,11.2l17.1-7.6
			c2.8-1.2,3.3-2.4,3.4-5.4l2.1-0.2l3.3,15.6c-1.5,0.1-3.9,0.7-5.3,1.4l-32.1,14.3l-0.7-1.6c2-0.9,2.4-2.7,1.3-5.2l-18.3-41.2
			c-1-2.2-3-3.3-4.7-2.6L245.3,73.6z M399.3,92.1c0.4-2.2-0.8-3.9-10.9-11c-8.6-6-12.2-11.8-10.7-18.9c2.1-10.2,11.4-16.2,26.2-13.2
			c3.8,0.8,8.6,3.1,10.8,3.6c1.4,0.3,2.4,0.2,3,0.1L416,69.4l-2.4,0c-0.2-1.5-0.7-3.1-2.1-4.5c-1.7-1.7-3.9-3-9.4-4.1
			c-6.1-1.2-8.8,0.6-9.2,2.7c-0.4,2.2,1.6,4.2,9.9,10c7.5,5.2,13,11,11.1,20.4c-2.1,10.6-9.8,16.8-25.1,13.7c-5-1-11.8-4.6-14.3-5.1
			c-1.4-0.3-2.5-0.2-3.1,0l0.8-18.6l3-0.3c0.3,1.7,0.5,3.5,1.5,5.1c1.9,2.9,4.9,5.2,12.1,6.7c1.7,0.3,3.1,0.5,4.3,0.5
			C397.1,95.9,398.9,94.4,399.3,92.1 M313.7,48.8l38-4c1.2-0.1,2.6-0.5,3.3-0.8l4.6,14.4l-2.1,1c-0.9-2-2.2-3.3-4-3.1l-12.6,1.3
			l4.1,38.8c0.4,3.4,1.5,4.7,3.7,4.5l0.2,1.8l-21,2.2l-0.2-1.8c2.2-0.2,3.1-1.7,2.7-5.1L326.2,59l-12.7,1.3
			c-1.8,0.2-2.9,1.6-3.2,3.9l-2.4-0.5l1.4-15c0.3,0.1,1,0.2,1.9,0.2C312,48.9,312.7,48.9,313.7,48.8 M168.7,414.4L168.7,414.4
			l-1.5-1.9l0,0c-29.8-39.6-47.5-88.8-47.5-142C119.7,140.1,225.8,34,356.2,34v2.3c-129.1,0-234.2,105-234.2,234.2
			c0,52.7,17.5,101.5,47.1,140.6l18.4-14.1c-1-2-1.5-4.2-1.5-6.4c0-8.2,6.6-14.8,14.8-14.8c3.6,0,7,1.3,9.6,3.6l17.1-13.1h0
			c-20-26.7-31.8-59.9-31.8-95.7c0-88.4,71.9-160.3,160.3-160.3v2.3c-87.1,0-158,70.9-158,158c0,87.2,71,158,158,158v2.3
			c-51.6,0-97.7-24.5-127.1-62.8l0,0l-18.7,14.4c-2.3-2.6-5.7-4.3-9.4-4.3c-6.9,0-12.5,5.6-12.5,12.5c0,2.6,0.8,5,2.1,7l-20,15.4
			l0,0c44.3,57.6,112.5,91.7,185.7,91.7v2.3C280.9,506.9,212.6,471.4,168.7,414.4 M590.3,270.5c0-129.1-105-234.2-234.2-234.2V34
			c130.4,0,236.4,106.1,236.4,236.4c0,53.3-17.7,102.5-47.5,142v0l-1.4,1.8l-0.1,0.1c-43.9,57-112.1,92.5-187.5,92.5v-2.3
			c73.2,0,141.4-34.1,185.7-91.7l0,0l-20-15.4c1.4-2,2.2-4.4,2.2-7c0-6.9-5.6-12.5-12.5-12.5c-3.8,0-7.2,1.7-9.4,4.3L483.3,368l0,0
			c-29.4,38.2-75.5,62.8-127.1,62.8v-2.3c87,0,158-70.8,158-158c0-87.1-70.9-158-158-158v-2.3c88.4,0,160.3,71.9,160.3,160.3
			c0,35.8-11.8,69-31.8,95.7l17.1,13.1c2.7-2.3,6.1-3.6,9.6-3.6c8.2,0,14.8,6.6,14.8,14.8c0,2.2-0.5,4.4-1.5,6.4l18.4,14.1
			C572.8,371.9,590.3,323.2,590.3,270.5 M112.3,270.5c0,134.7,109.2,243.8,243.8,243.8c134.7,0,243.8-109.2,243.8-243.8
			c0-134.7-109.2-243.8-243.8-243.8C221.5,26.6,112.3,135.8,112.3,270.5 M176.9,449.7c-47.9-47.9-74.3-111.5-74.3-179.3
			c0-67.7,26.4-131.4,74.3-179.3C224.8,43.3,288.5,17,356.2,17c67.7,0,131.4,26.4,179.3,74.3c47.9,47.9,74.3,111.5,74.3,179.3
			c0,67.7-26.4,131.4-74.3,179.3C487.6,497.6,423.9,524,356.2,524C288.5,524,224.8,497.6,176.9,449.7 M349.2,0
			c-69.7,1.7-134.9,29.7-184.3,79.2c-51.1,51.1-79.2,119.1-79.2,191.3c0,72.3,28.1,140.2,79.2,191.3c51.1,51.1,119,79.2,191.3,79.2
			c72.3,0,140.2-28.1,191.3-79.2c51.1-51.1,79.2-119.1,79.2-191.3c0-72.3-28.1-140.2-79.2-191.3C498,29.7,432.8,1.7,363.1,0H349.2z"
			/>
	</defs>
	<clipPath id="SVGID_10_">
		<use xlink:href="#SVGID_9_"  style="overflow:visible;"/>
	</clipPath>
	<g class="st3">
		<g>
			<defs>
				<polygon id="SVGID_11_" points="-136.7,116 201.6,763.1 848.7,424.7 510.4,-222.3 				"/>
			</defs>
			<clipPath id="SVGID_12_">
				<use xlink:href="#SVGID_11_"  style="overflow:visible;"/>
			</clipPath>
			<g class="st4">
				<defs>
					
						<rect id="SVGID_13_" x="-308.9" y="-394.6" transform="matrix(0.8862 -0.4633 0.4633 0.8862 -84.7388 195.7146)" width="1329.8" height="1329.8"/>
				</defs>
				<clipPath id="SVGID_14_">
					<use xlink:href="#SVGID_13_"  style="overflow:visible;"/>
				</clipPath>
				<g style="clip-path:url(#SVGID_14_);">
					
						<image style="overflow:visible;" width="7479" height="7478" xlink:href="B577F9CB88FE2F67.jpg"  transform="matrix(0.24 0 0 0.24 -541.4969 -627.0202)">
					</image>
				</g>
			</g>
		</g>
	</g>
</g>
<g>
	<defs>
		<path id="SVGID_15_" d="M323.2,478l-2.1,4.6l3.6,0.6l-0.5-4.6c-0.1-1.4-0.1-1.7-0.1-2.9C323.8,476.5,323.6,477.2,323.2,478
			 M412.8,469.6l-1.3,0.4l3.3,11.2l1.7-0.5c0.9-0.3,2-0.6,2.6-1.5c1-1.4,0.7-3.7,0.2-5.5c-0.4-1.5-1-2.5-1.6-3.2
			c-0.8-1-1.6-1.3-2.6-1.3C414.4,469.1,413.6,469.3,412.8,469.6 M297.4,441.5l2.5,0.8c0.7,0.2,1.5,0.5,2.3,0.3
			c0.7-0.2,1.3-0.7,1.6-1.7c0.1-0.3,0.3-1,0.1-1.6c-0.3-0.9-1.2-1.2-2.4-1.6l-2.6-0.9L297.4,441.5z M231.5,401.4l2,1.8
			c0.6,0.5,1.2,1.1,2,1.2c0.7,0.1,1.5-0.1,2.1-0.9c0.2-0.2,0.7-0.7,0.7-1.4c0.1-0.9-0.6-1.6-1.5-2.5l-2-1.8L231.5,401.4z
			 M396.2,326.6c0,1.2,0.9,1.6,1.4,1.6c0.5,0,1-0.3,1.3-0.7c0.1-0.2,0.2-0.4,0.3-0.6c0.2-0.5,0.5-1.2,1.5-1.2c0.8,0,1.3,0.6,1.3,1.4
			c0,1-0.7,2-2.1,3.1c-0.9,0.8-1.9,1.4-2.8,2.2c-0.9,0.7-1.4,1.1-1.4,1.9c0,0.3,0.1,1.2,1,1.6c0.3,0.1,0.7,0.1,1.1,0.2l6,0.2
			c0.4,0,0.7,0,1.1-0.3c0.2-0.1,0.5-0.4,0.5-1c0-0.5-0.3-1-0.7-1.3c-0.3-0.2-0.7-0.2-0.9-0.2l-3.3-0.1c0.4-0.3,0.9-0.6,1.3-0.9
			c1.9-1.5,3.6-3.1,3.7-5.3c0.1-2-1.3-4.2-4.5-4.3c-0.1,0-0.1,0-0.2,0C397.5,322.8,396.3,325.4,396.2,326.6 M545.4,322.6
			c-2.4,8.3-0.8,12.9,5.2,14.7c5.6,1.6,9.4-1.4,11.9-10.2c0.5-1.6,0.8-3.2,1.1-4.3l-16.6-4.8C546.3,319.6,545.8,321.2,545.4,322.6
			 M412.6,314c0-0.3,0-0.5,0-0.8c0-0.7,0.1-1.5,0.3-2.2c0.3-1.1,0.9-1.8,1.8-1.8c1.6,0.1,1.8,2.1,1.7,4.1c0,1-0.1,3.8-1.9,3.8h0
			C412.8,317.1,412.6,314.9,412.6,314 M411.8,307.2c-1.8,1.3-2.4,3.5-2.5,5.6c-0.1,3.1,0.6,4.6,1.5,5.6c0.9,1,2,1.5,3.3,1.5
			c1,0,1.9-0.2,2.7-0.6c1.1-0.7,2-1.8,2.4-3.3c0.2-0.6,0.4-1.5,0.4-2.8c0-1.6-0.1-4.4-2.1-6c-0.8-0.6-1.8-0.9-2.9-1
			c-0.1,0-0.1,0-0.2,0C414,306.3,412.9,306.4,411.8,307.2 M429,290.3c-0.8,0-1.2,0.5-1.4,0.7c-0.1,0.1-0.2,0.3-0.3,0.5
			c-0.4,0.6-0.8,0.9-1.7,1c-0.7,0.1-1.1,0.1-1.4,0.5c-0.2,0.2-0.2,0.5-0.2,0.7c0,0.4,0.1,0.7,0.4,1c0.4,0.3,0.9,0.4,1.3,0.4l1.5,0
			l-0.2,6.8c0,0.5,0,1.3,0.8,1.7c0.3,0.1,0.5,0.2,0.8,0.2c0.6,0,1.1-0.2,1.4-0.6c0.3-0.4,0.3-0.8,0.4-1.1l0.3-9.9c0-0.3,0-0.6-0.2-1
			C430.1,290.4,429.4,290.3,429,290.3L429,290.3z M439.5,284.6c-0.2-0.2-0.3-0.6-0.3-1c0-0.3,0.1-0.8,0.6-1.1
			c0.3-0.2,0.7-0.4,1.4-0.3c1.6,0,1.8,1.1,1.8,1.5c0,0.3-0.1,0.7-0.3,1c-0.4,0.5-1.1,0.6-1.4,0.6H441
			C440.4,285.2,439.9,285,439.5,284.6 M439.9,279.3c-0.2-0.2-0.4-0.5-0.3-0.9c0-0.8,0.7-1.3,1.7-1.3c1.2,0,1.6,0.7,1.6,1.4
			c0,0.6-0.5,1.3-1.6,1.3h-0.1C440.9,279.7,440.3,279.6,439.9,279.3 M437.7,275.4c-0.9,0.8-1.2,1.8-1.2,2.6c-0.1,1.7,1,2.5,1.4,2.8
			c-0.5,0.2-1.9,0.7-2,2.9c-0.1,2.2,1.7,4.1,4.9,4.2c3.7,0.1,5.2-2,5.3-3.9c0.1-2-1.2-2.9-1.8-3.2c0.4-0.2,0.8-0.4,1.1-0.9
			c0.2-0.3,0.5-0.9,0.6-1.7c0.1-2.3-1.9-3.8-4.7-3.9c-0.1,0-0.1,0-0.2,0C439.6,274.3,438.4,274.8,437.7,275.4 M270.4,266.8l-0.3,9.5
			c0,0.5,0,1.1,0.4,1.5c0.4,0.4,1,0.4,1.4,0.5l6.2,0.2c0.8,0,1.5,0,2-0.4c0.2-0.2,0.5-0.5,0.5-1c0-0.4-0.1-0.8-0.5-1.1
			c-0.4-0.3-0.9-0.4-1.3-0.4l-5-0.2l0.1-2.6l4.3,0.1c0.4,0,1.2,0,1.6-0.7c0.1-0.2,0.2-0.4,0.2-0.7c0-0.5-0.3-0.9-0.7-1.2
			c-0.3-0.2-0.7-0.2-1-0.3l-4.3-0.1l0.1-2.1l4.5,0.1c0.7,0,1.2,0,1.7-0.3c0.4-0.3,0.5-0.8,0.6-1.1c0-0.6-0.3-1.1-0.7-1.3
			c-0.4-0.2-0.9-0.2-1.4-0.2l-6.3-0.2l-0.1,0C270.5,265,270.5,266.2,270.4,266.8 M284,251.5c0,0.9,0.2,2,1.3,2.9
			c0.8,0.7,1.4,0.9,3.9,1.6c1.6,0.5,2.3,0.7,2.2,1.4c0,0.7-0.9,1.2-2,1.2c-0.2,0-1.4-0.1-2-0.6c-0.2-0.2-0.4-0.4-0.5-0.6
			c-0.1-0.2-0.1-0.4-0.2-0.6c-0.1-0.3-0.4-0.7-0.9-1c-0.2-0.1-0.4-0.1-0.7-0.2c-0.9,0-1.7,0.6-1.8,1.7c0,0.5,0.2,1.5,1,2.4
			c1.1,1.2,2.8,1.7,5.1,1.8c1.8,0.1,3.6-0.3,4.8-1.7c0.7-0.8,0.9-1.8,1-2.6c0-1.7-1-3-2.7-3.7c-0.6-0.2-3.4-1-3.9-1.2
			c-0.4-0.2-0.9-0.4-0.8-0.9c0-0.7,0.8-1.1,1.8-1c0.2,0,1.3,0.1,1.9,0.7c0.1,0.1,0.2,0.2,0.2,0.4c0.1,0.1,0.1,0.3,0.2,0.5
			c0.3,0.6,0.9,0.9,1.4,0.9c0.8,0,1.7-0.6,1.7-1.6c0-1.2-1.2-2.6-2.8-3.1c-0.9-0.3-1.8-0.4-2.7-0.4c-0.1,0-0.2,0-0.3,0
			C285.5,247.5,284.1,249.7,284,251.5 M149.8,237.5L149.8,237.5l21.1,9.4c0.7-1.4,1.7-4.2,2-6c0.3-1.9,0.4-4.2-0.1-5.7L149.8,237.5z
			 M355.2,243.5l15.9,15.3l7.5-9.6l-9.9-13.3l-4.7-3.7L355.2,243.5z M298.7,230.9c-0.4,0.3-0.6,0.7-0.6,1.1c0,0.5,0.3,1,0.6,1.3
			c0.4,0.3,0.8,0.3,1.2,0.3l1.8,0.1l-0.3,8.3c0,0.5,0,1.2,0.6,1.8c0.3,0.3,0.7,0.5,1.3,0.5c0.3,0,1,0,1.5-0.7c0.4-0.5,0.4-1,0.5-1.5
			l0.3-8.3l2,0.1c0.3,0,0.8,0,1.3-0.3c0.3-0.2,0.6-0.6,0.6-1.1c0-0.3-0.1-0.7-0.4-1c-0.4-0.5-1.1-0.5-1.6-0.5l-7.6-0.2l-0.1,0
			C299.3,230.7,299,230.7,298.7,230.9 M317,223.7l-1.1,0l0.2-7.4l1.1,0c0.9,0,1.9,0.1,2.5,0.9c0.4,0.5,0.8,1.4,0.7,2.9
			c0,0.7-0.2,1.7-0.5,2.3c-0.6,1.1-1.6,1.3-2.7,1.3C317.2,223.7,317.1,223.7,317,223.7 M312.9,213.8c-0.4,0.4-0.4,1-0.4,1.4
			l-0.3,9.3c0,0.5,0,1.3,0.8,1.8c0.4,0.3,0.9,0.3,1.3,0.3l2.1,0.1c2.4,0.1,4.2,0.1,5.9-1.6c1.3-1.3,2-3,2-4.9
			c0.1-2.8-1.1-4.8-2.6-5.8c-1.3-0.9-2.9-1-3.7-1l-3.3-0.1c-0.1,0-0.1,0-0.2,0C314,213.3,313.4,213.3,312.9,213.8 M398.3,186
			l-5.6,10.9l17.2,13.6l10.1-7.2c0.7-0.5,0.8-1.6,0-2.1l-19.7-15.5c-0.3-0.2-0.5-0.3-0.8-0.3C399,185.2,398.5,185.5,398.3,186
			 M519.7,196.5c0.2,1,0.9,2.8,1.4,4.2c3.3,8.3,11.1,11.2,22,6.8c10.7-4.3,13.5-12.2,10.5-19.7c-0.5-1.3-1.3-3-1.9-4.2L519.7,196.5z
			 M344.2,205.2l16.9-20.9l3.3-1.7c0,0,17.8,16.4,19.3,17.4l-18.5-10.6c-0.5,0.1-0.8,0.1-1.3,0.2L348.3,208L344.2,205.2z M360,173.5
			l-24.8,31.5l0.3,2.3l80.7,63.5l9.6-12.2l-0.8-36.1l-14.4-11.4l-4.1,5.2l-19-14.9l4.1-5.2l-29.3-23.1L360,173.5z M336.8,371.8
			l3.1-60.1c1.1,1.3,2.3,2.4,3.6,3.5l-3,57.3C339.3,372.3,338,372,336.8,371.8 M373.4,307.5c0.3,1.7,0.8,3.3,1.2,5
			c-7.6,4.1-17.6,5.6-24.6,2.1c1.7,0.4,3.4,0.6,5.1,0.6C362.1,315.2,368.9,311.8,373.4,307.5 M308.8,281.1c-0.4-0.3-0.4-0.8-0.2-1.2
			l4.5-5.7c0.3-0.4,0.8-0.4,1.2-0.2l19.9,15.7c1.2,1,1.8,2.4,1.7,3.9c0,0.5-0.1,0.9-0.3,1.4c-0.1-0.1-0.2-0.3-0.4-0.4l-19.9-15.7
			c-0.4-0.3-0.9-0.2-1.2,0.2l-1,5.5L308.8,281.1z M345.7,291.6l15-19.1l6.5,5.1l-20.6,18.8c-0.4,0.7-3.2,5.3-2.4,12.4
			C341.2,299.1,345.1,292.4,345.7,291.6 M317.5,270.1c-0.4-0.3-0.4-0.9-0.1-1.2l4.5-5.7c0.3-0.4,0.8-0.4,1.2-0.2l19.9,15.7
			c1.6,1.3,2.1,3.4,1.4,5.2c-0.1-0.1-0.2-0.2-0.4-0.4L324,267.9c-0.4-0.3-0.9-0.2-1.2,0.1l-1.4,5.2L317.5,270.1z M326.2,259.1
			c-0.4-0.3-0.4-0.8-0.2-1.2l4.5-5.7c0.3-0.4,0.8-0.4,1.2-0.1l9.4,7.4l-2,2.5l-6.4-5.1c-0.4-0.3-0.9-0.2-1.2,0.1l-1.6,5L326.2,259.1
			z M343.1,270.1c-0.8-0.3-1.7-0.7-2.7-1.1c-0.1,0-0.2-0.1-0.3-0.1l-0.1,0l13.7-17.3l21,16.6c0.8,0.7,1.4,1.6,1.5,2.7l0.4,3.1
			c-0.2-0.4-0.5-0.7-0.9-1L357,258.1l-13.2,12.2C343.6,270.2,343.4,270.2,343.1,270.1 M334.8,248.1c-0.4-0.3-0.4-0.8-0.1-1.2
			l4.5-5.7c0.3-0.4,0.9-0.4,1.2-0.1l9.4,7.4l-2,2.5l-6.4-5.1c-0.4-0.3-0.9-0.2-1.2,0.1l-1.1,5.5L334.8,248.1z M253,270.5
			c0-56.9,46.3-103.2,103.2-103.2c56.9,0,103.2,46.3,103.2,103.2c0,46.3-30.7,85.6-72.8,98.6l-7.8-64.2l0,0c4.8-8.3,5.6-9,4.3-19.7
			l-1.8-14.9c-0.3-2.4-1.5-4.5-3.4-6l-6.8-5.4l-17.3-13.5l-10.3-8.1c-2.6-2-6.3-1.6-8.3,1l-4.5,5.7c-0.8,1-1.2,2.2-1.3,3.3
			c-1.1,0.3-2.2,1-2.9,2l-4.5,5.7c-0.8,1-1.2,2.2-1.3,3.3c-1.1,0.3-2.2,1-2.9,2l-4.5,5.7c-0.8,1-1.2,2.2-1.2,3.3
			c-1.1,0.3-2.2,1-2.9,2l-4.5,5.7c-2,2.6-1.6,6.3,1,8.3l10.3,8.1l0.2,0.1l-27.1,34.4c-2.1,2.6-1.6,6.4,1,8.5l7.1,5.6
			c2.6,2,6.4,1.6,8.4-1l27.3-34.6l4.1,3.2l-4.7,61.4C286.9,360,253,319.2,253,270.5 M245.3,270.5c0,61.1,49.7,110.8,110.8,110.8
			c61.1,0,110.8-49.7,110.8-110.8c0-61.1-49.7-110.8-110.8-110.8C295.1,159.7,245.3,209.4,245.3,270.5 M325.4,155.7
			c10.2-2.7,19.7-13.8,30.8-13.8c11.1,0,20.6,11.1,30.8,13.8c4.5,1.2,9.6,1,14.7,0.8c6.8-0.2,13.5-0.5,18.8,2.6
			c9.4,5.4,12.1,19.7,19.7,27.4c7.6,7.6,21.9,10.3,27.4,19.7c5.4,9.3,0.6,23,3.4,33.5c2.7,10.2,13.8,19.7,13.8,30.8
			c0,11.1-11.1,20.6-13.8,30.8c-2.8,10.6,1.9,24.3-3.4,33.6c-5.4,9.4-19.7,12.1-27.4,19.7c-7.6,7.6-10.3,21.9-19.7,27.4
			c-5.3,3.1-12,2.8-18.8,2.6c-5.1-0.2-10.2-0.4-14.7,0.8c-10.2,2.7-19.7,13.8-30.8,13.8c-11.1,0-20.6-11.1-30.8-13.8
			c-4.5-1.2-9.6-1-14.7-0.8c-6.8,0.2-13.5,0.5-18.8-2.6c-9.4-5.4-12.1-19.7-19.7-27.4c-7.6-7.6-21.9-10.3-27.4-19.7
			c-5.4-9.3-0.6-23-3.4-33.6c-2.7-10.2-13.8-19.7-13.8-30.8c0-11.1,11.1-20.6,13.8-30.8c2.8-10.6-1.9-24.3,3.4-33.6
			c5.4-9.4,19.7-12.1,27.4-19.7c7.6-7.6,10.3-21.9,19.7-27.4c5.3-3.1,12-2.8,18.8-2.6c1.8,0.1,3.7,0.1,5.5,0.1
			C319.4,156.6,322.5,156.4,325.4,155.7 M214.8,270.5c0,78,63.4,141.4,141.4,141.4s141.4-63.4,141.4-141.4s-63.4-141.4-141.4-141.4
			S214.8,192.5,214.8,270.5 M361.3,491.8c-0.6-0.5-0.6-1.3-0.7-2l-0.6-13.5c0-0.7-0.1-1.4,0.5-2c0.2-0.2,0.6-0.5,1.3-0.6
			c0.3,0,0.9,0,1.4,0.5c0.5,0.6,0.6,1.2,0.6,1.9l0.5,12.7l5.8-0.2c0.6,0,1.4,0,1.8,0.8c0.2,0.3,0.2,0.6,0.2,0.8c0,0.3,0,0.6-0.2,0.9
			c-0.4,0.8-1.1,0.9-1.7,0.9l-7.2,0.3h0C362.6,492.3,361.9,492.3,361.3,491.8 M344,492.3c-0.2,0-1-0.1-1.4-0.7
			c-0.4-0.7-0.4-1.5-0.4-2.2l0.7-13.4c0-0.7,0.1-1.5,0.7-2.1c0.5-0.5,1.1-0.5,1.3-0.5c0.3,0,1,0.1,1.4,0.8c0.4,0.7,0.4,1.4,0.3,2
			l-0.7,13.3c-0.1,1-0.1,2.7-1.9,2.7L344,492.3z M316.8,489.2c-0.7-0.1-1.9-0.7-1.7-2.3c0.1-0.5,0.3-0.9,0.5-1.3l6-12
			c0.8-1.7,1.3-2.6,3.1-2.3c1.8,0.3,2.1,1.2,2.2,2.4l2.2,13.9c0.1,0.5,0.1,1,0.1,1.5c-0.2,1.2-1.1,1.8-2.3,1.6
			c-1.2-0.2-1.5-1.2-1.6-2.1l-0.2-2.1l-5.3-0.8l-0.7,1.6c-0.4,0.9-0.9,1.9-1.9,1.9C317,489.2,316.9,489.2,316.8,489.2 M386.8,490.3
			c-1.2-0.2-1.4-1.3-1.5-2l-2.2-13.9c-0.1-0.5-0.2-1.1,0.1-1.6c0.3-0.6,1-0.7,1.5-0.8l8.3-1.3c0.4-0.1,0.8-0.1,1.1,0
			c0.4,0.2,0.9,0.6,1,1.4c0.1,0.3,0.1,0.7-0.1,1c-0.3,0.8-1,0.9-1.6,1l-6.5,1l0.6,3.7l5.9-0.9c0.4-0.1,0.7-0.1,1.1,0
			c0.3,0.1,1,0.4,1.1,1.3c0.1,0.7-0.1,1.3-0.7,1.6c-0.3,0.2-0.6,0.2-1,0.3l-5.9,0.9l0.7,4.6l6.6-1.1c0.6-0.1,1.3-0.2,1.9,0.6
			c0.2,0.3,0.3,0.5,0.3,0.8c0.1,0.9-0.3,1.4-0.6,1.6c-0.3,0.2-0.7,0.3-1,0.3l-8.3,1.3c-0.2,0-0.4,0.1-0.7,0.1
			C386.9,490.3,386.9,490.3,386.8,490.3 M411.4,483.3l-3.9-13.5c-0.2-0.6-0.3-1.2,0-1.8c0.3-0.5,1-0.7,1.4-0.9l3.4-1
			c1.8-0.5,4.3-1.2,6.8,0.5c2,1.3,3.3,3.5,4,5.9c0.6,2.2,0.8,4.5,0.1,6.6c-1.1,3.3-3.7,4.1-5.7,4.8l-3.4,1c-0.4,0.1-0.7,0.2-0.9,0.2
			C412.2,485,411.8,484.4,411.4,483.3 M289.9,482.6c-0.7-0.2-1-0.7-1-0.8c-0.3-0.7-0.1-1.5,0.1-2.2l3.7-13.1
			c0.2-0.6,0.3-1.1,0.8-1.6c0.6-0.5,1.3-0.6,2.1-0.4c1.3,0.4,1.6,1,1.8,2.1l2.6,11.6c0.1-0.4,0.2-0.7,0.3-1.1
			c0.1-0.4,0.2-0.7,0.3-1.1l2-7.1c0.2-0.6,0.4-1.3,1-1.6c0.3-0.2,0.8-0.4,1.4-0.2c0.4,0.1,0.7,0.4,0.7,0.4c0.7,0.7,0.4,1.7,0.2,2.4
			l-3.8,13.3c-0.3,1-0.8,2.5-2.9,1.9c-1.3-0.4-1.4-1.2-1.7-2.5l-2.4-11.5c-0.2,0.8-0.2,1-0.5,1.9l-2.1,7.2c-0.2,0.8-0.7,2.3-1.9,2.3
			C290.3,482.7,290.1,482.7,289.9,482.6 M353.3,458.1c0.2-0.1,1.3-0.5,1.3-1.9c0-0.7-0.3-1.2-0.7-1.5c-0.5-0.4-0.8-0.5-3-1.2
			c-2.7-0.9-5.8-1.9-5.7-5.7c0.1-3.4,2.5-5.5,6.8-5.4c4.2,0.1,6.5,2.5,6.4,4.4c0,1.3-1.1,1.9-2,1.9c-0.5,0-0.9-0.2-1.4-1
			c-0.1-0.2-0.2-0.4-0.3-0.6c-0.5-0.8-1.4-1.3-2.8-1.3c-1.7,0-2.9,0.6-2.9,1.8c0,0.4,0.1,0.8,0.4,1.1c0.3,0.3,0.9,0.5,2.1,0.9
			c3.7,1.2,4,1.3,4.9,1.9c1,0.8,2.1,2.2,2,4.3c0,1.9-0.9,3.4-2.1,4.3c-1.4,1.1-3.2,1.5-5,1.4c-1.7,0-3.3-0.4-4.5-1.1
			c-2.5-1.4-2.6-3.2-2.6-3.7c0-1.3,1-2,1.9-2c0.8,0,1.3,0.6,1.8,1.5c0.5,0.9,1.1,1.9,3.5,1.9h0.2
			C352.3,458.3,352.8,458.3,353.3,458.1 M382,448.2l-0.6-4.6c-0.1-0.7-0.2-1.4,0.2-2c0.1-0.1,0.4-0.7,1.3-0.8c0.1,0,0.5-0.1,0.8,0
			c1.1,0.4,1.3,1.5,1.4,2.3l1.7,13.5c0.1,0.6,0.2,1.4-0.2,2c-0.4,0.8-1.1,0.9-1.3,0.9c-0.1,0-0.4,0-0.7,0c-1.2-0.3-1.4-1.5-1.5-2.3
			l-0.7-5.5l-6,0.8l0.7,5.5c0.1,0.8,0.3,2.5-1.5,2.8c-0.7,0.1-1.1-0.1-1.5-0.4c-0.5-0.5-0.7-1.3-0.7-1.9l-1.7-13.5
			c-0.1-0.7-0.2-1.5,0.3-2.1c0.3-0.5,0.7-0.7,1.3-0.8c0.5-0.1,1.1,0.1,1.5,0.5c0.5,0.6,0.6,1.3,0.7,1.9l0.6,4.5L382,448.2z
			 M328.5,459.5l-8.3-1.4c-0.3,0-0.6-0.1-0.8-0.2c-1.1-0.6-0.9-1.7-0.8-2.4l2.4-13.9c0.1-0.5,0.2-1.1,0.6-1.5
			c0.5-0.5,1.1-0.4,1.7-0.3l8.2,1.4c0.4,0.1,0.8,0.2,1.1,0.4c0.3,0.3,0.7,0.8,0.5,1.7c0,0.3-0.1,0.6-0.4,0.9
			c-0.5,0.6-1.2,0.5-1.8,0.4l-6.5-1.1l-0.6,3.7l5.9,1c0.4,0.1,0.7,0.1,1,0.3c0.3,0.2,0.8,0.7,0.6,1.6c-0.1,0.7-0.5,1.2-1.1,1.3
			c-0.4,0.1-0.7,0-1,0l-5.9-1l-0.8,4.6l6.6,1.1c0.6,0.1,1.3,0.3,1.6,1.2c0.1,0.3,0.1,0.6,0.1,0.8c-0.1,0.9-0.7,1.3-1.1,1.3
			c-0.1,0-0.3,0.1-0.4,0.1C329,459.6,328.8,459.5,328.5,459.5 M409.8,442.3l-0.3-5.5c-0.1-1.5,0-2.6,1.9-3.1c2.5-0.8,3.3-0.1,3.9,2
			l3.9,12.8c0.2,0.7,0.7,2.3-0.9,2.8c-1.7,0.5-2.2-1.1-2.4-1.8l-1.6-5.3c-0.5-1.8-0.6-2.2-1.7-6.4c0.4,3.8,0.4,4.9,0.6,8.1l0.2,4.8
			c0,1.1,0,2-1.8,2.5c-1.7,0.5-2.2-0.2-2.8-1.2l-2.3-3.8c-2-3.4-2.2-3.7-4.2-7.4c1,2.7,1.2,3.4,2.2,6.6l1.5,4.9
			c0.2,0.8,0.7,2.4-0.9,2.9c-1.6,0.5-2.1-1.1-2.4-1.9l-3.9-12.9c-0.2-0.7-0.5-1.8,0.2-2.7c0.4-0.5,1.3-0.8,1.8-1
			c2-0.6,2.6,0,3.3,1.2l2.8,4.7c1,1.7,1.2,2.1,3.5,6.4C410.1,446.4,410.1,445.9,409.8,442.3 M292.4,450.8c-0.3-0.1-0.5-0.2-0.7-0.4
			c-0.9-0.8-0.6-2-0.3-2.7l4.2-12.7c0.2-0.6,0.5-1.5,1.2-1.8c0.7-0.4,1.5-0.2,2,0l4.5,1.5c1.5,0.5,3.1,1.1,4,2.7
			c1,1.7,0.5,3.4,0.3,4c-0.6,1.8-1.7,3.2-3.5,3.4c-0.3,0-0.6,0-1,0c0.3,0.2,0.5,0.4,0.8,0.6c0.8,0.9,0.7,2.1,0.4,3.8
			c-0.1,0.5-0.2,0.9-0.3,1.4c-0.1,0.3-0.1,0.6-0.1,1c0,0.2,0,0.4,0,0.7c0,0.3-0.1,0.5-0.1,0.6c-0.3,0.8-1.1,1.4-2.2,1.1
			c-1.9-0.6-1.5-2.6-1.3-4c0.1-0.4,0.2-0.8,0.2-1.3c0.4-2.1-0.2-2.5-1.8-3.1l-2.5-0.8l-1.4,4.2c-0.2,0.5-0.4,1.2-0.9,1.6
			c-0.4,0.3-0.7,0.4-1,0.4C292.7,450.9,292.5,450.8,292.4,450.8 M268.3,440.2c-0.3-0.2-0.6-0.4-0.8-0.7c-0.5-0.9-0.1-1.7,0.2-2.4
			l6-12.1c0.3-0.6,0.7-1.4,1.6-1.6c0.7-0.2,1.3,0.2,1.8,0.4l6.7,3.3c0.3,0.2,0.7,0.4,0.9,0.7c0.4,0.5,0.4,1.1,0.1,1.7
			c-0.1,0.2-0.3,0.5-0.6,0.8c-0.7,0.5-1.4,0.1-2-0.1l-5.6-2.8L275,431l5,2.5c0.5,0.2,1.2,0.6,1.2,1.5c0,0.3-0.1,0.5-0.2,0.8
			c-0.7,1.5-2,0.8-2.5,0.6l-4.9-2.4l-2.4,4.8c-0.2,0.4-0.5,0.9-0.8,1.2c-0.4,0.4-0.8,0.5-1.2,0.5
			C268.7,440.5,268.4,440.3,268.3,440.2 M434.1,442.4l-6.2-12.6c-0.2-0.4-0.5-1-0.4-1.6c0.1-0.7,0.7-1,1.2-1.2l7.5-3.7
			c0.4-0.2,0.7-0.3,1.1-0.3c0.4,0,1,0.3,1.4,1c0.1,0.3,0.2,0.6,0.2,0.9c-0.1,0.8-0.7,1.1-1.2,1.4l-5.9,2.9l1.6,3.4l5.3-2.6
			c0.3-0.2,0.6-0.3,1-0.3c0.3,0,1.1,0.1,1.5,0.9c0.3,0.6,0.3,1.3-0.1,1.8c-0.2,0.3-0.5,0.4-0.9,0.6l-5.4,2.6l2.1,4.2l6-2.9
			c0.6-0.3,1.2-0.6,2,0c0.3,0.2,0.4,0.4,0.5,0.6c0.4,0.8,0.1,1.5-0.1,1.7c-0.2,0.3-0.5,0.4-0.9,0.6l-7.6,3.7
			c-0.3,0.1-0.5,0.3-0.8,0.3c-0.1,0-0.2,0-0.2,0C434.8,443.9,434.3,443,434.1,442.4 M272.7,469.3c-25.6-10.7-48.5-26.1-68.3-45.7
			c-0.7-0.7-0.7-1.8,0-2.4c0.7-0.7,1.8-0.7,2.4,0c19.5,19.3,42.1,34.4,67.2,45c0.9,0.4,1.3,1.4,0.9,2.3c-0.3,0.7-0.9,1.1-1.6,1.1
			C273.1,469.4,272.9,469.3,272.7,469.3 M435.2,469.2c-0.4-0.9,0.1-1.9,1-2.2c26.3-10.7,49.9-26.4,70-46.5c0.7-0.7,1.8-0.7,2.4,0
			c0.7,0.7,0.7,1.8,0,2.4c-20.5,20.5-44.4,36.4-71.2,47.3c-0.2,0.1-0.4,0.1-0.6,0.1C436.1,470.3,435.4,469.9,435.2,469.2
			 M253.3,431.3c-0.4-0.1-0.7-0.3-1-0.5l-6.9-4.8c-0.3-0.2-0.5-0.3-0.7-0.6c-0.7-0.9-0.1-1.9,0.3-2.4l7.9-11.6
			c0.3-0.4,0.6-0.9,1.2-1.1c0.7-0.2,1.2,0.1,1.6,0.4l6.9,4.7c0.3,0.2,0.6,0.5,0.8,0.8c0.2,0.4,0.3,1-0.2,1.7
			c-0.2,0.3-0.4,0.5-0.7,0.6c-0.8,0.3-1.3,0-1.8-0.4l-5.4-3.7l-2.1,3.1l4.9,3.4c0.3,0.2,0.6,0.4,0.8,0.7c0.2,0.3,0.4,1-0.1,1.7
			c-0.4,0.6-1,0.9-1.6,0.7c-0.3-0.1-0.6-0.3-0.9-0.5l-4.9-3.4l-2.6,3.9l5.5,3.8c0.5,0.4,1.1,0.8,1,1.7c0,0.3-0.2,0.6-0.3,0.8
			c-0.4,0.6-1,0.8-1.4,0.8C253.4,431.3,253.4,431.3,253.3,431.3 M463.1,419.3c-0.2-0.3-0.4-0.6-0.6-0.9l-4.2-6.1
			c-0.3-0.5-0.7-1.1-0.6-1.8c0-0.4,0.2-0.9,0.7-1.2c0.4-0.3,0.7-0.3,0.8-0.3c1-0.1,1.6,0.7,2,1.4l7.9,11.4c0.6,0.8,1.4,2.2-0.4,3.4
			c-1.1,0.7-1.8,0.4-3.1-0.3l-10.4-5.4c0.5,0.6,0.6,0.8,1.2,1.6l4.3,6.2c0.5,0.8,1.6,2.3,0.1,3.3c-0.6,0.4-1.2,0.3-1.3,0.3
			c-0.8-0.2-1.2-0.9-1.6-1.4l-7.7-11.2c-0.4-0.5-0.7-1-0.7-1.6c-0.1-0.8,0.3-1.4,1-1.8c1.1-0.8,1.7-0.6,2.8-0.1l10.6,5.4
			C463.5,419.9,463.3,419.6,463.1,419.3 M223.1,407.7c-0.2-0.2-0.3-0.4-0.5-0.6c-0.5-1.1,0.3-2,0.8-2.6l9.1-9.8
			c0.5-0.5,1.1-1.1,1.8-1.2c0.8-0.1,1.4,0.5,1.8,0.9l3.5,3.2c1.2,1.1,2.4,2.3,2.6,4.1c0.2,2-1,3.3-1.4,3.7c-1.3,1.4-2.9,2.2-4.6,1.7
			c-0.3-0.1-0.6-0.2-0.9-0.4c0.2,0.3,0.4,0.6,0.4,0.9c0.4,1.2-0.3,2.2-1.2,3.6c-0.3,0.4-0.6,0.8-0.8,1.2c-0.2,0.3-0.4,0.5-0.5,0.8
			c-0.1,0.2-0.2,0.4-0.3,0.6c-0.1,0.3-0.3,0.4-0.3,0.5c-0.6,0.6-1.6,0.8-2.4,0.1c-1.4-1.3-0.3-3,0.5-4.1c0.2-0.3,0.5-0.7,0.8-1.1
			c1.2-1.8,0.8-2.4-0.4-3.6l-1.9-1.8l-3,3.3c-0.4,0.4-0.9,0.9-1.5,1.1c-0.2,0-0.3,0.1-0.4,0.1C223.7,408.2,223.3,407.9,223.1,407.7
			 M470,402.5c-0.2-0.2-0.4-0.5-0.5-0.8c-0.2-0.8,0.3-1.3,0.7-1.7l7.2-6.8c0.4-0.4,1-0.9,1.9-0.6c0.3,0.1,0.5,0.3,0.7,0.5
			c0.6,0.6,0.6,1.3,0.4,1.7c-0.1,0.3-0.4,0.6-0.7,0.9l-2.2,2.1l8.7,9.3c0.2,0.2,0.5,0.5,0.6,0.7c0.5,0.7,0.6,1.6-0.2,2.4
			c-0.5,0.5-1,0.6-1.4,0.5c-0.8-0.1-1.3-0.6-1.8-1.1l-8.7-9.3l-2.2,2.1c-0.3,0.2-0.8,0.7-1.4,0.7C470.8,403.1,470.4,402.9,470,402.5
			 M195,390.6c0-3.2,2.6-5.8,5.8-5.8c3.2,0,5.8,2.6,5.8,5.8c0,3.2-2.6,5.8-5.8,5.8C197.7,396.4,195,393.8,195,390.6 M505.7,390.6
			c0-3.2,2.6-5.8,5.8-5.8c3.2,0,5.8,2.6,5.8,5.8c0,3.2-2.6,5.8-5.8,5.8C508.3,396.4,505.7,393.8,505.7,390.6 M518.5,313.3l5.9-20.4
			l1.7,0.5c-0.6,2,0.1,3.4,3.4,4.4l43.2,12.4c2.4,0.7,4.3-0.2,4.8-2l1.7,0.5c-0.9,3.7-2.6,11.8-4.9,19.8
			c-4.6,16.1-11.2,28-27.3,23.4c-8.2-2.3-12.4-9.4-13.2-15.9c-5-0.1-13.1,1.1-18.5,2.9c-1.7,0.6-2.6,1.2-3.2,3.3l-1.7-0.5l5.3-18.3
			c4.5-1.1,12.5-1.1,18.3-0.8c0.2-0.9,0.5-2.4,0.9-3.9c0.4-1.3,0.9-2.7,1.3-3.8l-10.7-3.1c-3.3-0.9-4.6-0.2-5.2,1.9L518.5,313.3z
			 M136.1,296.7l43.9-11.3c3.5-0.9,4.3-2.1,3.7-4.2l1.7-0.4l5,19.4l-1.7,0.4c-0.5-2.1-2-2.8-5.3-1.9l-24.6,6.3l0,0.2l28.2,6.1
			l1.6,6.2l-21.9,18.2l0.1,0.2l24.6-6.3c3.4-0.9,4.3-2.1,3.7-4.3l1.7-0.4l5,19.4l-1.7,0.4c-0.5-2.1-1.8-2.9-5.3-2l-43.6,11.2
			c-2.7,0.7-3.4,2.1-2.9,4.1l-1.7,0.4l-5-19.4c1-0.2,2.2-1,3.6-2.2l21.1-17.7l0-0.2L139,313c-1.8-0.4-3.3-0.7-4.2-0.3l-4.6-17.7
			l1.7-0.4c0.4,1.5,1.3,2.4,2.9,2.4C135.2,296.9,135.6,296.8,136.1,296.7 M528.5,241.1l45-2.8c2.4-0.2,4.1-1.7,4-3.5l1.7-0.1
			l2.2,35.7c0.1,1.2,0.7,3.9,0.9,4.6l-14.3,3.8l-0.7-1.7c2.4-1.5,2.9-2.5,2.7-5.3l-1.2-18.4l-9.9,0.6l1.1,16.8
			c0.1,1.8,0.8,2.7,2.6,2.6l0.1,1.9l-16.5,1l-0.1-1.9c1.7-0.1,2.3-1.1,2.2-2.9l-1.1-16.8l-12.2,0.8l1.2,18.6c0.2,3,1.1,3.9,3.9,5.1
			l-0.5,2l-15.8-2.4c0.4-1.4,0.7-3.9,0.6-5.4l-2.2-35.1l1.8-0.1c0.1,2,1.4,3,3.8,3C528.1,241.2,528.3,241.2,528.5,241.1 M143.3,226
			l45.5-7.5c3.5-0.6,4.1-1.2,4.4-3.2l1.8,0.3l-3.5,21.9l-1.8-0.3c0.3-2.1-0.4-3.3-1.9-3.5c-0.5-0.1-1.3,0.1-2.1,0.2l-1.4,0.2
			c0.4,2.4,0.4,5.8-0.1,8.9c-0.5,2.9-1.5,6-2.7,8.3l1.4,0.8c0.8,0.4,1.4,0.7,1.9,0.8c1.6,0.3,2.4-0.7,2.7-2.4l1.8,0.3l-3.3,20.9
			l-1.8-0.3c0.3-2,0.1-2.7-3-4.4l-41.4-21.8c-0.8-0.4-2.5-1.2-3.3-1.3c-1.3-0.2-2.1,0.3-2.3,1.5l-1.8-0.3l3.4-21.3l1.8,0.3
			c-0.2,1.2,0.5,2,2,2.2c0.2,0,0.5,0.1,0.8,0.1C141,226.4,141.9,226.3,143.3,226 M509.6,184.7l41.6-16.7c2.3-0.9,3.2-2.8,2.6-4.5
			l1.7-0.7c1.9,3.7,4.9,10.2,8.1,18.1c8.2,20.4,1.1,34.4-14.6,40.7c-16.6,6.6-31.2,2.5-40.3-20.1c-2.6-6.6-5.3-14-6.2-17.5l1.7-0.7
			c0.5,1.3,1.3,2,2.7,2C507.5,185.4,508.4,185.1,509.6,184.7 M149.5,179.1l10.4-18.5l1.6,0.9c-1,1.7-0.6,3.4,2.2,5l34.2,19.1
			l9.4-16.8c1.2-2.2,0.8-3.9-0.8-5.9l1.5-1.4l11.9,10.6c-1.1,0.9-2.3,2.3-3.1,3.6L199.3,207l-1.6-0.9c1-1.8,0.5-3.4-2.3-5l-39.3-22
			c-2.1-1.2-4.2-0.7-5.1,0.9L149.5,179.1z M488.3,156.6l35.1-27.8c1.9-1.5,2.3-3.6,1.2-5.1l1.4-1.1l13.2,16.6l-1.4,1.1
			c-1.2-1.5-2.9-1.9-5.5,0.2l-34.8,27.5c-2.6,2.1-3,3.7-1.6,5.4l-1.4,1.1l-13.2-16.6l1.4-1.1c0.6,0.8,1.4,1.3,2.3,1.3
			C485.8,158.2,486.9,157.7,488.3,156.6 M205.6,270.5c0-83.1,67.4-150.6,150.6-150.6c83.2,0,150.6,67.4,150.6,150.6
			c0,83.2-67.4,150.6-150.6,150.6C273,421.1,205.6,353.6,205.6,270.5 M188.8,118.7l15.6-14.3l1.2,1.3c-1.4,1.3-1.6,3,0.6,5.5
			l26.4,28.9l14.2-13c1.9-1.7,2-3.5,1.1-5.8l1.9-0.8l8,13.8c-1.3,0.5-2.9,1.5-4,2.5l-26.4,24.2l-1.2-1.3c1.6-1.4,1.6-3.1-0.6-5.5
			l-30.4-33.2c-1.6-1.8-3.7-2-5.1-0.8L188.8,118.7z M469,144.5c-0.9-0.6-6.7-3-11.4-6.4c-12.6-9.1-16.5-25.2-5.3-40.6
			c11.6-16,29-15.6,40.2-7.5c4.2,3,8.8,7.8,9.8,8.5c1.4,1,2.8,1.2,2.8,1.2l-7.3,15.5l-2.4-0.8c1.7-5.2-3.4-10-7.2-12.8
			c-6.9-5-16.3-5.4-23.7,4.9c-7.5,10.3-3.4,18.9,3.2,23.7c5.6,4.1,10.2,5.5,14.9,2.1l1.6,2.1L471,146.8
			C471,146.8,470.4,145.5,469,144.5 M245.3,73.6l32.7-14.5c1.1-0.5,3.4-2,4-2.4l8.5,12.1l-1.3,1.2c-2.3-1.7-3.4-1.8-5.9-0.7
			l-16.8,7.5l4,9l15.4-6.8c1.6-0.7,2.3-1.7,1.5-3.4l1.7-0.8l6.7,15.1l-1.7,0.8c-0.7-1.6-1.9-1.8-3.5-1l-15.4,6.8l5,11.2l17.1-7.6
			c2.8-1.2,3.3-2.4,3.4-5.4l2.1-0.2l3.3,15.6c-1.5,0.1-3.9,0.7-5.3,1.4l-32.1,14.3l-0.7-1.6c2-0.9,2.4-2.7,1.3-5.2l-18.3-41.2
			c-1-2.2-3-3.3-4.7-2.6L245.3,73.6z M399.3,92.1c0.4-2.2-0.8-3.9-10.9-11c-8.6-6-12.2-11.8-10.7-18.9c2.1-10.2,11.4-16.2,26.2-13.2
			c3.8,0.8,8.6,3.1,10.8,3.6c1.4,0.3,2.4,0.2,3,0.1L416,69.4l-2.4,0c-0.2-1.5-0.7-3.1-2.1-4.5c-1.7-1.7-3.9-3-9.4-4.1
			c-6.1-1.2-8.8,0.6-9.2,2.7c-0.4,2.2,1.6,4.2,9.9,10c7.5,5.2,13,11,11.1,20.4c-2.1,10.6-9.8,16.8-25.1,13.7c-5-1-11.8-4.6-14.3-5.1
			c-1.4-0.3-2.5-0.2-3.1,0l0.8-18.6l3-0.3c0.3,1.7,0.5,3.5,1.5,5.1c1.9,2.9,4.9,5.2,12.1,6.7c1.7,0.3,3.1,0.5,4.3,0.5
			C397.1,95.9,398.9,94.4,399.3,92.1 M313.7,48.8l38-4c1.2-0.1,2.6-0.5,3.3-0.8l4.6,14.4l-2.1,1c-0.9-2-2.2-3.3-4-3.1l-12.6,1.3
			l4.1,38.8c0.4,3.4,1.5,4.7,3.7,4.5l0.2,1.8l-21,2.2l-0.2-1.8c2.2-0.2,3.1-1.7,2.7-5.1L326.2,59l-12.7,1.3
			c-1.8,0.2-2.9,1.6-3.2,3.9l-2.4-0.5l1.4-15c0.3,0.1,1,0.2,1.9,0.2C312,48.9,312.7,48.9,313.7,48.8 M168.7,414.4L168.7,414.4
			l-1.5-1.9l0,0c-29.8-39.6-47.5-88.8-47.5-142C119.7,140.1,225.8,34,356.2,34v2.3c-129.1,0-234.2,105-234.2,234.2
			c0,52.7,17.5,101.5,47.1,140.6l18.4-14.1c-1-2-1.5-4.2-1.5-6.4c0-8.2,6.6-14.8,14.8-14.8c3.6,0,7,1.3,9.6,3.6l17.1-13.1h0
			c-20-26.7-31.8-59.9-31.8-95.7c0-88.4,71.9-160.3,160.3-160.3v2.3c-87.1,0-158,70.9-158,158c0,87.2,71,158,158,158v2.3
			c-51.6,0-97.7-24.5-127.1-62.8l0,0l-18.7,14.4c-2.3-2.6-5.7-4.3-9.4-4.3c-6.9,0-12.5,5.6-12.5,12.5c0,2.6,0.8,5,2.1,7l-20,15.4
			l0,0c44.3,57.6,112.5,91.7,185.7,91.7v2.3C280.9,506.9,212.6,471.4,168.7,414.4 M590.3,270.5c0-129.1-105-234.2-234.2-234.2V34
			c130.4,0,236.4,106.1,236.4,236.4c0,53.3-17.7,102.5-47.5,142v0l-1.4,1.8l-0.1,0.1c-43.9,57-112.1,92.5-187.5,92.5v-2.3
			c73.2,0,141.4-34.1,185.7-91.7l0,0l-20-15.4c1.4-2,2.2-4.4,2.2-7c0-6.9-5.6-12.5-12.5-12.5c-3.8,0-7.2,1.7-9.4,4.3L483.3,368l0,0
			c-29.4,38.2-75.5,62.8-127.1,62.8v-2.3c87,0,158-70.8,158-158c0-87.1-70.9-158-158-158v-2.3c88.4,0,160.3,71.9,160.3,160.3
			c0,35.8-11.8,69-31.8,95.7l17.1,13.1c2.7-2.3,6.1-3.6,9.6-3.6c8.2,0,14.8,6.6,14.8,14.8c0,2.2-0.5,4.4-1.5,6.4l18.4,14.1
			C572.8,371.9,590.3,323.2,590.3,270.5 M112.3,270.5c0,134.7,109.2,243.8,243.8,243.8c134.7,0,243.8-109.2,243.8-243.8
			c0-134.7-109.2-243.8-243.8-243.8C221.5,26.6,112.3,135.8,112.3,270.5 M176.9,449.7c-47.9-47.9-74.3-111.5-74.3-179.3
			c0-67.7,26.4-131.4,74.3-179.3C224.8,43.3,288.5,17,356.2,17c67.7,0,131.4,26.4,179.3,74.3c47.9,47.9,74.3,111.5,74.3,179.3
			c0,67.7-26.4,131.4-74.3,179.3C487.6,497.6,423.9,524,356.2,524C288.5,524,224.8,497.6,176.9,449.7 M349.2,0
			c-69.7,1.7-134.9,29.7-184.3,79.2c-51.1,51.1-79.2,119.1-79.2,191.3c0,72.3,28.1,140.2,79.2,191.3c51.1,51.1,119,79.2,191.3,79.2
			c72.3,0,140.2-28.1,191.3-79.2c51.1-51.1,79.2-119.1,79.2-191.3c0-72.3-28.1-140.2-79.2-191.3C498,29.7,432.8,1.7,363.1,0H349.2z"
			/>
	</defs>
	<clipPath id="SVGID_16_">
		<use xlink:href="#SVGID_15_"  style="overflow:visible;"/>
	</clipPath>
	<g class="st5">
		<g>
			<defs>
				<polygon id="SVGID_17_" points="-136.7,116 201.6,763.1 848.7,424.7 510.4,-222.3 				"/>
			</defs>
			<clipPath id="SVGID_18_">
				<use xlink:href="#SVGID_17_"  style="overflow:visible;"/>
			</clipPath>
			<g class="st6">
				<defs>
					
						<rect id="SVGID_19_" x="-308.9" y="-394.6" transform="matrix(0.8862 -0.4633 0.4633 0.8862 -84.7388 195.7146)" width="1329.8" height="1329.8"/>
				</defs>
				<clipPath id="SVGID_20_">
					<use xlink:href="#SVGID_19_"  style="overflow:visible;"/>
				</clipPath>
				<g style="clip-path:url(#SVGID_20_);">
					
						<image style="overflow:visible;" width="7479" height="7478" xlink:href="B577F9CB88FE2F62.jpg"  transform="matrix(0.24 0 0 0.24 -541.4969 -627.0202)">
					</image>
				</g>
			</g>
		</g>
	</g>
</g>
<path class="st7" d="M44.4,345.3c-0.7-2.7-5.6-3-17.1-0.2c-13.4,3.2-17.5,5.7-16.9,8.5c0.6,2.7,5.1,3,18.8-0.3
	C40.8,350.5,45.1,348.2,44.4,345.3 M4.1,355c-2-8.3,4.6-13.9,21.4-17.9c14.8-3.5,23.4-1.4,25.3,6.8c1.9,7.9-4.8,13.8-19.5,17.3
	C14.2,365.3,6.1,363.2,4.1,355"/>
<path class="st7" d="M51,380.4c1.2-0.9,1.7-2,1.2-3.6l-2.3-7.1L39,373.2l2.2,6.7c0.4,1.3,1.7,2,2.9,1.7l0.4,1.1L34,386l-0.4-1.1
	c1.2-0.4,1.8-1.5,1.3-3l-2.1-6.6l-16.4,5.3c-1.6,0.5-2.1,1.6-1.7,2.9l-1.2,0.4l-3.8-11.7l1.2-0.4c0.4,1.1,1.6,1.7,3.1,1.3l36.1-11.7
	c1.5-0.5,2-1.7,1.7-2.8l1.2-0.4l5.2,16.1c0.4,1.3,1.1,2.6,1.5,2.9l-7.9,4.4L51,380.4z"/>
<path class="st7" d="M60.1,403.3c1.1-1,1.5-2.2,0.9-3.7l-2.8-6.9L47.6,397l2.6,6.5c0.5,1.3,1.9,1.9,3,1.5l0.4,1.1l-10,4.1l-0.4-1.1
	c1.2-0.5,1.7-1.6,1.1-3.1l-2.6-6.4L25.7,406c-1.6,0.6-2,1.8-1.5,3.1l-1.1,0.5l-4.7-11.4l1.1-0.5c0.4,1.1,1.7,1.6,3.2,1l35.1-14.3
	c1.5-0.6,1.9-1.8,1.5-2.9l1.1-0.5l6.4,15.6c0.5,1.3,1.3,2.5,1.7,2.8l-7.5,5L60.1,403.3z"/>
<path class="st7" d="M28.9,423l1.1-0.5c0.5,1.1,1.7,1.5,3.2,0.8l34.2-16.5c1.5-0.7,1.9-1.8,1.3-3l1.1-0.5l5.3,11.1l-1.1,0.5
	c-0.6-1.3-1.7-1.6-3.2-0.9l-34.2,16.5c-1.4,0.7-1.9,1.8-1.3,3l-1.1,0.5L28.9,423z"/>
<path class="st7" d="M45.8,456.7c-0.1-0.4-0.3-0.9-0.6-1.4c-0.3-0.5-1.8-2.2-2.7-3.9c-4.6-8.2,1.1-16.5,14-23.7
	c13-7.3,22.9-6.8,27.1,0.7c0.7,1.3,1.4,3.5,1.9,4.2c0.3,0.5,0.7,1.1,1,1.3l-6.9,5.5l-1-1.1c1.2-1.5,1.3-3.3,0-5.6
	c-1.9-3.3-7.9-3.7-18.1,2c-11.4,6.4-13.9,10.6-11.5,14.8c1.3,2.4,2.7,3,5.1,2.5l0.4,1.4L45.8,456.7z"/>
<path class="st7" d="M50,462.2l1-0.7c0.6,1,1.9,1.3,3.3,0.4l31.9-20.6c1.4-0.9,1.7-2,0.9-3.1l1-0.7l6.7,10.3l-1,0.7
	c-0.8-1.2-1.9-1.3-3.2-0.5l-31.9,20.6c-1.3,0.8-1.7,2-1,3.2l-1,0.7L50,462.2z"/>
<path class="st7" d="M97.4,465.3l-0.3-0.4l-20.4,11.8c0.1,0.8,0.6,2,1.3,2.9c0.7,0.9,1.6,1.6,2.3,1.9L97.4,465.3z M68.9,489.7l1-0.7
	c0.7,0.9,1.5,0.9,2,0.4c0.2-0.2,2.6-2.2,3.4-3.1c-0.8-0.4-2-1.4-2.8-2.5c-0.8-1.1-1.6-2.7-1.8-3.6c-1.1,0.6-3.7,2.1-4,2.3
	c-0.6,0.5-0.8,1.2-0.2,2.1l-1,0.7l-6.4-8.6l1-0.7c0.5,0.7,1.5,0.8,2.5,0.3L97,458c0.4-0.2,0.9-0.5,1.2-0.7c0.6-0.4,0.9-1.1,0.4-1.8
	l1-0.7l8.5,11.4l-1,0.7c-0.4-0.6-1.2-0.7-1.8-0.2c-0.4,0.3-0.7,0.6-1.1,1l-27.1,27.5c-1.1,1.1-1,1.9-0.4,2.7l-1,0.7L68.9,489.7z"/>
<path class="st7" d="M83.3,501.7l28.3-25.1c1.2-1.1,1.4-2.3,0.5-3.3l0.9-0.8l8.2,9.2l-0.9,0.8c-0.8-0.9-2.4-0.9-3.4,0l-26.1,23.2
	l5.3,5.9c1.2,1.3,2.4,1.4,4,0.9l0.5,1.3l-8,4.6c-0.1-0.6-0.6-1.4-2-3L79,502.6l0.9-0.8C80.7,502.7,82.1,502.8,83.3,501.7"/>
<path class="st7" d="M122.8,547.4c-0.2-0.4-0.6-0.7-1-1.1c-0.4-0.3-2.4-1.5-3.8-2.8c-7-6.2-4.4-15.9,5.5-27
	c9.9-11.1,19.5-13.9,25.8-8.2c1.1,1,2.5,2.8,3.1,3.4c0.4,0.4,1.1,0.8,1.4,0.9l-4.7,7.5l-1.3-0.7c0.7-1.8,0.2-3.5-1.8-5.3
	c-2.9-2.5-8.6-0.9-16.4,7.8c-8.7,9.8-9.6,14.5-6,17.8c2,1.8,3.5,1.9,5.6,0.7l0.8,1.2L122.8,547.4z"/>
<path class="st7" d="M128.5,551.3l0.8-1c0.9,0.7,2.2,0.6,3.2-0.7l23.4-29.8c1-1.3,0.9-2.4-0.2-3.3l0.8-1l9.6,7.6l-0.8,1
	c-1.1-0.9-2.2-0.7-3.2,0.6l-23.4,29.8c-1,1.2-1,2.5,0.1,3.3l-0.8,1L128.5,551.3z"/>
<path class="st7" d="M174.5,536.7c-0.7-0.5-1.2-0.8-1.6-1l-18.5,27.1c0.3,0.3,0.8,0.6,1.2,0.9c3.4,2.3,7.9-0.7,15.1-11.3
	C177.5,542.6,177.2,538.6,174.5,536.7 M151.1,568.7c-4.5-3-7.2-5.2-8.5-6.3l0.7-1c1.1,0.7,2.3,0.5,2.9-0.5l21.8-32
	c0.7-1.1,0.5-2.2-0.6-3l0.7-1.1c1.8,1,5,2.9,8.9,5.5c8.3,5.6,9.6,13.2,0.4,26.7C168,571,160,574.8,151.1,568.7"/>
<path class="st7" d="M186.5,590.6c-0.2-0.5-1.2-1.3-2.3-1.9l-15.3-8.7l0.6-1.1c1,0.6,2.3,0.3,3.1-1.1l18.7-33
	c0.8-1.4,0.4-2.6-0.6-3.2l0.6-1.1l14.5,8.2c1.7,1,2.9,1.3,3.4,1.3l-2.8,8.5l-1.5-0.3c0.3-1.5-0.1-2.6-1.3-3.4l-6.7-3.8l-5.3,9.3
	l5.9,3.3c1.2,0.7,2.6,0.3,3.2-0.7l1.1,0.6l-5.4,9.5l-1.1-0.6c0.6-1,0.4-2.3-1-3.1l-5.8-3.3l-7.5,13.2l6.5,3.7c1.5,0.8,2.6,0.5,4-0.4
	l0.9,1L186.5,590.6z"/>
<path class="st7" d="M220.4,562.9c-0.5-0.2-1.2-0.5-1.4-0.6l-6.2,13.2c0.4,0.3,1,0.5,1.4,0.7c2.5,1.2,5.5,0.7,7.9-4.5
	C224.5,566.5,222.7,564,220.4,562.9 M208.1,600.6c0.7-4.3,3.1-13.2,5-18.1l-2.9-1.4l-6.2,13.4c-0.6,1.3-0.4,2.6,0.9,3.2l-0.5,1.1
	l-11.1-5.2l0.5-1.1c1.1,0.5,2.3,0.1,3-1.4l16-34.3c0.6-1.4,0.5-2.5-0.9-3.1l0.5-1.1c1.9,0.7,6.9,2.6,10.6,4.4
	c7.4,3.5,10.7,9.2,6.6,18.1c-2.8,6.1-5.9,8.3-9.5,8.4c-1.4,4.9-2.8,11.8-3.7,17.5c-0.1,1.1,0.4,2.4,1.4,2.9l-0.5,1.1L208.1,600.6z"
	/>
<path class="st7" d="M260.2,577.6c-2.7-0.9-5.5,3.3-9.1,14.5c-4.2,13.1-4.2,17.9-1.5,18.8c2.6,0.8,5.2-2.8,9.5-16.3
	C262.7,583.4,263,578.5,260.2,577.6 M247.5,617.1c-8.1-2.6-9.5-11.1-4.2-27.5c4.6-14.5,10.9-20.7,18.9-18.1
	c7.7,2.5,9.3,11.2,4.7,25.6C261.6,613.8,255.6,619.7,247.5,617.1"/>
<path class="st7" d="M293.6,590.1c-0.2-1.5-0.9-2.5-2.5-2.8l-7.3-1.7l-2.6,11.1l6.8,1.6c1.3,0.3,2.6-0.5,2.9-1.6l1.1,0.3l-2.5,10.6
	l-1.1-0.3c0.3-1.3-0.3-2.3-1.9-2.6l-6.8-1.6l-3.9,16.8c-0.4,1.6,0.3,2.7,1.6,3l-0.3,1.2l-12-2.8l0.3-1.2c1.1,0.3,2.3-0.5,2.7-2
	l8.6-36.9c0.4-1.6-0.4-2.6-1.5-2.9l0.3-1.2l16.4,3.8c1.3,0.3,2.8,0.4,3.3,0.2l-0.3,9L293.6,590.1z"/>
<path class="st7" d="M328.7,612l-1.6,13.9c-0.2,1.3-0.1,2.9,0.1,3.9c-2.8,1.2-6.9,1.9-11.3,1.4c-9-1.1-12.2-10.5-10.5-25.2
	c1.9-16.6,9.4-22.1,16.9-21.2c1.3,0.1,3.2,0.8,4.2,0.9c0.5,0.1,1.2,0,1.5-0.1l0.3,8.7l-1.5,0.3c-0.7-1.9-1.6-2.9-4.2-3.2
	c-4.6-0.5-7.8,4.3-9.1,15.5c-1.7,14.4,0.6,17.5,4.4,18c0.4,0,0.9,0,1.2,0l1.6-13.8c0.2-1.6-0.7-2.5-1.8-2.6l0.1-1.3l12.3,1.4
	l-0.2,1.3C330,609.7,328.9,610.5,328.7,612"/>
<path class="st7" d="M354.5,633.5c-0.5-0.3-1.4-0.5-3.6-0.6l-17.1-0.6l0-1.2c1.2,0,2.2-0.8,2.2-2.5l1.3-37.8
	c0.1-1.6-0.7-2.6-2.1-2.6l0-1.2l12.3,0.4l0,1.2c-1.2,0-2.3,1.1-2.4,2.4l-1.2,34.9l7.9,0.3c1.8,0.1,2.7-0.8,3.4-2.3l1.3,0.5
	L354.5,633.5z"/>
<path class="st7" d="M372.6,595.2l-0.4,0l-1.6,23.5c0.7,0.4,2,0.6,3.1,0.6c1.1-0.1,2.2-0.4,2.8-0.9L372.6,595.2z M376.9,632.4
	l-0.1-1.2c1.1-0.1,1.5-0.7,1.5-1.4c0-0.3-0.4-3.4-0.7-4.6c-0.8,0.4-2.3,0.8-3.7,0.9c-1.4,0.1-3.1-0.2-4-0.5
	c-0.1,1.2-0.4,4.2-0.4,4.6c0,0.8,0.5,1.3,1.6,1.3l0.1,1.2l-10.7,0.5l-0.1-1.2c0.9,0,1.5-0.8,1.7-1.9l4.1-38.6c0.1-0.4,0.1-1,0.1-1.4
	c0-0.7-0.5-1.3-1.2-1.3l-0.1-1.2l14.2-0.7l0.1,1.2c-0.7,0-1.2,0.6-1.2,1.4c0,0.5,0.1,0.9,0.2,1.5l7.7,37.8c0.3,1.5,1.1,1.9,2,1.9
	l0.1,1.2L376.9,632.4z"/>
<path class="st7" d="M401.5,631c-2.3,0.3-4.2-0.2-5.4-0.1c-0.8,0.1-1.5,0.4-1.8,0.6l-2.5-9.6l1.5-0.7c1,2.5,2.5,3.9,6.5,3.4
	c2.8-0.4,4.6-2.5,4.2-5.8c-0.5-3.6-2.2-5.8-6-9.2c-5.3-4.8-8.5-8.4-9.1-13.4c-0.8-6.6,2.4-11.2,9.2-12.1c1.8-0.2,3.9,0.3,5.2,0.1
	c0.5-0.1,1.5-0.4,1.9-0.7l2.4,8.4l-1.4,0.6c-1-1.6-2.9-2.5-6.1-2.1c-2.6,0.3-3.7,2.5-3.5,4.7c0.2,1.7,1,3.1,2.4,4.6
	c1.9,1.9,3.4,3.3,5.1,5c4,3.9,6.7,7.2,7.3,12.3C412.4,625.4,408.5,630.1,401.5,631"/>
<path class="st7" d="M434,587.1c-0.9-1.3-1.6-1.9-3.7-1.4l-4.1,0.8l7.1,34.4c0.3,1.5,1.3,2.3,2.6,2l0.2,1.2l-12,2.5l-0.2-1.2
	c1.1-0.2,2-1.3,1.7-2.9l-7.1-34.4l-4.3,0.9c-1.8,0.4-2.6,1.1-2.7,2.7l-1.4,0l-0.2-8.9c0.5,0.1,1.9,0.1,3-0.2l16.7-3.4
	c1.2-0.3,2-0.7,2.3-1l3.4,8.3L434,587.1z"/>
<path class="st7" d="M447.9,579.6c-2.7,0.8-2.7,5.8,0.6,17.1c3.9,13.2,6.5,17.2,9.3,16.4c2.6-0.8,2.7-5.3-1.2-18.8
	C453.3,582.9,450.8,578.7,447.9,579.6 M459.6,619.4c-8.2,2.4-14.1-3.9-18.9-20.5c-4.3-14.6-2.5-23.3,5.6-25.6
	c7.8-2.3,14,4.1,18.2,18.6C469.4,608.8,467.7,617,459.6,619.4"/>
<path class="st7" d="M484.8,565.1l13.7,35.3c0.6,1.5,1.5,2.2,2.5,1.7l0.4,1.2l-8.5,3.3l-4.2-10.9l-13.4-13.1l-0.1,0l9.1,23.3
	c0.5,1.4,1.7,2.1,2.9,1.6l0.4,1.1l-10.9,4.2l-0.4-1.2c1.2-0.5,1.6-1.7,1.1-3.1l-13.7-35.3c-0.6-1.5-1.8-2-2.9-1.6l-0.4-1.1l9.1-3.6
	c0.4,0.9,1,1.7,1.8,2.5l11.9,12.1l0.2-0.1l-5.4-13.8c-0.6-1.5-1.8-2-3-1.6l-0.4-1.1l11-4.3l0.4,1.2
	C484.8,562.4,484.2,563.6,484.8,565.1"/>
<path class="st7" d="M508.8,576.3c-0.5,0.2-1.1,0.5-1.6,0.9l6.6,13.3c0.4-0.1,1.1-0.5,1.6-0.7c2.3-1.1,4-3.7,1.2-9.3
	C514.4,576,511.4,575,508.8,576.3 M500.3,560.3c-0.6,0.3-1,0.6-1.1,0.6l5.1,10.2c0.5-0.2,0.7-0.3,0.9-0.4c2.3-1.1,2.9-3.9,1.2-7.5
	C504.7,560,502.3,559.3,500.3,560.3 M516.5,596.5c-2.4,1.2-6.5,3.1-9,4l-0.6-1.1c1-0.5,1.5-1.8,1-2.9l-17-34.5
	c-0.7-1.4-1.8-1.7-3-1.1l-0.5-1.1c1.9-1.2,5.6-3.4,8.7-4.9c7.3-3.6,13.5-3.3,17.1,4c2.5,5.1,1.5,8.7-0.1,10.8l0.1,0.1
	c2.8-0.5,7.8,1.2,10.9,7.4C528.2,585.4,525.8,592,516.5,596.5"/>
<path class="st7" d="M535,537.9l17.3,28.2c0.9,1.4,1.6,2.3,2.4,2.9c-0.4,3.2-2.3,8.3-7.1,11.3c-5.2,3.2-10.3,2.5-13.5,1.3
	c-0.2-1.1-0.7-2-1.6-3.4L515.2,550c-0.8-1.4-2.1-1.6-3.1-1l-0.6-1.1l10.4-6.3l0.6,1.1c-1.1,0.6-1.4,1.8-0.5,3.2l16.9,27.6
	c1.5,2.4,3.6,2.3,5.3,1.2c1.8-1.1,2.7-3.1,1.4-5.3l-16.9-27.6c-0.8-1.4-2.1-1.6-3.1-1l-0.6-1.1l10-6.1l0.6,1.1
	C534.4,535.4,534.2,536.7,535,537.9"/>
<path class="st7" d="M549.4,530.4c-0.4,0.3-1,0.8-1.2,1l8.7,11.7c0.5-0.3,0.9-0.6,1.3-0.9c2.2-1.7,3.2-4.5-0.2-9.1
	C554.5,528.5,551.5,528.9,549.4,530.4 M576.8,559.1c-3.5-2.6-10.2-9-13.6-12.9l-2.6,1.9l8.8,11.8c0.9,1.1,2.1,1.6,3.2,0.7l0.7,1
	l-9.8,7.3l-0.7-1c0.9-0.7,1.2-2,0.2-3.3l-22.6-30.4c-0.9-1.3-2-1.6-3.2-0.7l-0.7-1c1.5-1.4,5.6-4.8,8.9-7.2
	c6.6-4.9,13.2-5.1,19.1,2.8c4,5.4,4.5,9.1,2.9,12.4c3.7,3.5,9.1,8.1,13.7,11.5c0.9,0.6,2.3,0.8,3.2,0.1l0.7,1L576.8,559.1z"/>
<path class="st7" d="M578.8,502l11.4,24.4l8.5,9.5c1,1.1,2.3,1.3,3.3,0.5l0.8,0.9l-9.1,8.1l-0.8-0.9c1-0.9,1-2.1-0.1-3.3l-8.5-9.5
	l-22.6-14.2c-1.2-0.8-2.1-0.7-2.9,0l-0.8-0.9l9-8l0.8,0.9c-0.8,0.7-0.8,1.5-0.3,2c0.3,0.3,0.9,0.8,1.4,1.2l12.6,9.2l0.1-0.1
	l-7.8-14.2c-0.2-0.3-0.4-0.7-0.6-1c-0.6-0.6-1.3-0.6-2.2,0.2l-0.8-0.9l8.3-7.4l0.8,0.9C578.3,500,578.3,500.9,578.8,502"/>
<path class="st7" d="M606.1,481c-1.4-0.6-2.6-0.4-3.7,0.8l-5,5.6l8.5,7.6l4.7-5.2c0.9-1,0.9-2.5,0-3.3l0.8-0.9l8.1,7.2l-0.8,0.9
	c-1-0.9-2.2-0.8-3.2,0.4l-4.6,5.2l12.8,11.5c1.3,1.1,2.5,1,3.4,0l0.9,0.8l-8.2,9.2l-0.9-0.8c0.8-0.9,0.7-2.2-0.5-3.3l-28.2-25.3
	c-1.2-1.1-2.5-0.9-3.3,0l-0.9-0.8l11.3-12.6c0.9-1,1.7-2.3,1.8-2.8l7.7,4.6L606.1,481z"/>
<path class="st7" d="M650.8,484.2c-0.5,0.2-1.4,1-2.2,2.1l-10.7,14l-1-0.7c0.7-0.9,0.6-2.3-0.7-3.2l-30.1-23.1
	c-1.3-1-2.5-0.8-3.3,0.2l-1-0.7l10.1-13.2c1.2-1.6,1.7-2.7,1.8-3.2l8.1,4l-0.5,1.4c-1.4-0.5-2.6-0.3-3.5,0.8l-4.7,6.1l8.5,6.5
	l4.1-5.4c0.8-1.1,0.6-2.5-0.3-3.3l0.8-1l8.7,6.6l-0.8,1c-0.9-0.7-2.2-0.7-3.2,0.6l-4.1,5.3l12.1,9.2l4.6-6c1-1.3,0.9-2.5,0.1-4
	l1.1-0.8L650.8,484.2z"/>
<path class="st7" d="M659.8,471.5c-1.2,1.9-2.9,3-3.6,4.1c-0.4,0.7-0.7,1.4-0.8,1.8l-8.9-4.3l0.5-1.5c2.5,0.9,4.6,0.6,6.7-2.7
	c1.5-2.3,1.1-5.1-1.7-6.9c-3-2-5.8-2.1-10.9-1.4c-7.1,0.9-11.9,1-16.1-1.8c-5.5-3.6-7-9.2-3.2-14.9c1-1.5,2.8-2.8,3.5-3.9
	c0.3-0.4,0.7-1.4,0.7-1.9l8,3.6l-0.5,1.5c-1.8-0.3-3.8,0.6-5.6,3.3c-1.4,2.2-0.5,4.5,1.3,5.7c1.5,1,3,1.3,5.1,1.2
	c2.6-0.2,4.7-0.4,7.1-0.6c5.6-0.5,9.8-0.4,14.1,2.5C662.6,459.6,663.7,465.6,659.8,471.5"/>
<path class="st7" d="M647.6,418.3c-1.6-0.2-2.5,0-3.5,1.9l-2,3.6l30.7,17c1.3,0.7,2.6,0.5,3.3-0.6l1.1,0.6l-6,10.7l-1.1-0.6
	c0.6-1,0.3-2.4-1.1-3.2l-30.7-17l-2.1,3.8c-0.9,1.6-0.8,2.7,0.3,3.8l-0.9,1l-6.9-5.6c0.4-0.3,1.3-1.4,1.8-2.3l8.3-14.9
	c0.6-1.1,0.8-1.9,0.7-2.4l8.5,2.8L647.6,418.3z"/>
<path class="st7" d="M682.4,430.8l-1.1-0.5c0.5-1.1,0.1-2.3-1.4-3L645.6,411c-1.5-0.7-2.6-0.4-3.1,0.9l-1.1-0.5l5.3-11.1l1.1,0.5
	c-0.6,1.3-0.2,2.3,1.3,3l34.3,16.2c1.4,0.7,2.6,0.4,3.2-0.9l1.1,0.5L682.4,430.8z"/>
<path class="st7" d="M659.7,376.2c0,0,38,22.2,36.9,21.6L693,407l-41.8-9c-1.3-0.3-2.1,0.1-2.5,1.2l-1.2-0.5l4.2-10.8l1.1,0.4
	c-0.4,1,0,1.7,0.7,2c0.4,0.1,1,0.3,1.6,0.5l30.4,7.9l0.1-0.3l-27.4-14.9c-0.5-0.3-1-0.6-1.5-0.7c-0.9-0.4-1.7-0.2-2.1,0.9l-1.1-0.5
	l4-10.2l1.1,0.4C658.4,374.5,658.7,375.6,659.7,376.2"/>
<rect y="-0.1" class="st8" width="714.8" height="633.6"/>
<path class="st7" d="M669.2,361.9l-0.1,0.4l21.7,9.2c0.6-0.5,1.3-1.7,1.6-2.8c0.3-1.1,0.3-2.2,0.1-2.9L669.2,361.9z M705.8,370.2
	l-1.2-0.4c0.3-1.1-0.2-1.7-0.9-1.9c-0.3-0.1-3.3-0.7-4.6-0.9c0.2,0.9,0,2.4-0.4,3.8c-0.4,1.3-1.2,2.9-1.8,3.6
	c1.1,0.5,3.9,1.8,4.3,1.9c0.7,0.2,1.4,0,1.7-1.1l1.2,0.3l-3,10.3l-1.2-0.4c0.3-0.9-0.2-1.7-1.2-2.2l-35.1-16.6
	c-0.4-0.2-0.9-0.4-1.3-0.5c-0.7-0.2-1.4,0-1.6,0.7l-1.2-0.3l4-13.6l1.2,0.4c-0.2,0.7,0.1,1.3,0.9,1.5c0.4,0.1,0.9,0.2,1.5,0.3
	l38.3,5.2c1.6,0.2,2.1-0.4,2.4-1.3l1.2,0.4L705.8,370.2z"/>
<path class="st7" d="M669.8,343.7c-1.6-0.3-2.6,0.2-2.9,1.6l-1.2-0.2l2.5-12.1l1.2,0.2c-0.2,1.2,0.7,2.5,2,2.7l34.2,7.1l1.6-7.8
	c0.4-1.7-0.3-2.8-1.7-3.7l0.7-1.2l8.5,3.7c-0.4,0.4-0.7,1.3-1.2,3.4l-3.5,16.8l-1.2-0.2c0.2-1.1-0.5-2.3-2-2.6L669.8,343.7"/>
<rect class="st8" width="714.8" height="633.5"/>
<g>
	<defs>
		<rect id="SVGID_21_" y="-0.1" width="714.8" height="633.6"/>
	</defs>
	<clipPath id="SVGID_22_">
		<use xlink:href="#SVGID_21_"  style="overflow:visible;"/>
	</clipPath>
	<polygon class="st9" points="704.2,283.8 695.3,283.5 712.1,258.9 678.5,293 685.6,292.6 672.2,311.7 	"/>
</g>
<g>
	<defs>
		<polygon id="SVGID_23_" points="678.5,293 685.6,292.6 672.2,311.7 704.2,283.8 695.3,283.5 712.1,258.9 		"/>
	</defs>
	<clipPath id="SVGID_24_">
		<use xlink:href="#SVGID_23_"  style="overflow:visible;"/>
	</clipPath>
	<g class="st10">
		<g>
			<defs>
				
					<rect id="SVGID_25_" x="659.1" y="254.2" transform="matrix(0.5294 -0.8483 0.8483 0.5294 83.7536 721.2217)" width="65.8" height="61.7"/>
			</defs>
			<clipPath id="SVGID_26_">
				<use xlink:href="#SVGID_25_"  style="overflow:visible;"/>
			</clipPath>
			<g class="st11">
				<defs>
					
						<rect id="SVGID_27_" x="631.4" y="224.7" transform="matrix(0.5293 -0.8484 0.8484 0.5293 83.8056 721.2966)" width="121.3" height="120.9"/>
				</defs>
				<clipPath id="SVGID_28_">
					<use xlink:href="#SVGID_27_"  style="overflow:visible;"/>
				</clipPath>
				<g style="clip-path:url(#SVGID_28_);">
					
						<image style="overflow:visible;" width="696" height="697" xlink:href="B577F9CB88FE2F63.jpg"  transform="matrix(0.24 0 0 0.24 608.583 201.4598)">
					</image>
				</g>
			</g>
		</g>
	</g>
</g>
<g>
	<defs>
		<rect id="SVGID_29_" width="714.8" height="633.5"/>
	</defs>
	<clipPath id="SVGID_30_">
		<use xlink:href="#SVGID_29_"  style="overflow:visible;"/>
	</clipPath>
	<polygon class="st12" points="678.5,293 685.6,292.6 672.2,311.7 704.2,283.8 695.3,283.5 712.1,258.9 	"/>
	<polygon class="st13" points="16.7,283.5 7.9,283.8 39.9,311.7 26.5,292.6 33.5,293 0,258.9 	"/>
</g>
<g>
	<defs>
		<polygon id="SVGID_31_" points="0,258.9 16.7,283.5 7.9,283.8 39.9,311.7 26.5,292.6 33.5,293 		"/>
	</defs>
	<clipPath id="SVGID_32_">
		<use xlink:href="#SVGID_31_"  style="overflow:visible;"/>
	</clipPath>
	<g class="st14">
		<g>
			<defs>
				
					<rect id="SVGID_33_" x="-11.1" y="252.2" transform="matrix(0.8484 -0.5293 0.5293 0.8484 -147.9196 53.695)" width="61.7" height="65.8"/>
			</defs>
			<clipPath id="SVGID_34_">
				<use xlink:href="#SVGID_33_"  style="overflow:visible;"/>
			</clipPath>
			<g class="st15">
				<defs>
					
						<rect id="SVGID_35_" x="-40.7" y="224.5" transform="matrix(0.8484 -0.5293 0.5293 0.8484 -147.9232 53.6963)" width="120.9" height="121.3"/>
				</defs>
				<clipPath id="SVGID_36_">
					<use xlink:href="#SVGID_35_"  style="overflow:visible;"/>
				</clipPath>
				<g transform="matrix(1 0 0 1 3.814697e-06 0)" style="clip-path:url(#SVGID_36_);">
					
						<image style="overflow:visible;" width="696" height="697" xlink:href="B577F9CB88FE2F6D.jpg"  transform="matrix(0.24 0 0 0.24 -63.657 201.4598)">
					</image>
				</g>
			</g>
		</g>
	</g>
</g>
<g>
	<defs>
		<rect id="SVGID_37_" y="-0.1" width="714.8" height="633.6"/>
	</defs>
	<clipPath id="SVGID_38_">
		<use xlink:href="#SVGID_37_"  style="overflow:visible;"/>
	</clipPath>
	<polygon class="st16" points="0,258.9 16.7,283.5 7.9,283.8 39.9,311.7 26.5,292.6 33.5,293 	"/>
</g>
</svg>
