<?xml version="1.0" encoding="utf-8"?>
<!-- Generator: Adobe Illustrator 23.0.6, SVG Export Plug-In . SVG Version: 6.00 Build 0)  -->
<svg version="1.1" id="Layer_1" xmlns="http://www.w3.org/2000/svg" xmlns:xlink="http://www.w3.org/1999/xlink" x="0px" y="0px"
	 viewBox="0 0 115.14 105.67" style="enable-background:new 0 0 115.14 105.67;" xml:space="preserve">
<style type="text/css">
	.st0{fill:#FDCE74;}
	.st1{fill:#8574B3;}
	.st2{fill:#FFFFFF;}
	.st3{fill:none;stroke:#FFFFFF;stroke-width:4.0959;stroke-linecap:round;stroke-linejoin:round;stroke-miterlimit:10;}
</style>
<g>
	<g>
		<g>
			<path class="st0" d="M99.21,105.67c-7.64,0-11.62-3.07-15.14-5.77c-3.43-2.64-6.39-4.92-12.64-4.92c-6.24,0-9.2,2.28-12.63,4.92
				c-3.51,2.71-7.49,5.77-15.13,5.77c-7.64,0-11.62-3.07-15.13-5.77c-3.43-2.64-6.39-4.92-12.63-4.92c-6.24,0-9.2,2.28-12.63,4.92
				c-0.9,0.69-2.18,0.52-2.87-0.37c-0.69-0.9-0.52-2.18,0.37-2.87c3.51-2.71,7.49-5.77,15.13-5.77c7.64,0,11.62,3.07,15.13,5.77
				c3.43,2.64,6.39,4.92,12.63,4.92c6.24,0,9.2-2.28,12.63-4.92c3.51-2.71,7.49-5.77,15.13-5.77c7.64,0,11.62,3.07,15.14,5.77
				c3.43,2.64,6.39,4.92,12.64,4.92c6.25,0,9.21-2.28,12.64-4.92c0.9-0.69,2.18-0.52,2.87,0.37c0.69,0.9,0.52,2.18-0.37,2.87
				C110.83,102.61,106.85,105.67,99.21,105.67z"/>
		</g>
		<g>
			<path class="st0" d="M99.21,90.87c-7.64,0-11.62-3.07-15.14-5.77c-3.43-2.64-6.39-4.92-12.64-4.92c-6.24,0-9.2,2.28-12.63,4.92
				c-3.51,2.71-7.49,5.77-15.13,5.77c-7.64,0-11.62-3.07-15.13-5.77c-3.43-2.64-6.39-4.92-12.63-4.92c-6.24,0-9.2,2.28-12.63,4.92
				c-0.9,0.69-2.18,0.52-2.87-0.37c-0.69-0.9-0.52-2.18,0.37-2.87c3.51-2.71,7.49-5.77,15.13-5.77c7.64,0,11.62,3.07,15.13,5.77
				c3.43,2.64,6.39,4.92,12.63,4.92c6.24,0,9.2-2.28,12.63-4.92c3.51-2.71,7.49-5.77,15.13-5.77c7.64,0,11.62,3.07,15.14,5.77
				c3.43,2.64,6.39,4.92,12.64,4.92c6.25,0,9.21-2.28,12.64-4.92c0.9-0.69,2.18-0.52,2.87,0.37c0.69,0.9,0.52,2.18-0.37,2.87
				C110.83,87.81,106.85,90.87,99.21,90.87z"/>
		</g>
		<g>
			<g>
				<path class="st0" d="M68.9,70.16h-2.84c-0.42,0-0.83-0.13-1.17-0.37l-29.85-20.9c-0.59-0.42-0.92-1.11-0.87-1.84l2.76-35.75
					c0.06-0.8,0.59-1.49,1.34-1.77l9.84-3.58c0.88-0.32,1.87,0,2.39,0.77c0.61,0.89,14.96,22.31,20.42,61.09
					c0.08,0.59-0.09,1.18-0.48,1.63C70.06,69.9,69.5,70.16,68.9,70.16z M38.35,46.2l28.16,19.72
					c-4.77-31.01-15.47-50.46-18.54-55.55l-7.05,2.56L38.35,46.2z"/>
			</g>
			<g>
				<path class="st0" d="M48.82,9.93c-0.67,0-1.33-0.33-1.72-0.93c-0.03-0.04-2.57-3.94-3.85-5.78c-0.65-0.93-0.42-2.2,0.5-2.85
					c0.93-0.65,2.2-0.42,2.85,0.5c1.32,1.89,3.82,5.73,3.93,5.89c0.62,0.95,0.35,2.22-0.6,2.83C49.59,9.82,49.21,9.93,48.82,9.93z"
					/>
			</g>
			<g>
				<path class="st0" d="M32.45,49.51c-1.07,0-1.97-0.83-2.04-1.91c-0.08-1.13,0.77-2.11,1.9-2.19l49.2-3.43
					c1.12-0.07,2.11,0.77,2.19,1.9c0.08,1.13-0.77,2.11-1.9,2.19L32.6,49.5C32.55,49.51,32.5,49.51,32.45,49.51z"/>
			</g>
		</g>
	</g>
</g>
</svg>
