<?xml version="1.0" encoding="utf-8"?>
<!-- Generator: Adobe Illustrator 23.0.6, SVG Export Plug-In . SVG Version: 6.00 Build 0)  -->
<svg version="1.1" id="Layer_1" xmlns="http://www.w3.org/2000/svg" xmlns:xlink="http://www.w3.org/1999/xlink" x="0px" y="0px"
	 viewBox="0 0 117.81 64.68" style="enable-background:new 0 0 117.81 64.68;" xml:space="preserve">
<style type="text/css">
	.st0{fill:#FDCE74;}
	.st1{fill:#8574B3;}
	.st2{fill:#FFFFFF;}
	.st3{fill:none;stroke:#FFFFFF;stroke-width:4.0959;stroke-linecap:round;stroke-linejoin:round;stroke-miterlimit:10;}
</style>
<g>
	<g>
		<g>
			<path class="st1" d="M12.54,64.68C5.62,64.68,0,59.05,0,52.14S5.62,39.6,12.54,39.6s12.54,5.62,12.54,12.54
				S19.45,64.68,12.54,64.68z M12.54,43.69c-4.66,0-8.44,3.79-8.44,8.44s3.79,8.44,8.44,8.44s8.44-3.79,8.44-8.44
				S17.19,43.69,12.54,43.69z"/>
		</g>
		<g>
			<path class="st1" d="M105.27,64.68c-6.91,0-12.54-5.63-12.54-12.54s5.62-12.54,12.54-12.54s12.54,5.62,12.54,12.54
				S112.18,64.68,105.27,64.68z M105.27,43.69c-4.66,0-8.44,3.79-8.44,8.44s3.79,8.44,8.44,8.44s8.44-3.79,8.44-8.44
				S109.92,43.69,105.27,43.69z"/>
		</g>
		<g>
			<path class="st1" d="M94.78,54.18H23.03c-1.13,0-2.05-0.92-2.05-2.05s0.92-2.05,2.05-2.05h71.75c1.13,0,2.05,0.92,2.05,2.05
				S95.91,54.18,94.78,54.18z"/>
		</g>
		<g>
			<path class="st1" d="M18.18,35.18H7.05c-3.39,0-6.14-2.76-6.14-6.14v-2.79c0-3.39,2.76-6.14,6.14-6.14h11.13
				c3.39,0,6.14,2.76,6.14,6.14v2.79C24.33,32.42,21.57,35.18,18.18,35.18z M7.05,24.2c-1.13,0-2.05,0.92-2.05,2.05v2.79
				c0,1.13,0.92,2.05,2.05,2.05h11.13c1.13,0,2.05-0.92,2.05-2.05v-2.79c0-1.13-0.92-2.05-2.05-2.05H7.05z"/>
		</g>
		<g>
			<path class="st1" d="M64.39,19.26c-0.58,0-1.16-0.25-1.57-0.73c-0.73-0.87-0.62-2.16,0.25-2.89L81.1,0.48
				c0.87-0.73,2.16-0.62,2.89,0.25c0.73,0.87,0.62,2.16-0.25,2.89L65.71,18.78C65.33,19.1,64.86,19.26,64.39,19.26z"/>
		</g>
		<g>
			<path class="st1" d="M55.66,42.25H41.73c-7.6,0-11.71-6.46-11.71-12.54V12.92c0-1.85-0.46-3.2-1.37-4.01
				c-1.43-1.28-3.66-1.04-3.68-1.04c-1.12,0.12-2.14-0.67-2.27-1.79c-0.13-1.12,0.65-2.13,1.77-2.27c0.41-0.05,4.09-0.44,6.87,2.01
				c1.84,1.62,2.77,4.01,2.77,7.1v16.79c0,4.1,2.67,8.45,7.61,8.45h13.93c1.13,0,2.05,0.92,2.05,2.05S56.79,42.25,55.66,42.25z"/>
		</g>
		<g>
			<path class="st1" d="M100.37,44.91c-0.6,0-1.19-0.26-1.6-0.76L71.91,10.84c-0.71-0.88-0.57-2.17,0.31-2.88
				c0.88-0.71,2.17-0.57,2.88,0.31l26.86,33.31c0.71,0.88,0.57,2.17-0.31,2.88C101.27,44.76,100.82,44.91,100.37,44.91z"/>
		</g>
		<g>
			<path class="st1" d="M62.76,54.18c-0.44,0-0.88-0.14-1.26-0.43c-0.89-0.7-1.05-1.98-0.35-2.87l22.17-28.42
				c0.7-0.89,1.98-1.05,2.87-0.35c0.89,0.7,1.05,1.98,0.35,2.87L64.38,53.4C63.97,53.91,63.37,54.18,62.76,54.18z"/>
		</g>
	</g>
</g>
</svg>
