<?xml version="1.0" encoding="utf-8"?>
<!-- Generator: Adobe Illustrator 23.0.6, SVG Export Plug-In . SVG Version: 6.00 Build 0)  -->
<svg version="1.1" id="Layer_1" xmlns="http://www.w3.org/2000/svg" xmlns:xlink="http://www.w3.org/1999/xlink" x="0px" y="0px"
	 viewBox="0 0 653.59 811.41" style="enable-background:new 0 0 653.59 811.41;" xml:space="preserve">
<style type="text/css">
	.st0{fill:#FFFFFF;}
</style>
<g>
	<g>
		<path class="st0" d="M182.77,403.14c-4.04,3.61-9.46,5.63-15.41,5.63c-4.46,0-9.13-1.27-12.53-3.3
			c-7.54-4.46-12.75-12.75-12.75-22.73c0-9.99,5.31-18.38,12.85-22.84c3.4-2.02,7.54-3.19,12.22-3.19c5.42,0,10.83,1.7,15.3,5.42
			v-25.29c0-2.52,2.04-4.57,4.57-4.57h0.96c2.52,0,4.57,2.04,4.57,4.57v66.3c0,2.52-2.04,4.57-4.57,4.57h-0.64
			C184.82,407.7,182.77,405.66,182.77,403.14L182.77,403.14z M182.45,373.39c-3.08-4.04-8.18-7.12-14.24-7.12
			c-9.67,0-16.04,7.75-16.04,16.47c0,8.92,6.91,16.47,16.57,16.47c5.1,0,10.31-2.55,13.71-7.12V373.39z"/>
		<path class="st0" d="M247.05,403.14c-4.04,3.61-9.46,5.63-15.41,5.63c-4.46,0-9.13-1.27-12.53-3.3
			c-7.54-4.46-12.75-12.75-12.75-22.73c0-9.99,5.31-18.38,12.85-22.84c3.4-2.02,7.54-3.19,12.22-3.19c5.63,0,11.05,1.7,15.62,5.63v0
			c0-2.52,2.04-4.57,4.57-4.57h0.64c2.52,0,4.57,2.04,4.57,4.57v40.8c0,2.52-2.04,4.57-4.57,4.57h-0.64
			C249.1,407.7,247.05,405.66,247.05,403.14L247.05,403.14z M246.73,373.39c-3.08-4.04-8.18-7.12-14.24-7.12
			c-9.67,0-16.04,7.75-16.04,16.47c0,8.92,6.91,16.47,16.57,16.47c5.1,0,10.31-2.55,13.71-7.12V373.39z"/>
		<path class="st0" d="M277.78,426.37l10.49-23.88l-18.03-37.76c-1.54-3.23,0.81-6.97,4.4-6.97h0.03c1.88,0,3.6,1.08,4.4,2.78
			l14.3,30.15l13.07-30.01c0.77-1.78,2.53-2.93,4.47-2.93h0c3.51,0,5.87,3.6,4.47,6.82l-28.59,65.69c-0.77,1.78-2.53,2.93-4.47,2.93
			h-0.08C278.73,433.2,276.37,429.59,277.78,426.37z"/>
		<path class="st0" d="M378.16,356.71c14.77,0,25.82,11.16,25.82,26.03s-11.05,26.03-25.82,26.03s-25.82-11.15-25.82-26.03
			S363.39,356.71,378.16,356.71z M378.16,399.2c9.24,0,15.72-7.33,15.72-16.47c0-9.14-6.48-16.47-15.72-16.47
			c-9.24,0-15.72,7.33-15.72,16.47C362.43,391.87,368.92,399.2,378.16,399.2z"/>
		<path class="st0" d="M421.29,400.37c-3.08-3.82-4.57-8.71-4.57-17.1v-20.98c0-2.49,2.02-4.51,4.51-4.51h1.07
			c2.49,0,4.51,2.02,4.51,4.51v22.58c0,5.1,1.06,7.86,2.87,9.98c2.23,2.66,5.84,4.36,9.67,4.36c6.16,0,11.16-3.72,14.02-7.12v-29.8
			c0-2.49,2.02-4.51,4.51-4.51h1.06c2.49,0,4.51,2.02,4.51,4.51v40.91c0,2.49-2.02,4.51-4.51,4.51h-0.75
			c-2.49,0-4.51-2.02-4.51-4.51v-0.05c-2.23,2.12-7.75,5.63-14.66,5.63C431.92,408.77,425.44,405.58,421.29,400.37z"/>
		<path class="st0" d="M511.34,403.17c0.58,2.62-1.23,5.21-3.9,5.46c-0.97,0.09-1.98,0.14-2.96,0.14c-6.27,0-10.94-2.23-14.13-5.84
			c-2.97-3.29-4.04-7.86-4.04-13.28V366.8h-8.23c-2.49,0-4.51-2.02-4.51-4.51v0c0-2.49,2.02-4.51,4.51-4.51h8.23v-9.3
			c0-2.49,2.02-4.51,4.51-4.51h1.07c2.49,0,4.51,2.02,4.51,4.51v9.3h11.42c2.49,0,4.51,2.02,4.51,4.51v0c0,2.49-2.02,4.51-4.51,4.51
			h-11.42v23.37c0,2.66,0.21,4.89,1.48,6.37c1.38,1.7,4.25,2.66,6.91,2.66c0.5,0,1.11-0.02,1.76-0.07c2.21-0.16,4.19,1.37,4.67,3.54
			L511.34,403.17z"/>
	</g>
	<g>
		<path class="st0" d="M183.52,464.68l11.24,27.97L206,464.68c0.66-1.64,2.25-2.72,4.02-2.72h0c3.08,0,5.17,3.12,4.02,5.97
			l-14.74,36.26c-0.66,1.63-2.25,2.7-4.02,2.7h-0.46c-1.77,0-3.37-1.08-4.02-2.72l-11.53-28.82l-11.53,28.82
			c-0.66,1.65-2.25,2.72-4.02,2.72h-0.46c-1.76,0-3.35-1.07-4.02-2.7l-14.74-36.26c-1.16-2.85,0.94-5.97,4.02-5.97h0
			c1.77,0,3.36,1.08,4.02,2.72l11.24,27.97l11.24-27.97c0.66-1.64,2.25-2.72,4.02-2.72h0.45
			C181.27,461.96,182.86,463.04,183.52,464.68z"/>
		<path class="st0" d="M229.48,440c3.79-0.33,6.89,2.77,6.55,6.56c-0.25,2.8-2.64,5.11-5.44,5.34c-3.8,0.32-6.78-2.66-6.46-6.46
			C224.37,442.63,226.68,440.24,229.48,440z M229.6,461.96h0.96c2.24,0,4.06,1.82,4.06,4.06v36.81c0,2.24-1.82,4.06-4.06,4.06h-0.96
			c-2.24,0-4.06-1.82-4.06-4.06v-36.81C225.54,463.78,227.36,461.96,229.6,461.96z"/>
		<path class="st0" d="M277.7,502.81c0.52,2.35-1.11,4.69-3.51,4.91c-0.88,0.08-1.78,0.13-2.66,0.13c-5.64,0-9.85-2.01-12.72-5.26
			c-2.68-2.96-3.63-7.07-3.63-11.95v-20.56h-7.41c-2.24,0-4.06-1.82-4.06-4.06v0c0-2.24,1.82-4.06,4.06-4.06h7.41v-8.37
			c0-2.24,1.82-4.06,4.06-4.06h0.96c2.24,0,4.06,1.82,4.06,4.06v8.37h10.28c2.24,0,4.06,1.82,4.06,4.06v0
			c0,2.24-1.82,4.06-4.06,4.06h-10.28v21.03c0,2.39,0.19,4.4,1.34,5.74c1.24,1.53,3.82,2.39,6.22,2.39c0.45,0,1-0.02,1.59-0.06
			c1.99-0.14,3.77,1.24,4.2,3.18L277.7,502.81z"/>
		<path class="st0" d="M300.11,465.88c2.49-2.1,6.98-4.87,13.19-4.87c6.6,0,12.53,3.06,16.35,7.93c2.87,3.64,4.4,8.22,4.4,15.97
			v17.93c0,2.24-1.82,4.06-4.06,4.06h-0.96c-2.24,0-4.06-1.82-4.06-4.06v-18.4c0-5.74-1.05-8.41-2.68-10.42
			c-2.1-2.68-5.54-4.4-9.27-4.4c-5.92,0-10.23,3.15-12.91,6.41v26.82c0,2.24-1.82,4.06-4.06,4.06h-0.96c-2.24,0-4.06-1.82-4.06-4.06
			v-59.75c0-2.24,1.82-4.06,4.06-4.06h0.96c2.24,0,4.06,1.82,4.06,4.06V465.88z"/>
		<path class="st0" d="M401.03,502.81c0.52,2.36-1.11,4.69-3.51,4.91c-0.88,0.08-1.78,0.13-2.66,0.13c-5.64,0-9.85-2.01-12.71-5.26
			c-2.68-2.96-3.63-7.07-3.63-11.95v-20.56h-7.41c-2.24,0-4.06-1.82-4.06-4.06v0c0-2.24,1.82-4.06,4.06-4.06h7.41v-8.37
			c0-2.24,1.82-4.06,4.06-4.06h0.96c2.24,0,4.06,1.82,4.06,4.06v8.37h10.28c2.24,0,4.06,1.82,4.06,4.06v0
			c0,2.24-1.82,4.06-4.06,4.06h-10.28v21.03c0,2.39,0.19,4.4,1.34,5.74c1.24,1.53,3.82,2.39,6.21,2.39c0.45,0,1-0.02,1.59-0.06
			c1.99-0.14,3.77,1.24,4.2,3.18L401.03,502.81z"/>
		<path class="st0" d="M423.44,465.88c2.49-2.1,6.98-4.87,13.19-4.87c6.6,0,12.52,3.06,16.35,7.93c2.87,3.64,4.4,8.22,4.4,15.97
			v17.93c0,2.24-1.82,4.06-4.06,4.06h-0.96c-2.24,0-4.06-1.82-4.06-4.06v-18.4c0-5.74-1.05-8.41-2.68-10.42
			c-2.1-2.68-5.54-4.4-9.27-4.4c-5.93,0-10.23,3.15-12.91,6.41v26.82c0,2.24-1.82,4.06-4.06,4.06h-0.96c-2.24,0-4.06-1.82-4.06-4.06
			v-59.27c0-2.51,2.03-4.54,4.54-4.54l0,0c2.51,0,4.54,2.03,4.54,4.54V465.88z"/>
		<path class="st0" d="M477.64,486.34c0.48,7.55,6.69,13.57,14.53,13.57c4.7,0,7.88-1.6,10.26-3.54c1.63-1.33,3.95-1.33,5.48,0.11
			l0.1,0.1c1.82,1.73,1.63,4.64-0.34,6.19c-3.63,2.87-8.87,5.08-15.59,5.08c-13.1,0-23.23-9.94-23.23-23.42
			c0-13.48,9.18-23.42,21.89-23.42c12.52,0,21.61,10.13,21.61,23.42c0,0.77-0.24,1.9-1.66,1.91H477.64z M478.41,478.69h24.47
			c-1.34-5.74-6.5-9.75-11.85-9.75C485.19,468.94,479.94,472.86,478.41,478.69z"/>
	</g>
	<g>
		<g>
			<path class="st0" d="M220.72,690.6l-57.36-53.37v48.87c0,3.4-2.76,6.15-6.15,6.15h-0.7c-3.4,0-6.15-2.76-6.15-6.15V536.31
				c0-3.4,2.76-6.15,6.15-6.15h0.7c3.4,0,6.15,2.76,6.15,6.15v95.21l51.5-41.99c1.1-0.9,2.47-1.38,3.89-1.38h0
				c5.78,0,8.37,7.25,3.9,10.91l-43.76,35.89l50.35,46.63c4.11,3.8,1.42,10.67-4.18,10.67h-0.14
				C223.36,692.25,221.86,691.66,220.72,690.6z"/>
			<path class="st0" d="M270.01,546.52c5.53,0,10.07,4.54,10.07,10.07s-4.54,9.87-10.07,9.87s-9.87-4.34-9.87-9.87
				S264.48,546.52,270.01,546.52z M270.08,588.15L270.08,588.15c3.59,0,6.51,2.91,6.51,6.51v91.09c0,3.59-2.91,6.51-6.51,6.51l0,0
				c-3.59,0-6.51-2.91-6.51-6.51v-91.09C263.58,591.06,266.49,588.15,270.08,588.15z"/>
			<path class="st0" d="M328.41,684.72c-13.7-9.59-22.15-25.8-22.15-44.52c0-17.35,7.54-32.65,19.41-42.69
				c8.68-7.08,20.55-11.64,33.11-11.64c14.38,0,27.85,5.71,37.67,16.21v-65.64c0-3.47,2.81-6.28,6.28-6.28h0.46
				c3.47,0,6.28,2.81,6.28,6.28v149.54c0,3.47-2.81,6.28-6.28,6.28l0,0c-3.47,0-6.28-2.81-6.28-6.28v-9.02
				c-7.76,10.5-21.23,17.58-37.44,17.58C349.64,694.54,338.68,692.02,328.41,684.72z M396.44,619.2c-4.57-7.76-18.26-21-37.44-21
				c-8.68,0-17.81,2.97-25.11,8.9c-9.13,7.53-14.61,19.63-14.61,33.1c0,14.38,6.39,27.17,16.44,34.24
				c6.62,4.57,14.61,7.76,23.52,7.76c15.3,0,28.99-8.68,37.21-22.83V619.2z"/>
			<path class="st0" d="M442.06,674.56c2.06-2.59,5.8-3.25,8.52-1.36c7.96,5.52,17.19,9.01,26.89,9.01
				c13.01,0,23.97-7.3,23.97-18.26c0-26.71-60.04-12.1-60.04-47.71c0-18.95,17.81-30.36,35.39-30.36c10.91,0,20.33,2.85,27.63,6.56
				c3.31,1.68,4.39,5.9,2.39,9.02l0,0c-1.79,2.81-5.47,3.74-8.39,2.13c-6.55-3.63-12.36-5.39-20.95-5.39
				c-10.96,0-23.06,5.71-23.06,17.81c0,23.06,60.05,10.73,60.05,47.26c0,19.4-16.44,31.28-36.07,31.28
				c-14.32,0-26.31-4.35-35.19-10.62c-2.98-2.1-3.57-6.28-1.3-9.14L442.06,674.56z"/>
		</g>
	</g>
	<g>
		<path class="st0" d="M277.71,200.68c2.77-1.16,5.57-2.23,8.42-3.2l-24-65.94c-0.85-2.33-3.43-3.54-5.77-2.69
			c-2.33,0.85-3.54,3.43-2.69,5.77L277.71,200.68z"/>
		<path class="st0" d="M240.14,224.4c2.25-2,4.55-3.92,6.92-5.76l-46.39-55.29c-1.6-1.9-4.43-2.15-6.34-0.55
			c-1.9,1.6-2.15,4.43-0.55,6.34L240.14,224.4z"/>
		<path class="st0" d="M399.69,134.63c0.85-2.34-0.35-4.92-2.69-5.77c-2.34-0.85-4.92,0.35-5.77,2.69l-23.75,65.25
			c2.86,0.92,5.68,1.94,8.47,3.06L399.69,134.63z"/>
		<path class="st0" d="M459.59,169.14c1.6-1.9,1.35-4.74-0.56-6.34c-1.9-1.6-4.74-1.35-6.34,0.56l-45.5,54.23
			c2.38,1.81,4.72,3.7,6.99,5.67L459.59,169.14z"/>
		<path class="st0" d="M147.85,226.08l62.24,35.94c1.46-2.64,2.97-5.23,4.58-7.75l-62.32-35.98c-2.15-1.24-4.9-0.51-6.15,1.65
			C144.96,222.08,145.7,224.83,147.85,226.08z"/>
		<path class="st0" d="M332.3,190.63v-69.26c0-2.49-2.01-4.5-4.5-4.5s-4.5,2.01-4.5,4.5v69.26c1.45-0.05,2.91-0.09,4.37-0.09
			C329.22,190.54,330.76,190.58,332.3,190.63z"/>
		<path class="st0" d="M444.79,261.13l60.72-35.05c2.15-1.24,2.89-4,1.65-6.15c-1.24-2.15-4-2.89-6.15-1.65l-60.83,35.12
			C441.79,255.92,443.32,258.5,444.79,261.13z"/>
		<path class="st0" d="M522.32,294.81h-78.25c-13.62-53.79-61.36-91.08-117.22-91.08c-55.03,0-103.73,38.09-117.22,91.08h-78.36
			c-2.51,0-4.54,2.03-4.54,4.54c0,2.51,2.03,4.54,4.54,4.54h81.59c0.11,0.01,0.22,0.04,0.32,0.04c2.08,0,3.96-1.44,4.42-3.56
			c11.25-50.74,57.19-87.56,109.24-87.56c51.72,0,97.52,36.48,109.06,86.78c0.12,2.39,2.09,4.3,4.51,4.3h81.9
			c2.51,0,4.54-2.03,4.54-4.54C526.86,296.84,524.83,294.81,522.32,294.81z"/>
	</g>
</g>
</svg>
