<?xml version="1.0" encoding="utf-8"?>
<!-- Generator: Adobe Illustrator 23.0.6, SVG Export Plug-In . SVG Version: 6.00 Build 0)  -->
<svg version="1.1" id="Layer_1" xmlns="http://www.w3.org/2000/svg" xmlns:xlink="http://www.w3.org/1999/xlink" x="0px" y="0px"
	 viewBox="0 0 112.72 67.83" style="enable-background:new 0 0 112.72 67.83;" xml:space="preserve">
<style type="text/css">
	.st0{fill:#FDCE74;}
	.st1{fill:#8574B3;}
	.st2{fill:#FFFFFF;}
	.st3{fill:none;stroke:#FFFFFF;stroke-width:4.0959;stroke-linecap:round;stroke-linejoin:round;stroke-miterlimit:10;}
</style>
<g>
	<g>
		<g>
			<path class="st1" d="M103.56,46.3H36.84c-1.13,0-2.05-0.92-2.05-2.05V27.37c0-1.13,0.92-2.05,2.05-2.05h66.72
				c1.13,0,2.05,0.92,2.05,2.05v16.88C105.61,45.38,104.69,46.3,103.56,46.3z M38.89,42.2h62.63V29.42H38.89V42.2z"/>
		</g>
		<g>
			<path class="st1" d="M36.84,37.86H2.05C0.92,37.86,0,36.94,0,35.81v-8.44c0-1.13,0.92-2.05,2.05-2.05h34.79
				c1.13,0,2.05,0.92,2.05,2.05v8.44C38.89,36.94,37.97,37.86,36.84,37.86z M4.1,33.76h30.7v-4.34H4.1V33.76z"/>
		</g>
		<g>
			<path class="st1" d="M64.89,29.42H54.15c-1.13,0-2.05-0.92-2.05-2.05v-8.44c0-1.13,0.92-2.05,2.05-2.05h10.75
				c1.13,0,2.05,0.92,2.05,2.05v8.44C66.94,28.5,66.02,29.42,64.89,29.42z M56.2,25.33h6.65v-4.34H56.2V25.33z"/>
		</g>
		<g>
			<path class="st1" d="M73.76,20.98H45.28c-5.78,0-10.49-4.71-10.49-10.49S39.5,0.01,45.28,0.01h28.48
				c5.78,0,10.49,4.7,10.49,10.49S79.54,20.98,73.76,20.98z M45.28,4.1c-3.52,0-6.39,2.87-6.39,6.39s2.87,6.39,6.39,6.39h28.48
				c3.52,0,6.39-2.87,6.39-6.39S77.28,4.1,73.76,4.1H45.28z"/>
		</g>
		<g>
			<path class="st1" d="M110.67,67.83H94.5c-0.81,0-1.55-0.48-1.88-1.23l-9.4-21.53c-0.28-0.63-0.21-1.36,0.16-1.94
				c0.38-0.58,1.02-0.93,1.71-0.93h16.18c0.81,0,1.55,0.48,1.88,1.23l9.4,21.53c0.28,0.63,0.21,1.36-0.16,1.94
				C112.01,67.48,111.36,67.83,110.67,67.83z M95.84,63.73h11.71L99.93,46.3H88.23L95.84,63.73z"/>
		</g>
		<g>
			<path class="st1" d="M89.67,56.78h-14.9c-0.81,0-1.55-0.48-1.88-1.23l-4.58-10.48c-0.45-1.04,0.02-2.24,1.06-2.7
				c1.04-0.45,2.24,0.02,2.7,1.06l4.04,9.25h13.56c1.13,0,2.05,0.92,2.05,2.05S90.81,56.78,89.67,56.78z"/>
		</g>
	</g>
</g>
</svg>
