<?xml version="1.0" encoding="utf-8"?>
<!-- Generator: Adobe Illustrator 22.1.0, SVG Export Plug-In . SVG Version: 6.00 Build 0)  -->
<svg version="1.1" id="Layer_1" xmlns="http://www.w3.org/2000/svg" xmlns:xlink="http://www.w3.org/1999/xlink" x="0px" y="0px"
	 viewBox="0 0 190.4 290" style="enable-background:new 0 0 190.4 290;" xml:space="preserve">
<style type="text/css">
	.st0{fill:#B43176;}
</style>
<path class="st0" d="M26.6,151.4c-1.9,1.7-4.5,2.7-7.3,2.7c-2.1,0-4.4-0.6-6-1.6c-3.6-2.1-6.1-6.1-6.1-10.8c0-4.8,2.5-8.8,6.1-10.9
	c1.6-1,3.6-1.5,5.8-1.5c2.6,0,5.2,0.8,7.3,2.6v-12c0-1.2,1-2.2,2.2-2.2h0.5c1.2,0,2.2,1,2.2,2.2v31.6c0,1.2-1,2.2-2.2,2.2h-0.3
	C27.6,153.5,26.6,152.6,26.6,151.4L26.6,151.4z M26.5,137.2c-1.5-1.9-3.9-3.4-6.8-3.4c-4.6,0-7.6,3.7-7.6,7.8c0,4.2,3.3,7.8,7.9,7.8
	c2.4,0,4.9-1.2,6.5-3.4V137.2z M57.2,151.4c-1.9,1.7-4.5,2.7-7.3,2.7c-2.1,0-4.3-0.6-6-1.6c-3.6-2.1-6.1-6.1-6.1-10.8
	c0-4.8,2.5-8.8,6.1-10.9c1.6-1,3.6-1.5,5.8-1.5c2.7,0,5.3,0.8,7.4,2.7l0,0c0-1.2,1-2.2,2.2-2.2h0.3c1.2,0,2.2,1,2.2,2.2v19.4
	c0,1.2-1,2.2-2.2,2.2h-0.3C58.2,153.5,57.2,152.6,57.2,151.4L57.2,151.4z M57.1,137.2c-1.5-1.9-3.9-3.4-6.8-3.4
	c-4.6,0-7.6,3.7-7.6,7.8c0,4.2,3.3,7.8,7.9,7.8c2.4,0,4.9-1.2,6.5-3.4V137.2z M71.9,162.4l5-11.4l-8.6-18c-0.7-1.5,0.4-3.3,2.1-3.3
	h0c0.9,0,1.7,0.5,2.1,1.3l6.8,14.4l6.2-14.3c0.4-0.8,1.2-1.4,2.1-1.4l0,0c1.7,0,2.8,1.7,2.1,3.2l-13.6,31.3
	c-0.4,0.9-1.2,1.4-2.1,1.4h0C72.3,165.7,71.2,164,71.9,162.4z M119.7,129.3c7,0,12.3,5.3,12.3,12.4c0,7.1-5.3,12.4-12.3,12.4
	s-12.3-5.3-12.3-12.4S112.6,129.3,119.7,129.3z M119.7,149.5c4.4,0,7.5-3.5,7.5-7.8s-3.1-7.8-7.5-7.8s-7.5,3.5-7.5,7.8
	C112.2,146,115.2,149.5,119.7,149.5z M140.2,150c-1.5-1.8-2.2-4.2-2.2-8.1v-10c0-1.2,1-2.2,2.1-2.2h0.5c1.2,0,2.1,1,2.1,2.2v10.8
	c0,2.4,0.5,3.7,1.4,4.8c1.1,1.3,2.8,2.1,4.6,2.1c2.9,0,5.3-1.8,6.7-3.4v-14.2c0-1.2,1-2.1,2.1-2.1h0.5c1.2,0,2.1,1,2.1,2.1v19.5
	c0,1.2-1,2.1-2.1,2.1h-0.4c-1.2,0-2.1-1-2.1-2.1v0c-1.1,1-3.7,2.7-7,2.7C145.2,154,142.2,152.5,140.2,150z M183.1,151.4
	c0.3,1.2-0.6,2.5-1.9,2.6c-0.5,0-0.9,0.1-1.4,0.1c-3,0-5.2-1.1-6.7-2.8c-1.4-1.6-1.9-3.7-1.9-6.3v-10.9h-3.9c-1.2,0-2.1-1-2.1-2.2
	l0,0c0-1.2,1-2.1,2.1-2.1h3.9v-4.4c0-1.2,1-2.2,2.1-2.2h0.5c1.2,0,2.1,1,2.1,2.2v4.4h5.4c1.2,0,2.1,1,2.1,2.1l0,0
	c0,1.2-1,2.2-2.1,2.2h-5.4v11.1c0,1.3,0.1,2.3,0.7,3c0.7,0.8,2,1.3,3.3,1.3c0.2,0,0.5,0,0.8,0c1.1-0.1,2,0.6,2.2,1.7L183.1,151.4z
	 M27,180.7l5.3,13.3l5.3-13.3c0.3-0.8,1.1-1.3,1.9-1.3l0,0c1.5,0,2.5,1.5,1.9,2.8l-7,17.3c-0.3,0.8-1.1,1.3-1.9,1.3h-0.2
	c-0.8,0-1.6-0.5-1.9-1.3l-5.5-13.7l-5.5,13.7c-0.3,0.8-1.1,1.3-1.9,1.3h-0.2c-0.8,0-1.6-0.5-1.9-1.3l-7-17.3
	c-0.6-1.4,0.4-2.8,1.9-2.8l0,0c0.8,0,1.6,0.5,1.9,1.3l5.4,13.3l5.4-13.3c0.3-0.8,1.1-1.3,1.9-1.3H25C25.9,179.4,26.7,179.9,27,180.7
	z M48.9,168.9c1.8-0.2,3.3,1.3,3.1,3.1c-0.1,1.3-1.3,2.4-2.6,2.5c-1.8,0.1-3.2-1.3-3.1-3.1C46.4,170.2,47.5,169,48.9,168.9z
	 M48.9,179.4h0.5c1.1,0,1.9,0.9,1.9,1.9v17.5c0,1.1-0.9,1.9-1.9,1.9h-0.5c-1.1,0-1.9-0.9-1.9-1.9v-17.5
	C47,180.2,47.9,179.4,48.9,179.4z M71.8,198.8c0.2,1.1-0.5,2.2-1.7,2.3c-0.4,0-0.8,0.1-1.3,0.1c-2.7,0-4.7-1-6-2.5
	c-1.3-1.4-1.7-3.4-1.7-5.7v-9.8h-3.5c-1.1,0-1.9-0.9-1.9-1.9l0,0c0-1.1,0.9-1.9,1.9-1.9h3.5v-4c0-1.1,0.9-1.9,1.9-1.9h0.5
	c1.1,0,1.9,0.9,1.9,1.9v4h4.9c1.1,0,1.9,0.9,1.9,1.9l0,0c0,1.1-0.9,1.9-1.9,1.9h-4.9v10c0,1.1,0.1,2.1,0.6,2.7
	c0.6,0.7,1.8,1.1,3,1.1c0.2,0,0.5,0,0.8,0c0.9-0.1,1.8,0.6,2,1.5L71.8,198.8z M82.5,181.2c1.2-1,3.3-2.3,6.3-2.3
	c3.1,0,6,1.5,7.8,3.8c1.4,1.7,2.1,3.9,2.1,7.6v8.5c0,1.1-0.9,1.9-1.9,1.9h-0.5c-1.1,0-1.9-0.9-1.9-1.9v-8.8c0-2.7-0.5-4-1.3-5
	c-1-1.3-2.6-2.1-4.4-2.1c-2.8,0-4.9,1.5-6.1,3.1v12.8c0,1.1-0.9,1.9-1.9,1.9h-0.5c-1.1,0-1.9-0.9-1.9-1.9v-28.4
	c0-1.1,0.9-1.9,1.9-1.9h0.5c1.1,0,1.9,0.9,1.9,1.9V181.2z M130.5,198.8c0.2,1.1-0.5,2.2-1.7,2.3c-0.4,0-0.9,0.1-1.3,0.1
	c-2.7,0-4.7-1-6.1-2.5c-1.3-1.4-1.7-3.4-1.7-5.7v-9.8h-3.5c-1.1,0-1.9-0.9-1.9-1.9l0,0c0-1.1,0.9-1.9,1.9-1.9h3.5v-4
	c0-1.1,0.9-1.9,1.9-1.9h0.5c1.1,0,1.9,0.9,1.9,1.9v4h4.9c1.1,0,1.9,0.9,1.9,1.9l0,0c0,1.1-0.9,1.9-1.9,1.9h-4.9v10
	c0,1.1,0.1,2.1,0.6,2.7c0.6,0.7,1.8,1.1,3,1.1c0.2,0,0.5,0,0.8,0c0.9-0.1,1.8,0.6,2,1.5L130.5,198.8z M141.2,181.2
	c1.2-1,3.3-2.3,6.3-2.3c3.1,0,6,1.5,7.8,3.8c1.4,1.7,2.1,3.9,2.1,7.6v8.5c0,1.1-0.9,1.9-1.9,1.9H155c-1.1,0-1.9-0.9-1.9-1.9v-8.8
	c0-2.7-0.5-4-1.3-5c-1-1.3-2.6-2.1-4.4-2.1c-2.8,0-4.9,1.5-6.1,3.1v12.8c0,1.1-0.9,1.9-1.9,1.9h-0.5c-1.1,0-1.9-0.9-1.9-1.9v-28.2
	c0-1.2,1-2.2,2.2-2.2l0,0c1.2,0,2.2,1,2.2,2.2L141.2,181.2L141.2,181.2z M167,191c0.2,3.6,3.2,6.5,6.9,6.5c2.2,0,3.8-0.8,4.9-1.7
	c0.8-0.6,1.9-0.6,2.6,0.1l0.1,0.1c0.9,0.8,0.8,2.2-0.2,2.9c-1.7,1.4-4.2,2.4-7.4,2.4c-6.2,0-11.1-4.7-11.1-11.1s4.4-11.1,10.4-11.1
	c6,0,10.3,4.8,10.3,11.1c0,0.4-0.1,0.9-0.8,0.9L167,191L167,191z M167.4,187.3H179c-0.6-2.7-3.1-4.6-5.6-4.6
	C170.6,182.7,168.1,184.6,167.4,187.3z M44.7,288.2l-27.3-25.4v23.3c0,1.6-1.3,2.9-2.9,2.9h-0.3c-1.6,0-2.9-1.3-2.9-2.9v-71.3
	c0-1.6,1.3-2.9,2.9-2.9h0.3c1.6,0,2.9,1.3,2.9,2.9v45.3l24.5-20c0.5-0.4,1.2-0.7,1.8-0.7l0,0c2.8,0,4,3.4,1.9,5.2l-20.8,17.1
	l24,22.2c2,1.8,0.7,5.1-2,5.1h-0.1C46,289,45.2,288.7,44.7,288.2z M68.2,219.6c2.6,0,4.8,2.2,4.8,4.8c0,2.6-2.2,4.7-4.8,4.7
	s-4.7-2.1-4.7-4.7C63.5,221.8,65.5,219.6,68.2,219.6z M68.2,239.4L68.2,239.4c1.7,0,3.1,1.4,3.1,3.1v43.4c0,1.7-1.4,3.1-3.1,3.1l0,0
	c-1.7,0-3.1-1.4-3.1-3.1v-43.4C65.1,240.8,66.5,239.4,68.2,239.4z M96,285.4c-6.5-4.6-10.5-12.3-10.5-21.2c0-8.3,3.6-15.5,9.2-20.3
	c4.1-3.4,9.8-5.5,15.8-5.5c6.8,0,13.3,2.7,17.9,7.7v-31.2c0-1.6,1.3-3,3-3h0.2c1.6,0,3,1.3,3,3V286c0,1.6-1.3,3-3,3l0,0
	c-1.6,0-3-1.3-3-3v-4.3c-3.7,5-10.1,8.4-17.8,8.4C106.1,290.1,100.9,288.9,96,285.4z M128.4,254.2c-2.2-3.7-8.7-10-17.8-10
	c-4.1,0-8.5,1.4-12,4.2c-4.3,3.6-7,9.3-7,15.8c0,6.9,3,12.9,7.8,16.3c3.2,2.2,7,3.7,11.2,3.7c7.3,0,13.8-4.1,17.7-10.9V254.2z
	 M150.1,280.6c1-1.2,2.8-1.5,4.1-0.6c3.8,2.6,8.2,4.3,12.8,4.3c6.2,0,11.4-3.5,11.4-8.7c0-12.7-28.6-5.8-28.6-22.7
	c0-9,8.5-14.5,16.9-14.5c5.2,0,9.7,1.4,13.2,3.1c1.6,0.8,2.1,2.8,1.1,4.3l0,0c-0.9,1.3-2.6,1.8-4,1c-3.1-1.7-5.9-2.6-10-2.6
	c-5.2,0-11,2.7-11,8.5c0,11,28.6,5.1,28.6,22.5c0,9.2-7.8,14.9-17.2,14.9c-6.8,0-12.5-2.1-16.8-5.1C149.2,284,148.9,282,150.1,280.6
	L150.1,280.6z M188.3,99.8H151c-6.5-25.6-29.2-43.3-55.8-43.3c-26.2,0-49.4,18.1-55.8,43.3H2.2c-1.2,0-2.2,1-2.2,2.2
	c0,1.2,1,2.2,2.2,2.2H41c0,0,0.1,0,0.2,0c1,0,1.9-0.7,2.1-1.7c2.2-9.8,7.1-18.5,13.8-25.4V102c0,1.2,1,2.2,2.2,2.2s2.2-1,2.2-2.2
	V73.1c4.1-3.4,8.7-6.2,13.7-8.3v37.1c0,1.2,1,2.2,2.2,2.2s2.2-1,2.2-2.2V63.2c4.4-1.4,9-2.2,13.7-2.4v41.1c0,1.2,1,2.2,2.2,2.2
	s2.2-1,2.2-2.2V60.8c4.7,0.2,9.3,1,13.7,2.4v38.7c0,1.2,1,2.2,2.2,2.2s2.2-1,2.2-2.2V64.8c5,2.1,9.6,4.8,13.7,8.2V102
	c0,1.2,1,2.2,2.2,2.2s2.2-1,2.2-2.2V77c6.6,6.8,11.5,15.4,13.7,25.1c0.1,1.1,1,2.1,2.1,2.1h39c1.2,0,2.2-1,2.2-2.2
	C190.4,100.8,189.5,99.8,188.3,99.8z M82.1,53h26.3c1.2,0,2.2-1,2.2-2.2V35.7c0-1.2-1-2.2-2.2-2.2H82.1c-1.2,0-2.2,1-2.2,2.2v15.2
	C79.9,52.1,80.9,53,82.1,53z M84.2,37.8h22v10.9h-22V37.8z M88.6,31.5c3.2,0,5.8-2.6,5.8-5.8s-2.6-5.8-5.8-5.8s-5.8,2.6-5.8,5.8
	S85.4,31.5,88.6,31.5z M88.6,24.2c0.8,0,1.5,0.7,1.5,1.5c0,0.8-0.7,1.5-1.5,1.5c-0.8,0-1.5-0.7-1.5-1.5
	C87.1,24.9,87.8,24.2,88.6,24.2z M102.1,31.5c3.2,0,5.8-2.6,5.8-5.8s-2.6-5.8-5.8-5.8s-5.8,2.6-5.8,5.8S98.9,31.5,102.1,31.5z
	 M102.1,24.2c0.8,0,1.5,0.7,1.5,1.5c0,0.8-0.7,1.5-1.5,1.5c-0.8,0-1.5-0.7-1.5-1.5C100.6,24.9,101.3,24.2,102.1,24.2z M119.6,55.2
	L147.9,78c0.4,0.3,0.9,0.5,1.4,0.5c0.6,0,1.3-0.3,1.7-0.8c6-7.5,4.8-18.4-2.7-24.4L131.8,40c-0.4-0.4-1-0.5-1.6-0.5
	c-0.6,0.1-1.1,0.4-1.4,0.8l-9.5,11.8c-0.4,0.5-0.5,1-0.5,1.6C118.8,54.4,119.1,54.9,119.6,55.2z M130.8,44.7l14.8,11.9
	c5,4,6.3,11.1,3.2,16.5L124,53.2L130.8,44.7z M137,41.6c1.1,0.9,2.3,1.3,3.6,1.3c1.7,0,3.4-0.7,4.5-2.2c2-2.5,1.6-6.1-0.9-8.1
	c-1.2-1-2.7-1.4-4.2-1.2c-1.5,0.2-2.9,0.9-3.9,2.1c-1,1.2-1.4,2.7-1.2,4.2C135,39.2,135.8,40.6,137,41.6z M139.5,36.1
	c0.2-0.3,0.6-0.5,1-0.5c0.1,0,0.1,0,0.2,0c0.3,0,0.6,0.1,0.9,0.3c0.6,0.5,0.7,1.4,0.2,2.1s-1.4,0.7-2.1,0.2c-0.3-0.2-0.5-0.6-0.5-1
	C139.1,36.8,139.2,36.4,139.5,36.1z M147.5,50c1.1,0.9,2.3,1.3,3.6,1.3c1.7,0,3.4-0.7,4.5-2.2c2-2.5,1.6-6.1-0.9-8.1
	s-6.1-1.6-8.1,0.9C144.6,44.3,145,48,147.5,50z M150,44.6c0.2-0.3,0.6-0.5,1-0.5c0.1,0,0.1,0,0.2,0c0.3,0,0.6,0.1,0.9,0.3
	c0.6,0.5,0.7,1.4,0.2,2.1c-0.5,0.6-1.4,0.7-2.1,0.2C149.6,46.1,149.5,45.2,150,44.6z M36,58.5c-0.1,0.6,0.1,1.1,0.4,1.6l9.3,12
	c0.4,0.5,1.1,0.8,1.7,0.8c0.5,0,0.9-0.2,1.3-0.5l20.8-16.1c0.4-0.3,0.8-0.9,0.8-1.4s-0.1-1.1-0.4-1.6l-9.3-12
	c-0.7-0.9-2.1-1.1-3-0.4L36.8,57.1C36.3,57.4,36,58,36,58.5z M58.5,45.7l6.7,8.6L47.8,67.8l-6.7-8.6L58.5,45.7z M36.4,52.6
	c0.2,0,0.5,0,0.7,0c1.3,0,2.5-0.4,3.5-1.2c1.2-1,2-2.3,2.2-3.9c0.2-1.5-0.2-3-1.2-4.3c-2-2.5-5.6-3-8.1-1c-2.5,2-3,5.6-1,8.1
	C33.5,51.7,34.9,52.4,36.4,52.6z M35.7,46.7c0-0.4,0.2-0.7,0.5-1c0.3-0.2,0.6-0.3,0.9-0.3c0.1,0,0.1,0,0.2,0c0.4,0.1,0.7,0.2,1,0.6
	c0.5,0.6,0.4,1.6-0.3,2c-0.6,0.5-1.6,0.4-2-0.3C35.7,47.5,35.6,47.1,35.7,46.7z M47.1,44.4c0.2,0,0.5,0,0.7,0c1.3,0,2.5-0.4,3.5-1.2
	c2.5-2,3-5.6,1-8.1c-1-1.2-2.3-2-3.8-2.2c-1.5-0.2-3,0.2-4.3,1.2c-2.5,2-3,5.6-1,8.1C44.2,43.4,45.5,44.2,47.1,44.4z M46.3,38.4
	c0-0.4,0.2-0.7,0.6-1c0.3-0.2,0.6-0.3,0.9-0.3c0.1,0,0.1,0,0.2,0c0.4,0,0.7,0.2,1,0.5c0.2,0.3,0.3,0.7,0.3,1.1c0,0.4-0.2,0.7-0.6,1
	s-0.7,0.3-1.1,0.3c-0.4,0-0.7-0.2-1-0.5C46.4,39.2,46.3,38.8,46.3,38.4z"/>
</svg>
