<?xml version="1.0" encoding="utf-8"?>
<!-- Generator: Adobe Illustrator 22.1.0, SVG Export Plug-In . SVG Version: 6.00 Build 0)  -->
<svg version="1.1" id="Layer_1" xmlns="http://www.w3.org/2000/svg" xmlns:xlink="http://www.w3.org/1999/xlink" x="0px" y="0px"
	 viewBox="0 0 190.4 290" style="enable-background:new 0 0 190.4 290;" xml:space="preserve">
<style type="text/css">
	.st0{fill:#ED6B46;}
</style>
<path class="st0" d="M26.6,150.6c-1.9,1.7-4.5,2.7-7.3,2.7c-2.1,0-4.4-0.6-6-1.6c-3.6-2.1-6.1-6.1-6.1-10.8c0-4.8,2.5-8.8,6.1-10.9
	c1.6-1,3.6-1.5,5.8-1.5c2.6,0,5.2,0.8,7.3,2.6v-12c0-1.2,1-2.2,2.2-2.2h0.5c1.2,0,2.2,1,2.2,2.2v31.6c0,1.2-1,2.2-2.2,2.2h-0.3
	C27.6,152.7,26.6,151.8,26.6,150.6L26.6,150.6z M26.5,136.4c-1.5-1.9-3.9-3.4-6.8-3.4c-4.6,0-7.6,3.7-7.6,7.8c0,4.2,3.3,7.8,7.9,7.8
	c2.4,0,4.9-1.2,6.5-3.4V136.4z M57.2,150.6c-1.9,1.7-4.5,2.7-7.3,2.7c-2.1,0-4.3-0.6-6-1.6c-3.6-2.1-6.1-6.1-6.1-10.8
	c0-4.8,2.5-8.8,6.1-10.9c1.6-1,3.6-1.5,5.8-1.5c2.7,0,5.3,0.8,7.4,2.7l0,0c0-1.2,1-2.2,2.2-2.2h0.3c1.2,0,2.2,1,2.2,2.2v19.4
	c0,1.2-1,2.2-2.2,2.2h-0.3C58.2,152.7,57.2,151.8,57.2,150.6L57.2,150.6z M57.1,136.4c-1.5-1.9-3.9-3.4-6.8-3.4
	c-4.6,0-7.6,3.7-7.6,7.8c0,4.2,3.3,7.8,7.9,7.8c2.4,0,4.9-1.2,6.5-3.4V136.4z M71.9,161.6l5-11.4l-8.6-18c-0.7-1.5,0.4-3.3,2.1-3.3
	h0c0.9,0,1.7,0.5,2.1,1.3l6.8,14.4l6.2-14.3c0.4-0.9,1.2-1.4,2.1-1.4l0,0c1.7,0,2.8,1.7,2.1,3.2l-13.6,31.3
	c-0.4,0.9-1.2,1.4-2.1,1.4h0C72.3,164.9,71.2,163.1,71.9,161.6z M119.7,128.4c7,0,12.3,5.3,12.3,12.4c0,7.1-5.3,12.4-12.3,12.4
	s-12.3-5.3-12.3-12.4C107.4,133.8,112.6,128.4,119.7,128.4z M119.7,148.7c4.4,0,7.5-3.5,7.5-7.8c0-4.4-3.1-7.8-7.5-7.8
	s-7.5,3.5-7.5,7.8C112.2,145.2,115.3,148.7,119.7,148.7z M140.2,149.2c-1.5-1.8-2.2-4.1-2.2-8.1v-10c0-1.2,1-2.2,2.1-2.2h0.5
	c1.2,0,2.1,1,2.1,2.2v10.8c0,2.4,0.5,3.7,1.4,4.8c1.1,1.3,2.8,2.1,4.6,2.1c2.9,0,5.3-1.8,6.7-3.4v-14.2c0-1.2,1-2.2,2.1-2.2h0.5
	c1.2,0,2.1,1,2.1,2.2v19.5c0,1.2-1,2.1-2.1,2.1h-0.4c-1.2,0-2.1-1-2.1-2.1v0c-1.1,1-3.7,2.7-7,2.7
	C145.3,153.2,142.2,151.7,140.2,149.2z M183.1,150.6c0.3,1.2-0.6,2.5-1.9,2.6c-0.5,0-0.9,0.1-1.4,0.1c-3,0-5.2-1.1-6.7-2.8
	c-1.4-1.6-1.9-3.7-1.9-6.3v-10.9h-3.9c-1.2,0-2.1-1-2.1-2.1l0,0c0-1.2,1-2.1,2.1-2.1h3.9v-4.4c0-1.2,1-2.2,2.1-2.2h0.5
	c1.2,0,2.1,1,2.1,2.2v4.4h5.4c1.2,0,2.1,1,2.1,2.1l0,0c0,1.2-1,2.1-2.1,2.1H176v11.1c0,1.3,0.1,2.3,0.7,3c0.7,0.8,2,1.3,3.3,1.3
	c0.2,0,0.5,0,0.8,0c1.1-0.1,2,0.6,2.2,1.7L183.1,150.6z M27,179.9l5.4,13.3l5.3-13.3c0.3-0.8,1.1-1.3,1.9-1.3l0,0
	c1.5,0,2.5,1.5,1.9,2.8l-7,17.3c-0.3,0.8-1.1,1.3-1.9,1.3h-0.2c-0.8,0-1.6-0.5-1.9-1.3L25,184.9l-5.5,13.7c-0.3,0.8-1.1,1.3-1.9,1.3
	h-0.2c-0.8,0-1.6-0.5-1.9-1.3l-7-17.3c-0.6-1.4,0.4-2.8,1.9-2.8l0,0c0.8,0,1.6,0.5,1.9,1.3l5.4,13.3l5.4-13.3
	c0.3-0.8,1.1-1.3,1.9-1.3H25C25.9,178.6,26.7,179.1,27,179.9z M48.9,168.1c1.8-0.2,3.3,1.3,3.1,3.1c-0.1,1.3-1.3,2.4-2.6,2.5
	c-1.8,0.1-3.2-1.3-3.1-3.1C46.5,169.4,47.5,168.2,48.9,168.1z M49,178.6h0.5c1.1,0,1.9,0.9,1.9,1.9V198c0,1.1-0.9,1.9-1.9,1.9H49
	c-1.1,0-1.9-0.9-1.9-1.9v-17.5C47,179.4,47.9,178.6,49,178.6z M71.8,198c0.2,1.1-0.5,2.2-1.7,2.3c-0.4,0-0.8,0.1-1.3,0.1
	c-2.7,0-4.7-1-6-2.5c-1.3-1.4-1.7-3.4-1.7-5.7v-9.8h-3.5c-1.1,0-1.9-0.9-1.9-1.9l0,0c0-1.1,0.9-1.9,1.9-1.9h3.5v-4
	c0-1.1,0.9-1.9,1.9-1.9h0.5c1.1,0,1.9,0.9,1.9,1.9v4h4.9c1.1,0,1.9,0.9,1.9,1.9l0,0c0,1.1-0.9,1.9-1.9,1.9h-4.9v10
	c0,1.1,0.1,2.1,0.6,2.7c0.6,0.7,1.8,1.1,3,1.1c0.2,0,0.5,0,0.8,0c0.9-0.1,1.8,0.6,2,1.5L71.8,198z M82.5,180.4
	c1.2-1,3.3-2.3,6.3-2.3c3.1,0,6,1.5,7.8,3.8c1.4,1.7,2.1,3.9,2.1,7.6v8.5c0,1.1-0.9,1.9-1.9,1.9h-0.5c-1.1,0-1.9-0.9-1.9-1.9v-8.8
	c0-2.7-0.5-4-1.3-5c-1-1.3-2.6-2.1-4.4-2.1c-2.8,0-4.9,1.5-6.1,3.1V198c0,1.1-0.9,1.9-1.9,1.9h-0.5c-1.1,0-1.9-0.9-1.9-1.9v-28.4
	c0-1.1,0.9-1.9,1.9-1.9h0.5c1.1,0,1.9,0.9,1.9,1.9V180.4z M130.6,198c0.2,1.1-0.5,2.2-1.7,2.3c-0.4,0-0.9,0.1-1.3,0.1
	c-2.7,0-4.7-1-6.1-2.5c-1.3-1.4-1.7-3.4-1.7-5.7v-9.8h-3.5c-1.1,0-1.9-0.9-1.9-1.9l0,0c0-1.1,0.9-1.9,1.9-1.9h3.5v-4
	c0-1.1,0.9-1.9,1.9-1.9h0.5c1.1,0,1.9,0.9,1.9,1.9v4h4.9c1.1,0,1.9,0.9,1.9,1.9l0,0c0,1.1-0.9,1.9-1.9,1.9h-4.9v10
	c0,1.1,0.1,2.1,0.6,2.7c0.6,0.7,1.8,1.1,3,1.1c0.2,0,0.5,0,0.8,0c0.9-0.1,1.8,0.6,2,1.5L130.6,198z M141.2,180.4
	c1.2-1,3.3-2.3,6.3-2.3c3.1,0,6,1.5,7.8,3.8c1.4,1.7,2.1,3.9,2.1,7.6v8.5c0,1.1-0.9,1.9-1.9,1.9H155c-1.1,0-1.9-0.9-1.9-1.9v-8.8
	c0-2.7-0.5-4-1.3-5c-1-1.3-2.6-2.1-4.4-2.1c-2.8,0-4.9,1.5-6.1,3.1V198c0,1.1-0.9,1.9-1.9,1.9h-0.5c-1.1,0-1.9-0.9-1.9-1.9v-28.2
	c0-1.2,1-2.2,2.2-2.2l0,0c1.2,0,2.2,1,2.2,2.2L141.2,180.4L141.2,180.4z M167,190.2c0.2,3.6,3.2,6.5,6.9,6.5c2.2,0,3.8-0.8,4.9-1.7
	c0.8-0.6,1.9-0.6,2.6,0.1l0.1,0.1c0.9,0.8,0.8,2.2-0.2,2.9c-1.7,1.4-4.2,2.4-7.4,2.4c-6.2,0-11.1-4.7-11.1-11.1s4.4-11.1,10.4-11.1
	c6,0,10.3,4.8,10.3,11.1c0,0.4-0.1,0.9-0.8,0.9L167,190.2L167,190.2z M167.4,186.5H179c-0.6-2.7-3.1-4.6-5.6-4.6
	C170.6,181.9,168.1,183.7,167.4,186.5z M44.7,287.4L17.4,262v23.3c0,1.6-1.3,2.9-2.9,2.9h-0.3c-1.6,0-2.9-1.3-2.9-2.9V214
	c0-1.6,1.3-2.9,2.9-2.9h0.3c1.6,0,2.9,1.3,2.9,2.9v45.3l24.5-20c0.5-0.4,1.2-0.7,1.8-0.7l0,0c2.8,0,4,3.4,1.9,5.2l-20.8,17.1
	l24,22.2c2,1.8,0.7,5.1-2,5.1h-0.1C46,288.2,45.3,287.9,44.7,287.4z M68.2,218.8c2.6,0,4.8,2.2,4.8,4.8s-2.2,4.7-4.8,4.7
	s-4.7-2.1-4.7-4.7S65.6,218.8,68.2,218.8z M68.2,238.6L68.2,238.6c1.7,0,3.1,1.4,3.1,3.1v43.4c0,1.7-1.4,3.1-3.1,3.1l0,0
	c-1.7,0-3.1-1.4-3.1-3.1v-43.4C65.1,240,66.5,238.6,68.2,238.6z M96,284.6c-6.5-4.6-10.5-12.3-10.5-21.2c0-8.3,3.6-15.5,9.2-20.3
	c4.1-3.4,9.8-5.5,15.8-5.5c6.8,0,13.3,2.7,17.9,7.7V214c0-1.6,1.3-3,3-3h0.2c1.6,0,3,1.3,3,3v71.2c0,1.6-1.3,3-3,3l0,0
	c-1.6,0-3-1.3-3-3v-4.3c-3.7,5-10.1,8.4-17.8,8.4C106.1,289.3,100.9,288.1,96,284.6z M128.4,253.4c-2.2-3.7-8.7-10-17.8-10
	c-4.1,0-8.5,1.4-12,4.2c-4.3,3.6-7,9.4-7,15.8c0,6.9,3,12.9,7.8,16.3c3.2,2.2,7,3.7,11.2,3.7c7.3,0,13.8-4.1,17.7-10.9V253.4z
	 M150.1,279.8c1-1.2,2.8-1.5,4.1-0.6c3.8,2.6,8.2,4.3,12.8,4.3c6.2,0,11.4-3.5,11.4-8.7c0-12.7-28.6-5.8-28.6-22.7
	c0-9,8.5-14.5,16.9-14.5c5.2,0,9.7,1.4,13.2,3.1c1.6,0.8,2.1,2.8,1.1,4.3l0,0c-0.9,1.3-2.6,1.8-4,1c-3.1-1.7-5.9-2.6-10-2.6
	c-5.2,0-11,2.7-11,8.5c0,11,28.6,5.1,28.6,22.5c0,9.2-7.8,14.9-17.2,14.9c-6.8,0-12.5-2.1-16.8-5.1
	C149.2,283.2,149,281.2,150.1,279.8L150.1,279.8z M84,28.1l2.8,6.9c1.1,2.7,1.1,5.8-0.1,8.5l-2.7,6.3c-0.5,1.1,0,2.4,1.1,2.8
	c0.3,0.1,0.6,0.2,0.8,0.2c0.8,0,1.6-0.5,2-1.3l2.7-6.3c1.6-3.7,1.6-8,0.1-11.8l-2.7-6.6c-0.2-2.3,0.2-4.1,1.3-5.3
	c2-2.3,5.8-2.4,5.8-2.4c0,0,3.8,0.1,5.8,2.4c1.1,1.2,1.5,3,1.3,5.3l-2.7,6.6c-1.5,3.8-1.5,8.1,0.1,11.8l2.7,6.3
	c0.5,1.1,1.7,1.6,2.8,1.1s1.6-1.7,1.1-2.8l-2.7-6.3c-1.2-2.7-1.2-5.8-0.1-8.5l2.8-6.9c0.1-0.2,0.1-0.4,0.1-0.5
	c0.5-3.7-0.3-6.7-2.3-9c-3.3-3.8-8.8-3.8-9-3.8c-0.2,0-5.7,0-9,3.8c-2,2.3-2.8,5.3-2.3,9C83.9,27.7,84,27.9,84,28.1z M45.3,79.4
	c0.1,0,0.2,0,0.3,0c1.2-0.1,2-1.2,1.9-2.4c-0.2-1.6-0.3-3.1-0.2-4.6c0.2-10.3,4.9-20.7,5-20.9l2.7-6.3c1.6-3.7,1.6-8,0.1-11.8
	l-2.7-6.6c-0.2-2.3,0.2-4.1,1.3-5.3c2-2.3,5.8-2.4,5.8-2.4c0,0,3.8,0.1,5.8,2.4c1.1,1.2,1.5,3,1.3,5.3l-2.7,6.6
	c-1.5,3.8-1.5,8.1,0.1,11.8l2.7,6.4c0,0,0.8,1.7,1.7,4.2c0.4,1.1,1.6,1.7,2.8,1.3s1.7-1.6,1.3-2.8c-1-2.8-1.8-4.5-1.8-4.6l-2.7-6.3
	c-1.2-2.7-1.2-5.8-0.1-8.5l2.8-6.9c0.1-0.2,0.1-0.4,0.1-0.5c0.5-3.7-0.3-6.7-2.3-9c-3.3-3.8-8.8-3.8-9-3.8s-5.7,0-9,3.8
	c-2,2.3-2.8,5.3-2.3,9c0,0.2,0.1,0.4,0.1,0.5l2.8,6.9c1.1,2.7,1.1,5.8-0.1,8.5l-2.7,6.3C48,50.2,43.1,61,42.8,72.3
	c0,1.7,0.1,3.4,0.3,5.2C43.2,78.6,44.2,79.4,45.3,79.4z M121,57.4c1.1,0.4,2.4-0.2,2.7-1.3c0.9-2.8,1.7-4.5,1.8-4.6l2.7-6.3
	c1.6-3.7,1.6-8.1,0.1-11.8l-2.7-6.6c-0.2-2.3,0.2-4.1,1.3-5.3c2-2.3,5.8-2.4,5.8-2.4c0,0,3.8,0.1,5.8,2.4c1.1,1.2,1.5,3,1.3,5.3
	l-2.7,6.6c-1.5,3.8-1.5,8.1,0.1,11.8l2.7,6.4c0.1,0.1,4.7,10.5,4.9,20.8c0,2.1-0.1,4.3-0.6,6.7c-0.2,1.2,0.6,2.3,1.8,2.5
	c0.1,0,0.2,0,0.4,0c1,0,1.9-0.7,2.1-1.8c0.5-2.7,0.7-5.2,0.6-7.5c-0.2-11.3-5.1-22.1-5.3-22.5l-2.7-6.3c-1.1-2.7-1.2-5.8-0.1-8.5
	l2.8-6.9c0.1-0.2,0.1-0.4,0.1-0.5c0.5-3.7-0.3-6.7-2.3-9c-3.3-3.8-8.8-3.8-9-3.8s-5.7,0-9,3.8c-2,2.3-2.8,5.3-2.3,9
	c0,0.2,0.1,0.4,0.1,0.5l2.8,6.9c1.1,2.7,1.1,5.8-0.1,8.5l-2.7,6.3c0,0.1-0.9,2-1.9,4.9C119.2,55.8,119.8,57,121,57.4z M188.3,99H151
	c-6.5-25.6-29.2-43.3-55.8-43.3C69,55.6,45.9,73.8,39.4,99H2.2C1,99,0,99.9,0,101.1c0,1.2,1,2.2,2.2,2.2H41c0,0,0.1,0,0.2,0
	c1,0,1.9-0.7,2.1-1.7C48.6,77.5,70.5,60,95.2,60c24.6,0,46.4,17.4,51.9,41.3c0.1,1.1,1,2.1,2.1,2.1h39c1.2,0,2.2-1,2.2-2.2
	C190.4,99.9,189.5,99,188.3,99z M72.1,84.7c-1.6-0.6-3.4-0.5-5,0.3s-2.8,2.1-3.3,3.7s-0.5,3.4,0.3,5c0.8,1.6,2.1,2.8,3.7,3.3
	c0.7,0.2,1.4,0.4,2.2,0.4c1,0,1.9-0.2,2.8-0.6c1.6-0.8,2.8-2.1,3.3-3.7s0.5-3.4-0.3-5C75,86.4,73.7,85.2,72.1,84.7z M72,91.5
	c-0.2,0.6-0.6,1-1.1,1.2c-0.5,0.2-1.1,0.3-1.7,0.1c-0.6-0.2-1-0.6-1.2-1.1c-0.2-0.5-0.3-1.1-0.1-1.7c0.2-0.6,0.6-1,1.1-1.2
	c0.3-0.1,0.6-0.2,0.9-0.2c0.2,0,0.5,0,0.7,0.1c0.6,0.2,1,0.6,1.2,1.1S72.2,91,72,91.5z M90.7,82.9c1.6-0.8,2.8-2.1,3.3-3.7
	c1.2-3.4-0.6-7.1-4-8.3c-1.6-0.6-3.4-0.5-5,0.3s-2.8,2.1-3.3,3.7c-1.2,3.4,0.6,7.1,4,8.3c0.7,0.2,1.4,0.4,2.2,0.4
	C88.9,83.6,89.8,83.3,90.7,82.9z M85.8,76.3c0.2-0.5,0.6-1,1.1-1.2c0.3-0.1,0.6-0.2,0.9-0.2c0.2,0,0.5,0,0.7,0.1
	c1.1,0.4,1.7,1.7,1.3,2.8c-0.2,0.6-0.6,1-1.1,1.2c-0.5,0.2-1.1,0.3-1.7,0.1C86,78.7,85.4,77.5,85.8,76.3z M95.7,93.5
	c-1.6-0.6-3.4-0.5-5,0.3s-2.8,2.1-3.3,3.7s-0.5,3.4,0.3,5s2.1,2.8,3.7,3.3c0.7,0.2,1.4,0.4,2.2,0.4c1,0,1.9-0.2,2.8-0.6
	c1.6-0.8,2.8-2.1,3.3-3.7s0.5-3.4-0.3-5C98.7,95.2,97.4,94.1,95.7,93.5z M95.6,100.4c-0.2,0.6-0.6,1-1.1,1.2
	c-0.5,0.2-1.1,0.3-1.7,0.1c-0.6-0.2-1-0.6-1.2-1.1c-0.2-0.5-0.3-1.1-0.1-1.7c0.2-0.6,0.6-1,1.1-1.2c0.3-0.1,0.6-0.2,0.9-0.2
	c0.2,0,0.5,0,0.7,0.1c0.6,0.2,1,0.6,1.2,1.1S95.8,99.8,95.6,100.4z"/>
</svg>
