<?xml version="1.0" encoding="utf-8"?>
<!-- Generator: Adobe Illustrator 23.0.6, SVG Export Plug-In . SVG Version: 6.00 Build 0)  -->
<svg version="1.1" id="Layer_1" xmlns="http://www.w3.org/2000/svg" xmlns:xlink="http://www.w3.org/1999/xlink" x="0px" y="0px"
	 viewBox="0 0 191.29 265.4" style="enable-background:new 0 0 191.29 265.4;" xml:space="preserve">
<style type="text/css">
	.st0{fill:#7CC5B6;}
</style>
<path class="st0" d="M26.71,126.67c-1.92,1.72-4.5,2.68-7.34,2.68c-2.12,0-4.35-0.61-5.97-1.57c-3.59-2.12-6.07-6.07-6.07-10.82
	c0-4.76,2.53-8.75,6.12-10.88c1.62-0.96,3.59-1.52,5.82-1.52c2.58,0,5.16,0.81,7.28,2.58V95.1c0-1.2,0.97-2.17,2.17-2.17h0.46
	c1.2,0,2.17,0.97,2.17,2.17v31.57c0,1.2-0.97,2.17-2.17,2.17h-0.3C27.69,128.84,26.71,127.87,26.71,126.67L26.71,126.67z
	 M26.56,112.5c-1.47-1.92-3.9-3.39-6.78-3.39c-4.6,0-7.64,3.69-7.64,7.84c0,4.25,3.29,7.84,7.89,7.84c2.43,0,4.91-1.21,6.53-3.39
	V112.5z M57.32,126.67c-1.92,1.72-4.5,2.68-7.34,2.68c-2.12,0-4.35-0.61-5.97-1.57c-3.59-2.12-6.07-6.07-6.07-10.82
	c0-4.76,2.53-8.75,6.12-10.88c1.62-0.96,3.59-1.52,5.82-1.52c2.68,0,5.26,0.81,7.44,2.68v0c0-1.2,0.97-2.17,2.17-2.17h0.3
	c1.2,0,2.17,0.97,2.17,2.17v19.43c0,1.2-0.97,2.17-2.17,2.17h-0.3C58.29,128.84,57.32,127.87,57.32,126.67L57.32,126.67z
	 M57.17,112.5c-1.47-1.92-3.9-3.39-6.78-3.39c-4.6,0-7.64,3.69-7.64,7.84c0,4.25,3.29,7.84,7.89,7.84c2.43,0,4.91-1.21,6.53-3.39
	V112.5z M71.95,137.73l5-11.37l-8.58-17.98c-0.73-1.54,0.39-3.32,2.09-3.32h0.02c0.9,0,1.71,0.52,2.1,1.33l6.81,14.36l6.22-14.29
	c0.37-0.85,1.2-1.39,2.13-1.39l0,0c1.67,0,2.79,1.71,2.13,3.24l-13.61,31.28c-0.37,0.85-1.2,1.39-2.13,1.39h-0.04
	C72.4,140.98,71.28,139.26,71.95,137.73z M119.74,104.56c7.03,0,12.29,5.31,12.29,12.39s-5.26,12.39-12.29,12.39
	c-7.03,0-12.29-5.31-12.29-12.39S112.71,104.56,119.74,104.56z M119.74,124.79c4.4,0,7.49-3.49,7.49-7.84
	c0-4.35-3.09-7.84-7.49-7.84c-4.4,0-7.49,3.49-7.49,7.84C112.25,121.3,115.34,124.79,119.74,124.79z M140.27,125.35
	c-1.47-1.82-2.18-4.15-2.18-8.14v-9.99c0-1.19,0.96-2.15,2.15-2.15h0.51c1.19,0,2.15,0.96,2.15,2.15v10.75
	c0,2.43,0.51,3.74,1.37,4.75c1.06,1.27,2.78,2.07,4.6,2.07c2.93,0,5.31-1.77,6.68-3.39v-14.19c0-1.19,0.96-2.15,2.15-2.15h0.51
	c1.19,0,2.15,0.96,2.15,2.15v19.48c0,1.19-0.96,2.15-2.15,2.15h-0.35c-1.19,0-2.15-0.96-2.15-2.15v-0.02
	c-1.06,1.01-3.69,2.68-6.98,2.68C145.33,129.35,142.25,127.83,140.27,125.35z M183.15,126.68c0.28,1.25-0.59,2.48-1.86,2.6
	c-0.46,0.04-0.94,0.07-1.41,0.07c-2.99,0-5.21-1.06-6.73-2.78c-1.42-1.57-1.92-3.74-1.92-6.32v-10.88h-3.92
	c-1.19,0-2.15-0.96-2.15-2.15l0,0c0-1.19,0.96-2.15,2.15-2.15h3.92v-4.43c0-1.19,0.96-2.15,2.15-2.15h0.51
	c1.19,0,2.15,0.96,2.15,2.15v4.43h5.44c1.19,0,2.15,0.96,2.15,2.15l0,0c0,1.19-0.96,2.15-2.15,2.15h-5.44v11.13
	c0,1.27,0.1,2.33,0.71,3.04c0.66,0.81,2.02,1.27,3.29,1.27c0.24,0,0.53-0.01,0.84-0.03c1.05-0.08,1.99,0.65,2.22,1.68L183.15,126.68
	z M27.07,155.97l5.35,13.32l5.35-13.32c0.31-0.78,1.07-1.29,1.91-1.29h0c1.46,0,2.46,1.48,1.91,2.84l-7.02,17.27
	c-0.32,0.78-1.07,1.29-1.91,1.29h-0.22c-0.84,0-1.6-0.51-1.92-1.3l-5.49-13.72l-5.49,13.72c-0.31,0.78-1.07,1.3-1.92,1.3h-0.22
	c-0.84,0-1.6-0.51-1.91-1.29l-7.02-17.27c-0.55-1.36,0.45-2.84,1.91-2.84h0c0.84,0,1.6,0.51,1.91,1.29l5.35,13.32l5.35-13.32
	c0.31-0.78,1.07-1.29,1.91-1.29h0.21C26,154.67,26.75,155.19,27.07,155.97z M48.95,144.22c1.8-0.16,3.28,1.32,3.12,3.12
	c-0.12,1.33-1.26,2.43-2.59,2.54c-1.81,0.15-3.23-1.27-3.07-3.08C46.52,145.47,47.62,144.33,48.95,144.22z M49.01,154.67h0.46
	c1.07,0,1.93,0.87,1.93,1.93v17.52c0,1.07-0.87,1.93-1.93,1.93h-0.46c-1.07,0-1.93-0.87-1.93-1.93v-17.52
	C47.08,155.54,47.94,154.67,49.01,154.67z M71.91,174.12c0.25,1.12-0.53,2.23-1.67,2.34c-0.42,0.04-0.85,0.06-1.27,0.06
	c-2.69,0-4.69-0.96-6.05-2.5c-1.27-1.41-1.73-3.37-1.73-5.69v-9.79h-3.53c-1.07,0-1.93-0.87-1.93-1.93l0,0
	c0-1.07,0.87-1.93,1.93-1.93h3.53v-3.98c0-1.07,0.87-1.93,1.93-1.93h0.46c1.07,0,1.93,0.87,1.93,1.93v3.98h4.89
	c1.07,0,1.93,0.87,1.93,1.93l0,0c0,1.07-0.87,1.93-1.93,1.93h-4.89v10.01c0,1.14,0.09,2.09,0.64,2.73c0.59,0.73,1.82,1.14,2.96,1.14
	c0.21,0,0.48-0.01,0.76-0.03c0.95-0.07,1.8,0.59,2,1.52L71.91,174.12z M82.58,156.54c1.18-1,3.32-2.32,6.28-2.32
	c3.14,0,5.96,1.46,7.78,3.78c1.36,1.73,2.09,3.92,2.09,7.6v8.53c0,1.07-0.87,1.93-1.93,1.93h-0.46c-1.07,0-1.93-0.87-1.93-1.93
	v-8.76c0-2.73-0.5-4.01-1.27-4.96c-1-1.27-2.64-2.09-4.42-2.09c-2.82,0-4.87,1.5-6.14,3.05v12.77c0,1.07-0.87,1.93-1.93,1.93h-0.46
	c-1.07,0-1.93-0.87-1.93-1.93v-28.45c0-1.07,0.87-1.93,1.93-1.93h0.46c1.07,0,1.93,0.87,1.93,1.93V156.54z M130.62,174.12
	c0.25,1.12-0.53,2.23-1.67,2.34c-0.42,0.04-0.85,0.06-1.27,0.06c-2.68,0-4.69-0.96-6.05-2.5c-1.27-1.41-1.73-3.37-1.73-5.69v-9.79
	h-3.53c-1.07,0-1.93-0.87-1.93-1.93l0,0c0-1.07,0.87-1.93,1.93-1.93h3.53v-3.98c0-1.07,0.87-1.93,1.93-1.93h0.46
	c1.07,0,1.93,0.87,1.93,1.93v3.98h4.89c1.07,0,1.93,0.87,1.93,1.93l0,0c0,1.07-0.87,1.93-1.93,1.93h-4.89v10.01
	c0,1.14,0.09,2.09,0.64,2.73c0.59,0.73,1.82,1.14,2.96,1.14c0.21,0,0.48-0.01,0.76-0.03c0.95-0.07,1.8,0.59,2,1.52L130.62,174.12z
	 M141.3,156.54c1.18-1,3.32-2.32,6.28-2.32c3.14,0,5.96,1.46,7.78,3.78c1.37,1.73,2.09,3.92,2.09,7.6v8.53
	c0,1.07-0.87,1.93-1.93,1.93h-0.46c-1.07,0-1.93-0.87-1.93-1.93v-8.76c0-2.73-0.5-4.01-1.27-4.96c-1-1.27-2.64-2.09-4.41-2.09
	c-2.82,0-4.87,1.5-6.15,3.05v12.77c0,1.07-0.87,1.93-1.93,1.93h-0.46c-1.07,0-1.93-0.87-1.93-1.93v-28.22
	c0-1.19,0.97-2.16,2.16-2.16l0,0c1.19,0,2.16,0.97,2.16,2.16V156.54z M167.1,166.28c0.23,3.6,3.19,6.46,6.92,6.46
	c2.24,0,3.75-0.76,4.88-1.69c0.77-0.63,1.88-0.63,2.61,0.05l0.05,0.05c0.86,0.82,0.77,2.21-0.16,2.95
	c-1.73,1.37-4.22,2.42-7.42,2.42c-6.24,0-11.06-4.73-11.06-11.15c0-6.42,4.37-11.15,10.42-11.15c5.96,0,10.29,4.82,10.29,11.15
	c0,0.37-0.12,0.9-0.79,0.91H167.1z M167.47,162.64h11.65c-0.64-2.73-3.1-4.64-5.64-4.64C170.7,158,168.19,159.86,167.47,162.64z
	 M44.78,263.53l-27.31-25.41v23.27c0,1.62-1.31,2.93-2.93,2.93h-0.34c-1.62,0-2.93-1.31-2.93-2.93v-71.31
	c0-1.62,1.31-2.93,2.93-2.93h0.34c1.62,0,2.93,1.31,2.93,2.93v45.33l24.52-19.99c0.52-0.43,1.18-0.66,1.85-0.66h0
	c2.75,0,3.99,3.45,1.86,5.2l-20.84,17.09l23.97,22.2c1.96,1.81,0.67,5.08-1.99,5.08h-0.07C46.04,264.32,45.32,264.04,44.78,263.53z
	 M68.25,194.93c2.63,0,4.79,2.16,4.79,4.79s-2.16,4.7-4.79,4.7c-2.63,0-4.7-2.07-4.7-4.7S65.62,194.93,68.25,194.93z M68.28,214.75
	L68.28,214.75c1.71,0,3.1,1.39,3.1,3.1v43.37c0,1.71-1.39,3.1-3.1,3.1h0c-1.71,0-3.1-1.39-3.1-3.1v-43.37
	C65.18,216.14,66.57,214.75,68.28,214.75z M96.05,260.73c-6.52-4.57-10.54-12.28-10.54-21.2c0-8.26,3.59-15.54,9.24-20.33
	c4.13-3.37,9.78-5.54,15.76-5.54c6.85,0,13.26,2.72,17.93,7.72v-31.25c0-1.65,1.34-2.99,2.99-2.99h0.22c1.65,0,2.99,1.34,2.99,2.99
	v71.2c0,1.65-1.34,2.99-2.99,2.99l0,0c-1.65,0-2.99-1.34-2.99-2.99v-4.29c-3.69,5-10.11,8.37-17.83,8.37
	C106.16,265.4,100.94,264.21,96.05,260.73z M128.44,229.53c-2.17-3.7-8.7-10-17.83-10c-4.13,0-8.48,1.41-11.96,4.24
	c-4.35,3.59-6.96,9.35-6.96,15.76c0,6.85,3.04,12.94,7.83,16.3c3.15,2.17,6.96,3.7,11.2,3.7c7.28,0,13.8-4.13,17.72-10.87V229.53z
	 M150.16,255.89c0.98-1.23,2.76-1.55,4.06-0.65c3.79,2.63,8.18,4.29,12.8,4.29c6.2,0,11.41-3.48,11.41-8.7
	c0-12.72-28.59-5.76-28.59-22.72c0-9.02,8.48-14.46,16.85-14.46c5.2,0,9.68,1.36,13.16,3.12c1.58,0.8,2.09,2.81,1.14,4.3v0
	c-0.85,1.34-2.61,1.78-3.99,1.01c-3.12-1.73-5.88-2.56-9.97-2.56c-5.22,0-10.98,2.72-10.98,8.48c0,10.98,28.59,5.11,28.59,22.5
	c0,9.24-7.83,14.89-17.17,14.89c-6.82,0-12.52-2.07-16.75-5.06c-1.42-1-1.7-2.99-0.62-4.35L150.16,255.89z M190.29,66.27
	c-1.01-0.64-2.34-0.35-2.98,0.66c-3.7,5.79-10.01,9.25-16.88,9.25s-13.18-3.46-16.88-9.25c-0.01-0.01-0.01-0.02-0.02-0.03
	c-0.05-0.07-0.1-0.13-0.15-0.2c-0.04-0.05-0.08-0.1-0.12-0.14c-0.04-0.04-0.09-0.08-0.14-0.12c-0.06-0.05-0.13-0.11-0.19-0.15
	c-0.01-0.01-0.02-0.01-0.03-0.02c-0.04-0.03-0.08-0.04-0.13-0.06c-0.07-0.04-0.15-0.08-0.22-0.11c-0.06-0.03-0.13-0.04-0.19-0.06
	c-0.07-0.02-0.14-0.04-0.21-0.06c-0.07-0.01-0.14-0.02-0.21-0.03c-0.07-0.01-0.14-0.01-0.21-0.01c-0.07,0-0.14,0.01-0.21,0.01
	c-0.07,0.01-0.14,0.01-0.21,0.03c-0.07,0.01-0.14,0.04-0.21,0.06c-0.06,0.02-0.13,0.04-0.19,0.06c-0.08,0.03-0.15,0.07-0.22,0.11
	c-0.04,0.02-0.09,0.04-0.13,0.06c-0.01,0.01-0.02,0.01-0.03,0.02c-0.07,0.04-0.13,0.1-0.19,0.15c-0.05,0.04-0.1,0.08-0.15,0.12
	c-0.04,0.04-0.08,0.09-0.12,0.14c-0.05,0.06-0.11,0.13-0.16,0.2c-0.01,0.01-0.01,0.02-0.02,0.03c-0.32,0.5-0.67,0.98-1.03,1.45
	c-8.58-22.03-29.78-36.64-53.64-36.64c-23.59,0-44.6,14.3-53.36,35.93c-0.17-0.25-0.35-0.49-0.51-0.75
	c-0.01-0.01-0.01-0.02-0.02-0.03c-0.04-0.07-0.1-0.13-0.15-0.19c-0.04-0.05-0.08-0.1-0.12-0.15c-0.04-0.04-0.09-0.07-0.13-0.11
	c-0.07-0.06-0.13-0.11-0.21-0.16c-0.01-0.01-0.02-0.01-0.02-0.02c-0.04-0.02-0.08-0.04-0.12-0.06c-0.08-0.04-0.15-0.09-0.24-0.12
	c-0.06-0.02-0.12-0.04-0.18-0.06c-0.07-0.02-0.14-0.04-0.21-0.06c-0.07-0.01-0.14-0.02-0.21-0.02c-0.07-0.01-0.14-0.01-0.21-0.01
	c-0.07,0-0.14,0.01-0.21,0.01c-0.07,0.01-0.14,0.01-0.21,0.02c-0.07,0.01-0.14,0.04-0.21,0.06c-0.06,0.02-0.12,0.04-0.19,0.06
	c-0.08,0.03-0.15,0.07-0.23,0.11c-0.04,0.02-0.09,0.04-0.13,0.06c-0.01,0.01-0.02,0.01-0.03,0.02c-0.07,0.04-0.13,0.1-0.19,0.15
	c-0.05,0.04-0.1,0.08-0.14,0.12c-0.04,0.04-0.08,0.09-0.12,0.14c-0.05,0.06-0.11,0.13-0.16,0.2c-0.01,0.01-0.01,0.02-0.02,0.03
	c-3.7,5.79-10.01,9.25-16.88,9.25c-6.87,0-13.18-3.46-16.88-9.25c-0.64-1-1.97-1.3-2.98-0.66c-1,0.64-1.3,1.98-0.66,2.98
	C4.83,76.3,12.5,80.5,20.86,80.5c7.31,0,14.11-3.22,18.7-8.75c4.59,5.53,11.38,8.75,18.7,8.75h0c7.31,0,14.1-3.22,18.7-8.75
	c4.48,5.4,11.06,8.59,18.17,8.74c0.04,0,0.08,0.01,0.12,0.01c0.02,0,0.04-0.01,0.06-0.01c0.11,0,0.22,0.01,0.34,0.01
	c7.31,0,14.1-3.22,18.7-8.75c4.59,5.53,11.38,8.75,18.7,8.75c7.31,0,14.1-3.22,18.7-8.75c4.59,5.53,11.38,8.75,18.7,8.75
	c8.35,0,16.02-4.2,20.52-11.25C191.59,68.25,191.3,66.91,190.29,66.27z M58.25,76.18c-4.91,0-9.53-1.78-13.12-4.9
	c2.61-7.26,6.68-13.68,11.82-19l16.68,16.69C69.86,73.53,64.27,76.18,58.25,76.18z M78.77,66.93c-0.45-0.71-1.25-1.06-2.04-0.98
	L60.08,49.31c8.98-7.88,20.54-12.7,33-13.2v39.91C87.23,75.27,82,72,78.77,66.93z M97.4,76.1V36.11c12.46,0.5,24.03,5.31,33,13.19
	l-16.75,16.75c-0.04,0.01-0.09,0.03-0.13,0.04c-0.08,0.03-0.15,0.07-0.23,0.11c-0.04,0.02-0.08,0.04-0.12,0.06
	c-0.01,0.01-0.02,0.01-0.03,0.02c-0.07,0.04-0.13,0.1-0.19,0.15c-0.05,0.04-0.1,0.08-0.14,0.12c-0.04,0.04-0.08,0.09-0.12,0.14
	c-0.05,0.06-0.11,0.13-0.15,0.2c-0.01,0.01-0.01,0.02-0.02,0.03C109.14,72.23,103.58,75.56,97.4,76.1z M117.3,68.52l16.24-16.24
	c5.26,5.44,9.41,12.05,12.01,19.52c-3.49,2.8-7.87,4.38-12.5,4.38C126.82,76.18,121.08,73.35,117.3,68.52z M64.26,10.49
	c1.03,2.68,7.3,8.5,9.2,10.23c0.4,0.37,0.92,0.56,1.45,0.56c0.26,0,0.52-0.05,0.78-0.14c0.76-0.29,1.29-0.99,1.37-1.8
	c0.25-2.55,1-11.07-0.04-13.75c-1.36-3.52-5.32-5.28-8.84-3.92c-1.7,0.66-3.05,1.94-3.79,3.61C63.65,6.92,63.61,8.78,64.26,10.49
	L64.26,10.49z M68.34,7.01c0.27-0.61,0.77-1.09,1.4-1.33C71.03,5.18,72.5,5.83,73,7.12c0.31,0.81,0.3,3.9,0.11,7.3
	c-2.43-2.4-4.5-4.69-4.82-5.49C68.05,8.3,68.07,7.62,68.34,7.01z M33.12,10.57c1.57,2.41,8.91,6.8,11.12,8.09
	c0.34,0.2,0.71,0.29,1.09,0.29c0.41,0,0.82-0.12,1.18-0.35c0.68-0.45,1.06-1.24,0.97-2.05c-0.28-2.55-1.32-11.04-2.89-13.45
	c-1-1.53-2.53-2.58-4.32-2.96c-1.78-0.38-3.61-0.04-5.15,0.96C31.96,3.16,31.06,7.41,33.12,10.57L33.12,10.57z M37.47,4.73
	c0.57-0.37,1.24-0.49,1.89-0.35c0.66,0.14,1.22,0.53,1.59,1.09c0.47,0.73,1.11,3.75,1.63,7.12c-2.87-1.84-5.38-3.65-5.85-4.37
	C35.98,7.05,36.31,5.49,37.47,4.73z M104.53,26.78c0.14,0.03,0.28,0.04,0.41,0.04c0.66,0,1.29-0.3,1.71-0.84
	c1.57-2.03,6.72-8.85,7.27-11.68c0.35-1.79-0.02-3.61-1.04-5.13c-1.02-1.51-2.57-2.54-4.37-2.89c-1.79-0.35-3.61,0.02-5.13,1.04
	c-1.51,1.02-2.54,2.57-2.89,4.37c-0.55,2.82,1.68,11.08,2.37,13.55C103.08,26.03,103.73,26.62,104.53,26.78z M104.73,12.52
	c0.13-0.66,0.51-1.23,1.06-1.61c0.56-0.38,1.23-0.51,1.89-0.38c0.66,0.13,1.23,0.51,1.61,1.06c0.38,0.56,0.51,1.23,0.39,1.89
	c-0.17,0.85-1.81,3.46-3.78,6.25C105.11,16.41,104.57,13.37,104.73,12.52z M25.67,51.41c0.85,0.3,2.25,0.41,3.87,0.41
	c3.56,0,8.13-0.53,9.88-0.76c0.81-0.1,1.49-0.65,1.76-1.42c0.27-0.77,0.09-1.63-0.48-2.21c-1.77-1.85-7.77-7.95-10.48-8.91h0
	c-3.55-1.25-7.47,0.61-8.73,4.17C20.24,46.24,22.11,50.15,25.67,51.41z M25.57,44.12c0.36-1.03,1.34-1.68,2.38-1.68
	c0.28,0,0.56,0.05,0.84,0.14c0.82,0.29,3.16,2.3,5.62,4.66c-3.4,0.29-6.49,0.38-7.3,0.09C25.8,46.87,25.11,45.43,25.57,44.12z
	 M136.28,20.25c0.35,0.22,0.74,0.33,1.14,0.33c0.39,0,0.78-0.11,1.12-0.32c2.19-1.33,9.44-5.88,10.95-8.32v0
	c0.96-1.55,1.27-3.38,0.85-5.16c-0.41-1.78-1.5-3.29-3.05-4.25c-3.2-1.99-7.42-1.01-9.42,2.2c-1.52,2.44-2.39,10.95-2.62,13.5
	C135.19,19.04,135.58,19.82,136.28,20.25z M141.55,7c0.48-0.77,1.3-1.19,2.14-1.19c0.45,0,0.91,0.12,1.33,0.38
	c0.57,0.36,0.97,0.91,1.12,1.57c0.15,0.65,0.04,1.33-0.31,1.9c-0.46,0.73-2.93,2.59-5.76,4.49C140.52,10.77,141.09,7.74,141.55,7z
	 M154.8,53.37c0.18,0,0.36-0.02,0.53-0.07c2.48-0.63,10.75-2.84,12.91-4.73c1.38-1.2,2.21-2.86,2.33-4.68
	c0.13-1.82-0.46-3.58-1.66-4.96c-1.2-1.38-2.86-2.21-4.68-2.33c-1.82-0.12-3.58,0.46-4.96,1.66c-2.17,1.89-5.5,9.77-6.47,12.14
	c-0.31,0.75-0.17,1.62,0.37,2.23C153.59,53.1,154.19,53.37,154.8,53.37z M162.11,41.51c0.51-0.44,1.16-0.66,1.83-0.61
	c0.67,0.05,1.29,0.35,1.73,0.86c0.91,1.05,0.8,2.64-0.25,3.55c-0.65,0.57-3.56,1.62-6.83,2.6
	C160.01,44.82,161.46,42.08,162.11,41.51z"/>
</svg>
