<?xml version="1.0" encoding="utf-8"?>
<!-- Generator: Adobe Illustrator 23.0.6, SVG Export Plug-In . SVG Version: 6.00 Build 0)  -->
<svg version="1.1" id="Layer_1" xmlns="http://www.w3.org/2000/svg" xmlns:xlink="http://www.w3.org/1999/xlink" x="0px" y="0px"
	 viewBox="0 0 108.35 101.34" style="enable-background:new 0 0 108.35 101.34;" xml:space="preserve">
<style type="text/css">
	.st0{fill:#FDCE74;}
	.st1{fill:#8574B3;}
	.st2{fill:#FFFFFF;}
	.st3{fill:none;stroke:#FFFFFF;stroke-width:4.0959;stroke-linecap:round;stroke-linejoin:round;stroke-miterlimit:10;}
</style>
<g>
	<g>
		<g>
			<path class="st1" d="M32.03,101.34c-0.88,0-1.7-0.58-1.96-1.47c-1.55-5.23-2.22-10.68-2-16.18c1.12-27.51,24.4-49.03,51.92-47.87
				c9.98,0.4,19.5,3.74,27.52,9.63c0.91,0.67,1.11,1.95,0.44,2.86c-0.67,0.91-1.95,1.11-2.86,0.44c-7.36-5.41-16.1-8.47-25.26-8.84
				c-25.26-1-46.63,18.69-47.66,43.94c-0.21,5.05,0.41,10.05,1.83,14.86c0.32,1.08-0.3,2.22-1.38,2.54
				C32.42,101.31,32.22,101.34,32.03,101.34z"/>
		</g>
		<g>
			<g>
				<path class="st1" d="M85.22,33.18c-0.8,0-1.55-0.47-1.88-1.25l-2.32-5.45c-1.39-3.26-1.43-7.02-0.1-10.31l2.3-5.7
					c0.2-1.9-0.15-3.38-1.06-4.41c-1.68-1.91-4.81-1.97-4.84-1.97c-0.02,0-3.18,0.05-4.85,1.98c-0.9,1.03-1.25,2.51-1.04,4.4
					l2.3,5.7c1.33,3.29,1.3,7.05-0.1,10.31l-2.32,5.45c-0.44,1.04-1.65,1.52-2.69,1.08c-1.04-0.44-1.52-1.65-1.08-2.69l2.32-5.45
					c0.97-2.27,0.99-4.88,0.07-7.17l-2.41-5.95c-0.07-0.16-0.11-0.33-0.13-0.5c-0.42-3.24,0.26-5.9,2.01-7.89
					C72.33,0.04,77.12,0,77.33,0s5,0.04,7.92,3.36c1.76,2,2.43,4.66,2.01,7.89c-0.02,0.17-0.07,0.34-0.13,0.5l-2.41,5.95
					c-0.92,2.29-0.9,4.9,0.07,7.17l2.32,5.45c0.44,1.04-0.04,2.24-1.08,2.69C85.76,33.13,85.49,33.18,85.22,33.18z"/>
			</g>
			<g>
				<path class="st1" d="M34.33,56.03c-1.02,0-1.91-0.76-2.03-1.8c-0.19-1.55-0.27-3.05-0.24-4.48c0.19-9.73,4.42-19.08,4.6-19.47
					l2.3-5.4c0.97-2.27,0.99-4.88,0.07-7.17l-2.41-5.95c-0.07-0.16-0.11-0.33-0.13-0.5c-0.42-3.24,0.26-5.9,2.01-7.89
					C41.42,0.04,46.22,0,46.42,0s5,0.04,7.92,3.36c1.76,2,2.43,4.66,2.01,7.89c-0.02,0.17-0.07,0.34-0.13,0.5l-2.41,5.95
					c-0.92,2.29-0.9,4.9,0.07,7.17l2.32,5.45c0.01,0.02,0.7,1.53,1.53,3.94c0.37,1.07-0.19,2.24-1.26,2.61
					c-1.07,0.37-2.24-0.2-2.61-1.26c-0.77-2.22-1.41-3.62-1.41-3.63l-2.35-5.5c-1.39-3.26-1.43-7.02-0.1-10.31l2.3-5.7
					c0.2-1.89-0.15-3.37-1.04-4.4C49.6,4.15,46.45,4.1,46.41,4.1c-0.01,0-3.17,0.05-4.84,1.98c-0.9,1.03-1.25,2.51-1.04,4.4l2.3,5.7
					c1.33,3.29,1.29,7.05-0.1,10.31l-2.32,5.45c-0.06,0.14-4.07,9.04-4.25,17.9c-0.02,1.23,0.05,2.55,0.21,3.91
					c0.13,1.12-0.67,2.14-1.79,2.28C34.5,56.03,34.42,56.03,34.33,56.03z"/>
			</g>
			<g>
				<path class="st1" d="M14.28,71.32c-1.19,0-2.31-0.07-3.25-0.19c-3.03-0.38-6.9-1.45-8.08-4.42c-1.8-4.54-2.68-12.18-2.72-12.5
					c-0.18-1.54-0.26-3.05-0.24-4.46c0.19-9.73,4.42-19.08,4.6-19.47l2.3-5.4c0.97-2.27,0.99-4.88,0.07-7.17l-2.41-5.95
					c-0.07-0.16-0.11-0.33-0.13-0.5c-0.42-3.24,0.26-5.9,2.01-7.89C9.36,0.04,14.16,0,14.36,0s5,0.04,7.92,3.36
					c1.76,2,2.43,4.66,2.01,7.89c-0.02,0.17-0.07,0.34-0.13,0.5l-2.41,5.95c-0.92,2.29-0.9,4.9,0.07,7.17l2.29,5.37
					c0.22,0.41,0.96,1.9,1.6,4.13c0.97,3.35,3.06,11.96,1.64,19.75c-0.24,2.04-1.42,11.44-3.55,14.38
					C22.27,70.64,17.96,71.32,14.28,71.32z M8.47,10.47l2.3,5.7c1.33,3.29,1.3,7.05-0.1,10.31l-2.32,5.45
					c-0.06,0.14-4.07,9.03-4.25,17.9c-0.02,1.23,0.05,2.54,0.21,3.91c0.01,0.08,0.86,7.43,2.46,11.46c0.15,0.38,1.05,1.16,3.44,1.65
					c4.5,0.92,9.51,0.02,10.3-0.78c1.1-1.52,2.29-8.22,2.78-12.48c0.01-0.05,0.01-0.09,0.02-0.14c1.32-7.15-0.84-15.54-1.54-17.94
					c-0.61-2.1-1.3-3.38-1.31-3.39c-0.03-0.06-0.07-0.13-0.09-0.19l-2.32-5.45c-1.39-3.27-1.43-7.02-0.1-10.31l2.3-5.7
					c0.2-1.9-0.15-3.38-1.06-4.41c-1.68-1.91-4.81-1.97-4.84-1.97c-0.02,0-3.18,0.05-4.85,1.98C8.62,7.11,8.27,8.58,8.47,10.47z"/>
			</g>
			<g>
				<path class="st1" d="M55.55,71.46c-0.64,0-1.28-0.11-1.92-0.33c-1.46-0.51-2.63-1.56-3.3-2.96c-0.67-1.4-0.75-2.97-0.24-4.43
					c1.06-3.01,4.38-4.6,7.39-3.54c1.46,0.51,2.63,1.56,3.3,2.96c0.67,1.4,0.75,2.97,0.24,4.43C60.18,69.97,57.94,71.46,55.55,71.46
					z M55.56,63.97c-0.7,0-1.36,0.44-1.6,1.13c-0.15,0.43-0.13,0.89,0.07,1.3s0.54,0.72,0.97,0.87c0.43,0.15,0.89,0.13,1.3-0.07
					c0.41-0.2,0.72-0.54,0.87-0.97c0,0,0,0,0,0c0.15-0.43,0.13-0.89-0.07-1.3c-0.2-0.41-0.54-0.72-0.97-0.87
					C55.93,64,55.74,63.97,55.56,63.97z"/>
			</g>
			<g>
				<path class="st1" d="M71.02,59.62c-0.65,0-1.3-0.11-1.93-0.33c-1.46-0.51-2.63-1.56-3.3-2.96c-0.67-1.4-0.75-2.97-0.24-4.43
					c1.06-3.01,4.38-4.61,7.39-3.54c3.01,1.06,4.6,4.38,3.54,7.39l0,0c-0.51,1.46-1.57,2.63-2.96,3.3
					C72.73,59.43,71.88,59.62,71.02,59.62z M71.02,52.12c-0.7,0-1.36,0.44-1.6,1.14c-0.15,0.43-0.13,0.89,0.07,1.3
					c0.2,0.41,0.54,0.72,0.97,0.87c0.43,0.15,0.89,0.13,1.3-0.07c0.41-0.2,0.72-0.54,0.87-0.97h0c0.31-0.88-0.16-1.86-1.04-2.17
					C71.4,52.15,71.21,52.12,71.02,52.12z"/>
			</g>
			<g>
				<path class="st1" d="M75.9,79.05c-0.64,0-1.28-0.11-1.92-0.33c-3.01-1.06-4.6-4.38-3.54-7.39c1.06-3.01,4.38-4.6,7.39-3.54
					c1.46,0.51,2.63,1.56,3.3,2.96c0.67,1.4,0.75,2.97,0.24,4.43C80.53,77.56,78.29,79.05,75.9,79.05z M75.9,71.56
					c-0.7,0-1.36,0.44-1.6,1.13c-0.31,0.88,0.16,1.86,1.04,2.17c0.43,0.15,0.89,0.12,1.3-0.07c0.41-0.2,0.72-0.54,0.87-0.97
					c0,0,0,0,0,0c0.15-0.43,0.13-0.89-0.07-1.3c-0.2-0.41-0.54-0.72-0.97-0.87C76.28,71.59,76.09,71.56,75.9,71.56z"/>
			</g>
		</g>
	</g>
</g>
</svg>
