<?xml version="1.0" encoding="utf-8"?>
<!-- Generator: Adobe Illustrator 23.0.6, SVG Export Plug-In . SVG Version: 6.00 Build 0)  -->
<svg version="1.1" id="Layer_1" xmlns="http://www.w3.org/2000/svg" xmlns:xlink="http://www.w3.org/1999/xlink" x="0px" y="0px"
	 viewBox="0 0 190.44 270.19" style="enable-background:new 0 0 190.44 270.19;" xml:space="preserve">
<style type="text/css">
	.st0{fill:#B43176;}
</style>
<path class="st0" d="M26.63,131.46c-1.92,1.72-4.5,2.68-7.34,2.68c-2.12,0-4.35-0.61-5.97-1.57c-3.59-2.12-6.07-6.07-6.07-10.82
	c0-4.76,2.53-8.75,6.12-10.88c1.62-0.96,3.59-1.52,5.82-1.52c2.58,0,5.16,0.81,7.28,2.58V99.89c0-1.2,0.97-2.17,2.17-2.17h0.46
	c1.2,0,2.17,0.97,2.17,2.17v31.57c0,1.2-0.97,2.17-2.17,2.17h-0.3C27.6,133.63,26.63,132.66,26.63,131.46L26.63,131.46z
	 M26.48,117.29c-1.47-1.92-3.9-3.39-6.78-3.39c-4.6,0-7.64,3.69-7.64,7.84c0,4.25,3.29,7.84,7.89,7.84c2.43,0,4.91-1.21,6.53-3.39
	V117.29z M57.23,131.46c-1.92,1.72-4.5,2.68-7.34,2.68c-2.12,0-4.35-0.61-5.97-1.57c-3.59-2.12-6.07-6.07-6.07-10.82
	c0-4.76,2.53-8.75,6.12-10.88c1.62-0.96,3.59-1.52,5.82-1.52c2.68,0,5.26,0.81,7.44,2.68v0c0-1.2,0.97-2.17,2.17-2.17h0.3
	c1.2,0,2.17,0.97,2.17,2.17v19.43c0,1.2-0.97,2.17-2.17,2.17h-0.3C58.21,133.63,57.23,132.66,57.23,131.46L57.23,131.46z
	 M57.08,117.29c-1.47-1.92-3.9-3.39-6.78-3.39c-4.6,0-7.64,3.69-7.64,7.84c0,4.25,3.29,7.84,7.89,7.84c2.43,0,4.91-1.21,6.53-3.39
	V117.29z M71.86,142.52l5-11.37l-8.58-17.98c-0.73-1.54,0.39-3.32,2.09-3.32h0.02c0.9,0,1.71,0.52,2.1,1.33l6.81,14.36l6.22-14.29
	c0.37-0.85,1.2-1.39,2.13-1.39h0c1.67,0,2.79,1.71,2.13,3.24l-13.61,31.28c-0.37,0.85-1.2,1.39-2.13,1.39h-0.04
	C72.31,145.77,71.19,144.05,71.86,142.52z M119.65,109.35c7.03,0,12.29,5.31,12.29,12.39s-5.26,12.39-12.29,12.39
	s-12.29-5.31-12.29-12.39S112.62,109.35,119.65,109.35z M119.65,129.59c4.4,0,7.49-3.49,7.49-7.84c0-4.35-3.09-7.84-7.49-7.84
	c-4.4,0-7.49,3.49-7.49,7.84C112.17,126.09,115.25,129.59,119.65,129.59z M140.19,130.14c-1.47-1.82-2.18-4.15-2.18-8.14v-9.99
	c0-1.19,0.96-2.15,2.15-2.15h0.51c1.19,0,2.15,0.96,2.15,2.15v10.75c0,2.43,0.51,3.74,1.37,4.75c1.06,1.27,2.78,2.07,4.6,2.07
	c2.93,0,5.31-1.77,6.68-3.39v-14.19c0-1.19,0.96-2.15,2.15-2.15h0.51c1.19,0,2.15,0.96,2.15,2.15v19.48c0,1.19-0.96,2.15-2.15,2.15
	h-0.35c-1.19,0-2.15-0.96-2.15-2.15v-0.02c-1.06,1.01-3.69,2.68-6.98,2.68C145.25,134.14,142.16,132.62,140.19,130.14z
	 M183.06,131.47c0.28,1.25-0.59,2.48-1.86,2.6c-0.46,0.04-0.94,0.07-1.41,0.07c-2.99,0-5.21-1.06-6.73-2.78
	c-1.42-1.57-1.92-3.74-1.92-6.32v-10.88h-3.92c-1.19,0-2.15-0.96-2.15-2.15v0c0-1.19,0.96-2.15,2.15-2.15h3.92v-4.43
	c0-1.19,0.96-2.15,2.15-2.15h0.51c1.19,0,2.15,0.96,2.15,2.15v4.43h5.44c1.19,0,2.15,0.96,2.15,2.15v0c0,1.19-0.96,2.15-2.15,2.15
	h-5.44v11.13c0,1.27,0.1,2.33,0.71,3.04c0.66,0.81,2.02,1.27,3.29,1.27c0.24,0,0.53-0.01,0.84-0.03c1.05-0.08,1.99,0.65,2.22,1.68
	L183.06,131.47z M26.98,160.76l5.35,13.32l5.35-13.32c0.31-0.78,1.07-1.29,1.91-1.29h0c1.46,0,2.46,1.48,1.91,2.84l-7.02,17.27
	c-0.32,0.78-1.07,1.29-1.91,1.29h-0.22c-0.84,0-1.6-0.51-1.92-1.3l-5.49-13.72l-5.49,13.72c-0.31,0.78-1.07,1.3-1.92,1.3h-0.22
	c-0.84,0-1.6-0.51-1.91-1.29L8.41,162.3c-0.55-1.36,0.45-2.84,1.91-2.84h0c0.84,0,1.6,0.51,1.91,1.29l5.35,13.32l5.35-13.32
	c0.31-0.78,1.07-1.29,1.91-1.29h0.21C25.91,159.46,26.67,159.98,26.98,160.76z M48.87,149.01c1.8-0.16,3.28,1.32,3.12,3.12
	c-0.12,1.33-1.26,2.43-2.59,2.54c-1.81,0.15-3.23-1.27-3.07-3.08C46.43,150.26,47.53,149.12,48.87,149.01z M48.93,159.46h0.46
	c1.07,0,1.93,0.87,1.93,1.93v17.52c0,1.07-0.87,1.93-1.93,1.93h-0.46c-1.07,0-1.93-0.87-1.93-1.93V161.4
	C46.99,160.33,47.86,159.46,48.93,159.46z M71.82,178.91c0.25,1.12-0.53,2.23-1.67,2.34c-0.42,0.04-0.85,0.06-1.27,0.06
	c-2.69,0-4.69-0.96-6.05-2.5c-1.27-1.41-1.73-3.37-1.73-5.69v-9.79h-3.53c-1.07,0-1.93-0.87-1.93-1.93v0c0-1.07,0.87-1.93,1.93-1.93
	h3.53v-3.98c0-1.07,0.87-1.93,1.93-1.93h0.46c1.07,0,1.93,0.87,1.93,1.93v3.98h4.89c1.07,0,1.93,0.87,1.93,1.93v0
	c0,1.07-0.87,1.93-1.93,1.93h-4.89v10.01c0,1.14,0.09,2.09,0.64,2.73c0.59,0.73,1.82,1.14,2.96,1.14c0.21,0,0.48-0.01,0.76-0.03
	c0.95-0.07,1.8,0.59,2,1.52L71.82,178.91z M82.49,161.33c1.18-1,3.32-2.32,6.28-2.32c3.14,0,5.96,1.46,7.78,3.78
	c1.36,1.73,2.09,3.92,2.09,7.6v8.53c0,1.07-0.87,1.93-1.93,1.93h-0.46c-1.07,0-1.93-0.87-1.93-1.93v-8.76c0-2.73-0.5-4.01-1.27-4.96
	c-1-1.27-2.64-2.09-4.42-2.09c-2.82,0-4.87,1.5-6.14,3.05v12.77c0,1.07-0.87,1.93-1.93,1.93H80.1c-1.07,0-1.93-0.87-1.93-1.93
	v-28.45c0-1.07,0.87-1.93,1.93-1.93h0.46c1.07,0,1.93,0.87,1.93,1.93V161.33z M130.54,178.91c0.25,1.12-0.53,2.23-1.67,2.34
	c-0.42,0.04-0.85,0.06-1.27,0.06c-2.68,0-4.69-0.96-6.05-2.5c-1.27-1.41-1.73-3.37-1.73-5.69v-9.79h-3.53
	c-1.07,0-1.93-0.87-1.93-1.93v0c0-1.07,0.87-1.93,1.93-1.93h3.53v-3.98c0-1.07,0.87-1.93,1.93-1.93h0.46c1.07,0,1.93,0.87,1.93,1.93
	v3.98h4.89c1.07,0,1.93,0.87,1.93,1.93v0c0,1.07-0.87,1.93-1.93,1.93h-4.89v10.01c0,1.14,0.09,2.09,0.64,2.73
	c0.59,0.73,1.82,1.14,2.96,1.14c0.21,0,0.48-0.01,0.76-0.03c0.95-0.07,1.8,0.59,2,1.52L130.54,178.91z M141.21,161.33
	c1.18-1,3.32-2.32,6.28-2.32c3.14,0,5.96,1.46,7.78,3.78c1.37,1.73,2.09,3.92,2.09,7.6v8.53c0,1.07-0.87,1.93-1.93,1.93h-0.46
	c-1.07,0-1.93-0.87-1.93-1.93v-8.76c0-2.73-0.5-4.01-1.27-4.96c-1-1.27-2.64-2.09-4.41-2.09c-2.82,0-4.87,1.5-6.15,3.05v12.77
	c0,1.07-0.87,1.93-1.93,1.93h-0.46c-1.07,0-1.93-0.87-1.93-1.93V150.7c0-1.19,0.97-2.16,2.16-2.16l0,0c1.19,0,2.16,0.97,2.16,2.16
	V161.33z M167.02,171.07c0.23,3.6,3.19,6.46,6.92,6.46c2.24,0,3.75-0.76,4.88-1.69c0.77-0.63,1.88-0.63,2.61,0.05l0.05,0.05
	c0.86,0.82,0.77,2.21-0.16,2.95c-1.73,1.37-4.22,2.42-7.42,2.42c-6.24,0-11.06-4.73-11.06-11.15c0-6.42,4.37-11.15,10.42-11.15
	c5.96,0,10.29,4.82,10.29,11.15c0,0.37-0.12,0.9-0.79,0.91H167.02z M167.38,167.43h11.65c-0.64-2.73-3.1-4.64-5.64-4.64
	C170.61,162.79,168.11,164.65,167.38,167.43z M44.7,268.32l-27.31-25.41v23.27c0,1.62-1.31,2.93-2.93,2.93h-0.34
	c-1.62,0-2.93-1.31-2.93-2.93v-71.31c0-1.62,1.31-2.93,2.93-2.93h0.34c1.62,0,2.93,1.31,2.93,2.93v45.33l24.52-19.99
	c0.52-0.43,1.18-0.66,1.85-0.66h0c2.75,0,3.99,3.45,1.86,5.2l-20.84,17.09l23.97,22.2c1.96,1.81,0.67,5.08-1.99,5.08h-0.07
	C45.95,269.11,45.24,268.83,44.7,268.32z M68.16,199.72c2.63,0,4.79,2.16,4.79,4.79c0,2.63-2.16,4.7-4.79,4.7
	c-2.63,0-4.7-2.07-4.7-4.7C63.46,201.88,65.53,199.72,68.16,199.72z M68.2,219.54L68.2,219.54c1.71,0,3.1,1.39,3.1,3.1v43.37
	c0,1.71-1.39,3.1-3.1,3.1l0,0c-1.71,0-3.1-1.39-3.1-3.1v-43.37C65.1,220.93,66.49,219.54,68.2,219.54z M95.97,265.52
	c-6.52-4.57-10.54-12.28-10.54-21.2c0-8.26,3.59-15.54,9.24-20.33c4.13-3.37,9.78-5.54,15.76-5.54c6.85,0,13.26,2.72,17.93,7.72
	v-31.25c0-1.65,1.34-2.99,2.99-2.99h0.22c1.65,0,2.99,1.34,2.99,2.99v71.2c0,1.65-1.34,2.99-2.99,2.99h0
	c-1.65,0-2.99-1.34-2.99-2.99v-4.29c-3.69,5-10.11,8.37-17.83,8.37C106.07,270.19,100.86,269,95.97,265.52z M128.36,234.32
	c-2.17-3.7-8.7-10-17.83-10c-4.13,0-8.48,1.41-11.96,4.24c-4.35,3.59-6.96,9.35-6.96,15.76c0,6.85,3.04,12.94,7.83,16.3
	c3.15,2.17,6.96,3.7,11.2,3.7c7.28,0,13.8-4.13,17.72-10.87V234.32z M150.08,260.68c0.98-1.23,2.76-1.55,4.06-0.65
	c3.79,2.63,8.18,4.29,12.8,4.29c6.2,0,11.41-3.48,11.41-8.7c0-12.72-28.59-5.76-28.59-22.72c0-9.02,8.48-14.46,16.85-14.46
	c5.2,0,9.68,1.36,13.16,3.12c1.58,0.8,2.09,2.81,1.14,4.3l0,0c-0.85,1.34-2.61,1.78-3.99,1.01c-3.12-1.73-5.88-2.56-9.97-2.56
	c-5.22,0-10.98,2.72-10.98,8.48c0,10.98,28.59,5.11,28.59,22.5c0,9.24-7.83,14.89-17.17,14.89c-6.82,0-12.52-2.07-16.75-5.06
	c-1.42-1-1.7-2.99-0.62-4.35L150.08,260.68z M188.28,79.89h-37.24c-6.48-25.6-29.2-43.35-55.79-43.35
	c-26.19,0-49.37,18.13-55.79,43.35H2.16C0.97,79.89,0,80.85,0,82.05c0,1.19,0.97,2.16,2.16,2.16h38.83c0.05,0,0.1,0.02,0.15,0.02
	c0.99,0,1.88-0.69,2.11-1.69c2.17-9.79,7.06-18.5,13.76-25.39v24.9c0,1.19,0.97,2.16,2.16,2.16c1.19,0,2.16-0.97,2.16-2.16V53.17
	c4.12-3.41,8.74-6.21,13.71-8.27v37.14c0,1.19,0.97,2.16,2.16,2.16c1.19,0,2.16-0.97,2.16-2.16V43.32
	c4.38-1.39,8.98-2.22,13.71-2.42v41.14c0,1.19,0.97,2.16,2.16,2.16c1.19,0,2.16-0.97,2.16-2.16V40.9c4.72,0.19,9.32,1.02,13.71,2.41
	v38.73c0,1.19,0.97,2.16,2.16,2.16c1.19,0,2.16-0.97,2.16-2.16V44.89c4.97,2.06,9.59,4.85,13.71,8.25v28.92
	c0,1.19,0.97,2.16,2.16,2.16c1.19,0,2.16-0.97,2.16-2.16V57.11c6.64,6.81,11.5,15.39,13.72,25.05c0.06,1.14,0.99,2.05,2.15,2.05
	h38.98c1.19,0,2.16-0.97,2.16-2.16C190.44,80.85,189.47,79.89,188.28,79.89z M82.06,33.14h26.32c1.19,0,2.16-0.97,2.16-2.16V15.79
	c0-1.19-0.97-2.16-2.16-2.16H82.06c-1.19,0-2.16,0.97-2.16,2.16v15.19C79.9,32.17,80.87,33.14,82.06,33.14z M84.22,17.94h22v10.88
	h-22V17.94z M88.59,11.56c3.19,0,5.78-2.59,5.78-5.78c0-3.19-2.59-5.78-5.78-5.78s-5.78,2.59-5.78,5.78
	C82.81,8.97,85.41,11.56,88.59,11.56z M88.59,4.32c0.81,0,1.46,0.66,1.46,1.46c0,0.81-0.66,1.46-1.46,1.46
	c-0.81,0-1.46-0.66-1.46-1.46C87.13,4.98,87.79,4.32,88.59,4.32z M102.07,11.56c3.19,0,5.78-2.59,5.78-5.78
	c0-3.19-2.6-5.78-5.78-5.78s-5.78,2.59-5.78,5.78C96.29,8.97,98.88,11.56,102.07,11.56z M102.07,4.32c0.81,0,1.46,0.66,1.46,1.46
	c0,0.81-0.66,1.46-1.46,1.46c-0.81,0-1.46-0.66-1.46-1.46C100.6,4.98,101.26,4.32,102.07,4.32z M119.57,35.34l28.29,22.72
	c0.4,0.32,0.88,0.48,1.35,0.48c0.63,0,1.26-0.28,1.68-0.81c5.99-7.46,4.79-18.41-2.67-24.4l-16.45-13.2
	c-0.45-0.36-1.01-0.52-1.59-0.46c-0.57,0.06-1.09,0.35-1.45,0.8l-9.51,11.85c-0.36,0.45-0.53,1.02-0.46,1.59
	C118.84,34.46,119.12,34.98,119.57,35.34z M130.77,24.84l14.76,11.85c5.03,4.04,6.27,11.08,3.22,16.53l-24.79-19.9L130.77,24.84z
	 M136.98,21.65c1.07,0.86,2.34,1.27,3.61,1.27c1.69,0,3.37-0.74,4.51-2.16c2-2.49,1.6-6.13-0.89-8.13c-1.2-0.97-2.71-1.4-4.25-1.24
	c-1.54,0.17-2.91,0.92-3.88,2.13c-0.97,1.2-1.41,2.71-1.24,4.25C135.02,19.3,135.77,20.68,136.98,21.65z M139.46,16.22
	c0.24-0.3,0.59-0.5,0.98-0.54c0.06-0.01,0.11-0.01,0.16-0.01c0.33,0,0.65,0.11,0.91,0.32c0.63,0.51,0.73,1.43,0.22,2.06
	c-0.51,0.63-1.43,0.73-2.06,0.22c-0.3-0.24-0.5-0.59-0.54-0.98C139.1,16.91,139.21,16.53,139.46,16.22z M147.48,30.08
	c1.07,0.86,2.34,1.27,3.61,1.27c1.69,0,3.37-0.74,4.51-2.16c2-2.49,1.6-6.13-0.89-8.13c-2.49-2-6.13-1.6-8.13,0.89
	C144.6,24.44,145,28.09,147.48,30.08z M149.96,24.66c0.24-0.31,0.59-0.5,0.98-0.54c0.05-0.01,0.11-0.01,0.16-0.01
	c0.33,0,0.65,0.11,0.91,0.32c0.63,0.51,0.73,1.43,0.23,2.06c-0.51,0.63-1.43,0.73-2.06,0.22C149.56,26.21,149.46,25.29,149.96,24.66
	z M35.97,38.62c-0.07,0.57,0.09,1.14,0.44,1.59l9.32,12c0.43,0.55,1.06,0.83,1.71,0.83c0.46,0,0.93-0.15,1.32-0.45l20.79-16.14
	c0.45-0.35,0.75-0.87,0.82-1.44c0.07-0.57-0.09-1.14-0.44-1.59l-9.32-12c-0.73-0.94-2.09-1.11-3.03-0.38L36.79,37.18
	C36.34,37.53,36.04,38.05,35.97,38.62z M58.52,25.78l6.67,8.59L47.81,47.86l-6.67-8.59L58.52,25.78z M36.42,32.72
	c0.25,0.03,0.49,0.05,0.73,0.05c1.28,0,2.51-0.42,3.54-1.22c1.22-0.95,2-2.31,2.19-3.85c0.19-1.53-0.22-3.05-1.17-4.27
	c-1.96-2.52-5.6-2.98-8.11-1.02c-2.52,1.96-2.98,5.6-1.02,8.11C33.52,31.75,34.88,32.53,36.42,32.72z M35.69,26.8
	c0.05-0.39,0.25-0.73,0.55-0.97c0.26-0.2,0.57-0.31,0.89-0.31c0.06,0,0.12,0,0.19,0.01c0.39,0.05,0.73,0.25,0.97,0.55
	c0.5,0.64,0.38,1.56-0.26,2.05c-0.64,0.5-1.56,0.38-2.05-0.26C35.74,27.57,35.64,27.19,35.69,26.8z M47.06,24.46
	c0.24,0.03,0.49,0.05,0.73,0.05c1.28,0,2.51-0.42,3.53-1.22c2.52-1.96,2.98-5.6,1.02-8.11c-0.95-1.22-2.31-2-3.85-2.19
	c-1.54-0.19-3.05,0.22-4.27,1.17c-2.52,1.96-2.98,5.6-1.02,8.11C44.16,23.48,45.53,24.26,47.06,24.46z M46.33,18.53
	c0.05-0.39,0.25-0.73,0.56-0.97c0.26-0.2,0.57-0.31,0.89-0.31c0.06,0,0.12,0,0.19,0.01c0.39,0.05,0.73,0.25,0.97,0.55
	c0.24,0.31,0.34,0.69,0.3,1.08c-0.05,0.39-0.25,0.73-0.56,0.97c-0.31,0.24-0.69,0.35-1.08,0.3c-0.39-0.05-0.73-0.25-0.97-0.55
	C46.38,19.31,46.28,18.92,46.33,18.53z"/>
</svg>
