<?xml version="1.0" encoding="utf-8"?>
<!-- Generator: Adobe Illustrator 23.0.6, SVG Export Plug-In . SVG Version: 6.00 Build 0)  -->
<svg version="1.1" id="Layer_1" xmlns="http://www.w3.org/2000/svg" xmlns:xlink="http://www.w3.org/1999/xlink" x="0px" y="0px"
	 viewBox="0 0 112.41 132.75" style="enable-background:new 0 0 112.41 132.75;" xml:space="preserve">
<style type="text/css">
	.st0{fill:#FDCE74;}
	.st1{fill:#8574B3;}
	.st2{fill:#FFFFFF;}
	.st3{fill:none;stroke:#FFFFFF;stroke-width:4.0959;stroke-linecap:round;stroke-linejoin:round;stroke-miterlimit:10;}
</style>
<g>
	<g>
		<g>
			<g>
				<path class="st1" d="M79.06,46c-1.32,0-2.57-0.52-3.5-1.46c-0.94-0.94-1.45-2.18-1.45-3.51c0-1.32,0.52-2.57,1.46-3.5
					c0.94-0.93,2.18-1.45,3.5-1.45c0,0,0.01,0,0.01,0c1.32,0,2.57,0.52,3.5,1.46c0.94,0.94,1.45,2.18,1.45,3.51
					c0,1.32-0.52,2.57-1.46,3.5C81.63,45.49,80.39,46,79.06,46C79.07,46,79.07,46,79.06,46L79.06,46z M79.07,40.19
					c-0.31,0-0.51,0.16-0.61,0.25c-0.09,0.09-0.25,0.3-0.25,0.61c0,0.31,0.16,0.51,0.25,0.61c0.09,0.09,0.3,0.25,0.61,0.25
					c0,0,0,0,0,0c0.31,0,0.51-0.16,0.6-0.25c0.09-0.09,0.25-0.3,0.25-0.61c0-0.31-0.16-0.51-0.25-0.61
					C79.59,40.35,79.38,40.19,79.07,40.19C79.07,40.19,79.07,40.19,79.07,40.19z"/>
			</g>
		</g>
		<g>
			<path class="st1" d="M41.67,68.41c-0.64,0-1.28-0.3-1.67-0.87C26.83,48.92,24.7,32.82,27.41,27.81c3.52-6.53,10.89-5.45,11.2-5.4
				c1.12,0.18,1.88,1.22,1.71,2.34c-0.17,1.11-1.21,1.88-2.33,1.71c-0.22-0.03-4.85-0.64-6.97,3.3c-1.62,3-0.38,17.46,12.33,35.43
				c0.65,0.92,0.43,2.2-0.49,2.85C42.5,68.29,42.08,68.41,41.67,68.41z"/>
		</g>
		<g>
			<path class="st1" d="M33.81,77.78c-0.64,0-1.28-0.3-1.67-0.87c-13.17-18.63-15.3-34.73-12.59-39.74c1.72-3.18,4.77-5.11,8.6-5.45
				c1.12-0.11,2.12,0.74,2.22,1.86c0.1,1.13-0.74,2.12-1.86,2.22c-2.48,0.22-4.29,1.33-5.36,3.31c-1.62,3-0.37,17.46,12.33,35.43
				c0.65,0.92,0.43,2.2-0.49,2.85C34.63,77.66,34.21,77.78,33.81,77.78z"/>
		</g>
		<g>
			<path class="st1" d="M26.55,91.26c-0.64,0-1.28-0.3-1.67-0.87C11.71,71.77,9.58,55.67,12.29,50.66c1.65-3.05,4.56-4.97,8.21-5.4
				c1.12-0.12,2.14,0.67,2.27,1.79c0.13,1.12-0.67,2.14-1.79,2.27c-2.35,0.28-4.06,1.38-5.08,3.28c-1.62,3-0.38,17.46,12.33,35.43
				c0.65,0.92,0.43,2.2-0.49,2.85C27.37,91.14,26.96,91.26,26.55,91.26z"/>
		</g>
		<g>
			<path class="st1" d="M58.62,132.75c-0.03,0-0.06,0-0.09,0c-0.76-0.03-1.43-0.48-1.76-1.16c-5.91-12.31-15.06-15.23-24.74-18.32
				c-4.73-1.51-9.62-3.07-14.25-5.75C5.28,100.25,0.27,80.53,0.06,79.7c-0.09-0.36-0.08-0.74,0.03-1.1
				c3.65-11.86,11.26-21.97,11.58-22.4c0.68-0.9,1.97-1.08,2.87-0.39c0.9,0.68,1.08,1.97,0.4,2.87c-0.07,0.1-7.25,9.65-10.75,20.57
				c0.87,3.12,5.72,18.94,15.66,24.72c4.24,2.46,8.92,3.95,13.44,5.4c9.21,2.94,18.7,5.96,25.36,17.04
				c1.77-3.37,4.53-8.99,6.72-15.14c3.5-9.81-0.95-23.27-3.89-32.18c-1.12-3.4-2.01-6.09-2.35-8.1c-1.3-7.79,3.78-16.84,3.99-17.22
				c0.38-0.67,1.11-1.05,1.87-1.03c0.77,0.03,1.45,0.49,1.77,1.19c0.03,0.05,2.72,5.79,7.21,8.49c2.96,1.77,6.77,3,9.83,3.98
				c2.09,0.67,3.9,1.25,5.22,1.91c1.43,0.72,3.16,2.17,4.99,3.71c1.69,1.42,4.83,4.07,5.87,4.1c1.85,0,3.57-2.16,6.3-6.4
				c2.21-3.45,2.18-9.24,2.1-11.1C94.78,41.59,74.63,16.3,73.07,14.65c-0.66-0.57-1.73-1.72-0.6-9.86
				c-6.51,2.44-9.77,9.31-9.81,9.39c-0.26,0.55-0.75,0.96-1.34,1.12c-8.25,2.15-15.51,5.72-21.59,10.61
				c-0.88,0.71-2.17,0.57-2.88-0.31c-0.71-0.88-0.57-2.17,0.31-2.88c6.31-5.08,13.79-8.82,22.23-11.15
				c1.46-2.64,6.4-10.28,15.28-11.55c0.65-0.09,1.3,0.13,1.76,0.6c0.46,0.47,0.66,1.13,0.55,1.77c-0.63,3.7-1.1,8.28-0.85,9.56
				c3.25,3.68,25.83,32.1,35.76,44.63c0.25,0.32,0.4,0.7,0.44,1.1c0.03,0.36,0.7,8.95-2.71,14.25c-3.12,4.85-5.64,8.28-9.74,8.28
				c-2.5,0-5.42-2.46-8.51-5.06c-1.56-1.32-3.18-2.68-4.18-3.18c-1.04-0.52-2.71-1.06-4.64-1.68c-3.26-1.05-7.32-2.36-10.69-4.37
				c-3-1.8-5.28-4.54-6.78-6.75c-1.21,2.96-2.56,7.36-1.93,11.14c0.28,1.69,1.17,4.38,2.2,7.49c3.12,9.44,7.83,23.71,3.86,34.84
				c-3.64,10.21-8.62,18.73-8.83,19.09C60.02,132.36,59.35,132.75,58.62,132.75z M75.79,11.59c0.04,0.03,0.1,0.1,0.19,0.19
				C75.93,11.72,75.86,11.65,75.79,11.59z"/>
		</g>
	</g>
</g>
</svg>
