<?xml version="1.0" encoding="utf-8"?>
<!-- Generator: Adobe Illustrator 23.0.6, SVG Export Plug-In . SVG Version: 6.00 Build 0)  -->
<svg version="1.1" id="Layer_1" xmlns="http://www.w3.org/2000/svg" xmlns:xlink="http://www.w3.org/1999/xlink" x="0px" y="0px"
	 viewBox="0 0 113.04 124.43" style="enable-background:new 0 0 113.04 124.43;" xml:space="preserve">
<style type="text/css">
	.st0{fill:#FDCE74;}
	.st1{fill:#8574B3;}
	.st2{fill:#FFFFFF;}
	.st3{fill:none;stroke:#FFFFFF;stroke-width:4.0959;stroke-linecap:round;stroke-linejoin:round;stroke-miterlimit:10;}
</style>
<g id="AQUARIUM_2_">
	<g>
		<g>
			<path class="st2" d="M21.34,124.43c-3.02,0-6.06-0.14-9.13-0.42c-0.82-0.08-1.55-0.65-1.79-1.44c-0.43-1.38,0.4-2.08,1.77-3.25
				c3.4-2.88,13.75-11.63,17.31-24.77c3.09-11.41-2.19-20.86-4.57-23.4C21.1,72.68,6.06,83.41,3.35,85.53
				c-0.66,0.55-1.6,0.63-2.35,0.18c-0.81-0.48-1.18-1.44-0.92-2.34l2.18-7.34c2.68-9.04,2.68-18.6,0-27.64l-2.18-7.34
				c-0.27-0.9,0.11-1.86,0.92-2.34c0.75-0.45,1.69-0.37,2.35,0.18c2.8,2.19,17.72,12.86,21.57,14.37c2.37-2.53,7.66-11.98,4.57-23.4
				C25.94,16.73,15.59,7.98,12.19,5.1c-1.38-1.16-2.21-1.87-1.77-3.25c0.25-0.79,0.97-1.36,1.79-1.44
				c27.5-2.51,53.14,6.29,74.15,25.47c18.13,16.55,26.68,34.94,26.68,36.32s-8.55,19.78-26.68,36.32
				C67.69,115.57,45.37,124.43,21.34,124.43z M17.37,120.25c31.48,1.33,53.99-13.18,67.54-25.95c14.74-13.9,22.55-28.84,23.92-32.08
				c-1.37-3.24-9.17-18.18-23.92-32.08C71.36,17.36,48.85,2.84,17.37,4.18c4.79,4.33,12.88,12.78,16.08,24.62
				c3.74,13.84-3.12,25.65-6.61,28.24c-1.39,1.03-2.85,1.25-14.75-6.89c-2.07-1.41-4.36-3.03-6.36-4.46l0.45,1.53
				c2.91,9.8,2.91,20.16,0,29.97l-0.45,1.53c2-1.43,4.29-3.05,6.36-4.46c11.9-8.14,13.35-7.92,14.75-6.88
				c3.49,2.59,10.36,14.4,6.61,28.24C30.25,107.47,22.15,115.92,17.37,120.25z M2.05,40.47L2.05,40.47L2.05,40.47z"/>
		</g>
		<g>
			<path class="st2" d="M83.46,59.91c-1.53,0-3.01-0.62-4.19-1.75c-1.26-1.22-1.99-2.89-2.01-4.59c-0.03-3.4,2.7-6.24,6.09-6.33
				c1.63-0.04,3.17,0.58,4.38,1.75c1.24,1.2,1.95,2.86,1.95,4.56c0.01,3.37-2.78,6.28-6.09,6.35
				C83.55,59.91,83.51,59.91,83.46,59.91z M83.5,51.34c-0.01,0-0.03,0-0.04,0c-1.17,0.03-2.11,1.01-2.09,2.19
				c0.01,0.61,0.28,1.23,0.76,1.69c0.41,0.39,0.9,0.63,1.38,0.6l0,0c1.08-0.03,2.1-1.12,2.09-2.24c0-0.6-0.26-1.2-0.71-1.64
				C84.48,51.55,84,51.34,83.5,51.34z"/>
		</g>
	</g>
</g>
</svg>
