<?xml version="1.0" encoding="utf-8"?>
<!-- Generator: Adobe Illustrator 23.0.6, SVG Export Plug-In . SVG Version: 6.00 Build 0)  -->
<svg version="1.1" id="Layer_1" xmlns="http://www.w3.org/2000/svg" xmlns:xlink="http://www.w3.org/1999/xlink" x="0px" y="0px"
	 viewBox="0 0 107.38 107.35" style="enable-background:new 0 0 107.38 107.35;" xml:space="preserve">
<style type="text/css">
	.st0{fill:#FDCE74;}
	.st1{fill:#8574B3;}
	.st2{fill:#FFFFFF;}
	.st3{fill:none;stroke:#FFFFFF;stroke-width:4.0959;stroke-linecap:round;stroke-linejoin:round;stroke-miterlimit:10;}
</style>
<g>
	<g>
		<g>
			<path class="st0" d="M42.6,74.95c-2.69,0-5.22-1.05-7.12-2.95c-1.9-1.9-2.95-4.43-2.95-7.12c0-2.69,1.05-5.22,2.95-7.12
				c3.92-3.92,10.31-3.92,14.24,0c1.9,1.9,2.95,4.43,2.95,7.12c0,2.69-1.05,5.22-2.95,7.12l0,0l0,0
				C47.81,73.91,45.29,74.95,42.6,74.95z M42.6,58.92c-1.53,0-3.06,0.58-4.22,1.75c-1.13,1.13-1.75,2.63-1.75,4.22
				s0.62,3.09,1.75,4.22c1.13,1.13,2.63,1.75,4.22,1.75s3.09-0.62,4.22-1.75c0,0,0,0,0,0c1.13-1.13,1.75-2.63,1.75-4.22
				s-0.62-3.09-1.75-4.22C45.66,59.5,44.13,58.92,42.6,58.92z"/>
		</g>
		<g>
			<path class="st0" d="M83.17,80.49c-0.52,0-1.05-0.2-1.45-0.6l-53.2-53.2c-0.8-0.8-0.8-2.1,0-2.9s2.1-0.8,2.9,0L84.61,77
				c0.8,0.8,0.8,2.1,0,2.9C84.21,80.29,83.69,80.49,83.17,80.49z"/>
		</g>
		<g>
			<path class="st0" d="M2.05,107.35c-0.54,0-1.06-0.21-1.45-0.6c-0.52-0.52-0.72-1.28-0.53-1.99c0.38-1.39,9.52-34.25,35.81-60.54
				C62.18,17.94,95.04,8.79,96.42,8.42c0.71-0.19,1.47,0.01,1.98,0.53s0.72,1.28,0.53,1.98c-0.38,1.39-9.52,34.25-35.81,60.54l0,0
				C36.83,97.76,3.97,106.9,2.58,107.28C2.41,107.33,2.23,107.35,2.05,107.35z M93.82,13.53C84.5,16.7,59.25,26.65,38.78,47.12
				c-20.5,20.5-30.43,45.72-33.59,55.04c9.32-3.17,34.56-13.12,55.04-33.59C80.7,48.1,90.65,22.85,93.82,13.53z M61.67,70.02
				L61.67,70.02L61.67,70.02z"/>
		</g>
		<g>
			<g>
				<path class="st0" d="M16.7,26.23c-0.52,0-1.05-0.2-1.45-0.6L5.72,16.1c-0.67-0.67-1.03-1.55-1.03-2.5c0-0.94,0.37-1.83,1.03-2.5
					L15.83,1c1.33-1.33,3.66-1.33,4.99,0l9.53,9.53c0.8,0.8,0.8,2.1,0,2.9c-0.8,0.8-2.1,0.8-2.9,0l-9.13-9.14L9.02,13.6l9.13,9.13
					c0.8,0.8,0.8,2.1,0,2.9C17.75,26.03,17.23,26.23,16.7,26.23z"/>
			</g>
			<g>
				<path class="st0" d="M23.1,28.74c-1.1,0-2.01-0.87-2.05-1.98c-0.04-1.13,0.85-2.08,1.98-2.12c1.68-0.06,3.25-0.74,4.43-1.91
					c1.18-1.18,1.86-2.75,1.91-4.43c0.04-1.13,0.99-1.99,2.12-1.98c1.13,0.04,2.02,0.99,1.98,2.12c-0.09,2.72-1.2,5.27-3.11,7.18
					c-1.91,1.91-4.46,3.02-7.18,3.11C23.15,28.74,23.12,28.74,23.1,28.74z"/>
			</g>
			<g>
				<path class="st0" d="M22.81,28.75c-2.82,0-5.56-1.12-7.55-3.12c-0.8-0.8-0.8-2.1,0-2.9s2.1-0.8,2.9,0
					c1.3,1.3,3.03,1.99,4.88,1.91c1.13-0.02,2.08,0.85,2.12,1.98c0.04,1.13-0.85,2.08-1.98,2.12
					C23.05,28.75,22.93,28.75,22.81,28.75z"/>
			</g>
			<g>
				<path class="st0" d="M31.42,20.43c-0.02,0-0.05,0-0.07,0c-1.13-0.04-2.02-0.99-1.98-2.12c0.06-1.85-0.62-3.58-1.91-4.88
					c-0.8-0.8-0.8-2.1,0-2.9c0.8-0.8,2.1-0.8,2.9,0c2.08,2.08,3.21,4.96,3.11,7.92C33.43,19.55,32.52,20.43,31.42,20.43z"/>
			</g>
		</g>
		<g>
			<g>
				<path class="st0" d="M93.75,102.66c-0.94,0-1.83-0.37-2.5-1.03l-9.53-9.53c-0.8-0.8-0.8-2.1,0-2.9c0.8-0.8,2.1-0.8,2.9,0
					l9.13,9.13l9.31-9.31l-9.13-9.13c-0.8-0.8-0.8-2.1,0-2.9c0.8-0.8,2.1-0.8,2.9,0l9.53,9.54c0.67,0.67,1.03,1.55,1.03,2.5
					s-0.37,1.83-1.03,2.5l-10.11,10.11C95.58,102.29,94.69,102.66,93.75,102.66L93.75,102.66z"/>
			</g>
			<g>
				<path class="st0" d="M80.65,86.3c-0.02,0-0.05,0-0.07,0c-1.13-0.04-2.02-0.99-1.98-2.12c0.09-2.72,1.2-5.27,3.11-7.18
					c1.91-1.91,4.47-3.02,7.18-3.11c1.12-0.04,2.08,0.85,2.12,1.98s-0.85,2.08-1.98,2.12c-1.68,0.06-3.25,0.74-4.43,1.91
					c-1.18,1.18-1.86,2.75-1.91,4.43C82.66,85.43,81.75,86.3,80.65,86.3z"/>
			</g>
			<g>
				<path class="st0" d="M95.37,80.49c-0.52,0-1.05-0.2-1.45-0.6c-1.3-1.3-3.04-1.98-4.88-1.91c-1.13,0.03-2.08-0.85-2.12-1.98
					s0.85-2.08,1.98-2.12c2.96-0.1,5.84,1.03,7.92,3.11c0.8,0.8,0.8,2.1,0,2.9C96.42,80.29,95.89,80.49,95.37,80.49z"/>
			</g>
			<g>
				<path class="st0" d="M83.17,92.69c-0.52,0-1.05-0.2-1.45-0.6c-2.08-2.08-3.21-4.96-3.11-7.92c0.04-1.13,0.99-2.02,2.12-1.98
					c1.13,0.04,2.02,0.99,1.98,2.12c-0.06,1.85,0.62,3.58,1.91,4.88c0.8,0.8,0.8,2.1,0,2.9C84.21,92.49,83.69,92.69,83.17,92.69z"/>
			</g>
		</g>
	</g>
</g>
</svg>
