<?xml version="1.0" encoding="utf-8"?>
<!-- Generator: Adobe Illustrator 22.1.0, SVG Export Plug-In . SVG Version: 6.00 Build 0)  -->
<svg version="1.1" id="Layer_1" xmlns="http://www.w3.org/2000/svg" xmlns:xlink="http://www.w3.org/1999/xlink" x="0px" y="0px"
	 viewBox="0 0 190.4 290" style="enable-background:new 0 0 190.4 290;" xml:space="preserve">
<style type="text/css">
	.st0{fill:#7CC5B6;}
</style>
<path class="st0" d="M26.3,151c-1.9,1.7-4.5,2.7-7.3,2.7c-2.1,0-4.3-0.6-6-1.6c-3.6-2.1-6.1-6.1-6.1-10.8c0-4.8,2.5-8.8,6.1-10.9
	c1.6-1,3.6-1.5,5.8-1.5c2.6,0,5.2,0.8,7.3,2.6v-12c0-1.2,1-2.2,2.2-2.2h0.5c1.2,0,2.2,1,2.2,2.2V151c0,1.2-1,2.2-2.2,2.2h-0.3
	C27.3,153.1,26.3,152.2,26.3,151L26.3,151z M26.1,136.8c-1.5-1.9-3.9-3.4-6.8-3.4c-4.6,0-7.6,3.7-7.6,7.8c0,4.2,3.3,7.8,7.9,7.8
	c2.4,0,4.9-1.2,6.5-3.4V136.8z M56.9,151c-1.9,1.7-4.5,2.7-7.3,2.7c-2.1,0-4.3-0.6-6-1.6c-3.6-2.1-6.1-6.1-6.1-10.8
	c0-4.8,2.5-8.8,6.1-10.9c1.6-1,3.6-1.5,5.8-1.5c2.7,0,5.3,0.8,7.4,2.7l0,0c0-1.2,1-2.2,2.2-2.2h0.3c1.2,0,2.2,1,2.2,2.2V151
	c0,1.2-1,2.2-2.2,2.2h-0.3C57.9,153.1,56.9,152.2,56.9,151L56.9,151z M56.7,136.8c-1.5-1.9-3.9-3.4-6.8-3.4c-4.6,0-7.6,3.7-7.6,7.8
	c0,4.2,3.3,7.8,7.9,7.8c2.4,0,4.9-1.2,6.5-3.4V136.8z M71.5,162l5-11.4l-8.6-18c-0.7-1.5,0.4-3.3,2.1-3.3h0c0.9,0,1.7,0.5,2.1,1.3
	L79,145l6.2-14.3c0.4-0.8,1.2-1.4,2.1-1.4l0,0c1.7,0,2.8,1.7,2.1,3.2l-13.6,31.3c-0.4,0.9-1.2,1.4-2.1,1.4h0
	C72,165.3,70.9,163.6,71.5,162z M119.3,128.9c7,0,12.3,5.3,12.3,12.4s-5.3,12.4-12.3,12.4s-12.3-5.3-12.3-12.4
	S112.3,128.9,119.3,128.9z M119.3,149.1c4.4,0,7.5-3.5,7.5-7.8s-3.1-7.8-7.5-7.8s-7.5,3.5-7.5,7.8S114.9,149.1,119.3,149.1z
	 M139.8,149.6c-1.5-1.8-2.2-4.1-2.2-8.1v-10c0-1.2,1-2.2,2.1-2.2h0.5c1.2,0,2.1,1,2.1,2.2v10.8c0,2.4,0.5,3.7,1.4,4.8
	c1.1,1.3,2.8,2.1,4.6,2.1c2.9,0,5.3-1.8,6.7-3.4v-14.2c0-1.2,1-2.2,2.1-2.2h0.5c1.2,0,2.1,1,2.1,2.2V151c0,1.2-1,2.1-2.1,2.1h-0.4
	c-1.2,0-2.1-1-2.1-2.2v0c-1.1,1-3.7,2.7-7,2.7C144.9,153.7,141.8,152.1,139.8,149.6z M182.7,151c0.3,1.2-0.6,2.5-1.9,2.6
	c-0.5,0-0.9,0.1-1.4,0.1c-3,0-5.2-1.1-6.7-2.8c-1.4-1.6-1.9-3.7-1.9-6.3v-10.9h-3.9c-1.2,0-2.1-1-2.1-2.1l0,0c0-1.2,1-2.2,2.1-2.2
	h3.9v-4.4c0-1.2,1-2.2,2.1-2.2h0.5c1.2,0,2.1,1,2.1,2.2v4.4h5.4c1.2,0,2.1,1,2.1,2.2l0,0c0,1.2-1,2.1-2.1,2.1h-5.4v11.1
	c0,1.3,0.1,2.3,0.7,3c0.7,0.8,2,1.3,3.3,1.3c0.2,0,0.5,0,0.8,0c1.1-0.1,2,0.6,2.2,1.7L182.7,151z M26.6,180.3l5.3,13.3l5.4-13.3
	c0.3-0.8,1.1-1.3,1.9-1.3l0,0c1.5,0,2.5,1.5,1.9,2.8l-7,17.3c-0.3,0.8-1.1,1.3-1.9,1.3H32c-0.8,0-1.6-0.5-1.9-1.3l-5.5-13.7
	l-5.5,13.7c-0.3,0.8-1.1,1.3-1.9,1.3H17c-0.8,0-1.6-0.5-1.9-1.3l-7-17.3c-0.6-1.4,0.4-2.8,1.9-2.8l0,0c0.8,0,1.6,0.5,1.9,1.3
	l5.3,13.3l5.4-13.3c0.3-0.8,1.1-1.3,1.9-1.3h0.2C25.6,179,26.3,179.5,26.6,180.3z M48.5,168.5c1.8-0.2,3.3,1.3,3.1,3.1
	c-0.1,1.3-1.3,2.4-2.6,2.5c-1.8,0.1-3.2-1.3-3.1-3.1C46.1,169.8,47.2,168.6,48.5,168.5z M48.6,179H49c1.1,0,1.9,0.9,1.9,1.9v17.5
	c0,1.1-0.9,1.9-1.9,1.9h-0.5c-1.1,0-1.9-0.9-1.9-1.9v-17.5C46.7,179.8,47.5,179,48.6,179z M71.5,198.4c0.2,1.1-0.5,2.2-1.7,2.3
	c-0.4,0-0.8,0.1-1.3,0.1c-2.7,0-4.7-1-6-2.5c-1.3-1.4-1.7-3.4-1.7-5.7v-9.8h-3.5c-1.1,0-1.9-0.9-1.9-1.9l0,0c0-1.1,0.9-1.9,1.9-1.9
	h3.5v-4c0-1.1,0.9-1.9,1.9-1.9h0.5c1.1,0,1.9,0.9,1.9,1.9v4H70c1.1,0,1.9,0.9,1.9,1.9l0,0c0,1.1-0.9,1.9-1.9,1.9h-4.9v10
	c0,1.1,0.1,2.1,0.6,2.7c0.6,0.7,1.8,1.1,3,1.1c0.2,0,0.5,0,0.8,0c0.9-0.1,1.8,0.6,2,1.5L71.5,198.4z M82.2,180.8
	c1.2-1,3.3-2.3,6.3-2.3c3.1,0,6,1.5,7.8,3.8c1.4,1.7,2.1,3.9,2.1,7.6v8.5c0,1.1-0.9,1.9-1.9,1.9h-0.5c-1.1,0-1.9-0.9-1.9-1.9v-8.8
	c0-2.7-0.5-4-1.3-5c-1-1.3-2.6-2.1-4.4-2.1c-2.8,0-4.9,1.5-6.1,3.1v12.8c0,1.1-0.9,1.9-1.9,1.9h-0.5c-1.1,0-1.9-0.9-1.9-1.9V170
	c0-1.1,0.9-1.9,1.9-1.9h0.5c1.1,0,1.9,0.9,1.9,1.9V180.8z M130.2,198.4c0.2,1.1-0.5,2.2-1.7,2.3c-0.4,0-0.8,0.1-1.3,0.1
	c-2.7,0-4.7-1-6.1-2.5c-1.3-1.4-1.7-3.4-1.7-5.7v-9.8h-3.5c-1.1,0-1.9-0.9-1.9-1.9l0,0c0-1.1,0.9-1.9,1.9-1.9h3.5v-4
	c0-1.1,0.9-1.9,1.9-1.9h0.5c1.1,0,1.9,0.9,1.9,1.9v4h4.9c1.1,0,1.9,0.9,1.9,1.9l0,0c0,1.1-0.9,1.9-1.9,1.9h-4.9v10
	c0,1.1,0.1,2.1,0.6,2.7c0.6,0.7,1.8,1.1,3,1.1c0.2,0,0.5,0,0.8,0c0.9-0.1,1.8,0.6,2,1.5L130.2,198.4z M140.9,180.8
	c1.2-1,3.3-2.3,6.3-2.3c3.1,0,6,1.5,7.8,3.8c1.4,1.7,2.1,3.9,2.1,7.6v8.5c0,1.1-0.9,1.9-1.9,1.9h-0.5c-1.1,0-1.9-0.9-1.9-1.9v-8.8
	c0-2.7-0.5-4-1.3-5c-1-1.3-2.6-2.1-4.4-2.1c-2.8,0-4.9,1.5-6.1,3.1v12.8c0,1.1-0.9,1.9-1.9,1.9h-0.5c-1.1,0-1.9-0.9-1.9-1.9v-28.2
	c0-1.2,1-2.2,2.2-2.2l0,0c1.2,0,2.2,1,2.2,2.2L140.9,180.8L140.9,180.8z M166.7,190.6c0.2,3.6,3.2,6.5,6.9,6.5
	c2.2,0,3.8-0.8,4.9-1.7c0.8-0.6,1.9-0.6,2.6,0.1l0.1,0.1c0.9,0.8,0.8,2.2-0.2,2.9c-1.7,1.4-4.2,2.4-7.4,2.4
	c-6.2,0-11.1-4.7-11.1-11.1s4.4-11.1,10.4-11.1c6,0,10.3,4.8,10.3,11.1c0,0.4-0.1,0.9-0.8,0.9L166.7,190.6L166.7,190.6z M167,186.9
	h11.6c-0.6-2.7-3.1-4.6-5.6-4.6C170.3,182.3,167.8,184.2,167,186.9z M44.4,287.8L17,262.4v23.3c0,1.6-1.3,2.9-2.9,2.9h-0.3
	c-1.6,0-2.9-1.3-2.9-2.9v-71.3c0-1.6,1.3-2.9,2.9-2.9h0.3c1.6,0,2.9,1.3,2.9,2.9v45.3l24.5-20c0.5-0.4,1.2-0.7,1.8-0.7l0,0
	c2.8,0,4,3.4,1.9,5.2l-20.8,17.1l24,22.2c2,1.8,0.7,5.1-2,5.1h-0.1C45.6,288.6,44.9,288.3,44.4,287.8z M67.8,219.2
	c2.6,0,4.8,2.2,4.8,4.8s-2.2,4.7-4.8,4.7s-4.7-2.1-4.7-4.7S65.2,219.2,67.8,219.2z M67.9,239.1L67.9,239.1c1.7,0,3.1,1.4,3.1,3.1
	v43.4c0,1.7-1.4,3.1-3.1,3.1l0,0c-1.7,0-3.1-1.4-3.1-3.1v-43.4C64.8,240.4,66.1,239.1,67.9,239.1z M95.6,285
	c-6.5-4.6-10.5-12.3-10.5-21.2c0-8.3,3.6-15.5,9.2-20.3c4.1-3.4,9.8-5.5,15.8-5.5c6.8,0,13.3,2.7,17.9,7.7v-31.2c0-1.6,1.3-3,3-3
	h0.2c1.6,0,3,1.3,3,3v71.2c0,1.7-1.3,3-3,3l0,0c-1.6,0-3-1.3-3-3v-4.3c-3.7,5-10.1,8.4-17.8,8.4C105.7,289.7,100.5,288.5,95.6,285z
	 M128,253.8c-2.2-3.7-8.7-10-17.8-10c-4.1,0-8.5,1.4-12,4.2c-4.3,3.6-7,9.4-7,15.8c0,6.8,3,12.9,7.8,16.3c3.2,2.2,7,3.7,11.2,3.7
	c7.3,0,13.8-4.1,17.7-10.9V253.8z M149.7,280.2c1-1.2,2.8-1.5,4.1-0.6c3.8,2.6,8.2,4.3,12.8,4.3c6.2,0,11.4-3.5,11.4-8.7
	c0-12.7-28.6-5.8-28.6-22.7c0-9,8.5-14.5,16.9-14.5c5.2,0,9.7,1.4,13.2,3.1c1.6,0.8,2.1,2.8,1.1,4.3l0,0c-0.9,1.3-2.6,1.8-4,1
	c-3.1-1.7-5.9-2.6-10-2.6c-5.2,0-11,2.7-11,8.5c0,11,28.6,5.1,28.6,22.5c0,9.2-7.8,14.9-17.2,14.9c-6.8,0-12.5-2.1-16.8-5.1
	C148.9,283.6,148.6,281.6,149.7,280.2L149.7,280.2z M189.9,90.6c-1-0.6-2.3-0.3-3,0.7c-3.7,5.8-10,9.2-16.9,9.2s-13.2-3.5-16.9-9.2
	c0,0,0,0,0,0c-0.1-0.1-0.1-0.1-0.1-0.2c0-0.1-0.1-0.1-0.1-0.1s-0.1-0.1-0.1-0.1c-0.1-0.1-0.1-0.1-0.2-0.2c0,0,0,0,0,0
	c0,0-0.1,0-0.1-0.1c-0.1,0-0.1-0.1-0.2-0.1c-0.1,0-0.1,0-0.2-0.1c-0.1,0-0.1,0-0.2-0.1c-0.1,0-0.1,0-0.2,0s-0.1,0-0.2,0
	s-0.1,0-0.2,0c-0.1,0-0.1,0-0.2,0c-0.1,0-0.1,0-0.2,0.1c-0.1,0-0.1,0-0.2,0.1c-0.1,0-0.1,0.1-0.2,0.1c0,0-0.1,0-0.1,0.1c0,0,0,0,0,0
	c-0.1,0-0.1,0.1-0.2,0.2c-0.1,0-0.1,0.1-0.1,0.1c0,0-0.1,0.1-0.1,0.1c-0.1,0.1-0.1,0.1-0.2,0.2c0,0,0,0,0,0c-0.3,0.5-0.7,1-1,1.4
	c-8.6-22-29.8-36.6-53.6-36.6C71.2,56,50.2,70.3,41.4,92c-0.2-0.2-0.3-0.5-0.5-0.8c0,0,0,0,0,0c0-0.1-0.1-0.1-0.2-0.2
	c0-0.1-0.1-0.1-0.1-0.2c0,0-0.1-0.1-0.1-0.1c-0.1-0.1-0.1-0.1-0.2-0.2c0,0,0,0,0,0c0,0-0.1,0-0.1-0.1c-0.1,0-0.2-0.1-0.2-0.1
	c-0.1,0-0.1,0-0.2-0.1c-0.1,0-0.1,0-0.2-0.1c-0.1,0-0.1,0-0.2,0c-0.1,0-0.1,0-0.2,0s-0.1,0-0.2,0c-0.1,0-0.1,0-0.2,0
	c-0.1,0-0.1,0-0.2,0.1c-0.1,0-0.1,0-0.2,0.1c-0.1,0-0.2,0.1-0.2,0.1c0,0-0.1,0-0.1,0.1c0,0,0,0,0,0c-0.1,0-0.1,0.1-0.2,0.2
	c0,0-0.1,0.1-0.1,0.1s-0.1,0.1-0.1,0.1c0,0.1-0.1,0.1-0.2,0.2c0,0,0,0,0,0c-3.7,5.8-10,9.2-16.9,9.2S7.2,97,3.5,91.2
	c-0.6-1-2-1.3-3-0.7c-1,0.6-1.3,2-0.7,3c4.5,7.1,12.2,11.3,20.6,11.3c7.3,0,14.1-3.2,18.7-8.8c4.6,5.5,11.4,8.8,18.7,8.8l0,0
	c7.3,0,14.1-3.2,18.7-8.8c4.5,5.4,11.1,8.6,18.2,8.7c0,0,0.1,0,0.1,0c0,0,0,0,0.1,0c0.1,0,0.2,0,0.3,0c7.3,0,14.1-3.2,18.7-8.8
	c4.6,5.5,11.4,8.8,18.7,8.8c7.3,0,14.1-3.2,18.7-8.8c4.6,5.5,11.4,8.8,18.7,8.8c8.4,0,16-4.2,20.5-11.2
	C191.2,92.6,190.9,91.2,189.9,90.6z M57.8,100.5c-4.9,0-9.5-1.8-13.1-4.9c2.6-7.3,6.7-13.7,11.8-19l16.7,16.7
	C69.4,97.8,63.8,100.5,57.8,100.5z M78.3,91.2c-0.4-0.7-1.2-1.1-2-1L59.7,73.6c9-7.9,20.5-12.7,33-13.2v39.9
	C86.8,99.6,81.6,96.3,78.3,91.2z M97,100.4v-40c12.5,0.5,24,5.3,33,13.2l-16.7,16.8c0,0-0.1,0-0.1,0c-0.1,0-0.2,0.1-0.2,0.1
	c0,0-0.1,0-0.1,0.1c0,0,0,0,0,0c-0.1,0-0.1,0.1-0.2,0.2c-0.1,0-0.1,0.1-0.1,0.1s-0.1,0.1-0.1,0.1c-0.1,0.1-0.1,0.1-0.2,0.2
	c0,0,0,0,0,0C108.7,96.5,103.2,99.9,97,100.4z M116.9,92.8l16.2-16.2c5.3,5.4,9.4,12.1,12,19.5c-3.5,2.8-7.9,4.4-12.5,4.4
	C126.4,100.5,120.7,97.7,116.9,92.8z M63.8,34.8c1,2.7,7.3,8.5,9.2,10.2c0.4,0.4,0.9,0.6,1.4,0.6c0.3,0,0.5,0,0.8-0.1
	c0.8-0.3,1.3-1,1.4-1.8c0.2-2.5,1-11.1,0-13.8c-1.4-3.5-5.3-5.3-8.8-3.9c-1.7,0.7-3.1,1.9-3.8,3.6C63.2,31.2,63.2,33.1,63.8,34.8
	L63.8,34.8z M67.9,31.3c0.3-0.6,0.8-1.1,1.4-1.3c1.3-0.5,2.8,0.1,3.3,1.4c0.3,0.8,0.3,3.9,0.1,7.3c-2.4-2.4-4.5-4.7-4.8-5.5
	C67.6,32.6,67.6,31.9,67.9,31.3z M32.7,34.9c1.6,2.4,8.9,6.8,11.1,8.1c0.3,0.2,0.7,0.3,1.1,0.3c0.4,0,0.8-0.1,1.2-0.4
	c0.7-0.4,1.1-1.2,1-2c-0.3-2.6-1.3-11-2.9-13.5c-1-1.5-2.5-2.6-4.3-3c-1.8-0.4-3.6,0-5.2,1C31.5,27.5,30.6,31.7,32.7,34.9L32.7,34.9
	z M37,29c0.6-0.4,1.2-0.5,1.9-0.3c0.7,0.1,1.2,0.5,1.6,1.1c0.5,0.7,1.1,3.8,1.6,7.1c-2.9-1.8-5.4-3.6-5.8-4.4
	C35.6,31.4,35.9,29.8,37,29z M104.1,51.1c0.1,0,0.3,0,0.4,0c0.7,0,1.3-0.3,1.7-0.8c1.6-2,6.7-8.9,7.3-11.7c0.3-1.8,0-3.6-1-5.1
	c-1-1.5-2.6-2.5-4.4-2.9c-1.8-0.4-3.6,0-5.1,1c-1.5,1-2.5,2.6-2.9,4.4c-0.6,2.8,1.7,11.1,2.4,13.5C102.7,50.3,103.3,50.9,104.1,51.1
	z M104.3,36.8c0.1-0.7,0.5-1.2,1.1-1.6c0.6-0.4,1.2-0.5,1.9-0.4c0.7,0.1,1.2,0.5,1.6,1.1c0.4,0.6,0.5,1.2,0.4,1.9
	c-0.2,0.9-1.8,3.5-3.8,6.2C104.7,40.7,104.1,37.7,104.3,36.8z M25.2,75.7c0.9,0.3,2.2,0.4,3.9,0.4c3.6,0,8.1-0.5,9.9-0.8
	c0.8-0.1,1.5-0.6,1.8-1.4c0.3-0.8,0.1-1.6-0.5-2.2c-1.8-1.9-7.8-8-10.5-8.9l0,0c-3.5-1.2-7.5,0.6-8.7,4.2
	C19.8,70.5,21.7,74.5,25.2,75.7z M25.1,68.4c0.4-1,1.3-1.7,2.4-1.7c0.3,0,0.6,0,0.8,0.1c0.8,0.3,3.2,2.3,5.6,4.7
	c-3.4,0.3-6.5,0.4-7.3,0.1C25.4,71.2,24.7,69.7,25.1,68.4z M135.9,44.6c0.4,0.2,0.7,0.3,1.1,0.3c0.4,0,0.8-0.1,1.1-0.3
	c2.2-1.3,9.4-5.9,10.9-8.3l0,0c1-1.6,1.3-3.4,0.9-5.2c-0.4-1.8-1.5-3.3-3.1-4.2c-3.2-2-7.4-1-9.4,2.2c-1.5,2.4-2.4,11-2.6,13.5
	C134.8,43.3,135.2,44.1,135.9,44.6z M141.1,31.3c0.5-0.8,1.3-1.2,2.1-1.2c0.4,0,0.9,0.1,1.3,0.4c0.6,0.4,1,0.9,1.1,1.6
	c0.1,0.6,0,1.3-0.3,1.9c-0.5,0.7-2.9,2.6-5.8,4.5C140.1,35.1,140.7,32,141.1,31.3z M154.4,77.7c0.2,0,0.4,0,0.5-0.1
	c2.5-0.6,10.8-2.8,12.9-4.7c1.4-1.2,2.2-2.9,2.3-4.7c0.1-1.8-0.5-3.6-1.7-5c-1.2-1.4-2.9-2.2-4.7-2.3c-1.8-0.1-3.6,0.5-5,1.7
	c-2.2,1.9-5.5,9.8-6.5,12.1c-0.3,0.8-0.2,1.6,0.4,2.2C153.2,77.4,153.8,77.7,154.4,77.7z M161.7,65.8c0.5-0.4,1.2-0.7,1.8-0.6
	c0.7,0.1,1.3,0.4,1.7,0.9c0.9,1.1,0.8,2.6-0.2,3.6c-0.6,0.6-3.6,1.6-6.8,2.6C159.6,69.1,161,66.4,161.7,65.8z"/>
</svg>
