<?xml version="1.0" standalone="no"?>
<!DOCTYPE svg PUBLIC "-//W3C//DTD SVG 20010904//EN"
 "http://www.w3.org/TR/2001/REC-SVG-20010904/DTD/svg10.dtd">
<svg version="1.0" xmlns="http://www.w3.org/2000/svg"
 width="500.000000pt" height="500.000000pt" viewBox="0 0 500.000000 500.000000"
 preserveAspectRatio="xMidYMid meet">
<metadata>
Created by potrace 1.11, written by Peter Selinger 2001-2013
</metadata>
<g transform="translate(0.000000,500.000000) scale(0.100000,-0.100000)"
fill="#000000" stroke="none">
<path d="M0 2500 l0 -2500 2500 0 2500 0 0 2500 0 2500 -2500 0 -2500 0 0
-2500z m1630 5 l0 -1485 -310 0 -310 0 0 1485 0 1485 310 0 310 0 0 -1485z
m2350 0 l0 -1485 -310 0 -310 0 0 1485 0 1485 310 0 310 0 0 -1485z m-1625
523 c28 -15 69 -46 93 -70 l42 -44 54 52 c198 192 521 78 566 -201 12 -72 -2
-176 -33 -254 -64 -158 -192 -287 -486 -492 -35 -24 -71 -50 -81 -57 -15 -11
-37 1 -176 100 -177 126 -329 269 -382 359 -69 119 -98 269 -72 378 25 105
115 207 218 246 61 24 195 15 257 -17z"/>
</g>
</svg>
