<?xml version="1.0" encoding="utf-8"?>
<!-- Generator: Adobe Illustrator 23.0.3, SVG Export Plug-In . SVG Version: 6.00 Build 0)  -->
<svg version="1.1" id="Layer_1" xmlns="http://www.w3.org/2000/svg" xmlns:xlink="http://www.w3.org/1999/xlink" x="0px" y="0px"
	 viewBox="0 0 281.9 270.4" style="enable-background:new 0 0 281.9 270.4;" xml:space="preserve">
<style type="text/css">
	.st0{fill:#F9B11E;}
	.st1{fill:#FFFFFF;}
</style>
<g>
	<g>
		<path class="st0" d="M216.3,48.1c-2-6.2-4.7-11.8-8.1-16.8s-7.5-9.5-12.2-13.4s-9.8-7.1-15.2-9.8c-5.5-2.7-11.1-4.7-17.1-6
			c-5.9-1.4-11.9-2-17.8-2h-11.3v3.5h11.3c8.8,0,15.9,1.5,21.3,4.6c5.4,3.1,9.5,7.5,12.5,13.3c2.9,5.8,4.9,12.8,5.8,21.1
			s1.5,13.9,1.5,24.3v5.3c0,10.4-0.5,16.1-1.5,24.4c-1,8.3-2.9,15.3-5.8,21.1c-2.9,5.8-7.1,10.3-12.5,13.3
			c-5.4,3.1-12.5,4.6-21.3,4.6h-5.7c-3.2-0.2-6.2-2.8-7-6.3c-0.6-2.3-0.8-5.3-0.8-8.9v-17.9c0-4.4-0.6-8.4-1.9-11.9
			c-1.3-3.5-3-6.6-5.2-9.4c-2.2-2.7-4.7-5.1-7.6-7c-2.9-1.9-6-3.6-9.2-4.9c-3.3-1.3-6.6-2.3-10.1-3c-3.5-0.7-6.9-1.1-10.2-1.3
			c5.3-0.3,10.1-1.3,14.5-3c4.4-1.8,8.2-4.1,11.4-6.9c3.2-2.9,5.7-6.1,7.4-9.8c1.8-3.7,2.7-7.6,2.7-11.8c0-4.9-1.2-9.5-3.6-13.6
			c-2.4-4.1-5.8-7.7-10.3-10.7c-4.4-3-9.8-5.3-16.1-7C88,0.8,81,0,73.4,0H61.6l0,3.5h7.1c4.5,0,8.3,0.6,11.5,1.9
			c3.2,1.3,5.8,3.2,7.8,5.8c2,2.6,3.5,6,4.4,10.2c0.9,4.2,1.4,5.3,1.4,11.1c0,6.8-0.5,12.2-1.4,16.2c-0.9,4.1-2.4,8-4.3,10.2
			c-1.9,2.2-4.3,2.8-7.2,3.5c-2.9,0.7-6.3,1-10.3,1h-9.1v3.5h9.1c4.2,0,8.1,0.5,11.5,1.4c3.5,0.9,6.4,2.4,8.9,4.5
			c2.5,2,4.4,4.7,5.7,8s2,7.3,2,12.1v11.3c0,6.7,1,12.2,3,16.7c2,4.4,4.7,8,8.1,10.7c3.4,2.7,7.3,4.6,11.7,5.7
			c2.5,0.6,7.6,1.6,12.8,1.7v0h11.3c5.9,0,11.8-0.7,17.8-2s11.6-3.4,17.1-6c5.5-2.7,10.5-5.9,15.2-9.8s8.8-8.3,12.2-13.4
			s6.1-10.7,8.1-16.8c2-6.2,3-12.9,3-20.1v-2.9C219.3,60.9,218.3,54.2,216.3,48.1z"/>
	</g>
	<path class="st1" d="M38.8,220.2c-1.1-1.7-2.6-3.3-4.3-4.6c-1.8-1.3-3.8-2.4-6.3-3.2c-0.8-0.3-1.6-0.5-2.3-0.7
		c-0.7-0.2-1.5-0.3-2.3-0.4s-1.7-0.2-2.6-0.2c-0.9,0-2-0.1-3.2-0.1c-0.6,0-1.1,0-1.7,0c-0.6,0-1.1,0-1.7,0c-0.6,0-1.1,0.1-1.7,0.1
		c-0.6,0-1.1,0-1.7,0H0v0.8h6.6v40.7H0v0.8h10.1c0.6,0,1.2,0,1.9,0s1.3,0,2,0.1s1.3,0.1,2,0.1s1.3,0,1.9,0c1.4,0,2.6,0,3.7-0.1
		s2.1-0.1,2.9-0.2s1.8-0.3,2.6-0.5c0.8-0.2,1.8-0.6,2.7-1c1.7-0.7,3.3-1.6,4.8-2.8c1.5-1.2,2.8-2.6,3.9-4.2c1.1-1.6,2-3.5,2.6-5.5
		c0.6-2.1,0.9-4.4,0.9-7c0-2.3-0.3-4.4-0.8-6.5C40.8,223.8,39.9,221.9,38.8,220.2z M34.5,239.9c-0.5,2.2-1.4,4.4-2.6,6.6
		c-0.8,1.4-1.8,2.5-2.8,3.4c-1.1,0.9-2.2,1.5-3.4,2c-1.2,0.5-2.5,0.8-3.8,0.9c-1.3,0.1-2.7,0.2-4,0.2c-1.1,0-2.1,0-2.9-0.1
		s-1.7-0.1-2.3-0.2V212c0.8,0,1.5-0.1,2.3-0.1s1.7-0.1,2.7-0.1c3.3,0,6.1,0.5,8.4,1.5c2.3,1,4.1,2.4,5.4,4.2s2.3,4,2.9,6.5
		c0.6,2.6,0.9,5.4,0.9,8.5C35.2,235.2,35,237.7,34.5,239.9z M114.5,248.5l0.8,0.3c-0.1,0.5-0.3,1.1-0.5,1.7
		c-0.2,0.6-0.6,1.2-1.1,1.8c-0.5,0.6-1.1,1-1.9,1.4c-0.8,0.4-1.8,0.6-3,0.6c-3,0-5-0.6-6.2-1.7c-1.2-1.1-1.8-2.8-1.8-4.9v-18.8h-3.7
		v-0.8h3.7v-7.6c0.3,0.1,0.6,0.2,0.9,0.3s0.8,0.1,1.4,0.1c0.6,0,1.1-0.1,1.5-0.2c0.4-0.1,0.9-0.4,1.2-0.7v8.1h8.4v0.8h-8.4v19.4
		c0,1.1,0.1,2,0.3,2.7s0.5,1.2,0.9,1.6c0.4,0.4,0.7,0.6,1.2,0.7s0.8,0.2,1.2,0.2c1.4,0,2.5-0.5,3.4-1.5
		C113.7,250.9,114.2,249.8,114.5,248.5z M121.4,222.1c-0.6-0.6-0.9-1.4-0.9-2.2s0.3-1.6,0.9-2.2c0.6-0.6,1.4-0.9,2.2-0.9
		s1.6,0.3,2.2,0.9c0.6,0.6,0.9,1.4,0.9,2.2s-0.3,1.6-0.9,2.2c-0.6,0.6-1.4,0.9-2.2,0.9S122.1,222.7,121.4,222.1z M126.3,252.6h4.6
		v0.8h-14.2v-0.8h4.6v-23.8h-4.6V228h9.7V252.6z M162.7,252.6h4.6v0.8h-14.2v-0.8h4.6v-19.1c0-1.5-0.4-2.8-1.1-3.8
		c-0.7-1-1.9-1.5-3.4-1.5c-1.3,0-2.5,0.3-3.6,0.8c-1.1,0.5-2.1,1.3-3,2.3c-0.9,1-1.6,2.1-2,3.5c-0.5,1.3-0.7,2.8-0.7,4.4v13.4h4.6
		v0.8H134v-0.8h4.6v-23.8H134V228h9.5v6.3h0.1c0.2-0.5,0.6-1.2,1-2c0.4-0.8,1.1-1.6,1.9-2.3s1.8-1.4,3-1.9c1.2-0.5,2.6-0.8,4.3-0.8
		c2.6,0,4.7,0.6,6.4,1.9c1.6,1.3,2.5,3.3,2.5,6L162.7,252.6L162.7,252.6z M196.2,227.8c-0.7-0.3-1.4-0.5-2.2-0.5
		c-1.3,0-2.3,0.3-3.2,1s-1.5,1.3-1.9,2.1c-0.6-0.6-1.5-1.2-2.8-2c-1.3-0.7-2.8-1.1-4.6-1.1c-1.1,0-2.3,0.2-3.6,0.6
		c-1.2,0.4-2.4,1-3.4,1.8s-1.9,1.7-2.6,2.8c-0.7,1.1-1,2.4-1,3.7c0,2.7,1.1,4.8,3.4,6.4c-0.5,0.2-1.1,0.5-1.8,0.9
		c-0.6,0.4-1.3,0.8-1.8,1.4c-0.6,0.6-1.1,1.2-1.4,2c-0.4,0.8-0.6,1.7-0.6,2.8c0,2,0.6,3.5,1.9,4.4c1.2,0.9,3.2,1.3,5.8,1.3v0.1
		c-0.8,0.3-1.7,0.7-2.5,1.2c-0.8,0.5-1.6,1-2.2,1.7s-1.2,1.4-1.6,2.2c-0.4,0.9-0.6,1.8-0.6,2.8c0,1.1,0.3,2,0.8,2.9s1.3,1.6,2.2,2.2
		c0.9,0.6,2.1,1.1,3.3,1.5c1.3,0.4,2.7,0.5,4.2,0.5c1.7,0,3.4-0.3,5-0.9c1.6-0.6,3-1.4,4.3-2.4c1.2-1,2.2-2.3,3-3.7s1.1-3,1.1-4.7
		c0-2.9-0.8-4.9-2.5-6.2c-1.6-1.3-3.8-2-6.6-2h-9.4c-0.5,0-1,0-1.5-0.1c-0.5-0.1-0.9-0.2-1.3-0.4c-0.4-0.2-0.7-0.5-0.9-0.9
		c-0.2-0.4-0.4-0.9-0.4-1.5c0-0.6,0.1-1.2,0.4-1.7c0.3-0.5,0.6-0.9,1-1.3c0.4-0.4,0.9-0.6,1.4-0.9c0.5-0.2,1-0.5,1.4-0.6
		c0.5,0.3,1.3,0.6,2.4,1s2.2,0.6,3.6,0.6c1.3,0,2.7-0.2,3.9-0.6c1.3-0.4,2.4-1,3.4-1.8s1.8-1.6,2.3-2.6s0.9-2.1,0.9-3.3
		c0-1.4-0.3-2.6-0.8-3.6s-1-1.6-1.4-2c0.3-0.4,0.7-0.8,1.1-1.2c0.4-0.3,0.8-0.5,1.2-0.5c0.4,0,0.7,0.2,0.9,0.5
		c0.2,0.3,0.4,0.6,0.6,1c0.2,0.4,0.4,0.7,0.6,1c0.2,0.3,0.6,0.5,1.2,0.5c0.5,0,0.9-0.2,1.4-0.5c0.5-0.4,0.7-0.9,0.7-1.6
		C197.2,228.8,196.9,228.1,196.2,227.8z M184.1,255.2c2.1,0,3.7,0.5,5,1.4c1.2,0.9,1.8,2.5,1.8,4.7c0,1-0.2,2-0.7,3
		c-0.5,1-1.1,1.8-2,2.5c-0.9,0.7-1.9,1.3-3,1.8c-1.2,0.4-2.5,0.6-3.9,0.6c-0.9,0-1.8-0.1-2.8-0.4s-1.8-0.6-2.6-1.2
		c-0.8-0.6-1.4-1.3-1.9-2.2c-0.5-0.9-0.7-2.1-0.7-3.5c0-1,0.1-1.9,0.4-2.6c0.3-0.7,0.6-1.3,1-1.8c0.4-0.5,0.9-0.9,1.4-1.3
		c0.5-0.3,1.1-0.7,1.6-1L184.1,255.2L184.1,255.2z M186,241.8c-0.9,1.3-2.3,1.9-4.4,1.9c-1.2,0-2.2-0.2-3-0.5
		c-0.8-0.4-1.4-0.9-1.9-1.6c-0.5-0.7-0.8-1.5-1-2.5c-0.2-1-0.3-2-0.3-3.2c0-2.8,0.5-4.8,1.5-6s2.5-1.8,4.6-1.8
		c1.3,0,2.3,0.2,3.1,0.7s1.3,1.1,1.7,1.9c0.4,0.8,0.6,1.6,0.7,2.5s0.2,1.9,0.2,2.8C187.3,238.6,186.9,240.5,186,241.8z M216.2,248.5
		l0.8,0.3c-0.1,0.5-0.3,1.1-0.5,1.7c-0.2,0.6-0.6,1.2-1.1,1.8c-0.5,0.6-1.1,1-1.9,1.4c-0.8,0.4-1.8,0.6-3,0.6c-3,0-5-0.6-6.2-1.7
		c-1.2-1.1-1.8-2.8-1.8-4.9v-18.8h-3.7v-0.8h3.7v-7.6c0.3,0.1,0.6,0.2,0.9,0.3c0.3,0.1,0.8,0.1,1.4,0.1c0.6,0,1.1-0.1,1.5-0.2
		c0.4-0.1,0.9-0.4,1.2-0.7v8.1h8.4v0.8h-8.4v19.4c0,1.1,0.1,2,0.3,2.7s0.5,1.2,0.9,1.6c0.4,0.4,0.7,0.6,1.2,0.7s0.8,0.2,1.2,0.2
		c1.4,0,2.5-0.5,3.4-1.5C215.4,250.9,215.9,249.8,216.2,248.5z M242.2,231.1c-1.3-1.2-2.8-2.1-4.4-2.8c-1.6-0.7-3.2-1-4.8-1
		s-3.2,0.3-4.8,1c-1.6,0.7-3.1,1.6-4.4,2.8c-1.3,1.2-2.4,2.6-3.3,4.3c-0.9,1.7-1.3,3.5-1.3,5.4c0,1.9,0.4,3.6,1.2,5.2
		c0.8,1.6,1.8,3.1,3.1,4.3c1.3,1.2,2.8,2.2,4.4,2.9s3.4,1.1,5.1,1.1c1.7,0,3.4-0.4,5.1-1.1c1.7-0.7,3.1-1.7,4.4-2.9s2.3-2.7,3.1-4.3
		c0.8-1.6,1.2-3.4,1.2-5.2c0-1.9-0.4-3.7-1.3-5.4C244.6,233.7,243.5,232.3,242.2,231.1z M240.1,247.5c-0.4,1.7-1,2.9-1.7,3.8
		s-1.5,1.5-2.5,1.8c-1,0.3-2,0.4-3,0.4s-2.1-0.1-3-0.4c-1-0.3-1.8-0.9-2.5-1.8s-1.3-2.2-1.7-3.8s-0.6-3.9-0.6-6.7
		c0-2.4,0.2-4.4,0.5-6s0.8-2.9,1.5-3.9c0.6-1,1.5-1.7,2.5-2.2s2.1-0.6,3.5-0.6c1.3,0,2.5,0.2,3.5,0.6s1.8,1.2,2.5,2.2
		c0.6,1,1.1,2.3,1.5,3.9c0.3,1.6,0.5,3.6,0.5,6C240.8,243.6,240.5,245.8,240.1,247.5z M281.9,252.6v0.8h-14.2v-0.8h4.6v-19.1
		c0-1.5-0.4-2.8-1.1-3.8c-0.7-1-1.9-1.5-3.4-1.5c-1.3,0-2.5,0.3-3.6,0.8c-1.1,0.5-2.1,1.3-3,2.3s-1.5,2.1-2,3.5
		c-0.5,1.3-0.7,2.8-0.7,4.4v13.4h4.6v0.8h-14.2v-0.8h4.6v-23.8h-4.6V228h9.5v6.3h0.1c0.2-0.5,0.6-1.2,1-2c0.5-0.8,1.1-1.6,1.9-2.3
		c0.8-0.8,1.8-1.4,3-1.9c1.2-0.5,2.6-0.8,4.3-0.8c2.6,0,4.7,0.6,6.4,1.9c1.6,1.3,2.5,3.3,2.5,6v17.3L281.9,252.6L281.9,252.6z
		 M95.4,231.2c0.1,0.2,0.1,0.5,0.1,0.8c0,1.8-1.5,3.3-3.3,3.3s-3.3-1.5-3.3-3.3c0-1.1,0.6-2.1,1.4-2.7c-0.3-0.5-0.9-0.7-1.7-0.7
		c-0.6,0-1.3,0.2-2,0.7c-0.7,0.5-1.4,1.2-2,2.1c-0.6,0.9-1.1,2-1.5,3.3c-0.4,1.3-0.6,2.8-0.6,4.4v13.6h5.2v0.8H72.8v-0.8h4.6v-23.8
		h-4.6v-0.8h9.5v6h0.1c0.2-0.6,0.4-1.3,0.8-2s0.9-1.5,1.5-2.2c0.6-0.7,1.4-1.3,2.3-1.8c0.9-0.5,2-0.7,3.2-0.7c0.9,0,1.7,0.1,2.4,0.4
		c0.7,0.3,1.2,0.7,1.7,1.1C94.6,229.3,95.2,230.1,95.4,231.2z M69.1,252.9c-0.5,0.2-0.9,0.2-1.4,0.2c-0.7,0-1.2-0.2-1.5-0.6
		c-0.4-0.4-0.5-1.2-0.5-2.3v-14.8c0-1.1-0.2-2.1-0.5-3c-0.3-1-0.9-1.8-1.6-2.6s-1.7-1.4-3-1.8c-1.2-0.5-2.8-0.7-4.6-0.7
		c-1.5,0-2.8,0.2-4,0.5c-1.2,0.4-2.1,0.8-2.9,1.5c-1.5,1.1-2,2.5-2.1,3.2c0,0,0,0,0,0.1c-0.1,0.4-0.1,0.7-0.1,0.7c0,0,0,0,0,0
		c0.1,1.8,1.5,3.2,3.3,3.2c1.8,0,3.3-1.5,3.3-3.3c0-1.3-0.7-2.3-1.8-2.9c0.2-0.7,0.6-1.2,1.2-1.5c0.9-0.5,1.9-0.7,3.2-0.7
		c1,0,1.8,0.1,2.4,0.4s1.1,0.7,1.4,1.2c0.3,0.5,0.5,1.2,0.6,1.9s0.2,1.6,0.2,2.5c0,1.2-0.1,2.1-0.3,2.8c-0.2,0.7-0.5,1.3-1,1.7
		c-0.5,0.5-1.1,0.8-2,1.2s-1.9,0.7-3.2,1.1c-1.1,0.4-2.2,0.7-3.3,1s-2.1,0.7-3,1.2c-0.9,0.5-1.6,1.1-2.2,2c-0.6,0.8-0.8,1.9-0.8,3.3
		c0,0.6,0.1,1.2,0.3,1.9c0.2,0.7,0.5,1.3,1.1,1.9c0.6,0.5,1.3,1,2.3,1.4c1,0.4,2.3,0.6,4,0.6c1.5,0,2.7-0.2,3.6-0.5
		c0.9-0.3,1.7-0.8,2.3-1.2c0.6-0.5,1-1,1.3-1.5c0.3-0.5,0.5-1,0.6-1.3h0.1c0.3,1.5,0.9,2.6,1.8,3.4s2.2,1.2,4.1,1.2
		c1,0,1.9-0.1,2.6-0.4c0.7-0.3,1.3-0.6,1.8-1l-0.5-0.6C70.1,252.5,69.6,252.7,69.1,252.9z M60.6,244.9c0,0.8-0.1,1.7-0.2,2.6
		s-0.4,1.9-0.8,2.7c-0.4,0.8-1,1.5-1.8,2.1c-0.8,0.5-1.9,0.8-3.2,0.8c-0.9,0-1.6-0.2-2.2-0.5c-0.6-0.3-1-0.7-1.3-1.2
		c-0.3-0.5-0.5-1.1-0.6-1.7s-0.2-1.2-0.2-1.8c0-1.4,0.3-2.5,1-3.5s1.6-1.6,2.9-2.2l4.4-1.8c1.2-0.5,1.9-1,2-1.5h0.1V244.9z
		 M122.9,191.7c0-1.9-0.4-3.7-1.3-5.4c-0.9-1.7-1.9-3.1-3.3-4.3c-1.3-1.2-2.8-2.1-4.4-2.8c-1.6-0.7-3.2-1-4.8-1s-3.2,0.3-4.8,1
		s-3.1,1.6-4.4,2.8c-1.3,1.2-2.4,2.6-3.3,4.3c-0.9,1.7-1.3,3.5-1.3,5.4c0,1.9,0.4,3.6,1.2,5.2c0.8,1.6,1.8,3.1,3.1,4.3
		c1.3,1.2,2.8,2.2,4.4,2.9s3.4,1.1,5.1,1.1s3.4-0.4,5.1-1.1c1.7-0.7,3.1-1.7,4.4-2.9s2.3-2.7,3.1-4.3
		C122.5,195.3,122.9,193.5,122.9,191.7z M116.3,198.4c-0.4,1.7-1,2.9-1.7,3.8s-1.5,1.5-2.5,1.8c-0.9,0.3-2,0.4-3,0.4s-2.1-0.1-3-0.4
		s-1.8-0.9-2.5-1.8s-1.3-2.2-1.7-3.8s-0.6-3.9-0.6-6.7c0-2.4,0.2-4.4,0.5-6c0.3-1.6,0.8-2.9,1.4-3.9s1.5-1.7,2.5-2.2
		s2.1-0.6,3.5-0.6c1.3,0,2.5,0.2,3.5,0.6s1.8,1.2,2.5,2.2c0.6,1,1.1,2.3,1.4,3.9c0.3,1.6,0.5,3.6,0.5,6
		C116.9,194.5,116.7,196.7,116.3,198.4z M126,179.8h-4v-0.8h14.3v0.8h-4.9l6.6,18.5l6.2-14.6l-1.5-3.9h-2.5v-0.8h11.8v0.8h-4
		l6.9,18.4l7.4-18.4h-5.6v-0.8h9.7v0.8h-3.1l-10.6,26.5l-8.1-21.5l-9,21.5L126,179.8z M177.8,204.7c1-0.3,1.7-0.8,2.3-1.2
		s1-1,1.3-1.5c0.3-0.5,0.5-1,0.6-1.3h0.1c0.3,1.5,0.9,2.6,1.8,3.4s2.2,1.2,4.1,1.2c1,0,1.9-0.1,2.6-0.4c0.7-0.3,1.3-0.6,1.8-1
		L192,203c-0.4,0.3-0.9,0.5-1.4,0.7c-0.5,0.2-0.9,0.2-1.4,0.2c-0.7,0-1.2-0.2-1.5-0.6c-0.4-0.4-0.5-1.2-0.5-2.3v-14.8
		c0-1.1-0.2-2.1-0.5-3c-0.3-1-0.9-1.8-1.6-2.6s-1.7-1.4-3-1.8c-1.2-0.5-2.8-0.7-4.6-0.7c-1.5,0-2.8,0.2-4,0.5
		c-1.2,0.4-2.1,0.8-2.9,1.5c-1.5,1.1-2,2.5-2.1,3.2c0,0,0,0,0,0.1c-0.1,0.4-0.1,0.7-0.1,0.7c0,0,0,0,0,0c0.1,1.8,1.5,3.2,3.3,3.2
		c1.8,0,3.3-1.5,3.3-3.3c0-1.3-0.7-2.3-1.8-2.9c0.2-0.7,0.6-1.2,1.2-1.5c0.9-0.5,1.9-0.7,3.2-0.7c1,0,1.8,0.1,2.4,0.4s1,0.7,1.4,1.2
		c0.3,0.5,0.5,1.2,0.6,1.9s0.2,1.6,0.2,2.5c0,1.2-0.1,2.1-0.3,2.8s-0.5,1.3-1,1.7c-0.5,0.5-1.1,0.8-2,1.2c-0.9,0.3-1.9,0.7-3.2,1.1
		c-1.1,0.4-2.2,0.7-3.3,1s-2.1,0.7-3,1.2c-0.9,0.5-1.6,1.1-2.2,2c-0.6,0.8-0.8,1.9-0.8,3.3c0,0.6,0.1,1.2,0.3,1.9
		c0.2,0.7,0.5,1.3,1.1,1.9c0.6,0.5,1.3,1,2.3,1.4c1,0.4,2.3,0.6,4,0.6C175.6,205.2,176.8,205,177.8,204.7z M172.5,202.3
		c-0.3-0.5-0.5-1.1-0.6-1.7s-0.2-1.2-0.2-1.8c0-1.4,0.3-2.5,1-3.5s1.6-1.6,2.9-2.2l4.4-1.8c1.2-0.5,1.9-1,2-1.5h0.1v5.9
		c0,0.8-0.1,1.7-0.2,2.6c-0.1,1-0.4,1.9-0.8,2.7c-0.4,0.8-1,1.5-1.8,2.1c-0.8,0.5-1.9,0.8-3.2,0.8c-0.9,0-1.6-0.2-2.2-0.5
		C173.2,203.2,172.8,202.8,172.5,202.3z M208.3,204.3h-14.2v-0.8h4.6v-23.8h-4.6v-0.8h9.5v6.3h0.1c0.2-0.5,0.6-1.2,1-2
		c0.5-0.8,1.1-1.6,1.9-2.3s1.8-1.4,3-1.9c1.2-0.5,2.6-0.8,4.3-0.8c2.6,0,4.7,0.6,6.4,1.9c1.6,1.3,2.5,3.3,2.5,6v17.3h4.6v0.8h-14.2
		v-0.8h4.6v-19.1c0-1.5-0.4-2.8-1.1-3.8c-0.7-1-1.9-1.5-3.4-1.5c-1.3,0-2.5,0.3-3.6,0.8c-1.1,0.5-2.1,1.3-3,2.3s-1.5,2.1-2,3.5
		c-0.5,1.3-0.7,2.8-0.7,4.4v13.4h4.6L208.3,204.3L208.3,204.3z M79.9,185.6c0.6,1.1,1,2.6,1.2,4.6l0.4,5.4c0.1,1.5,0.3,2.8,0.6,4
		c0.3,1.1,0.8,2.1,1.4,2.9c0.6,0.8,1.5,1.4,2.5,1.8c1.1,0.4,2.4,0.6,3.9,0.6c0.8,0,1.5,0,2.1-0.1s1.1-0.2,1.5-0.4
		c0.4-0.2,0.7-0.3,1-0.5c0.3-0.2,0.5-0.4,0.7-0.5l-0.5-0.6c-0.4,0.4-0.9,0.8-1.5,1c-0.6,0.2-1.1,0.3-1.6,0.3c-1.1,0-2-0.4-2.5-1.2
		s-0.9-1.8-1.1-2.8c-0.2-0.7-0.3-1.5-0.3-2.5s-0.1-2-0.2-3.1s-0.1-2.1-0.2-3.1s-0.3-1.9-0.5-2.7c-0.4-1.4-1.1-2.5-2-3.3
		c-0.9-0.9-2-1.5-3.1-2c-1.1-0.5-2.2-0.9-3.3-1.1s-1.9-0.4-2.6-0.5v-0.1c2.3-0.3,4.1-0.8,5.5-1.6s2.4-1.7,3.2-2.7
		c0.7-1,1.2-1.9,1.4-2.9c0.2-0.9,0.3-1.7,0.3-2.3c0-1.2-0.3-2.5-0.9-3.8c-0.6-1.4-1.6-2.6-2.9-3.6c-1.6-1.2-3.2-2-5-2.2
		s-3.8-0.4-6.2-0.4c-0.5,0-0.9,0-1.4,0s-0.9,0-1.4,0c-0.5,0-0.9,0.1-1.4,0.1c-0.5,0-0.9,0-1.4,0H54.1v0.8h6.6v40.7h-6.6v0.8h19.1
		v-0.8h-6.6v-21.5h5.9c0.7,0,1.5,0,2.4,0.1s1.8,0.4,2.6,0.9C78.5,183.7,79.2,184.5,79.9,185.6z M72.1,181.2h-5.5v-18.4
		c0.5-0.1,1.1-0.1,1.9-0.1c0.7,0,1.5,0,2.2,0c1,0,2.1,0.1,3.1,0.3c1.1,0.2,2,0.6,2.9,1.2c0.9,0.6,1.6,1.6,2.1,2.8
		c0.5,1.2,0.8,2.9,0.8,5c0,1.8-0.2,3.3-0.5,4.5c-0.4,1.2-0.9,2.1-1.5,2.8c-0.6,0.7-1.4,1.2-2.4,1.5
		C74.2,181.1,73.2,181.2,72.1,181.2z"/>
</g>
</svg>
