<?xml version="1.0" encoding="utf-8"?>
<!-- Generator: Adobe Illustrator 23.0.4, SVG Export Plug-In . SVG Version: 6.00 Build 0)  -->
<svg version="1.1" id="Layer_1" xmlns="http://www.w3.org/2000/svg" xmlns:xlink="http://www.w3.org/1999/xlink" x="0px" y="0px"
	 viewBox="0 0 446.04 418.73" style="enable-background:new 0 0 446.04 418.73;" xml:space="preserve">
<style type="text/css">
	.st0{fill:#F9B11E;}
	.st1{fill:#FFFFFF;}
</style>
<g>
	<g>
		<path class="st0" d="M298.34,130.22c-1.98-6.17-4.69-11.78-8.13-16.84c-3.44-5.06-7.51-9.53-12.22-13.39
			c-4.71-3.86-9.79-7.12-15.24-9.78c-5.45-2.66-11.15-4.67-17.09-6.04c-5.94-1.36-11.86-2.04-17.77-2.04H216.6v3.53h11.29
			c8.83,0,15.93,1.54,21.32,4.63c5.39,3.08,9.54,7.53,12.46,13.34c2.92,5.81,4.87,12.85,5.84,21.13c0.97,8.28,1.46,13.89,1.46,24.35
			v5.31c0,10.45-0.49,16.07-1.46,24.35c-0.97,8.28-2.92,15.32-5.84,21.13c-2.92,5.81-7.08,10.26-12.46,13.34
			c-5.39,3.08-12.5,4.62-21.32,4.62h-5.66c-3.25-0.17-6.17-2.79-7.01-6.26c-0.55-2.29-0.78-5.27-0.78-8.91v-17.93
			c0-4.41-0.63-8.37-1.9-11.88c-1.27-3.5-2.99-6.62-5.16-9.35c-2.18-2.73-4.71-5.06-7.59-7.01c-2.89-1.95-5.97-3.57-9.25-4.87
			c-3.28-1.3-6.65-2.29-10.13-2.97c-3.47-0.68-6.86-1.12-10.17-1.31c5.26-0.26,10.09-1.27,14.51-3.02
			c4.41-1.75,8.21-4.06,11.39-6.91c3.18-2.86,5.66-6.13,7.45-9.83c1.78-3.7,2.68-7.63,2.68-11.78c0-4.93-1.2-9.46-3.6-13.58
			c-2.4-4.12-5.83-7.68-10.27-10.66c-4.45-2.98-9.8-5.31-16.07-6.96c-6.26-1.66-13.23-2.48-20.88-2.48h-11.83l0.01,3.53h7.15
			c4.48,0,8.31,0.63,11.49,1.9c3.18,1.27,5.78,3.21,7.79,5.84c2.01,2.63,3.49,6.02,4.43,10.18c0.94,4.15,1.41,5.34,1.41,11.05
			c0,6.82-0.47,12.19-1.41,16.25c-0.94,4.06-2.37,8.03-4.28,10.24c-1.92,2.21-4.32,2.81-7.2,3.49c-2.89,0.68-6.31,1.02-10.27,1.02
			h-9.14v3.53h9.14c4.22,0,8.06,0.47,11.54,1.41c3.47,0.94,6.44,2.43,8.91,4.48c2.47,2.04,4.38,4.72,5.74,8.03
			c1.36,3.31,2.04,7.34,2.04,12.07v11.34c0,6.69,1.01,12.25,3.02,16.7c2.01,4.45,4.71,8.02,8.08,10.71
			c3.37,2.7,7.29,4.61,11.73,5.74c2.53,0.65,7.59,1.61,12.82,1.72v0.01h11.29c5.91,0,11.83-0.68,17.77-2.04
			c5.94-1.36,11.64-3.37,17.09-6.04c5.45-2.66,10.53-5.92,15.24-9.78c4.71-3.86,8.78-8.33,12.22-13.39
			c3.44-5.06,6.15-10.68,8.13-16.84c1.98-6.17,2.97-12.85,2.97-20.06v-2.95C301.31,143.07,300.32,136.38,298.34,130.22z"/>
	</g>
	<path class="st1" d="M120.83,302.29c-1.13-1.74-2.58-3.28-4.34-4.61c-1.76-1.33-3.85-2.39-6.27-3.18
		c-0.83-0.28-1.61-0.51-2.35-0.68c-0.73-0.18-1.51-0.32-2.32-0.42c-0.81-0.1-1.69-0.17-2.62-0.21c-0.93-0.04-1.99-0.06-3.18-0.06
		c-0.55,0-1.11,0.01-1.66,0.03c-0.56,0.02-1.11,0.03-1.66,0.03c-0.56,0.04-1.11,0.07-1.66,0.09c-0.56,0.02-1.11,0.03-1.67,0.03
		H82.05v0.83h6.6v40.66h-6.6v0.83h10.11c0.59,0,1.22,0.01,1.87,0.03c0.65,0.02,1.32,0.05,1.99,0.09c0.67,0.04,1.35,0.07,2.02,0.09
		c0.67,0.02,1.31,0.03,1.9,0.03c1.39,0,2.62-0.02,3.69-0.06c1.07-0.04,2.05-0.12,2.94-0.24c0.89-0.12,1.76-0.3,2.62-0.53
		c0.85-0.24,1.75-0.57,2.7-1.01c1.7-0.71,3.3-1.65,4.78-2.82c1.49-1.17,2.78-2.56,3.89-4.16c1.11-1.61,1.98-3.45,2.62-5.53
		c0.63-2.08,0.95-4.43,0.95-7.04c0-2.26-0.27-4.42-0.8-6.48C122.8,305.94,121.96,304.04,120.83,302.29z M116.55,322.06
		c-0.5,2.24-1.38,4.43-2.64,6.57c-0.83,1.39-1.77,2.51-2.82,3.36c-1.05,0.85-2.18,1.51-3.39,1.96c-1.21,0.45-2.48,0.75-3.81,0.89
		c-1.33,0.14-2.67,0.21-4.01,0.21c-1.07,0-2.05-0.02-2.94-0.06c-0.89-0.04-1.67-0.1-2.35-0.18v-40.66c0.75-0.04,1.54-0.08,2.35-0.12
		c0.81-0.04,1.71-0.06,2.7-0.06c3.33,0,6.12,0.5,8.38,1.49c2.26,0.99,4.07,2.39,5.44,4.19c1.37,1.8,2.35,3.98,2.94,6.54
		c0.59,2.56,0.89,5.4,0.89,8.53C117.3,317.37,117.05,319.82,116.55,322.06z M196.53,330.62l0.83,0.3c-0.12,0.51-0.3,1.09-0.53,1.72
		c-0.24,0.63-0.6,1.23-1.1,1.81c-0.49,0.57-1.14,1.05-1.93,1.42c-0.79,0.38-1.78,0.56-2.96,0.56c-2.96,0-5.03-0.57-6.19-1.72
		c-1.17-1.14-1.75-2.76-1.75-4.86v-18.84h-3.67v-0.83h3.67v-7.64c0.31,0.12,0.61,0.22,0.89,0.3c0.28,0.08,0.75,0.12,1.42,0.12
		c0.59,0,1.11-0.07,1.54-0.21c0.43-0.14,0.85-0.36,1.24-0.68v8.12h8.41v0.83H188v19.38c0,1.11,0.11,2.01,0.33,2.7
		c0.22,0.69,0.5,1.23,0.86,1.6c0.36,0.38,0.74,0.62,1.16,0.74c0.42,0.12,0.82,0.18,1.22,0.18c1.38,0,2.5-0.5,3.35-1.51
		C195.75,333.08,196.3,331.93,196.53,330.62z M203.5,304.24c-0.61-0.61-0.92-1.35-0.92-2.22c0-0.87,0.31-1.61,0.92-2.22
		c0.61-0.61,1.35-0.92,2.22-0.92c0.87,0,1.61,0.31,2.22,0.92c0.61,0.61,0.92,1.35,0.92,2.22c0,0.87-0.31,1.61-0.92,2.22
		c-0.61,0.61-1.35,0.92-2.22,0.92C204.85,305.16,204.11,304.86,203.5,304.24z M208.39,334.77h4.56v0.83h-14.22v-0.83h4.56v-23.76
		h-4.56v-0.83h9.66V334.77z M244.77,334.77h4.56v0.83h-14.22v-0.83h4.56v-19.14c0-1.54-0.37-2.8-1.1-3.79
		c-0.73-0.99-1.87-1.48-3.41-1.48c-1.26,0-2.47,0.28-3.61,0.83c-1.15,0.55-2.15,1.32-3.02,2.31c-0.87,0.99-1.55,2.15-2.04,3.5
		c-0.5,1.34-0.74,2.81-0.74,4.38v13.39h4.56v0.83h-14.22v-0.83h4.56v-23.76h-4.56v-0.83h9.54v6.34h0.12
		c0.24-0.51,0.58-1.16,1.04-1.96c0.45-0.79,1.08-1.56,1.87-2.31c0.79-0.75,1.78-1.39,2.96-1.93c1.19-0.53,2.63-0.8,4.33-0.8
		c2.61,0,4.73,0.63,6.37,1.9c1.64,1.26,2.46,3.28,2.46,6.04V334.77z M278.29,309.91c-0.67-0.34-1.4-0.5-2.19-0.5
		c-1.27,0-2.32,0.32-3.17,0.95c-0.85,0.63-1.49,1.32-1.93,2.07c-0.59-0.59-1.53-1.24-2.81-1.96c-1.28-0.71-2.82-1.07-4.59-1.07
		c-1.15,0-2.34,0.2-3.58,0.59c-1.24,0.4-2.38,0.98-3.41,1.75c-1.03,0.77-1.88,1.71-2.55,2.81c-0.67,1.11-1.01,2.35-1.01,3.73
		c0,2.69,1.15,4.82,3.44,6.4c-0.51,0.24-1.1,0.53-1.75,0.89c-0.65,0.36-1.27,0.82-1.84,1.39c-0.57,0.57-1.06,1.24-1.45,2.01
		c-0.39,0.77-0.59,1.69-0.59,2.76c0,2.05,0.62,3.51,1.87,4.36c1.24,0.85,3.17,1.27,5.78,1.27v0.12c-0.83,0.32-1.66,0.71-2.49,1.19
		c-0.83,0.47-1.57,1.04-2.22,1.69c-0.65,0.65-1.18,1.4-1.6,2.25c-0.42,0.85-0.62,1.79-0.62,2.81c0,1.07,0.27,2.03,0.8,2.9
		c0.53,0.87,1.27,1.61,2.22,2.22c0.95,0.61,2.06,1.1,3.35,1.45c1.28,0.36,2.7,0.53,4.24,0.53c1.7,0,3.36-0.29,4.98-0.86
		c1.62-0.57,3.05-1.38,4.3-2.43c1.24-1.05,2.24-2.28,2.99-3.7c0.75-1.42,1.13-3,1.13-4.74c0-2.85-0.82-4.93-2.46-6.25
		c-1.64-1.32-3.84-1.99-6.61-1.99h-9.36c-0.51,0-1.01-0.04-1.48-0.12c-0.47-0.08-0.9-0.22-1.27-0.41c-0.38-0.2-0.68-0.49-0.92-0.89
		c-0.24-0.39-0.36-0.89-0.36-1.48c0-0.63,0.14-1.19,0.41-1.69c0.28-0.49,0.62-0.92,1.04-1.27c0.42-0.36,0.87-0.65,1.36-0.89
		c0.49-0.24,0.96-0.45,1.39-0.65c0.55,0.28,1.34,0.6,2.37,0.98c1.03,0.38,2.23,0.56,3.61,0.56c1.34,0,2.66-0.21,3.94-0.62
		c1.28-0.42,2.41-1,3.38-1.75c0.97-0.75,1.75-1.62,2.34-2.61c0.59-0.99,0.89-2.07,0.89-3.26c0-1.42-0.28-2.61-0.83-3.56
		c-0.55-0.95-1.01-1.62-1.36-2.01c0.32-0.43,0.68-0.82,1.1-1.16c0.41-0.34,0.82-0.5,1.21-0.5c0.39,0,0.69,0.16,0.89,0.47
		c0.2,0.32,0.38,0.65,0.56,1.01c0.18,0.36,0.39,0.69,0.62,1.01c0.24,0.32,0.63,0.47,1.18,0.47c0.47,0,0.94-0.18,1.39-0.53
		c0.45-0.36,0.68-0.89,0.68-1.6C279.3,310.97,278.96,310.25,278.29,309.91z M266.14,337.38c2.09,0,3.74,0.46,4.95,1.39
		c1.21,0.93,1.81,2.5,1.81,4.71c0,1.03-0.23,2.02-0.68,2.96c-0.45,0.95-1.11,1.79-1.96,2.52c-0.85,0.73-1.86,1.31-3.02,1.75
		c-1.16,0.43-2.46,0.65-3.88,0.65c-0.91,0-1.84-0.12-2.79-0.36c-0.95-0.24-1.81-0.64-2.58-1.22c-0.77-0.57-1.4-1.32-1.9-2.25
		c-0.49-0.93-0.74-2.1-0.74-3.53c0-1.03,0.13-1.89,0.38-2.58c0.26-0.69,0.59-1.29,1.01-1.81c0.41-0.51,0.89-0.94,1.42-1.27
		c0.53-0.34,1.06-0.66,1.57-0.98H266.14z M268.04,323.95c-0.87,1.28-2.33,1.93-4.38,1.93c-1.23,0-2.23-0.18-3.02-0.53
		c-0.79-0.36-1.42-0.88-1.9-1.57c-0.47-0.69-0.8-1.51-0.98-2.46c-0.18-0.95-0.27-2.01-0.27-3.2c0-2.8,0.51-4.82,1.54-6.04
		c1.03-1.22,2.55-1.84,4.56-1.84c1.3,0,2.34,0.24,3.11,0.71c0.77,0.47,1.34,1.1,1.72,1.87c0.37,0.77,0.62,1.62,0.74,2.55
		c0.12,0.93,0.18,1.85,0.18,2.75C269.34,320.73,268.91,322.67,268.04,323.95z M298.2,330.62l0.83,0.3c-0.12,0.51-0.3,1.09-0.53,1.72
		c-0.24,0.63-0.6,1.23-1.1,1.81c-0.49,0.57-1.14,1.05-1.93,1.42c-0.79,0.38-1.78,0.56-2.96,0.56c-2.96,0-5.03-0.57-6.19-1.72
		c-1.17-1.14-1.75-2.76-1.75-4.86v-18.84h-3.67v-0.83h3.67v-7.64c0.31,0.12,0.61,0.22,0.89,0.3c0.28,0.08,0.75,0.12,1.42,0.12
		c0.59,0,1.11-0.07,1.54-0.21c0.43-0.14,0.85-0.36,1.24-0.68v8.12h8.41v0.83h-8.41v19.38c0,1.11,0.11,2.01,0.33,2.7
		c0.22,0.69,0.5,1.23,0.86,1.6c0.36,0.38,0.74,0.62,1.16,0.74c0.42,0.12,0.82,0.18,1.22,0.18c1.38,0,2.5-0.5,3.35-1.51
		C297.42,333.08,297.96,331.93,298.2,330.62z M324.2,313.23c-1.32-1.21-2.81-2.14-4.44-2.81c-1.64-0.67-3.25-1.01-4.83-1.01
		c-1.58,0-3.19,0.34-4.83,1.01c-1.64,0.67-3.12,1.61-4.44,2.81c-1.32,1.21-2.41,2.64-3.26,4.3c-0.85,1.66-1.27,3.46-1.27,5.39
		c0,1.86,0.39,3.6,1.18,5.24c0.79,1.64,1.83,3.07,3.11,4.3c1.28,1.23,2.75,2.19,4.41,2.9c1.66,0.71,3.36,1.07,5.1,1.07
		c1.74,0,3.44-0.36,5.1-1.07c1.66-0.71,3.13-1.68,4.41-2.9c1.28-1.22,2.32-2.66,3.11-4.3c0.79-1.64,1.18-3.39,1.18-5.24
		c0-1.94-0.43-3.73-1.27-5.39C326.61,315.87,325.52,314.44,324.2,313.23z M322.15,329.61c-0.44,1.66-1.01,2.93-1.72,3.82
		c-0.71,0.89-1.54,1.47-2.49,1.75c-0.95,0.28-1.96,0.42-3.02,0.42s-2.07-0.14-3.02-0.42c-0.95-0.28-1.78-0.86-2.49-1.75
		c-0.71-0.89-1.28-2.16-1.72-3.82c-0.44-1.66-0.65-3.89-0.65-6.7c0-2.37,0.16-4.36,0.47-5.96c0.31-1.6,0.8-2.9,1.45-3.91
		c0.65-1.01,1.47-1.73,2.46-2.16c0.99-0.43,2.15-0.65,3.5-0.65c1.34,0,2.51,0.22,3.5,0.65c0.99,0.43,1.81,1.16,2.46,2.16
		c0.65,1.01,1.14,2.31,1.45,3.91c0.32,1.6,0.47,3.58,0.47,5.96C322.81,325.72,322.59,327.95,322.15,329.61z M363.99,334.77v0.83
		h-14.22v-0.83h4.56v-19.14c0-1.54-0.37-2.8-1.1-3.79c-0.73-0.99-1.87-1.48-3.41-1.48c-1.26,0-2.47,0.28-3.61,0.83
		c-1.15,0.55-2.15,1.32-3.02,2.31c-0.87,0.99-1.55,2.15-2.04,3.5c-0.5,1.34-0.74,2.81-0.74,4.38v13.39h4.56v0.83h-14.22v-0.83h4.56
		v-23.76h-4.56v-0.83h9.54v6.34h0.12c0.24-0.51,0.58-1.16,1.04-1.96c0.45-0.79,1.08-1.56,1.87-2.31c0.79-0.75,1.78-1.39,2.96-1.93
		c1.19-0.53,2.63-0.8,4.33-0.8c2.61,0,4.73,0.63,6.37,1.9c1.64,1.26,2.46,3.28,2.46,6.04v17.3H363.99z M177.42,313.38
		c0.06,0.24,0.1,0.5,0.1,0.76c0,1.82-1.47,3.29-3.29,3.29s-3.29-1.47-3.29-3.29c0-1.12,0.56-2.11,1.42-2.7
		c-0.33-0.46-0.88-0.72-1.72-0.72c-0.63,0-1.3,0.24-2.01,0.71c-0.71,0.47-1.37,1.17-1.99,2.07c-0.61,0.91-1.13,2.01-1.54,3.29
		c-0.41,1.28-0.62,2.76-0.62,4.41v13.57h5.16v0.83h-14.81v-0.83h4.56v-23.76h-4.56v-0.83h9.54v5.98h0.12
		c0.16-0.59,0.41-1.26,0.77-2.01c0.36-0.75,0.85-1.47,1.48-2.16c0.63-0.69,1.39-1.27,2.28-1.75c0.89-0.47,1.96-0.71,3.23-0.71
		c0.91,0,1.7,0.15,2.37,0.44c0.67,0.3,1.22,0.67,1.66,1.13C176.62,311.47,177.21,312.27,177.42,313.38z M151.2,335.01
		c-0.47,0.16-0.93,0.24-1.36,0.24c-0.67,0-1.18-0.2-1.54-0.59c-0.36-0.4-0.53-1.16-0.53-2.31v-14.75c0-1.07-0.16-2.08-0.47-3.05
		c-0.32-0.97-0.85-1.84-1.6-2.61c-0.75-0.77-1.74-1.38-2.96-1.84c-1.22-0.45-2.75-0.68-4.56-0.68c-1.5,0-2.83,0.18-4,0.53
		c-1.17,0.36-2.13,0.84-2.9,1.45c-1.51,1.15-1.99,2.45-2.15,3.24c0,0.02-0.01,0.04-0.01,0.07c-0.07,0.4-0.06,0.67-0.06,0.67
		c0,0.01,0.01,0.02,0.01,0.03c0.05,1.77,1.49,3.2,3.28,3.2c1.82,0,3.29-1.47,3.29-3.29c0-1.26-0.72-2.34-1.76-2.89
		c0.16-0.66,0.56-1.16,1.19-1.5c0.85-0.45,1.93-0.68,3.23-0.68c0.99,0,1.78,0.14,2.37,0.42c0.59,0.28,1.05,0.68,1.36,1.21
		c0.32,0.53,0.53,1.18,0.65,1.93c0.12,0.75,0.18,1.6,0.18,2.55c0,1.18-0.09,2.12-0.27,2.81c-0.18,0.69-0.5,1.27-0.98,1.72
		c-0.47,0.45-1.14,0.84-1.99,1.16c-0.85,0.32-1.93,0.69-3.23,1.13c-1.11,0.36-2.2,0.69-3.29,1.01c-1.09,0.32-2.07,0.72-2.96,1.22
		c-0.89,0.49-1.61,1.15-2.16,1.98c-0.55,0.83-0.83,1.94-0.83,3.32c0,0.59,0.09,1.23,0.27,1.93c0.18,0.69,0.54,1.31,1.1,1.87
		c0.55,0.55,1.32,1.02,2.31,1.39c0.99,0.38,2.31,0.56,3.97,0.56c1.46,0,2.67-0.17,3.61-0.5c0.95-0.34,1.71-0.75,2.28-1.24
		c0.57-0.49,1-1.01,1.27-1.54c0.28-0.53,0.49-0.98,0.65-1.33h0.12c0.32,1.46,0.9,2.6,1.75,3.41c0.85,0.81,2.22,1.21,4.12,1.21
		c1.03,0,1.9-0.15,2.61-0.44c0.71-0.3,1.32-0.64,1.84-1.04l-0.47-0.65C152.13,334.61,151.68,334.85,151.2,335.01z M142.67,327.01
		c0,0.79-0.07,1.67-0.21,2.64c-0.14,0.97-0.42,1.87-0.83,2.7c-0.42,0.83-1.03,1.52-1.84,2.07c-0.81,0.55-1.87,0.83-3.17,0.83
		c-0.91,0-1.65-0.16-2.22-0.47c-0.57-0.32-1.02-0.72-1.33-1.21c-0.32-0.49-0.53-1.06-0.65-1.69c-0.12-0.63-0.18-1.24-0.18-1.84
		c0-1.38,0.34-2.54,1.01-3.47c0.67-0.93,1.64-1.65,2.9-2.16l4.44-1.78c1.22-0.51,1.88-1.03,1.96-1.54h0.12V327.01z M204.92,273.79
		c0-1.94-0.43-3.73-1.27-5.39c-0.85-1.66-1.94-3.09-3.26-4.3c-1.32-1.21-2.81-2.14-4.44-2.81c-1.64-0.67-3.25-1.01-4.83-1.01
		c-1.58,0-3.19,0.34-4.83,1.01c-1.64,0.67-3.12,1.61-4.44,2.81c-1.32,1.21-2.41,2.64-3.26,4.3c-0.85,1.66-1.27,3.46-1.27,5.39
		c0,1.86,0.39,3.6,1.18,5.24c0.79,1.64,1.83,3.07,3.11,4.3c1.28,1.23,2.75,2.19,4.41,2.9c1.66,0.71,3.36,1.07,5.1,1.07
		c1.74,0,3.44-0.36,5.1-1.07c1.66-0.71,3.13-1.68,4.41-2.9c1.28-1.22,2.32-2.66,3.11-4.3C204.52,277.39,204.92,275.64,204.92,273.79
		z M198.34,280.48c-0.44,1.66-1.01,2.93-1.72,3.82c-0.71,0.89-1.54,1.47-2.49,1.75c-0.95,0.28-1.96,0.42-3.02,0.42
		s-2.07-0.14-3.02-0.42c-0.95-0.28-1.78-0.86-2.49-1.75c-0.71-0.89-1.28-2.16-1.72-3.82c-0.44-1.66-0.65-3.89-0.65-6.7
		c0-2.37,0.16-4.36,0.48-5.96c0.31-1.6,0.8-2.9,1.45-3.91c0.65-1.01,1.47-1.73,2.46-2.16c0.99-0.43,2.15-0.65,3.5-0.65
		c1.34,0,2.51,0.22,3.5,0.65c0.99,0.43,1.81,1.16,2.46,2.16c0.65,1.01,1.14,2.31,1.45,3.91c0.32,1.6,0.47,3.58,0.47,5.96
		C198.99,276.59,198.78,278.82,198.34,280.48z M208.05,261.88h-4.03v-0.83h14.28v0.83h-4.92l6.64,18.49l6.16-14.64l-1.48-3.85h-2.49
		v-0.83H234v0.83h-3.97l6.87,18.37l7.41-18.37h-5.57v-0.83h9.66v0.83h-3.14l-10.61,26.55l-8.06-21.51l-9.01,21.51L208.05,261.88z
		 M259.84,286.79c0.95-0.34,1.71-0.75,2.28-1.24c0.57-0.49,1-1.01,1.27-1.54c0.28-0.53,0.49-0.98,0.65-1.33h0.12
		c0.32,1.46,0.9,2.6,1.75,3.41c0.85,0.81,2.22,1.21,4.12,1.21c1.03,0,1.9-0.15,2.61-0.44c0.71-0.3,1.32-0.64,1.84-1.04l-0.47-0.65
		c-0.43,0.32-0.89,0.55-1.36,0.71c-0.47,0.16-0.93,0.24-1.36,0.24c-0.67,0-1.18-0.2-1.54-0.59c-0.36-0.39-0.53-1.16-0.53-2.31
		v-14.75c0-1.07-0.16-2.08-0.47-3.05c-0.32-0.97-0.85-1.84-1.6-2.61c-0.75-0.77-1.74-1.38-2.96-1.84c-1.22-0.45-2.75-0.68-4.56-0.68
		c-1.5,0-2.83,0.18-4,0.53c-1.17,0.36-2.13,0.84-2.9,1.45c-1.51,1.15-1.99,2.45-2.15,3.24c0,0.02-0.01,0.04-0.01,0.07
		c-0.07,0.4-0.06,0.67-0.06,0.67c0,0.01,0.01,0.02,0.01,0.03c0.05,1.77,1.49,3.2,3.28,3.2c1.82,0,3.29-1.47,3.29-3.29
		c0-1.26-0.72-2.34-1.76-2.89c0.16-0.66,0.56-1.16,1.19-1.5c0.85-0.45,1.93-0.68,3.23-0.68c0.99,0,1.78,0.14,2.37,0.42
		c0.59,0.28,1.05,0.68,1.36,1.21c0.32,0.53,0.53,1.18,0.65,1.93c0.12,0.75,0.18,1.6,0.18,2.55c0,1.18-0.09,2.12-0.27,2.81
		c-0.18,0.69-0.5,1.26-0.98,1.72c-0.47,0.45-1.14,0.84-1.99,1.16c-0.85,0.32-1.93,0.69-3.23,1.13c-1.11,0.36-2.2,0.69-3.29,1.01
		c-1.09,0.32-2.07,0.72-2.96,1.22c-0.89,0.49-1.61,1.15-2.16,1.99c-0.55,0.83-0.83,1.94-0.83,3.32c0,0.59,0.09,1.23,0.27,1.93
		c0.18,0.69,0.54,1.31,1.1,1.87c0.55,0.55,1.32,1.02,2.31,1.39c0.99,0.38,2.31,0.56,3.97,0.56
		C257.69,287.3,258.89,287.13,259.84,286.79z M254.51,284.42c-0.32-0.49-0.53-1.06-0.65-1.69c-0.12-0.63-0.18-1.24-0.18-1.84
		c0-1.38,0.34-2.54,1.01-3.47c0.67-0.93,1.64-1.65,2.9-2.16l4.44-1.78c1.22-0.51,1.88-1.03,1.96-1.54h0.12v5.93
		c0,0.79-0.07,1.67-0.21,2.64c-0.14,0.97-0.42,1.87-0.83,2.7c-0.42,0.83-1.03,1.52-1.84,2.07c-0.81,0.55-1.87,0.83-3.17,0.83
		c-0.91,0-1.65-0.16-2.22-0.47C255.27,285.32,254.82,284.92,254.51,284.42z M290.36,286.47h-14.22v-0.83h4.56v-23.76h-4.56v-0.83
		h9.54v6.34h0.12c0.24-0.51,0.58-1.16,1.04-1.96c0.45-0.79,1.08-1.56,1.87-2.31c0.79-0.75,1.78-1.39,2.96-1.93
		c1.19-0.53,2.63-0.8,4.33-0.8c2.61,0,4.73,0.63,6.37,1.9c1.64,1.26,2.46,3.28,2.46,6.04v17.3h4.56v0.83h-14.22v-0.83h4.56V266.5
		c0-1.54-0.37-2.8-1.1-3.79c-0.73-0.99-1.87-1.48-3.41-1.48c-1.26,0-2.47,0.28-3.61,0.83c-1.15,0.55-2.15,1.32-3.02,2.31
		c-0.87,0.99-1.55,2.15-2.04,3.5c-0.5,1.34-0.74,2.81-0.74,4.38v13.39h4.56V286.47z M161.91,267.72c0.63,1.11,1.03,2.65,1.19,4.64
		l0.42,5.41c0.12,1.51,0.33,2.82,0.62,3.95c0.3,1.13,0.76,2.08,1.4,2.85c0.63,0.77,1.48,1.36,2.53,1.75c1.05,0.4,2.37,0.6,3.95,0.6
		c0.83,0,1.54-0.05,2.11-0.15c0.57-0.1,1.06-0.23,1.46-0.39c0.4-0.16,0.72-0.33,0.98-0.5c0.26-0.18,0.48-0.35,0.68-0.51l-0.53-0.65
		c-0.44,0.44-0.93,0.75-1.49,0.95c-0.55,0.2-1.09,0.3-1.6,0.3c-1.15,0-1.98-0.42-2.5-1.25c-0.52-0.83-0.89-1.76-1.13-2.79
		c-0.16-0.67-0.27-1.51-0.33-2.5c-0.06-0.99-0.12-2.02-0.18-3.09c-0.06-1.07-0.14-2.11-0.24-3.12c-0.1-1.01-0.27-1.91-0.5-2.7
		c-0.4-1.35-1.07-2.45-2.02-3.3c-0.95-0.85-1.99-1.54-3.12-2.05c-1.13-0.51-2.24-0.88-3.33-1.1c-1.09-0.22-1.95-0.37-2.59-0.45
		v-0.12c2.3-0.28,4.14-0.82,5.53-1.63c1.39-0.81,2.45-1.7,3.18-2.68c0.73-0.97,1.21-1.92,1.43-2.85c0.22-0.93,0.33-1.69,0.33-2.29
		c0-1.19-0.29-2.46-0.86-3.8c-0.58-1.35-1.56-2.56-2.94-3.63c-1.55-1.23-3.21-1.97-4.99-2.23c-1.78-0.26-3.84-0.39-6.18-0.39
		c-0.48,0-0.95,0.01-1.43,0.03c-0.48,0.02-0.95,0.03-1.43,0.03c-0.48,0.04-0.95,0.07-1.43,0.09c-0.48,0.02-0.95,0.03-1.43,0.03
		h-11.3v0.83h6.6v40.66h-6.6v0.83h19.14v-0.83h-6.6v-21.46h5.94c0.67,0,1.47,0.05,2.38,0.15c0.91,0.1,1.79,0.41,2.65,0.92
		C160.53,265.8,161.28,266.61,161.91,267.72z M154.18,263.38h-5.47v-18.37c0.52-0.08,1.14-0.13,1.87-0.15
		c0.73-0.02,1.46-0.03,2.17-0.03c1.03,0,2.07,0.1,3.12,0.3c1.05,0.2,2,0.61,2.85,1.25c0.85,0.63,1.55,1.57,2.08,2.82
		c0.54,1.25,0.8,2.9,0.8,4.96c0,1.82-0.18,3.33-0.53,4.52c-0.36,1.19-0.86,2.13-1.52,2.82c-0.65,0.69-1.44,1.18-2.35,1.46
		C156.3,263.25,155.29,263.38,154.18,263.38z"/>
</g>
</svg>
