<?xml version="1.0" encoding="utf-8"?>
<!-- Generator: Adobe Illustrator 23.0.6, SVG Export Plug-In . SVG Version: 6.00 Build 0)  -->
<svg version="1.1" id="Layer_1" xmlns="http://www.w3.org/2000/svg" xmlns:xlink="http://www.w3.org/1999/xlink" x="0px" y="0px"
	 viewBox="0 0 109.74 106.9" style="enable-background:new 0 0 109.74 106.9;" xml:space="preserve">
<style type="text/css">
	.st0{fill:#FDCE74;}
	.st1{fill:#8574B3;}
	.st2{fill:#FFFFFF;}
	.st3{fill:none;stroke:#FFFFFF;stroke-width:4.0959;stroke-linecap:round;stroke-linejoin:round;stroke-miterlimit:10;}
</style>
<g>
	<g>
		<g>
			<g>
				<path class="st0" d="M52.34,75.71c-0.86,0-1.66-0.54-1.94-1.4L35.34,29.04c-0.36-1.07,0.22-2.23,1.3-2.59
					c1.07-0.36,2.23,0.22,2.59,1.3l15.06,45.27c0.36,1.07-0.22,2.23-1.3,2.59C52.78,75.67,52.56,75.71,52.34,75.71z"/>
			</g>
			<g>
				<g>
					<path class="st0" d="M48.56,26.69c-0.86,0-1.65-0.54-1.94-1.4C42.31,12.45,34.45,5.1,30.1,6.53c-1.07,0.35-2.23-0.23-2.59-1.3
						c-0.35-1.07,0.23-2.23,1.3-2.59c19.9-6.58,39.98-0.45,44.76,13.67c0.18,0.52,0.14,1.08-0.11,1.57
						c-0.24,0.49-0.67,0.86-1.19,1.03L49.2,26.59C48.99,26.66,48.77,26.69,48.56,26.69z M37.91,4.63c4.54,3.19,8.9,9.38,11.91,17.44
						l19.09-6.35C64.5,6.77,51.85,2.43,37.91,4.63z"/>
				</g>
				<g>
					<path class="st0" d="M29.43,6.64c-0.82,0-1.59-0.5-1.91-1.3c-0.4-1.03,0.09-2.19,1.1-2.63c0.09-0.04,0.19-0.07,0.28-0.1
						c0.02-0.01,0.05-0.01,0.07-0.02c1.08-0.26,2.18,0.4,2.46,1.48c0.27,1.06-0.33,2.14-1.37,2.46C29.86,6.61,29.64,6.64,29.43,6.64
						z M29.46,4.59L29.46,4.59L29.46,4.59z"/>
				</g>
				<g>
					<path class="st0" d="M26.15,34.14c-0.86,0-1.66-0.54-1.94-1.4c-0.36-1.07,0.22-2.23,1.3-2.59l22.41-7.45
						c1.07-0.36,2.23,0.22,2.59,1.3s-0.22,2.23-1.3,2.59L26.8,34.04C26.58,34.11,26.36,34.14,26.15,34.14z"/>
				</g>
				<g>
					<path class="st0" d="M2.92,41.87c-0.32,0-0.63-0.07-0.92-0.22c-0.49-0.25-0.86-0.67-1.02-1.19
						C-3.67,26.26,8.78,9.31,28.72,2.67c0.02-0.01,0.04-0.01,0.05-0.02c0,0,0.01,0,0.01,0v0c1.06-0.32,2.21,0.25,2.56,1.3
						c0.36,1.07-0.19,2.22-1.26,2.58c-4.35,1.46-6.24,12.05-1.99,24.92c0.35,1.07-0.23,2.23-1.3,2.59L3.56,41.77
						C3.35,41.84,3.13,41.87,2.92,41.87z M22.7,9.66C10.11,16.23,2.51,27.34,4.35,37.19l19.25-6.4
						C21.18,22.51,20.96,14.93,22.7,9.66z"/>
				</g>
			</g>
		</g>
		<g>
			<path class="st0" d="M56.16,98.09c-0.19,0-0.39-0.03-0.58-0.08L25.6,89.17c-0.8-0.24-1.38-0.94-1.46-1.77
				c-0.08-0.83,0.35-1.63,1.1-2.01l42.91-22.21c0.43-0.22,0.92-0.29,1.39-0.18l30.41,6.9c0.83,0.19,1.45,0.87,1.57,1.71
				s-0.29,1.67-1.03,2.08L57.15,97.83C56.85,98,56.5,98.09,56.16,98.09z M31.65,86.68l24.26,7.16L93.83,72.7l-24.46-5.55
				L31.65,86.68z"/>
		</g>
		<g>
			<path class="st0" d="M99.5,73.94c-0.21,0-0.42-0.03-0.62-0.1c-1.08-0.34-1.67-1.5-1.33-2.57l7.5-23.48l-24.97-5.03L71,65.74
				c-0.42,1.05-1.61,1.56-2.66,1.15c-1.05-0.42-1.57-1.61-1.15-2.66l9.7-24.58c0.36-0.92,1.34-1.45,2.31-1.26l28.9,5.82
				c0.57,0.12,1.07,0.47,1.36,0.97c0.29,0.5,0.36,1.11,0.19,1.66l-8.19,25.66C101.17,73.38,100.37,73.94,99.5,73.94z"/>
		</g>
		<g>
			<path class="st0" d="M56.14,106.9c-1.13,0-2.05-0.92-2.05-2.05v-8.81c0-1.13,0.92-2.05,2.05-2.05s2.05,0.92,2.05,2.05v8.81
				C58.19,105.98,57.27,106.9,56.14,106.9z"/>
		</g>
		<g>
			<path class="st0" d="M26.18,98.09c-1.13,0-2.05-0.92-2.05-2.05V87.2c0-1.13,0.92-2.05,2.05-2.05s2.05,0.92,2.05,2.05v8.84
				C28.23,97.17,27.31,98.09,26.18,98.09z"/>
		</g>
		<g>
			<path class="st0" d="M99.5,82.65c-1.13,0-2.05-0.92-2.05-2.05v-8.71c0-1.13,0.92-2.05,2.05-2.05s2.05,0.92,2.05,2.05v8.71
				C101.55,81.73,100.63,82.65,99.5,82.65z"/>
		</g>
	</g>
</g>
</svg>
