<?xml version="1.0" encoding="utf-8"?>
<!-- Generator: Adobe Illustrator 23.0.6, SVG Export Plug-In . SVG Version: 6.00 Build 0)  -->
<svg version="1.1" id="Layer_1" xmlns="http://www.w3.org/2000/svg" xmlns:xlink="http://www.w3.org/1999/xlink" x="0px" y="0px"
	 viewBox="0 0 190.44 263.97" style="enable-background:new 0 0 190.44 263.97;" xml:space="preserve">
<style type="text/css">
	.st0{fill:#8E74B1;}
</style>
<path class="st0" d="M26.64,125.24c-1.92,1.72-4.5,2.68-7.34,2.68c-2.12,0-4.35-0.61-5.97-1.57c-3.59-2.12-6.07-6.07-6.07-10.82
	c0-4.76,2.53-8.75,6.12-10.88c1.62-0.96,3.59-1.52,5.82-1.52c2.58,0,5.16,0.81,7.28,2.58V93.67c0-1.2,0.97-2.17,2.17-2.17h0.46
	c1.2,0,2.17,0.97,2.17,2.17v31.57c0,1.2-0.97,2.17-2.17,2.17h-0.3C27.61,127.41,26.64,126.44,26.64,125.24L26.64,125.24z
	 M26.49,111.07c-1.47-1.92-3.9-3.39-6.78-3.39c-4.6,0-7.64,3.69-7.64,7.84c0,4.25,3.29,7.84,7.89,7.84c2.43,0,4.91-1.21,6.53-3.39
	V111.07z M57.24,125.24c-1.92,1.72-4.5,2.68-7.34,2.68c-2.12,0-4.35-0.61-5.97-1.57c-3.59-2.12-6.07-6.07-6.07-10.82
	c0-4.76,2.53-8.75,6.12-10.88c1.62-0.96,3.59-1.52,5.82-1.52c2.68,0,5.26,0.81,7.44,2.68v0c0-1.2,0.97-2.17,2.17-2.17h0.3
	c1.2,0,2.17,0.97,2.17,2.17v19.43c0,1.2-0.97,2.17-2.17,2.17h-0.3C58.22,127.41,57.24,126.44,57.24,125.24L57.24,125.24z
	 M57.09,111.07c-1.47-1.92-3.9-3.39-6.78-3.39c-4.6,0-7.64,3.69-7.64,7.84c0,4.25,3.29,7.84,7.89,7.84c2.43,0,4.91-1.21,6.53-3.39
	V111.07z M71.88,136.3l5-11.37l-8.58-17.98c-0.73-1.54,0.39-3.32,2.09-3.32h0.02c0.9,0,1.71,0.52,2.1,1.33l6.81,14.36l6.22-14.29
	c0.37-0.85,1.2-1.39,2.13-1.39h0c1.67,0,2.79,1.71,2.13,3.24l-13.61,31.28c-0.37,0.85-1.2,1.39-2.13,1.39H74
	C72.32,139.55,71.2,137.83,71.88,136.3z M119.66,103.13c7.03,0,12.29,5.31,12.29,12.39s-5.26,12.39-12.29,12.39
	s-12.29-5.31-12.29-12.39S112.63,103.13,119.66,103.13z M119.66,123.36c4.4,0,7.49-3.49,7.49-7.84c0-4.35-3.09-7.84-7.49-7.84
	c-4.4,0-7.49,3.49-7.49,7.84C112.18,119.87,115.26,123.36,119.66,123.36z M140.2,123.92c-1.47-1.82-2.18-4.15-2.18-8.14v-9.99
	c0-1.19,0.96-2.15,2.15-2.15h0.51c1.19,0,2.15,0.96,2.15,2.15v10.75c0,2.43,0.51,3.74,1.37,4.75c1.06,1.27,2.78,2.07,4.6,2.07
	c2.93,0,5.31-1.77,6.68-3.39v-14.19c0-1.19,0.96-2.15,2.15-2.15h0.51c1.19,0,2.15,0.96,2.15,2.15v19.48c0,1.19-0.96,2.15-2.15,2.15
	h-0.35c-1.19,0-2.15-0.96-2.15-2.15v-0.02c-1.06,1.01-3.69,2.68-6.98,2.68C145.26,127.92,142.17,126.4,140.2,123.92z M183.07,125.25
	c0.28,1.25-0.59,2.48-1.86,2.6c-0.46,0.04-0.94,0.07-1.41,0.07c-2.99,0-5.21-1.06-6.73-2.78c-1.42-1.57-1.92-3.74-1.92-6.32v-10.88
	h-3.92c-1.19,0-2.15-0.96-2.15-2.15v0c0-1.19,0.96-2.15,2.15-2.15h3.92v-4.43c0-1.19,0.96-2.15,2.15-2.15h0.51
	c1.19,0,2.15,0.96,2.15,2.15v4.43h5.44c1.19,0,2.15,0.96,2.15,2.15v0c0,1.19-0.96,2.15-2.15,2.15h-5.44v11.13
	c0,1.27,0.1,2.33,0.71,3.04c0.66,0.81,2.02,1.27,3.29,1.27c0.24,0,0.53-0.01,0.84-0.03c1.05-0.08,1.99,0.65,2.22,1.68L183.07,125.25
	z M26.99,154.54l5.35,13.32l5.35-13.32c0.31-0.78,1.07-1.29,1.91-1.29h0c1.46,0,2.46,1.48,1.91,2.84l-7.02,17.27
	c-0.32,0.78-1.07,1.29-1.91,1.29h-0.22c-0.84,0-1.6-0.51-1.92-1.3l-5.49-13.72l-5.49,13.72c-0.31,0.78-1.07,1.3-1.92,1.3h-0.22
	c-0.84,0-1.6-0.51-1.91-1.29l-7.02-17.27c-0.55-1.36,0.45-2.84,1.91-2.84h0c0.84,0,1.6,0.51,1.91,1.29l5.35,13.32l5.35-13.32
	c0.31-0.78,1.07-1.29,1.91-1.29h0.21C25.92,153.24,26.68,153.76,26.99,154.54z M48.88,142.79c1.8-0.16,3.28,1.32,3.12,3.12
	c-0.12,1.33-1.26,2.43-2.59,2.54c-1.81,0.15-3.23-1.27-3.07-3.08C46.44,144.04,47.54,142.9,48.88,142.79z M48.94,153.24h0.46
	c1.07,0,1.93,0.87,1.93,1.93v17.52c0,1.07-0.87,1.93-1.93,1.93h-0.46c-1.07,0-1.93-0.87-1.93-1.93v-17.52
	C47,154.11,47.87,153.24,48.94,153.24z M71.83,172.69c0.25,1.12-0.53,2.23-1.67,2.34c-0.42,0.04-0.85,0.06-1.27,0.06
	c-2.69,0-4.69-0.96-6.05-2.5c-1.27-1.41-1.73-3.37-1.73-5.69v-9.79h-3.53c-1.07,0-1.93-0.87-1.93-1.93l0,0
	c0-1.07,0.87-1.93,1.93-1.93h3.53v-3.98c0-1.07,0.87-1.93,1.93-1.93h0.46c1.07,0,1.93,0.87,1.93,1.93v3.98h4.89
	c1.07,0,1.93,0.87,1.93,1.93l0,0c0,1.07-0.87,1.93-1.93,1.93h-4.89v10.01c0,1.14,0.09,2.09,0.64,2.73c0.59,0.73,1.82,1.14,2.96,1.14
	c0.21,0,0.48-0.01,0.76-0.03c0.95-0.07,1.8,0.59,2,1.52L71.83,172.69z M82.51,155.11c1.18-1,3.32-2.32,6.28-2.32
	c3.14,0,5.96,1.46,7.78,3.78c1.36,1.73,2.09,3.92,2.09,7.6v8.53c0,1.07-0.87,1.93-1.93,1.93h-0.46c-1.07,0-1.93-0.87-1.93-1.93
	v-8.76c0-2.73-0.5-4.01-1.27-4.96c-1-1.27-2.64-2.09-4.42-2.09c-2.82,0-4.87,1.5-6.14,3.05v12.77c0,1.07-0.87,1.93-1.93,1.93h-0.46
	c-1.07,0-1.93-0.87-1.93-1.93v-28.45c0-1.07,0.87-1.93,1.93-1.93h0.46c1.07,0,1.93,0.87,1.93,1.93V155.11z M130.55,172.69
	c0.25,1.12-0.53,2.23-1.67,2.34c-0.42,0.04-0.85,0.06-1.27,0.06c-2.68,0-4.69-0.96-6.05-2.5c-1.27-1.41-1.73-3.37-1.73-5.69v-9.79
	h-3.53c-1.07,0-1.93-0.87-1.93-1.93l0,0c0-1.07,0.87-1.93,1.93-1.93h3.53v-3.98c0-1.07,0.87-1.93,1.93-1.93h0.46
	c1.07,0,1.93,0.87,1.93,1.93v3.98h4.89c1.07,0,1.93,0.87,1.93,1.93l0,0c0,1.07-0.87,1.93-1.93,1.93h-4.89v10.01
	c0,1.14,0.09,2.09,0.64,2.73c0.59,0.73,1.82,1.14,2.96,1.14c0.21,0,0.48-0.01,0.76-0.03c0.95-0.07,1.8,0.59,2,1.52L130.55,172.69z
	 M141.22,155.11c1.18-1,3.32-2.32,6.28-2.32c3.14,0,5.96,1.46,7.78,3.78c1.37,1.73,2.09,3.92,2.09,7.6v8.53
	c0,1.07-0.87,1.93-1.93,1.93h-0.46c-1.07,0-1.93-0.87-1.93-1.93v-8.76c0-2.73-0.5-4.01-1.27-4.96c-1-1.27-2.64-2.09-4.41-2.09
	c-2.82,0-4.87,1.5-6.15,3.05v12.77c0,1.07-0.87,1.93-1.93,1.93h-0.46c-1.07,0-1.93-0.87-1.93-1.93v-28.22
	c0-1.19,0.97-2.16,2.16-2.16l0,0c1.19,0,2.16,0.97,2.16,2.16V155.11z M167.03,164.85c0.23,3.6,3.19,6.46,6.92,6.46
	c2.24,0,3.75-0.76,4.88-1.69c0.77-0.63,1.88-0.63,2.61,0.05l0.05,0.05c0.86,0.82,0.77,2.21-0.16,2.95
	c-1.73,1.37-4.22,2.42-7.42,2.42c-6.24,0-11.06-4.73-11.06-11.15c0-6.42,4.37-11.15,10.42-11.15c5.96,0,10.29,4.82,10.29,11.15
	c0,0.37-0.12,0.9-0.79,0.91H167.03z M167.39,161.21h11.65c-0.64-2.73-3.1-4.64-5.64-4.64C170.62,156.57,168.12,158.43,167.39,161.21
	z M44.71,262.1L17.4,236.69v23.27c0,1.62-1.31,2.93-2.93,2.93h-0.34c-1.62,0-2.93-1.31-2.93-2.93v-71.31c0-1.62,1.31-2.93,2.93-2.93
	h0.34c1.62,0,2.93,1.31,2.93,2.93v45.33l24.52-19.99c0.52-0.43,1.18-0.66,1.85-0.66h0c2.75,0,3.99,3.45,1.86,5.2L24.79,235.6
	l23.97,22.2c1.96,1.81,0.67,5.08-1.99,5.08H46.7C45.96,262.89,45.25,262.61,44.71,262.1z M68.17,193.5c2.63,0,4.79,2.16,4.79,4.79
	s-2.16,4.7-4.79,4.7c-2.63,0-4.7-2.07-4.7-4.7S65.54,193.5,68.17,193.5z M68.21,213.32L68.21,213.32c1.71,0,3.1,1.39,3.1,3.1v43.37
	c0,1.71-1.39,3.1-3.1,3.1h0c-1.71,0-3.1-1.39-3.1-3.1v-43.37C65.11,214.71,66.5,213.32,68.21,213.32z M95.98,259.3
	c-6.52-4.57-10.54-12.28-10.54-21.2c0-8.26,3.59-15.54,9.24-20.33c4.13-3.37,9.78-5.54,15.76-5.54c6.85,0,13.26,2.72,17.93,7.72
	V188.7c0-1.65,1.34-2.99,2.99-2.99h0.22c1.65,0,2.99,1.34,2.99,2.99v71.2c0,1.65-1.34,2.99-2.99,2.99h0c-1.65,0-2.99-1.34-2.99-2.99
	v-4.29c-3.69,5-10.11,8.37-17.83,8.37C106.09,263.97,100.87,262.78,95.98,259.3z M128.37,228.1c-2.17-3.7-8.7-10-17.83-10
	c-4.13,0-8.48,1.41-11.96,4.24c-4.35,3.59-6.96,9.35-6.96,15.76c0,6.85,3.04,12.94,7.83,16.3c3.15,2.17,6.96,3.7,11.2,3.7
	c7.28,0,13.8-4.13,17.72-10.87V228.1z M150.09,254.46c0.98-1.23,2.76-1.55,4.06-0.65c3.79,2.63,8.18,4.29,12.8,4.29
	c6.2,0,11.41-3.48,11.41-8.7c0-12.72-28.59-5.76-28.59-22.72c0-9.02,8.48-14.46,16.85-14.46c5.2,0,9.68,1.36,13.16,3.12
	c1.58,0.8,2.09,2.81,1.14,4.3l0,0c-0.85,1.34-2.61,1.78-3.99,1.01c-3.12-1.73-5.88-2.56-9.97-2.56c-5.22,0-10.98,2.72-10.98,8.48
	c0,10.98,28.59,5.11,28.59,22.5c0,9.24-7.83,14.89-17.17,14.89c-6.82,0-12.52-2.07-16.75-5.06c-1.42-1-1.7-2.99-0.62-4.35
	L150.09,254.46z M78.14,62.19c-4.18,0-7.57,3.4-7.57,7.57c0,4.18,3.4,7.57,7.57,7.57c4.18,0,7.57-3.4,7.57-7.57
	C85.71,65.58,82.31,62.19,78.14,62.19z M78.14,73.02c-1.79,0-3.25-1.46-3.25-3.25c0-1.79,1.46-3.25,3.25-3.25
	c1.79,0,3.25,1.46,3.25,3.25C81.39,71.55,79.93,73.02,78.14,73.02z M112.54,62.19c-4.18,0-7.57,3.4-7.57,7.57
	c0,4.18,3.4,7.57,7.57,7.57c4.18,0,7.57-3.4,7.57-7.57C120.12,65.58,116.72,62.19,112.54,62.19z M112.54,73.02
	c-1.79,0-3.25-1.46-3.25-3.25c0-1.79,1.46-3.25,3.25-3.25c1.79,0,3.25,1.46,3.25,3.25C115.8,71.55,114.34,73.02,112.54,73.02z
	 M188.28,73.64h-37.24c-2.34-9.24-6.79-17.46-12.77-24.18v-2.25c0-8.27-2.4-16.24-6.86-23.14l14.49-12.44
	c0.04-0.04,0.08-0.07,0.12-0.11c2.63-2.63,2.63-6.91,0-9.54C144.73,0.7,143.04,0,141.24,0c-1.8,0-3.5,0.7-4.77,1.98
	c-0.04,0.04-0.08,0.08-0.11,0.12l-11.81,13.76c-7.91-7.43-18.26-11.51-29.33-11.51c-11.07,0-21.42,4.08-29.34,11.52L54.06,2.1
	c-0.04-0.04-0.07-0.08-0.11-0.12C52.68,0.7,50.99,0,49.18,0c-1.8,0-3.5,0.7-4.77,1.98c-2.63,2.63-2.63,6.91,0,9.54
	c0.04,0.04,0.08,0.08,0.12,0.11l14.5,12.45c-4.46,6.89-6.86,14.86-6.86,23.13v2.56C46.2,56.47,41.75,64.6,39.45,73.64H2.16
	C0.97,73.64,0,74.61,0,75.8c0,1.19,0.97,2.16,2.16,2.16h38.83c0.05,0,0.1,0.02,0.15,0.02c0.99,0,1.88-0.69,2.11-1.69
	c5.35-24.15,27.22-41.67,51.99-41.67c24.61,0,46.41,17.36,51.91,41.3c0.06,1.14,0.99,2.05,2.15,2.05h38.98
	c1.19,0,2.16-0.97,2.16-2.16C190.44,74.61,189.47,73.64,188.28,73.64z M139.57,4.98c0.95-0.9,2.46-0.88,3.39,0.05
	c0.93,0.93,0.95,2.43,0.05,3.39l-14.14,12.13c-0.42-0.53-0.86-1.05-1.31-1.57L139.57,4.98z M47.42,8.42
	c-0.9-0.95-0.88-2.45,0.05-3.39c0.9-0.9,2.46-0.92,3.39-0.05l12.02,14.01c-0.45,0.51-0.89,1.04-1.31,1.57L47.42,8.42z M95.24,30.29
	c-14.64,0-28.34,5.67-38.7,15.08c0.45-9.42,4.37-18.33,11.16-25.25c7.24-7.38,17.01-11.45,27.52-11.45
	c10.5,0,20.27,4.07,27.52,11.45c6.71,6.84,10.62,15.63,11.14,24.94C123.61,35.79,110.03,30.29,95.24,30.29z M86.01,21.47
	c-2.71-1.49-5.83-1.84-8.79-0.98c-2.97,0.86-5.42,2.82-6.91,5.53c-0.58,1.04-0.2,2.36,0.85,2.93c0.33,0.18,0.69,0.27,1.04,0.27
	c0.76,0,1.5-0.4,1.89-1.12c0.93-1.69,2.47-2.92,4.33-3.46c1.86-0.54,3.81-0.32,5.51,0.61c1.05,0.57,2.36,0.2,2.93-0.85
	C87.43,23.36,87.05,22.05,86.01,21.47z M113.23,20.49c-2.97-0.86-6.09-0.51-8.79,0.98c-1.04,0.58-1.42,1.89-0.85,2.93
	c0.58,1.04,1.89,1.42,2.93,0.85c1.69-0.94,3.65-1.15,5.51-0.61c1.86,0.54,3.4,1.77,4.33,3.46c0.39,0.71,1.13,1.12,1.89,1.12
	c0.35,0,0.71-0.09,1.04-0.27c1.04-0.58,1.43-1.89,0.85-2.93C118.65,23.32,116.19,21.35,113.23,20.49z M110.11,50.8
	c-4.07,0.4-9.77,2.29-14.89,8.74C90.1,53.1,84.4,51.2,80.33,50.8c-5.97-0.58-12.08,1.68-16.34,6.05c-7.02,7.2-5.45,18.78-5.38,19.27
	c0.15,1.08,1.08,1.85,2.13,1.85c0.1,0,0.21-0.01,0.31-0.02c1.18-0.17,2-1.26,1.83-2.44c-0.01-0.1-1.35-9.94,4.2-15.64
	c3.3-3.39,8.22-5.21,12.83-4.77c5.19,0.5,9.86,3.72,13.5,9.3c0,0,0.01,0.01,0.01,0.01c0.06,0.08,0.12,0.16,0.19,0.23
	c0.03,0.03,0.05,0.07,0.08,0.1c0.04,0.04,0.09,0.08,0.14,0.12c0.06,0.05,0.13,0.11,0.19,0.16c0,0,0.01,0.01,0.01,0.01
	c0.05,0.03,0.1,0.05,0.15,0.08c0.07,0.04,0.14,0.08,0.21,0.11c0.07,0.03,0.15,0.05,0.22,0.07c0.06,0.02,0.12,0.04,0.18,0.05
	c0.08,0.02,0.16,0.02,0.24,0.03c0.06,0.01,0.12,0.01,0.18,0.01c0.08,0,0.15-0.01,0.23-0.02c0.06-0.01,0.12-0.01,0.18-0.02
	c0.08-0.02,0.15-0.04,0.23-0.07c0.06-0.02,0.11-0.03,0.17-0.05c0.09-0.04,0.17-0.08,0.25-0.13c0.04-0.02,0.08-0.04,0.12-0.06
	c0,0,0.01-0.01,0.01-0.01c0.08-0.05,0.15-0.12,0.22-0.18c0.04-0.03,0.08-0.06,0.11-0.09c0.03-0.03,0.06-0.08,0.09-0.11
	c0.06-0.07,0.13-0.14,0.18-0.22c0,0,0.01-0.01,0.01-0.01c3.65-5.59,8.32-8.8,13.5-9.31c4.6-0.44,9.53,1.38,12.83,4.77
	c5.51,5.66,4.22,15.53,4.2,15.64c-0.17,1.18,0.65,2.27,1.83,2.44c0.1,0.01,0.21,0.02,0.31,0.02c1.06,0,1.98-0.78,2.13-1.85
	c0.07-0.49,1.64-12.06-5.38-19.27C122.19,52.49,116.08,50.23,110.11,50.8z"/>
</svg>
