<?xml version="1.0" encoding="utf-8"?>
<!-- Generator: Adobe Illustrator 23.0.6, SVG Export Plug-In . SVG Version: 6.00 Build 0)  -->
<svg version="1.1" id="Layer_1" xmlns="http://www.w3.org/2000/svg" xmlns:xlink="http://www.w3.org/1999/xlink" x="0px" y="0px"
	 viewBox="0 0 119.66 69.72" style="enable-background:new 0 0 119.66 69.72;" xml:space="preserve">
<style type="text/css">
	.st0{fill:#FDCE74;}
	.st1{fill:#8574B3;}
	.st2{fill:#FFFFFF;}
	.st3{fill:none;stroke:#FFFFFF;stroke-width:4.0959;stroke-linecap:round;stroke-linejoin:round;stroke-miterlimit:10;}
</style>
<g>
	<g>
		<g>
			<path class="st1" d="M97.86,49.96c-0.11,0-0.22-0.01-0.33-0.03c-0.86-0.14-1.51-0.8-1.68-1.6c-0.73-1.99-9.02-19.15-14.16-29.67
				c-0.5-1.02-0.08-2.24,0.94-2.74c1.01-0.5,2.24-0.08,2.74,0.94c14.71,30.11,14.65,30.53,14.51,31.37
				C99.72,49.25,98.85,49.96,97.86,49.96z M95.84,47.59C95.84,47.59,95.84,47.59,95.84,47.59C95.84,47.59,95.84,47.59,95.84,47.59z
				 M95.84,47.59C95.84,47.59,95.84,47.59,95.84,47.59C95.84,47.59,95.84,47.59,95.84,47.59z"/>
		</g>
		<g>
			<path class="st1" d="M21.81,49.96c-0.75,0-1.47-0.41-1.83-1.13c-0.51-1.01-0.1-2.24,0.91-2.75c0.21-0.11,16.03-8.2,22.76-18.84
				c-9.64-4.25-10.26-9.96-9.98-12.5c0.46-4.23,4.22-7.83,8.37-8.02c1.57-0.07,6.79,0.3,8.36,8.11c0.71,3.53,0.23,6.93-1.03,10.15
				c0.54,0.17,1.09,0.33,1.66,0.48c14.36,3.85,23.49-1.38,28.62-6.44c5.29-5.22,7.63-11.58,7.87-14.93H75.1
				c-1.13,0-2.05-0.92-2.05-2.05S73.96,0,75.1,0h14.32c0.94,0,1.75,0.64,1.98,1.54c1.14,4.47-1.94,13.54-8.88,20.4
				c-8.33,8.22-19.9,10.88-32.56,7.48c-0.86-0.23-1.67-0.47-2.44-0.72c-7.14,12.02-23.85,20.56-24.8,21.04
				C22.43,49.89,22.11,49.96,21.81,49.96z M42.38,10.82c-0.05,0-0.1,0-0.16,0c-1.94,0.09-4.21,1.87-4.48,4.37
				c-0.34,3.13,2.5,6.12,7.79,8.4c1.01-2.57,1.4-5.24,0.85-7.94C46.01,13.83,45.01,10.82,42.38,10.82z"/>
		</g>
		<g>
			<path class="st1" d="M21.8,69.72C9.78,69.72,0,59.94,0,47.92s9.78-21.8,21.8-21.8s21.8,9.78,21.8,21.8S33.83,69.72,21.8,69.72z
				 M21.8,30.21c-9.76,0-17.71,7.94-17.71,17.71s7.94,17.71,17.71,17.71c9.76,0,17.71-7.94,17.71-17.71S31.57,30.21,21.8,30.21z"/>
		</g>
		<g>
			<path class="st1" d="M97.86,69.72c-12.02,0-21.8-9.78-21.8-21.8s9.78-21.8,21.8-21.8s21.8,9.78,21.8,21.8
				S109.88,69.72,97.86,69.72z M97.86,30.21c-9.76,0-17.71,7.94-17.71,17.71s7.94,17.71,17.71,17.71s17.71-7.94,17.71-17.71
				S107.62,30.21,97.86,30.21z"/>
		</g>
	</g>
</g>
</svg>
