<?xml version="1.0" encoding="utf-8"?>
<!-- Generator: Adobe Illustrator 23.0.6, SVG Export Plug-In . SVG Version: 6.00 Build 0)  -->
<svg version="1.1" id="Layer_1" xmlns="http://www.w3.org/2000/svg" xmlns:xlink="http://www.w3.org/1999/xlink" x="0px" y="0px"
	 viewBox="0 0 190.39 286.08" style="enable-background:new 0 0 190.39 286.08;" xml:space="preserve">
<style type="text/css">
	.st0{fill:#FBD96E;}
</style>
<path class="st0" d="M25.9,147.35c-1.92,1.72-4.5,2.68-7.34,2.68c-2.12,0-4.35-0.61-5.97-1.57c-3.59-2.12-6.07-6.07-6.07-10.82
	c0-4.76,2.53-8.75,6.12-10.88c1.62-0.96,3.59-1.52,5.82-1.52c2.58,0,5.16,0.81,7.28,2.58v-12.04c0-1.2,0.97-2.17,2.17-2.17h0.46
	c1.2,0,2.17,0.97,2.17,2.17v31.57c0,1.2-0.97,2.17-2.17,2.17h-0.3C26.87,149.52,25.9,148.55,25.9,147.35L25.9,147.35z M25.75,133.18
	c-1.47-1.92-3.9-3.39-6.78-3.39c-4.6,0-7.64,3.69-7.64,7.84c0,4.25,3.29,7.84,7.89,7.84c2.43,0,4.91-1.21,6.53-3.39V133.18z
	 M56.5,147.35c-1.92,1.72-4.5,2.68-7.34,2.68c-2.12,0-4.35-0.61-5.97-1.57c-3.59-2.12-6.07-6.07-6.07-10.82
	c0-4.76,2.53-8.75,6.12-10.88c1.62-0.96,3.59-1.52,5.82-1.52c2.68,0,5.26,0.81,7.44,2.68v0c0-1.2,0.97-2.17,2.17-2.17h0.3
	c1.2,0,2.17,0.97,2.17,2.17v19.43c0,1.2-0.97,2.17-2.17,2.17h-0.3C57.47,149.52,56.5,148.55,56.5,147.35L56.5,147.35z M56.35,133.18
	c-1.47-1.92-3.9-3.39-6.78-3.39c-4.6,0-7.64,3.69-7.64,7.84c0,4.25,3.29,7.84,7.89,7.84c2.43,0,4.91-1.21,6.53-3.39V133.18z
	 M71.13,158.41l5-11.37l-8.58-17.98c-0.73-1.54,0.39-3.32,2.09-3.32h0.02c0.9,0,1.71,0.52,2.1,1.33l6.81,14.36l6.22-14.29
	c0.37-0.85,1.2-1.39,2.13-1.39l0,0c1.67,0,2.79,1.71,2.13,3.24l-13.61,31.28c-0.37,0.85-1.2,1.39-2.13,1.39h-0.04
	C71.58,161.66,70.46,159.94,71.13,158.41z M118.92,125.24c7.03,0,12.29,5.31,12.29,12.39s-5.26,12.39-12.29,12.39
	s-12.29-5.31-12.29-12.39S111.89,125.24,118.92,125.24z M118.92,145.48c4.4,0,7.49-3.49,7.49-7.84c0-4.35-3.09-7.84-7.49-7.84
	c-4.4,0-7.49,3.49-7.49,7.84C111.43,141.98,114.52,145.48,118.92,145.48z M139.46,146.03c-1.47-1.82-2.18-4.15-2.18-8.14v-9.99
	c0-1.19,0.96-2.15,2.15-2.15h0.51c1.19,0,2.15,0.96,2.15,2.15v10.75c0,2.43,0.51,3.74,1.37,4.75c1.06,1.27,2.78,2.07,4.6,2.07
	c2.93,0,5.31-1.77,6.68-3.39V127.9c0-1.19,0.96-2.15,2.15-2.15h0.51c1.19,0,2.15,0.96,2.15,2.15v19.48c0,1.19-0.96,2.15-2.15,2.15
	h-0.35c-1.19,0-2.15-0.96-2.15-2.15v-0.02c-1.06,1.01-3.69,2.68-6.98,2.68C144.52,150.03,141.43,148.51,139.46,146.03z
	 M182.33,147.36c0.28,1.25-0.59,2.48-1.86,2.6c-0.46,0.04-0.94,0.07-1.41,0.07c-2.99,0-5.21-1.06-6.73-2.78
	c-1.42-1.57-1.92-3.74-1.92-6.32v-10.88h-3.92c-1.19,0-2.15-0.96-2.15-2.15v0c0-1.19,0.96-2.15,2.15-2.15h3.92v-4.43
	c0-1.19,0.96-2.15,2.15-2.15h0.51c1.19,0,2.15,0.96,2.15,2.15v4.43h5.44c1.19,0,2.15,0.96,2.15,2.15v0c0,1.19-0.96,2.15-2.15,2.15
	h-5.44v11.13c0,1.27,0.1,2.33,0.71,3.04c0.66,0.81,2.02,1.27,3.29,1.27c0.24,0,0.53-0.01,0.84-0.03c1.05-0.08,2,0.65,2.22,1.68
	L182.33,147.36z M26.25,176.65l5.35,13.32l5.35-13.32c0.31-0.78,1.07-1.29,1.91-1.29h0c1.46,0,2.46,1.48,1.91,2.84l-7.02,17.27
	c-0.32,0.78-1.07,1.29-1.91,1.29h-0.22c-0.84,0-1.6-0.51-1.92-1.3l-5.49-13.72l-5.49,13.72c-0.31,0.78-1.07,1.3-1.92,1.3h-0.22
	c-0.84,0-1.6-0.51-1.91-1.29l-7.02-17.27c-0.55-1.36,0.45-2.84,1.91-2.84h0c0.84,0,1.6,0.51,1.91,1.29l5.35,13.32l5.35-13.32
	c0.31-0.78,1.07-1.29,1.91-1.29h0.21C25.18,175.35,25.94,175.87,26.25,176.65z M48.13,164.9c1.8-0.16,3.28,1.32,3.12,3.12
	c-0.12,1.33-1.26,2.43-2.59,2.54c-1.81,0.15-3.23-1.27-3.07-3.08C45.7,166.15,46.8,165.01,48.13,164.9z M48.19,175.35h0.46
	c1.07,0,1.93,0.87,1.93,1.93v17.52c0,1.07-0.87,1.93-1.93,1.93h-0.46c-1.07,0-1.93-0.87-1.93-1.93v-17.52
	C46.26,176.22,47.12,175.35,48.19,175.35z M71.09,194.8c0.25,1.12-0.53,2.23-1.67,2.34c-0.42,0.04-0.85,0.06-1.27,0.06
	c-2.69,0-4.69-0.96-6.05-2.5c-1.27-1.41-1.73-3.37-1.73-5.69v-9.79h-3.53c-1.07,0-1.93-0.87-1.93-1.93l0,0
	c0-1.07,0.87-1.93,1.93-1.93h3.53v-3.98c0-1.07,0.87-1.93,1.93-1.93h0.46c1.07,0,1.93,0.87,1.93,1.93v3.98h4.89
	c1.07,0,1.93,0.87,1.93,1.93l0,0c0,1.07-0.87,1.93-1.93,1.93h-4.89v10.01c0,1.14,0.09,2.09,0.64,2.73c0.59,0.73,1.82,1.14,2.96,1.14
	c0.21,0,0.48-0.01,0.76-0.03c0.95-0.07,1.8,0.59,2,1.52L71.09,194.8z M81.76,177.22c1.18-1,3.32-2.32,6.28-2.32
	c3.14,0,5.96,1.46,7.78,3.78c1.36,1.73,2.09,3.92,2.09,7.6v8.53c0,1.07-0.87,1.93-1.93,1.93h-0.46c-1.07,0-1.93-0.87-1.93-1.93
	v-8.76c0-2.73-0.5-4.01-1.27-4.96c-1-1.27-2.64-2.09-4.42-2.09c-2.82,0-4.87,1.5-6.14,3.05v12.77c0,1.07-0.87,1.93-1.93,1.93h-0.46
	c-1.07,0-1.93-0.87-1.93-1.93v-28.45c0-1.07,0.87-1.93,1.93-1.93h0.46c1.07,0,1.93,0.87,1.93,1.93V177.22z M129.81,194.8
	c0.25,1.12-0.53,2.23-1.67,2.34c-0.42,0.04-0.85,0.06-1.27,0.06c-2.68,0-4.69-0.96-6.05-2.5c-1.27-1.41-1.73-3.37-1.73-5.69v-9.79
	h-3.53c-1.07,0-1.93-0.87-1.93-1.93l0,0c0-1.07,0.87-1.93,1.93-1.93h3.53v-3.98c0-1.07,0.87-1.93,1.93-1.93h0.46
	c1.07,0,1.93,0.87,1.93,1.93v3.98h4.89c1.07,0,1.93,0.87,1.93,1.93l0,0c0,1.07-0.87,1.93-1.93,1.93h-4.89v10.01
	c0,1.14,0.09,2.09,0.64,2.73c0.59,0.73,1.82,1.14,2.96,1.14c0.21,0,0.48-0.01,0.76-0.03c0.95-0.07,1.8,0.59,2,1.52L129.81,194.8z
	 M140.48,177.22c1.18-1,3.32-2.32,6.28-2.32c3.14,0,5.96,1.46,7.78,3.78c1.37,1.73,2.09,3.92,2.09,7.6v8.53
	c0,1.07-0.87,1.93-1.93,1.93h-0.46c-1.07,0-1.93-0.87-1.93-1.93v-8.76c0-2.73-0.5-4.01-1.27-4.96c-1-1.27-2.64-2.09-4.41-2.09
	c-2.82,0-4.87,1.5-6.15,3.05v12.77c0,1.07-0.87,1.93-1.93,1.93h-0.46c-1.07,0-1.93-0.87-1.93-1.93v-28.22
	c0-1.19,0.97-2.16,2.16-2.16l0,0c1.19,0,2.16,0.97,2.16,2.16V177.22z M166.28,186.96c0.23,3.6,3.19,6.46,6.92,6.46
	c2.24,0,3.75-0.76,4.88-1.69c0.77-0.63,1.88-0.63,2.61,0.05l0.05,0.05c0.86,0.82,0.77,2.21-0.16,2.95
	c-1.73,1.37-4.22,2.42-7.42,2.42c-6.24,0-11.06-4.73-11.06-11.15c0-6.42,4.37-11.15,10.42-11.15c5.96,0,10.29,4.82,10.29,11.15
	c0,0.37-0.12,0.9-0.79,0.91H166.28z M166.65,183.32h11.65c-0.64-2.73-3.1-4.64-5.64-4.64C169.88,178.68,167.38,180.54,166.65,183.32
	z M43.96,284.21L16.66,258.8v23.27c0,1.62-1.31,2.93-2.93,2.93h-0.34c-1.62,0-2.93-1.31-2.93-2.93v-71.31
	c0-1.62,1.31-2.93,2.93-2.93h0.34c1.62,0,2.93,1.31,2.93,2.93v45.33l24.52-19.99c0.52-0.43,1.18-0.66,1.85-0.66h0
	c2.75,0,3.99,3.45,1.86,5.2l-20.84,17.09l23.97,22.2c1.96,1.81,0.67,5.08-1.99,5.08h-0.07C45.22,285,44.51,284.72,43.96,284.21z
	 M67.43,215.61c2.63,0,4.79,2.16,4.79,4.79c0,2.63-2.16,4.7-4.79,4.7c-2.63,0-4.7-2.07-4.7-4.7
	C62.73,217.77,64.8,215.61,67.43,215.61z M67.47,235.43L67.47,235.43c1.71,0,3.1,1.39,3.1,3.1v43.37c0,1.71-1.39,3.1-3.1,3.1h0
	c-1.71,0-3.1-1.39-3.1-3.1v-43.37C64.37,236.82,65.75,235.43,67.47,235.43z M95.23,281.41c-6.52-4.57-10.54-12.28-10.54-21.2
	c0-8.26,3.59-15.54,9.24-20.33c4.13-3.37,9.78-5.54,15.76-5.54c6.85,0,13.26,2.72,17.93,7.72v-31.25c0-1.65,1.34-2.99,2.99-2.99
	h0.22c1.65,0,2.99,1.34,2.99,2.99v71.2c0,1.65-1.34,2.99-2.99,2.99h0c-1.65,0-2.99-1.34-2.99-2.99v-4.29
	c-3.69,5-10.11,8.37-17.83,8.37C105.34,286.08,100.12,284.89,95.23,281.41z M127.62,250.22c-2.17-3.7-8.7-10-17.83-10
	c-4.13,0-8.48,1.41-11.96,4.24c-4.35,3.59-6.96,9.35-6.96,15.76c0,6.85,3.04,12.94,7.83,16.3c3.15,2.17,6.96,3.7,11.2,3.7
	c7.28,0,13.8-4.13,17.72-10.87V250.22z M149.34,276.57c0.98-1.23,2.76-1.55,4.06-0.65c3.79,2.63,8.18,4.29,12.8,4.29
	c6.2,0,11.41-3.48,11.41-8.7c0-12.72-28.59-5.76-28.59-22.72c0-9.02,8.48-14.46,16.85-14.46c5.2,0,9.68,1.36,13.16,3.12
	c1.58,0.8,2.09,2.81,1.14,4.3l0,0c-0.85,1.34-2.61,1.78-3.99,1.01c-3.12-1.73-5.88-2.56-9.97-2.56c-5.22,0-10.98,2.72-10.98,8.48
	c0,10.98,28.59,5.11,28.59,22.5c0,9.24-7.83,14.89-17.17,14.89c-6.82,0-12.52-2.07-16.75-5.06c-1.42-1-1.7-2.99-0.62-4.35
	L149.34,276.57z M188.23,95.74h-37.24c-6.48-25.6-29.2-43.35-55.79-43.35C69,52.39,45.82,70.52,39.4,95.74H2.11
	c-1.19,0-2.16,0.97-2.16,2.16c0,1.19,0.97,2.16,2.16,2.16h38.83c0.05,0,0.1,0.02,0.15,0.02c0.99,0,1.88-0.69,2.11-1.69
	c5.35-24.15,27.22-41.67,51.99-41.67c24.61,0,46.41,17.36,51.91,41.3c0.06,1.14,0.99,2.05,2.15,2.05h38.98
	c1.19,0,2.16-0.97,2.16-2.16C190.39,96.7,189.42,95.74,188.23,95.74z M83.84,30.9c-0.84,0.84-0.84,2.21,0,3.05
	c0.42,0.42,0.98,0.63,1.53,0.63c0.55,0,1.11-0.21,1.53-0.63l6.01-6.01v14.96c0,1.19,0.97,2.16,2.16,2.16c1.19,0,2.16-0.97,2.16-2.16
	V27.95l6.01,6.01c0.42,0.42,0.97,0.63,1.53,0.63c0.55,0,1.11-0.21,1.53-0.63c0.84-0.84,0.84-2.21,0-3.05l-9.06-9.06v-4.38l6.01,6
	c0.42,0.42,0.97,0.63,1.53,0.63c0.55,0,1.11-0.21,1.53-0.63c0.84-0.84,0.84-2.21,0-3.05l-9.06-9.06V7.37l6.01,6
	c0.42,0.42,0.97,0.63,1.53,0.63c0.55,0,1.11-0.21,1.53-0.63c0.84-0.84,0.84-2.21,0-3.05l-9.7-9.69c-0.02-0.02-0.05-0.04-0.08-0.06
	c-0.08-0.07-0.16-0.14-0.25-0.2c-0.06-0.04-0.12-0.07-0.19-0.1c-0.06-0.03-0.12-0.07-0.19-0.1c-0.07-0.03-0.15-0.05-0.22-0.07
	c-0.06-0.02-0.12-0.04-0.18-0.05C95.36,0.02,95.23,0.01,95.1,0c-0.01,0-0.03,0-0.04,0c-0.01,0-0.03,0-0.04,0
	c-0.13,0-0.26,0.01-0.38,0.04c-0.06,0.01-0.12,0.04-0.18,0.05c-0.07,0.02-0.15,0.04-0.22,0.07c-0.07,0.03-0.12,0.06-0.19,0.1
	c-0.06,0.03-0.13,0.06-0.19,0.1c-0.09,0.06-0.17,0.13-0.25,0.2c-0.02,0.02-0.05,0.04-0.08,0.06l-9.7,9.69
	c-0.84,0.84-0.84,2.21,0,3.05c0.42,0.42,0.98,0.63,1.53,0.63c0.55,0,1.11-0.21,1.53-0.63l6.01-6v3.98l-9.06,9.06
	c-0.84,0.84-0.84,2.21,0,3.05c0.42,0.42,0.98,0.63,1.53,0.63c0.55,0,1.11-0.21,1.53-0.63l6.01-6v4.38L83.84,30.9z M121.14,44.39
	c-0.84,0.84-0.84,2.21,0,3.05c0.42,0.42,0.98,0.63,1.53,0.63c0.55,0,1.11-0.21,1.53-0.63l6.01-6.01V56.4c0,1.19,0.97,2.16,2.16,2.16
	c1.19,0,2.16-0.97,2.16-2.16V41.44l6.01,6.01c0.42,0.42,0.97,0.63,1.53,0.63c0.55,0,1.11-0.21,1.53-0.63c0.84-0.84,0.84-2.21,0-3.05
	l-9.06-9.06v-4.38l6.01,6c0.42,0.42,0.97,0.63,1.53,0.63c0.55,0,1.11-0.21,1.53-0.63c0.84-0.84,0.84-2.21,0-3.05l-9.06-9.06v-3.98
	l6.01,6c0.42,0.42,0.97,0.63,1.53,0.63c0.55,0,1.11-0.21,1.53-0.63c0.84-0.84,0.84-2.21,0-3.05l-9.69-9.69
	c-0.02-0.02-0.05-0.04-0.08-0.06c-0.08-0.07-0.16-0.14-0.25-0.2c-0.06-0.04-0.12-0.07-0.19-0.1c-0.06-0.03-0.12-0.07-0.19-0.1
	c-0.07-0.03-0.15-0.05-0.22-0.07c-0.06-0.02-0.12-0.04-0.18-0.05c-0.13-0.03-0.26-0.04-0.38-0.04c-0.01,0-0.03,0-0.04,0
	c-0.01,0-0.03,0-0.04,0c-0.13,0-0.26,0.01-0.39,0.04c-0.06,0.01-0.12,0.04-0.18,0.05c-0.07,0.02-0.15,0.04-0.22,0.07
	c-0.07,0.03-0.12,0.06-0.19,0.1c-0.06,0.03-0.13,0.06-0.19,0.1c-0.09,0.06-0.17,0.13-0.25,0.2c-0.02,0.02-0.05,0.04-0.08,0.06
	l-9.69,9.69c-0.84,0.84-0.84,2.21,0,3.05c0.42,0.42,0.98,0.63,1.53,0.63c0.55,0,1.11-0.21,1.53-0.63l6.01-6v3.98l-9.06,9.06
	c-0.84,0.84-0.84,2.21,0,3.05c0.42,0.42,0.98,0.63,1.53,0.63c0.55,0,1.11-0.21,1.53-0.63l6.01-6v4.38L121.14,44.39z M156.77,75.29
	c-0.84,0.84-0.84,2.21,0,3.05c0.42,0.42,0.98,0.63,1.53,0.63s1.1-0.21,1.53-0.63l6.01-6.01v14.96c0,1.19,0.97,2.16,2.16,2.16
	c1.19,0,2.16-0.97,2.16-2.16V72.34l6.01,6.01c0.42,0.42,0.97,0.63,1.53,0.63c0.55,0,1.11-0.21,1.53-0.63c0.84-0.84,0.84-2.21,0-3.05
	l-9.06-9.06v-4.38l6.01,6c0.42,0.42,0.97,0.63,1.53,0.63c0.55,0,1.11-0.21,1.53-0.63c0.84-0.84,0.84-2.21,0-3.05l-9.06-9.06v-3.98
	l6.01,6c0.42,0.42,0.97,0.63,1.53,0.63c0.55,0,1.11-0.21,1.53-0.63c0.84-0.84,0.84-2.21,0-3.05l-9.7-9.69
	c-0.02-0.02-0.05-0.04-0.08-0.06c-0.08-0.07-0.16-0.14-0.25-0.2c-0.06-0.04-0.12-0.07-0.19-0.1c-0.06-0.03-0.12-0.07-0.19-0.1
	c-0.07-0.03-0.15-0.05-0.22-0.07c-0.06-0.02-0.12-0.04-0.18-0.05c-0.13-0.03-0.26-0.04-0.38-0.04c-0.01,0-0.02,0-0.04,0
	s-0.03,0-0.04,0c-0.13,0-0.26,0.01-0.38,0.04c-0.06,0.01-0.12,0.04-0.18,0.05c-0.07,0.02-0.15,0.04-0.22,0.07
	c-0.07,0.03-0.12,0.06-0.19,0.1c-0.06,0.03-0.13,0.06-0.19,0.1c-0.09,0.06-0.17,0.13-0.24,0.2c-0.03,0.02-0.06,0.04-0.08,0.07
	l-9.69,9.69c-0.84,0.84-0.84,2.21,0,3.05c0.42,0.42,0.98,0.63,1.53,0.63s1.1-0.21,1.53-0.63l6.01-6v3.98l-9.06,9.06
	c-0.84,0.84-0.84,2.21,0,3.05c0.42,0.42,0.98,0.63,1.53,0.63s1.1-0.21,1.53-0.63l6.01-6v4.38L156.77,75.29z M10.38,75.29
	c-0.84,0.84-0.84,2.21,0,3.05c0.42,0.42,0.98,0.63,1.53,0.63c0.55,0,1.1-0.21,1.53-0.63l6.01-6.01v14.96c0,1.19,0.97,2.16,2.16,2.16
	c1.19,0,2.16-0.97,2.16-2.16V72.34l6.01,6.01c0.42,0.42,0.97,0.63,1.53,0.63s1.11-0.21,1.53-0.63c0.84-0.84,0.84-2.21,0-3.05
	l-9.06-9.06v-4.38l6.01,6c0.42,0.42,0.97,0.63,1.53,0.63s1.11-0.21,1.53-0.63c0.84-0.84,0.84-2.21,0-3.05l-9.06-9.06v-3.98l6.01,6
	c0.42,0.42,0.97,0.63,1.53,0.63s1.11-0.21,1.53-0.63c0.84-0.84,0.84-2.21,0-3.05l-9.69-9.69c-0.02-0.02-0.05-0.04-0.08-0.06
	c-0.08-0.07-0.16-0.14-0.25-0.2c-0.06-0.04-0.12-0.07-0.19-0.1c-0.06-0.03-0.12-0.07-0.19-0.1c-0.07-0.03-0.15-0.05-0.22-0.07
	c-0.06-0.02-0.12-0.04-0.18-0.05c-0.13-0.03-0.26-0.04-0.38-0.04c-0.01,0-0.03,0-0.04,0c-0.01,0-0.02,0-0.04,0
	c-0.13,0-0.26,0.01-0.38,0.04c-0.06,0.01-0.12,0.04-0.18,0.05c-0.07,0.02-0.15,0.04-0.22,0.07c-0.06,0.03-0.12,0.06-0.18,0.1
	c-0.06,0.03-0.13,0.06-0.19,0.1c-0.09,0.06-0.17,0.13-0.25,0.2c-0.03,0.02-0.05,0.04-0.08,0.06l-9.69,9.69
	c-0.84,0.84-0.84,2.21,0,3.05c0.42,0.42,0.98,0.63,1.53,0.63c0.55,0,1.1-0.21,1.53-0.63l6.01-6v3.98l-9.06,9.06
	c-0.84,0.84-0.84,2.21,0,3.05c0.42,0.42,0.98,0.63,1.53,0.63c0.55,0,1.1-0.21,1.53-0.63l6.01-6v4.38L10.38,75.29z M44.86,44.39
	c-0.84,0.84-0.84,2.21,0,3.05c0.42,0.42,0.98,0.63,1.53,0.63c0.55,0,1.11-0.21,1.53-0.63l6.01-6.01V56.4c0,1.19,0.97,2.16,2.16,2.16
	c1.19,0,2.16-0.97,2.16-2.16V41.44l6.01,6.01c0.42,0.42,0.97,0.63,1.53,0.63c0.55,0,1.11-0.21,1.53-0.63c0.84-0.84,0.84-2.21,0-3.05
	l-9.06-9.06v-4.38l6.01,6c0.42,0.42,0.97,0.63,1.53,0.63c0.55,0,1.11-0.21,1.53-0.63c0.84-0.84,0.84-2.21,0-3.05l-9.06-9.06v-3.98
	l6.01,6c0.42,0.42,0.97,0.63,1.53,0.63c0.55,0,1.11-0.21,1.53-0.63c0.84-0.84,0.84-2.21,0-3.05l-9.7-9.69
	c-0.02-0.02-0.05-0.04-0.08-0.06c-0.08-0.07-0.16-0.14-0.25-0.2c-0.06-0.04-0.12-0.07-0.19-0.1c-0.06-0.03-0.12-0.07-0.19-0.1
	c-0.07-0.03-0.15-0.05-0.22-0.07c-0.06-0.02-0.12-0.04-0.18-0.05c-0.13-0.03-0.26-0.04-0.38-0.04c-0.01,0-0.03,0-0.04,0
	c-0.01,0-0.03,0-0.04,0c-0.13,0-0.26,0.01-0.38,0.04c-0.06,0.01-0.12,0.04-0.18,0.05c-0.07,0.02-0.15,0.04-0.22,0.07
	c-0.07,0.03-0.12,0.06-0.19,0.1c-0.06,0.03-0.13,0.06-0.19,0.1c-0.09,0.06-0.17,0.13-0.25,0.2c-0.03,0.02-0.06,0.04-0.08,0.07
	l-9.7,9.69c-0.84,0.84-0.84,2.21,0,3.05c0.42,0.42,0.98,0.63,1.53,0.63c0.55,0,1.11-0.21,1.53-0.63l6.01-6v3.98l-9.06,9.06
	c-0.84,0.84-0.84,2.21,0,3.05c0.42,0.42,0.98,0.63,1.53,0.63c0.55,0,1.11-0.21,1.53-0.63l6.01-6v4.38L44.86,44.39z"/>
</svg>
