<?xml version="1.0" encoding="utf-8"?>
<!-- Generator: Adobe Illustrator 23.0.6, SVG Export Plug-In . SVG Version: 6.00 Build 0)  -->
<svg version="1.1" id="Layer_1" xmlns="http://www.w3.org/2000/svg" xmlns:xlink="http://www.w3.org/1999/xlink" x="0px" y="0px"
	 viewBox="0 0 190.44 274.57" style="enable-background:new 0 0 190.44 274.57;" xml:space="preserve">
<style type="text/css">
	.st0{fill:#ED6B46;}
</style>
<path class="st0" d="M26.65,135.84c-1.92,1.72-4.5,2.68-7.34,2.68c-2.12,0-4.35-0.61-5.97-1.57c-3.59-2.12-6.07-6.07-6.07-10.82
	c0-4.76,2.53-8.75,6.12-10.88c1.62-0.96,3.59-1.52,5.82-1.52c2.58,0,5.16,0.81,7.28,2.58v-12.04c0-1.2,0.97-2.17,2.17-2.17h0.46
	c1.2,0,2.17,0.97,2.17,2.17v31.57c0,1.2-0.97,2.17-2.17,2.17h-0.3C27.62,138.01,26.65,137.04,26.65,135.84L26.65,135.84z
	 M26.5,121.67c-1.47-1.92-3.9-3.39-6.78-3.39c-4.6,0-7.64,3.69-7.64,7.84c0,4.25,3.29,7.84,7.89,7.84c2.43,0,4.91-1.21,6.53-3.39
	V121.67z M57.25,135.84c-1.92,1.72-4.5,2.68-7.34,2.68c-2.12,0-4.35-0.61-5.97-1.57c-3.59-2.12-6.07-6.07-6.07-10.82
	c0-4.76,2.53-8.75,6.12-10.88c1.62-0.96,3.59-1.52,5.82-1.52c2.68,0,5.26,0.81,7.44,2.68v0c0-1.2,0.97-2.17,2.17-2.17h0.3
	c1.2,0,2.17,0.97,2.17,2.17v19.43c0,1.2-0.97,2.17-2.17,2.17h-0.3C58.23,138.01,57.25,137.04,57.25,135.84L57.25,135.84z
	 M57.1,121.67c-1.47-1.92-3.9-3.39-6.78-3.39c-4.6,0-7.64,3.69-7.64,7.84c0,4.25,3.29,7.84,7.89,7.84c2.43,0,4.91-1.21,6.53-3.39
	V121.67z M71.89,146.9l5-11.37l-8.58-17.98c-0.73-1.54,0.39-3.32,2.09-3.32h0.02c0.9,0,1.71,0.52,2.1,1.33l6.81,14.36l6.22-14.29
	c0.37-0.85,1.2-1.39,2.13-1.39l0,0c1.67,0,2.79,1.71,2.13,3.24l-13.61,31.28c-0.37,0.85-1.2,1.39-2.13,1.39h-0.04
	C72.34,150.15,71.21,148.43,71.89,146.9z M119.67,113.73c7.03,0,12.29,5.31,12.29,12.39c0,7.08-5.26,12.39-12.29,12.39
	c-7.03,0-12.29-5.31-12.29-12.39C107.38,119.04,112.64,113.73,119.67,113.73z M119.67,133.97c4.4,0,7.49-3.49,7.49-7.84
	c0-4.35-3.09-7.84-7.49-7.84c-4.4,0-7.49,3.49-7.49,7.84C112.19,130.47,115.27,133.97,119.67,133.97z M140.21,134.52
	c-1.47-1.82-2.18-4.15-2.18-8.14v-9.99c0-1.19,0.96-2.15,2.15-2.15h0.51c1.19,0,2.15,0.96,2.15,2.15v10.75
	c0,2.43,0.51,3.74,1.37,4.75c1.06,1.27,2.78,2.07,4.6,2.07c2.93,0,5.31-1.77,6.68-3.39v-14.19c0-1.19,0.96-2.15,2.15-2.15h0.51
	c1.19,0,2.15,0.96,2.15,2.15v19.48c0,1.19-0.96,2.15-2.15,2.15h-0.35c-1.19,0-2.15-0.96-2.15-2.15v-0.02
	c-1.06,1.01-3.69,2.68-6.98,2.68C145.27,138.52,142.19,137,140.21,134.52z M183.09,135.85c0.28,1.25-0.59,2.48-1.86,2.6
	c-0.46,0.04-0.94,0.07-1.41,0.07c-2.99,0-5.21-1.06-6.73-2.78c-1.42-1.57-1.92-3.74-1.92-6.32v-10.88h-3.92
	c-1.19,0-2.15-0.96-2.15-2.15v0c0-1.19,0.96-2.15,2.15-2.15h3.92v-4.43c0-1.19,0.96-2.15,2.15-2.15h0.51c1.19,0,2.15,0.96,2.15,2.15
	v4.43h5.44c1.19,0,2.15,0.96,2.15,2.15v0c0,1.19-0.96,2.15-2.15,2.15h-5.44v11.13c0,1.27,0.1,2.33,0.71,3.04
	c0.66,0.81,2.02,1.27,3.29,1.27c0.24,0,0.53-0.01,0.84-0.03c1.05-0.08,1.99,0.65,2.22,1.68L183.09,135.85z M27.01,165.14l5.35,13.32
	l5.35-13.32c0.31-0.78,1.07-1.29,1.91-1.29h0c1.46,0,2.46,1.48,1.91,2.84l-7.02,17.27c-0.32,0.78-1.07,1.29-1.91,1.29h-0.22
	c-0.84,0-1.6-0.51-1.92-1.3l-5.49-13.72l-5.49,13.72c-0.31,0.78-1.07,1.3-1.92,1.3h-0.22c-0.84,0-1.6-0.51-1.91-1.29l-7.02-17.27
	c-0.55-1.36,0.45-2.84,1.91-2.84h0c0.84,0,1.6,0.51,1.91,1.29l5.35,13.32l5.35-13.32c0.31-0.78,1.07-1.29,1.91-1.29h0.21
	C25.93,163.84,26.69,164.36,27.01,165.14z M48.89,153.39c1.8-0.16,3.28,1.32,3.12,3.12c-0.12,1.33-1.26,2.43-2.59,2.54
	c-1.81,0.15-3.23-1.27-3.07-3.08C46.45,154.64,47.55,153.5,48.89,153.39z M48.95,163.84h0.46c1.07,0,1.93,0.87,1.93,1.93v17.52
	c0,1.07-0.87,1.93-1.93,1.93h-0.46c-1.07,0-1.93-0.87-1.93-1.93v-17.52C47.01,164.71,47.88,163.84,48.95,163.84z M71.85,183.29
	c0.25,1.12-0.53,2.23-1.67,2.34c-0.42,0.04-0.85,0.06-1.27,0.06c-2.69,0-4.69-0.96-6.05-2.5c-1.27-1.41-1.73-3.37-1.73-5.69v-9.79
	H57.6c-1.07,0-1.93-0.87-1.93-1.93l0,0c0-1.07,0.87-1.93,1.93-1.93h3.53v-3.98c0-1.07,0.87-1.93,1.93-1.93h0.46
	c1.07,0,1.93,0.87,1.93,1.93v3.98h4.89c1.07,0,1.93,0.87,1.93,1.93l0,0c0,1.07-0.87,1.93-1.93,1.93h-4.89v10.01
	c0,1.14,0.09,2.09,0.64,2.73c0.59,0.73,1.82,1.14,2.96,1.14c0.21,0,0.48-0.01,0.76-0.03c0.95-0.07,1.8,0.59,2,1.52L71.85,183.29z
	 M82.52,165.71c1.18-1,3.32-2.32,6.28-2.32c3.14,0,5.96,1.46,7.78,3.78c1.36,1.73,2.09,3.92,2.09,7.6v8.53
	c0,1.07-0.87,1.93-1.93,1.93h-0.46c-1.07,0-1.93-0.87-1.93-1.93v-8.76c0-2.73-0.5-4.01-1.27-4.96c-1-1.27-2.64-2.09-4.42-2.09
	c-2.82,0-4.87,1.5-6.14,3.05v12.77c0,1.07-0.87,1.93-1.93,1.93h-0.46c-1.07,0-1.93-0.87-1.93-1.93v-28.45
	c0-1.07,0.87-1.93,1.93-1.93h0.46c1.07,0,1.93,0.87,1.93,1.93V165.71z M130.56,183.29c0.25,1.12-0.53,2.23-1.67,2.34
	c-0.42,0.04-0.85,0.06-1.27,0.06c-2.68,0-4.69-0.96-6.05-2.5c-1.27-1.41-1.73-3.37-1.73-5.69v-9.79h-3.53
	c-1.07,0-1.93-0.87-1.93-1.93l0,0c0-1.07,0.87-1.93,1.93-1.93h3.53v-3.98c0-1.07,0.87-1.93,1.93-1.93h0.46
	c1.07,0,1.93,0.87,1.93,1.93v3.98h4.89c1.07,0,1.93,0.87,1.93,1.93l0,0c0,1.07-0.87,1.93-1.93,1.93h-4.89v10.01
	c0,1.14,0.09,2.09,0.64,2.73c0.59,0.73,1.82,1.14,2.96,1.14c0.21,0,0.48-0.01,0.76-0.03c0.95-0.07,1.8,0.59,2,1.52L130.56,183.29z
	 M141.23,165.71c1.18-1,3.32-2.32,6.28-2.32c3.14,0,5.96,1.46,7.78,3.78c1.37,1.73,2.09,3.92,2.09,7.6v8.53
	c0,1.07-0.87,1.93-1.93,1.93H155c-1.07,0-1.93-0.87-1.93-1.93v-8.76c0-2.73-0.5-4.01-1.27-4.96c-1-1.27-2.64-2.09-4.41-2.09
	c-2.82,0-4.87,1.5-6.15,3.05v12.77c0,1.07-0.87,1.93-1.93,1.93h-0.46c-1.07,0-1.93-0.87-1.93-1.93v-28.22
	c0-1.19,0.97-2.16,2.16-2.16l0,0c1.19,0,2.16,0.97,2.16,2.16V165.71z M167.04,175.45c0.23,3.6,3.19,6.46,6.92,6.46
	c2.24,0,3.75-0.76,4.88-1.69c0.77-0.63,1.88-0.63,2.61,0.05l0.05,0.05c0.86,0.82,0.77,2.21-0.16,2.95
	c-1.73,1.37-4.22,2.42-7.42,2.42c-6.24,0-11.06-4.73-11.06-11.15c0-6.42,4.37-11.15,10.42-11.15c5.96,0,10.29,4.82,10.29,11.15
	c0,0.37-0.12,0.9-0.79,0.91H167.04z M167.4,171.81h11.65c-0.64-2.73-3.1-4.64-5.64-4.64C170.64,167.17,168.13,169.03,167.4,171.81z
	 M44.72,272.7l-27.31-25.41v23.27c0,1.62-1.31,2.93-2.93,2.93h-0.34c-1.62,0-2.93-1.31-2.93-2.93v-71.31c0-1.62,1.31-2.93,2.93-2.93
	h0.34c1.62,0,2.93,1.31,2.93,2.93v45.33l24.52-19.99c0.52-0.43,1.18-0.66,1.85-0.66h0c2.75,0,3.99,3.45,1.86,5.2L24.8,246.2
	l23.97,22.2c1.96,1.81,0.67,5.08-1.99,5.08h-0.07C45.97,273.49,45.26,273.21,44.72,272.7z M68.19,204.1c2.63,0,4.79,2.16,4.79,4.79
	s-2.16,4.7-4.79,4.7c-2.63,0-4.7-2.07-4.7-4.7S65.55,204.1,68.19,204.1z M68.22,223.92L68.22,223.92c1.71,0,3.1,1.39,3.1,3.1v43.37
	c0,1.71-1.39,3.1-3.1,3.1h0c-1.71,0-3.1-1.39-3.1-3.1v-43.37C65.12,225.31,66.51,223.92,68.22,223.92z M95.99,269.9
	c-6.52-4.57-10.54-12.28-10.54-21.2c0-8.26,3.59-15.54,9.24-20.33c4.13-3.37,9.78-5.54,15.76-5.54c6.85,0,13.26,2.72,17.93,7.72
	V199.3c0-1.65,1.34-2.99,2.99-2.99h0.22c1.65,0,2.99,1.34,2.99,2.99v71.2c0,1.65-1.34,2.99-2.99,2.99l0,0
	c-1.65,0-2.99-1.34-2.99-2.99v-4.29c-3.69,5-10.11,8.37-17.83,8.37C106.1,274.57,100.88,273.38,95.99,269.9z M128.38,238.7
	c-2.17-3.7-8.7-10-17.83-10c-4.13,0-8.48,1.41-11.96,4.24c-4.35,3.59-6.96,9.35-6.96,15.76c0,6.85,3.04,12.94,7.83,16.3
	c3.15,2.17,6.96,3.7,11.2,3.7c7.28,0,13.8-4.13,17.72-10.87V238.7z M150.1,265.06c0.98-1.23,2.76-1.55,4.06-0.65
	c3.79,2.63,8.18,4.29,12.8,4.29c6.2,0,11.41-3.48,11.41-8.7c0-12.72-28.59-5.76-28.59-22.72c0-9.02,8.48-14.46,16.85-14.46
	c5.2,0,9.68,1.36,13.16,3.12c1.58,0.8,2.09,2.81,1.14,4.3l0,0c-0.85,1.34-2.61,1.78-3.99,1.01c-3.12-1.73-5.88-2.56-9.97-2.56
	c-5.22,0-10.98,2.72-10.98,8.48c0,10.98,28.59,5.11,28.59,22.5c0,9.24-7.83,14.89-17.17,14.89c-6.82,0-12.52-2.07-16.75-5.06
	c-1.42-1-1.7-2.99-0.62-4.35L150.1,265.06z M84.04,13.36l2.8,6.91c1.1,2.71,1.07,5.81-0.08,8.5l-2.7,6.33
	c-0.47,1.1,0.04,2.37,1.14,2.83c0.28,0.12,0.56,0.17,0.85,0.17c0.84,0,1.64-0.49,1.99-1.31l2.7-6.34c1.59-3.74,1.63-8.05,0.11-11.81
	l-2.69-6.65c-0.25-2.28,0.18-4.06,1.26-5.31c2.02-2.31,5.77-2.38,5.8-2.38c0.04,0,3.77,0.06,5.79,2.36c1.1,1.25,1.53,3.04,1.28,5.33
	l-2.69,6.65c-1.52,3.77-1.48,8.07,0.11,11.81l2.7,6.33c0.47,1.1,1.73,1.61,2.83,1.14c1.1-0.47,1.61-1.74,1.14-2.83l-2.7-6.33
	c-1.15-2.69-1.18-5.79-0.08-8.5l2.8-6.91c0.07-0.17,0.11-0.35,0.14-0.53c0.48-3.7-0.29-6.73-2.29-9C100.93,0.04,95.45,0,95.22,0
	c-0.23,0-5.71,0.04-9.03,3.83c-2,2.27-2.77,5.3-2.29,9C83.92,13.01,83.97,13.19,84.04,13.36z M45.26,64.67
	c0.09,0,0.17-0.01,0.26-0.02c1.18-0.14,2.03-1.22,1.89-2.4c-0.19-1.59-0.27-3.13-0.24-4.57c0.2-10.35,4.89-20.73,4.96-20.88
	l2.7-6.34c1.59-3.74,1.63-8.05,0.11-11.81l-2.69-6.65c-0.25-2.28,0.18-4.06,1.26-5.31c2.02-2.31,5.77-2.38,5.8-2.38
	c0.04,0,3.77,0.06,5.79,2.36c1.1,1.25,1.53,3.04,1.28,5.33l-2.69,6.65c-1.52,3.77-1.48,8.07,0.11,11.81l2.72,6.39
	c0.01,0.02,0.75,1.65,1.65,4.24c0.39,1.13,1.62,1.72,2.75,1.33c1.13-0.39,1.72-1.62,1.33-2.75c-0.97-2.8-1.77-4.55-1.78-4.57
	l-2.7-6.33c-1.15-2.69-1.18-5.79-0.08-8.5l2.8-6.91c0.07-0.17,0.12-0.35,0.14-0.53c0.48-3.7-0.29-6.73-2.29-9
	C65.02,0.04,59.54,0,59.31,0s-5.71,0.04-9.03,3.83c-2,2.27-2.77,5.3-2.29,9c0.02,0.18,0.07,0.36,0.14,0.53l2.8,6.91
	c1.1,2.71,1.07,5.81-0.08,8.5l-2.68,6.28c-0.21,0.46-5.1,11.28-5.32,22.54c-0.03,1.65,0.06,3.39,0.28,5.17
	C43.25,63.87,44.18,64.67,45.26,64.67z M120.96,42.71c1.13,0.39,2.36-0.21,2.74-1.34c0.94-2.75,1.74-4.5,1.77-4.57l2.7-6.33
	c1.59-3.74,1.63-8.05,0.11-11.81l-2.69-6.65c-0.25-2.28,0.18-4.06,1.26-5.31c2.02-2.31,5.77-2.38,5.79-2.38
	c0.04,0,3.8,0.06,5.81,2.38c1.09,1.25,1.51,3.04,1.26,5.31l-2.69,6.65c-1.52,3.77-1.48,8.08,0.11,11.81l2.72,6.39
	c0.05,0.1,4.73,10.45,4.93,20.83c0.04,2.07-0.15,4.33-0.56,6.71c-0.2,1.17,0.58,2.29,1.76,2.49c0.12,0.02,0.25,0.03,0.37,0.03
	c1.03,0,1.94-0.74,2.13-1.79c0.46-2.65,0.67-5.19,0.62-7.53c-0.22-11.26-5.12-22.08-5.3-22.49l-2.7-6.33
	c-1.15-2.69-1.18-5.79-0.08-8.5l2.8-6.91c0.07-0.17,0.12-0.35,0.14-0.53c0.48-3.7-0.29-6.73-2.29-9c-3.32-3.78-8.8-3.83-9.03-3.83
	s-5.71,0.04-9.03,3.83c-2,2.27-2.77,5.3-2.29,9c0.02,0.18,0.07,0.36,0.14,0.53l2.8,6.91c1.1,2.71,1.07,5.81-0.08,8.5l-2.68,6.28
	c-0.04,0.08-0.89,1.95-1.9,4.91C119.23,41.1,119.83,42.33,120.96,42.71z M188.28,84.27h-37.25c-6.48-25.6-29.2-43.35-55.79-43.35
	c-26.19,0-49.37,18.13-55.79,43.35H2.16C0.97,84.27,0,85.23,0,86.43c0,1.19,0.97,2.16,2.16,2.16h38.82c0.05,0,0.11,0.02,0.16,0.02
	c0.99,0,1.88-0.69,2.11-1.69c5.35-24.15,27.22-41.67,51.99-41.67c24.61,0,46.42,17.36,51.91,41.3c0.06,1.14,0.99,2.05,2.15,2.05
	h38.98c1.19,0,2.16-0.97,2.16-2.16C190.44,85.23,189.47,84.27,188.28,84.27z M72.08,69.95c-1.64-0.58-3.41-0.48-4.98,0.27
	c-1.57,0.75-2.75,2.07-3.33,3.71c-0.58,1.64-0.48,3.41,0.27,4.98c0.75,1.57,2.07,2.75,3.71,3.33c0.71,0.25,1.44,0.37,2.17,0.37
	c0.96,0,1.92-0.22,2.81-0.64c1.57-0.75,2.75-2.07,3.33-3.71c0.58-1.64,0.48-3.41-0.27-4.98C75.04,71.71,73.72,70.52,72.08,69.95z
	 M71.99,76.82c-0.19,0.55-0.59,1-1.12,1.25c-0.53,0.25-1.12,0.29-1.68,0.09c-0.55-0.19-1-0.59-1.25-1.12
	c-0.25-0.53-0.29-1.12-0.09-1.68c0.19-0.55,0.59-1,1.12-1.25c0.3-0.14,0.62-0.22,0.95-0.22c0.25,0,0.49,0.04,0.73,0.13
	c0.55,0.19,1,0.59,1.25,1.12C72.15,75.67,72.19,76.27,71.99,76.82z M90.71,68.2c1.57-0.75,2.75-2.07,3.33-3.71
	c1.19-3.39-0.6-7.11-3.98-8.31c-1.64-0.58-3.41-0.48-4.98,0.27c-1.57,0.75-2.75,2.07-3.33,3.71c-1.19,3.39,0.59,7.11,3.98,8.31
	c0.71,0.25,1.44,0.37,2.17,0.37C88.86,68.84,89.81,68.63,90.71,68.2z M85.82,61.6c0.19-0.55,0.59-1,1.12-1.25
	c0.3-0.14,0.62-0.22,0.95-0.22c0.25,0,0.49,0.04,0.73,0.13c1.14,0.4,1.74,1.66,1.34,2.8c-0.19,0.55-0.59,1-1.12,1.25
	c-0.53,0.25-1.12,0.29-1.68,0.09C86.02,63.99,85.42,62.74,85.82,61.6z M95.73,78.77c-1.64-0.58-3.41-0.48-4.98,0.27
	c-1.57,0.75-2.75,2.07-3.33,3.71c-0.58,1.64-0.48,3.41,0.27,4.98c0.75,1.57,2.07,2.75,3.71,3.33c0.71,0.25,1.44,0.37,2.17,0.37
	c0.96,0,1.92-0.21,2.81-0.64c1.57-0.75,2.75-2.07,3.33-3.71c0.58-1.64,0.48-3.41-0.27-4.98C98.69,80.53,97.37,79.34,95.73,78.77z
	 M95.64,85.64c-0.19,0.55-0.59,1-1.12,1.25c-0.53,0.25-1.12,0.29-1.68,0.09c-0.55-0.19-1-0.59-1.25-1.12
	c-0.25-0.53-0.29-1.12-0.09-1.68c0.19-0.55,0.59-1,1.12-1.25c0.3-0.14,0.62-0.22,0.95-0.22c0.25,0,0.49,0.04,0.73,0.13
	c0.55,0.19,1,0.59,1.25,1.12C95.8,84.49,95.83,85.09,95.64,85.64z"/>
</svg>
