<?xml version="1.0" encoding="utf-8"?>
<!-- Generator: Adobe Illustrator 23.0.6, SVG Export Plug-In . SVG Version: 6.00 Build 0)  -->
<svg version="1.1" id="Layer_1" xmlns="http://www.w3.org/2000/svg" xmlns:xlink="http://www.w3.org/1999/xlink" x="0px" y="0px"
	 viewBox="0 0 115.14 115.01" style="enable-background:new 0 0 115.14 115.01;" xml:space="preserve">
<style type="text/css">
	.st0{fill:#FDCE74;}
	.st1{fill:#8574B3;}
	.st2{fill:#FFFFFF;}
	.st3{fill:none;stroke:#FFFFFF;stroke-width:4.0959;stroke-linecap:round;stroke-linejoin:round;stroke-miterlimit:10;}
</style>
<g>
	<g>
		<path class="st0" d="M20.93,81.57c-0.73,0-1.43-0.39-1.8-1.07c-0.54-0.99-0.18-2.24,0.82-2.78
			c29.77-16.24,39.14-53.33,39.14-62.38c0-1.13,0.92-2.05,2.05-2.05s2.05,0.92,2.05,2.05c0,12.79-11.88,49.93-41.27,65.97
			C21.6,81.49,21.26,81.57,20.93,81.57z"/>
	</g>
	<g>
		<path class="st0" d="M51.71,81.57c-0.73,0-1.43-0.39-1.8-1.07c-0.54-0.99-0.18-2.24,0.82-2.78
			c28.61-15.61,35.04-51.16,35.04-62.38c0-1.13,0.92-2.05,2.05-2.05s2.05,0.92,2.05,2.05c0,11.85-6.83,49.41-37.18,65.97
			C52.38,81.49,52.04,81.57,51.71,81.57z"/>
	</g>
	<g>
		<path class="st0" d="M87.82,81.56c-1.13,0-2.05-0.92-2.05-2.05V2.12c0-1.13,0.92-2.05,2.05-2.05s2.05,0.92,2.05,2.05v77.39
			C89.86,80.65,88.95,81.56,87.82,81.56z"/>
	</g>
	<g>
		<path class="st0" d="M87.16,69.28H76.81c-1.13,0-2.05-0.92-2.05-2.05s0.92-2.05,2.05-2.05h10.35c1.13,0,2.05,0.92,2.05,2.05
			S88.29,69.28,87.16,69.28z"/>
	</g>
	<g>
		<path class="st0" d="M87.82,56.48H76.5c-1.13,0-2.05-0.92-2.05-2.05s0.92-2.05,2.05-2.05h11.32c1.13,0,2.05,0.92,2.05,2.05
			S88.95,56.48,87.82,56.48z"/>
	</g>
	<g>
		<path class="st0" d="M99.21,115.01c-7.64,0-11.62-3.07-15.14-5.77c-3.43-2.64-6.39-4.92-12.64-4.92c-6.24,0-9.2,2.28-12.63,4.92
			c-3.51,2.71-7.49,5.77-15.13,5.77c-7.64,0-11.62-3.07-15.13-5.77c-3.43-2.64-6.39-4.92-12.63-4.92c-6.24,0-9.2,2.28-12.62,4.92
			c-0.9,0.69-2.18,0.52-2.87-0.37c-0.69-0.9-0.52-2.18,0.37-2.87c3.51-2.7,7.49-5.77,15.12-5.77c7.64,0,11.62,3.07,15.13,5.77
			c3.43,2.64,6.39,4.92,12.63,4.92c6.24,0,9.2-2.28,12.63-4.92c3.51-2.71,7.49-5.77,15.13-5.77c7.64,0,11.62,3.07,15.14,5.77
			c3.43,2.64,6.39,4.92,12.64,4.92c6.25,0,9.21-2.28,12.64-4.92c0.9-0.69,2.18-0.52,2.87,0.37c0.69,0.9,0.52,2.18-0.37,2.87
			C110.83,111.94,106.85,115.01,99.21,115.01z"/>
	</g>
	<g>
		<path class="st0" d="M99.21,100.21c-7.64,0-11.62-3.07-15.14-5.77c-3.43-2.64-6.39-4.92-12.64-4.92c-6.24,0-9.2,2.28-12.63,4.92
			c-3.51,2.71-7.49,5.77-15.13,5.77c-7.64,0-11.62-3.07-15.13-5.77c-3.43-2.64-6.39-4.92-12.63-4.92c-6.24,0-9.2,2.28-12.63,4.92
			c-0.9,0.69-2.18,0.52-2.87-0.37c-0.69-0.9-0.52-2.18,0.37-2.87c3.51-2.71,7.49-5.77,15.13-5.77c7.64,0,11.62,3.07,15.13,5.77
			c3.43,2.64,6.39,4.92,12.63,4.92c6.24,0,9.2-2.28,12.63-4.92c3.51-2.71,7.49-5.77,15.13-5.77c7.64,0,11.62,3.07,15.14,5.77
			c3.43,2.64,6.39,4.92,12.64,4.92s9.21-2.28,12.64-4.92c0.9-0.69,2.18-0.52,2.87,0.37c0.69,0.9,0.52,2.18-0.37,2.87
			C110.83,97.14,106.85,100.21,99.21,100.21z"/>
	</g>
	<g>
		<path class="st0" d="M87.82,10.87H61.14c-1.13,0-2.05-0.92-2.05-2.05s0.92-2.05,2.05-2.05h26.68c1.13,0,2.05,0.92,2.05,2.05
			S88.95,10.87,87.82,10.87z"/>
	</g>
	<g>
		<path class="st0" d="M61.14,17.39c-1.13,0-2.05-0.92-2.05-2.05V2.12c0-1.13,0.92-2.05,2.05-2.05s2.05,0.92,2.05,2.05v13.22
			C63.18,16.48,62.27,17.39,61.14,17.39z"/>
	</g>
</g>
</svg>
