<?xml version="1.0" encoding="utf-8"?>
<!-- Generator: Adobe Illustrator 22.1.0, SVG Export Plug-In . SVG Version: 6.00 Build 0)  -->
<svg version="1.1" id="Layer_1" xmlns="http://www.w3.org/2000/svg" xmlns:xlink="http://www.w3.org/1999/xlink" x="0px" y="0px"
	 viewBox="0 0 190.4 287" style="enable-background:new 0 0 190.4 287;" xml:space="preserve">
<style type="text/css">
	.st0{fill:#ED6B46;}
</style>
<path class="st0" d="M26.8,148.6c-1.9,1.7-4.5,2.7-7.3,2.7c-2.1,0-4.3-0.6-6-1.6c-3.6-2.1-6.1-6.1-6.1-10.8c0-4.7,2.5-8.7,6.1-10.9
	c1.6-1,3.6-1.5,5.8-1.5c2.6,0,5.1,0.8,7.3,2.6v-12c0-1.2,1-2.2,2.2-2.2h0.5c1.2,0,2.2,1,2.2,2.2v31.5c0,1.2-1,2.2-2.2,2.2H29
	C27.8,150.7,26.8,149.8,26.8,148.6L26.8,148.6z M26.6,134.4c-1.5-1.9-3.9-3.4-6.8-3.4c-4.6,0-7.6,3.7-7.6,7.8c0,4.2,3.3,7.8,7.9,7.8
	c2.4,0,4.9-1.2,6.5-3.4V134.4z M57.3,148.6c-1.9,1.7-4.5,2.7-7.3,2.7c-2.1,0-4.3-0.6-6-1.6c-3.6-2.1-6.1-6.1-6.1-10.8
	c0-4.7,2.5-8.7,6.1-10.9c1.6-1,3.6-1.5,5.8-1.5c2.7,0,5.2,0.8,7.4,2.7l0,0c0-1.2,1-2.2,2.2-2.2h0.3c1.2,0,2.2,1,2.2,2.2v19.4
	c0,1.2-1,2.2-2.2,2.2h-0.3C58.3,150.7,57.3,149.8,57.3,148.6L57.3,148.6z M57.2,134.4c-1.5-1.9-3.9-3.4-6.8-3.4
	c-4.6,0-7.6,3.7-7.6,7.8c0,4.2,3.3,7.8,7.9,7.8c2.4,0,4.9-1.2,6.5-3.4V134.4z M71.9,159.6l5-11.3l-8.6-17.9
	c-0.7-1.5,0.4-3.3,2.1-3.3h0c0.9,0,1.7,0.5,2.1,1.3l6.8,14.3l6.2-14.3c0.4-0.8,1.2-1.4,2.1-1.4l0,0c1.7,0,2.8,1.7,2.1,3.2
	l-13.6,31.2c-0.4,0.8-1.2,1.4-2.1,1.4h0C72.4,162.8,71.3,161.1,71.9,159.6z M119.6,126.5c7,0,12.3,5.3,12.3,12.4
	c0,7.1-5.2,12.4-12.3,12.4c-7,0-12.3-5.3-12.3-12.4C107.4,131.8,112.6,126.5,119.6,126.5z M119.6,146.7c4.4,0,7.5-3.5,7.5-7.8
	s-3.1-7.8-7.5-7.8s-7.5,3.5-7.5,7.8C112.2,143.2,115.2,146.7,119.6,146.7z M140.1,147.2c-1.5-1.8-2.2-4.1-2.2-8.1v-10
	c0-1.2,1-2.1,2.1-2.1h0.5c1.2,0,2.1,1,2.1,2.1v10.7c0,2.4,0.5,3.7,1.4,4.7c1.1,1.3,2.8,2.1,4.6,2.1c2.9,0,5.3-1.8,6.7-3.4v-14.2
	c0-1.2,1-2.1,2.1-2.1h0.5c1.2,0,2.1,1,2.1,2.1v19.4c0,1.2-1,2.1-2.1,2.1h-0.3c-1.2,0-2.1-1-2.1-2.1v0c-1.1,1-3.7,2.7-7,2.7
	C145.2,151.2,142.1,149.7,140.1,147.2z M182.9,148.6c0.3,1.2-0.6,2.5-1.9,2.6c-0.5,0-0.9,0.1-1.4,0.1c-3,0-5.2-1.1-6.7-2.8
	c-1.4-1.6-1.9-3.7-1.9-6.3v-10.9h-3.9c-1.2,0-2.1-1-2.1-2.1l0,0c0-1.2,1-2.1,2.1-2.1h3.9v-4.4c0-1.2,1-2.1,2.1-2.1h0.5
	c1.2,0,2.1,1,2.1,2.1v4.4h5.4c1.2,0,2.1,1,2.1,2.1l0,0c0,1.2-1,2.1-2.1,2.1h-5.4v11.1c0,1.3,0.1,2.3,0.7,3c0.7,0.8,2,1.3,3.3,1.3
	c0.2,0,0.5,0,0.8,0c1-0.1,2,0.6,2.2,1.7L182.9,148.6z M27.2,177.8l5.3,13.3l5.3-13.3c0.3-0.8,1.1-1.3,1.9-1.3l0,0
	c1.5,0,2.5,1.5,1.9,2.8l-7,17.2c-0.3,0.8-1.1,1.3-1.9,1.3h-0.2c-0.8,0-1.6-0.5-1.9-1.3l-5.5-13.7l-5.5,13.7
	c-0.3,0.8-1.1,1.3-1.9,1.3h-0.2c-0.8,0-1.6-0.5-1.9-1.3l-7-17.2c-0.5-1.4,0.4-2.8,1.9-2.8l0,0c0.8,0,1.6,0.5,1.9,1.3l5.3,13.3
	l5.3-13.3c0.3-0.8,1.1-1.3,1.9-1.3h0.2C26.1,176.5,26.8,177,27.2,177.8z M49,166.1c1.8-0.2,3.3,1.3,3.1,3.1
	c-0.1,1.3-1.3,2.4-2.6,2.5c-1.8,0.1-3.2-1.3-3.1-3.1C46.6,167.3,47.7,166.2,49,166.1z M49,176.5h0.5c1.1,0,1.9,0.9,1.9,1.9v17.5
	c0,1.1-0.9,1.9-1.9,1.9H49c-1.1,0-1.9-0.9-1.9-1.9v-17.5C47.1,177.4,48,176.5,49,176.5z M71.9,195.9c0.2,1.1-0.5,2.2-1.7,2.3
	c-0.4,0-0.8,0.1-1.3,0.1c-2.7,0-4.7-1-6-2.5c-1.3-1.4-1.7-3.4-1.7-5.7v-9.8h-3.5c-1.1,0-1.9-0.9-1.9-1.9l0,0c0-1.1,0.9-1.9,1.9-1.9
	h3.5v-4c0-1.1,0.9-1.9,1.9-1.9h0.5c1.1,0,1.9,0.9,1.9,1.9v4h4.9c1.1,0,1.9,0.9,1.9,1.9l0,0c0,1.1-0.9,1.9-1.9,1.9h-4.9v10
	c0,1.1,0.1,2.1,0.6,2.7c0.6,0.7,1.8,1.1,3,1.1c0.2,0,0.5,0,0.8,0c0.9-0.1,1.8,0.6,2,1.5L71.9,195.9z M82.5,178.4
	c1.2-1,3.3-2.3,6.3-2.3c3.1,0,5.9,1.5,7.8,3.8c1.4,1.7,2.1,3.9,2.1,7.6v8.5c0,1.1-0.9,1.9-1.9,1.9h-0.5c-1.1,0-1.9-0.9-1.9-1.9v-8.7
	c0-2.7-0.5-4-1.3-4.9c-1-1.3-2.6-2.1-4.4-2.1c-2.8,0-4.9,1.5-6.1,3v12.7c0,1.1-0.9,1.9-1.9,1.9h-0.5c-1.1,0-1.9-0.9-1.9-1.9v-28.4
	c0-1.1,0.9-1.9,1.9-1.9h0.5c1.1,0,1.9,0.9,1.9,1.9V178.4z M130.5,195.9c0.2,1.1-0.5,2.2-1.7,2.3c-0.4,0-0.8,0.1-1.3,0.1
	c-2.7,0-4.7-1-6-2.5c-1.3-1.4-1.7-3.4-1.7-5.7v-9.8h-3.5c-1.1,0-1.9-0.9-1.9-1.9l0,0c0-1.1,0.9-1.9,1.9-1.9h3.5v-4
	c0-1.1,0.9-1.9,1.9-1.9h0.5c1.1,0,1.9,0.9,1.9,1.9v4h4.9c1.1,0,1.9,0.9,1.9,1.9l0,0c0,1.1-0.9,1.9-1.9,1.9h-4.9v10
	c0,1.1,0.1,2.1,0.6,2.7c0.6,0.7,1.8,1.1,3,1.1c0.2,0,0.5,0,0.8,0c0.9-0.1,1.8,0.6,2,1.5L130.5,195.9z M141.1,178.4
	c1.2-1,3.3-2.3,6.3-2.3c3.1,0,5.9,1.5,7.8,3.8c1.4,1.7,2.1,3.9,2.1,7.6v8.5c0,1.1-0.9,1.9-1.9,1.9h-0.4c-1.1,0-1.9-0.9-1.9-1.9v-8.7
	c0-2.7-0.5-4-1.3-4.9c-1-1.3-2.6-2.1-4.4-2.1c-2.8,0-4.9,1.5-6.1,3v12.7c0,1.1-0.9,1.9-1.9,1.9h-0.5c-1.1,0-1.9-0.9-1.9-1.9v-28.2
	c0-1.2,1-2.2,2.2-2.2l0,0c1.2,0,2.2,1,2.2,2.2L141.1,178.4L141.1,178.4z M166.9,188.1c0.2,3.6,3.2,6.4,6.9,6.4
	c2.2,0,3.7-0.8,4.9-1.7c0.8-0.6,1.9-0.6,2.6,0l0,0c0.9,0.8,0.8,2.2-0.2,2.9c-1.7,1.4-4.2,2.4-7.4,2.4c-6.2,0-11-4.7-11-11.1
	c0-6.4,4.4-11.1,10.4-11.1c5.9,0,10.3,4.8,10.3,11.1c0,0.4-0.1,0.9-0.8,0.9L166.9,188.1L166.9,188.1z M167.2,184.4h11.6
	c-0.6-2.7-3.1-4.6-5.6-4.6C170.5,179.8,168,181.7,167.2,184.4z M44.8,285.1l-27.3-25.4V283c0,1.6-1.3,2.9-2.9,2.9h-0.3
	c-1.6,0-2.9-1.3-2.9-2.9v-71.2c0-1.6,1.3-2.9,2.9-2.9h0.3c1.6,0,2.9,1.3,2.9,2.9v45.2L42,237.1c0.5-0.4,1.2-0.7,1.8-0.7l0,0
	c2.7,0,4,3.4,1.9,5.2l-20.8,17l23.9,22.2c2,1.8,0.7,5.1-2,5.1h-0.1C46.1,285.9,45.4,285.6,44.8,285.1z M68.2,216.7
	c2.6,0,4.8,2.2,4.8,4.8c0,2.6-2.2,4.7-4.8,4.7c-2.6,0-4.7-2.1-4.7-4.7C63.6,218.8,65.6,216.7,68.2,216.7z M68.3,236.4L68.3,236.4
	c1.7,0,3.1,1.4,3.1,3.1v43.3c0,1.7-1.4,3.1-3.1,3.1l0,0c-1.7,0-3.1-1.4-3.1-3.1v-43.3C65.2,237.8,66.6,236.4,68.3,236.4z M96,282.3
	c-6.5-4.6-10.5-12.3-10.5-21.2c0-8.2,3.6-15.5,9.2-20.3c4.1-3.4,9.8-5.5,15.7-5.5c6.8,0,13.2,2.7,17.9,7.7v-31.2c0-1.6,1.3-3,3-3
	h0.2c1.6,0,3,1.3,3,3v71c0,1.6-1.3,3-3,3l0,0c-1.6,0-3-1.3-3-3v-4.3c-3.7,5-10.1,8.4-17.8,8.4C106.1,287,100.9,285.8,96,282.3z
	 M128.3,251.2c-2.2-3.7-8.7-10-17.8-10c-4.1,0-8.5,1.4-11.9,4.2c-4.3,3.6-6.9,9.3-6.9,15.7c0,6.8,3,12.9,7.8,16.3
	c3.1,2.2,6.9,3.7,11.2,3.7c7.3,0,13.8-4.1,17.7-10.8V251.2z M150,277.5c1-1.2,2.8-1.5,4.1-0.6c3.8,2.6,8.2,4.3,12.8,4.3
	c6.2,0,11.4-3.5,11.4-8.7c0-12.7-28.5-5.7-28.5-22.7c0-9,8.5-14.4,16.8-14.4c5.2,0,9.7,1.4,13.1,3.1c1.6,0.8,2.1,2.8,1.1,4.3l0,0
	c-0.8,1.3-2.6,1.8-4,1c-3.1-1.7-5.9-2.6-9.9-2.6c-5.2,0-11,2.7-11,8.5c0,11,28.5,5.1,28.5,22.5c0,9.2-7.8,14.9-17.1,14.9
	c-6.8,0-12.5-2.1-16.7-5C149.1,280.9,148.8,278.9,150,277.5L150,277.5z M84.1,26.3l2.8,6.9c1.1,2.7,1.1,5.8-0.1,8.5L84.1,48
	c-0.5,1.1,0,2.4,1.1,2.8c0.3,0.1,0.6,0.2,0.8,0.2c0.8,0,1.6-0.5,2-1.3l2.7-6.3c1.6-3.7,1.6-8,0.1-11.8L88.2,25
	c-0.2-2.3,0.2-4.1,1.3-5.3c2-2.3,5.8-2.4,5.8-2.4c0,0,3.8,0.1,5.8,2.4c1.1,1.2,1.5,3,1.3,5.3l-2.7,6.6c-1.5,3.8-1.5,8.1,0.1,11.8
	l2.7,6.3c0.5,1.1,1.7,1.6,2.8,1.1c1.1-0.5,1.6-1.7,1.1-2.8l-2.7-6.3c-1.1-2.7-1.2-5.8-0.1-8.5l2.8-6.9c0.1-0.2,0.1-0.3,0.1-0.5
	c0.5-3.7-0.3-6.7-2.3-9c-3.3-3.8-8.8-3.8-9-3.8c-0.2,0-5.7,0-9,3.8c-2,2.3-2.8,5.3-2.3,9C83.9,26,84,26.2,84.1,26.3z M45.4,77.5
	c0.1,0,0.2,0,0.3,0c1.2-0.1,2-1.2,1.9-2.4c-0.2-1.6-0.3-3.1-0.2-4.6c0.2-10.3,4.9-20.7,4.9-20.8l2.7-6.3c1.6-3.7,1.6-8,0.1-11.8
	L52.3,25c-0.2-2.3,0.2-4.1,1.3-5.3c2-2.3,5.8-2.4,5.8-2.4c0,0,3.8,0.1,5.8,2.4c1.1,1.2,1.5,3,1.3,5.3l-2.7,6.6
	c-1.5,3.8-1.5,8.1,0.1,11.8l2.7,6.4c0,0,0.7,1.6,1.6,4.2c0.4,1.1,1.6,1.7,2.7,1.3s1.7-1.6,1.3-2.7c-1-2.8-1.8-4.5-1.8-4.6l-2.7-6.3
	c-1.1-2.7-1.2-5.8-0.1-8.5l2.8-6.9c0.1-0.2,0.1-0.3,0.1-0.5c0.5-3.7-0.3-6.7-2.3-9c-3.3-3.8-8.8-3.8-9-3.8s-5.7,0-9,3.8
	c-2,2.3-2.8,5.3-2.3,9c0,0.2,0.1,0.4,0.1,0.5l2.8,6.9c1.1,2.7,1.1,5.8-0.1,8.5L48.3,48c-0.2,0.5-5.1,11.3-5.3,22.5
	c0,1.6,0.1,3.4,0.3,5.2C43.4,76.7,44.3,77.5,45.4,77.5z M120.9,55.6c1.1,0.4,2.4-0.2,2.7-1.3c0.9-2.7,1.7-4.5,1.8-4.6l2.7-6.3
	c1.6-3.7,1.6-8,0.1-11.8l-2.7-6.6c-0.2-2.3,0.2-4.1,1.3-5.3c2-2.3,5.8-2.4,5.8-2.4c0,0,3.8,0.1,5.8,2.4c1.1,1.2,1.5,3,1.3,5.3
	l-2.7,6.6c-1.5,3.8-1.5,8.1,0.1,11.8l2.7,6.4c0,0.1,4.7,10.4,4.9,20.8c0,2.1-0.1,4.3-0.6,6.7c-0.2,1.2,0.6,2.3,1.8,2.5
	c0.1,0,0.2,0,0.4,0c1,0,1.9-0.7,2.1-1.8c0.5-2.6,0.7-5.2,0.6-7.5c-0.2-11.2-5.1-22-5.3-22.4l-2.7-6.3c-1.1-2.7-1.2-5.8-0.1-8.5
	l2.8-6.9c0.1-0.2,0.1-0.3,0.1-0.5c0.5-3.7-0.3-6.7-2.3-9c-3.3-3.8-8.8-3.8-9-3.8s-5.7,0-9,3.8c-2,2.3-2.8,5.3-2.3,9
	c0,0.2,0.1,0.4,0.1,0.5l2.8,6.9c1.1,2.7,1.1,5.8-0.1,8.5l-2.7,6.3c0,0.1-0.9,1.9-1.9,4.9C119.2,54,119.8,55.2,120.9,55.6z
	 M188.1,97.1h-37.2c-6.5-25.5-29.1-43.3-55.7-43.3c-26.1,0-49.3,18.1-55.7,43.3H2.4c-1.2,0-2.2,1-2.2,2.2c0,1.2,1,2.2,2.2,2.2h38.7
	c0,0,0.1,0,0.2,0c1,0,1.9-0.7,2.1-1.7c5.3-24.1,27.2-41.6,51.9-41.6c24.6,0,46.3,17.3,51.8,41.2c0.1,1.1,1,2,2.1,2h38.9
	c1.2,0,2.2-1,2.2-2.2C190.2,98,189.3,97.1,188.1,97.1z M72.1,82.8c-1.6-0.6-3.4-0.5-5,0.3c-1.6,0.7-2.7,2.1-3.3,3.7
	c-0.6,1.6-0.5,3.4,0.3,5c0.7,1.6,2.1,2.7,3.7,3.3c0.7,0.2,1.4,0.4,2.2,0.4c1,0,1.9-0.2,2.8-0.6c1.6-0.7,2.7-2.1,3.3-3.7
	c0.6-1.6,0.5-3.4-0.3-5C75.1,84.6,73.8,83.4,72.1,82.8z M72,89.7c-0.2,0.5-0.6,1-1.1,1.2c-0.5,0.2-1.1,0.3-1.7,0.1
	c-0.5-0.2-1-0.6-1.2-1.1c-0.2-0.5-0.3-1.1-0.1-1.7c0.2-0.5,0.6-1,1.1-1.2c0.3-0.1,0.6-0.2,0.9-0.2c0.2,0,0.5,0,0.7,0.1
	c0.5,0.2,1,0.6,1.2,1.1C72.2,88.5,72.2,89.1,72,89.7z M90.7,81.1c1.6-0.7,2.7-2.1,3.3-3.7c1.2-3.4-0.6-7.1-4-8.3
	c-1.6-0.6-3.4-0.5-5,0.3c-1.6,0.7-2.7,2.1-3.3,3.7c-1.2,3.4,0.6,7.1,4,8.3c0.7,0.2,1.4,0.4,2.2,0.4C88.9,81.7,89.8,81.5,90.7,81.1z
	 M85.8,74.5c0.2-0.5,0.6-1,1.1-1.2c0.3-0.1,0.6-0.2,0.9-0.2c0.2,0,0.5,0,0.7,0.1c1.1,0.4,1.7,1.7,1.3,2.8c-0.2,0.5-0.6,1-1.1,1.2
	c-0.5,0.2-1.1,0.3-1.7,0.1C86,76.9,85.4,75.6,85.8,74.5z M95.7,91.6c-1.6-0.6-3.4-0.5-5,0.3c-1.6,0.7-2.7,2.1-3.3,3.7
	c-0.6,1.6-0.5,3.4,0.3,5c0.7,1.6,2.1,2.7,3.7,3.3c0.7,0.2,1.4,0.4,2.2,0.4c1,0,1.9-0.2,2.8-0.6c1.6-0.7,2.7-2.1,3.3-3.7
	c0.6-1.6,0.5-3.4-0.3-5S97.4,92.2,95.7,91.6z M95.6,98.5c-0.2,0.5-0.6,1-1.1,1.2c-0.5,0.2-1.1,0.3-1.7,0.1c-0.5-0.2-1-0.6-1.2-1.1
	c-0.2-0.5-0.3-1.1-0.1-1.7c0.2-0.5,0.6-1,1.1-1.2c0.3-0.1,0.6-0.2,0.9-0.2c0.2,0,0.5,0,0.7,0.1c0.5,0.2,1,0.6,1.2,1.1
	C95.8,97.3,95.8,97.9,95.6,98.5z"/>
</svg>
