<?xml version="1.0" encoding="utf-8"?>
<!-- Generator: Adobe Illustrator 23.0.6, SVG Export Plug-In . SVG Version: 6.00 Build 0)  -->
<svg version="1.1" id="Layer_1" xmlns="http://www.w3.org/2000/svg" xmlns:xlink="http://www.w3.org/1999/xlink" x="0px" y="0px"
	 viewBox="0 0 103.6 94.04" style="enable-background:new 0 0 103.6 94.04;" xml:space="preserve">
<style type="text/css">
	.st0{fill:#FDCE74;}
	.st1{fill:#8574B3;}
	.st2{fill:#FFFFFF;}
	.st3{fill:none;stroke:#FFFFFF;stroke-width:4.0959;stroke-linecap:round;stroke-linejoin:round;stroke-miterlimit:10;}
</style>
<g id="SAFARI_2_">
	<g>
		<g>
			<path class="st2" d="M15.19,59.57c-5.42,0-11.12-4.47-13.78-11.33c-3.22-8.32-0.77-17.05,5.47-19.47
				c3.15-1.22,6.7-0.69,10.01,1.48c3.09,2.03,5.63,5.31,7.15,9.22c3.22,8.32,0.77,17.05-5.47,19.47
				C17.48,59.37,16.34,59.57,15.19,59.57z M10.33,32.23c-0.68,0-1.34,0.12-1.96,0.36c-4.06,1.57-5.5,8.06-3.13,14.17
				c2.37,6.11,7.8,9.94,11.86,8.37c4.06-1.57,5.5-8.06,3.13-14.17l0,0c-1.21-3.13-3.19-5.71-5.58-7.28
				C13.19,32.72,11.71,32.23,10.33,32.23z"/>
		</g>
		<g>
			<path class="st2" d="M36.18,34.73c-2.59,0-5.24-0.96-7.7-2.83c-3.23-2.46-5.75-6.23-7.11-10.63c-2.89-9.32,0.43-18.67,7.39-20.82
				c6.96-2.15,14.98,3.68,17.86,13c2.89,9.32-0.43,18.66-7.39,20.82C38.23,34.58,37.21,34.73,36.18,34.73z M31.75,4.09
				c-0.61,0-1.2,0.09-1.79,0.27c-4.72,1.46-6.87,8.65-4.69,15.7c1.11,3.59,3.13,6.64,5.68,8.58c2.35,1.79,4.85,2.4,7.06,1.72
				c4.72-1.46,6.87-8.65,4.69-15.7l0,0C40.79,8.48,36.07,4.09,31.75,4.09z"/>
		</g>
		<g>
			<path class="st2" d="M88.39,59.57c-1.15,0-2.29-0.2-3.38-0.62c-6.24-2.42-8.69-11.15-5.47-19.47l0,0
				c1.52-3.91,4.06-7.19,7.15-9.22c3.31-2.18,6.86-2.7,10.01-1.48c3.15,1.22,5.42,4,6.4,7.84c0.92,3.59,0.59,7.72-0.93,11.63
				C99.5,55.1,93.8,59.57,88.39,59.57z M83.35,40.95c-2.37,6.11-0.93,12.6,3.13,14.17c4.06,1.57,9.49-2.26,11.86-8.37
				c1.21-3.13,1.49-6.37,0.78-9.14c-0.64-2.52-2.03-4.31-3.91-5.03c-1.88-0.73-4.11-0.34-6.28,1.09
				C86.55,35.24,84.56,37.83,83.35,40.95L83.35,40.95z"/>
		</g>
		<g>
			<path class="st2" d="M67.33,34.72c-1,0-2-0.15-2.98-0.45c-6.96-2.16-10.28-11.5-7.39-20.82l0,0c2.89-9.32,10.9-15.16,17.86-13
				c6.96,2.16,10.28,11.5,7.39,20.82C79.73,29.28,73.47,34.72,67.33,34.72z M71.83,4.09c-4.32,0-9.04,4.39-10.95,10.57l0,0
				c-2.18,7.05-0.03,14.23,4.69,15.7c4.72,1.46,10.56-3.26,12.74-10.3c2.18-7.05,0.03-14.23-4.69-15.7
				C73.03,4.18,72.43,4.09,71.83,4.09z M58.92,14.06L58.92,14.06L58.92,14.06z"/>
		</g>
		<g>
			<path class="st2" d="M77.8,94.04c-2.43,0-6.59-0.18-10.64-1.22c-2.69-0.69-4.8-1.73-6.66-2.65c-2.6-1.28-4.82-2.41-8.24-2.37
				h-0.92c-3.37,0.01-5.65,1.08-8.25,2.37c-1.86,0.92-3.96,1.96-6.66,2.65c-5.87,1.5-11.95,1.21-12.69,1.17
				c-7.78-0.03-14.1-6.38-14.1-14.17c0-7.45,7.24-13.66,14.91-20.24c1.78-1.53,3.62-3.1,5.39-4.71c3.16-2.87,5.21-5.98,7.03-8.73
				c3.35-5.07,6.52-9.86,14.83-9.86c8.31,0,11.48,4.79,14.83,9.86c1.81,2.75,3.87,5.86,7.03,8.73c1.77,1.61,3.61,3.19,5.38,4.71
				c7.67,6.58,14.91,12.79,14.91,20.24c0,7.79-6.32,14.13-14.1,14.17C79.61,94.01,78.88,94.04,77.8,94.04z M52.39,83.71
				c4.27,0,7.14,1.42,9.92,2.79c1.76,0.87,3.58,1.77,5.86,2.35c5.51,1.4,11.42,1.05,11.48,1.05c0.04,0,0.09,0,0.13,0
				c5.55,0,10.07-4.52,10.07-10.07c0-5.57-6.55-11.19-13.48-17.13c-1.8-1.55-3.66-3.14-5.47-4.79c-3.53-3.22-5.74-6.56-7.69-9.5
				c-3.19-4.83-5.3-8.02-11.41-8.02c-6.11,0-8.22,3.19-11.41,8.02c-1.95,2.94-4.15,6.28-7.69,9.5c-1.81,1.65-3.67,3.25-5.48,4.79
				c-6.93,5.95-13.48,11.57-13.48,17.13c0,5.55,4.52,10.07,10.07,10.07c0.04,0,0.09,0,0.13,0c0.06,0,6,0.35,11.48-1.05
				c2.28-0.58,4.1-1.48,5.86-2.35c2.81-1.39,5.71-2.84,10.08-2.79h0.89C52.29,83.71,52.34,83.71,52.39,83.71z"/>
		</g>
	</g>
</g>
</svg>
