<?xml version="1.0" encoding="utf-8"?>
<!-- Generator: Adobe Illustrator 22.1.0, SVG Export Plug-In . SVG Version: 6.00 Build 0)  -->
<svg version="1.1" id="Layer_1" xmlns="http://www.w3.org/2000/svg" xmlns:xlink="http://www.w3.org/1999/xlink" x="0px" y="0px"
	 viewBox="0 0 190.4 290" style="enable-background:new 0 0 190.4 290;" xml:space="preserve">
<style type="text/css">
	.st0{fill:#8E74B1;}
</style>
<path class="st0" d="M26.6,151.3c-1.9,1.7-4.5,2.7-7.3,2.7c-2.1,0-4.4-0.6-6-1.6c-3.6-2.1-6.1-6.1-6.1-10.8c0-4.8,2.5-8.8,6.1-10.9
	c1.6-1,3.6-1.5,5.8-1.5c2.6,0,5.2,0.8,7.3,2.6v-12c0-1.2,1-2.2,2.2-2.2h0.5c1.2,0,2.2,1,2.2,2.2v31.6c0,1.2-1,2.2-2.2,2.2h-0.3
	C27.6,153.4,26.6,152.5,26.6,151.3L26.6,151.3z M26.5,137.1c-1.5-1.9-3.9-3.4-6.8-3.4c-4.6,0-7.6,3.7-7.6,7.8c0,4.2,3.3,7.8,7.9,7.8
	c2.4,0,4.9-1.2,6.5-3.4V137.1z M57.2,151.3c-1.9,1.7-4.5,2.7-7.3,2.7c-2.1,0-4.3-0.6-6-1.6c-3.6-2.1-6.1-6.1-6.1-10.8
	c0-4.8,2.5-8.8,6.1-10.9c1.6-1,3.6-1.5,5.8-1.5c2.7,0,5.3,0.8,7.4,2.7l0,0c0-1.2,1-2.2,2.2-2.2h0.3c1.2,0,2.2,1,2.2,2.2v19.4
	c0,1.2-1,2.2-2.2,2.2h-0.3C58.2,153.4,57.2,152.5,57.2,151.3L57.2,151.3z M57.1,137.1c-1.5-1.9-3.9-3.4-6.8-3.4
	c-4.6,0-7.6,3.7-7.6,7.8c0,4.2,3.3,7.8,7.9,7.8c2.4,0,4.9-1.2,6.5-3.4V137.1z M71.9,162.3l5-11.4l-8.6-18c-0.7-1.5,0.4-3.3,2.1-3.3
	h0c0.9,0,1.7,0.5,2.1,1.3l6.8,14.4l6.2-14.3c0.4-0.8,1.2-1.4,2.1-1.4l0,0c1.7,0,2.8,1.7,2.1,3.2l-13.6,31.3
	c-0.4,0.9-1.2,1.4-2.1,1.4H74C72.3,165.6,71.2,163.8,71.9,162.3z M119.7,129.1c7,0,12.3,5.3,12.3,12.4c0,7.1-5.3,12.4-12.3,12.4
	s-12.3-5.3-12.3-12.4C107.4,134.5,112.6,129.1,119.7,129.1z M119.7,149.4c4.4,0,7.5-3.5,7.5-7.8s-3.1-7.8-7.5-7.8s-7.5,3.5-7.5,7.8
	C112.2,145.9,115.3,149.4,119.7,149.4z M140.2,149.9c-1.5-1.8-2.2-4.1-2.2-8.1v-10c0-1.2,1-2.1,2.1-2.1h0.5c1.2,0,2.1,1,2.1,2.1
	v10.8c0,2.4,0.5,3.7,1.4,4.8c1.1,1.3,2.8,2.1,4.6,2.1c2.9,0,5.3-1.8,6.7-3.4v-14.2c0-1.2,1-2.2,2.1-2.2h0.5c1.2,0,2.1,1,2.1,2.2
	v19.5c0,1.2-1,2.1-2.1,2.1h-0.4c-1.2,0-2.1-1-2.1-2.1v0c-1.1,1-3.7,2.7-7,2.7C145.3,153.9,142.2,152.4,140.2,149.9z M183.1,151.3
	c0.3,1.2-0.6,2.5-1.9,2.6c-0.5,0-0.9,0.1-1.4,0.1c-3,0-5.2-1.1-6.7-2.8c-1.4-1.6-1.9-3.7-1.9-6.3V134h-3.9c-1.2,0-2.1-1-2.1-2.2l0,0
	c0-1.2,1-2.1,2.1-2.1h3.9v-4.4c0-1.2,1-2.2,2.1-2.2h0.5c1.2,0,2.1,1,2.1,2.2v4.4h5.4c1.2,0,2.1,1,2.1,2.1l0,0c0,1.2-1,2.2-2.1,2.2
	H176v11.1c0,1.3,0.1,2.3,0.7,3c0.7,0.8,2,1.3,3.3,1.3c0.2,0,0.5,0,0.8,0c1.1-0.1,2,0.7,2.2,1.7L183.1,151.3z M27,180.6l5.4,13.3
	l5.3-13.3c0.3-0.8,1.1-1.3,1.9-1.3l0,0c1.5,0,2.5,1.5,1.9,2.8l-7,17.3c-0.3,0.8-1.1,1.3-1.9,1.3h-0.2c-0.8,0-1.6-0.5-1.9-1.3
	l-5.5-13.7l-5.5,13.7c-0.3,0.8-1.1,1.3-1.9,1.3h-0.2c-0.8,0-1.6-0.5-1.9-1.3l-7-17.3c-0.6-1.4,0.4-2.8,1.9-2.8l0,0
	c0.8,0,1.6,0.5,1.9,1.3l5.4,13.3l5.4-13.3c0.3-0.8,1.1-1.3,1.9-1.3H25C25.9,179.3,26.7,179.8,27,180.6z M48.9,168.8
	c1.8-0.2,3.3,1.3,3.1,3.1c-0.1,1.3-1.3,2.4-2.6,2.5c-1.8,0.1-3.2-1.3-3.1-3.1C46.4,170.1,47.5,168.9,48.9,168.8z M48.9,179.3h0.5
	c1.1,0,1.9,0.9,1.9,1.9v17.5c0,1.1-0.9,1.9-1.9,1.9h-0.5c-1.1,0-1.9-0.9-1.9-1.9v-17.5C47,180.1,47.9,179.3,48.9,179.3z M71.8,198.7
	c0.2,1.1-0.5,2.2-1.7,2.3c-0.4,0-0.8,0.1-1.3,0.1c-2.7,0-4.7-1-6-2.5c-1.3-1.4-1.7-3.4-1.7-5.7v-9.8h-3.5c-1.1,0-1.9-0.9-1.9-1.9
	l0,0c0-1.1,0.9-1.9,1.9-1.9h3.5v-4c0-1.1,0.9-1.9,1.9-1.9h0.5c1.1,0,1.9,0.9,1.9,1.9v4h4.9c1.1,0,1.9,0.9,1.9,1.9l0,0
	c0,1.1-0.9,1.9-1.9,1.9h-4.9v10c0,1.1,0.1,2.1,0.6,2.7c0.6,0.7,1.8,1.1,3,1.1c0.2,0,0.5,0,0.8,0c0.9-0.1,1.8,0.6,2,1.5L71.8,198.7z
	 M82.5,181.1c1.2-1,3.3-2.3,6.3-2.3c3.1,0,6,1.5,7.8,3.8c1.4,1.7,2.1,3.9,2.1,7.6v8.5c0,1.1-0.9,1.9-1.9,1.9h-0.5
	c-1.1,0-1.9-0.9-1.9-1.9V190c0-2.7-0.5-4-1.3-5c-1-1.3-2.6-2.1-4.4-2.1c-2.8,0-4.9,1.5-6.1,3.1v12.8c0,1.1-0.9,1.9-1.9,1.9h-0.5
	c-1.1,0-1.9-0.9-1.9-1.9v-28.4c0-1.1,0.9-1.9,1.9-1.9h0.5c1.1,0,1.9,0.9,1.9,1.9V181.1z M130.6,198.7c0.2,1.1-0.5,2.2-1.7,2.3
	c-0.4,0-0.9,0.1-1.3,0.1c-2.7,0-4.7-1-6.1-2.5c-1.3-1.4-1.7-3.4-1.7-5.7v-9.8h-3.5c-1.1,0-1.9-0.9-1.9-1.9l0,0
	c0-1.1,0.9-1.9,1.9-1.9h3.5v-4c0-1.1,0.9-1.9,1.9-1.9h0.5c1.1,0,1.9,0.9,1.9,1.9v4h4.9c1.1,0,1.9,0.9,1.9,1.9l0,0
	c0,1.1-0.9,1.9-1.9,1.9h-4.9v10c0,1.1,0.1,2.1,0.6,2.7c0.6,0.7,1.8,1.1,3,1.1c0.2,0,0.5,0,0.8,0c0.9-0.1,1.8,0.6,2,1.5L130.6,198.7z
	 M141.2,181.1c1.2-1,3.3-2.3,6.3-2.3c3.1,0,6,1.5,7.8,3.8c1.4,1.7,2.1,3.9,2.1,7.6v8.5c0,1.1-0.9,1.9-1.9,1.9H155
	c-1.1,0-1.9-0.9-1.9-1.9V190c0-2.7-0.5-4-1.3-5c-1-1.3-2.6-2.1-4.4-2.1c-2.8,0-4.9,1.5-6.1,3.1v12.8c0,1.1-0.9,1.9-1.9,1.9h-0.5
	c-1.1,0-1.9-0.9-1.9-1.9v-28.2c0-1.2,1-2.2,2.2-2.2l0,0c1.2,0,2.2,1,2.2,2.2L141.2,181.1L141.2,181.1z M167,190.9
	c0.2,3.6,3.2,6.5,6.9,6.5c2.2,0,3.8-0.8,4.9-1.7c0.8-0.6,1.9-0.6,2.6,0.1l0.1,0.1c0.9,0.8,0.8,2.2-0.2,2.9c-1.7,1.4-4.2,2.4-7.4,2.4
	c-6.2,0-11.1-4.7-11.1-11.1s4.4-11.1,10.4-11.1c6,0,10.3,4.8,10.3,11.1c0,0.4-0.1,0.9-0.8,0.9L167,190.9L167,190.9z M167.4,187.2
	H179c-0.6-2.7-3.1-4.6-5.6-4.6C170.6,182.6,168.1,184.4,167.4,187.2z M44.7,288.1l-27.3-25.4V286c0,1.6-1.3,2.9-2.9,2.9h-0.3
	c-1.6,0-2.9-1.3-2.9-2.9v-71.3c0-1.6,1.3-2.9,2.9-2.9h0.3c1.6,0,2.9,1.3,2.9,2.9V260l24.5-20c0.5-0.4,1.2-0.7,1.8-0.7l0,0
	c2.8,0,4,3.4,1.9,5.2l-20.8,17.1l24,22.2c2,1.8,0.7,5.1-2,5.1h-0.1C46,288.9,45.2,288.6,44.7,288.1z M68.2,219.5
	c2.6,0,4.8,2.2,4.8,4.8s-2.2,4.7-4.8,4.7s-4.7-2.1-4.7-4.7S65.5,219.5,68.2,219.5z M68.2,239.3L68.2,239.3c1.7,0,3.1,1.4,3.1,3.1
	v43.4c0,1.7-1.4,3.1-3.1,3.1l0,0c-1.7,0-3.1-1.4-3.1-3.1v-43.4C65.1,240.7,66.5,239.3,68.2,239.3z M96,285.3
	c-6.5-4.6-10.5-12.3-10.5-21.2c0-8.3,3.6-15.5,9.2-20.3c4.1-3.4,9.8-5.5,15.8-5.5c6.8,0,13.3,2.7,17.9,7.7v-31.2c0-1.6,1.3-3,3-3
	h0.2c1.6,0,3,1.3,3,3v71.2c0,1.7-1.3,3-3,3l0,0c-1.6,0-3-1.3-3-3v-4.3c-3.7,5-10.1,8.4-17.8,8.4C106.1,290,100.9,288.8,96,285.3z
	 M128.4,254.1c-2.2-3.7-8.7-10-17.8-10c-4.1,0-8.5,1.4-12,4.2c-4.3,3.6-7,9.4-7,15.8c0,6.9,3,12.9,7.8,16.3c3.2,2.2,7,3.7,11.2,3.7
	c7.3,0,13.8-4.1,17.7-10.9V254.1z M150.1,280.5c1-1.2,2.8-1.6,4.1-0.6c3.8,2.6,8.2,4.3,12.8,4.3c6.2,0,11.4-3.5,11.4-8.7
	c0-12.7-28.6-5.8-28.6-22.7c0-9,8.5-14.5,16.9-14.5c5.2,0,9.7,1.4,13.2,3.1c1.6,0.8,2.1,2.8,1.1,4.3l0,0c-0.9,1.3-2.6,1.8-4,1
	c-3.1-1.7-5.9-2.6-10-2.6c-5.2,0-11,2.7-11,8.5c0,11,28.6,5.1,28.6,22.5c0,9.2-7.8,14.9-17.2,14.9c-6.8,0-12.5-2.1-16.8-5.1
	C149.2,283.9,149,281.9,150.1,280.5L150.1,280.5z M78.1,88.2c-4.2,0-7.6,3.4-7.6,7.6c0,4.2,3.4,7.6,7.6,7.6c4.2,0,7.6-3.4,7.6-7.6
	C85.7,91.6,82.3,88.2,78.1,88.2z M78.1,99c-1.8,0-3.2-1.5-3.2-3.2s1.5-3.2,3.2-3.2s3.2,1.5,3.2,3.2C81.4,97.6,79.9,99,78.1,99z
	 M112.5,88.2c-4.2,0-7.6,3.4-7.6,7.6c0,4.2,3.4,7.6,7.6,7.6c4.2,0,7.6-3.4,7.6-7.6C120.1,91.6,116.7,88.2,112.5,88.2z M112.5,99
	c-1.8,0-3.2-1.5-3.2-3.2s1.5-3.2,3.2-3.2s3.2,1.5,3.2,3.2C115.8,97.6,114.3,99,112.5,99z M188.3,99.7H151
	c-2.3-9.2-6.8-17.5-12.8-24.2v-2.2c0-8.3-2.4-16.2-6.9-23.1l14.5-12.4c0,0,0.1-0.1,0.1-0.1c2.6-2.6,2.6-6.9,0-9.5
	c-1.3-1.3-3-2-4.8-2c-1.8,0-3.5,0.7-4.8,2c0,0-0.1,0.1-0.1,0.1l-11.8,13.8c-7.9-7.4-18.3-11.5-29.3-11.5s-21.4,4.1-29.3,11.5
	L54.1,28.1c0,0-0.1-0.1-0.1-0.1c-1.3-1.3-3-2-4.8-2c-1.8,0-3.5,0.7-4.8,2c-2.6,2.6-2.6,6.9,0,9.5c0,0,0.1,0.1,0.1,0.1L59,50.1
	C54.6,57,52.2,65,52.2,73.2v2.6c-6,6.7-10.4,14.8-12.7,23.9H2.2c-1.2,0-2.2,1-2.2,2.2s1,2.2,2.2,2.2H41c0,0,0.1,0,0.2,0
	c1,0,1.9-0.7,2.1-1.7c5.3-24.2,27.2-41.7,52-41.7c24.6,0,46.4,17.4,51.9,41.3c0.1,1.1,1,2.1,2.1,2.1h39c1.2,0,2.2-1,2.2-2.2
	C190.4,100.6,189.5,99.7,188.3,99.7z M139.6,31c0.9-0.9,2.5-0.9,3.4,0.1c0.9,0.9,0.9,2.4,0.1,3.4l-14.1,12.1c-0.4-0.5-0.9-1-1.3-1.6
	L139.6,31z M47.4,34.4c-0.9-0.9-0.9-2.4,0-3.4c0.9-0.9,2.5-0.9,3.4,0l12,14c-0.5,0.5-0.9,1-1.3,1.6L47.4,34.4z M95.2,56.3
	c-14.6,0-28.3,5.7-38.7,15.1C57,62,60.9,53.1,67.7,46.1c7.2-7.4,17-11.5,27.5-11.5c10.5,0,20.3,4.1,27.5,11.5
	c6.7,6.8,10.6,15.6,11.1,24.9C123.6,61.8,110,56.3,95.2,56.3z M86,47.5c-2.7-1.5-5.8-1.8-8.8-1c-3,0.9-5.4,2.8-6.9,5.5
	c-0.6,1-0.2,2.4,0.8,2.9c0.3,0.2,0.7,0.3,1,0.3c0.8,0,1.5-0.4,1.9-1.1c0.9-1.7,2.5-2.9,4.3-3.5s3.8-0.3,5.5,0.6
	c1.1,0.6,2.4,0.2,2.9-0.8C87.4,49.4,87.1,48.1,86,47.5z M113.2,46.5c-3-0.9-6.1-0.5-8.8,1c-1,0.6-1.4,1.9-0.8,2.9
	c0.6,1,1.9,1.4,2.9,0.8c1.7-0.9,3.7-1.2,5.5-0.6s3.4,1.8,4.3,3.5c0.4,0.7,1.1,1.1,1.9,1.1c0.3,0,0.7-0.1,1-0.3
	c1-0.6,1.4-1.9,0.8-2.9C118.7,49.3,116.2,47.4,113.2,46.5z M110.1,76.8c-4.1,0.4-9.8,2.3-14.9,8.7c-5.1-6.4-10.8-8.3-14.9-8.7
	c-6-0.6-12.1,1.7-16.3,6c-7,7.2-5.5,18.8-5.4,19.3c0.2,1.1,1.1,1.8,2.1,1.8c0.1,0,0.2,0,0.3,0c1.2-0.2,2-1.3,1.8-2.4
	c0-0.1-1.3-9.9,4.2-15.6c3.3-3.4,8.2-5.2,12.8-4.8c5.2,0.5,9.9,3.7,13.5,9.3l0,0c0.1,0.1,0.1,0.2,0.2,0.2c0,0,0.1,0.1,0.1,0.1
	c0,0,0.1,0.1,0.1,0.1C93.9,90.9,94,91,94,91l0,0c0.1,0,0.1,0.1,0.2,0.1c0.1,0,0.1,0.1,0.2,0.1s0.2,0.1,0.2,0.1c0.1,0,0.1,0,0.2,0.1
	c0.1,0,0.2,0,0.2,0c0.1,0,0.1,0,0.2,0c0.1,0,0.2,0,0.2,0c0.1,0,0.1,0,0.2,0c0.1,0,0.2,0,0.2-0.1c0.1,0,0.1,0,0.2-0.1
	c0.1,0,0.2-0.1,0.2-0.1c0,0,0.1,0,0.1-0.1l0,0c0.1-0.1,0.2-0.1,0.2-0.2c0,0,0.1-0.1,0.1-0.1s0.1-0.1,0.1-0.1
	c0.1-0.1,0.1-0.1,0.2-0.2l0,0c3.7-5.6,8.3-8.8,13.5-9.3c4.6-0.4,9.5,1.4,12.8,4.8c5.5,5.7,4.2,15.5,4.2,15.6
	c-0.2,1.2,0.6,2.3,1.8,2.4c0.1,0,0.2,0,0.3,0c1.1,0,2-0.8,2.1-1.8c0.1-0.5,1.6-12.1-5.4-19.3C122.2,78.5,116.1,76.2,110.1,76.8z"/>
</svg>
