<?xml version="1.0" encoding="utf-8"?>
<!-- Generator: Adobe Illustrator 23.0.6, SVG Export Plug-In . SVG Version: 6.00 Build 0)  -->
<svg version="1.1" id="Layer_1" xmlns="http://www.w3.org/2000/svg" xmlns:xlink="http://www.w3.org/1999/xlink" x="0px" y="0px"
	 viewBox="0 0 135.93 85.89" style="enable-background:new 0 0 135.93 85.89;" xml:space="preserve">
<style type="text/css">
	.st0{fill:#FDCE74;}
	.st1{fill:#8574B3;}
	.st2{fill:#FFFFFF;}
	.st3{fill:none;stroke:#FFFFFF;stroke-width:4.0959;stroke-linecap:round;stroke-linejoin:round;stroke-miterlimit:10;}
</style>
<g>
	<g>
		<g>
			<path class="st1" d="M51.53,53.27c-0.29,0-0.58-0.06-0.86-0.19c-1.03-0.48-1.47-1.7-0.99-2.72l5.2-11.17
				c0.48-1.02,1.69-1.47,2.72-0.99c1.03,0.48,1.47,1.7,0.99,2.72l-5.2,11.17C53.04,52.83,52.3,53.27,51.53,53.27z"/>
		</g>
		<g>
			<g>
				<path class="st1" d="M92.43,57.13c-1.91,0-3.36-0.32-3.51-0.36c-14.64-3.5-36.72-16.33-41.56-20.7
					c-0.4-0.36-0.65-0.87-0.67-1.42C46.66,34.1,46.16,20.6,61.7,0.79c0.7-0.89,1.99-1.04,2.88-0.35c0.89,0.7,1.05,1.98,0.35,2.88
					C52.57,19.07,50.99,30.52,50.8,33.62c5.68,4.54,25.89,16.02,39.05,19.16c0.05,0.01,6.41,1.4,8.22-2.49
					c1.68-3.62-2.45-7.4-9.45-13.21c-2.48-2.06-5.05-4.19-7.4-6.51c-1.23-1.03-8.62-7.94-2.66-20.74c0.48-1.02,1.69-1.47,2.72-0.99
					c1.03,0.48,1.47,1.7,0.99,2.72c-5.05,10.84,1.47,15.8,1.54,15.85c0.08,0.06,0.16,0.13,0.23,0.2c2.23,2.22,4.75,4.31,7.19,6.33
					c7.04,5.84,13.68,11.35,10.54,18.09C99.81,56.29,95.51,57.13,92.43,57.13z"/>
			</g>
			<g>
				<path class="st1" d="M125.74,85.89c-0.68,0-1.39-0.04-2.11-0.13c-3.7-0.43-6.69-1.85-6.82-1.91L1.18,30.06
					c-1.03-0.48-1.47-1.7-0.99-2.72c0.48-1.02,1.7-1.47,2.72-0.99l115.65,53.81c0.11,0.05,9.58,4.45,13.64-1.41
					c0.64-0.93,1.92-1.16,2.85-0.52c0.93,0.64,1.16,1.92,0.52,2.85C133.37,84.25,130,85.89,125.74,85.89z"/>
			</g>
			<g>
				<path class="st1" d="M77.31,65.27c-0.29,0-0.58-0.06-0.86-0.19c-1.03-0.48-1.47-1.7-0.99-2.72l4.95-10.64
					c0.48-1.03,1.69-1.47,2.72-0.99c1.03,0.48,1.47,1.7,0.99,2.72l-4.95,10.64C78.82,64.83,78.09,65.27,77.31,65.27z"/>
			</g>
			<g>
				<path class="st1" d="M73.75,24.57c-2.24,0-4.13-0.53-4.48-0.63c-1.08-0.32-1.7-1.46-1.38-2.55c0.32-1.08,1.46-1.7,2.54-1.38
					c1.15,0.33,4.79,0.98,6.52-0.36c0.89-0.69,2.18-0.53,2.87,0.37s0.53,2.18-0.37,2.87C77.76,24.19,75.63,24.57,73.75,24.57z"/>
			</g>
			<g>
				<path class="st1" d="M73.8,33.95c-1.07,0-1.97-0.83-2.04-1.91c-0.08-1.13,0.77-2.1,1.9-2.18l0,0c1.19-0.09,4.83-0.75,5.98-2.61
					c0.6-0.96,1.86-1.26,2.82-0.66c0.96,0.6,1.26,1.86,0.66,2.82c-2.46,3.97-8.5,4.5-9.18,4.54C73.9,33.95,73.85,33.95,73.8,33.95z"
					/>
			</g>
			<g>
				<path class="st1" d="M80.6,41.06c-0.9,0-1.73-0.6-1.97-1.51c-0.3-1.09,0.34-2.21,1.43-2.51c1.15-0.32,4.58-1.69,5.35-3.74
					c0.39-1.06,1.57-1.6,2.63-1.21c1.06,0.39,1.6,1.57,1.21,2.63c-1.63,4.38-7.45,6.09-8.1,6.27C80.96,41.04,80.78,41.06,80.6,41.06
					z"/>
			</g>
		</g>
	</g>
</g>
</svg>
