<?xml version="1.0" encoding="utf-8"?>
<!-- Generator: Adobe Illustrator 22.1.0, SVG Export Plug-In . SVG Version: 6.00 Build 0)  -->
<svg version="1.1" id="Layer_1" xmlns="http://www.w3.org/2000/svg" xmlns:xlink="http://www.w3.org/1999/xlink" x="0px" y="0px"
	 viewBox="0 0 190.4 290" style="enable-background:new 0 0 190.4 290;" xml:space="preserve">
<style type="text/css">
	.st0{fill:#FBD96E;}
</style>
<path class="st0" d="M25.9,151.3c-1.9,1.7-4.5,2.7-7.3,2.7c-2.1,0-4.3-0.6-6-1.6c-3.6-2.1-6.1-6.1-6.1-10.8c0-4.8,2.5-8.8,6.1-10.9
	c1.6-1,3.6-1.5,5.8-1.5c2.6,0,5.2,0.8,7.3,2.6v-12c0-1.2,1-2.2,2.2-2.2h0.5c1.2,0,2.2,1,2.2,2.2v31.6c0,1.2-1,2.2-2.2,2.2h-0.3
	C26.9,153.5,25.9,152.5,25.9,151.3L25.9,151.3z M25.8,137.1c-1.5-1.9-3.9-3.4-6.8-3.4c-4.6,0-7.6,3.7-7.6,7.8c0,4.2,3.3,7.8,7.9,7.8
	c2.4,0,4.9-1.2,6.5-3.4V137.1z M56.5,151.3c-1.9,1.7-4.5,2.7-7.3,2.7c-2.1,0-4.3-0.6-6-1.6c-3.6-2.1-6.1-6.1-6.1-10.8
	c0-4.8,2.5-8.8,6.1-10.9c1.6-1,3.6-1.5,5.8-1.5c2.7,0,5.3,0.8,7.4,2.7l0,0c0-1.2,1-2.2,2.2-2.2H59c1.2,0,2.2,1,2.2,2.2v19.4
	c0,1.2-1,2.2-2.2,2.2h-0.3C57.5,153.5,56.5,152.5,56.5,151.3L56.5,151.3z M56.4,137.1c-1.5-1.9-3.9-3.4-6.8-3.4
	c-4.6,0-7.6,3.7-7.6,7.8c0,4.2,3.3,7.8,7.9,7.8c2.4,0,4.9-1.2,6.5-3.4V137.1z M71.2,162.4l5-11.4l-8.6-18c-0.7-1.5,0.4-3.3,2.1-3.3
	h0c0.9,0,1.7,0.5,2.1,1.3l6.8,14.4l6.2-14.3c0.4-0.8,1.2-1.4,2.1-1.4l0,0c1.7,0,2.8,1.7,2.1,3.2l-13.6,31.3
	c-0.4,0.9-1.2,1.4-2.1,1.4h0C71.6,165.6,70.5,163.9,71.2,162.4z M118.9,129.2c7,0,12.3,5.3,12.3,12.4S126,154,118.9,154
	s-12.3-5.3-12.3-12.4S111.9,129.2,118.9,129.2z M118.9,149.4c4.4,0,7.5-3.5,7.5-7.8c0-4.4-3.1-7.8-7.5-7.8s-7.5,3.5-7.5,7.8
	C111.5,145.9,114.5,149.4,118.9,149.4z M139.5,150c-1.5-1.8-2.2-4.1-2.2-8.1v-10c0-1.2,1-2.2,2.1-2.2h0.5c1.2,0,2.1,1,2.1,2.2v10.7
	c0,2.4,0.5,3.7,1.4,4.8c1.1,1.3,2.8,2.1,4.6,2.1c2.9,0,5.3-1.8,6.7-3.4v-14.2c0-1.2,1-2.2,2.1-2.2h0.5c1.2,0,2.1,1,2.1,2.2v19.5
	c0,1.2-1,2.1-2.1,2.1h-0.4c-1.2,0-2.1-1-2.1-2.1v0c-1.1,1-3.7,2.7-7,2.7C144.5,154,141.5,152.5,139.5,150z M182.4,151.3
	c0.3,1.2-0.6,2.5-1.9,2.6c-0.5,0-0.9,0.1-1.4,0.1c-3,0-5.2-1.1-6.7-2.8c-1.4-1.6-1.9-3.7-1.9-6.3V134h-3.9c-1.2,0-2.1-1-2.1-2.1l0,0
	c0-1.2,1-2.2,2.1-2.2h3.9v-4.4c0-1.2,1-2.2,2.1-2.2h0.5c1.2,0,2.1,1,2.1,2.2v4.4h5.4c1.2,0,2.1,1,2.1,2.2l0,0c0,1.2-1,2.1-2.1,2.1
	h-5.4v11.1c0,1.3,0.1,2.3,0.7,3c0.7,0.8,2,1.3,3.3,1.3c0.2,0,0.5,0,0.8,0c1.1-0.1,2,0.6,2.2,1.7L182.4,151.3z M26.3,180.6l5.4,13.3
	l5.4-13.3c0.3-0.8,1.1-1.3,1.9-1.3l0,0c1.5,0,2.5,1.5,1.9,2.8l-7,17.3c-0.3,0.8-1.1,1.3-1.9,1.3h-0.2c-0.8,0-1.6-0.5-1.9-1.3
	l-5.5-13.7l-5.5,13.7c-0.3,0.8-1.1,1.3-1.9,1.3h-0.2c-0.8,0-1.6-0.5-1.9-1.3l-7-17.3c-0.6-1.4,0.5-2.8,1.9-2.8l0,0
	c0.8,0,1.6,0.5,1.9,1.3l5.3,13.3l5.4-13.3c0.3-0.8,1.1-1.3,1.9-1.3h0.2C25.2,179.3,26,179.8,26.3,180.6z M48.2,168.9
	c1.8-0.2,3.3,1.3,3.1,3.1c-0.1,1.3-1.3,2.4-2.6,2.5c-1.8,0.1-3.2-1.3-3.1-3.1C45.7,170.1,46.8,169,48.2,168.9z M48.2,179.3h0.5
	c1.1,0,1.9,0.9,1.9,1.9v17.5c0,1.1-0.9,1.9-1.9,1.9h-0.5c-1.1,0-1.9-0.9-1.9-1.9v-17.5C46.3,180.2,47.1,179.3,48.2,179.3z
	 M71.1,198.8c0.2,1.1-0.5,2.2-1.7,2.3c-0.4,0-0.8,0.1-1.3,0.1c-2.7,0-4.7-1-6-2.5c-1.3-1.4-1.7-3.4-1.7-5.7v-9.8h-3.5
	c-1.1,0-1.9-0.9-1.9-1.9l0,0c0-1.1,0.9-1.9,1.9-1.9h3.5v-4c0-1.1,0.9-1.9,1.9-1.9h0.5c1.1,0,1.9,0.9,1.9,1.9v4h4.9
	c1.1,0,1.9,0.9,1.9,1.9l0,0c0,1.1-0.9,1.9-1.9,1.9h-4.9v10c0,1.1,0.1,2.1,0.6,2.7c0.6,0.7,1.8,1.1,3,1.1c0.2,0,0.5,0,0.8,0
	c0.9-0.1,1.8,0.6,2,1.5L71.1,198.8z M81.8,181.2c1.2-1,3.3-2.3,6.3-2.3c3.1,0,6,1.5,7.8,3.8c1.4,1.7,2.1,3.9,2.1,7.6v8.5
	c0,1.1-0.9,1.9-1.9,1.9h-0.5c-1.1,0-1.9-0.9-1.9-1.9V190c0-2.7-0.5-4-1.3-5c-1-1.3-2.6-2.1-4.4-2.1c-2.8,0-4.9,1.5-6.1,3.1v12.8
	c0,1.1-0.9,1.9-1.9,1.9h-0.5c-1.1,0-1.9-0.9-1.9-1.9v-28.4c0-1.1,0.9-1.9,1.9-1.9h0.5c1.1,0,1.9,0.9,1.9,1.9V181.2z M129.8,198.8
	c0.2,1.1-0.5,2.2-1.7,2.3c-0.4,0-0.8,0.1-1.3,0.1c-2.7,0-4.7-1-6.1-2.5c-1.3-1.4-1.7-3.4-1.7-5.7v-9.8h-3.5c-1.1,0-1.9-0.9-1.9-1.9
	l0,0c0-1.1,0.9-1.9,1.9-1.9h3.5v-4c0-1.1,0.9-1.9,1.9-1.9h0.5c1.1,0,1.9,0.9,1.9,1.9v4h4.9c1.1,0,1.9,0.9,1.9,1.9l0,0
	c0,1.1-0.9,1.9-1.9,1.9h-4.9v10c0,1.1,0.1,2.1,0.6,2.7c0.6,0.7,1.8,1.1,3,1.1c0.2,0,0.5,0,0.8,0c0.9-0.1,1.8,0.6,2,1.5L129.8,198.8z
	 M140.5,181.2c1.2-1,3.3-2.3,6.3-2.3c3.1,0,6,1.5,7.8,3.8c1.4,1.7,2.1,3.9,2.1,7.6v8.5c0,1.1-0.9,1.9-1.9,1.9h-0.5
	c-1.1,0-1.9-0.9-1.9-1.9V190c0-2.7-0.5-4-1.3-5c-1-1.3-2.6-2.1-4.4-2.1c-2.8,0-4.9,1.5-6.1,3.1v12.8c0,1.1-0.9,1.9-1.9,1.9h-0.5
	c-1.1,0-1.9-0.9-1.9-1.9v-28.2c0-1.2,1-2.2,2.2-2.2l0,0c1.2,0,2.2,1,2.2,2.2L140.5,181.2L140.5,181.2z M166.3,190.9
	c0.2,3.6,3.2,6.5,6.9,6.5c2.2,0,3.8-0.8,4.9-1.7c0.8-0.6,1.9-0.6,2.6,0.1l0.1,0.1c0.9,0.8,0.8,2.2-0.2,2.9c-1.7,1.4-4.2,2.4-7.4,2.4
	c-6.2,0-11.1-4.7-11.1-11.1s4.4-11.1,10.4-11.1c6,0,10.3,4.8,10.3,11.1c0,0.4-0.1,0.9-0.8,0.9L166.3,190.9L166.3,190.9z
	 M166.7,187.3h11.6c-0.6-2.7-3.1-4.6-5.6-4.6C169.9,182.6,167.4,184.5,166.7,187.3z M44,288.2l-27.3-25.4V286c0,1.6-1.3,2.9-2.9,2.9
	h-0.3c-1.6,0-2.9-1.3-2.9-2.9v-71.3c0-1.6,1.3-2.9,2.9-2.9h0.3c1.6,0,2.9,1.3,2.9,2.9V260l24.5-20c0.5-0.4,1.2-0.7,1.8-0.7l0,0
	c2.8,0,4,3.4,1.9,5.2l-20.8,17.1l24,22.2c2,1.8,0.7,5.1-2,5.1H46C45.2,289,44.5,288.7,44,288.2z M67.5,219.6c2.6,0,4.8,2.2,4.8,4.8
	c0,2.6-2.2,4.7-4.8,4.7s-4.7-2.1-4.7-4.7S64.8,219.6,67.5,219.6z M67.5,239.4L67.5,239.4c1.7,0,3.1,1.4,3.1,3.1v43.4
	c0,1.7-1.4,3.1-3.1,3.1l0,0c-1.7,0-3.1-1.4-3.1-3.1v-43.4C64.4,240.8,65.8,239.4,67.5,239.4z M95.3,285.4
	c-6.5-4.6-10.5-12.3-10.5-21.2c0-8.3,3.6-15.5,9.2-20.3c4.1-3.4,9.8-5.5,15.8-5.5c6.8,0,13.3,2.7,17.9,7.7v-31.2c0-1.6,1.3-3,3-3
	h0.2c1.6,0,3,1.3,3,3V286c0,1.6-1.3,3-3,3l0,0c-1.6,0-3-1.3-3-3v-4.3c-3.7,5-10.1,8.4-17.8,8.4C105.4,290,100.1,288.9,95.3,285.4z
	 M127.6,254.2c-2.2-3.7-8.7-10-17.8-10c-4.1,0-8.5,1.4-12,4.2c-4.3,3.6-7,9.4-7,15.8c0,6.9,3,12.9,7.8,16.3c3.2,2.2,7,3.7,11.2,3.7
	c7.3,0,13.8-4.1,17.7-10.9V254.2z M149.4,280.5c1-1.2,2.8-1.5,4.1-0.7c3.8,2.6,8.2,4.3,12.8,4.3c6.2,0,11.4-3.5,11.4-8.7
	c0-12.7-28.6-5.8-28.6-22.7c0-9,8.5-14.5,16.9-14.5c5.2,0,9.7,1.4,13.2,3.1c1.6,0.8,2.1,2.8,1.1,4.3l0,0c-0.9,1.3-2.6,1.8-4,1
	c-3.1-1.7-5.9-2.6-10-2.6c-5.2,0-11,2.7-11,8.5c0,11,28.6,5.1,28.6,22.5c0,9.2-7.8,14.9-17.2,14.9c-6.8,0-12.5-2.1-16.8-5.1
	C148.5,284,148.2,282,149.4,280.5L149.4,280.5z M188.3,99.7H151c-6.5-25.6-29.2-43.3-55.8-43.3c-26.2,0-49.4,18.1-55.8,43.3H2.1
	c-1.2,0-2.2,1-2.2,2.2s1,2.2,2.2,2.2H41c0,0,0.1,0,0.2,0c1,0,1.9-0.7,2.1-1.7c5.3-24.2,27.2-41.7,52-41.7
	c24.6,0,46.4,17.4,51.9,41.3c0.1,1.1,1,2.1,2.1,2.1h39c1.2,0,2.2-1,2.2-2.2C190.4,100.7,189.4,99.7,188.3,99.7z M83.9,34.9
	c-0.8,0.8-0.8,2.2,0,3c0.4,0.4,1,0.6,1.5,0.6c0.6,0,1.1-0.2,1.5-0.6l6-6v15c0,1.2,1,2.2,2.2,2.2s2.2-1,2.2-2.2v-15l6,6
	c0.4,0.4,1,0.6,1.5,0.6c0.6,0,1.1-0.2,1.5-0.6c0.8-0.8,0.8-2.2,0-3l-9.1-9.1v-4.4l6,6c0.4,0.4,1,0.6,1.5,0.6c0.6,0,1.1-0.2,1.5-0.6
	c0.8-0.8,0.8-2.2,0-3l-9.1-9.1v-4l6,6c0.4,0.4,1,0.6,1.5,0.6c0.6,0,1.1-0.2,1.5-0.6c0.8-0.8,0.8-2.2,0-3l-9.7-9.7c0,0-0.1,0-0.1-0.1
	c-0.1-0.1-0.2-0.1-0.2-0.2c-0.1,0-0.1-0.1-0.2-0.1c-0.1,0-0.1-0.1-0.2-0.1c-0.1,0-0.2,0-0.2-0.1c-0.1,0-0.1,0-0.2,0
	c-0.2,0-0.3,0-0.4-0.1c0,0,0,0,0,0s0,0,0,0c-0.1,0-0.3,0-0.4,0c-0.1,0-0.1,0-0.2,0.1c-0.1,0-0.2,0-0.2,0.1c-0.1,0-0.1,0.1-0.2,0.1
	c-0.1,0-0.1,0.1-0.2,0.1c-0.1,0.1-0.2,0.1-0.2,0.2c0,0-0.1,0-0.1,0.1l-9.7,9.7c-0.8,0.8-0.8,2.2,0,3.1c0.4,0.4,1,0.6,1.5,0.6
	c0.6,0,1.1-0.2,1.5-0.6l6-6v4l-9.1,9.1c-0.8,0.8-0.8,2.2,0,3c0.4,0.4,1,0.6,1.5,0.6c0.6,0,1.1-0.2,1.5-0.6l6-6v4.4L83.9,34.9z
	 M121.2,48.4c-0.8,0.8-0.8,2.2,0,3c0.4,0.4,1,0.6,1.5,0.6c0.6,0,1.1-0.2,1.5-0.6l6-6v15c0,1.2,1,2.2,2.2,2.2s2.2-1,2.2-2.2v-15l6,6
	c0.4,0.4,1,0.6,1.5,0.6c0.6,0,1.1-0.2,1.5-0.6c0.8-0.8,0.8-2.2,0-3l-9.1-9.1v-4.4l6,6c0.4,0.4,1,0.6,1.5,0.6c0.6,0,1.1-0.2,1.5-0.6
	c0.8-0.8,0.8-2.2,0-3l-9.1-9.1v-4l6,6c0.4,0.4,1,0.6,1.5,0.6c0.6,0,1.1-0.2,1.5-0.6c0.8-0.8,0.8-2.2,0-3l-9.7-9.7c0,0-0.1,0-0.1-0.1
	c-0.1-0.1-0.2-0.1-0.2-0.2c-0.1,0-0.1-0.1-0.2-0.1c-0.1,0-0.1-0.1-0.2-0.1c-0.1,0-0.1,0-0.2-0.1c-0.1,0-0.1,0-0.2,0
	c-0.1,0-0.3,0-0.4,0c0,0,0,0,0,0s0,0,0,0c-0.1,0-0.3,0-0.4,0c-0.1,0-0.1,0-0.2,0c-0.1,0-0.1,0-0.2,0.1c-0.1,0-0.1,0.1-0.2,0.1
	c-0.1,0-0.1,0.1-0.2,0.1c-0.1,0.1-0.2,0.1-0.2,0.2c0,0-0.1,0-0.1,0.1l-9.7,9.7c-0.8,0.8-0.8,2.2,0,3c0.4,0.4,1,0.6,1.5,0.6
	c0.6,0,1.1-0.2,1.5-0.6l6-6v4l-9.1,9.1c-0.8,0.8-0.8,2.2,0,3c0.4,0.4,1,0.6,1.5,0.6c0.6,0,1.1-0.2,1.5-0.6l6-6v4.4L121.2,48.4z
	 M156.8,79.3c-0.8,0.8-0.8,2.2,0,3.1c0.4,0.4,1,0.6,1.5,0.6s1.1-0.2,1.5-0.6l6-6v15c0,1.2,1,2.2,2.2,2.2s2.2-1,2.2-2.2v-15l6,6
	c0.4,0.4,1,0.6,1.5,0.6c0.6,0,1.1-0.2,1.5-0.6c0.8-0.8,0.8-2.2,0-3.1l-9.1-9.1v-4.4l6,6c0.4,0.4,1,0.6,1.5,0.6
	c0.6,0,1.1-0.2,1.5-0.6c0.8-0.8,0.8-2.2,0-3.1l-9.1-9.1v-4l6,6c0.4,0.4,1,0.6,1.5,0.6c0.6,0,1.1-0.2,1.5-0.6c0.8-0.8,0.8-2.2,0-3
	l-9.7-9.7c0,0-0.1,0-0.1-0.1c-0.1-0.1-0.2-0.1-0.2-0.2c-0.1,0-0.1-0.1-0.2-0.1c-0.1,0-0.1-0.1-0.2-0.1s-0.1,0-0.2-0.1
	c-0.1,0-0.1,0-0.2,0c-0.1,0-0.3,0-0.4,0c0,0,0,0,0,0s0,0,0,0c-0.1,0-0.3,0-0.4,0c-0.1,0-0.1,0-0.2,0c-0.1,0-0.1,0-0.2,0.1
	s-0.1,0.1-0.2,0.1c-0.1,0-0.1,0.1-0.2,0.1c-0.1,0.1-0.2,0.1-0.2,0.2c0,0-0.1,0-0.1,0.1l-9.7,9.7c-0.8,0.8-0.8,2.2,0,3
	c0.4,0.4,1,0.6,1.5,0.6s1.1-0.2,1.5-0.6l6-6v4l-9.1,9.1c-0.8,0.8-0.8,2.2,0,3.1c0.4,0.4,1,0.6,1.5,0.6s1.1-0.2,1.5-0.6l6-6v4.4
	L156.8,79.3z M10.4,79.3c-0.8,0.8-0.8,2.2,0,3.1c0.4,0.4,1,0.6,1.5,0.6c0.6,0,1.1-0.2,1.5-0.6l6-6v15c0,1.2,1,2.2,2.2,2.2
	s2.2-1,2.2-2.2v-15l6,6c0.4,0.4,1,0.6,1.5,0.6s1.1-0.2,1.5-0.6c0.8-0.8,0.8-2.2,0-3.1l-9.1-9.1v-4.4l6,6c0.4,0.4,1,0.6,1.5,0.6
	s1.1-0.2,1.5-0.6c0.8-0.8,0.8-2.2,0-3.1l-9.1-9.1v-4l6,6c0.4,0.4,1,0.6,1.5,0.6s1.1-0.2,1.5-0.6c0.8-0.8,0.8-2.2,0-3L23.2,49
	c0,0,0,0-0.1-0.1c-0.1-0.1-0.2-0.1-0.2-0.2c-0.1,0-0.1-0.1-0.2-0.1c-0.1,0-0.1-0.1-0.2-0.1s-0.1,0-0.2-0.1c-0.1,0-0.1,0-0.2,0
	c-0.1,0-0.3,0-0.4,0c0,0,0,0,0,0s0,0,0,0c-0.1,0-0.3,0-0.4,0c-0.1,0-0.1,0-0.2,0c-0.1,0-0.1,0-0.2,0.1c-0.1,0-0.1,0.1-0.2,0.1
	c-0.1,0-0.1,0.1-0.2,0.1c-0.1,0.1-0.2,0.1-0.2,0.2c0,0,0,0-0.1,0.1l-9.7,9.7c-0.8,0.8-0.8,2.2,0,3c0.4,0.4,1,0.6,1.5,0.6
	c0.6,0,1.1-0.2,1.5-0.6l6-6v4l-9.1,9.1c-0.8,0.8-0.8,2.2,0,3.1c0.4,0.4,1,0.6,1.5,0.6c0.6,0,1.1-0.2,1.5-0.6l6-6v4.4L10.4,79.3z
	 M44.9,48.4c-0.8,0.8-0.8,2.2,0,3c0.4,0.4,1,0.6,1.5,0.6s1.1-0.2,1.5-0.6l6-6v15c0,1.2,1,2.2,2.2,2.2s2.2-1,2.2-2.2v-15l6,6
	c0.4,0.4,1,0.6,1.5,0.6c0.6,0,1.1-0.2,1.5-0.6c0.8-0.8,0.8-2.2,0-3l-9.1-9.1v-4.4l6,6c0.4,0.4,1,0.6,1.5,0.6c0.6,0,1.1-0.2,1.5-0.6
	c0.8-0.8,0.8-2.2,0-3l-9.1-9.1v-4l6,6c0.4,0.4,1,0.6,1.5,0.6c0.6,0,1.1-0.2,1.5-0.6c0.8-0.8,0.8-2.2,0-3l-9.7-9.7c0,0,0,0-0.1-0.1
	c-0.1-0.1-0.2-0.1-0.2-0.2c-0.1,0-0.1-0.1-0.2-0.1c-0.1,0-0.1-0.1-0.2-0.1c-0.1,0-0.2,0-0.2-0.1c-0.1,0-0.1,0-0.2,0
	c-0.1,0-0.3,0-0.4,0c0,0,0,0,0,0c0,0,0,0,0,0c-0.1,0-0.3,0-0.4,0c-0.1,0-0.1,0-0.2,0c-0.1,0-0.2,0-0.2,0.1c-0.1,0-0.1,0.1-0.2,0.1
	c-0.1,0-0.1,0.1-0.2,0.1c-0.1,0.1-0.2,0.1-0.2,0.2c0,0-0.1,0-0.1,0.1l-9.7,9.7c-0.8,0.8-0.8,2.2,0,3c0.4,0.4,1,0.6,1.5,0.6
	s1.1-0.2,1.5-0.6l6-6v4l-9.1,9.1c-0.8,0.8-0.8,2.2,0,3c0.4,0.4,1,0.6,1.5,0.6s1.1-0.2,1.5-0.6l6-6v4.4L44.9,48.4z"/>
</svg>
