<?xml version="1.0" encoding="utf-8"?>
<!-- Generator: Adobe Illustrator 23.0.6, SVG Export Plug-In . SVG Version: 6.00 Build 0)  -->
<svg version="1.1" id="Layer_1" xmlns="http://www.w3.org/2000/svg" xmlns:xlink="http://www.w3.org/1999/xlink" x="0px" y="0px"
	 viewBox="0 0 108.04 110.3" style="enable-background:new 0 0 108.04 110.3;" xml:space="preserve">
<style type="text/css">
	.st0{fill:#FDCE74;}
	.st1{fill:#8574B3;}
	.st2{fill:#FFFFFF;}
	.st3{fill:none;stroke:#FFFFFF;stroke-width:4.0959;stroke-linecap:round;stroke-linejoin:round;stroke-miterlimit:10;}
</style>
<g>
	<g>
		<g>
			<path class="st0" d="M29.53,86.18c-9.33,0-19.53-2.51-20.39-8.02c-0.01-0.05-0.03-0.1-0.04-0.16L0.05,31.06
				c-0.21-1.11,0.51-2.18,1.62-2.4c1.11-0.21,2.18,0.51,2.4,1.62l9.01,46.66c0.06,0.17,0.1,0.35,0.11,0.53
				c0.11,1.57,5.98,4.61,16.35,4.61c10.37,0,16.24-3.05,16.35-4.61c0.02-0.21,0.06-0.41,0.13-0.59l8.99-46.6
				c0.21-1.11,1.29-1.84,2.4-1.62c1.11,0.21,1.84,1.29,1.62,2.4l-9.06,46.95c-0.01,0.08-0.03,0.15-0.06,0.23
				C48.98,83.69,38.82,86.18,29.53,86.18z"/>
		</g>
		<g>
			<path class="st0" d="M29.53,41.47C14.86,41.47,0,37.76,0,30.67s14.86-10.81,29.53-10.81s29.53,3.71,29.53,10.81
				S44.21,41.47,29.53,41.47z M29.53,23.96c-16.46,0-25.44,4.43-25.44,6.71s8.98,6.71,25.44,6.71s25.44-4.43,25.44-6.71
				S45.99,23.96,29.53,23.96z"/>
		</g>
		<g>
			<path class="st0" d="M57.02,32.68c-1.13,0-2.04-0.91-2.04-2.04C54.97,16,43.56,4.09,29.53,4.09S4.09,16,4.09,30.63
				c0,1.13-0.91,2.04-2.04,2.04S0,31.76,0,30.63C0,13.74,13.25,0,29.53,0s29.53,13.74,29.53,30.63
				C59.06,31.76,58.15,32.68,57.02,32.68z"/>
		</g>
	</g>
	<g>
		<g>
			<path class="st0" d="M70.09,110.3c-2.24,0-4.46-0.47-6.57-1.41c-8.12-3.62-11.79-13.18-8.16-21.31c0,0,0,0,0-0.01
				c0.02-0.03,0.03-0.07,0.05-0.1c0.01-0.03,0.03-0.07,0.04-0.1l6.79-15.22c0.46-1.03,1.67-1.5,2.7-1.04L90.68,82.6
				c0.5,0.22,0.88,0.63,1.08,1.14s0.18,1.07-0.04,1.57l-6.79,15.22c-0.01,0.03-0.03,0.06-0.04,0.09c-0.02,0.04-0.03,0.08-0.05,0.12
				c-1.75,3.93-4.94,6.95-8.96,8.49C74,109.95,72.04,110.3,70.09,110.3z M59.09,89.29c-2.68,6.06,0.05,13.17,6.1,15.87
				c2.94,1.31,6.21,1.4,9.21,0.25c3-1.15,5.38-3.4,6.69-6.34c0.01-0.05,0.04-0.11,0.07-0.18c0.03-0.07,0.07-0.14,0.11-0.21
				l5.87-13.16L65.15,75.7l-5.87,13.15c-0.03,0.08-0.06,0.16-0.09,0.23C59.16,89.15,59.13,89.22,59.09,89.29L59.09,89.29z"/>
		</g>
		<g>
			<path class="st0" d="M76.98,80.79c-0.28,0-0.56-0.06-0.83-0.18c-1.03-0.46-1.5-1.67-1.04-2.7l15.87-35.57
				c0.46-1.03,1.67-1.5,2.7-1.04c1.03,0.46,1.5,1.67,1.04,2.7L78.85,79.57C78.51,80.33,77.76,80.79,76.98,80.79z"/>
		</g>
		<g>
			<path class="st0" d="M102.37,49.27c-0.28,0-0.57-0.06-0.83-0.18l-18.91-8.43c-0.5-0.22-0.88-0.63-1.08-1.14s-0.18-1.07,0.04-1.57
				l3.62-8.12c0.46-1.03,1.67-1.5,2.7-1.04l18.91,8.43c1.03,0.46,1.5,1.67,1.04,2.7l-3.62,8.12c-0.22,0.5-0.63,0.88-1.14,1.08
				C102.87,49.23,102.62,49.27,102.37,49.27z M86.17,37.75l15.17,6.77l1.95-4.38l-15.17-6.77L86.17,37.75z"/>
		</g>
	</g>
</g>
</svg>
