<?xml version="1.0" encoding="utf-8"?>
<!-- Generator: Adobe Illustrator 23.0.6, SVG Export Plug-In . SVG Version: 6.00 Build 0)  -->
<svg version="1.1" id="Layer_1" xmlns="http://www.w3.org/2000/svg" xmlns:xlink="http://www.w3.org/1999/xlink" x="0px" y="0px"
	 viewBox="0 0 112.87 79.33" style="enable-background:new 0 0 112.87 79.33;" xml:space="preserve">
<style type="text/css">
	.st0{fill:#FDCE74;}
	.st1{fill:#8574B3;}
	.st2{fill:#FFFFFF;}
	.st3{fill:none;stroke:#FFFFFF;stroke-width:4.0959;stroke-linecap:round;stroke-linejoin:round;stroke-miterlimit:10;}
</style>
<g>
	<g>
		<g>
			<path class="st1" d="M28.84,79.33c-1.13,0-2.05-0.92-2.05-2.05V58.57c0-1.13,0.92-2.05,2.05-2.05s2.05,0.92,2.05,2.05v18.71
				C30.89,78.41,29.98,79.33,28.84,79.33z"/>
		</g>
		<g>
			<g>
				<path class="st1" d="M56.54,62.11c-18.26,0-36.7-2.14-42.83-4.03c-0.52-0.16-0.95-0.52-1.21-1c-0.39-0.75-9.54-18.66-0.94-55.5
					c0.26-1.1,1.36-1.79,2.46-1.53c1.1,0.26,1.79,1.36,1.53,2.46c-7.26,31.07-1.32,48.21,0.23,51.9c10.21,2.67,46.43,5.7,67.03,1.5
					c0.09-0.02,10.57-2.35,10.57-9.74c0-7.31-10.31-10.02-22.25-13.16c-4.72-1.24-9.61-2.53-14.29-4.21
					c-1.85-0.47-16.22-4.83-16.22-25.84c0-1.13,0.92-2.05,2.05-2.05s2.05,0.92,2.05,2.05c0,19.02,12.99,21.84,13.12,21.87
					c0.1,0.02,0.2,0.05,0.29,0.08c4.54,1.64,9.37,2.91,14.04,4.13c13.02,3.42,25.31,6.65,25.31,17.12
					c0,10.72-13.27,13.63-13.84,13.75C75.92,61.51,66.26,62.11,56.54,62.11z"/>
			</g>
			<g>
				<path class="st1" d="M89.94,79.33c-0.04,0-0.06,0-0.08,0H2.05C0.92,79.33,0,78.41,0,77.28s0.92-2.05,2.05-2.05h87.84
					c0.06,0,4.48,0.02,9.05-1.51c5.73-1.92,9.05-5.3,9.87-10.05c0.19-1.11,1.25-1.85,2.37-1.67c1.11,0.19,1.86,1.25,1.67,2.37
					c-1.08,6.3-5.48,10.89-12.71,13.28C95.21,79.26,90.61,79.33,89.94,79.33z"/>
			</g>
			<g>
				<path class="st1" d="M72.02,79.33c-1.13,0-2.05-0.92-2.05-2.05V59.47c0-1.13,0.92-2.05,2.05-2.05s2.05,0.92,2.05,2.05v17.81
					C74.07,78.41,73.15,79.33,72.02,79.33z"/>
			</g>
			<g>
				<path class="st1" d="M35.31,27.33c-1,0-1.87-0.73-2.02-1.75c-0.17-1.12,0.61-2.16,1.73-2.32c2.06-0.31,7.79-1.86,9.53-5.23
					c0.52-1.01,1.75-1.4,2.76-0.88c1,0.52,1.4,1.75,0.88,2.76c-3.06,5.94-12.18,7.35-12.57,7.4C35.51,27.32,35.41,27.33,35.31,27.33
					z"/>
			</g>
			<g>
				<path class="st1" d="M47.13,38.47c-0.72,0-1.42-0.38-1.8-1.06c-0.55-0.99-0.19-2.23,0.8-2.78l0,0c1.82-1.01,6.65-4.46,7.1-8.23
					c0.13-1.12,1.16-1.92,2.28-1.79c1.12,0.13,1.92,1.15,1.79,2.28c-0.79,6.63-8.84,11.14-9.18,11.33
					C47.8,38.38,47.46,38.47,47.13,38.47z"/>
			</g>
			<g>
				<path class="st1" d="M61.04,43.9c-0.58,0-1.16-0.25-1.56-0.72c-0.73-0.86-0.62-2.15,0.24-2.88c1.59-1.35,5.64-5.68,5.33-9.47
					c-0.09-1.13,0.75-2.11,1.88-2.2c1.13-0.1,2.11,0.75,2.2,1.88c0.53,6.66-6.47,12.67-6.77,12.92
					C61.98,43.74,61.51,43.9,61.04,43.9z"/>
			</g>
		</g>
	</g>
</g>
</svg>
