<?xml version="1.0" encoding="utf-8"?>
<!-- Generator: Adobe Illustrator 23.0.6, SVG Export Plug-In . SVG Version: 6.00 Build 0)  -->
<svg version="1.1" id="Layer_1" xmlns="http://www.w3.org/2000/svg" xmlns:xlink="http://www.w3.org/1999/xlink" x="0px" y="0px"
	 viewBox="0 0 116.26 85.47" style="enable-background:new 0 0 116.26 85.47;" xml:space="preserve">
<style type="text/css">
	.st0{fill:#FDCE74;}
	.st1{fill:#8574B3;}
	.st2{fill:#FFFFFF;}
	.st3{fill:none;stroke:#FFFFFF;stroke-width:4.0959;stroke-linecap:round;stroke-linejoin:round;stroke-miterlimit:10;}
</style>
<g id="FARMS_1_">
	<g>
		<g>
			<g>
				<path class="st2" d="M99.84,85.47c-9.06,0-16.42-7.37-16.42-16.42c0-1.21,0.14-2.44,0.41-3.64c0.25-1.1,1.35-1.79,2.45-1.55
					c1.1,0.25,1.8,1.35,1.55,2.45c-0.2,0.9-0.31,1.82-0.31,2.73c0,6.8,5.53,12.33,12.33,12.33s12.33-5.53,12.33-12.33
					c0-5.87-4.17-10.96-9.92-12.09c-1.11-0.22-1.83-1.3-1.61-2.41s1.3-1.83,2.41-1.61c7.66,1.51,13.23,8.29,13.23,16.11
					C116.26,78.11,108.89,85.47,99.84,85.47z"/>
			</g>
			<g>
				<path class="st2" d="M85.82,67.91H51.11c-1.13,0-2.05-0.92-2.05-2.05s0.92-2.05,2.05-2.05h33.15c2.3-6.9,8.9-11.5,16.32-11.17
					V39.48c0-1.63-1.32-2.95-2.95-2.95H51.27c-1.13,0-2.05-0.92-2.05-2.05s0.92-2.05,2.05-2.05h46.37c3.88,0,7.04,3.16,7.04,7.04
					v15.47c0,0.61-0.27,1.19-0.75,1.58c-0.47,0.39-1.09,0.55-1.7,0.43c-0.79-0.16-1.6-0.24-2.4-0.24c-5.8,0-10.74,3.95-12.02,9.59
					C87.61,67.25,86.78,67.91,85.82,67.91z"/>
			</g>
			<g>
				<path class="st2" d="M85.82,67.91c-0.15,0-0.3-0.02-0.45-0.05c-1.1-0.25-1.79-1.35-1.55-2.45c1.7-7.53,8.29-12.79,16.02-12.79
					c1.07,0,2.15,0.11,3.2,0.31c1.11,0.22,1.83,1.3,1.61,2.41c-0.22,1.11-1.29,1.84-2.41,1.61c-0.79-0.16-1.6-0.24-2.4-0.24
					c-5.8,0-10.74,3.95-12.02,9.59C87.6,67.27,86.76,67.91,85.82,67.91z"/>
			</g>
			<g>
				<path class="st2" d="M14.63,38.44c-1.13,0-2.05-0.92-2.05-2.05V2.05C12.58,0.92,13.5,0,14.63,0h31.73
					c1.01,0,1.87,0.74,2.02,1.74l4.91,32.43c0.17,1.12-0.6,2.16-1.72,2.33c-1.12,0.17-2.16-0.6-2.33-1.72L44.6,4.1H16.68v32.3
					C16.68,37.53,15.76,38.44,14.63,38.44z"/>
			</g>
			<g>
				<g>
					<path class="st2" d="M51.34,67.18c-0.19,0-0.38-0.03-0.57-0.08c-1.09-0.31-1.71-1.45-1.4-2.53c0.6-2.07,0.9-4.22,0.9-6.39
						c0-5.46-1.94-10.76-5.47-14.92c-0.73-0.86-0.62-2.15,0.24-2.89c0.86-0.73,2.16-0.63,2.89,0.24c4.15,4.9,6.44,11.14,6.44,17.57
						c0,2.55-0.36,5.09-1.06,7.52C53.05,66.6,52.23,67.18,51.34,67.18z"/>
				</g>
				<g>
					<g>
						<path class="st2" d="M27.18,85.36C12.19,85.36,0,73.16,0,58.17c0-9.55,4.87-18.23,13.04-23.22l0.55-0.33
							c3.68-2.27,8.78-3.64,13.6-3.64c8,0,15.56,3.5,20.74,9.61c0.73,0.86,0.62,2.15-0.24,2.89c-0.86,0.73-2.16,0.62-2.89-0.24
							c-4.4-5.19-10.82-8.17-17.62-8.17c-4.03,0-8.43,1.17-11.47,3.05l-0.56,0.33C8.24,42.69,4.1,50.06,4.1,58.17
							c0,12.73,10.36,23.08,23.08,23.08c10.24,0,19.36-6.86,22.19-16.69c0.31-1.09,1.45-1.71,2.53-1.4c1.09,0.31,1.71,1.45,1.4,2.53
							C49.98,77.27,39.23,85.36,27.18,85.36z"/>
					</g>
				</g>
			</g>
		</g>
		<g>
			<path class="st2" d="M51.3,4.1H9.46c-1.13,0-2.05-0.92-2.05-2.05S8.33,0,9.46,0H51.3c1.13,0,2.05,0.92,2.05,2.05
				S52.44,4.1,51.3,4.1z"/>
		</g>
		<g>
			<path class="st2" d="M71.96,36.53c-1.13,0-2.05-0.92-2.05-2.05V12.39c0-1.13,0.92-2.05,2.05-2.05s2.05,0.92,2.05,2.05v22.09
				C74.01,35.61,73.09,36.53,71.96,36.53z"/>
		</g>
		<g>
			<path class="st2" d="M51.27,36.53H35.65c-1.13,0-2.05-0.92-2.05-2.05s0.92-2.05,2.05-2.05h15.62c1.13,0,2.05,0.92,2.05,2.05
				S52.4,36.53,51.27,36.53z"/>
		</g>
		<g>
			<path class="st2" d="M27.24,73.21c-8.21,0-14.89-6.68-14.89-14.89c0-8.21,6.68-14.89,14.89-14.89c8.21,0,14.89,6.68,14.89,14.89
				C42.13,66.53,35.45,73.21,27.24,73.21z M27.24,47.52c-5.95,0-10.8,4.84-10.8,10.8c0,5.95,4.84,10.8,10.8,10.8
				c5.95,0,10.8-4.84,10.8-10.8C38.03,52.36,33.19,47.52,27.24,47.52z"/>
		</g>
		<g>
			<path class="st2" d="M99.92,76.71c-4.27,0-7.74-3.47-7.74-7.74s3.47-7.74,7.74-7.74s7.74,3.47,7.74,7.74
				S104.19,76.71,99.92,76.71z M99.92,65.33c-2.01,0-3.64,1.63-3.64,3.64s1.63,3.64,3.64,3.64s3.64-1.63,3.64-3.64
				S101.93,65.33,99.92,65.33z"/>
		</g>
	</g>
</g>
</svg>
