<?xml version="1.0" encoding="utf-8"?>
<!-- Generator: Adobe Illustrator 23.0.6, SVG Export Plug-In . SVG Version: 6.00 Build 0)  -->
<svg version="1.1" id="Layer_1" xmlns="http://www.w3.org/2000/svg" xmlns:xlink="http://www.w3.org/1999/xlink" x="0px" y="0px"
	 viewBox="0 0 118.97 139.1" style="enable-background:new 0 0 118.97 139.1;" xml:space="preserve">
<style type="text/css">
	.st0{fill:#FDCE74;}
	.st1{fill:#8574B3;}
	.st2{fill:#FFFFFF;}
	.st3{fill:none;stroke:#FFFFFF;stroke-width:4.0959;stroke-linecap:round;stroke-linejoin:round;stroke-miterlimit:10;}
</style>
<g id="ZOOS_2_">
	<g>
		<g>
			<path class="st2" d="M58.84,104.9c-3.82,0-13.75-3.5-13.75-19.51c0-15.91,10-24.71,16.91-24.71c7.19,0,8.95,5.49,9.02,5.72
				c0.33,1.08-0.28,2.23-1.36,2.56c-1.07,0.33-2.21-0.27-2.55-1.34C67,67.31,65.99,64.77,62,64.77c-4.6,0-12.81,6.89-12.81,20.62
				c0,12.65,6.97,15.42,9.66,15.42c0.08,0,8.17-0.4,8.17-6.87c0-1.13,0.92-2.05,2.05-2.05s2.05,0.92,2.05,2.05
				C71.1,102.22,62.84,104.9,58.84,104.9z"/>
		</g>
		<g>
			<path class="st2" d="M79.88,82.93c-3.07,0-5.57-2.5-5.57-5.57s2.5-5.57,5.57-5.57s5.57,2.5,5.57,5.57S82.95,82.93,79.88,82.93z
				 M79.88,75.89c-0.81,0-1.47,0.66-1.47,1.47c0,0.81,0.66,1.47,1.47,1.47c0.81,0,1.47-0.66,1.47-1.47
				C81.35,76.55,80.69,75.89,79.88,75.89z"/>
		</g>
		<g>
			<path class="st2" d="M76.56,29.57c-1.14,0-2.28-0.3-3.33-0.9c-2.06-1.18-3.34-3.28-3.34-5.49c0-2.09,0.98-5,3.75-6.3
				c4-1.87,9.89,0.4,17.49,6.74c0.76,0.63,0.96,1.71,0.48,2.57c-0.48,0.86-1.49,1.25-2.42,0.95c-0.2-0.06-4.46-1.35-9.33,1.52
				C78.83,29.27,77.7,29.57,76.56,29.57z M76.65,20.36c-0.64,0-1.05,0.13-1.27,0.24c-1.1,0.52-1.4,1.87-1.4,2.59
				c0,0.73,0.5,1.49,1.28,1.93c0.39,0.22,1.41,0.67,2.51,0.02c1.99-1.17,3.92-1.81,5.65-2.13C80.04,20.85,77.9,20.36,76.65,20.36z"
				/>
		</g>
		<g>
			<path class="st2" d="M89.12,17.77c-0.61,0-1.22-0.28-1.62-0.79c-0.13-0.16-2.42-2.88-7.91-2.82c-5.24,0.05-7.37-2.39-8.2-3.86
				c-1.12-2-1.1-4.47,0.05-6.29c1.16-1.83,2.97-2.88,4.99-2.88c0.02,0,0.04,0,0.06,0c4.22,0.04,8.93,4.47,14.39,13.53
				c0.56,0.93,0.3,2.14-0.61,2.75C89.92,17.66,89.52,17.77,89.12,17.77z M79.82,10.06c1.15,0,2.19,0.1,3.15,0.27
				c-3.69-4.62-5.83-5.09-6.52-5.1c-0.6,0.03-1.13,0.32-1.54,0.97c-0.29,0.46-0.36,1.33,0.06,2.1c0.66,1.17,2.29,1.81,4.57,1.77
				C79.63,10.06,79.72,10.06,79.82,10.06z"/>
		</g>
		<g>
			<path class="st2" d="M96.14,20c-0.2,0-0.41-0.03-0.61-0.09c-0.94-0.29-1.53-1.21-1.42-2.18c0.24-2.13-1.3-4.16-2.78-6.13
				c-1.68-2.23-3.59-4.76-2.52-7.61c0.72-1.93,2.58-3.45,4.74-3.87c1.39-0.27,4.09-0.31,6.63,2.47c3.95,4.33-1.17,14.37-2.23,16.34
				C97.57,19.6,96.87,20,96.14,20z M94.76,4.1c-0.15,0-0.29,0.01-0.44,0.04c-0.85,0.16-1.49,0.77-1.68,1.28
				c-0.28,0.75,0.91,2.32,1.96,3.71c0.64,0.85,1.34,1.78,1.95,2.79c1.01-2.97,1.42-5.67,0.6-6.57C96.39,4.52,95.57,4.1,94.76,4.1z"
				/>
		</g>
		<g>
			<path class="st2" d="M27.95,139.1c-3.2,0-7.22-0.76-9.9-1.37c-0.98-0.22-1.66-1.13-1.59-2.13c0.01-0.09,0.58-8.96-0.12-21.42
				c-0.15-2.61-0.98-5.57-1.87-8.7c-0.99-3.5-2-7.09-2.24-10.7c-2.99,2.95-6.64,7.01-8.26,8.87c-0.52,0.6-1.34,0.84-2.1,0.62
				c-0.76-0.21-1.33-0.85-1.46-1.63c-1.94-11.38,3.03-20.54,14.76-27.21c1.21-3,2.65-5.68,4.29-7.96
				C27.65,56.07,40.32,51.2,61.81,51.2c14.82,0,23.45,5.89,29.75,10.2c5.06,3.46,7.86,5.21,11.18,4.04c0.28-0.1,0.65-0.31,0.93-1.01
				c2.19-5.37-4.76-23.16-9.66-33.1c-0.38-0.76-0.24-1.68,0.34-2.3c1.95-2.09,5.63-5.52,8.43-4.91c1.13,0.24,2,1.07,2.4,2.25
				c0.12,0.35,0.85,1.73,1.55,3.06c5.76,10.91,21.07,39.9,5.32,50.76l-0.22,0.15c-8.18,5.64-11.91,8.21-18.3,21.36
				c-6.31,12.96-2.14,33.14-2.1,33.34c0.12,0.58-0.01,1.18-0.37,1.65c-0.35,0.47-0.9,0.77-1.48,0.81l-9.93,0.74
				c-0.08,0.01-0.15,0.01-0.23,0c-2.56-0.1-4.65-2.08-4.87-4.61l-0.06-0.69c-0.2-2.54-0.42-5.17-2.43-7.28
				c-0.62-0.65-3.54,0.05-6.11,0.67c-3.4,0.82-7.64,1.85-12.65,1.85c-4.85,0-8.65-0.93-11.71-1.68c-3.32-0.81-5.1-1.2-6.01-0.35
				c-2.78,2.58-2.52,5.46-2.3,7.78c0.14,1.56,0.31,3.33-1.17,4.32C31.2,138.87,29.7,139.1,27.95,139.1z M20.63,134.09
				c3.6,0.7,7.09,1.06,8.63,0.89c-0.02-0.22-0.04-0.45-0.06-0.66c-0.23-2.52-0.66-7.2,3.59-11.15c2.58-2.4,5.92-1.58,9.78-0.63
				c2.84,0.7,6.38,1.57,10.73,1.57c4.52,0,8.5-0.96,11.69-1.73c4.35-1.05,7.78-1.88,10.04,0.49c3.01,3.17,3.32,6.99,3.54,9.78
				l0.05,0.66c0.04,0.45,0.4,0.81,0.86,0.86l7.51-0.56c-0.96-5.94-2.82-22.05,2.84-33.69c6.86-14.11,11.14-17.06,19.66-22.94
				l0.22-0.15c12.76-8.8-1.82-36.41-6.61-45.48c-0.78-1.48-1.26-2.4-1.55-3.02c-0.78,0.4-2.05,1.38-3.24,2.51
				c2.83,5.95,12.41,27.13,9.14,35.14c-0.67,1.63-1.83,2.78-3.37,3.32c-5.43,1.91-9.8-1.07-14.85-4.52
				c-6.19-4.23-13.89-9.48-27.44-9.48c-25.1,0-33.59,7-39.02,14.57c-1.56,2.17-2.93,4.77-4.06,7.73c-0.16,0.43-0.47,0.79-0.86,1.02
				c-0.17,0.1-0.4,0.23-0.66,0.38C13.88,80.89,4.53,86.2,4.12,97.34c2.9-3.17,7-7.46,9.25-8.99c0.68-0.46,1.58-0.47,2.27-0.02
				c0.69,0.45,1.04,1.28,0.89,2.09c-0.82,4.37,0.55,9.24,1.88,13.94c0.95,3.35,1.84,6.52,2.01,9.58
				C20.96,123.51,20.77,130.86,20.63,134.09z"/>
		</g>
	</g>
</g>
</svg>
