<?xml version="1.0" encoding="utf-8"?>
<!-- Generator: Adobe Illustrator 23.0.6, SVG Export Plug-In . SVG Version: 6.00 Build 0)  -->
<svg version="1.1" id="Layer_1" xmlns="http://www.w3.org/2000/svg" xmlns:xlink="http://www.w3.org/1999/xlink" x="0px" y="0px"
	 viewBox="0 0 115.14 123.71" style="enable-background:new 0 0 115.14 123.71;" xml:space="preserve">
<style type="text/css">
	.st0{fill:#FDCE74;}
	.st1{fill:#8574B3;}
	.st2{fill:#FFFFFF;}
	.st3{fill:none;stroke:#FFFFFF;stroke-width:4.0959;stroke-linecap:round;stroke-linejoin:round;stroke-miterlimit:10;}
</style>
<g>
	<g>
		<g>
			<g>
				<path class="st0" d="M30.14,43.94c-0.52,0-1.05-0.2-1.45-0.6c-0.8-0.8-0.8-2.1,0-2.9l9.62-9.62c0.8-0.8,2.1-0.8,2.9,0
					c0.8,0.8,0.8,2.1,0,2.9l-9.62,9.62C31.19,43.74,30.66,43.94,30.14,43.94z"/>
			</g>
			<g>
				<path class="st0" d="M49.38,43.94c-0.52,0-1.05-0.2-1.45-0.6l-9.62-9.62c-0.8-0.8-0.8-2.1,0-2.9c0.8-0.8,2.1-0.8,2.9,0
					l9.62,9.62c0.8,0.8,0.8,2.1,0,2.9C50.43,43.74,49.91,43.94,49.38,43.94z"/>
			</g>
			<g>
				<path class="st0" d="M30.14,33.93c-0.52,0-1.05-0.2-1.45-0.6c-0.8-0.8-0.8-2.1,0-2.9l9.62-9.62c0.8-0.8,2.1-0.8,2.9,0
					c0.8,0.8,0.8,2.1,0,2.9l-9.62,9.62C31.19,33.73,30.66,33.93,30.14,33.93z"/>
			</g>
			<g>
				<path class="st0" d="M49.38,33.93c-0.52,0-1.05-0.2-1.45-0.6l-9.62-9.62c-0.8-0.8-0.8-2.1,0-2.9c0.8-0.8,2.1-0.8,2.9,0
					l9.62,9.62c0.8,0.8,0.8,2.1,0,2.9C50.43,33.73,49.91,33.93,49.38,33.93z"/>
			</g>
			<g>
				<path class="st0" d="M30.14,23.72c-0.52,0-1.05-0.2-1.45-0.6c-0.8-0.8-0.8-2.1,0-2.9l9.62-9.62c0.8-0.8,2.1-0.8,2.9,0
					c0.8,0.8,0.8,2.1,0,2.9l-9.62,9.62C31.19,23.52,30.66,23.72,30.14,23.72z"/>
			</g>
			<g>
				<path class="st0" d="M49.38,23.72c-0.52,0-1.05-0.2-1.45-0.6l-9.62-9.62c-0.8-0.8-0.8-2.1,0-2.9c0.8-0.8,2.1-0.8,2.9,0
					l9.62,9.62c0.8,0.8,0.8,2.1,0,2.9C50.43,23.52,49.91,23.72,49.38,23.72z"/>
			</g>
			<g>
				<path class="st0" d="M30.14,13.71c-0.52,0-1.05-0.2-1.45-0.6c-0.8-0.8-0.8-2.1,0-2.9l9.62-9.62c0.8-0.8,2.1-0.8,2.9,0
					s0.8,2.1,0,2.9l-9.62,9.62C31.19,13.51,30.66,13.71,30.14,13.71z"/>
			</g>
			<g>
				<path class="st0" d="M49.38,13.71c-0.52,0-1.05-0.2-1.45-0.6L38.31,3.5c-0.8-0.8-0.8-2.1,0-2.9s2.1-0.8,2.9,0l9.62,9.62
					c0.8,0.8,0.8,2.1,0,2.9C50.43,13.51,49.91,13.71,49.38,13.71z"/>
			</g>
			<g>
				<path class="st0" d="M39.76,56.95c-1.13,0-2.05-0.92-2.05-2.05V2.05c0-1.13,0.92-2.05,2.05-2.05s2.05,0.92,2.05,2.05V54.9
					C41.81,56.03,40.89,56.95,39.76,56.95z"/>
			</g>
		</g>
		<g>
			<g>
				<path class="st0" d="M67.51,43.94c-0.52,0-1.05-0.2-1.45-0.6c-0.8-0.8-0.8-2.1,0-2.9l9.62-9.62c0.8-0.8,2.1-0.8,2.9,0
					c0.8,0.8,0.8,2.1,0,2.9l-9.62,9.62C68.56,43.74,68.04,43.94,67.51,43.94z"/>
			</g>
			<g>
				<path class="st0" d="M86.76,43.94c-0.52,0-1.05-0.2-1.45-0.6l-9.62-9.62c-0.8-0.8-0.8-2.1,0-2.9c0.8-0.8,2.1-0.8,2.9,0
					l9.62,9.62c0.8,0.8,0.8,2.1,0,2.9C87.8,43.74,87.28,43.94,86.76,43.94z"/>
			</g>
			<g>
				<path class="st0" d="M67.51,33.93c-0.52,0-1.05-0.2-1.45-0.6c-0.8-0.8-0.8-2.1,0-2.9l9.62-9.62c0.8-0.8,2.1-0.8,2.9,0
					c0.8,0.8,0.8,2.1,0,2.9l-9.62,9.62C68.56,33.73,68.04,33.93,67.51,33.93z"/>
			</g>
			<g>
				<path class="st0" d="M86.76,33.93c-0.52,0-1.05-0.2-1.45-0.6l-9.62-9.62c-0.8-0.8-0.8-2.1,0-2.9c0.8-0.8,2.1-0.8,2.9,0
					l9.62,9.62c0.8,0.8,0.8,2.1,0,2.9C87.8,33.73,87.28,33.93,86.76,33.93z"/>
			</g>
			<g>
				<path class="st0" d="M67.51,23.72c-0.52,0-1.05-0.2-1.45-0.6c-0.8-0.8-0.8-2.1,0-2.9l9.62-9.62c0.8-0.8,2.1-0.8,2.9,0
					c0.8,0.8,0.8,2.1,0,2.9l-9.62,9.62C68.56,23.52,68.04,23.72,67.51,23.72z"/>
			</g>
			<g>
				<path class="st0" d="M86.76,23.72c-0.52,0-1.05-0.2-1.45-0.6l-9.62-9.62c-0.8-0.8-0.8-2.1,0-2.9c0.8-0.8,2.1-0.8,2.9,0
					l9.62,9.62c0.8,0.8,0.8,2.1,0,2.9C87.8,23.52,87.28,23.72,86.76,23.72z"/>
			</g>
			<g>
				<path class="st0" d="M67.51,13.71c-0.52,0-1.05-0.2-1.45-0.6c-0.8-0.8-0.8-2.1,0-2.9l9.62-9.62c0.8-0.8,2.1-0.8,2.9,0
					c0.8,0.8,0.8,2.1,0,2.9l-9.62,9.62C68.56,13.51,68.04,13.71,67.51,13.71z"/>
			</g>
			<g>
				<path class="st0" d="M86.76,13.71c-0.52,0-1.05-0.2-1.45-0.6L75.69,3.5c-0.8-0.8-0.8-2.1,0-2.9s2.1-0.8,2.9,0l9.62,9.62
					c0.8,0.8,0.8,2.1,0,2.9C87.8,13.51,87.28,13.71,86.76,13.71z"/>
			</g>
			<g>
				<path class="st0" d="M77.13,56.95c-1.13,0-2.05-0.92-2.05-2.05V2.05C75.09,0.92,76,0,77.13,0s2.05,0.92,2.05,2.05V54.9
					C79.18,56.03,78.27,56.95,77.13,56.95z"/>
			</g>
		</g>
		<g>
			<path class="st0" d="M99.21,123.71c-7.64,0-11.62-3.07-15.14-5.77c-3.43-2.64-6.39-4.92-12.64-4.92c-6.24,0-9.2,2.28-12.63,4.92
				c-3.51,2.71-7.49,5.77-15.13,5.77c-7.64,0-11.62-3.07-15.13-5.77c-3.43-2.64-6.39-4.92-12.63-4.92c-6.24,0-9.2,2.28-12.63,4.92
				c-0.9,0.69-2.18,0.52-2.87-0.37c-0.69-0.9-0.52-2.18,0.37-2.87c3.51-2.71,7.49-5.77,15.13-5.77c7.64,0,11.62,3.07,15.13,5.77
				c3.43,2.64,6.39,4.92,12.63,4.92c6.24,0,9.2-2.28,12.63-4.92c3.51-2.71,7.49-5.77,15.13-5.77c7.64,0,11.62,3.07,15.13,5.77
				c3.43,2.64,6.39,4.92,12.64,4.92c6.25,0,9.21-2.28,12.64-4.92c0.9-0.69,2.18-0.52,2.87,0.37c0.69,0.9,0.52,2.18-0.37,2.87
				C110.83,120.64,106.85,123.71,99.21,123.71z"/>
		</g>
		<g>
			<path class="st0" d="M99.21,108.91c-7.64,0-11.62-3.07-15.14-5.77c-3.43-2.64-6.39-4.92-12.64-4.92c-6.24,0-9.2,2.28-12.63,4.92
				c-3.51,2.71-7.49,5.77-15.13,5.77c-7.64,0-11.62-3.07-15.13-5.77c-3.43-2.64-6.39-4.92-12.63-4.92c-6.24,0-9.2,2.28-12.63,4.92
				c-0.9,0.69-2.18,0.52-2.87-0.37c-0.69-0.9-0.52-2.18,0.37-2.87c3.51-2.71,7.49-5.77,15.12-5.77c7.64,0,11.62,3.07,15.13,5.77
				c3.43,2.64,6.39,4.92,12.63,4.92c6.24,0,9.2-2.28,12.63-4.92c3.51-2.71,7.49-5.77,15.13-5.77c7.64,0,11.62,3.07,15.13,5.77
				c3.43,2.64,6.39,4.92,12.64,4.92c6.25,0,9.21-2.28,12.64-4.92c0.9-0.69,2.18-0.52,2.87,0.37c0.69,0.9,0.52,2.18-0.37,2.87
				C110.83,105.84,106.85,108.91,99.21,108.91z"/>
		</g>
		<g>
			<path class="st0" d="M99.21,93.04c-7.64,0-11.62-3.07-15.14-5.77c-3.43-2.64-6.39-4.92-12.64-4.92c-6.24,0-9.2,2.28-12.63,4.92
				c-3.51,2.71-7.49,5.77-15.13,5.77c-7.64,0-11.62-3.07-15.13-5.77c-3.43-2.64-6.39-4.92-12.63-4.92c-6.24,0-9.2,2.28-12.63,4.92
				c-0.9,0.69-2.18,0.52-2.87-0.37C-0.26,86-0.1,84.71,0.8,84.02c3.51-2.71,7.49-5.77,15.13-5.77c7.64,0,11.62,3.07,15.13,5.77
				c3.43,2.64,6.39,4.92,12.63,4.92c6.24,0,9.2-2.28,12.63-4.92c3.51-2.71,7.49-5.77,15.13-5.77c7.64,0,11.62,3.07,15.13,5.77
				c3.43,2.64,6.39,4.92,12.64,4.92c6.25,0,9.21-2.28,12.64-4.92c0.9-0.69,2.18-0.52,2.87,0.37c0.69,0.9,0.52,2.18-0.37,2.87
				C110.83,89.97,106.85,93.04,99.21,93.04z"/>
		</g>
		<g>
			<path class="st0" d="M99.21,78.23c-7.64,0-11.62-3.07-15.14-5.77c-3.43-2.64-6.39-4.92-12.64-4.92c-6.24,0-9.2,2.28-12.63,4.92
				c-3.51,2.71-7.49,5.77-15.13,5.77c-7.64,0-11.62-3.07-15.13-5.77c-3.43-2.64-6.39-4.92-12.63-4.92c-6.24,0-9.2,2.28-12.63,4.92
				c-0.9,0.69-2.18,0.52-2.87-0.37c-0.69-0.9-0.52-2.18,0.37-2.87c3.51-2.71,7.49-5.77,15.12-5.77c7.64,0,11.62,3.07,15.13,5.77
				c3.43,2.64,6.39,4.92,12.63,4.92c6.24,0,9.2-2.28,12.63-4.92c3.51-2.71,7.49-5.77,15.13-5.77c7.64,0,11.62,3.07,15.13,5.77
				c3.43,2.64,6.39,4.92,12.64,4.92c6.25,0,9.21-2.28,12.64-4.92c0.9-0.69,2.18-0.52,2.87,0.37c0.69,0.9,0.52,2.18-0.37,2.87
				C110.83,75.17,106.85,78.23,99.21,78.23z"/>
		</g>
	</g>
</g>
</svg>
