<?xml version="1.0" encoding="utf-8"?>
<!-- Generator: Adobe Illustrator 23.0.6, SVG Export Plug-In . SVG Version: 6.00 Build 0)  -->
<svg version="1.1" id="Layer_1" xmlns="http://www.w3.org/2000/svg" xmlns:xlink="http://www.w3.org/1999/xlink" x="0px" y="0px"
	 viewBox="0 0 104.66 131.92" style="enable-background:new 0 0 104.66 131.92;" xml:space="preserve">
<style type="text/css">
	.st0{fill:#FDCE74;}
	.st1{fill:#8574B3;}
	.st2{fill:#FFFFFF;}
	.st3{fill:none;stroke:#FFFFFF;stroke-width:4.0959;stroke-linecap:round;stroke-linejoin:round;stroke-miterlimit:10;}
</style>
<g id="PETTING_2_">
	<g>
		<g>
			<path class="st2" d="M42.71,131.92c-11.16,0-20.9-3.61-26.71-9.9c-0.77-0.83-0.72-2.13,0.12-2.89c0.83-0.77,2.13-0.72,2.89,0.12
				c5.04,5.46,13.67,8.59,23.7,8.59c17.83,0,19.06-2.63,19.13-3.16c0.08-0.64-0.09-0.92-0.24-1.1c-0.31-0.36-1.42-1.19-5.06-1.25
				c-8.37-0.13-14.19-4.03-14.43-4.19c-0.65-0.44-0.99-1.22-0.87-2c0.12-0.78,0.67-1.42,1.43-1.65c5.23-1.59,19.53-6.3,22.88-8.91
				c0.58-0.45,1.35-0.56,2.03-0.28c0.68,0.28,1.16,0.9,1.26,1.62c0.57,4.21,3.49,16.45,9.22,17.37c3.98,0.64,5.59-0.13,6.2-0.64
				c0.64-0.54,0.69-1.24,0.69-1.44c0-0.11-0.01-1.08-0.79-1.86c-0.67-0.68-1.75-1.02-3.19-1.02c-0.55,0-1.08-0.22-1.47-0.62
				s-0.6-0.93-0.58-1.48c0-0.17,0.43-17.54,0.26-21.01c-0.02-0.42,0.09-0.84,0.32-1.2c0.04-0.07,4.24-6.63,5.69-9.54
				c2.04-4.07,3.35-8.39,4.3-11.54c0.29-0.96,0.55-1.81,0.79-2.52c0.76-2.28,2.72-3.52,4.62-4.71c1.52-0.96,3.08-1.95,4.19-3.51
				c2.63-3.69,1.29-10.14-1.07-14.57c-2.82-5.28-9.14-9.38-17.34-11.25c-0.82-0.19-1.45-0.86-1.57-1.7
				c-0.03-0.2-3.09-19.13-20.56-30.23c-0.49,6.21-0.21,20.91,11.47,31.12c0.44,0.39,0.7,0.95,0.7,1.54c0,0.59-0.25,1.15-0.7,1.54
				l-2.73,2.39c-0.66,0.58-1.6,0.67-2.36,0.24c-0.16-0.09-16.19-8.95-36.89-3.18c1.32,1.23,3.29,2.81,5.94,4.34
				c5.02,2.9,13.62,6.19,26.04,5.44c1-0.07,1.92,0.62,2.13,1.61c0.21,0.98,1.14,5.99-1.24,8.36c-1.01,1.01-2.62,1.36-5.29,1.93
				c-4.29,0.92-11.48,2.46-21.87,7.83c-11.46,5.92-18.98,18.79-19.62,33.59c-0.05,1.13-1.01,2.01-2.13,1.96
				c-1.13-0.05-2.01-1-1.96-2.13c0.7-16.26,9.06-30.46,21.83-37.06c10.87-5.62,18.4-7.23,22.89-8.19c1.38-0.3,2.95-0.63,3.31-0.88
				c0.28-0.28,0.39-1.5,0.3-2.85c-24.69,0.78-35.27-13.11-35.72-13.72c-0.39-0.52-0.5-1.2-0.31-1.83c0.19-0.62,0.67-1.12,1.29-1.33
				c20.52-7.04,37.08-0.49,41.91,1.82C50.73,23.22,54.72,2.55,54.9,1.64c0.13-0.64,0.55-1.17,1.14-1.45
				c0.59-0.27,1.27-0.25,1.84,0.06C76.7,10.5,81.8,28.51,82.91,33.65c8.73,2.28,15.52,6.97,18.73,13
				c2.81,5.28,4.71,13.39,0.79,18.88c-1.58,2.21-3.66,3.53-5.34,4.59c-1.41,0.89-2.62,1.66-2.92,2.55c-0.23,0.68-0.47,1.5-0.75,2.42
				c-1,3.29-2.37,7.81-4.56,12.19c-1.31,2.63-4.51,7.71-5.57,9.38c0.09,3.75-0.14,14.36-0.24,18.74c1.97,0.38,3.24,1.27,4,2.05
				c1.25,1.26,1.99,3.05,1.97,4.79c-0.01,0.83-0.23,2.92-2.15,4.54c-2.03,1.72-5.22,2.24-9.49,1.56c-4.33-0.69-7.78-4.53-10.26-11.4
				c-0.86-2.39-1.45-4.72-1.82-6.47c-4.39,2.24-11.6,4.76-16.49,6.36c2.06,0.72,4.73,1.36,7.77,1.41c3.95,0.06,6.59,0.93,8.09,2.66
				c1,1.15,1.42,2.64,1.21,4.3C65.3,130.03,58.8,131.92,42.71,131.92z"/>
		</g>
		<g>
			<path class="st2" d="M88.14,57.54c-2.85,0-5.16-2.32-5.16-5.16s2.32-5.16,5.16-5.16s5.16,2.32,5.16,5.16S90.98,57.54,88.14,57.54
				z M88.14,51.31c-0.59,0-1.07,0.48-1.07,1.07c0,0.59,0.48,1.07,1.07,1.07s1.07-0.48,1.07-1.07C89.2,51.79,88.73,51.31,88.14,51.31
				z"/>
		</g>
		<g>
			<path class="st2" d="M12.12,124.25C5.44,124.25,0,118.81,0,112.13c0-6.68,5.44-12.12,12.12-12.12s12.12,5.44,12.12,12.12
				C24.24,118.81,18.8,124.25,12.12,124.25z M12.12,104.1c-4.42,0-8.02,3.6-8.02,8.02s3.6,8.02,8.02,8.02s8.02-3.6,8.02-8.02
				S16.54,104.1,12.12,104.1z"/>
		</g>
	</g>
</g>
</svg>
