<?xml version="1.0" encoding="utf-8"?>
<!-- Generator: Adobe Illustrator 22.1.0, SVG Export Plug-In . SVG Version: 6.00 Build 0)  -->
<svg version="1.1" id="Layer_1" xmlns="http://www.w3.org/2000/svg" xmlns:xlink="http://www.w3.org/1999/xlink" x="0px" y="0px"
	 viewBox="0 0 190.4 287" style="enable-background:new 0 0 190.4 287;" xml:space="preserve">
<style type="text/css">
	.st0{fill:#FBD96E;}
</style>
<path class="st0" d="M25.9,147.8c-1.9,1.7-4.5,2.7-7.3,2.7c-2.1,0-4.3-0.6-6-1.6c-3.6-2.1-6.1-6.1-6.1-10.8c0-4.8,2.5-8.7,6.1-10.9
	c1.6-1,3.6-1.5,5.8-1.5c2.6,0,5.2,0.8,7.3,2.6v-12c0-1.2,1-2.2,2.2-2.2h0.5c1.2,0,2.2,1,2.2,2.2v31.6c0,1.2-1,2.2-2.2,2.2h-0.3
	C26.9,150,25.9,149,25.9,147.8L25.9,147.8z M25.8,133.6c-1.5-1.9-3.9-3.4-6.8-3.4c-4.6,0-7.6,3.7-7.6,7.8c0,4.2,3.3,7.8,7.9,7.8
	c2.4,0,4.9-1.2,6.5-3.4V133.6z M56.5,147.8c-1.9,1.7-4.5,2.7-7.3,2.7c-2.1,0-4.3-0.6-6-1.6c-3.6-2.1-6.1-6.1-6.1-10.8
	c0-4.8,2.5-8.7,6.1-10.9c1.6-1,3.6-1.5,5.8-1.5c2.7,0,5.3,0.8,7.4,2.7l0,0c0-1.2,1-2.2,2.2-2.2H59c1.2,0,2.2,1,2.2,2.2v19.4
	c0,1.2-1,2.2-2.2,2.2h-0.3C57.5,150,56.5,149,56.5,147.8L56.5,147.8z M56.4,133.6c-1.5-1.9-3.9-3.4-6.8-3.4c-4.6,0-7.6,3.7-7.6,7.8
	c0,4.2,3.3,7.8,7.9,7.8c2.4,0,4.9-1.2,6.5-3.4V133.6z M71.1,158.9l5-11.4l-8.6-18c-0.7-1.5,0.4-3.3,2.1-3.3h0c0.9,0,1.7,0.5,2.1,1.3
	l6.8,14.4l6.2-14.3c0.4-0.8,1.2-1.4,2.1-1.4l0,0c1.7,0,2.8,1.7,2.1,3.2l-13.6,31.3c-0.4,0.8-1.2,1.4-2.1,1.4h0
	C71.6,162.1,70.5,160.4,71.1,158.9z M118.9,125.7c7,0,12.3,5.3,12.3,12.4s-5.3,12.4-12.3,12.4s-12.3-5.3-12.3-12.4
	S111.9,125.7,118.9,125.7z M118.9,145.9c4.4,0,7.5-3.5,7.5-7.8s-3.1-7.8-7.5-7.8c-4.4,0-7.5,3.5-7.5,7.8
	C111.4,142.4,114.5,145.9,118.9,145.9z M139.4,146.5c-1.5-1.8-2.2-4.1-2.2-8.1v-10c0-1.2,1-2.1,2.1-2.1h0.5c1.2,0,2.1,1,2.1,2.1
	v10.7c0,2.4,0.5,3.7,1.4,4.7c1.1,1.3,2.8,2.1,4.6,2.1c2.9,0,5.3-1.8,6.7-3.4v-14.2c0-1.2,1-2.1,2.1-2.1h0.5c1.2,0,2.1,1,2.1,2.1
	v19.5c0,1.2-1,2.1-2.1,2.1H157c-1.2,0-2.1-1-2.1-2.1v0c-1.1,1-3.7,2.7-7,2.7C144.5,150.5,141.4,149,139.4,146.5z M182.3,147.8
	c0.3,1.2-0.6,2.5-1.9,2.6c-0.5,0-0.9,0.1-1.4,0.1c-3,0-5.2-1.1-6.7-2.8c-1.4-1.6-1.9-3.7-1.9-6.3v-10.9h-3.9c-1.2,0-2.1-1-2.1-2.1
	l0,0c0-1.2,1-2.1,2.1-2.1h3.9v-4.4c0-1.2,1-2.1,2.1-2.1h0.5c1.2,0,2.1,1,2.1,2.1v4.4h5.4c1.2,0,2.1,1,2.1,2.1l0,0
	c0,1.2-1,2.1-2.1,2.1h-5.4v11.1c0,1.3,0.1,2.3,0.7,3c0.7,0.8,2,1.3,3.3,1.3c0.2,0,0.5,0,0.8,0c1-0.1,2,0.6,2.2,1.7L182.3,147.8z
	 M26.3,177.1l5.3,13.3l5.3-13.3c0.3-0.8,1.1-1.3,1.9-1.3l0,0c1.5,0,2.5,1.5,1.9,2.8l-7,17.3c-0.3,0.8-1.1,1.3-1.9,1.3h-0.2
	c-0.8,0-1.6-0.5-1.9-1.3l-5.5-13.7l-5.5,13.7c-0.3,0.8-1.1,1.3-1.9,1.3h-0.2c-0.8,0-1.6-0.5-1.9-1.3l-7-17.3
	c-0.5-1.4,0.4-2.8,1.9-2.8l0,0c0.8,0,1.6,0.5,1.9,1.3l5.3,13.3l5.3-13.3c0.3-0.8,1.1-1.3,1.9-1.3h0.2
	C25.2,175.8,26,176.3,26.3,177.1z M48.1,165.4c1.8-0.2,3.3,1.3,3.1,3.1c-0.1,1.3-1.3,2.4-2.6,2.5c-1.8,0.1-3.2-1.3-3.1-3.1
	C45.7,166.6,46.8,165.5,48.1,165.4z M48.2,175.8h0.5c1.1,0,1.9,0.9,1.9,1.9v17.5c0,1.1-0.9,1.9-1.9,1.9h-0.5c-1.1,0-1.9-0.9-1.9-1.9
	v-17.5C46.3,176.7,47.1,175.8,48.2,175.8z M71.1,195.2c0.2,1.1-0.5,2.2-1.7,2.3c-0.4,0-0.8,0.1-1.3,0.1c-2.7,0-4.7-1-6-2.5
	c-1.3-1.4-1.7-3.4-1.7-5.7v-9.8h-3.5c-1.1,0-1.9-0.9-1.9-1.9l0,0c0-1.1,0.9-1.9,1.9-1.9h3.5v-4c0-1.1,0.9-1.9,1.9-1.9h0.5
	c1.1,0,1.9,0.9,1.9,1.9v4h4.9c1.1,0,1.9,0.9,1.9,1.9l0,0c0,1.1-0.9,1.9-1.9,1.9h-4.9v10c0,1.1,0.1,2.1,0.6,2.7
	c0.6,0.7,1.8,1.1,3,1.1c0.2,0,0.5,0,0.8,0c0.9-0.1,1.8,0.6,2,1.5L71.1,195.2z M81.8,177.7c1.2-1,3.3-2.3,6.3-2.3
	c3.1,0,6,1.5,7.8,3.8c1.4,1.7,2.1,3.9,2.1,7.6v8.5c0,1.1-0.9,1.9-1.9,1.9h-0.5c-1.1,0-1.9-0.9-1.9-1.9v-8.8c0-2.7-0.5-4-1.3-5
	c-1-1.3-2.6-2.1-4.4-2.1c-2.8,0-4.9,1.5-6.1,3v12.8c0,1.1-0.9,1.9-1.9,1.9h-0.5c-1.1,0-1.9-0.9-1.9-1.9v-28.4c0-1.1,0.9-1.9,1.9-1.9
	h0.5c1.1,0,1.9,0.9,1.9,1.9V177.7z M129.8,195.2c0.2,1.1-0.5,2.2-1.7,2.3c-0.4,0-0.8,0.1-1.3,0.1c-2.7,0-4.7-1-6-2.5
	c-1.3-1.4-1.7-3.4-1.7-5.7v-9.8h-3.5c-1.1,0-1.9-0.9-1.9-1.9l0,0c0-1.1,0.9-1.9,1.9-1.9h3.5v-4c0-1.1,0.9-1.9,1.9-1.9h0.5
	c1.1,0,1.9,0.9,1.9,1.9v4h4.9c1.1,0,1.9,0.9,1.9,1.9l0,0c0,1.1-0.9,1.9-1.9,1.9h-4.9v10c0,1.1,0.1,2.1,0.6,2.7
	c0.6,0.7,1.8,1.1,3,1.1c0.2,0,0.5,0,0.8,0c0.9-0.1,1.8,0.6,2,1.5L129.8,195.2z M140.5,177.7c1.2-1,3.3-2.3,6.3-2.3
	c3.1,0,6,1.5,7.8,3.8c1.4,1.7,2.1,3.9,2.1,7.6v8.5c0,1.1-0.9,1.9-1.9,1.9h-0.5c-1.1,0-1.9-0.9-1.9-1.9v-8.8c0-2.7-0.5-4-1.3-5
	c-1-1.3-2.6-2.1-4.4-2.1c-2.8,0-4.9,1.5-6.1,3v12.8c0,1.1-0.9,1.9-1.9,1.9h-0.5c-1.1,0-1.9-0.9-1.9-1.9v-28.2c0-1.2,1-2.2,2.2-2.2
	l0,0c1.2,0,2.2,1,2.2,2.2L140.5,177.7L140.5,177.7z M166.3,187.4c0.2,3.6,3.2,6.5,6.9,6.5c2.2,0,3.7-0.8,4.9-1.7
	c0.8-0.6,1.9-0.6,2.6,0l0,0c0.9,0.8,0.8,2.2-0.2,2.9c-1.7,1.4-4.2,2.4-7.4,2.4c-6.2,0-11.1-4.7-11.1-11.1c0-6.4,4.4-11.1,10.4-11.1
	c6,0,10.3,4.8,10.3,11.1c0,0.4-0.1,0.9-0.8,0.9L166.3,187.4L166.3,187.4z M166.6,183.8h11.6c-0.6-2.7-3.1-4.6-5.6-4.6
	C169.9,179.1,167.4,181,166.6,183.8z M44,284.6l-27.3-25.4v23.3c0,1.6-1.3,2.9-2.9,2.9h-0.3c-1.6,0-2.9-1.3-2.9-2.9v-71.3
	c0-1.6,1.3-2.9,2.9-2.9h0.3c1.6,0,2.9,1.3,2.9,2.9v45.3l24.5-20c0.5-0.4,1.2-0.7,1.8-0.7l0,0c2.7,0,4,3.4,1.9,5.2l-20.8,17.1
	l24,22.2c2,1.8,0.7,5.1-2,5.1H46C45.2,285.4,44.5,285.1,44,284.6z M67.4,216c2.6,0,4.8,2.2,4.8,4.8c0,2.6-2.2,4.7-4.8,4.7
	c-2.6,0-4.7-2.1-4.7-4.7S64.8,216,67.4,216z M67.5,235.9L67.5,235.9c1.7,0,3.1,1.4,3.1,3.1v43.4c0,1.7-1.4,3.1-3.1,3.1l0,0
	c-1.7,0-3.1-1.4-3.1-3.1V239C64.4,237.3,65.8,235.9,67.5,235.9z M95.2,281.8c-6.5-4.6-10.5-12.3-10.5-21.2c0-8.3,3.6-15.5,9.2-20.3
	c4.1-3.4,9.8-5.5,15.8-5.5c6.8,0,13.3,2.7,17.9,7.7v-31.2c0-1.6,1.3-3,3-3h0.2c1.6,0,3,1.3,3,3v71.2c0,1.6-1.3,3-3,3l0,0
	c-1.6,0-3-1.3-3-3v-4.3c-3.7,5-10.1,8.4-17.8,8.4C105.3,286.5,100.1,285.3,95.2,281.8z M127.6,250.6c-2.2-3.7-8.7-10-17.8-10
	c-4.1,0-8.5,1.4-12,4.2c-4.3,3.6-7,9.3-7,15.8c0,6.8,3,12.9,7.8,16.3c3.1,2.2,7,3.7,11.2,3.7c7.3,0,13.8-4.1,17.7-10.9V250.6z
	 M149.3,277c1-1.2,2.8-1.5,4.1-0.6c3.8,2.6,8.2,4.3,12.8,4.3c6.2,0,11.4-3.5,11.4-8.7c0-12.7-28.6-5.8-28.6-22.7
	c0-9,8.5-14.5,16.8-14.5c5.2,0,9.7,1.4,13.2,3.1c1.6,0.8,2.1,2.8,1.1,4.3l0,0c-0.8,1.3-2.6,1.8-4,1c-3.1-1.7-5.9-2.6-10-2.6
	c-5.2,0-11,2.7-11,8.5c0,11,28.6,5.1,28.6,22.5c0,9.2-7.8,14.9-17.2,14.9c-6.8,0-12.5-2.1-16.7-5.1
	C148.5,280.4,148.2,278.4,149.3,277L149.3,277z M188.2,96.2H151c-6.5-25.6-29.2-43.3-55.8-43.3C69,52.9,45.8,71,39.4,96.2H2.1
	c-1.2,0-2.2,1-2.2,2.2s1,2.2,2.2,2.2H41c0,0,0.1,0,0.1,0c1,0,1.9-0.7,2.1-1.7c5.3-24.1,27.2-41.7,52-41.7
	c24.6,0,46.4,17.4,51.9,41.3c0.1,1.1,1,2,2.1,2h39c1.2,0,2.2-1,2.2-2.2C190.4,97.2,189.4,96.2,188.2,96.2z M83.8,31.4
	c-0.8,0.8-0.8,2.2,0,3c0.4,0.4,1,0.6,1.5,0.6c0.5,0,1.1-0.2,1.5-0.6l6-6v15c0,1.2,1,2.2,2.2,2.2s2.2-1,2.2-2.2V28.4l6,6
	c0.4,0.4,1,0.6,1.5,0.6c0.5,0,1.1-0.2,1.5-0.6c0.8-0.8,0.8-2.2,0-3l-9.1-9.1V18l6,6c0.4,0.4,1,0.6,1.5,0.6c0.5,0,1.1-0.2,1.5-0.6
	c0.8-0.8,0.8-2.2,0-3l-9.1-9.1v-4l6,6c0.4,0.4,1,0.6,1.5,0.6c0.5,0,1.1-0.2,1.5-0.6c0.8-0.8,0.8-2.2,0-3l-9.7-9.7c0,0,0,0-0.1-0.1
	c-0.1-0.1-0.2-0.1-0.2-0.2c-0.1,0-0.1-0.1-0.2-0.1c-0.1,0-0.1-0.1-0.2-0.1c-0.1,0-0.1,0-0.2-0.1c-0.1,0-0.1,0-0.2,0
	c-0.1,0-0.3,0-0.4,0c0,0,0,0,0,0c0,0,0,0,0,0c-0.1,0-0.3,0-0.4,0c-0.1,0-0.1,0-0.2,0c-0.1,0-0.1,0-0.2,0.1s-0.1,0.1-0.2,0.1
	c-0.1,0-0.1,0.1-0.2,0.1c-0.1,0.1-0.2,0.1-0.2,0.2c0,0,0,0-0.1,0.1l-9.7,9.7c-0.8,0.8-0.8,2.2,0,3c0.4,0.4,1,0.6,1.5,0.6
	c0.5,0,1.1-0.2,1.5-0.6l6-6v4l-9.1,9.1c-0.8,0.8-0.8,2.2,0,3c0.4,0.4,1,0.6,1.5,0.6c0.5,0,1.1-0.2,1.5-0.6l6-6v4.4L83.8,31.4z
	 M121.1,44.9c-0.8,0.8-0.8,2.2,0,3c0.4,0.4,1,0.6,1.5,0.6c0.5,0,1.1-0.2,1.5-0.6l6-6v15c0,1.2,1,2.2,2.2,2.2c1.2,0,2.2-1,2.2-2.2
	v-15l6,6c0.4,0.4,1,0.6,1.5,0.6c0.5,0,1.1-0.2,1.5-0.6c0.8-0.8,0.8-2.2,0-3l-9.1-9.1v-4.4l6,6c0.4,0.4,1,0.6,1.5,0.6
	c0.5,0,1.1-0.2,1.5-0.6c0.8-0.8,0.8-2.2,0-3l-9.1-9.1v-4l6,6c0.4,0.4,1,0.6,1.5,0.6c0.5,0,1.1-0.2,1.5-0.6c0.8-0.8,0.8-2.2,0-3
	l-9.7-9.7c0,0,0,0-0.1-0.1c-0.1-0.1-0.2-0.1-0.2-0.2c-0.1,0-0.1-0.1-0.2-0.1c-0.1,0-0.1-0.1-0.2-0.1c-0.1,0-0.1,0-0.2-0.1
	c-0.1,0-0.1,0-0.2,0c-0.1,0-0.3,0-0.4,0c0,0,0,0,0,0c0,0,0,0,0,0c-0.1,0-0.3,0-0.4,0c-0.1,0-0.1,0-0.2,0c-0.1,0-0.1,0-0.2,0.1
	c-0.1,0-0.1,0.1-0.2,0.1c-0.1,0-0.1,0.1-0.2,0.1c-0.1,0.1-0.2,0.1-0.2,0.2c0,0,0,0-0.1,0.1l-9.7,9.7c-0.8,0.8-0.8,2.2,0,3
	c0.4,0.4,1,0.6,1.5,0.6c0.5,0,1.1-0.2,1.5-0.6l6-6v4l-9.1,9.1c-0.8,0.8-0.8,2.2,0,3c0.4,0.4,1,0.6,1.5,0.6c0.5,0,1.1-0.2,1.5-0.6
	l6-6v4.4L121.1,44.9z M156.8,75.8c-0.8,0.8-0.8,2.2,0,3c0.4,0.4,1,0.6,1.5,0.6c0.5,0,1.1-0.2,1.5-0.6l6-6v15c0,1.2,1,2.2,2.2,2.2
	c1.2,0,2.2-1,2.2-2.2V72.8l6,6c0.4,0.4,1,0.6,1.5,0.6c0.5,0,1.1-0.2,1.5-0.6c0.8-0.8,0.8-2.2,0-3l-9.1-9.1v-4.4l6,6
	c0.4,0.4,1,0.6,1.5,0.6c0.5,0,1.1-0.2,1.5-0.6c0.8-0.8,0.8-2.2,0-3l-9.1-9.1v-4l6,6c0.4,0.4,1,0.6,1.5,0.6c0.5,0,1.1-0.2,1.5-0.6
	c0.8-0.8,0.8-2.2,0-3l-9.7-9.7c0,0,0,0-0.1-0.1c-0.1-0.1-0.2-0.1-0.2-0.2c-0.1,0-0.1-0.1-0.2-0.1c-0.1,0-0.1-0.1-0.2-0.1
	c-0.1,0-0.1,0-0.2-0.1c-0.1,0-0.1,0-0.2,0c-0.1,0-0.3,0-0.4,0c0,0,0,0,0,0c0,0,0,0,0,0c-0.1,0-0.3,0-0.4,0c-0.1,0-0.1,0-0.2,0
	c-0.1,0-0.1,0-0.2,0.1c-0.1,0-0.1,0.1-0.2,0.1c-0.1,0-0.1,0.1-0.2,0.1c-0.1,0.1-0.2,0.1-0.2,0.2c0,0-0.1,0-0.1,0.1l-9.7,9.7
	c-0.8,0.8-0.8,2.2,0,3c0.4,0.4,1,0.6,1.5,0.6c0.5,0,1.1-0.2,1.5-0.6l6-6v4l-9.1,9.1c-0.8,0.8-0.8,2.2,0,3c0.4,0.4,1,0.6,1.5,0.6
	c0.5,0,1.1-0.2,1.5-0.6l6-6v4.4L156.8,75.8z M10.4,75.8c-0.8,0.8-0.8,2.2,0,3c0.4,0.4,1,0.6,1.5,0.6s1.1-0.2,1.5-0.6l6-6v15
	c0,1.2,1,2.2,2.2,2.2s2.2-1,2.2-2.2V72.8l6,6c0.4,0.4,1,0.6,1.5,0.6c0.6,0,1.1-0.2,1.5-0.6c0.8-0.8,0.8-2.2,0-3l-9.1-9.1v-4.4l6,6
	c0.4,0.4,1,0.6,1.5,0.6c0.6,0,1.1-0.2,1.5-0.6c0.8-0.8,0.8-2.2,0-3l-9.1-9.1v-4l6,6c0.4,0.4,1,0.6,1.5,0.6s1.1-0.2,1.5-0.6
	c0.8-0.8,0.8-2.2,0-3l-9.7-9.7c0,0,0,0-0.1-0.1c-0.1-0.1-0.2-0.1-0.2-0.2c-0.1,0-0.1-0.1-0.2-0.1c-0.1,0-0.1-0.1-0.2-0.1
	c-0.1,0-0.1,0-0.2-0.1c-0.1,0-0.1,0-0.2,0c-0.1,0-0.3,0-0.4,0c0,0,0,0,0,0s0,0,0,0c-0.1,0-0.3,0-0.4,0c-0.1,0-0.1,0-0.2,0
	c-0.1,0-0.1,0-0.2,0.1c-0.1,0-0.1,0.1-0.2,0.1c-0.1,0-0.1,0.1-0.2,0.1c-0.1,0.1-0.2,0.1-0.2,0.2c0,0,0,0-0.1,0.1l-9.7,9.7
	c-0.8,0.8-0.8,2.2,0,3c0.4,0.4,1,0.6,1.5,0.6c0.5,0,1.1-0.2,1.5-0.6l6-6v4l-9.1,9.1c-0.8,0.8-0.8,2.2,0,3c0.4,0.4,1,0.6,1.5,0.6
	s1.1-0.2,1.5-0.6l6-6v4.4L10.4,75.8z M44.9,44.9c-0.8,0.8-0.8,2.2,0,3c0.4,0.4,1,0.6,1.5,0.6c0.5,0,1.1-0.2,1.5-0.6l6-6v15
	c0,1.2,1,2.2,2.2,2.2s2.2-1,2.2-2.2v-15l6,6c0.4,0.4,1,0.6,1.5,0.6c0.5,0,1.1-0.2,1.5-0.6c0.8-0.8,0.8-2.2,0-3l-9.1-9.1v-4.4l6,6
	c0.4,0.4,1,0.6,1.5,0.6c0.5,0,1.1-0.2,1.5-0.6c0.8-0.8,0.8-2.2,0-3l-9.1-9.1v-4l6,6c0.4,0.4,1,0.6,1.5,0.6c0.5,0,1.1-0.2,1.5-0.6
	c0.8-0.8,0.8-2.2,0-3l-9.7-9.7c0,0,0,0-0.1-0.1c-0.1-0.1-0.2-0.1-0.2-0.2c-0.1,0-0.1-0.1-0.2-0.1c-0.1,0-0.1-0.1-0.2-0.1
	c-0.1,0-0.1,0-0.2-0.1c-0.1,0-0.1,0-0.2,0c-0.1,0-0.3,0-0.4,0c0,0,0,0,0,0c0,0,0,0,0,0c-0.1,0-0.3,0-0.4,0c-0.1,0-0.1,0-0.2,0
	c-0.1,0-0.1,0-0.2,0.1c-0.1,0-0.1,0.1-0.2,0.1c-0.1,0-0.1,0.1-0.2,0.1c-0.1,0.1-0.2,0.1-0.2,0.2c0,0-0.1,0-0.1,0.1l-9.7,9.7
	c-0.8,0.8-0.8,2.2,0,3c0.4,0.4,1,0.6,1.5,0.6s1.1-0.2,1.5-0.6l6-6v4l-9.1,9.1c-0.8,0.8-0.8,2.2,0,3c0.4,0.4,1,0.6,1.5,0.6
	s1.1-0.2,1.5-0.6l6-6v4.4L44.9,44.9z"/>
</svg>
