<?xml version="1.0" encoding="utf-8"?>
<!-- Generator: Adobe Illustrator 22.1.0, SVG Export Plug-In . SVG Version: 6.00 Build 0)  -->
<svg version="1.1" id="Layer_1" xmlns="http://www.w3.org/2000/svg" xmlns:xlink="http://www.w3.org/1999/xlink" x="0px" y="0px"
	 viewBox="0 0 191.3 287" style="enable-background:new 0 0 191.3 287;" xml:space="preserve">
<style type="text/css">
	.st0{fill:#7CC5B6;}
</style>
<path class="st0" d="M26.7,148c-1.9,1.7-4.5,2.7-7.3,2.7c-2.1,0-4.4-0.6-6-1.6c-3.6-2.1-6.1-6.1-6.1-10.8c0-4.8,2.5-8.8,6.1-10.9
	c1.6-1,3.6-1.5,5.8-1.5c2.6,0,5.2,0.8,7.3,2.6v-12c0-1.2,1-2.2,2.2-2.2h0.5c1.2,0,2.2,1,2.2,2.2V148c0,1.2-1,2.2-2.2,2.2h-0.3
	C27.7,150.1,26.7,149.2,26.7,148L26.7,148z M26.6,133.8c-1.5-1.9-3.9-3.4-6.8-3.4c-4.6,0-7.6,3.7-7.6,7.8c0,4.2,3.3,7.8,7.9,7.8
	c2.4,0,4.9-1.2,6.5-3.4V133.8z M57.3,148c-1.9,1.7-4.5,2.7-7.3,2.7c-2.1,0-4.3-0.6-6-1.6c-3.6-2.1-6.1-6.1-6.1-10.8
	c0-4.8,2.5-8.8,6.1-10.9c1.6-1,3.6-1.5,5.8-1.5c2.7,0,5.3,0.8,7.4,2.7l0,0c0-1.2,1-2.2,2.2-2.2h0.3c1.2,0,2.2,1,2.2,2.2V148
	c0,1.2-1,2.2-2.2,2.2h-0.3C58.3,150.1,57.3,149.2,57.3,148L57.3,148z M57.2,133.8c-1.5-1.9-3.9-3.4-6.8-3.4c-4.6,0-7.6,3.7-7.6,7.8
	c0,4.2,3.3,7.8,7.9,7.8c2.4,0,4.9-1.2,6.5-3.4V133.8z M71.9,159l5-11.4l-8.6-18c-0.7-1.5,0.4-3.3,2.1-3.3h0c0.9,0,1.7,0.5,2.1,1.3
	l6.8,14.4l6.2-14.3c0.4-0.8,1.2-1.4,2.1-1.4l0,0c1.7,0,2.8,1.7,2.1,3.2l-13.6,31.3c-0.4,0.9-1.2,1.4-2.1,1.4h0
	C72.4,162.3,71.3,160.6,71.9,159z M119.7,125.9c7,0,12.3,5.3,12.3,12.4s-5.3,12.4-12.3,12.4s-12.3-5.3-12.3-12.4
	S112.7,125.9,119.7,125.9z M119.7,146.1c4.4,0,7.5-3.5,7.5-7.8c0-4.3-3.1-7.8-7.5-7.8s-7.5,3.5-7.5,7.8
	C112.2,142.6,115.3,146.1,119.7,146.1z M140.3,146.7c-1.5-1.8-2.2-4.2-2.2-8.1v-10c0-1.2,1-2.2,2.1-2.2h0.5c1.2,0,2.1,1,2.1,2.2
	v10.8c0,2.4,0.5,3.7,1.4,4.8c1.1,1.3,2.8,2.1,4.6,2.1c2.9,0,5.3-1.8,6.7-3.4v-14.2c0-1.2,1-2.2,2.1-2.2h0.5c1.2,0,2.1,1,2.1,2.2V148
	c0,1.2-1,2.1-2.1,2.1h-0.4c-1.2,0-2.1-1-2.1-2.1v0c-1.1,1-3.7,2.7-7,2.7C145.3,150.7,142.2,149.1,140.3,146.7z M183.1,148
	c0.3,1.2-0.6,2.5-1.9,2.6c-0.5,0-0.9,0.1-1.4,0.1c-3,0-5.2-1.1-6.7-2.8c-1.4-1.6-1.9-3.7-1.9-6.3v-10.9h-3.9c-1.2,0-2.1-1-2.1-2.1
	l0,0c0-1.2,1-2.2,2.1-2.2h3.9v-4.4c0-1.2,1-2.2,2.1-2.2h0.5c1.2,0,2.1,1,2.1,2.2v4.4h5.4c1.2,0,2.1,1,2.1,2.2l0,0
	c0,1.2-1,2.1-2.1,2.1H176v11.1c0,1.3,0.1,2.3,0.7,3c0.7,0.8,2,1.3,3.3,1.3c0.2,0,0.5,0,0.8,0c1.1-0.1,2,0.6,2.2,1.7L183.1,148z
	 M27.1,177.3l5.3,13.3l5.3-13.3c0.3-0.8,1.1-1.3,1.9-1.3l0,0c1.5,0,2.5,1.5,1.9,2.8l-7,17.3c-0.3,0.8-1.1,1.3-1.9,1.3h-0.2
	c-0.8,0-1.6-0.5-1.9-1.3L25,182.4l-5.5,13.7c-0.3,0.8-1.1,1.3-1.9,1.3h-0.2c-0.8,0-1.6-0.5-1.9-1.3l-7-17.3
	c-0.6-1.4,0.4-2.8,1.9-2.8l0,0c0.8,0,1.6,0.5,1.9,1.3l5.4,13.3l5.4-13.3c0.3-0.8,1.1-1.3,1.9-1.3h0.2C26,176,26.8,176.5,27.1,177.3z
	 M49,165.5c1.8-0.2,3.3,1.3,3.1,3.1c-0.1,1.3-1.3,2.4-2.6,2.5c-1.8,0.1-3.2-1.3-3.1-3.1C46.5,166.8,47.6,165.6,49,165.5z M49,176
	h0.5c1.1,0,1.9,0.9,1.9,1.9v17.5c0,1.1-0.9,1.9-1.9,1.9H49c-1.1,0-1.9-0.9-1.9-1.9v-17.5C47.1,176.8,47.9,176,49,176z M71.9,195.4
	c0.2,1.1-0.5,2.2-1.7,2.3c-0.4,0-0.8,0.1-1.3,0.1c-2.7,0-4.7-1-6-2.5c-1.3-1.4-1.7-3.4-1.7-5.7v-9.8h-3.5c-1.1,0-1.9-0.9-1.9-1.9
	l0,0c0-1.1,0.9-1.9,1.9-1.9h3.5v-4c0-1.1,0.9-1.9,1.9-1.9h0.5c1.1,0,1.9,0.9,1.9,1.9v4h4.9c1.1,0,1.9,0.9,1.9,1.9l0,0
	c0,1.1-0.9,1.9-1.9,1.9h-4.9v10c0,1.1,0.1,2.1,0.6,2.7c0.6,0.7,1.8,1.1,3,1.1c0.2,0,0.5,0,0.8,0c0.9-0.1,1.8,0.6,2,1.5L71.9,195.4z
	 M82.6,177.8c1.2-1,3.3-2.3,6.3-2.3c3.1,0,6,1.5,7.8,3.8c1.4,1.7,2.1,3.9,2.1,7.6v8.5c0,1.1-0.9,1.9-1.9,1.9h-0.5
	c-1.1,0-1.9-0.9-1.9-1.9v-8.8c0-2.7-0.5-4-1.3-5c-1-1.3-2.6-2.1-4.4-2.1c-2.8,0-4.9,1.5-6.1,3.1v12.8c0,1.1-0.9,1.9-1.9,1.9h-0.5
	c-1.1,0-1.9-0.9-1.9-1.9V167c0-1.1,0.9-1.9,1.9-1.9h0.5c1.1,0,1.9,0.9,1.9,1.9V177.8z M130.6,195.4c0.2,1.1-0.5,2.2-1.7,2.3
	c-0.4,0-0.9,0.1-1.3,0.1c-2.7,0-4.7-1-6.1-2.5c-1.3-1.4-1.7-3.4-1.7-5.7v-9.8h-3.5c-1.1,0-1.9-0.9-1.9-1.9l0,0
	c0-1.1,0.9-1.9,1.9-1.9h3.5v-4c0-1.1,0.9-1.9,1.9-1.9h0.5c1.1,0,1.9,0.9,1.9,1.9v4h4.9c1.1,0,1.9,0.9,1.9,1.9l0,0
	c0,1.1-0.9,1.9-1.9,1.9h-4.9v10c0,1.1,0.1,2.1,0.6,2.7c0.6,0.7,1.8,1.1,3,1.1c0.2,0,0.5,0,0.8,0c0.9-0.1,1.8,0.6,2,1.5L130.6,195.4z
	 M141.3,177.8c1.2-1,3.3-2.3,6.3-2.3c3.1,0,6,1.5,7.8,3.8c1.4,1.7,2.1,3.9,2.1,7.6v8.5c0,1.1-0.9,1.9-1.9,1.9h-0.5
	c-1.1,0-1.9-0.9-1.9-1.9v-8.8c0-2.7-0.5-4-1.3-5c-1-1.3-2.6-2.1-4.4-2.1c-2.8,0-4.9,1.5-6.1,3.1v12.8c0,1.1-0.9,1.9-1.9,1.9h-0.5
	c-1.1,0-1.9-0.9-1.9-1.9v-28.2c0-1.2,1-2.2,2.2-2.2l0,0c1.2,0,2.2,1,2.2,2.2L141.3,177.8L141.3,177.8z M167.1,187.6
	c0.2,3.6,3.2,6.5,6.9,6.5c2.2,0,3.8-0.8,4.9-1.7c0.8-0.6,1.9-0.6,2.6,0.1l0.1,0.1c0.9,0.8,0.8,2.2-0.2,2.9c-1.7,1.4-4.2,2.4-7.4,2.4
	c-6.2,0-11.1-4.7-11.1-11.1s4.4-11.1,10.4-11.1c6,0,10.3,4.8,10.3,11.1c0,0.4-0.1,0.9-0.8,0.9L167.1,187.6L167.1,187.6z
	 M167.5,183.9h11.6c-0.6-2.7-3.1-4.6-5.6-4.6C170.7,179.3,168.2,181.2,167.5,183.9z M44.8,284.8l-27.3-25.4v23.3
	c0,1.6-1.3,2.9-2.9,2.9h-0.3c-1.6,0-2.9-1.3-2.9-2.9v-71.3c0-1.6,1.3-2.9,2.9-2.9h0.3c1.6,0,2.9,1.3,2.9,2.9v45.3l24.5-20
	c0.5-0.4,1.2-0.7,1.8-0.7l0,0c2.8,0,4,3.4,1.9,5.2l-20.8,17.1l24,22.2c2,1.8,0.7,5.1-2,5.1h-0.1C46,285.6,45.3,285.3,44.8,284.8z
	 M68.2,216.2c2.6,0,4.8,2.2,4.8,4.8s-2.2,4.7-4.8,4.7s-4.7-2.1-4.7-4.7S65.6,216.2,68.2,216.2z M68.3,236.1L68.3,236.1
	c1.7,0,3.1,1.4,3.1,3.1v43.4c0,1.7-1.4,3.1-3.1,3.1l0,0c-1.7,0-3.1-1.4-3.1-3.1v-43.4C65.2,237.4,66.6,236.1,68.3,236.1z M96.1,282
	c-6.5-4.6-10.5-12.3-10.5-21.2c0-8.3,3.6-15.5,9.2-20.3c4.1-3.4,9.8-5.5,15.8-5.5c6.8,0,13.3,2.7,17.9,7.7v-31.2c0-1.6,1.3-3,3-3
	h0.2c1.6,0,3,1.3,3,3v71.2c0,1.6-1.3,3-3,3l0,0c-1.6,0-3-1.3-3-3v-4.3c-3.7,5-10.1,8.4-17.8,8.4C106.2,286.7,100.9,285.5,96.1,282z
	 M128.4,250.8c-2.2-3.7-8.7-10-17.8-10c-4.1,0-8.5,1.4-12,4.2c-4.3,3.6-7,9.4-7,15.8c0,6.9,3,12.9,7.8,16.3c3.2,2.2,7,3.7,11.2,3.7
	c7.3,0,13.8-4.1,17.7-10.9V250.8z M150.2,277.2c1-1.2,2.8-1.5,4.1-0.6c3.8,2.6,8.2,4.3,12.8,4.3c6.2,0,11.4-3.5,11.4-8.7
	c0-12.7-28.6-5.8-28.6-22.7c0-9,8.5-14.5,16.9-14.5c5.2,0,9.7,1.4,13.2,3.1c1.6,0.8,2.1,2.8,1.1,4.3l0,0c-0.9,1.3-2.6,1.8-4,1
	c-3.1-1.7-5.9-2.6-10-2.6c-5.2,0-11,2.7-11,8.5c0,11,28.6,5.1,28.6,22.5c0,9.2-7.8,14.9-17.2,14.9c-6.8,0-12.5-2.1-16.8-5.1
	C149.3,280.6,149,278.6,150.2,277.2L150.2,277.2z M190.3,87.6c-1-0.6-2.3-0.3-3,0.7c-3.7,5.8-10,9.2-16.9,9.2s-13.2-3.5-16.9-9.2
	c0,0,0,0,0,0c-0.1-0.1-0.1-0.1-0.1-0.2c0-0.1-0.1-0.1-0.1-0.1s-0.1-0.1-0.1-0.1c-0.1-0.1-0.1-0.1-0.2-0.2c0,0,0,0,0,0
	c0,0-0.1,0-0.1-0.1c-0.1,0-0.1-0.1-0.2-0.1c-0.1,0-0.1,0-0.2-0.1c-0.1,0-0.1,0-0.2-0.1c-0.1,0-0.1,0-0.2,0s-0.1,0-0.2,0
	s-0.1,0-0.2,0c-0.1,0-0.1,0-0.2,0c-0.1,0-0.1,0-0.2,0.1c-0.1,0-0.1,0-0.2,0.1c-0.1,0-0.1,0.1-0.2,0.1c0,0-0.1,0-0.1,0.1c0,0,0,0,0,0
	c-0.1,0-0.1,0.1-0.2,0.2c-0.1,0-0.1,0.1-0.1,0.1c0,0-0.1,0.1-0.1,0.1c-0.1,0.1-0.1,0.1-0.2,0.2c0,0,0,0,0,0c-0.3,0.5-0.7,1-1,1.4
	c-8.6-22-29.8-36.6-53.6-36.6C71.6,53,50.6,67.3,41.9,89c-0.2-0.2-0.3-0.5-0.5-0.8c0,0,0,0,0,0c0-0.1-0.1-0.1-0.2-0.2
	c0-0.1-0.1-0.1-0.1-0.2c0,0-0.1-0.1-0.1-0.1c-0.1-0.1-0.1-0.1-0.2-0.2c0,0,0,0,0,0c0,0-0.1,0-0.1-0.1c-0.1,0-0.2-0.1-0.2-0.1
	c-0.1,0-0.1,0-0.2-0.1c-0.1,0-0.1,0-0.2-0.1c-0.1,0-0.1,0-0.2,0c-0.1,0-0.1,0-0.2,0s-0.1,0-0.2,0c-0.1,0-0.1,0-0.2,0
	c-0.1,0-0.1,0-0.2,0.1c-0.1,0-0.1,0-0.2,0.1c-0.1,0-0.2,0.1-0.2,0.1c0,0-0.1,0-0.1,0.1c0,0,0,0,0,0c-0.1,0-0.1,0.1-0.2,0.2
	c0,0-0.1,0.1-0.1,0.1s-0.1,0.1-0.1,0.1c0,0.1-0.1,0.1-0.2,0.2c0,0,0,0,0,0c-3.7,5.8-10,9.2-16.9,9.2S7.6,94,3.9,88.2
	c-0.6-1-2-1.3-3-0.7c-1,0.6-1.3,2-0.7,3c4.5,7.1,12.2,11.3,20.6,11.3c7.3,0,14.1-3.2,18.7-8.8c4.6,5.5,11.4,8.8,18.7,8.8l0,0
	c7.3,0,14.1-3.2,18.7-8.8c4.5,5.4,11.1,8.6,18.2,8.7c0,0,0.1,0,0.1,0c0,0,0,0,0.1,0c0.1,0,0.2,0,0.3,0c7.3,0,14.1-3.2,18.7-8.8
	c4.6,5.5,11.4,8.8,18.7,8.8c7.3,0,14.1-3.2,18.7-8.8c4.6,5.5,11.4,8.8,18.7,8.8c8.4,0,16-4.2,20.5-11.2
	C191.6,89.6,191.3,88.2,190.3,87.6z M58.2,97.5c-4.9,0-9.5-1.8-13.1-4.9c2.6-7.3,6.7-13.7,11.8-19l16.7,16.7
	C69.9,94.8,64.3,97.5,58.2,97.5z M78.8,88.2c-0.4-0.7-1.2-1.1-2-1L60.1,70.6c9-7.9,20.5-12.7,33-13.2v39.9
	C87.2,96.6,82,93.3,78.8,88.2z M97.4,97.4v-40c12.5,0.5,24,5.3,33,13.2l-16.8,16.8c0,0-0.1,0-0.1,0c-0.1,0-0.2,0.1-0.2,0.1
	c0,0-0.1,0-0.1,0.1c0,0,0,0,0,0c-0.1,0-0.1,0.1-0.2,0.2c-0.1,0-0.1,0.1-0.1,0.1s-0.1,0.1-0.1,0.1c-0.1,0.1-0.1,0.1-0.2,0.2
	c0,0,0,0,0,0C109.1,93.5,103.6,96.9,97.4,97.4z M117.3,89.8l16.2-16.2c5.3,5.4,9.4,12.1,12,19.5c-3.5,2.8-7.9,4.4-12.5,4.4
	C126.8,97.5,121.1,94.7,117.3,89.8z M64.3,31.8c1,2.7,7.3,8.5,9.2,10.2c0.4,0.4,0.9,0.6,1.4,0.6c0.3,0,0.5,0,0.8-0.1
	c0.8-0.3,1.3-1,1.4-1.8c0.2-2.5,1-11.1,0-13.8c-1.4-3.5-5.3-5.3-8.8-3.9c-1.7,0.7-3.1,1.9-3.8,3.6C63.7,28.2,63.6,30.1,64.3,31.8
	L64.3,31.8z M68.3,28.3c0.3-0.6,0.8-1.1,1.4-1.3c1.3-0.5,2.8,0.1,3.3,1.4c0.3,0.8,0.3,3.9,0.1,7.3c-2.4-2.4-4.5-4.7-4.8-5.5
	C68.1,29.6,68.1,28.9,68.3,28.3z M33.1,31.9c1.6,2.4,8.9,6.8,11.1,8.1c0.3,0.2,0.7,0.3,1.1,0.3c0.4,0,0.8-0.1,1.2-0.3
	c0.7-0.5,1.1-1.2,1-2c-0.3-2.6-1.3-11-2.9-13.5c-1-1.5-2.5-2.6-4.3-3c-1.8-0.4-3.6,0-5.2,1C32,24.5,31.1,28.7,33.1,31.9L33.1,31.9z
	 M37.5,26c0.6-0.4,1.2-0.5,1.9-0.3c0.7,0.1,1.2,0.5,1.6,1.1c0.5,0.7,1.1,3.8,1.6,7.1c-2.9-1.8-5.4-3.6-5.8-4.4
	C36,28.4,36.3,26.8,37.5,26z M104.5,48.1c0.1,0,0.3,0,0.4,0c0.7,0,1.3-0.3,1.7-0.8c1.6-2,6.7-8.9,7.3-11.7c0.3-1.8,0-3.6-1-5.1
	c-1-1.5-2.6-2.5-4.4-2.9c-1.8-0.4-3.6,0-5.1,1c-1.5,1-2.5,2.6-2.9,4.4c-0.6,2.8,1.7,11.1,2.4,13.5C103.1,47.3,103.7,47.9,104.5,48.1
	z M104.7,33.8c0.1-0.7,0.5-1.2,1.1-1.6c0.6-0.4,1.2-0.5,1.9-0.4c0.7,0.1,1.2,0.5,1.6,1.1c0.4,0.6,0.5,1.2,0.4,1.9
	c-0.2,0.9-1.8,3.5-3.8,6.2C105.1,37.7,104.6,34.7,104.7,33.8z M25.7,72.7c0.9,0.3,2.2,0.4,3.9,0.4c3.6,0,8.1-0.5,9.9-0.8
	c0.8-0.1,1.5-0.7,1.8-1.4c0.3-0.8,0.1-1.6-0.5-2.2c-1.8-1.8-7.8-8-10.5-8.9l0,0c-3.5-1.2-7.5,0.6-8.7,4.2
	C20.2,67.5,22.1,71.5,25.7,72.7z M25.6,65.4c0.4-1,1.3-1.7,2.4-1.7c0.3,0,0.6,0,0.8,0.1c0.8,0.3,3.2,2.3,5.6,4.7
	c-3.4,0.3-6.5,0.4-7.3,0.1C25.8,68.2,25.1,66.7,25.6,65.4z M136.3,41.6c0.4,0.2,0.7,0.3,1.1,0.3c0.4,0,0.8-0.1,1.1-0.3
	c2.2-1.3,9.4-5.9,10.9-8.3l0,0c1-1.6,1.3-3.4,0.9-5.2c-0.4-1.8-1.5-3.3-3.1-4.2c-3.2-2-7.4-1-9.4,2.2c-1.5,2.4-2.4,10.9-2.6,13.5
	C135.2,40.3,135.6,41.1,136.3,41.6z M141.6,28.3c0.5-0.8,1.3-1.2,2.1-1.2c0.4,0,0.9,0.1,1.3,0.4c0.6,0.4,1,0.9,1.1,1.6
	c0.1,0.6,0,1.3-0.3,1.9c-0.5,0.7-2.9,2.6-5.8,4.5C140.5,32.1,141.1,29,141.6,28.3z M154.8,74.7c0.2,0,0.4,0,0.5-0.1
	c2.5-0.6,10.8-2.8,12.9-4.7c1.4-1.2,2.2-2.9,2.3-4.7c0.1-1.8-0.5-3.6-1.7-5c-1.2-1.4-2.9-2.2-4.7-2.3c-1.8-0.1-3.6,0.5-5,1.7
	c-2.2,1.9-5.5,9.8-6.5,12.1c-0.3,0.8-0.2,1.6,0.4,2.2C153.6,74.4,154.2,74.7,154.8,74.7z M162.1,62.8c0.5-0.4,1.2-0.7,1.8-0.6
	s1.3,0.3,1.7,0.9c0.9,1,0.8,2.6-0.2,3.5c-0.6,0.6-3.6,1.6-6.8,2.6C160,66.1,161.5,63.4,162.1,62.8z"/>
</svg>
