<?xml version="1.0" encoding="utf-8"?>
<!-- Generator: Adobe Illustrator 23.0.4, SVG Export Plug-In . SVG Version: 6.00 Build 0)  -->
<svg version="1.1" id="Layer_1" xmlns="http://www.w3.org/2000/svg" xmlns:xlink="http://www.w3.org/1999/xlink" x="0px" y="0px"
	 viewBox="0 0 1036 1044" style="enable-background:new 0 0 1036 1044;" xml:space="preserve">
<style type="text/css">
	.st0{fill:#FFFDF8;}
	.st1{clip-path:url(#SVGID_2_);fill:#00732C;}
	.st2{fill:#00732C;stroke:#00732C;stroke-width:0.9125;stroke-linecap:round;stroke-linejoin:round;stroke-miterlimit:10;}
	.st3{fill:#00732C;stroke:#00732C;stroke-width:0.9141;stroke-linecap:round;stroke-linejoin:round;stroke-miterlimit:10;}
	.st4{opacity:0.12;fill:#BE9855;enable-background:new    ;}
	.st5{opacity:0.12;}
	.st6{fill:none;stroke:#BE9855;stroke-width:5.1581;stroke-miterlimit:10;}
	.st7{fill:#BE9855;}
	.st8{fill-rule:evenodd;clip-rule:evenodd;fill:#BE9855;}
	.st9{fill:#00732C;stroke:#00732C;stroke-width:1.7061;stroke-linecap:round;stroke-miterlimit:10;}
	.st10{fill:#CDA45B;}
	.st11{fill:#E42313;}
	.st12{fill:#FFFDF8;stroke:#FFFDF8;stroke-width:0.9627;stroke-linecap:round;stroke-linejoin:round;stroke-miterlimit:10;}
	.st13{opacity:0.25;fill:none;}
	.st14{clip-path:url(#SVGID_4_);}
	.st15{opacity:0.45;fill-rule:evenodd;clip-rule:evenodd;fill:url(#SVGID_5_);}
	.st16{opacity:0.79;fill-rule:evenodd;clip-rule:evenodd;fill:url(#SVGID_6_);}
	.st17{opacity:0.15;fill-rule:evenodd;clip-rule:evenodd;fill:url(#SVGID_7_);}
	.st18{opacity:0.33;fill-rule:evenodd;clip-rule:evenodd;fill:url(#SVGID_8_);}
	.st19{opacity:0.29;fill-rule:evenodd;clip-rule:evenodd;fill:url(#SVGID_9_);}
	.st20{opacity:0.45;fill-rule:evenodd;clip-rule:evenodd;fill:url(#SVGID_10_);}
	.st21{opacity:0.26;}
	.st22{fill:#FFFFFF;}
	.st23{filter:url(#Adobe_OpacityMaskFilter);}
	.st24{opacity:0.4;mask:url(#SVGID_11_);}
	.st25{opacity:0.75;}
	.st26{opacity:0.5;}
</style>
<g>
	<circle class="st0" cx="518.4" cy="523" r="474.6"/>
	<g>
		<g>
			<defs>
				<circle id="SVGID_1_" cx="518.4" cy="523" r="474.6"/>
			</defs>
			<clipPath id="SVGID_2_">
				<use xlink:href="#SVGID_1_"  style="overflow:visible;"/>
			</clipPath>
			<path class="st1" d="M-311.3,720.9l500.8,39.7c220.8,17.5,442.5,18.8,663.4,3.8l497-33.6l-4.1,685.1l-1661.2-9.9L-311.3,720.9z"
				/>
		</g>
	</g>
	<g>
		<g>
			<g>
				<path class="st2" d="M590.8,644.2c0.5,0.7,0.5,1.3,0.2,2.1c-0.4,0.8-1,1.1-1.8,1.1h-5.6c-0.7,0-1.3-0.3-1.8-0.9l-5.1-8.4v7.6
					c0,0.5-0.2,0.8-0.5,1.1c-0.3,0.3-0.7,0.5-1.1,0.5h-5.3c-0.5,0-0.8-0.2-1.1-0.5c-0.3-0.3-0.5-0.7-0.5-1.1v-32.5
					c0-0.5,0.2-0.9,0.5-1.2c0.3-0.3,0.7-0.5,1.1-0.5h5.3c0.5,0,0.8,0.2,1.1,0.5c0.3,0.3,0.5,0.7,0.5,1.2v7.6l5-8.3
					c0.4-0.5,0.7-0.7,1.1-0.8s0.6-0.2,0.8-0.2h5.6c0.8,0,1.4,0.4,1.8,1.1c0.3,0.7,0.2,1.4-0.3,2.1l-9.2,14.7L590.8,644.2z"/>
				<path class="st2" d="M619.6,614.8c1.1,1,1.9,2.3,2.6,3.7c0.7,1.4,1,3,1,4.6v0.3c0,1.4-0.2,2.7-0.7,4c-0.4,1.2-1,2.3-1.9,3.3
					c-0.9,1-1.9,1.9-2.9,2.5c-0.7,0.5-1.5,0.8-2.4,1.1l7.5,9.8c0.5,0.7,0.6,1.4,0.2,2.1c-0.3,0.8-0.9,1.1-1.8,1.1h-5.5
					c-0.8,0-1.4-0.3-1.9-0.9l-5-6.7v5.9c0,0.5-0.2,0.8-0.5,1.1c-0.3,0.3-0.7,0.5-1.2,0.5h-5.3c-0.5,0-0.8-0.2-1.1-0.5
					c-0.3-0.3-0.5-0.7-0.5-1.1v-32.5c0-0.5,0.2-0.8,0.5-1.2c0.3-0.3,0.7-0.5,1.1-0.5h9.3c1.6-0.1,3.2,0.1,4.6,0.7
					C617.2,613,618.5,613.8,619.6,614.8z M614.5,623.3c0-0.9-0.2-1.6-0.7-2.2c-0.4-0.6-1-0.9-1.9-0.9h-3.2v6.2h3.2
					c0.7-0.1,1.3-0.4,1.9-1C614.2,624.9,614.5,624.2,614.5,623.3z"/>
				<path class="st2" d="M659.1,645.3c0.1,0.5,0,1-0.3,1.5c-0.3,0.4-0.7,0.6-1.3,0.6H652c-0.9,0-1.4-0.4-1.5-1.3l-1.5-5.6H642
					l-1.5,5.7c-0.2,0.8-0.8,1.2-1.5,1.2h-5.5c-0.5,0-1-0.2-1.3-0.6c-0.3-0.4-0.4-0.9-0.3-1.5l9.1-32.5c0.2-0.8,0.7-1.2,1.5-1.2h5.9
					c0.9,0,1.4,0.4,1.5,1.3L659.1,645.3z M645.5,627l-1.7,6.2h3.4L645.5,627z"/>
				<path class="st2" d="M690.4,612.1c0.3,0.3,0.5,0.7,0.5,1.2v23.6c0,1.6-0.3,3.1-1,4.6c-0.6,1.4-1.5,2.7-2.6,3.7
					c-1.1,1.1-2.4,1.9-3.8,2.4c-1.3,0.5-2.7,0.7-4.2,0.7h-0.5c-1.5,0-3-0.4-4.3-1.1c-1.3-0.6-2.5-1.5-3.5-2.6
					c-1-1.1-1.8-2.3-2.3-3.7c-0.5-1.3-0.8-2.8-0.8-4.4v-23.3c0-0.5,0.2-0.9,0.5-1.2c0.3-0.3,0.7-0.5,1.1-0.5h5.3
					c0.4,0,0.8,0.2,1.1,0.5c0.3,0.3,0.5,0.7,0.5,1.2v23.6c0,0.4,0.1,0.8,0.3,1.2c0.2,0.4,0.5,0.8,0.7,1c0.3,0.2,0.6,0.5,1,0.6
					c0.3,0.2,0.8,0.2,1.2,0.2c0.8-0.1,1.4-0.5,1.9-1c0.5-0.6,0.8-1.3,0.8-2.1v-23.5c0-0.5,0.2-0.9,0.5-1.2c0.3-0.3,0.7-0.5,1.1-0.5
					h5.3C689.7,611.6,690,611.8,690.4,612.1z"/>
				<path class="st2" d="M719.5,613.8c0.5,0.5,1,1,1.4,1.6c0.4,0.6,0.8,1.2,1.1,1.9c0.7,1.4,1,2.8,1,4.4v0.5c0,0.5-0.2,0.9-0.4,1.2
					s-0.7,0.5-1.2,0.5h-5.2c-1.1,0-1.7-0.6-1.7-1.8v-0.5c-0.1-0.7-0.5-1.3-1-1.8c-0.6-0.5-1.3-0.8-2.1-0.8s-1.5,0.3-2.1,0.8
					c-0.5,0.5-0.9,1.1-1,1.9c0,0.3,0,0.7,0.2,1.1c0.1,0.3,0.4,0.7,0.7,1.2c0.4,0.5,1,0.9,1.7,1.3c0.5,0.3,1.1,0.6,1.7,0.8
					c0.3,0.1,0.6,0.2,0.9,0.3s0.6,0.2,0.9,0.3c0.3,0.1,0.6,0.2,0.9,0.3c0.3,0.1,0.6,0.2,0.9,0.3c0.6,0.3,1.2,0.6,1.9,0.9
					c0.7,0.5,1.4,1,2,1.5c0.6,0.5,1.1,1.2,1.6,2c0.2,0.3,0.4,0.7,0.6,1.1s0.3,0.7,0.5,1.1c0.3,0.8,0.4,1.6,0.4,2.3
					c0.1,1.6-0.1,3.2-0.7,4.7c-0.5,1.4-1.4,2.7-2.4,3.8c-1.1,1.1-2.3,2-3.7,2.6c-1.5,0.6-3,0.9-4.7,0.9h-0.3c-1.5,0-3-0.3-4.3-0.8
					c-1.4-0.6-2.5-1.3-3.5-2.2c-1.1-1-1.9-2.1-2.5-3.3c-0.6-1.2-1-2.6-1.1-4c0-0.1,0-0.3,0-0.6v-0.6c0-0.5,0.2-0.9,0.5-1.2
					s0.7-0.5,1.2-0.5h5.2c0.5,0,0.9,0.2,1.2,0.5s0.5,0.7,0.5,1.2v0.5c0.1,0.8,0.5,1.4,1,1.9c0.6,0.5,1.3,0.8,2.1,0.8
					s1.5-0.3,2.1-0.8c0.6-0.5,0.9-1.1,1-1.9c0-0.7-0.2-1.3-0.8-1.8c-0.6-0.6-1.5-1.1-2.6-1.6c-0.6-0.3-1.2-0.5-1.8-0.8
					c-0.6-0.3-1.3-0.5-2-0.8c-1.4-0.6-2.8-1.4-4.1-2.4c-0.5-0.3-0.8-0.7-1.2-1c-0.3-0.4-0.6-0.8-0.9-1.2c-0.2-0.4-0.4-0.8-0.6-1.2
					c-0.2-0.4-0.3-0.8-0.4-1.2c-0.2-0.8-0.4-1.7-0.5-2.5c-0.1-1.7,0.1-3.3,0.7-4.8s1.4-2.8,2.5-3.8c1-1.1,2.2-2,3.7-2.6
					c1.5-0.7,3-1,4.6-1h0.3c1.5,0,3,0.3,4.4,0.9C717.2,612,718.4,612.8,719.5,613.8z"/>
				<path class="st2" d="M751.2,612.1c0.3,0.3,0.5,0.7,0.5,1.2v5.3c0,0.5-0.2,0.9-0.5,1.2c-0.3,0.3-0.7,0.5-1.2,0.5h-9.4v5h7.3
					c0.5,0,0.9,0.2,1.2,0.4c0.3,0.3,0.5,0.7,0.5,1.2v5.3c0,0.5-0.2,0.9-0.5,1.2s-0.7,0.4-1.2,0.4h-7.3v5.1h9.4
					c0.5,0,0.9,0.2,1.2,0.5c0.3,0.4,0.5,0.8,0.5,1.1v5.3c0,0.4-0.2,0.8-0.5,1.1c-0.3,0.3-0.7,0.5-1.2,0.5h-16.3
					c-0.5,0-0.8-0.2-1.1-0.5c-0.3-0.3-0.5-0.7-0.5-1.1v-32.5c0-0.5,0.2-0.9,0.5-1.2c0.3-0.3,0.7-0.5,1.1-0.5h16.3
					C750.5,611.6,750.9,611.8,751.2,612.1z"/>
				<path class="st2" d="M784.8,612.1c0.3,0.3,0.5,0.7,0.5,1.2v32.5c0,0.4-0.2,0.8-0.5,1.1c-0.3,0.3-0.7,0.5-1.2,0.5h-5.2
					c-0.3,0-0.7-0.2-1-0.5c-0.2-0.2-0.4-0.5-0.7-0.9l-7.3-15v14.8c0,0.4-0.2,0.8-0.5,1.1c-0.3,0.3-0.7,0.5-1.1,0.5h-5.3
					c-0.4,0-0.8-0.2-1.1-0.5c-0.3-0.3-0.5-0.7-0.5-1.1v-32.5c0-0.5,0.2-0.9,0.5-1.2c0.3-0.3,0.7-0.5,1.1-0.5h5.2
					c0.4,0,0.8,0.2,1.1,0.5c0.1,0.1,0.2,0.3,0.3,0.4s0.2,0.3,0.3,0.5l7.3,15v-14.8c0-0.5,0.2-0.9,0.5-1.2s0.7-0.5,1.2-0.5h5.3
					C784.1,611.6,784.5,611.8,784.8,612.1z"/>
				<path class="st2" d="M813.7,612.1c0.3,0.3,0.5,0.7,0.5,1.2v5.3c0,0.5-0.2,0.9-0.5,1.2s-0.7,0.5-1.2,0.5H803v5h7.3
					c0.5,0,0.9,0.2,1.2,0.4c0.3,0.3,0.5,0.7,0.5,1.2v5.3c0,0.5-0.2,0.9-0.5,1.2s-0.7,0.4-1.2,0.4H803v5.1h9.4c0.5,0,0.9,0.2,1.2,0.5
					c0.3,0.4,0.5,0.8,0.5,1.1v5.3c0,0.4-0.2,0.8-0.5,1.1c-0.3,0.3-0.7,0.5-1.2,0.5h-16.3c-0.5,0-0.8-0.2-1.1-0.5
					c-0.3-0.3-0.5-0.7-0.5-1.1v-32.5c0-0.5,0.2-0.9,0.5-1.2c0.3-0.3,0.7-0.5,1.1-0.5h16.3C812.9,611.6,813.3,611.8,813.7,612.1z"/>
				<path class="st2" d="M841.7,614.9c1.1,1.1,2,2.3,2.6,3.7c0.6,1.4,0.9,2.9,0.9,4.6V636c0,1.6-0.3,3.2-0.9,4.6
					c-0.6,1.4-1.5,2.6-2.6,3.7c-1.1,1.1-2.4,1.9-3.8,2.4c-0.7,0.3-1.5,0.5-2.4,0.6c-0.9,0.1-1.8,0.2-2.5,0.2h-8
					c-0.5,0-0.9-0.2-1.2-0.5c-0.3-0.3-0.5-0.7-0.5-1.1v-32.5c0-0.5,0.2-0.9,0.5-1.2c0.3-0.3,0.7-0.5,1.2-0.5h8.2
					c0.8,0,1.6,0.1,2.4,0.2c0.8,0.1,1.5,0.3,2.3,0.6C839.3,613,840.6,613.8,841.7,614.9z M836.7,623.2c-0.1-0.8-0.3-1.5-0.8-2
					c-0.5-0.5-1.1-0.9-1.8-1h-2.2v18.7h2.3c0.7,0,1.3-0.3,1.8-0.9c0.5-0.6,0.8-1.3,0.8-2.1L836.7,623.2L836.7,623.2z"/>
				<path class="st2" d="M519,664.9c0.2,0.2,0.3,0.5,0.3,0.9v22.5c0,0.3-0.1,0.5-0.4,0.8c-0.2,0.2-0.5,0.3-0.8,0.3h-3.6
					c-0.2,0-0.5-0.1-0.7-0.3c-0.2-0.1-0.3-0.4-0.5-0.6l-5-10.4v10.2c0,0.3-0.1,0.5-0.4,0.8c-0.2,0.2-0.5,0.3-0.8,0.3h-3.7
					c-0.3,0-0.5-0.1-0.8-0.3c-0.2-0.2-0.3-0.5-0.3-0.8v-22.5c0-0.3,0.1-0.6,0.4-0.8c0.2-0.2,0.5-0.4,0.8-0.4h3.6
					c0.3,0,0.5,0.1,0.8,0.4c0.1,0.1,0.2,0.2,0.2,0.3c0,0.1,0.1,0.2,0.2,0.3l5.1,10.4v-10.2c0-0.4,0.1-0.6,0.3-0.9
					c0.2-0.2,0.5-0.3,0.8-0.3h3.7C518.5,664.6,518.8,664.7,519,664.9z"/>
				<path class="st2" d="M544.5,687.9c0.1,0.4,0,0.7-0.2,1c-0.2,0.3-0.5,0.4-0.9,0.4h-3.8c-0.6,0-1-0.3-1.1-0.9l-1.1-3.9h-4.8
					l-1.1,3.9c-0.2,0.5-0.5,0.8-1.1,0.8h-3.8c-0.4,0-0.7-0.1-0.9-0.4c-0.2-0.3-0.3-0.6-0.2-1l6.3-22.5c0.1-0.6,0.5-0.9,1.1-0.9h4.1
					c0.6,0,1,0.3,1.1,0.9L544.5,687.9z M535,675.2l-1.2,4.3h2.4L535,675.2z"/>
				<path class="st2" d="M562.3,664.9c0.2,0.2,0.3,0.5,0.3,0.9v3.6c0,0.3-0.1,0.6-0.3,0.8c-0.2,0.2-0.5,0.3-0.8,0.3h-2.7v17.7
					c0,0.3-0.1,0.6-0.4,0.8c-0.2,0.2-0.5,0.3-0.8,0.3H554c-0.3,0-0.6-0.1-0.8-0.3c-0.2-0.2-0.3-0.5-0.3-0.8v-17.7h-2.7
					c-0.4,0-0.6-0.1-0.9-0.3c-0.2-0.2-0.3-0.5-0.3-0.8v-3.6c0-0.4,0.1-0.6,0.3-0.9c0.2-0.2,0.5-0.3,0.9-0.3h11.3
					C561.8,664.6,562.1,664.7,562.3,664.9z"/>
				<path class="st2" d="M584.2,664.9c0.2,0.2,0.4,0.5,0.4,0.8v16.4c0,1.1-0.2,2.2-0.7,3.2c-0.4,1-1,1.8-1.8,2.6s-1.6,1.3-2.6,1.7
					c-0.9,0.3-1.9,0.5-2.9,0.5h-0.3c-1.1,0-2.1-0.3-3-0.8c-0.9-0.4-1.7-1-2.4-1.8s-1.2-1.6-1.6-2.6c-0.4-0.9-0.6-2-0.6-3.1v-16.2
					c0-0.3,0.1-0.6,0.3-0.8c0.2-0.2,0.5-0.4,0.8-0.4h3.7c0.3,0,0.5,0.1,0.8,0.4c0.2,0.2,0.3,0.5,0.3,0.8v16.4c0,0.3,0.1,0.5,0.2,0.8
					c0.1,0.3,0.3,0.5,0.5,0.7c0.2,0.2,0.4,0.3,0.7,0.4c0.2,0.1,0.5,0.2,0.8,0.1c0.5-0.1,1-0.3,1.3-0.7c0.4-0.4,0.5-0.9,0.5-1.5
					v-16.3c0-0.3,0.1-0.6,0.3-0.8c0.2-0.2,0.5-0.4,0.8-0.4h3.7C583.7,664.5,584,664.7,584.2,664.9z"/>
				<path class="st2" d="M604.5,666.8c0.7,0.7,1.3,1.6,1.8,2.6c0.5,1,0.7,2,0.7,3.2v0.2c0,1-0.2,1.9-0.5,2.8
					c-0.3,0.9-0.7,1.6-1.3,2.3c-0.6,0.7-1.3,1.3-2,1.8c-0.5,0.3-1,0.6-1.6,0.8l5.2,6.8c0.4,0.5,0.4,1,0.2,1.5
					c-0.2,0.5-0.6,0.8-1.2,0.8h-3.8c-0.5,0-1-0.2-1.3-0.6l-3.5-4.6v4.1c0,0.3-0.1,0.6-0.3,0.8c-0.2,0.2-0.5,0.4-0.8,0.4h-3.7
					c-0.3,0-0.6-0.1-0.8-0.4c-0.2-0.2-0.4-0.5-0.4-0.8v-22.5c0-0.3,0.1-0.6,0.4-0.8c0.2-0.2,0.5-0.3,0.8-0.3h6.5
					c1.1-0.1,2.2,0.1,3.2,0.5C602.8,665.5,603.7,666.1,604.5,666.8z M601,672.7c0-0.6-0.2-1.1-0.5-1.5c-0.3-0.4-0.7-0.6-1.3-0.6
					h-2.2v4.3h2.2c0.5-0.1,0.9-0.3,1.3-0.7C600.8,673.8,601,673.3,601,672.7z"/>
				<path class="st2" d="M631.9,687.9c0.1,0.4,0,0.7-0.2,1c-0.2,0.3-0.5,0.4-0.9,0.4H627c-0.6,0-1-0.3-1.1-0.9l-1.1-3.9H620
					l-1.1,3.9c-0.2,0.5-0.5,0.8-1.1,0.8h-3.8c-0.4,0-0.7-0.1-0.9-0.4c-0.2-0.3-0.3-0.6-0.2-1l6.3-22.5c0.1-0.6,0.5-0.9,1.1-0.9h4.1
					c0.6,0,1,0.3,1.1,0.9L631.9,687.9z M622.4,675.2l-1.2,4.3h2.4L622.4,675.2z"/>
				<path class="st2" d="M651.4,683.8c0.2,0.3,0.3,0.5,0.3,0.8v3.6c0,0.3-0.1,0.6-0.3,0.8c-0.3,0.2-0.6,0.4-0.8,0.4h-11.3
					c-0.3,0-0.5-0.1-0.8-0.4c-0.2-0.2-0.3-0.5-0.3-0.8v-22.5c0-0.3,0.1-0.6,0.3-0.8s0.5-0.3,0.8-0.3h3.7c0.3,0,0.6,0.1,0.8,0.3
					c0.2,0.2,0.4,0.5,0.4,0.8v17.7h6.5C650.9,683.5,651.2,683.6,651.4,683.8z"/>
				<path class="st2" d="M671.2,683.8c0.2,0.3,0.3,0.5,0.3,0.8v3.6c0,0.3-0.1,0.6-0.3,0.8c-0.3,0.2-0.6,0.4-0.8,0.4h-11.3
					c-0.3,0-0.5-0.1-0.8-0.4c-0.2-0.2-0.3-0.5-0.3-0.8v-22.5c0-0.3,0.1-0.6,0.3-0.8c0.2-0.2,0.5-0.3,0.8-0.3h3.7
					c0.3,0,0.6,0.1,0.8,0.3c0.2,0.2,0.4,0.5,0.4,0.8v17.7h6.5C670.7,683.5,671,683.6,671.2,683.8z"/>
				<path class="st2" d="M692.4,664.9c0.2,0.2,0.3,0.5,0.3,0.8c0,0.1,0,0.2-0.1,0.2l-5.8,11.8v10.5c0,0.4-0.1,0.6-0.3,0.8
					c-0.2,0.2-0.5,0.3-0.8,0.3H682c-0.3,0-0.6-0.1-0.8-0.3c-0.1-0.1-0.2-0.2-0.2-0.3s-0.1-0.3-0.1-0.5v-10.5L675,666
					c0,0,0-0.1,0-0.2c0-0.3,0.1-0.6,0.3-0.8c0.2-0.2,0.5-0.4,0.8-0.4h3.7c0.4,0,0.7,0.2,0.9,0.5c0,0,0.1,0.1,0.1,0.2
					c0,0.1,0.1,0.1,0.1,0.2l2.9,5.7l2.9-5.6c0.1-0.2,0.2-0.4,0.2-0.4c0.2-0.3,0.4-0.5,0.8-0.5h3.7
					C691.8,664.6,692.1,664.7,692.4,664.9z"/>
				<path class="st2" d="M723.7,664.9c0.2,0.2,0.3,0.5,0.3,0.8v22.5c0,0.3-0.1,0.6-0.3,0.8c-0.2,0.2-0.5,0.4-0.8,0.4h-3.7
					c-0.3,0-0.6-0.1-0.8-0.3c-0.2-0.2-0.4-0.5-0.4-0.8v-8.3h-3.9v8.3c0,0.3-0.1,0.5-0.4,0.8c-0.2,0.2-0.5,0.3-0.8,0.3h-3.7
					c-0.3,0-0.6-0.1-0.8-0.3c-0.2-0.2-0.3-0.5-0.3-0.8v-22.5c0-0.3,0.1-0.6,0.3-0.8c0.2-0.2,0.5-0.3,0.8-0.3h3.7
					c0.4,0,0.7,0.1,0.9,0.3c0.2,0.2,0.3,0.5,0.3,0.8v8.2h3.9v-8.2c0-0.3,0.1-0.6,0.3-0.8c0.2-0.2,0.5-0.3,0.8-0.3h3.7
					C723.2,664.6,723.5,664.7,723.7,664.9z"/>
				<path class="st2" d="M749.2,687.9c0.1,0.4,0,0.7-0.2,1c-0.2,0.3-0.5,0.4-0.9,0.4h-3.8c-0.6,0-1-0.3-1.1-0.9l-1.1-3.9h-4.8
					l-1.1,3.9c-0.2,0.5-0.5,0.8-1.1,0.8h-3.8c-0.4,0-0.7-0.1-0.9-0.4c-0.2-0.3-0.3-0.6-0.2-1l6.3-22.5c0.1-0.6,0.5-0.9,1.1-0.9h4.1
					c0.6,0,1,0.3,1.1,0.9L749.2,687.9z M739.8,675.2l-1.2,4.3h2.4L739.8,675.2z"/>
				<path class="st2" d="M770.5,684.6v3.6c0,0.3-0.1,0.6-0.3,0.8c-0.2,0.2-0.5,0.3-0.8,0.3h-12.7c-0.3,0-0.6-0.1-0.8-0.3
					c-0.3-0.3-0.5-0.6-0.3-1l0.2-0.5l6.5-17.1h-5.6c-0.7,0-1.1-0.4-1.1-1.1v-3.6c0-0.4,0.1-0.6,0.3-0.9c0.2-0.2,0.5-0.3,0.8-0.3
					h12.7c0.4,0,0.8,0.2,1,0.5c0.1,0.1,0.1,0.3,0.2,0.4s0,0.4,0,0.6l-6.6,17.3h5.5C770.1,683.5,770.5,683.9,770.5,684.6z"/>
				<path class="st2" d="M793.1,664.9c0.2,0.2,0.3,0.5,0.3,0.8c0,0.1,0,0.2-0.1,0.2l-5.8,11.8v10.5c0,0.4-0.1,0.6-0.4,0.8
					c-0.2,0.2-0.5,0.3-0.8,0.3h-3.6c-0.3,0-0.6-0.1-0.8-0.3c-0.1-0.1-0.2-0.2-0.2-0.3c-0.1-0.1-0.1-0.3-0.1-0.5v-10.5l-5.9-11.7
					c0,0,0-0.1,0-0.2c0-0.3,0.1-0.6,0.3-0.8c0.2-0.2,0.5-0.4,0.8-0.4h3.7c0.4,0,0.7,0.2,0.9,0.5c0,0,0.1,0.1,0.1,0.2
					c0,0.1,0.1,0.1,0.1,0.2l2.9,5.7l2.9-5.6c0.1-0.2,0.2-0.4,0.2-0.4c0.1-0.3,0.4-0.5,0.8-0.5h3.7
					C792.5,664.6,792.8,664.7,793.1,664.9z"/>
				<path class="st2" d="M822.2,683.8c0.2,0.3,0.3,0.5,0.3,0.8v3.6c0,0.3-0.1,0.6-0.3,0.8c-0.3,0.2-0.6,0.4-0.8,0.4h-11.3
					c-0.3,0-0.5-0.1-0.8-0.4c-0.2-0.2-0.3-0.5-0.3-0.8v-22.5c0-0.3,0.1-0.6,0.3-0.8s0.5-0.3,0.8-0.3h3.7c0.3,0,0.6,0.1,0.8,0.3
					c0.2,0.2,0.4,0.5,0.4,0.8v17.7h6.5C821.7,683.5,822,683.6,822.2,683.8z"/>
				<path class="st2" d="M847.6,687.9c0.1,0.4,0,0.7-0.2,1c-0.2,0.3-0.5,0.4-0.9,0.4h-3.8c-0.6,0-1-0.3-1.1-0.9l-1.1-3.9h-4.8
					l-1.1,3.9c-0.2,0.5-0.5,0.8-1.1,0.8h-3.8c-0.4,0-0.7-0.1-0.9-0.4c-0.2-0.3-0.3-0.6-0.2-1l6.3-22.5c0.1-0.6,0.5-0.9,1.1-0.9h4.1
					c0.6,0,1,0.3,1.1,0.9L847.6,687.9z M838.1,675.2l-1.2,4.3h2.4L838.1,675.2z"/>
				<path class="st2" d="M867.2,666.4c0.3,0.4,0.5,0.8,0.8,1.3c0.2,0.5,0.4,1,0.6,1.5c0.2,0.5,0.3,1,0.4,1.5
					c0.1,0.5,0.1,0.8,0.1,1.1v0.3c0,0.8-0.4,1.1-1.1,1.1h-3.3c-0.3,0-0.6-0.1-0.8-0.3c-0.2-0.2-0.3-0.5-0.3-0.8v-0.2
					c0-0.3-0.1-0.5-0.2-0.8c-0.1-0.2-0.3-0.5-0.5-0.6c-0.2-0.2-0.4-0.3-0.7-0.4c-0.3-0.1-0.6-0.1-0.9-0.1c-0.5,0-1,0.3-1.3,0.7
					c-0.3,0.4-0.5,0.9-0.5,1.5v10.1c0,0.6,0.2,1.2,0.6,1.5c0.4,0.4,1,0.6,1.6,0.5c0.5-0.1,1-0.3,1.3-0.7c0.4-0.4,0.5-0.9,0.5-1.5
					v-1.8H862c-0.3,0-0.6-0.1-0.8-0.3c-0.2-0.2-0.3-0.5-0.3-0.8v-2.6c0-0.3,0.1-0.6,0.3-0.8c0.2-0.2,0.5-0.4,0.8-0.4h5.9
					c0.2,0,0.4,0,0.5,0.1c0.2,0.1,0.2,0.2,0.3,0.3c0.1,0.1,0.2,0.3,0.2,0.4s0.1,0.5,0.1,0.9v4.1c0,0.7,0,1.3-0.1,1.8
					c-0.1,0.5-0.1,0.9-0.2,1.3c-0.1,0.4-0.2,0.7-0.3,1c-0.1,0.3-0.2,0.5-0.4,0.8c-0.6,1.1-1.3,2-2,2.5s-1.2,0.8-1.8,1
					c-0.9,0.3-1.9,0.5-2.9,0.5H861c-1.1,0-2.1-0.3-3-0.8c-0.9-0.4-1.7-1-2.4-1.8c-0.7-0.7-1.2-1.6-1.6-2.6c-0.4-0.9-0.6-2-0.6-3.1
					v-10.1c0-1.1,0.2-2.2,0.6-3.2c0.4-1,1-1.8,1.8-2.5c0.8-0.7,1.6-1.3,2.6-1.7c1-0.4,2.1-0.6,3.2-0.5c1.1,0.1,2.1,0.3,3,0.8
					c0.5,0.2,0.9,0.5,1.3,0.8C866.5,665.7,866.9,666,867.2,666.4z"/>
				<path class="st2" d="M888.7,664.9c0.2,0.2,0.3,0.5,0.3,0.9v3.6c0,0.3-0.1,0.6-0.3,0.8c-0.2,0.2-0.5,0.3-0.9,0.3h-6.5v3.5h5.1
					c0.3,0,0.6,0.1,0.8,0.3c0.2,0.2,0.3,0.5,0.3,0.8v3.6c0,0.3-0.1,0.6-0.3,0.8s-0.5,0.3-0.8,0.3h-5.1v3.5h6.5
					c0.3,0,0.6,0.1,0.9,0.3c0.2,0.3,0.3,0.5,0.3,0.8v3.7c0,0.3-0.1,0.5-0.4,0.8c-0.2,0.2-0.5,0.3-0.8,0.3h-11.3
					c-0.3,0-0.6-0.1-0.8-0.3c-0.2-0.2-0.3-0.5-0.3-0.8v-22.5c0-0.3,0.1-0.6,0.3-0.8c0.2-0.2,0.5-0.4,0.8-0.4h11.3
					C888.2,664.6,888.5,664.7,888.7,664.9z"/>
				<path class="st2" d="M908.9,666.8c0.7,0.7,1.3,1.6,1.8,2.6c0.5,1,0.7,2,0.7,3.2v0.2c0,1-0.2,1.9-0.5,2.8
					c-0.3,0.9-0.7,1.6-1.3,2.3c-0.6,0.7-1.3,1.3-2,1.8c-0.5,0.3-1,0.6-1.6,0.8l5.2,6.8c0.4,0.5,0.4,1,0.2,1.5
					c-0.2,0.5-0.6,0.8-1.2,0.8h-3.8c-0.5,0-1-0.2-1.3-0.6l-3.5-4.6v4.1c0,0.3-0.1,0.6-0.3,0.8c-0.2,0.2-0.5,0.4-0.8,0.4h-3.7
					c-0.3,0-0.6-0.1-0.8-0.4c-0.2-0.2-0.4-0.5-0.4-0.8v-22.5c0-0.3,0.1-0.6,0.4-0.8c0.2-0.2,0.5-0.3,0.8-0.3h6.5
					c1.1-0.1,2.2,0.1,3.2,0.5C907.2,665.5,908.1,666.1,908.9,666.8z M905.3,672.7c0-0.6-0.2-1.1-0.5-1.5c-0.3-0.4-0.7-0.6-1.3-0.6
					h-2.2v4.3h2.2c0.5-0.1,0.9-0.3,1.3-0.7C905.2,673.8,905.3,673.3,905.3,672.7z"/>
			</g>
		</g>
		<g>
			<path class="st3" d="M649,601.2h-5.3c-0.2,0-0.4,0.1-0.5,0.2c-0.2,0.2-0.2,0.3-0.2,0.6v5c0,0.2,0.1,0.4,0.2,0.6
				c0.2,0.2,0.3,0.2,0.5,0.2h5.3c0.2,0,0.4-0.1,0.5-0.2c0.2-0.2,0.2-0.3,0.2-0.6v-5c0-0.2-0.1-0.4-0.2-0.6
				C649.3,601.2,649.2,601.2,649,601.2z"/>
			<path class="st3" d="M659.9,601.4c-0.2-0.2-0.3-0.2-0.5-0.2h-5.3c-0.2,0-0.4,0.1-0.5,0.2c-0.2,0.2-0.2,0.3-0.2,0.6v5
				c0,0.2,0.1,0.4,0.2,0.6c0.2,0.2,0.3,0.2,0.5,0.2h5.3c0.2,0,0.4-0.1,0.5-0.2c0.2-0.2,0.2-0.3,0.2-0.6v-5
				C660.1,601.8,660,601.5,659.9,601.4z"/>
		</g>
	</g>
	<path class="st4" d="M616.6,562.6c-3.7-6.4-0.5-7.9,3.6-9.4c3-1.2,11.4-3.7,7.6-15c-1.1,0-1.8,6.2-9,6.5c-16.9,1.8-18.4,9.5-19,12
		c-4-1.9-11.3,0-14.9,0.9c-2.4,0.2-12.7-1-11.4,1.6c5.3,0,11.5,8.2,16.5,10.6c-3.6,2-4.9,10.9-7.6,15.7c-8.5-3.6-15.1-21.1-9.7-28.9
		c0,0.2,2.4-5.8,7.2-6c8.2-1.3,13.9,1.1,21.1-3.1c1-0.8,2.8-3.5,0.7-2.8c-3.2,3.2-11.5-6.8-15.1-7.4c-2.6-0.5-4.1-0.1-6.4,0.7
		c1.8-4,1-11.5,1.2-13.7c-2.4,0.3-10.1,4.2-10.1,4.3c-3.8,1.5-4.2,11.7-7.4,8.9c-4.3-2.2-10.2-2.6-14.6,1.1
		c-3.5,4.8-2.5,5.2-7.4,7.9c2.7,1.3,4.8,2,8.2,1.5c6.1,0,9.1-3.4,9.1,5.4c-1,8.3-1.2,16.9,2.2,25c1.8,3.8,4.4,9,11.8,15.7
		c1.9,1.3,12.9,13.3,13.9,13.3c-12.6,3.8-26,11.1-30.1,24.1c-1.6,10.4,0.2,4.9-5.9,8.3c-5.4,6-9.4,7.7-13.5,1.5
		c-1.2,0,1.2,5.9,1.8,6.5c1.2,3.8,2.4,4.7,5.4,6.9c4.6,2.8,14-5.3,11,0.2c-1.4,4.2,1.9,11.7-4,11.7c0.3,1.5,6.4,3.1,7.5-2
		c1.8-4,3.6-6.1,8-1.7c-1.1,1.3-1.8,4.1-1.5,6.2c1.4,6-32,4-32.4-31.7c4.7-4.7,12.4-8.4,7.4-17.2c-0.2,0,5.8-1.9,8.5-5.8
		c0.9-1.3,1.7-4,1.3-5.7c-0.3-1.2-1-1.9-1-3.7c3.4-0.1,5.8-1.3,6.9-5.8c0.8-4.3,0.2-9.5-2.9-12.3c-3.8-2.5-7.1-0.9-6.8,1.3
		c2.3-3.4,7.1,7,1.3,6.8c-5.5-1.2-3.9-10.2-3.8-10.2c-0.1-2.9,1.3-2.6,2.7-4.1c9.6-8.5,3.8-14.4-0.3-14.5c-6.2,0.5-0.4,4.6-0.5,5.8
		c-2.9,0-2.7-5-3.2-8.9c-0.2-1.6-1.1-5.7-1.6-7.1c-1.8-4.6-7.1-11.8-8.5-12.3c0-2.6,6.8-8.1,8.5-9.3c0.8-0.8,10.6-6.1,10.6-6.9
		c-4.3-2.5-20-2.3-20,2.9c-1.4-2.5-4.8-2.5-7.7-2.8c-1-1.6-2.2-3.6-3.9-5c-1.7,1.3-3.5,3.1-4.9,5.5c-4.3-1.3-7.5,0.3-8.5,1.6
		c-1.1,3.2-2.5-3.4-5.2-3.4c0-0.2-10.8-2.2-14.1,1.5c6.6,0,11.3,8.8,13.2,14c2.3,0-3.3,1.8-3.5,2c-3.3,1.5-4.1,0.5-5.5,1.6
		c0,1.7-0.4,4-0.7,6.1c0,3.7,0,5.9,1.6,9.2c0.4,1.7,4.5,5.7,0.1,5.7c-0.2,0-10.8,1-15-0.2c-1.1-0.3-2.4-1.7-3-2.6
		c-2-3.1,0.4-8.7-1-8.7c-3.9,2.4-3.5,7.5-2.8,11.3c-0.4,0-1.6-2.4-2-2.6c-3-4.4-9.6-10.5-9.5-13.6c-0.6-3.9,4.5-8,5-12.2
		c-0.5-4-8.2-11.1-12.3-12.7c0,0.9-0.1,1.7-0.4,3.9c-0.2,3-2.2,11.8-2.5,3.4c-0.1,0-0.2-2.2-2.5-3.3c-2.9-1.7-20.5-6.8-19.3-2
		c7.1,2.4,2.7,14.5,7.2,15.7c0,0.1-6.4-1.4-9.6,0.5c-4.1,2-9.2,14.8-6.7,17.3c1,0,8-2.8,8.5-1.8c3.6,1.2,6.3-0.6,9-3.1
		c-0.5,1.9-0.9,5.2,0.4,8.4c1.1,5.5-5.8,5-5.8,2.2c-2-1-0.1,3.1,0.8,4.5c3.9,6.4,15.1,3.7,17-4.3c2.9,3.7,4.1,9.3-0.9,11.8
		c0,0.5-4.9,1.7-4.9,1.3c-7.5,0,4.7,5.6,6,6.9c3,0.5,2.1-2.7,5-1.6c-0.4,2-6.7,7.8-8.8,9.6c0.3,0.7,3.9,0.7,4.8,1c7-0.3-2.6,5-4,6.4
		c0,0.3,9.1,3.7,11.3,3.4c1.1-0.1,2.6-0.2,2.5,0c-6.8,2.2-17,14.7-20.4,20.2c-1.8,2.7-3.2,5.6-6.4,7.5c-2.5,2.5-5.2-2-6.5-3.3
		c-4.8-10.6-13.1-8.3-21.2-2.1c-1,0.5-5.8,4.1-5.6,6.2c2.2,0.2,2.7,1,5.1,1.3c2.4,0.4,5.3,1.9,3,1.9c-7.2,3.6-5.5,11.9-5.5,18.6
		c0.8,0.5,12.4-4.4,14.5-4.4c-2.4,1.4-1.3,19.3,2.7,20.7c0.3-1.4,5.8-5.3,5.8-5.9c7.8-2.6,8.1-9.8,8.7-17.7c5.8,1.8,7.6,8,3.6,12.7
		c-1.8,1.5-4.8-0.3-4.8,2.5c4.2,1.3,11.8,0.6,14.8-3.1c3.8-2.5,6.6-13.9,1.4-16.5c0-1.8,7.7-5.9,7.7-5.8c1.3,0,0.8,9.1,1.3,9.5
		c4.1-1,10.5-10.5,10.6-10.5c1,2.1,5.4,4.3,7.8,4.8c0,0.4,0.9,0.4,1.2,0.5c0.3-2-1-4-1-6.2c0.9,0.7,5.9,5.4,7.1,4.2
		c0.4,0-0.2-2.4,0.5-4.4c1.3,1.1,2.6,3.5,5.5,3c1.8,7.5,4.9,10,9.9,14.6c-4.6,5-28.4-6.5-28.9,9.5c0.4,7.3,9.4,15,13.5,21.3
		c2.8,5.6,3.7,9.7,0.3,15.4c-3.6,4.4-13.8,3.4-25.3-0.5c-1.9-2.2-1.1-8-1.5-11c-1.6-4.7-7.1-6.6-11.1-3.6
		c-3.8-0.3-11.5-0.9-14.5,2.1c0,0.7,6.3,4.6,7.5,7c4.9,6.6-1.7,3.8-4.1,7.3c-2.5,2-6.6,18.8-2.6,18.8c0-1.8,12.1-6,12.6-4.8
		c-3.5,7.4,4.1,15.4,5.6,22.7c2.2-1.2,3-1.8,3.8-4.2c2.9-4.9,5.7-7.4,10.2-10.2c2.3-2.8,4.7-6.6,5.1-0.5c1.8,2.7,6.9,4.9,5.7,7.6
		c0.6,1.7-6.8,2.9-6.8,4.3c2.9,1,9.4,0.5,13.2-2.1c6.5-4-1.2-15.9-0.4-16.7c3,0.9,5.8,13.7,6.8,14.2c2.9,6.8,5.3-10,5.3-10.7
		c0.7,0.3,0.5,0.7,0.9,1.1c0-0.1,7.4,12.7,7.7,12.8c0.4-0.7,0.8-5.9,1-5.9c-0.2-0.5,1.2-13.2,1.2-12.1c3.4,0,2.5,10.1,6.6,7.9
		c0.2-4,2-8.9,2-11.7c0.2,0.1,2.2,1.2,2.4,1.2c1.7,5.2,8.4,10.4,14.4,8.3c4.5-1.1,14.5-4.4,15.9-3c5.7,0,3.7,22.8,0.9,25.7
		c-7.3-3.7-19.7-4.1-18.6,7.5c-2.9,3.9-3.7,8.4-3.2,13.5c4.7-3.8,7.7-6.3,6.7-1.4c0,3.9,4.3,14.1,7,16.9c2.7-5,7.6-11.7,12-15.3
		c0.1,1.8,9.9,11.4,11.1,10.5c2-2,5-13.6,5-15.9c-1.1-8.1-1.1-9.4,4.6-5.6c0.5-0.2,1.8,2,1.5,2.2c0.7,5.5-0.5,5.8,3.3,1.5
		c1.8-3,3.1-4.7,2.9-8c0-4.2-5.8-9.1-10-9.1c-4.1-1.5,2.4-12.3,3.2-13.6c3.1-3.9,4.3-2.4,8.6-3.8c0.5-1.4-0.7-1.3-1.7-2
		c-7.2-6.7,1.7-3.7,9.2-5.8c4.4-0.7,0.2-4.3-2-5.7c-1.1-0.9-7.3-4.2-6.3-5.2c2.1-3.2,3.6-9.9,3.6-14c-2.2-1.1-10.7,7.2-12.1,5.8
		c0-0.5-0.6-1.5-0.8-2.2c-1.4-2.7-3.7-6.5-6.3-7.1c-2.6,5.5-6.1,15.1-10.1,14.2c-6.3-2.4,0.4-13.8-1.8-18.3
		c9.3,1.4,18.2,2.8,25.5-4.6c0.5,0.1,4.2,0.3,4.5-0.1c3.2,0.3,2.7-5.1,3.2-7.6c0.9-0.7,1.5-0.4,3-0.3c-0.2,1.6,0.1,13,2.5,14.1
		c2.3-2.3,3.3-4.3,5.8-6.9c0.1,0.8,0.7,2.8,2,5.1c4.2,6,14.8,4.5,19,3.4c-1.6-0.8-4.1-1.8-5-2.7c-4.9-2.9,1.8-13.6-6.2-18.1
		c4.3-3.4,7.2-6.8,8.4-10.2c7.7-18-5.4-39-8.4-43c1.8-1,1.7-1.1,4.5-2.7c9.4-5.3,13.6-12,15.8-18.2c2-6.8,0.6-14.2-3.2-18.9
		C622,569.6,617.5,564.5,616.6,562.6 M421.1,557.9c-1.2-0.4-0.6-4.6,1.3-6.4c-0.2,0.8,1.1,5.3,1.8,5.4
		C423.5,556.8,421.2,557.6,421.1,557.9 M528.1,759.1c0-1.6-0.2-3,0.6-4.7c0.8,0.3,1.2,1.6,2.4,2.6
		C530.5,757.6,528.5,758.5,528.1,759.1 M576.8,593c-0.1-0.1-1.8-1.5-3.5-3.2c-3.8-3.6-6.2-5.7-8.2-11c-1.8-4.7-3-10.1-2.9-12.3
		c0-8.2,5.3-23.1-7.1-23.1c-1.9,0.2-3.7,0.8-5.5,1.7c0.2-2.8,3.8-6.1,5.8-5.8c6.8,0,8.9,1.5,11.4,9c3.1-1-0.3-15.8,10.8-19.2
		c0,1.9-0.7,5.6-1.5,9.4c-1.5,3.7-3.1,7.5-3.7,9.3c3.6,0,5.1-9.2,13.9-6.3c0,0,8.6,4.9,5,5.3c0,0.3-4.2,0.1-6.3,0.2
		c-1.2,0.1-2.3-0.1-3.5,0c-4.9,0.5-10.3,3.8-12.4,8.7c-4.7,12,0.4,21.1,4.9,27.7c4.6,4.1,20.3,17.6,22.2,20.2
		c-1.4,0.4-4.2,1.6-5.4,2.1C590.2,605.2,576.8,593.6,576.8,593 M588.1,590.1c0-0.6,9.6-8.6,12.8-10.8c6.3-3.6,11.1-3.4,13.2,0.4
		c4.7,10.2-6.8,20.1-14.5,22.3C599,600.9,588.3,590.1,588.1,590.1 M544.7,528.8c0,0.3-8.7,5.6-7.2,0.7
		C539,528.4,543,528,544.7,528.8 M531.2,535.9c-0.6,0.9-1.7,0.9-3,0.5C524.2,532.4,536.2,531.8,531.2,535.9 M510.5,534.7
		c-0.1,1.5-1.4,2.2-2.6,2.1C502.2,534.5,509,530.6,510.5,534.7 M494,528c1.5-0.7,5.2-0.4,6.6,0.6C501.9,533,494,528.2,494,528
		 M499.7,533.7c-1-1.7,2.2-3.4,3.4-1.2c-0.4,2.1,0.5,4.3,1.1,4.8c2.8,1.6,7.7,2.4,8.2-3.4c-0.4-1.8-0.5-1.6-2.5-3.9
		c4.1-1.4,5.9,2.6,6.4,2.5c1.7-2,1.3-3.7,3.8-6c2.5,1.9,0.9,2.7,2.8,6.6c1.2-4.7,5.2-3.2,6.8-2c-1.5,0.6-4.1,1.4-4.5,2.9
		c-0.4,5.8,5.5,5.3,7.4,3.2c1.6-8.9,6.4-4.2,5.1-3.5c-2.2,2.9-7.1,6.9-7.7,8.5c-1.2-2.2-20.5-4.7-26.4-0.6
		C503.5,541.7,499.7,533.8,499.7,533.7 M498.9,568.9c-4.5,2.3-22.7,3.6-25.5-3C481.2,572.1,492.1,568,498.9,568.9 M498,571.7
		c3.7-0.7,8-0.7,11.8-0.5c0.1,3.5-6.5,2.6-9.2,3C499.7,573.4,498,572.5,498,571.7 M498.7,574.7c-0.6,0.1-2,0.4-2.5,0.5
		c0.4-1.2,0.3-2.3,0.5-2.8C497.6,573,498.7,574.6,498.7,574.7 M497,566.6c0-6.2,16.5-8.4,13.5,3h-0.2
		C507.8,567.2,500.5,567.1,497,566.6 M496.4,563.4h-0.1c-0.3-1-0.9-1.8-1.3-3c0.8,0.4,2.9,0.5,3.9,0.4
		C498.9,561.3,496.6,563,496.4,563.4 M483.4,572.7c0-0.1,9.1-0.5,10.4-0.7c2.6,0.3-0.8,5.1-0.8,7.7c-0.2,0.6-0.2,3.5,0.1,3.8
		c0-1.2,9.1-3,9-2.3c-0.1,0.2-2.2,1.8-2.9,2.3c-2.9,2.3-10.7,5.4-11.4,6.2c-2.1,0.7-3.1-0.5-2.9-1.3c-2.5-5.7,2.4-2.8,5-4.5
		c-0.5-1.2-0.9-1.4-1.8-1.9c-3.7-0.9-5.4,1.1-7.8,1.1c-0.8-5.2-6.5-9.2-7.7-14.1C476.4,570.2,479.1,572.7,483.4,572.7 M454.1,528.8
		c1.7,1.5,1.8,0.8,3.1,2.9c-1.3,0.1-2.6,0.3-3.7,1.1C453.7,531.6,453.9,529.8,454.1,528.8 M434.6,531.7c0-1.8-2.6-3.9-2.6-4.3
		c3.3,0,4,0.8,5.6,2.3C436.2,530.1,435.6,530.7,434.6,531.7 M403.2,632.7c0.9-1.1,3.9-4.8,5.5-4.8c-0.8,0.9-0.8,6.3-0.2,6.3
		C407.5,633.3,404.5,632.7,403.2,632.7 M406.2,651.3c0,0.5-1.3,0.3-1.6,1.6c-0.1-0.2-0.1-0.2-0.3,0.1c-0.2-2.8-0.7-5.1-0.5-7.1
		C405.3,647.8,408.7,649.7,406.2,651.3 M419.3,667.8c-0.8-1-1.3-4.8-1.2-5c2,0,2.5-0.1,5.1,0.3C422,664.2,420.4,666.5,419.3,667.8
		 M482.5,633.5c-2,3.5-5.4-2.2-6.8-6.1c-0.4-1.1-1.1-3.6-1.1-4.7c0-1.3,0.1-2.8-0.3-2.8c-2,0.7-2,8.3-1.5,10c0.4,2.3,0.6,4.8,0.6,7
		c-2.4-1.4-5.5-16.8-9-13.3c3.4,3.7,2.7,11.9-1.1,15.7c0,0.7-1.8,1.9-2.4,1.9c0.2-0.2-0.7-4.8-0.8-5c-1.7-2.6,2.8-7.7,0.5-7.3
		c-0.2,0.8-13.5,11.5-16.5,13c0.2,0.5,1.1,0.9,1.6,1.9c6.5,6.5,1.7,15.4-5.9,17.6c6.9-5.9,4.4-9.2-0.7-14.3
		c-4.5-2.7-9.2-6.4-8.9,0.8c2.4,7.2-2.8,13.2-9.3,11.9c-2.4-1.2-3.8-3.5-2.4-6.3c0.4-1.3,6.4-9.2,7.1-9.6c0-4.5-7.7,2.7-8.1,2.9
		c-13.7,6.3-11.4-5.6-6.2-6.9c2.3-2.3,9.9,0.9,7.7-2.2c0.2-0.2-6.6-1.4-7.1-3.9c-2.2-6.7,2.8-7.9,6.4-7.5c0,0.6,6.8,6.5,6.8,7.8
		c0.6,0.2,4.4,6.2,10.9,1.3c3.3-4.1,11.9-17.3,16.6-21.2c2.6-3.7,15.4-7.3,15.4-9.3c0.2-2.2-4.3-2.9-5.6-4.1
		c-1.1-0.9-1.3,0.3-1.5,0.4c0,2.6-7.6,0.1-7.6-1.3c1.1-0.5,5.8-9.2,5.4-11.3c-1,0-1.7,1.9-3.1,2.5c-4.8,4.8-7.1,1.8-3.4-0.1l0.5-0.3
		c2.5-1.1,6.7-8.7,4.6-11.3c-1.9,0.2-7.7,5.3-10.1,2.9c-2.6-1.4,5.4-3.8,6.2-6.5c2.8-4.3-0.2-12.1-4.9-14.5
		c-2.3-1.4-4.3,4.9-4.3,5.5c0.3,1-4.1,5.4-5.6,3.7c5.2-6-4.3-11.3,2.8-16.5c0.6-0.7,2.2-1.4,2.2-2.2c-5.4-1.7-11.5,3.8-14.4,3.4
		c-5.2-0.3-5-6.9,0-9.1c2.7-1.1,6.2-0.3,8.6,1c1.6,0.5,5,2.5,5,0.4c-2.2-1.1-5.5-6.8-6-9.1c-1.9-4.6,9-15.4,11.1,1.3
		c0,1.6,0.2,3.5,0.6,5c4.4,0,2.5-10.2,9.7-10.8c0,0.2,4.5,4.8,1.9,6.1c-1.4,1.4-4.6,7.1-4.4,10.3c0,0.8,0.8,2.8,1.2,3.7
		c1.5,3.1,5.3,7.5,6.6,8.9c0,0.1,7.2,9.3,7.8,12.7c2.8,4.8,7.9,10.1,6.4,15.5c-0.3,2.2-0.3,2.6,1.6,5.2c-5.3-0.5-13.5,6.9-8,13.5
		c0,1.3,5.8,4,6.7,1.9c-0.4-0.5-4.1-3.3-3.3-3.3c-1.1-4.3,15.1,1,17.4,0.9c1.9,0.3,6.7-2.6,6.5-1.5c-4.2,0-1.3,15-1.6,17
		c-0.2,10.4-12.2,0.6-3.5-3.8C486.1,617.5,477.6,628.4,482.5,633.5 M485.6,633.8c-0.4-0.4-1.8-2.2-1.8-2.5c-0.6-3.3,2.6-7.9,3.1-6.9
		c-0.3,3.1-0.1,8.1,4.9,8.1c1.1,0.5,2.8,0.3,4.5-0.5c0.8-0.4,1.6-1.2,2.1-2c3-4,1.8-9.8,1.4-15.7c1.2-9.3,8.8-15.7,12.6-23.3
		c0.3,0-0.8-0.9-1.1-0.3c-2.1,0.7-7.4,7.8-11.4,11.4c-1.1,1-4.1,3.2-5.6,3.6c-5.8,1.9-14.3-4.7-22.1-0.6c0.2-7.7,8.6-6,9-6.2
		c4.3-0.5,16.8,1.2,21.8-2.7c1.1-0.9,2.2-2.3,3.4-3.4c1.5-1.3,2.9-3.8,1.7-4.3c-0.4,1.6-7,5.4-10.9,6.6c-3.2,1.2-13.7,2.3-16.6-1.3
		c-1.5-1.2,0.1-6,0.6-6c3.5,15.4,19.4-3.4,27.1-4c3.5-1.8,10.4-6.1,10.4-9.9c-0.7-1.7-3-4.1-3-2.7c2.9,1.5-4.7,9.2-7.9,6
		c-3.8,0.8-7.7,1.7-11.9,2.4c-0.7,0.6-1.2-2.5,1-2.8c3.3-0.9,11.4,0.2,14.7-2.5c2.8-2.8,1.6-11.5,0.4-13c-3.4-6.7-15.2-0.7-17.4-3.7
		c-0.2-1.2-0.8-7.9-0.2-8.8c1.5,0.8,2.2-3.2,5.7-3.2c0-2.2,6.4,1.3,7,2.3c-0.7,0.7-3,1-2.1,2.7c0.7-1.5,3.3,3.4,3.5,4.2l0.9-1.1
		c-1.8-7.1,1.7-6.1,7.1-6.1c0.1,0,1.3-3.4-7.5-3.4c0,1.7-2.3-0.3-2.3-0.3c2.5-2.5,20.3-2.4,21,1.6c-5.1,3.1-0.8,4.6,2.6,2.3
		c8.3,3.2-3.4,11.7-4.9,6.6c-1.2-0.3-1.1,1.4-2.7,2.4c5.5,5.1,14.1-2.6,12.7-5c3.5,6.1,5.5,11,4.9,18.1c0.2,4,7.2,6.9,7.1,2.2
		c-1.2-3.1-3.9-5.2,1.3-3.2c1.8,1.3,1.7,3,1.3,4.5c-10.3,17.8-19.5-3.3-18.5-11.1c-3-0.5-0.5,9.5,1.1,12.6c2.3,5.8,6.3,5.8,6.8,12.1
		c-0.3,0.3,1.3,6.2,1.7,7.2c2.6,5.5,12,6.1,12-1.2c0.4-0.4,1.2,5.9-0.9,7.6c-3.7,2.4-10.7-0.8-12.8-2.3c-2-1.7-3.8-4.9-4.9-7.5
		c-0.8-1.8-1.1-3-1.8-4.6c-2.2-5-3.9-18.6-4.4-7.5c-2.3,7.9-2.5,30.5,8.7,32.5c3.3,1,7.8-1.5,9.2-2c1.3-1.4,2.3,1.8,0.4,3.4
		c-17.8,10.8-29.8-10.1-29.1-19.9c-0.1,0-0.2,0-0.2,0c-2,10.3-2.4,23.2,2.6,32.8c6,9.2,20.7,6.5,16.5-3.1c-1-1-2.2-0.2-4.3-0.7
		c-0.3-0.5,2.1-2.4,4.8-1.4c6.2,3.5,0.7,10.1-1,12c-17,12.8-23.3-8.8-23.7-11.2c-2.1-8.2-3.2-13.2-0.8-21.6
		c-3.2-1.6-6.6,14.8-5.7,18.2c0,2.9-1.9,9.6-3.6,11.9c-0.5,1.1-1,2.2-1.9,2.8c-2.5,2.1-7.6,2.9-9.7,3.3
		C489.1,635.6,486.9,635.2,485.6,633.8 M509.9,545.4c0.3,0.7,0.7,1.5-0.7,1.8C508.9,546.8,508.4,545.4,509.9,545.4 M546.3,604.9
		c-0.4,2.2-4.7,3.7-6.2,4.2c-2.6-0.2-5.2-1.6-6.6-3.7c-3-3.1-3.9-11.6-3.1-16.7c0.1,0,4.3,10.8,8.4,13.2
		C541.6,603.6,544.3,604.3,546.3,604.9 M531.1,624.5c1.9-0.7,3.7-0.9,3.6,0.7c-1.1,4.2-3.3,3.9-5.9,3.2c-7.2-3.6-9.1-10.7-8.4-19.2
		c2.1,4.2,8.7,8.9,13.6,8.9C534,618.9,523.9,624.5,531.1,624.5 M437.7,687.8c1.8-0.2,2.8-0.3,4.7,0c-0.2,1.1-0.5,2.5-0.6,3.9
		C440.3,689.7,439.1,688.8,437.7,687.8 M433.2,716.1c-2-2,1-10,3.3-2.1C437.7,714,433.4,716,433.2,716.1 M452,732.4
		c-0.8-0.4-2.4-4.6-2.6-5.5C452.3,726.8,458.8,724.9,452,732.4 M514,707.2c-1.9-0.5-7.6-1.8-6.3,2c0.4,0.8,1.7,3.8,0.8,4.5
		c-2.2-2-5.4-5.5-8.6-5.2c-1.5-0.1-2.4,0.2-2.2,0.9c0.5,1.8,5.4,8.7,2.5,13.1c-1.2-2.6-2.9-5.3-4.5-7.6c-3.4-6.6-6-3.5-7.5-2.5
		c-0.9,1.3,1.3,3.5,2,5.3c1.1,1.1-0.1,3.1-0.1,4.6c-0.6,0-4.1-8.5-4.4-8.9c-0.8-0.6-10.7-0.8-9.4,1.9c0,3.2,3.5,4.6,4.7,8.1
		c1.2,2.8,0.2,8.2-2.4,8.7c0.9-8.1-7-8.3-7-14.1c0-5.9-1.7-5.7-4.7-2.2c-0.6,0.9-1.4,1.8-2.2,2.8c-1,5-17.5,9.9-17.5,1.7
		c0.4-2.4,0.6-5.4,4.1-7.6c1-1,2.3-1,5.9-3.2c0.7-2.9-12.9,2.4-15.7,3.2c-4,1.6-6.9-4-3.7-8.7c8-6.2,14.9-0.8,15.3-1.2
		c0-3.9-5.5-4.9-6.9-8c-1.5-4.5,0.1-9.1,6-7.7c2.9,2.9,1.6,11.2,4.7,14c1.3,1.8,3.7,2.9,4.8,3.3c5.1,1.3,16,4,22.1,0.7
		c2.8-1.5,5.4-4.7,5.9-7.8c0.5-3,0-6.9-0.6-9.8c-2.7-7.8-23.2-25.1-11.2-29.3c9.3-0.6,17.5-0.2,26.9,1.3c1.4,0,1.4,1.8,1,2
		c-1.8-0.2-8.5,0.8-9,1.2c0,3.3,10.5,3.6,11.6,12.2c-1.5,6.1-4.6,3.4-4.6,10.4c0.6,5,4.5,6.7,10.4,5.8
		C513,693.1,513.8,703.9,514,707.2 M512,687.8c-5.9,1.3-5.4-3.4-3.8-6.6c1.4-2.8,3.2-2.5,3.2-6.4c-0.1-4.7-4.3-8.2-9.8-11.5
		c7.8-0.3,11.5,2.8,12.6,9.8C515.7,678.2,517.1,686.4,512,687.8 M538.3,774.6c-1.2-1.2-1.7-2.3-2-4.3c1.2,1.1,2.2,1.2,3.5,2.1
		C539.4,772.8,538.8,773.7,538.3,774.6 M560.6,772.1c-1.2-0.7-1.9-1.2-2.4-2c1.1,0.1,3.2-0.9,3.8-1.2
		C561.7,769.7,561.5,771.7,560.6,772.1 M619.7,596.8c-6.7,10.2-40.6,22.3-44.5,24.8c-5.6,2.9-11.3,12.7-10.2,18.4
		c0,3.4,0.6,5.7,1.6,9.2c2.2,5.8,7,9.5,12.8,11.8c9.1,2.5,22.2,0.7,25.8-6.7c6.9-10,0.2-24.3,0.2-25.4c-0.1,0-6.2-12-6.7-13.8
		c1.1-0.6,3.5-2,4.8-2.4c1.9,2.8,8.6,19.2,9.1,23.2c0.8,3.8,0.8,7.7,0.3,11.5c-1.5,6.7-4.4,11.9-9.9,15.6c-1.1,0.8-1.7,1.6-2.6,1.6
		c-1,1.4,2.6,2,3.6,2.7c5,1.7,1.4,11,3.7,15.6c-10.3-2.3-5.4-12.8-9-14.7c0-0.3-3.2-2-2.8,0.3c1.8,0.4,0.2,7.2-3.6,9.6
		c0.5-3.4-0.2-10.2-1.7-10.6c0,0-6-0.7-6-0.7l-3.3-0.5c2,0,3,6.5-0.8,7.8c0,0.3-2.1-0.2-2.1-0.5c-1.5-0.5-3.6,2.4-5.7,3.9
		c-1.5,1.7-4.7,2.6-6.8,2.7c-6.5,0.7-17.5-1.9-17.5-3.3c-4.6-3.1,0.3,4.9,0.4,4.9c0,12.6-4.1,26.6,10.4,22.2c3.3-2,3.7-4.7,4.6-7.6
		c0.7-2.2,1.1-3.5,2-4.8c2.8,2.7,1.1,12.1,0.9,14.3c1.4,1.3,5.7-5.6,8.9-8.1c8-6,4.5,0.2,2,3.5c-1.5,2.6-7.6,6.6-1.7,6.6
		c3-0.1,7.5,2.5,8.7,5.5c-4.8,1.5-15.8-2.1-11.9,5.6c1.2,1.9,0.3,2.4,0.3,2.5c-5.4,0-16.1,22-2,23.3c4.4,1,7.3,11.2,0.5,4.4
		c-8.9-3.1-9.9,0.1-8.4,6.5c0.8,2.2,0,7.9-0.6,9.4c-3.5,3.8-6.6,3.2-8.7-2.2c-0.4-3.3,0-7.1-0.5-10.3c-1,0-6.2,14.5-12.3,16
		c-4.3,0.3-6.8-2.8-3.8-8.2c-0.3-0.3,10.5-7.9,7.1-7.9c-0.3-0.1-0.7,0.1-1.1,0.4c-8.5,5.6-14.9-4.4-9.7-7.3c2.8-1.5,4.8-0.4,7.7,0.5
		c4.4,1.3,9.6,2.5,10-3c0.2,0,2.6-13.8,2.3-16.1c1.8-20.8-13.1-12.4-27.7-10.1c-2.8,0.8-4.8-1.7-6-4c-4.5-4.5-1.8-27.3-1.2-34.5
		c-0.1-6.2-4.1-15.9-8.1-19.4c-3.4-3.4-16.1-14.1-16.1-19.3c1.8-0.4,8.5-2.9,10-5.1c1.9-1.8,3.5-10.8,4.3-11.2
		c7.5,17,12.4,16.8,20.2,15.8c-1.1,7,7.1,25.7,16.8,31.2c4,3.3,18.6,6.2,23.4,3.3c2.3-0.4-0.4-4.8,1.3-6.8c2.5-2.5,7.4-1.8,4.1-3.1
		c-1.8,0-3.5-3.1-6.1-5.1c-2.9-2.5-7.5-2.1-9.6,0.2c0-4.1,5.1-7.9,0.2-9.5c-2.8-1.2-12,7.5-16.8-1.2c8.9,0.6,10.3-11.3,17.2-3.5
		c0.8,0.6,2,1.3,1.9-0.3c-4.4-26.9,22.5-31.5,39.2-39.1c12.3-4.9,26.6-20.6,13.5-30.7c-13.5-6.8-24.1,12.5-30.5,13.6
		c0.5-0.1,3-2.2,3.5-3.7c2.6-4,1.9-4.3,3.9-9.8c1.1-1,3-4.5,4.5-4.5c0.7-2.3-10-7-14-9.6c7.3,0.6,11.5-1.2,15.9-0.7
		c4.3,1.4,2.5,6.8,6.8,6.8c-4.2-12.6,6.5-18.8,20-19.1c-1.4,2.8-15,2.5-12.3,10.5c0.4,7.7,5.8,10.6,9.5,16c2.2,3.1,3.3,9.4,3.3,10
		C624.5,588.1,623,593.4,619.7,596.8 M595,616.9c4.8,8.6,10.8,18.9,9.4,28.7c-3.3,22.2-42.6,15.1-35-11.6
		C573.7,622.6,588.6,620.3,595,616.9 M645.5,662.5c-0.1,0.3-0.2,0.5-0.2,0.8C645.3,663.1,645.4,662.8,645.5,662.5 M391.1,661.9
		C391.1,661.9,391.1,661.8,391.1,661.9C391.1,661.8,391.1,661.8,391.1,661.9 M255.8,667.9c-0.1-0.1-0.1-0.2-0.3-0.5V653h10.6v15.4
		h-10C256,668.2,255.9,668,255.8,667.9z M325.6,690.4h-33.1V675h33.1L325.6,690.4z M345.3,697v15.4h-33.1V697H345.3z M272.8,668.4
		V653h32.9l0,15.4H272.8z M312.3,668.4V653h33.1v15.4H312.3z M325.6,646.5h-33.1v-15.4h33.1L325.6,646.5z M272.8,624.5v-15.4h32.9
		l0,15.4H272.8z M312.3,624.5v-15.4h33.1v15.4H312.3z M325.6,602.5h-33.1v-15.4h33.1L325.6,602.5z M272.8,580.5v-15.4h32.9l0,15.4
		H272.8z M312.3,580.5v-15.4h33.1v15.4H312.3z M325.6,558.5h-33.1v-15.4h33.1L325.6,558.5z M272.8,536.5v-15.4h32.9l0,15.4H272.8z
		 M312.3,536.5v-15.4h33.1v15.4H312.3z M325.6,514.6h-33.1v-15.4h33.1L325.6,514.6z M312.3,492.6v-15.4h33.1v15.4H312.3z
		 M325.6,470.6h-33.1v-15.4h33.1L325.6,470.6z M305.7,477.2l0,15.4h-32.9v-15.4H305.7z M286,470.6h-30.4v-15.4H286V470.6z
		 M266.2,477.2v15.4h-10.6v-15.4H266.2z M286,499.2v15.4h-30.4v-15.4L286,499.2z M266.2,521.2v15.4h-10.6v-15.4H266.2z M286,543.1
		v15.4h-30.4v-15.4H286z M266.2,565.1v15.4h-10.6v-15.4H266.2z M286,587.1v15.4h-30.4v-15.4H286z M266.2,609.1v15.4h-10.6v-15.4
		H266.2z M286,631.1v15.4h-30.4v-15.4H286z M264.6,682.3c-1.5-2.4-3.1-4.8-4.6-7.3h25.9v15.4h-15.9
		C268.2,687.7,266.4,685,264.6,682.3z M280.3,704.3c-1.8-2.4-3.7-4.8-5.5-7.3h30.9l0,15.4h-18.8C284.6,709.7,282.4,707,280.3,704.3z
		 M299.8,726.8c-2.5-2.6-4.9-5.2-7.2-7.8h33v15.4h-18.4C304.7,731.9,302.2,729.4,299.8,726.8z M322.5,748.2
		c-2.8-2.4-5.5-4.8-8.2-7.3h31.1v15.4h-13C329,753.7,325.7,751,322.5,748.2z M362.5,777.2c-3.8-2.3-7.6-4.7-11.4-7.2
		c-3.4-2.3-6.8-4.6-10.1-7h21.5V777.2z M362.5,756.3h-10.6v-15.4h10.6V756.3z M362.5,734.3h-30.4V719h30.4V734.3z M362.5,712.4
		h-10.6V697h10.6V712.4z M362.5,690.4h-30.4V675h30.4V690.4z M362.5,668.4h-10.6V653h10.6V668.4z M362.5,646.5h-30.4v-15.4h30.4
		V646.5z M362.5,624.5h-10.6v-15.4h10.6V624.5z M362.5,602.5h-30.4v-15.4h30.4V602.5z M362.5,580.5h-10.6v-15.4h10.6V580.5z
		 M362.5,558.5h-30.4v-15.4h30.4V558.5z M362.5,536.6h-10.6v-15.4h10.6V536.6z M362.6,514.6h-30.4v-15.4h30.4V514.6z M362.6,492.6
		h-10.6v-15.4h10.6V492.6z M362.6,470.6h-30.4v-15.4h30.4V470.6z M253.8,448.6l-4.8-5.9l120,0l-4.9,5.9L253.8,448.6z M369.1,436.1
		l-120.4,0l60.2-57.6L369.1,436.1z M300.7,353.6c0-4.6,3.8-8.4,8.4-8.4c4.6,0,8.4,3.7,8.4,8.4s-3.8,8.4-8.4,8.4
		C304.5,362,300.7,358.2,300.7,353.6z M399.1,688.7c0.9,2.2,1.8,4.3,2.7,6.4c1,2.3,2,4.5,3.1,6.8c0.3,0.7,0.7,1.4,1,2.2
		c0.1,0.3,0.3,0.6,0.4,0.9h-37.1v-16.3H399.1z M369.1,681.8v-16.3h17.3v16.3H369.1z M518.4,262.5l88.1,84.3l-176.1,0L518.4,262.5z
		 M518.4,244.6c-4.6,0-8.4-3.7-8.4-8.4c0-4.6,3.8-8.4,8.4-8.4c4.6,0,8.4,3.7,8.4,8.4C526.8,240.9,523,244.6,518.4,244.6z
		 M605.7,353.5l-9,11.1l-156.5,0l-9-11.1L605.7,353.5z M561.6,496.7v-19.8h33.5v19.8H561.6z M595.2,503.3v6.8H582v-6.8H595.2z
		 M442.1,496.7v-19.8h33.3v19.8H442.1z M455.8,503.3v6.8h-13.7v-6.8H455.8z M575.4,397.8v19.8H542v-19.8h15.4c0.1,0,0.3,0,0.4,0
		c0.1,0,0.3,0,0.5,0c0.2,0,0.4,0,0.5,0c0.1,0,0.3,0,0.4,0H575.4z M561.7,391.2v-19.8h33.5v19.8H561.7z M462.4,450.5h15.4
		c0.1,0,0.3,0,0.4,0.1c0.1,0,0.3,0,0.5,0c0.2,0,0.4,0,0.5,0c0.1,0,0.2,0,0.4-0.1h16.1v19.8h-16.9h0h0h-0.1h-16.2L462.4,450.5z
		 M442.2,444v-19.8h33.3V444H442.2z M482,444v-19.8h33.3V444H482z M502.3,450.5h15.4c0.1,0,0.3,0,0.4,0.1c0.1,0,0.3,0,0.5,0
		c0.2,0,0.4,0,0.5,0c0.1,0,0.3,0,0.4-0.1h15.9v19.8h-33.1L502.3,450.5z M522,444v-19.8H555V444H522z M542,450.5h15.4
		c0.1,0,0.3,0,0.4,0.1c0.1,0,0.3,0,0.5,0c0.2,0,0.4,0,0.5,0c0.1,0,0.3,0,0.4-0.1h16.1v19.8H542L542,450.5z M561.6,444v-19.8h33.5
		V444H561.6z M555,391.2H522v-19.8H555V391.2z M535.5,397.8v19.8h-33.1v-19.8h15.4c0.1,0,0.3,0,0.4,0c0.1,0,0.3,0,0.5,0
		c0.2,0,0.4,0,0.5,0c0.1,0,0.3,0,0.4,0H535.5z M515.4,391.2H482v-19.8h33.3V391.2z M495.7,397.8v19.8h-16.9h0h0h-0.1h-16.2v-19.8
		h15.4c0.1,0,0.3,0,0.4,0c0.1,0,0.3,0,0.5,0c0.2,0,0.4,0,0.5,0c0.1,0,0.2,0,0.4,0H495.7z M475.5,391.2h-33.3v-19.8h33.3V391.2z
		 M455.8,397.8v19.8h-13.7v-19.8H455.8z M455.8,450.5v19.8h-13.7v-19.8H455.8z M462.4,503.3h15.4c0.1,0,0.3,0.1,0.4,0.1
		c0.1,0,0.3,0,0.5,0c0.2,0,0.4,0,0.5,0c0.1,0,0.2,0,0.4-0.1h16.1v6.8h-33.3L462.4,503.3z M482,496.7v-19.8h33.3v19.8H482z
		 M502.3,503.3h15.4c0.1,0,0.3,0.1,0.4,0.1c0.1,0,0.3,0,0.5,0c0.2,0,0.4,0,0.5,0c0.1,0,0.3,0,0.4-0.1h15.9v6.8h-33.1L502.3,503.3z
		 M522,496.7v-19.8H555v19.8H522z M542,503.3h15.4c0.1,0,0.3,0.1,0.4,0.1c0.1,0,0.3,0,0.5,0c0.2,0,0.4,0,0.5,0c0.1,0,0.3,0,0.4-0.1
		h16.1v6.8H542L542,503.3z M582,470.3v-19.8h13.2v19.8H582z M582,417.6v-19.8h13.2v19.8H582z M518.4,517.3l126.6,0
		c2.1,15,3.3,34.8,3.6,54.3c0.3,19.5-0.4,38.7-2.1,52.7c-1.6,13.4-4.2,26.5-7.8,39.2c-3.5,12.4-7.9,24.4-13.4,36
		c-5.3,11.2-11.5,22-18.8,32.3c-7.1,10.1-15.2,19.7-24.2,28.8c-8.8,8.9-18.7,17.3-29.5,25.2c-10.5,7.6-22,14.7-34.4,21.3
		c-12.5-6.6-23.9-13.7-34.4-21.3c-10.9-7.9-20.7-16.3-29.5-25.2c-9.1-9.1-17.1-18.8-24.2-28.8c-7.3-10.3-13.5-21.1-18.8-32.3
		c-5.5-11.6-9.9-23.6-13.4-36c-3.6-12.7-6.1-25.8-7.8-39.2c-1.7-14-2.3-33.2-2.1-52.7c0.2-19.5,1.5-39.3,3.6-54.3L518.4,517.3z
		 M644,670.9v10.9h-3.7c0.9-2.5,1.8-5.1,2.7-7.7C643.3,673.1,643.6,672,644,670.9z M617.6,751.5h-17.5c2.1-2.5,4.1-5,6-7.4
		c2.3-2.9,4.5-5.9,6.6-8.9h4.9V751.5z M644,758.4v16.3h-46.2v-16.3H644z M617.3,728.3c1.6-2.5,3.2-5,4.7-7.6
		c1.7-2.9,3.4-5.8,4.9-8.7h17v16.3L617.3,728.3z M591.2,761.4v13.3h-13.7c1.3-1.2,2.6-2.4,3.9-3.5c1.8-1.7,3.7-3.5,5.4-5.3
		c1-1,2-2,3-3C590.2,762.4,590.7,761.9,591.2,761.4z M564.7,785.4v12.5h-17.4c2.9-1.9,5.7-3.9,8.5-5.8
		C558.8,789.9,561.8,787.6,564.7,785.4z M489.6,797.9h-17.2v-12.3c2.9,2.2,5.8,4.4,8.9,6.6C483.9,794.1,486.7,796,489.6,797.9z
		 M459.3,774.7h-13.5v-13c0.4,0.4,0.8,0.9,1.3,1.3c0.9,1,1.8,1.9,2.8,2.9c1.8,1.8,3.6,3.5,5.4,5.3
		C456.7,772.3,458,773.5,459.3,774.7z M419.4,735.2h4.7c2.1,3,4.3,5.9,6.5,8.8c2,2.5,4,5,6,7.5h-17.3L419.4,735.2z M393.1,728.2V712
		h16.8c1.6,2.9,3.2,5.8,4.9,8.7c1.5,2.5,3.1,5.1,4.7,7.6L393.1,728.2z M439.3,758.4v16.3h-46.2v-16.3H439.3z M393.1,671.8
		c0.3,0.9,0.6,1.9,0.9,2.8c0.8,2.4,1.6,4.9,2.5,7.2h-3.4L393.1,671.8z M386.5,712v16.3h-17.3V712H386.5z M412.8,735.2v16.3h-43.6
		v-16.3H412.8z M369.1,758.4h17.3v16.3h-17.3V758.4z M412.8,797.9h-9.3c-11.5-4.8-22.7-10.2-33.5-16.3h42.7L412.8,797.9z
		 M419.4,781.6h46.4v16.3h-46.4V781.6z M439.3,810.1c-5.9-1.6-11.7-3.4-17.5-5.3h17.5V810.1z M492.3,819.6
		c-15.8-1.4-31.4-4-46.4-7.7v-7.1h46.4L492.3,819.6z M538.1,820c-6.5,0.4-13.1,0.6-19.7,0.6c-6.6,0-13.1-0.2-19.5-0.6v-15.2h1.7
		c2.7,1.6,5.5,3.2,8.2,4.8c2.8,1.6,5.7,3.1,8.6,4.6c0,0,0.1,0.1,0.2,0.2c0.1,0.1,0.2,0.2,0.3,0.3l0.5,0.4l0.5-0.4
		c0.1-0.1,0.2-0.2,0.3-0.3c0.1-0.1,0.1-0.1,0.2-0.2c2.9-1.5,5.8-3,8.6-4.6c2.8-1.6,5.5-3.1,8.2-4.8h2L538.1,820z M591.2,811.8
		c-6.4,1.6-12.8,2.9-19.3,4.1c-8.9,1.6-17.9,2.8-27.1,3.6v-14.7h46.4V811.8z M597.8,810v-5.3H615C609.3,806.7,603.5,808.5,597.8,810
		z M617.6,797.9h-46.3v-16.3h46.3V797.9z M651.1,789.9c-5.8,2.9-11.8,5.5-17.8,8h-9.1v-16.3h42.5
		C661.6,784.5,656.4,787.3,651.1,789.9z M667.9,774.7h-17.3v-16.3h17.3V774.7z M667.9,751.5h-43.6v-16.3h43.6V751.5z M667.9,728.3
		h-17.3V712h17.3V728.3z M667.9,705.1h-37.4c0.1-0.3,0.3-0.6,0.5-0.9c0.3-0.7,0.7-1.5,1-2.2c1.1-2.3,2.1-4.6,3.1-6.9
		c0.9-2.1,1.8-4.2,2.7-6.4h30.2L667.9,705.1z M667.9,681.8h-17.3v-16.3h17.3V681.8z M685.8,769.9c-3.7,2.5-7.4,4.9-11.2,7.2v-14.1
		h21.2C692.5,765.3,689.1,767.7,685.8,769.9z M711.5,690.4V675h33.1v15.4H711.5z M724.6,697v15.4h-32.9V697H724.6z M691.8,668.4V653
		h32.9v15.4H691.8z M731.3,668.4V653h33v15.4H731.3z M744.5,646.5h-33.1v-15.4h33.1V646.5z M691.8,624.5v-15.4h32.9v15.4H691.8z
		 M731.3,624.5v-15.4h33v15.4H731.3z M744.5,602.5h-33.1v-15.4h33.1V602.5z M691.8,580.5v-15.4h32.9v15.4H691.8z M731.3,580.5v-15.4
		h33v15.4H731.3z M744.6,558.6h-33.1v-15.4h33.1V558.6z M691.8,536.6v-15.4h32.9v15.4H691.8z M731.3,536.6v-15.4h33v15.4H731.3z
		 M744.6,514.6h-33.1v-15.4h33.1V514.6z M731.3,492.6v-15.4h33v15.4H731.3z M744.6,470.6h-33.1v-15.4h33.1V470.6z M724.6,477.2v15.4
		h-32.9v-15.4H724.6z M704.9,470.6h-30.4v-15.4h30.4V470.6z M685.2,477.2v15.4h-10.6v-15.4H685.2z M704.9,499.2v15.4h-30.4v-15.4
		L704.9,499.2z M685.2,521.2v15.4h-10.6v-15.4H685.2z M704.9,543.2v15.4h-30.4v-15.4H704.9z M685.2,565.2v15.4h-10.6v-15.4H685.2z
		 M704.9,587.1v15.4h-30.4v-15.4H704.9z M685.1,609.1v15.4h-10.6v-15.4H685.1z M704.9,631.1v15.4h-30.4v-15.4H704.9z M685.1,653
		v15.4h-10.6V653H685.1z M704.9,675v15.4h-30.4V675H704.9z M685.1,697v15.4h-10.6V697H685.1z M704.9,719v15.4h-30.4V719H704.9z
		 M685.1,741v15.4h-10.6V741H685.1z M714.3,748.2c-3.2,2.8-6.5,5.5-9.9,8.1h-12.7V741h30.8C719.9,743.4,717.1,745.8,714.3,748.2z
		 M737.2,726.6c-2.5,2.6-5,5.2-7.6,7.7h-18V719h32.7C741.9,721.6,739.6,724.1,737.2,726.6z M756.5,704.3c-2.1,2.7-4.3,5.4-6.6,8.1
		h-18.6V697H762C760.2,699.5,758.3,701.9,756.5,704.3z M772.2,682.3c-1.7,2.7-3.5,5.4-5.4,8.1h-15.6V675h25.6
		C775.2,677.5,773.7,679.9,772.2,682.3z M781.5,666.9c-0.1,0.2-0.2,0.4-0.3,0.6c-0.2,0.3-0.3,0.6-0.5,0.9h-9.8V653h10.6V666.9z
		 M781.5,646.5h-30.4v-15.4h30.4V646.5z M781.5,624.5h-10.6v-15.4h10.6V624.5z M781.5,602.5h-30.4v-15.4h30.4V602.5z M781.5,580.5
		h-10.6v-15.4h10.6V580.5z M781.5,558.6h-30.4v-15.4h30.4V558.6z M781.5,536.6h-10.6v-15.4h10.6V536.6z M781.5,514.6h-30.4v-15.4
		h30.4V514.6z M781.5,492.6h-10.6v-15.4h10.6V492.6z M781.5,470.6h-30.4v-15.4h30.4V470.6z M673.3,448.6l-4.8-5.9l119.9,0l-4.8,5.9
		L673.3,448.6z M788.1,436.1l-120.4,0l60.2-57.6L788.1,436.1z M719.7,353.6c0-4.6,3.8-8.4,8.4-8.4c4.6,0,8.4,3.7,8.4,8.4
		s-3.7,8.4-8.4,8.4C723.5,362,719.7,358.2,719.7,353.6z M517.3,827.7c136.8,0,213.8-78.7,249-123c12.7-15.9,20.9-33.8,20.9-33.8
		v-21.2v-22v-22v-22v-22v-22v-22v-22v-22v-21.4l8.7-10.7c0.7-0.1,1.3-0.4,1.5-1.5c1.6-1.6,0.7-2.5-0.2-3.3l-66.9-64h0.1v-5.5
		c6.6-1.1,11.7-7,11.7-13.9c0-7.8-6.3-14.1-14.1-14.1c-7.8,0-14.1,6.3-14.1,14.1c0,6.9,5,12.7,11.7,13.9v5.2l-67.2,64.3
		c-0.9,0.8-1.7,1.6-0.1,3.4c0.1,0.1,0.2,0.2,0.3,0.3c0.2,0.6,0.6,0.9,1.1,1l9,11v21.1v22v22v22v22v22v22v22v22v9.8h-22.5
		c-0.3,1-0.5,2-0.8,3c3.4-12.7,5.9-25.7,7.4-39c3.4-29.1,2.5-79.3-2.1-110.3c-0.1-0.6-0.2-1.2-0.6-1.7c-0.4-0.4-1-0.7-2-0.6v0h-47.3
		l0-142c0-0.2,0.1-0.4,0.1-0.6l12.8-15.7c0.8-0.1,1.5-0.3,1.7-1.5c0,0,0.1,0,0.1-0.1c1.7-1.7,0.8-2.6-0.1-3.4L520.8,257v-6.8
		c6.6-1.1,11.7-6.9,11.7-13.9c0-7.8-6.3-14.1-14.1-14.1s-14.1,6.3-14.1,14.1c0,6.9,5.1,12.7,11.7,13.9v6.8l-94.6,90.6
		c-0.9,0.9-1.8,1.7-0.1,3.4c0.3,0.3,0.5,0.5,0.7,0.6c0.2,0.6,0.6,0.9,1.1,1l13.2,16.3c0,0.2,0.1,0.4,0.1,0.5v25.2v26.4v26.4v26.4
		V500v10.9h-47.8v0c-1.1-0.1-1.7,0.2-2,0.6c-0.5,0.5-0.5,1.1-0.6,1.7c-4.5,31-5.5,81.2-2.1,110.3c1.4,12.2,3.7,24.3,6.7,36h0
		c0.1,0.6,0.3,1.2,0.4,1.7c-0.1-0.6-0.3-1.2-0.4-1.7h-22.2v-9.8v-22v-22v-22v-22v-22v-22v-22v-22v-21.4l8.7-10.7
		c0.7-0.1,1.3-0.4,1.5-1.5c1.5-1.6,0.7-2.5-0.1-3.3l-66.9-64h0v-5.5c6.6-1.1,11.7-7,11.7-13.9c0-7.8-6.4-14.1-14.1-14.1
		c-7.8,0-14.1,6.3-14.1,14.1c0,6.9,5.1,12.7,11.7,13.9v5.2l-67.1,64.3c-0.9,0.8-1.8,1.6-0.1,3.4c0.1,0.1,0.2,0.2,0.3,0.3
		c0.2,0.6,0.6,0.9,1.1,1l9,11v21.1v22v22v22v22v22v22v22v22V671C253.1,683.1,330.2,827.7,517.3,827.7z M648.5,510.1L648.5,510.1
		L648.5,510.1z"/>
	<g class="st5">
		<circle class="st6" cx="518.4" cy="523" r="442.8"/>
		<circle class="st6" cx="518.4" cy="523" r="363.6"/>
		<path class="st7" d="M209.7,241.8c-2.2,2.5-4,4.9-5.3,7.3c-1.3,2.4-2.1,4.6-2.3,6.6c-1.9-4.1-3.2-6.5-3.9-7.1
			c-0.3-0.2-0.8-0.4-1.5-0.4l27.2-30.3l6.9,40.9l7.5-8.4c1.4-1.5,2.5-2.9,3.6-4.3c1-1.4,1.9-2.7,2.6-4.1c0.7-1.4,1.2-2.8,1.6-4.3
			c0.9,1.6,1.7,2.9,2.4,3.9c0.7,1.1,1.3,1.7,1.6,2c0.2,0.1,0.6,0.2,1.4,0.4l-25.6,28.5l-7-40.8L209.7,241.8z"/>
		<path class="st7" d="M146.5,319l9-12.2c-0.2,0.8,0.2,1.6,1.3,2.2c0.7,0.5,1.9,0.6,3.6,0.5l18.8-1.1l-5.7-17
			c-0.5-1.4-1.1-2.3-1.9-2.8c-0.8-0.5-1.7-0.6-2.6-0.2l8.3-11.2c0.2,2.3,0.9,5.3,2.2,9.2l7.1,22.4l4.6,2.9c1.5,1,2.9,1.5,4.1,1.7
			c1.2,0.2,2.4,0,3.7-0.6l-8.4,11.5c0.1-1.3-0.1-2.5-0.8-3.4c-0.6-0.9-1.7-1.9-3.3-2.8l-4.4-2.8l-26.1,1.6c-2.2,0.2-4.1,0.4-5.6,0.7
			C148.6,318.1,147.4,318.5,146.5,319"/>
		<path class="st8" d="M158.1,360.2c-2-1.7-4.5-3.1-7.4-4c-3-1-5.9-1.4-8.7-1.3c-2.8,0.1-5.5,0.8-7.9,2c-2.5,1.2-4.6,3-6.6,5.2
			c-1.9,2.2-3.6,4.9-4.9,8.1c-1.9,4.4-2.6,8.5-2.3,12.2c0.3,3.8,1.6,7,3.9,9.7c2.3,2.7,5.4,4.7,9.4,6c2.9,1,5.8,1.4,8.6,1.2
			c2.8-0.2,5.4-0.8,7.9-2.1c2.4-1.2,4.7-2.9,6.6-5.2c2-2.2,3.6-4.9,4.9-8c1.4-3.3,2.1-6.4,2.3-9.4c0.2-3-0.2-5.7-1.2-8.1
			C161.6,364,160.1,361.9,158.1,360.2 M157.1,374.3c0.2,2.5-0.2,5.1-1.4,7.9c-0.9,2-1.9,3.7-3.2,5c-1.3,1.4-2.7,2.4-4.4,3.2
			c-1.7,0.7-3.4,1.1-5.4,1.1s-4-0.3-6.1-1c-3-1-5.4-2.4-7.1-4.2c-1.7-1.8-2.7-3.9-2.9-6.4c-0.3-2.4,0.2-5.1,1.4-8
			c0.8-2,1.9-3.7,3.2-5.1c1.3-1.4,2.7-2.4,4.4-3.1c1.6-0.7,3.4-1,5.4-1c2,0,4.1,0.4,6.2,1.1c2.9,1,5.2,2.3,6.9,4.1
			C155.9,369.7,156.9,371.8,157.1,374.3"/>
		<path class="st7" d="M115.6,435.5c-1.6-0.7-2.9-1.1-3.9-1.2c-1.9-0.2-3.4,0.1-4.4,1.1l2.1-11.5c2.1,1.8,5.1,3.5,8.9,5.2l25.6,10.7
			c0.9,0.3,1.4,0.5,1.7,0.6c0.3,0,0.9-0.1,1.7-0.4l-2.3,12.4c-0.5-0.4-1-0.6-1.3-0.7c-0.3,0-0.8,0-1.4,0l-31.5,3.8l28.4,11.5
			c0.7,0.3,1.2,0.5,1.3,0.5c0.4,0.1,0.9-0.1,1.7-0.4l-2.3,12.5c-0.6-0.6-1-0.9-1.3-0.9c-0.1,0-0.6,0-1.6,0.1l-28.2,4
			c-4.5,0.6-8.2,1.7-11.1,3.3l2.2-12c0.8,1.1,1.8,1.8,3.2,2c1.2,0.1,2.6,0.1,4.2-0.1l28-3.7L105.4,460c-0.3-0.1-0.6-0.2-1-0.3
			c-0.4,0-0.9,0-1.6,0.3l2.1-11.3c0.4,0.5,0.8,0.7,1.3,0.7c0.2,0,0.6,0,1.1,0l33.6-4L115.6,435.5z"/>
		<path class="st7" d="M96.2,531.1c0.6,1.1,1.4,1.8,2.6,2.3c1.2,0.5,2.7,0.7,4.7,0.7l26.1-0.1c1.9,0,3.4-0.2,4.6-0.7
			c1.2-0.5,2.1-1.2,2.8-2.4l-0.4,13.6c-0.7-1.1-1.6-1.9-2.7-2.3c-1.1-0.4-2.6-0.7-4.6-0.7l-26.1,0.1c-1.9,0-3.5,0.2-4.7,0.7
			c-1.2,0.5-2.1,1.2-2.7,2.3L96.2,531.1z"/>
		<path class="st8" d="M138.6,593.9c-1.5-2.6-3.4-4.7-5.5-6.2c-2.2-1.5-4.6-2.5-7.4-2.9c-2.7-0.4-5.7-0.3-8.9,0.5
			c-3.2,0.7-6.1,2-8.5,3.9c-2.4,1.8-4.3,4-5.5,6.6c-1.1,2.1-1.6,4.5-1.6,7.2c0,2.7,0.3,5.8,1.1,9.4l4.2,19.4
			c0.4-1.2,1.1-2.2,2.2-2.9c1-0.7,2.5-1.3,4.4-1.7l25.5-5.8c1.9-0.4,3.4-0.5,4.6-0.4c1.2,0.2,2.3,0.7,3.2,1.7L142,603
			C141.3,599.6,140.1,596.5,138.6,593.9 M138.4,613.8l-28.4,6.4l-1.6-7.4c-0.8-3.9-1.1-7.1-0.7-9.8c0.3-2.6,1.4-4.8,3.2-6.4
			c1.8-1.7,4.4-2.9,7.9-3.7c5.1-1.2,9.1-0.7,11.9,1.3c2.8,2.1,4.8,5.9,6,11.5L138.4,613.8z"/>
		<path class="st7" d="M141.9,713.5l-6.6-11.8c1.1,0.7,2.3,0.9,3.6,0.8c1.3-0.1,2.7-0.6,4.4-1.5l15.3-7.8c3.3-1.7,5.3-3.8,6-6.2
			c0.7-2.4,0.1-5.2-1.7-8.6c-0.9-1.6-1.9-3-3-4c-1.1-1-2.2-1.7-3.5-2.1c-1.2-0.4-2.6-0.5-4-0.2c-1.4,0.3-3,0.8-4.7,1.7l-15.2,7.8
			c-1.8,0.9-3.1,1.8-3.9,2.6c-0.8,0.8-1.2,1.9-1.2,3.3l-6.6-11.7c2,1.2,4.7,1,8-0.7l15.5-8c5.2-2.7,9.7-3.3,13.6-2
			c3.9,1.4,7.4,4.9,10.6,10.6c3.1,5.5,4.1,10.1,3.1,14c-1,3.9-4.1,7.1-9.1,9.8l-15.5,8C143.6,709.2,142,711.2,141.9,713.5"/>
		<path class="st8" d="M205,743c-4-5.3-7.8-8.7-11.3-10.1c-3.5-1.5-7.1-1.1-10.7,1.3c-2.2,1.5-3.5,3.4-3.9,5.6
			c-0.3,2.2,0.3,4.8,2,7.5c-1.2-1-2.5-1.6-3.8-2c-1.3-0.4-2.6-0.4-3.9-0.2c-1.3,0.2-2.6,0.7-3.7,1.5c-2.1,1.4-3.3,3-3.7,4.8
			c-0.4,1.8-0.1,4,1,6.5c1.1,2.4,2.9,5.3,5.3,8.6l13.1,17.3c-0.1-1.2,0.1-2.3,0.8-3.3c0.7-1,1.8-2,3.4-3.1l21.5-14.2
			c1.6-1,2.9-1.7,4.2-2c1.2-0.3,2.4-0.1,3.7,0.4L205,743z M183.7,772.2l-7.3-9.6c-1.9-2.5-2.9-4.5-3.1-6.1c-0.2-1.6,0.6-3,2.4-4.1
			c1.1-0.7,2.2-1,3.3-0.9c1.1,0.1,2.3,0.6,3.5,1.5c1.2,1,2.4,2.2,3.6,3.8l7,9.2L183.7,772.2z M197.7,762.9l-8.5-11.2
			c-2-2.7-3.2-4.9-3.4-6.7c-0.2-1.8,0.6-3.3,2.4-4.5c3.5-2.3,7.3-0.6,11.5,4.9l8.1,10.8L197.7,762.9z"/>
		<path class="st7" d="M313.2,849.5c-0.9-0.1-1.7,0-2.5,0.2s-1.5,0.6-2.2,1.2c-0.7,0.6-1.5,1.3-2.2,2.3l-16,19.8
			c-2.2,2.7-2.8,5.1-1.8,7.2l-33.4-22.7c1-0.7,1.6-1.2,1.8-1.4c0.2-0.2,0.5-1,1-2.4c0.5-1.3,0.9-2.5,1.4-3.6c0.8,1.8,2,3.5,3.7,5.2
			c1.7,1.6,3.9,3.4,6.5,5.2l13.6,9.2l6.6-8.2l-15.3-10.4c-1.6-1-3.2-1.8-5-2.2l5.1-2c1.5-0.6,3-0.3,4.5,0.7l14.2,9.6l7.5-9.3
			l-14-9.5c-1.4-1-2.9-1.8-4.2-2.6c-1.4-0.7-2.7-1.3-4.1-1.8c-1.4-0.5-2.6-0.8-3.7-1.1c-1.1-0.2-2.2-0.3-3.2-0.3
			c1-0.7,2.1-1.2,3.1-1.8c1.1-0.5,1.9-1,2.4-1.3c0.6-0.3,0.9-0.7,1.2-0.9c0.4-0.5,0.8-1.2,1.2-2L313.2,849.5z"/>
		<path class="st8" d="M358.2,872.5c-3.5-1.5-6.8-2.4-10.1-2.7c-3.2-0.4-6.2-0.2-8.9,0.5c-2.7,0.7-5.1,2-7.2,3.8
			c-2.1,1.8-3.8,4-5.2,6.8c-1.4,2.8-2.1,5.6-2,8.5c0,2.8,0.8,5.5,2.2,7.8c1.2,2,2.9,3.8,5.2,5.3c2.3,1.6,5.2,3.1,8.8,4.6l19.4,8.1
			c-0.8-1-1.2-2-1.1-3.2c0.1-1.2,0.5-2.6,1.3-4.2l11.1-22.1c0.8-1.6,1.7-2.8,2.6-3.6c0.9-0.8,2.1-1.2,3.5-1.4L358.2,872.5z
			 M352.8,905.9l-7.4-3.1c-3.9-1.6-6.9-3.3-8.9-5.1c-2-1.8-3.3-3.8-3.6-6c-0.3-2.3,0.3-4.9,1.8-8c2.2-4.4,5.1-7.1,8.7-8
			c3.6-0.9,8.1-0.1,13.7,2.2l8.1,3.3L352.8,905.9z"/>
		<path class="st7" d="M500.1,941.1l4.6-25.6c0.3-1.7,0.3-3.2,0-4.3c-0.3-1.1-1-2.1-2-2.9l13.5,2.1c-1.3,0.5-2.3,1.2-2.9,2.1
			c-0.7,1-1.2,2.3-1.5,4.1l-4.2,23.8c-0.3,1.8-0.3,3.2,0,4.4c0.3,1.1,1,2.1,2,2.8l-16.6-2.6c0.4-0.4,0.6-0.8,0.6-1.1
			c0-0.3,0-0.8-0.2-1.4l-7.3-29.8l-17.5,25.9c-0.3,0.5-0.5,0.9-0.5,1.2c0,0.2,0,0.7,0.2,1.4l-16.9-2.7c1.2-0.4,2.2-1,2.9-2
			c0.7-1,1.2-2.4,1.5-4.2l4.3-23.8c0.3-1.6,0.3-2.9,0.1-4c-0.2-1-0.8-2.1-1.8-3.2l13.5,2.2c-1.3,0.7-2.3,1.4-2.8,2.4
			c-0.6,0.9-1,2.2-1.3,3.8l-4.5,25l19.1-27c0.4-0.7,0.6-1.1,0.6-1.2c0-0.3,0-0.7-0.2-1.2l9.4,1.5c-0.4,0.5-0.5,0.8-0.6,1
			c0,0.2,0,0.7,0.2,1.5L500.1,941.1z"/>
		<path class="st7" d="M590.9,938.3l-14.5,1.6c1.1-0.7,1.8-1.6,2.1-2.8c0.3-1.2,0.4-2.6,0.1-4.3l-2.2-15.8c-0.5-3.4-1.8-5.9-4-7.3
			c-2.2-1.4-5.3-1.9-9.4-1.5c-2,0.2-3.7,0.6-5.2,1.2c-1.4,0.6-2.6,1.3-3.4,2.3c-0.9,0.9-1.5,2.1-1.7,3.4c-0.3,1.3-0.3,2.8,0,4.6
			l2.2,15.8c0.2,1.8,0.7,3.2,1.2,4.2c0.5,1,1.5,1.7,2.9,2.2l-14.4,1.6c2-1.3,2.8-3.7,2.3-7.1l-2.3-16c-0.8-5.3,0.3-9.5,3.2-12.3
			c2.9-2.9,7.8-4.7,14.7-5.5c6.7-0.8,11.8,0,15.4,2.2c3.6,2.2,5.7,5.9,6.5,11.2l2.3,16C587.2,935.4,588.6,937.5,590.9,938.3"/>
		<path class="st7" d="M629.7,927.4c1-0.8,1.6-1.7,1.8-2.9c0.2-1.2,0.1-2.6-0.4-4.4l-6.1-23.8c-0.4-1.7-1-3.1-1.7-4
			c-0.8-1-1.8-1.6-3.1-2l14.2-2.7c-1,0.9-1.6,1.9-1.8,3c-0.2,1.1-0.1,2.6,0.4,4.3l6.1,23.8c0.5,1.8,1.1,3.2,1.8,4.1
			c0.8,1,1.8,1.6,3,2L629.7,927.4z"/>
		<path class="st7" d="M718.6,891.2c0.8-0.9,0.9-2,0.3-3.1c-0.5-0.9-1.1-1.6-1.8-2.2l-25-17.8l1,27.8c0.1,1.3,0.3,2.4,0.7,3.1
			c0.8,1.5,1.9,2.2,3.2,2.1l-12.4,5.8c0.6-1.9,1-4.4,1-7.7l-0.2-32.4c0-0.6-0.1-1.1-0.3-1.5c-0.1-0.2-0.5-0.5-1.1-1l10-4.7
			c0,0.5,0,0.9,0.2,1.2c0.2,0.3,0.6,0.7,1.4,1.2l28.1,19.2c1.2,0.9,2.4,1.7,3.6,2.3c1.1,0.6,2.4,1.2,3.8,1.6L718.6,891.2z"/>
		<path class="st7" d="M763.6,863c0.5-1.1,0.7-2.2,0.4-3.3c-0.3-1.1-1-2.5-2.2-4l-15.7-19.8c-1.1-1.4-2.3-2.5-3.3-3.1
			s-2.3-0.9-3.7-0.7l11.7-7.8c-0.5,1.1-0.6,2.3-0.3,3.4c0.3,1.1,1,2.4,2.2,3.9l15.7,19.8c1.2,1.5,2.3,2.5,3.4,3.2
			c1.1,0.6,2.3,0.8,3.6,0.7L763.6,863z"/>
		<path class="st7" d="M787.6,792.2c0.7-0.2,1.4-0.7,2.1-1.3c0.6-0.5,1.5-1.6,2.7-3.2c1.2-1.6,2.2-2.8,3-3.8c0.8-0.9,1.8-2,3.1-3.2
			c2.5-2.3,5.1-4,7.8-5.2c2.7-1.2,5.4-1.8,8.2-1.9c2.7-0.1,5.4,0.4,8,1.4c2.6,1,5,2.6,7.2,4.7c2.4,2.2,4.2,4.7,5.3,7.2
			c1.2,2.6,1.7,5.2,1.6,7.9c-0.1,2.7-0.9,5.4-2.4,8.1s-3.5,5.3-6.2,7.8c-1.3,1.2-2.5,2.2-3.5,2.9c-1.1,0.7-2.4,1.6-4.1,2.7
			c-1.6,1-2.8,1.9-3.3,2.4c-0.5,0.5-0.9,1-1.2,1.5l-3.9-7.6c4.5-1,8.5-3,11.9-6.2c2.3-2.1,3.8-4.3,4.6-6.8c0.8-2.4,0.8-4.8,0-7.2
			c-0.8-2.4-2.2-4.7-4.4-6.7c-1.6-1.5-3.3-2.7-5.1-3.5c-1.8-0.8-3.6-1.2-5.5-1.3c-1.8-0.1-3.7,0.3-5.5,1c-1.8,0.7-3.5,1.8-5.1,3.3
			c-1.8,1.6-3.3,3.5-4.8,5.7c-1.4,2.2-2.7,4.7-3.8,7.5L787.6,792.2z"/>
		<path class="st7" d="M906.7,675.3l-26.3-9.7c-1.8-0.7-3.3-1-4.5-1c-1.2,0-2.4,0.4-3.4,1.2l4.8-11.7c0.2,1.3,0.8,2.3,1.7,3.1
			c0.9,0.8,2.2,1.5,4,2.2l24.5,9c1.8,0.7,3.4,1,4.7,1c1.2,0,2.4-0.4,3.4-1.2l-5.9,14.4c-0.4-0.4-0.7-0.7-1.1-0.8
			c-0.3-0.1-0.8-0.2-1.5-0.2l-33,0.1l24.2,21.5c0.5,0.4,0.9,0.6,1.1,0.7c0.3,0.1,0.8,0.1,1.5,0.1l-6,14.7c-0.2-1.2-0.7-2.2-1.6-3
			c-0.9-0.8-2.3-1.6-4.1-2.3l-24.4-9c-1.7-0.6-3.1-0.9-4.2-1c-1.2,0-2.4,0.3-3.7,1l4.8-11.8c0.5,1.3,1.1,2.4,2,3.1
			c0.9,0.7,2.2,1.4,3.8,2l25.7,9.5L867.7,684c-0.6-0.5-1-0.8-1.2-0.8c-0.3-0.1-0.7-0.1-1.3-0.1l3.3-8.2c0.4,0.4,0.8,0.6,0.9,0.7
			c0.2,0.1,0.7,0.1,1.7,0.1L906.7,675.3z"/>
		<path class="st7" d="M934.2,594.3l-2.6,13.2c-0.4-1.2-1.2-2.2-2.2-2.8c-1.1-0.7-2.5-1.2-4.4-1.6l-16.9-3.5c-3.7-0.8-6.6-0.4-8.7,1
			c-2.1,1.4-3.5,4-4.2,7.7c-0.3,1.8-0.5,3.5-0.3,5c0.2,1.5,0.6,2.7,1.3,3.8c0.7,1.1,1.7,2,3,2.7c1.3,0.7,2.8,1.2,4.7,1.6l16.8,3.5
			c2,0.4,3.5,0.5,4.7,0.4c1.2-0.2,2.2-0.7,3.1-1.8l-2.5,13.1c-0.8-2.2-3-3.7-6.6-4.5l-17.1-3.5c-5.7-1.2-9.6-3.5-11.7-7
			c-2.1-3.5-2.6-8.4-1.3-14.8c1.2-6.1,3.4-10.4,6.7-12.8c3.3-2.3,7.8-3,13.4-1.8l17.2,3.5C930.1,596.5,932.7,596,934.2,594.3"/>
		<path class="st7" d="M934.2,517.3c3.6,0.3,6-0.5,7.3-2.4l-0.7,13.6c-0.5-1.1-1.4-2-2.5-2.5c-1.1-0.6-2.6-1-4.5-1.2l-27.7-2.5
			l-0.6,11.7c-0.3,6.5,0.8,11.6,3.2,15.2c-0.8-0.3-2.1-1-3.8-1.8c-1.7-0.8-2.9-1.3-3.4-1.3c-0.7-0.1-1.5,0-2.4,0.1l1.8-34.9
			c0.4,0.8,0.9,1.4,1.5,1.9c0.6,0.5,1.3,0.9,2.2,1.2c0.9,0.3,2,0.5,3.2,0.6L934.2,517.3z"/>
		<path class="st7" d="M927.3,443.8c3.6-0.3,5.7-1.5,6.6-3.6l2.1,13.6c-0.8-1-1.8-1.7-3-2.1c-1.2-0.4-2.8-0.5-4.6-0.3l-27.4,2.4
			l1.8,11.7c1,6.5,3.1,11.4,6.3,14.5c-0.9-0.2-2.2-0.6-4.1-1.1s-3-0.8-3.6-0.7c-0.7,0-1.5,0.2-2.3,0.5l-5.4-35
			c0.5,0.7,1.2,1.2,1.8,1.6c0.7,0.4,1.5,0.6,2.4,0.8c0.9,0.1,2,0.1,3.3,0L927.3,443.8z"/>
		<path class="st7" d="M923.2,393.7c-1-0.8-2.1-1.3-3.4-1.4c-1.3-0.1-2.8,0.2-4.6,0.8l-24.1,8.2c-1.8,0.6-3.1,1.3-4,2.1
			c-0.9,0.8-1.4,1.8-1.6,3.1l-5.5-12.8c1.1,0.8,2.2,1.2,3.5,1.3c1.2,0.1,2.7-0.2,4.5-0.8l24-8.2c1.8-0.6,3.2-1.3,4-2.1
			c0.9-0.8,1.4-1.8,1.5-3L923.2,393.7z"/>
		<path class="st7" d="M871.8,365c-0.2-1-0.5-1.8-0.8-2.2c-0.4-0.7-1.5-1.8-3.3-3.4c-1.7-1.6-3.3-3.2-4.8-4.7
			c-1.4-1.5-2.9-3.4-4.3-5.6c-2-3.1-3.3-6.1-4.1-9c-0.7-2.9-0.9-5.6-0.4-8c0.5-2.5,1.5-4.7,3.1-6.8c1.6-2,3.8-3.7,6.4-5.1
			c3.8-2,7.6-2.9,11.5-2.7c3.8,0.1,7.5,1.4,11.1,3.7c3.5,2.3,6.7,5.7,9.5,10.1c1.5,2.3,2.8,4.9,4.1,7.7c1.3,2.9,2.1,4.5,2.4,5.1
			c0.5,0.7,1.1,1.5,1.8,2.2l-8.6,1.8c-0.1-1.6-0.4-3.2-0.8-4.9c-0.4-1.7-1-3.3-1.6-4.9c-0.7-1.6-1.4-3.1-2.3-4.5
			c-1.4-2.2-2.9-4-4.6-5.4c-1.7-1.4-3.5-2.4-5.5-2.9c-2-0.6-4-0.7-6.1-0.4c-2.1,0.3-4.2,1-6.3,2.1c-2.6,1.4-4.6,3.1-5.8,5
			c-1.3,2-1.8,4.1-1.6,6.6c0.2,2.4,1.2,5,2.9,7.6c1.5,2.5,3.1,4.4,4.6,5.7c1.5,1.3,3,2.1,4.6,2.3c1.5,0.2,3-0.1,4.6-0.9l4.5-2.4
			l-5.5-8.7c-1-1.7-2.3-2.8-3.9-3.6l4.5-0.9c0.8-0.2,1.4-0.2,2,0c0.5,0.1,1,0.4,1.4,0.8c0.4,0.4,0.9,1,1.4,1.8l9.8,15.4
			c-1.1-0.2-2.3,0-3.5,0.6L871.8,365z"/>
		<path class="st7" d="M861.5,280.2c-1.2-0.5-2.4-0.6-3.6-0.2c-1.2,0.3-2.5,1.1-4,2.2l-19.3,15.3c-1.4,1.1-2.4,2.2-2.9,3.2
			c-0.5,1-0.7,2.2-0.3,3.4l-9.7-10.6c1.3,0.5,2.5,0.5,3.7,0.2c1.2-0.3,2.5-1,3.9-2.1l19.3-15.3c1.4-1.1,2.4-2.2,3-3.3
			c0.5-1,0.6-2.1,0.3-3.4L861.5,280.2z"/>
		<path class="st7" d="M782.7,232.8c2.5,6.2,6,11.6,10.4,16c1.6,1.6,3.2,2.8,4.7,3.6c1.5,0.8,2.9,1.2,4.1,1.2c1.2,0,2.2-0.4,3-1.1
			c1.4-1.3,1.7-2.9,1-4.9c-0.7-2-2.4-4.7-5-8.1c-2.2-2.8-3.7-5.4-4.8-7.8c-1-2.4-1.4-4.5-1.2-6.3c0.2-1.8,1-3.4,2.5-4.7
			c1.5-1.3,3.3-2.1,5.5-2.2c2.2-0.1,4.7,0.4,7.5,1.7c2.7,1.3,5.5,3.3,8.3,6.2c1.1,1.1,2.1,2.2,3,3.2c0.9,1.1,1.8,2.1,2.6,3.1
			c0.8,1,1.6,1.9,2.3,2.8c0.7,0.9,1.4,1.6,2,2.2c0.2,0.3,0.7,0.6,1.4,0.9l-7.5,3.9c-1.6-4.5-4.5-8.8-8.6-12.9
			c-2.1-2.1-4.1-3.5-5.9-4.1c-1.8-0.6-3.1-0.4-4.2,0.5c-0.8,0.8-1.1,1.9-0.8,3.5c0.3,1.6,1.2,3.4,2.7,5.4c0.9,1.2,1.8,2.3,2.6,3.4
			c0.8,1.1,1.5,2,2.1,2.8c0.6,0.8,1.2,1.7,1.8,2.8c0.6,1.1,1,2,1.3,2.9c1.7,4.6,1.1,8.3-2,11.1c-2.7,2.5-6.2,3.3-10.3,2.4
			c-4.1-1-8.4-3.7-12.9-8.1c-1.6-1.6-3.3-3.6-5.2-5.9c-1.9-2.3-3.2-3.9-3.9-4.6c-0.4-0.4-1-0.7-1.8-1L782.7,232.8z"/>
		<circle class="st7" cx="274.6" cy="203.4" r="5.2"/>
		<circle class="st7" cx="232.9" cy="808.2" r="5.2"/>
		<circle class="st7" cx="415.1" cy="913.2" r="5.2"/>
		<circle class="st7" cx="855.4" cy="745.8" r="5.2"/>
		<circle class="st7" cx="764.1" cy="202.9" r="5.2"/>
	</g>
	<g>
		<g>
			<g>
				<path class="st9" d="M298.2,175.7c0.7,0.1,1.5,0.4,2.1,0.8c0.7,0.4,1.2,1,1.7,1.6l0.1,0.1c0.2,0.3,0.4,0.6,0.5,1
					c0.1,0.3,0.2,0.7,0.3,1.1c0,0.3,0,0.6,0.1,0.8c0,0.3,0,0.6-0.1,0.9c0.3,0.1,0.5,0.2,0.8,0.3c0.2,0.1,0.5,0.3,0.7,0.4
					c0.6,0.4,1.1,0.9,1.5,1.5l0.1,0.1c0.2,0.4,0.4,0.7,0.5,1.1c0.1,0.4,0.2,0.7,0.3,1.1c0.1,0.8,0,1.6-0.1,2.3
					c-0.2,0.8-0.5,1.4-1,2.1c-0.1,0.1-0.2,0.3-0.4,0.4c-0.2,0.2-0.3,0.3-0.5,0.5c-0.2,0.1-0.3,0.3-0.5,0.4c-0.2,0.1-0.3,0.2-0.5,0.3
					l-4.1,2.6c-0.2,0.1-0.4,0.2-0.6,0.1c-0.2,0-0.4-0.1-0.5-0.4l-9.2-14.2c-0.1-0.2-0.2-0.4-0.1-0.7c0-0.2,0.2-0.4,0.4-0.6l4.1-2.7
					c0.4-0.2,0.7-0.4,1.1-0.6c0.4-0.2,0.8-0.3,1.1-0.4C296.7,175.6,297.5,175.6,298.2,175.7z M298,182.6c0.3-0.2,0.5-0.5,0.5-0.9
					c0.1-0.4,0-0.7-0.2-1.1c-0.2-0.3-0.5-0.5-0.9-0.6c-0.3-0.1-0.7-0.1-1.1,0.1l-1.4,0.9l1.6,2.5l1.3-0.8L298,182.6z M300.5,189.6
					l1.5-0.9c0.3-0.2,0.5-0.5,0.5-0.9c0.1-0.4,0-0.7-0.2-1.1c-0.2-0.3-0.5-0.5-0.8-0.6c-0.4-0.1-0.8-0.1-1.1,0.1l-1.4,0.9
					L300.5,189.6z"/>
				<path class="st9" d="M327.4,157.3c0.2,0.1,0.4,0.2,0.5,0.4l5.9,10.9c0.4,0.7,0.6,1.5,0.7,2.4c0.1,0.8,0,1.6-0.3,2.4
					c-0.2,0.8-0.6,1.4-1.1,2.1c-0.5,0.6-1.1,1-1.7,1.4l-0.2,0.1c-0.7,0.4-1.5,0.6-2.3,0.6c-0.8,0.1-1.5-0.1-2.2-0.3s-1.4-0.6-2-1.1
					c-0.6-0.5-1.1-1.1-1.5-1.8l-5.8-10.7c-0.1-0.2-0.1-0.4-0.1-0.7c0.1-0.2,0.2-0.4,0.4-0.5l2.4-1.3c0.2-0.1,0.4-0.1,0.6-0.1
					c0.2,0.1,0.4,0.2,0.5,0.4l5.9,10.9c0.1,0.2,0.2,0.3,0.4,0.5c0.2,0.1,0.4,0.2,0.6,0.3c0.2,0,0.4,0.1,0.6,0c0.2,0,0.4-0.1,0.6-0.2
					c0.3-0.2,0.5-0.6,0.6-0.9c0.1-0.4,0-0.8-0.2-1.2l-5.8-10.8c-0.1-0.2-0.1-0.4-0.1-0.7c0.1-0.2,0.2-0.4,0.4-0.5l2.4-1.3
					C326.9,157.3,327.1,157.3,327.4,157.3z"/>
				<path class="st9" d="M355.7,145.4c0.8,0.3,1.4,0.7,2,1.2c0.6,0.5,1.1,1.2,1.4,2l2.7,6.1c0.3,0.8,0.5,1.6,0.5,2.4
					c0,0.8-0.1,1.6-0.5,2.3c-0.3,0.7-0.7,1.4-1.3,2c-0.3,0.3-0.6,0.5-1,0.8s-0.8,0.4-1.2,0.6l-3.8,1.7c-0.2,0.1-0.5,0.1-0.7,0
					c-0.2-0.1-0.4-0.2-0.5-0.4l-6.9-15.5c-0.1-0.2-0.1-0.4,0-0.7s0.2-0.4,0.5-0.5l3.9-1.7c0.4-0.2,0.8-0.3,1.2-0.4s0.8-0.2,1.2-0.2
					C354.2,145,355,145.2,355.7,145.4z M355.1,150.5c-0.2-0.4-0.5-0.6-0.8-0.8c-0.4-0.1-0.7-0.2-1.1-0.1l-1.1,0.5l4,8.9l1.1-0.5
					c0.3-0.2,0.5-0.4,0.7-0.8c0.1-0.4,0.1-0.8-0.1-1.2L355.1,150.5z"/>
				<path class="st9" d="M390.5,130.7c0.2,0.1,0.4,0.3,0.4,0.5l4.1,16.6c0.1,0.2,0.1,0.4,0,0.6c-0.1,0.2-0.3,0.4-0.5,0.4l-2.5,0.9
					c-0.2,0.1-0.3,0.1-0.5,0c-0.1,0-0.2-0.1-0.3-0.1l-0.2-0.2l-3.7-4.3l-0.2,5.6c0,0.3-0.1,0.4-0.1,0.4c0,0.1-0.1,0.1-0.1,0.2
					c-0.1,0.1-0.2,0.2-0.4,0.2l-2.5,0.9c-0.2,0.1-0.5,0.1-0.7,0c-0.2-0.1-0.3-0.3-0.4-0.5l-7-15.5c-0.1-0.2-0.1-0.5,0-0.7
					c0.1-0.2,0.3-0.4,0.5-0.4l2.4-0.8c0.2-0.1,0.5-0.1,0.7,0c0.2,0.1,0.4,0.3,0.4,0.5l3.3,7.1l0.1-3.9c0.1-0.4,0.3-0.7,0.6-0.8
					l1.3-0.4c0.4-0.1,0.7,0,1,0.3l2.5,2.9l-1.8-7.8c-0.1-0.2,0-0.4,0-0.6c0.1-0.2,0.3-0.4,0.5-0.5l2.4-0.8
					C390,130.6,390.3,130.6,390.5,130.7z"/>
				<path class="st9" d="M420.3,122.3c0.2,0.1,0.3,0.3,0.4,0.6l0.7,2.7c0.1,0.2,0,0.5-0.1,0.7c-0.1,0.2-0.3,0.3-0.6,0.4l-4.8,1.2
					l0.7,2.6l3.7-0.9c0.2-0.1,0.5,0,0.7,0.1s0.3,0.3,0.4,0.6l0.7,2.7c0.1,0.2,0,0.5-0.1,0.6c-0.1,0.2-0.3,0.3-0.5,0.4l-3.7,0.9
					l0.7,2.6l4.8-1.2c0.2-0.1,0.5,0,0.7,0.1c0.2,0.1,0.3,0.3,0.4,0.5l0.7,2.7c0,0.2,0,0.4-0.1,0.6c-0.1,0.2-0.3,0.3-0.5,0.4
					l-8.2,2.1c-0.2,0.1-0.4,0-0.6-0.1c-0.2-0.1-0.3-0.3-0.4-0.5l-4.2-16.4c-0.1-0.2,0-0.5,0.1-0.7c0.1-0.2,0.3-0.3,0.5-0.4l8.2-2.1
					C419.9,122.1,420.1,122.2,420.3,122.3z"/>
				<path class="st9" d="M444.8,117.1c0.2,0.1,0.3,0.3,0.4,0.6l3.1,16.7c0,0.2,0,0.4-0.2,0.6c-0.1,0.2-0.3,0.3-0.5,0.4l-2.7,0.5
					c-0.2,0-0.4,0-0.6-0.2c-0.2-0.1-0.3-0.3-0.4-0.5l-3.1-16.7c0-0.2,0-0.5,0.1-0.7s0.3-0.3,0.5-0.3l2.8-0.5
					C444.4,116.9,444.6,117,444.8,117.1z"/>
				<path class="st9" d="M475.6,113.6c0.3,0.2,0.6,0.5,0.8,0.8c0.3,0.3,0.5,0.6,0.7,0.9c0.4,0.7,0.7,1.4,0.8,2.2l0,0.3
					c0,0.3,0,0.5-0.1,0.7s-0.3,0.3-0.6,0.3l-2.7,0.3c-0.6,0.1-0.9-0.2-1-0.8l0-0.2c-0.1-0.4-0.3-0.7-0.6-0.8
					c-0.4-0.2-0.7-0.3-1.1-0.3c-0.4,0.1-0.8,0.2-1,0.5c-0.3,0.3-0.4,0.6-0.4,1c0,0.2,0.1,0.4,0.1,0.6c0.1,0.1,0.2,0.3,0.4,0.6
					c0.2,0.2,0.5,0.4,0.9,0.6c0.3,0.1,0.6,0.2,0.9,0.3c0.2,0,0.3,0.1,0.5,0.1c0.2,0,0.3,0.1,0.5,0.1c0.2,0,0.3,0.1,0.5,0.1
					s0.3,0.1,0.5,0.1c0.3,0.1,0.7,0.2,1,0.4c0.4,0.2,0.8,0.4,1.1,0.7c0.3,0.2,0.6,0.6,1,0.9c0.1,0.2,0.2,0.3,0.4,0.5
					c0.1,0.2,0.2,0.4,0.3,0.5c0.2,0.4,0.3,0.8,0.4,1.2c0.1,0.8,0.1,1.6-0.1,2.5c-0.2,0.8-0.5,1.5-1,2.1c-0.5,0.6-1.1,1.1-1.8,1.6
					c-0.7,0.4-1.5,0.7-2.4,0.8l-0.2,0c-0.8,0.1-1.6,0-2.3-0.2c-0.8-0.2-1.4-0.5-2-0.9c-0.6-0.4-1.1-1-1.5-1.6
					c-0.4-0.6-0.7-1.3-0.8-2c0-0.1,0-0.2-0.1-0.3l0-0.3c0-0.2,0-0.5,0.2-0.6c0.1-0.2,0.4-0.3,0.6-0.3l2.7-0.3c0.2,0,0.5,0,0.6,0.2
					c0.2,0.1,0.3,0.3,0.3,0.6l0,0.2c0.1,0.4,0.3,0.7,0.6,0.9c0.4,0.2,0.7,0.3,1.1,0.3s0.8-0.2,1-0.5c0.3-0.3,0.4-0.6,0.4-1.1
					c0-0.4-0.2-0.7-0.5-0.9c-0.4-0.3-0.8-0.5-1.4-0.7c-0.3-0.1-0.6-0.2-1-0.3c-0.3-0.1-0.7-0.2-1.1-0.3c-0.8-0.2-1.5-0.6-2.2-1
					c-0.2-0.1-0.5-0.3-0.7-0.5s-0.4-0.4-0.5-0.6c-0.1-0.2-0.3-0.4-0.4-0.6c-0.1-0.2-0.2-0.4-0.3-0.6c-0.2-0.4-0.3-0.8-0.4-1.3
					c-0.1-0.9-0.1-1.7,0.1-2.5c0.2-0.8,0.6-1.5,1.1-2.1c0.5-0.6,1-1.2,1.8-1.6c0.7-0.4,1.5-0.7,2.3-0.8l0.2,0c0.8-0.1,1.6,0,2.4,0.2
					C474.4,112.8,475,113.1,475.6,113.6z"/>
				<path class="st9" d="M508.1,110.7c0.2,0.2,0.2,0.4,0.3,0.6l0.1,2.7c0,0.2-0.1,0.5-0.2,0.6s-0.4,0.3-0.6,0.3l-4.9,0.2l0.1,2.6
					l3.8-0.1c0.2,0,0.5,0.1,0.6,0.2c0.2,0.2,0.3,0.3,0.3,0.6l0.1,2.8c0,0.2-0.1,0.5-0.2,0.6c-0.1,0.2-0.4,0.2-0.6,0.2l-3.8,0.1
					l0.1,2.7l4.9-0.2c0.2,0,0.5,0.1,0.7,0.2c0.2,0.2,0.3,0.4,0.3,0.6l0.1,2.8c0,0.2-0.1,0.4-0.2,0.6c-0.2,0.2-0.4,0.2-0.6,0.3
					l-8.5,0.3c-0.2,0-0.4-0.1-0.6-0.2c-0.2-0.2-0.2-0.4-0.3-0.6l-0.6-17c0-0.2,0.1-0.5,0.2-0.6c0.2-0.2,0.4-0.3,0.6-0.3l8.5-0.3
					C507.7,110.4,507.9,110.5,508.1,110.7z"/>
				<path class="st9" d="M539.1,112.5c0.5,0.6,1,1.2,1.3,2c0.3,0.8,0.5,1.6,0.4,2.4l0,0.2c0,0.7-0.2,1.4-0.5,2.1
					c-0.2,0.6-0.6,1.2-1.1,1.7c-0.5,0.5-1,0.9-1.6,1.3c-0.4,0.2-0.8,0.4-1.3,0.5l3.7,5.2c0.3,0.4,0.3,0.7,0.1,1.1
					c-0.2,0.4-0.5,0.6-0.9,0.6l-2.9-0.1c-0.4,0-0.7-0.2-1-0.5l-2.5-3.6l-0.1,3.1c0,0.2-0.1,0.4-0.3,0.6c-0.2,0.2-0.4,0.2-0.6,0.2
					l-2.8-0.1c-0.2,0-0.4-0.1-0.6-0.3c-0.2-0.2-0.2-0.4-0.2-0.6l0.7-17c0-0.2,0.1-0.4,0.3-0.6c0.2-0.2,0.4-0.2,0.6-0.2l4.9,0.2
					c0.8,0,1.7,0.1,2.4,0.5C537.9,111.4,538.5,111.9,539.1,112.5z M536.2,116.8c0-0.4-0.1-0.8-0.3-1.2c-0.2-0.3-0.5-0.5-1-0.5
					l-1.7-0.1l-0.1,3.3l1.7,0.1c0.4,0,0.7-0.2,1-0.5C536.1,117.6,536.2,117.2,536.2,116.8z"/>
				<path class="st9" d="M594.5,118.9c0.5,0.6,0.8,1.3,1,2c0.2,0.8,0.2,1.6,0.1,2.3l0,0.2c-0.1,0.4-0.2,0.7-0.3,1.1s-0.3,0.7-0.5,1
					c-0.2,0.2-0.3,0.4-0.5,0.7s-0.4,0.4-0.6,0.6c0.2,0.2,0.3,0.5,0.4,0.8c0.1,0.3,0.2,0.5,0.3,0.8c0.2,0.8,0.2,1.5,0,2.1l0,0.1
					c-0.1,0.4-0.2,0.8-0.3,1.1c-0.2,0.4-0.3,0.7-0.6,1c-0.5,0.6-1,1.2-1.7,1.6c-0.7,0.4-1.4,0.7-2.2,0.8c-0.2,0-0.4,0-0.6,0.1
					c-0.2,0-0.5,0-0.7,0s-0.4,0-0.7-0.1c-0.2,0-0.4,0-0.5-0.1l-4.8-0.8c-0.2,0-0.4-0.1-0.5-0.3c-0.2-0.2-0.2-0.4-0.2-0.6l3-16.7
					c0-0.2,0.2-0.4,0.4-0.6c0.2-0.1,0.4-0.2,0.6-0.2l4.8,0.8c0.4,0.1,0.8,0.2,1.2,0.3c0.4,0.1,0.8,0.3,1.1,0.5
					C593.4,117.8,594,118.3,594.5,118.9z M586.6,130.6l1.7,0.3c0.4,0.1,0.7-0.1,1-0.3c0.3-0.2,0.5-0.5,0.5-0.9c0.1-0.4,0-0.7-0.2-1
					c-0.2-0.3-0.5-0.6-0.9-0.7l-1.7-0.3L586.6,130.6z M589.6,123.8c0.4,0.1,0.7-0.1,1-0.3c0.3-0.2,0.5-0.5,0.5-0.9
					c0.1-0.4,0-0.7-0.2-1.1c-0.2-0.3-0.5-0.5-0.9-0.7l-1.7-0.3l-0.5,2.9l1.5,0.3L589.6,123.8z"/>
				<path class="st9" d="M628.4,125.3c0.1,0.2,0.2,0.4,0.1,0.7l-3.1,11.9c-0.2,0.8-0.6,1.5-1.1,2.2c-0.5,0.6-1.1,1.1-1.8,1.5
					c-0.7,0.4-1.5,0.6-2.2,0.7c-0.7,0.1-1.5,0-2.2-0.2l-0.3-0.1c-0.8-0.2-1.5-0.6-2-1.1c-0.6-0.5-1.1-1.1-1.4-1.8
					c-0.4-0.7-0.6-1.4-0.7-2.2c-0.1-0.8,0-1.5,0.2-2.4l3.1-11.8c0.1-0.2,0.2-0.4,0.4-0.5c0.2-0.1,0.4-0.2,0.6-0.1l2.7,0.7
					c0.2,0.1,0.4,0.2,0.5,0.4c0.1,0.2,0.1,0.4,0.1,0.7l-3.1,11.9c0,0.2-0.1,0.4,0,0.6c0,0.2,0.1,0.4,0.2,0.6
					c0.1,0.2,0.2,0.3,0.4,0.4c0.2,0.1,0.3,0.2,0.6,0.2c0.4,0.1,0.8,0,1.1-0.3c0.3-0.2,0.6-0.6,0.7-1l3.1-11.9
					c0.1-0.2,0.2-0.4,0.4-0.5c0.2-0.1,0.4-0.2,0.6-0.1l2.7,0.7C628.1,125,628.3,125.1,628.4,125.3z"/>
				<path class="st9" d="M657.3,136c0.4,0.7,0.6,1.5,0.6,2.3c0.1,0.8,0,1.6-0.3,2.4l-2.2,6.3c-0.3,0.8-0.7,1.5-1.2,2.1
					c-0.5,0.6-1.2,1-1.9,1.4c-0.7,0.3-1.5,0.5-2.3,0.5c-0.4,0-0.8,0-1.3-0.1c-0.5-0.1-0.9-0.2-1.3-0.4l-3.9-1.4
					c-0.2-0.1-0.4-0.2-0.5-0.5c-0.1-0.2-0.1-0.4-0.1-0.6l5.6-16c0.1-0.2,0.2-0.4,0.4-0.5c0.2-0.1,0.4-0.1,0.7,0l4,1.4
					c0.4,0.1,0.8,0.3,1.2,0.5c0.4,0.2,0.7,0.4,1,0.7C656.4,134.7,656.9,135.3,657.3,136z M653.4,139.3c0.1-0.4,0.1-0.8-0.1-1.1
					c-0.2-0.4-0.4-0.6-0.7-0.8l-1.1-0.4l-3.2,9.2l1.1,0.4c0.3,0.1,0.7,0.1,1-0.1c0.4-0.2,0.6-0.5,0.7-0.9L653.4,139.3z"/>
				<path class="st9" d="M691,148.4c0.1,0.3,0,0.5-0.2,0.8l-11.2,13.6c-0.3,0.3-0.6,0.4-1,0.2l-2.8-1.2c-0.4-0.2-0.6-0.5-0.5-0.9
					l2.5-17.5c0.1-0.3,0.2-0.5,0.4-0.6l0,0c0.3-0.1,0.5-0.2,0.8-0.1l2.6,1.1c0.4,0.2,0.6,0.5,0.5,1l-1.4,9.6l6.2-7.5
					c0.1-0.2,0.3-0.3,0.4-0.3s0.4,0,0.6,0.1l2.6,1.1C690.8,147.9,691,148.1,691,148.4z"/>
				<path class="st9" d="M713,179c-0.1,0.3-0.2,0.5-0.5,0.6c-0.2,0.1-0.5,0.1-0.7-0.1l-2.5-1.4c-0.4-0.2-0.5-0.5-0.4-1l0.7-2.9
					l-3.2-1.7l-2.1,2.2c-0.3,0.3-0.7,0.4-1,0.2l-2.5-1.4c-0.2-0.1-0.4-0.3-0.5-0.6c0-0.3,0-0.5,0.2-0.8l12.3-12.6
					c0.3-0.3,0.6-0.4,1-0.2l2.7,1.5c0.4,0.2,0.5,0.5,0.4,1L713,179z M711.3,167.2l-2.3,2.4l1.6,0.9L711.3,167.2z"/>
				<path class="st9" d="M746.9,181.3c0.2,0.8,0.2,1.5,0.1,2.4c-0.1,0.8-0.4,1.6-0.9,2.3l-0.1,0.1c-0.4,0.6-0.9,1.1-1.5,1.5
					c-0.5,0.4-1.1,0.7-1.8,0.9c-0.7,0.2-1.3,0.3-2,0.3c-0.4,0-0.9-0.1-1.4-0.2l0.5,6.4c0,0.4-0.1,0.8-0.5,1c-0.3,0.2-0.7,0.2-1.1,0
					l-2.4-1.6c-0.3-0.2-0.5-0.5-0.6-0.9l-0.3-4.4l-1.7,2.6c-0.1,0.2-0.3,0.3-0.5,0.4c-0.2,0.1-0.5,0-0.7-0.1l-2.3-1.5
					c-0.2-0.1-0.3-0.3-0.3-0.6c0-0.2,0-0.5,0.1-0.6l9.3-14.2c0.1-0.2,0.3-0.3,0.6-0.4c0.2-0.1,0.4,0,0.6,0.1l4.1,2.7
					c0.7,0.4,1.3,1,1.8,1.6C746.4,179.8,746.7,180.5,746.9,181.3z M742.2,183.5c0.2-0.4,0.3-0.8,0.3-1.2c0-0.4-0.2-0.7-0.5-0.9
					l-1.4-0.9l-1.8,2.7l1.4,0.9c0.3,0.2,0.7,0.2,1.1,0.1C741.7,184.1,742,183.9,742.2,183.5z"/>
			</g>
		</g>
	</g>
	<g>
		<path class="st10" d="M517.2,718.4c-0.7-0.4-1.5-0.4-2.2,0c-9.3,5.9-73.3,46.3-86.1,54.2c-1.1,0.7-1,2.2,0,2.8l86.8,54.2
			c0.7,0.4,1.6,0.4,2.3,0l86.1-54.2c1-0.7,1-2.2,0-2.8C591.2,764.6,526.6,724.3,517.2,718.4z"/>
		<g>
			<path class="st0" d="M516.1,728.7c13.7,8.6,52.6,32.8,72.8,45.4l-72.1,45.4l-72.7-45.4C457.8,765.5,482.2,750.1,516.1,728.7
				 M516.1,726.5c-0.4,0-0.8,0.1-1.2,0.3c-33.4,21-58.2,36.7-72,45.4c-0.6,0.4-1,1.1-1,1.9s0.4,1.5,1,1.9l72.7,45.4
				c0.4,0.2,0.8,0.3,1.2,0.3s0.8-0.1,1.2-0.3l72.1-45.4c0.7-0.4,1-1.1,1-1.9s-0.4-1.5-1-1.9c-19.1-12-56-34.9-72.8-45.4
				C517,726.6,516.5,726.5,516.1,726.5L516.1,726.5z"/>
		</g>
		<g>
			<path class="st0" d="M544.5,761.2h-1.7c-0.2,0-0.4,0.1-0.5,0.3c0,0-17.4,26.3-17.7,26.8c-0.3,0.5,0.2,0.5,0.2,0.5h1.7
				c0.2,0,0.4-0.1,0.5-0.3c0,0,17.3-26.2,17.6-26.8S544.5,761.2,544.5,761.2z"/>
			<path class="st0" d="M547.6,776c-1-1.2-2.3-1.7-3.9-1.7c-0.1,0-0.2,0.1-0.2,0.2c0,0.1,0,0.2,0.1,0.2c0,0,1,0.3,1.5,1.4
				c0.3,0.8,0.5,2.5,0.5,4.9c0,2.5-0.2,4.1-0.5,4.8c-0.5,1-1.5,1.5-1.5,1.5c-0.1,0-0.1,0.1-0.1,0.2s0.1,0.2,0.2,0.2
				c1.6,0,2.8-0.6,3.9-1.7c1-1.2,1.5-2.8,1.5-4.9C549.1,778.8,548.6,777.1,547.6,776z"/>
			<path class="st0" d="M542.4,774.6c0.1,0,0.1-0.1,0.1-0.2s-0.1-0.1-0.2-0.1c-1.6,0-2.8,0.6-3.9,1.7c-1,1.2-1.5,2.8-1.5,4.9
				s0.5,3.8,1.5,4.9c1,1.2,2.3,1.7,3.8,1.7c0.1,0,0.2-0.1,0.2-0.2c0-0.1,0-0.2-0.1-0.2c0,0-1-0.3-1.5-1.4c-0.3-0.8-0.5-2.5-0.5-4.9
				c0-2.5,0.2-4.1,0.5-4.8C541.4,775,542.4,774.6,542.4,774.6z"/>
			<path class="st0" d="M528.9,773.7c-0.1,0-0.1,0.1-0.1,0.2s0.1,0.1,0.2,0.1c1.6,0,2.9-0.6,3.9-1.7c1-1.2,1.5-2.8,1.5-4.9
				c0-2.1-0.5-3.8-1.5-4.9c-1-1.2-2.3-1.7-3.8-1.7c-0.1,0-0.2,0.1-0.2,0.2c0,0.1,0,0.2,0.1,0.2c0,0,1,0.3,1.5,1.4
				c0.3,0.8,0.5,2.5,0.5,4.9c0,2.5-0.2,4.1-0.5,4.8C529.9,773.3,528.9,773.7,528.9,773.7z"/>
			<path class="st0" d="M527.7,773.9c0-0.1,0-0.2-0.1-0.2c0,0-1-0.3-1.5-1.4c-0.3-0.8-0.5-2.5-0.5-4.9c0-2.5,0.2-4.1,0.5-4.8
				c0.5-1,1.5-1.5,1.5-1.5c0.1,0,0.1-0.1,0.1-0.2s-0.1-0.1-0.2-0.1c-1.6,0-2.8,0.6-3.9,1.7c-1,1.2-1.5,2.8-1.5,4.9s0.5,3.8,1.5,4.9
				c1,1.2,2.3,1.7,3.9,1.7C527.6,774.1,527.7,774,527.7,773.9z"/>
			<path class="st0" d="M489.7,781C489.7,781,489.7,781,489.7,781c4.8-1.7,9.2-4.5,13-8.3c3.9-3.8,5.8-7.7,5.8-11.6
				c0-4.9-3.5-8.5-8.4-8.5c-3.9,0-7.6,1.9-9.2,4.8c0,0.1,0,0.2,0,0.2s0.1,0.1,0.2,0.1c0.5-0.1,1-0.2,1.5-0.2c3.8,0,6,2.2,6,6.1
				c0,1.9-0.7,4.4-2.1,7.5c-1.5,3.3-4.7,6.9-8.3,9.4c-0.1,0-0.1,0.2-0.1,0.2c0,0.1,0.1,0.2,0.2,0.2H489.7z"/>
			<path class="st0" d="M511.5,783v-14c0-0.1-0.1-0.2-0.2-0.2H511c-0.1,0-0.1,0-0.2,0.1c-2,3.3-4.9,6.6-8.7,9.7c0,0-0.1,0.1-0.1,0.2
				v4.2h-13.8c-0.1,0-0.2,0.1-0.2,0.2v0.9c0,0.1,0.1,0.2,0.2,0.2h13.8v6.4c0,1.7-1.3,2.6-3.9,2.6c-0.1,0-0.2,0.1-0.2,0.2v0.3
				c0,0.1,0.1,0.2,0.2,0.2h17.3c0.1,0,0.2-0.1,0.2-0.2v-0.3c0-0.1-0.1-0.2-0.2-0.2c-2.8,0-3.9-1-3.9-3.6v-5.3h6.5
				c0.1,0,0.2-0.1,0.2-0.2v-0.9c0-0.1-0.1-0.2-0.2-0.2L511.5,783L511.5,783z"/>
		</g>
	</g>
	<g>
		<path class="st11" d="M944.4,487.3c-5.7-6.2-17.7-4.4-36.2,4.2c-18.5,8.6-44.6,11.8-39.9-27.1s13.3-46.3,14.5-49
			c1.2-2.7-0.2-5.2-5.7-2c-5.4,3.2-23.9,7.4-31,7.9s-9.1,0.4-11.8,0.2s-4.4-0.6-4.4-0.6s1.2-19.1-7.9-28.1c-9.1-9-21.2-8.1-25,2.8
			c-3.8,11,8,23,14.5,26.6c6.7,3.7,11.9,4.1,11.9,4.1s-2.1,13.3-4.2,23.1s-8.9,29.8-16,40.6s-20.6,26.7-23.3,6.3
			c-2.8-21.5-1.3-28.7-0.6-42.1c0.7-13.4,2.7-22.6,3.6-26.5s0.5-4.7-3.9-4.9c-4.4-0.2-15.8-0.4-20.8,0.2c-5,0.6-6.7,0.5-7.4,1.9
			c-0.7,1.4-0.9,2.5-0.9,2.5s-8.7-4.3-23.4-3.2s-23.8,8.1-31.6,17.1s-4.3,9-11.9,10.2s-11.3-1.7-10.6-9.2s3.6-14.2-2.2-14.2
			s-15.5,0.9-21,1.9c-5.5,1-4.8,3.3-5,7.8c-0.2,4.4-0.1,18,4.2,22.9c4.4,5,10.8,5.4,10.8,5.4s-1.3,13.2-4.8,25.7
			s-6.8,21.5-15.3,22.9c-8.5,1.3-12.6-6.3-12.9-17s0.9-33.2,1.6-43.3c0.7-10.1,1.2-15.5,1.2-17.1s0.4-3.3-2.7-3s-18.5,2.6-26.6,4.1
			c-3.5,0.6-4.8,1.7-4.9,4.9s-1.7,23.3-2,34.2c-0.2,11-0.7,19.9,0,28.7s2.7,17.4,2.7,17.4s-2.7,5.2-10.6,8s-18.1,4.9-19.6-19.8
			c-1.5-24.7-0.6-42.4,0.4-71.8c1-29.4,2.5-42.7,3.2-50.1c0.7-7.4,1.7-8.5-2.3-8.9s-15.5-1.1-28.9,0.6c-3.2,0.4-3.7,2-3.9,5.8
			c-0.2,4.7-2,27.9-2.3,40c-0.4,12.9-0.4,23.1-0.4,23.1s-18.3-3.6-33.2,7.1c-14.6,10.5-25.1,22.6-28.8,49
			c-3.7,26.3,4.7,44.1,4.7,44.1s-3,4.5-8.6,9.5c-5.7,4.9-21.7,19.8-21.2-15.5c0.5-35.3,2-61.4,2.3-66c0.4-4.5-0.1-6-3.2-5.7
			c-4.4,0.5-8.9,1-15.4,2.3c-6.5,1.4-9.1,2-12.8,3.2c-1.4,0.5-3.6,1-3.9,5c-0.4,4.1-2.1,21.3-2.3,40.7c-0.2,19.5,0.4,35.1,0.5,39.8
			c0.1,7.9,1.4,9.6-3.9,14.9c-6.2,6.2-19.1,12.2-19.6-16.7s-0.1-51.3,0.2-59.1c0.4-7.8,0.5-10,0.5-11.7c0-2.3-1-3.5-3.3-3.1
			c-2.3,0.4-7.5,1.2-14.9,2.8s-12.3,3.5-14.3,4.3s-3.3,1.1-3.5,5.4c-0.1,3.5-0.5,45.3-0.5,63.3c0,24.1,5.2,44.8,19.2,48
			s27.6-8.4,32.8-15.3c5.2-6.9,10.1-15,10.1-15s8.3,15.5,24.2,10.5c12.6-3.9,21.5-12.8,30.4-23.5c6.8-8.2,10.3-13.3,10.3-13.3
			s8,12.9,25.1,12.3c15-0.5,23-6,27.8-11.6c4.7-5.4,6.9-11.8,6.9-11.8s9.8,14.3,28.8,7.9s32.5-22.9,32.5-22.9s7.6,15.3,26.6,9.6
			c19-5.7,28.1-20.9,32.7-36.7c4.7-15.8,6.7-36.9,6.7-36.9s3.7-0.5,10.3-2.5s11.1-5.2,11.1-5.2s-7.9,24.1-2.2,42.4
			c5.7,18.2,17.2,30.5,35.7,28.6c18.5-2,30.3-15,30.3-15s5.9,14.8,19.2,12.8c13.3-2,27.8-10.1,38.7-29.8
			c10.8-19.7,15.3-36.2,18-46.8c2.7-10.6,4.7-22.9,4.7-22.9s2,0,5.7,0.2s7.1,0.2,7.1,0.2s-8.1,29.5-8.6,44.3c-0.5,14.8,1,38.4,19,46
			c18,7.6,35.5-4.4,42.8-8.4s23.1-19.2,30.8-11.8c7.6,7.4-4.9,19.2-11.6,23.1s-22.7,11.8-64.8,14c-42.1,2.2-94.5,3-154.1,8.1
			S567.2,562,504.6,582.2s-117.4,40.6-165.5,68.9c-48,28.3-73.4,47.3-79.8,52.9s-9.4,8.6-0.2,8.4c9.1-0.2,22.9,0,38.6,0.2
			c15.8,0.2,20.9,2.2,27.6-4.2c6.6-6.4,32.5-33.5,70.9-53.2s118.4-56.4,173.1-69.4s111.5-24.9,196.7-29S890.4,545,921.9,528
			C953.5,510.9,950,493.5,944.4,487.3z M525.1,543.3c-8.4,1.2-16-4.1-20.6-16.4c-3.9-10.5-5.8-33.9,1.7-53.5
			c7.5-19.7,24.4-17.5,24.4-17.5s-0.2,13.8-0.2,29.3s0.4,31.5,0.6,39.3s2.2,14.7,2.2,14.7S533.4,542.1,525.1,543.3z M746.5,460.5
			c-1.1,17-1,29.2-0.7,33.4c0.2,4.2,1.5,12.1,1.1,13s-2.6,5.2-9.2,6.3c-9.5,1.6-14-6.3-16.2-11.7c-2.2-5.4-3.1-14-2.7-25.7
			c0.4-11.7,4.3-32.7,13.2-39.5s16.2-3.9,17-2.7C749.6,434.6,747.6,443.5,746.5,460.5z M824.2,419.1c-3.1-0.6-6-1.6-10.1-5.4
			s-6.7-10-4.2-14.2s7.4-2.6,11.1,3.5S824.2,419.1,824.2,419.1z M300.1,508.5c0,0,13.2-9.4,26.9-26.9c16.4-21,46.6-96.2-6.6-125.4
			C265,325.7,200,382.4,180,412.6c-20,30.2-51.2,75.8-55.8,143.1c-4.6,67.3,15.1,122.8,46.3,141.8s70.3-2,90-52.2
			c21.2-54.2,16.7-118.5,16.7-118.5l9-6.8c0,0,14.9,13.2,22.4,59.7c7.5,46.5-7.5,64.3-13.3,66.6c-5.8,2.3-10-5.2-11.1-16.5
			c-1-10.1,2.3-22.3,3.9-26c1.6-3.6,2.6-5.4,1.9-6.2c-1.7-1.6-5.5-0.7-11.1,8.5c-5,8.3-11.2,29.7,2.5,40.6
			c14.7,11.7,29.5,3.8,41.1-8.6c13.2-14.1,26.6-45.7,17.1-83.1C330,517.7,300.1,508.5,300.1,508.5z M276.9,518.8v-5.9l4.4,2.5
			L276.9,518.8z M275.9,504c0,0-4.2-38.9-20.4-58.1c-15.9-18.8-31-24.1-48.8-10.1c-17.7,14-23.1,43.1-23.9,51
			c-0.7,7.9,2.2,12.6,4.4,6.2c2.2-6.4,8.1-20.4,22.2-20.2c14,0.2,19.2,9.9,23.6,18.5c3.7,7.2,5.4,11.8,5.4,11.8s-19.9,2.2-34,10.6
			c-14,8.4-19.7,18.5-17,27.6c2.7,9.1,14.2,13.5,25.4,13c18.2-0.7,35.5-11.8,35.5-11.8s6.2,47.8,4.6,72.1
			c-1.6,24.3-10.2,54.8-23.6,58.8s-30.9-0.5-48.8-31s-22.5-69.8-22.6-97.8c-0.2-28.1,4.5-100.8,37.4-137.9
			c37.2-41.9,81.9-57.6,107.1-17.5c12.1,19.2,8.6,55.9,4.4,73.1s-8.6,32.7-17,42.8C283.3,503.8,275.9,504,275.9,504z M247.6,535.8
			c0,0-3.1,2.1-5.5,3.2c-3.2,1.5-7.5,3.3-14.9,4.2c-7.9,1-15.5-1.5-17.7-7.9s0.8-12.3,8.4-18c8.9-6.6,23.4-7.9,23.4-7.9
			s1.5,5.4,3.4,13C246.6,530.2,247.6,535.8,247.6,535.8z"/>
	</g>
	<g>
		<g>
			<path class="st12" d="M423.8,844.2c0.6,1,1,2,1.2,3.2c0.2,1.2,0.1,2.4-0.3,3.5l-0.1,0.2c-0.2,0.5-0.4,1-0.6,1.5
				c-0.3,0.5-0.6,0.9-0.9,1.3c-0.3,0.3-0.6,0.6-0.9,0.9c-0.3,0.3-0.7,0.5-1,0.8c0.2,0.4,0.3,0.8,0.4,1.2c0.1,0.4,0.2,0.8,0.2,1.2
				c0.1,1.2,0,2.2-0.3,3.2l-0.1,0.2c-0.2,0.6-0.4,1.1-0.7,1.6s-0.6,1-1,1.4c-0.8,0.9-1.8,1.5-2.8,2c-1.1,0.5-2.2,0.8-3.4,0.8
				c-0.3,0-0.5,0-0.9,0c-0.3,0-0.7-0.1-1-0.1c-0.3-0.1-0.6-0.1-1-0.2c-0.3-0.1-0.6-0.1-0.8-0.2l-7-2.2c-0.3-0.1-0.6-0.3-0.7-0.6
				c-0.2-0.3-0.2-0.6-0.1-1l7.5-24.3c0.1-0.4,0.3-0.6,0.7-0.8c0.3-0.2,0.7-0.2,1-0.1l7,2.2c0.6,0.2,1.2,0.4,1.7,0.7
				c0.6,0.3,1.1,0.6,1.6,1C422.4,842.4,423.2,843.2,423.8,844.2z M409.9,860.2l2.5,0.8c0.6,0.2,1.1,0.1,1.6-0.3
				c0.5-0.3,0.8-0.7,1-1.3c0.2-0.6,0.1-1.1-0.1-1.6c-0.3-0.5-0.7-0.9-1.2-1.2l-2.4-0.8L409.9,860.2z M415.6,850.6
				c0.6,0.2,1.1,0.1,1.6-0.3c0.5-0.3,0.8-0.7,1-1.3c0.2-0.6,0.1-1.1-0.1-1.6c-0.2-0.5-0.6-0.9-1.2-1.1l-2.4-0.8l-1.3,4.3l2.2,0.7
				L415.6,850.6z"/>
			<path class="st12" d="M461.8,850.9c0.2,0.3,0.3,0.7,0.2,1l-3.5,18.2c-0.2,1.2-0.7,2.4-1.5,3.4c-0.7,1-1.5,1.8-2.5,2.5
				c-1,0.7-2.1,1.1-3.3,1.3c-1.1,0.2-2.2,0.1-3.3-0.1l-0.4-0.1c-1.2-0.3-2.2-0.8-3.2-1.5c-0.9-0.7-1.7-1.5-2.3-2.5s-1-2.1-1.2-3.2
				c-0.2-1.1-0.2-2.3,0-3.5l3.5-17.9c0.1-0.4,0.2-0.7,0.5-0.8c0.3-0.2,0.6-0.3,1-0.2l4.1,0.8c0.3,0.1,0.6,0.2,0.8,0.6
				c0.2,0.3,0.2,0.6,0.2,1l-3.5,18.2c-0.1,0.3,0,0.6,0,1c0.1,0.3,0.2,0.7,0.4,0.9c0.2,0.2,0.4,0.4,0.7,0.6c0.2,0.2,0.5,0.3,0.9,0.3
				c0.6,0,1.2-0.1,1.6-0.5c0.5-0.4,0.8-0.9,0.9-1.5l3.5-18.1c0.1-0.4,0.2-0.7,0.5-0.8c0.3-0.2,0.6-0.3,1-0.2l4.1,0.8
				C461.3,850.4,461.6,850.6,461.8,850.9z"/>
			<path class="st12" d="M494.2,856.9c0.8,0.9,1.4,1.9,1.8,3.1c0.4,1.1,0.5,2.4,0.4,3.7l-0.9,10c-0.1,1.3-0.5,2.4-1,3.5
				c-0.6,1.1-1.3,2-2.3,2.7c-0.9,0.8-2,1.3-3.1,1.6c-0.5,0.2-1.2,0.3-1.9,0.3s-1.4,0-2,0l-6.2-0.5c-0.4,0-0.7-0.2-0.9-0.5
				c-0.2-0.3-0.4-0.6-0.3-0.9l2.2-25.4c0-0.4,0.2-0.7,0.5-0.9c0.3-0.2,0.6-0.3,1-0.3l6.4,0.6c0.6,0.1,1.3,0.2,1.9,0.3
				c0.6,0.2,1.2,0.3,1.8,0.6C492.5,855.3,493.5,856,494.2,856.9z M489.8,863.1c0-0.6-0.2-1.2-0.5-1.6c-0.4-0.5-0.8-0.8-1.3-0.9
				l-1.7-0.2l-1.3,14.6l1.8,0.2c0.5,0,1-0.2,1.5-0.6c0.4-0.5,0.7-1,0.8-1.6L489.8,863.1z"/>
			<path class="st12" d="M537.5,855.2c0.2,0.2,0.4,0.6,0.4,1l-1.7,25.6c0,0.3-0.1,0.6-0.3,0.9s-0.5,0.4-0.9,0.4L531,883
				c-0.3,0-0.5,0-0.7-0.2c-0.2-0.1-0.2-0.2-0.3-0.3l-0.2-0.4l-3.3-7.9l-2.9,7.9c-0.2,0.4-0.3,0.6-0.3,0.6c-0.1,0.1-0.2,0.2-0.3,0.3
				c-0.1,0.1-0.3,0.2-0.6,0.2l-3.9,0.1c-0.4,0-0.7-0.1-1-0.4c-0.2-0.3-0.3-0.5-0.3-0.8l-2.9-25.4c0-0.4,0.1-0.7,0.3-1
				c0.3-0.3,0.6-0.4,0.9-0.4l3.8-0.1c0.4,0,0.7,0.1,0.9,0.3c0.2,0.2,0.4,0.6,0.4,1l1.4,11.7l1.9-5.5c0.3-0.5,0.7-0.8,1.2-0.8l2,0
				c0.7,0,1.1,0.3,1.2,0.9l2.1,5.3l1-11.9c0-0.3,0.1-0.6,0.3-0.9c0.3-0.3,0.6-0.4,0.9-0.4l3.8-0.1
				C537,854.8,537.3,854.9,537.5,855.2z"/>
			<path class="st12" d="M570.3,851.7c0.3,0.2,0.4,0.5,0.5,0.9l0.5,4.1c0,0.4,0,0.7-0.2,1c-0.2,0.3-0.5,0.4-0.9,0.5l-7.3,1l0.5,3.9
				l5.7-0.8c0.4,0,0.7,0,1,0.2c0.3,0.2,0.4,0.5,0.5,0.9l0.5,4.1c0,0.4,0,0.7-0.2,1c-0.2,0.3-0.5,0.4-0.9,0.5l-5.7,0.8l0.5,4l7.3-1
				c0.3,0,0.7,0,1,0.2c0.3,0.3,0.4,0.5,0.5,0.8l0.5,4.1c0,0.3,0,0.6-0.3,0.9c-0.2,0.3-0.5,0.4-0.9,0.5l-12.7,1.7
				c-0.3,0-0.7,0-0.9-0.2c-0.3-0.2-0.4-0.5-0.5-0.8l-3.3-25.3c0-0.4,0-0.7,0.2-1c0.2-0.3,0.5-0.5,0.8-0.5l12.7-1.7
				C569.7,851.4,570,851.4,570.3,851.7z"/>
			<path class="st12" d="M594.6,846.9c0.3,0.2,0.5,0.5,0.6,0.8l5.5,24.9c0.1,0.3,0,0.6-0.2,1c-0.2,0.3-0.5,0.5-0.8,0.6l-4.1,0.9
				c-0.3,0.1-0.6,0-1-0.2c-0.3-0.2-0.5-0.5-0.5-0.8l-5.5-24.9c-0.1-0.4,0-0.7,0.2-1c0.2-0.3,0.5-0.5,0.8-0.5l4.1-0.9
				C594,846.7,594.3,846.7,594.6,846.9z"/>
			<path class="st12" d="M627.3,839.1c0.5,0.2,1,0.5,1.4,0.9c0.5,0.3,0.9,0.7,1.2,1.2c0.8,0.9,1.4,1.9,1.8,3l0.1,0.4
				c0.1,0.4,0.1,0.7,0,1c-0.1,0.3-0.4,0.5-0.8,0.6l-3.9,1.2c-0.8,0.3-1.4,0-1.7-0.9l-0.1-0.3c-0.2-0.5-0.6-0.9-1.2-1.1
				c-0.6-0.2-1.2-0.3-1.8-0.1c-0.6,0.2-1.1,0.5-1.4,1.1c-0.3,0.5-0.4,1-0.3,1.6c0.1,0.3,0.2,0.5,0.4,0.8c0.2,0.2,0.4,0.4,0.8,0.7
				c0.4,0.2,0.9,0.4,1.5,0.6c0.5,0.1,1,0.2,1.5,0.2c0.3,0,0.5,0,0.8,0c0.2,0,0.5,0,0.7,0c0.3,0,0.5,0,0.8,0c0.3,0,0.5,0,0.7,0
				c0.5,0.1,1.1,0.1,1.6,0.2c0.7,0.2,1.3,0.4,1.8,0.7c0.6,0.2,1.1,0.6,1.7,1.1c0.2,0.2,0.5,0.4,0.7,0.7c0.2,0.2,0.4,0.5,0.7,0.7
				c0.4,0.5,0.7,1.1,0.8,1.6c0.5,1.2,0.6,2.4,0.6,3.7c-0.1,1.2-0.4,2.3-0.9,3.4s-1.3,2-2.2,2.8c-0.9,0.8-2,1.4-3.2,1.8l-0.2,0.1
				c-1.2,0.4-2.3,0.5-3.4,0.4c-1.2-0.1-2.2-0.4-3.2-0.8c-1-0.5-1.9-1.1-2.7-1.9c-0.8-0.8-1.3-1.7-1.8-2.8c-0.1-0.1-0.1-0.2-0.2-0.5
				L618,861c-0.1-0.4-0.1-0.7,0.1-1c0.2-0.3,0.4-0.5,0.8-0.6l3.8-1.2c0.4-0.1,0.7-0.1,1,0.1c0.3,0.2,0.5,0.4,0.6,0.8l0.1,0.3
				c0.2,0.5,0.7,0.9,1.2,1.1c0.6,0.2,1.2,0.3,1.7,0.1c0.6-0.2,1-0.5,1.4-1.1c0.3-0.5,0.4-1.1,0.3-1.7c-0.2-0.5-0.5-0.9-1-1.2
				c-0.6-0.3-1.4-0.5-2.3-0.6c-0.5-0.1-1-0.1-1.5-0.2c-0.5,0-1.1-0.1-1.7-0.1c-1.2-0.1-2.4-0.4-3.6-0.8c-0.4-0.1-0.8-0.3-1.1-0.5
				c-0.3-0.2-0.7-0.4-1-0.7c-0.3-0.2-0.5-0.5-0.7-0.7c-0.2-0.3-0.4-0.5-0.6-0.8c-0.4-0.6-0.7-1.2-1-1.8c-0.5-1.2-0.7-2.5-0.6-3.7
				c0.1-1.2,0.4-2.4,0.9-3.4c0.5-1.1,1.2-2,2.1-2.8c0.9-0.9,2-1.5,3.2-1.9l0.2-0.1c1.1-0.4,2.3-0.5,3.5-0.4
				C625.2,838.3,626.2,838.6,627.3,839.1z"/>
		</g>
	</g>
	<g>
		<g>
			<path class="st12" d="M311.2,864L311.2,864c0.4-0.6,0.5-1.2,0.3-1.8c-0.1-0.6-0.5-1.1-1-1.4c-0.5-0.3-1.1-0.4-1.8-0.3
				c-0.6,0.2-1.1,0.5-1.4,1l-6,9.9c-0.3,0.5-0.4,1.1-0.3,1.8s0.5,1.1,1,1.4c0.5,0.3,1.1,0.4,1.7,0.3c0.6-0.2,1.1-0.5,1.4-1l0.1-0.1
				l0.5-0.8c0.2-0.3,0.5-0.5,0.8-0.6c0.3-0.1,0.6,0,1,0.2l3.5,2.1c0.3,0.2,0.5,0.4,0.6,0.8c0.1,0.3,0.1,0.7-0.1,1l-0.4,0.7
				c-0.3,0.5-0.7,1-1.1,1.4s-0.8,0.8-1.3,1.2c-1,0.7-2,1.2-3.1,1.5c-1.1,0.3-2.2,0.4-3.4,0.3c-1.1-0.1-2.3-0.5-3.3-1
				c-1.2-0.6-2.1-1.5-2.8-2.4c-0.7-0.9-1.3-2-1.6-3.2c-0.3-1.2-0.4-2.3-0.2-3.5c0.2-1.2,0.6-2.4,1.2-3.5l6-9.9
				c0.7-1.1,1.5-2,2.5-2.7c1-0.7,2.1-1.2,3.2-1.4c1.1-0.3,2.3-0.3,3.6,0c0.6,0.1,1.2,0.3,1.8,0.5s1.1,0.5,1.7,0.9
				c1,0.7,1.8,1.5,2.5,2.5c0.6,1,1,2,1.3,3.1c0.2,1.1,0.2,2.3,0,3.4c-0.2,1.2-0.6,2.3-1.2,3.3l-0.4,0.7c-0.2,0.3-0.5,0.5-0.8,0.6
				c-0.3,0.1-0.6,0-1-0.2l-3.5-2.1c-0.3-0.2-0.5-0.4-0.6-0.8c-0.1-0.3-0.1-0.7,0.1-1L311.2,864z"/>
			<path class="st12" d="M342.1,896.8l-1.8,3.7c-0.1,0.3-0.4,0.5-0.7,0.6s-0.7,0.1-1-0.1l-12.9-6.3c-0.3-0.2-0.6-0.4-0.7-0.7
				c-0.2-0.4-0.2-0.8,0.2-1.2l0.4-0.4l15.1-14.1l-5.7-2.8c-0.8-0.4-0.9-0.9-0.6-1.7l1.8-3.7c0.2-0.4,0.4-0.6,0.7-0.7
				c0.3-0.1,0.6-0.1,1,0.1l12.9,6.3c0.4,0.2,0.7,0.5,0.7,1c0,0.2,0,0.3,0,0.5c0,0.2-0.1,0.4-0.4,0.6l-15.4,14.3l5.6,2.7
				C342.2,895.4,342.5,896,342.1,896.8z"/>
			<path class="st12" d="M382.1,889.2c0.1,0.3,0.1,0.7,0,1l-1.5,3.8c-0.1,0.3-0.4,0.6-0.7,0.7c-0.3,0.1-0.7,0.1-1,0l-6.9-2.7
				l-1.4,3.7l5.4,2.1c0.4,0.1,0.6,0.4,0.7,0.7c0.1,0.3,0.1,0.6,0,1l-1.5,3.8c-0.1,0.3-0.4,0.6-0.7,0.7c-0.3,0.1-0.6,0.1-1,0
				l-5.4-2.1l-1.5,3.7l6.9,2.7c0.3,0.1,0.6,0.4,0.8,0.7c0.1,0.4,0.1,0.7,0,1l-1.5,3.9c-0.1,0.3-0.4,0.5-0.7,0.7
				c-0.3,0.1-0.6,0.1-1,0l-11.9-4.6c-0.3-0.1-0.6-0.3-0.7-0.7s-0.1-0.6,0-1l9.2-23.8c0.1-0.3,0.4-0.6,0.7-0.7c0.4-0.2,0.7-0.2,1,0
				l11.9,4.6C381.7,888.7,382,888.9,382.1,889.2z"/>
			<path class="st12" d="M408.3,906l0-0.1c0.2-0.6,0.1-1.2-0.2-1.8c-0.3-0.5-0.8-0.9-1.4-1.1c-0.6-0.2-1.2-0.1-1.8,0.2
				c-0.5,0.3-0.9,0.8-1.1,1.4l-3.2,11.2c-0.2,0.6-0.1,1.2,0.2,1.8s0.8,0.9,1.4,1.1c0.6,0.2,1.2,0.1,1.8-0.2s0.9-0.8,1.1-1.4l0-0.1
				l0.2-0.8c0.1-0.4,0.3-0.6,0.6-0.8c0.3-0.2,0.6-0.2,1-0.1l4,1.2c0.3,0.1,0.6,0.3,0.8,0.6c0.2,0.3,0.2,0.6,0.1,1l-0.2,0.7
				c-0.2,0.6-0.4,1.2-0.6,1.7c-0.3,0.5-0.6,1-0.9,1.5c-0.8,0.9-1.6,1.7-2.5,2.3c-1,0.6-2.1,1-3.2,1.2c-1.1,0.2-2.3,0.1-3.5-0.1
				c-1.3-0.3-2.4-0.8-3.4-1.6c-0.9-0.7-1.7-1.6-2.4-2.7c-0.6-1-1-2.2-1.1-3.4c-0.1-1.2,0-2.4,0.3-3.7l3.2-11.2
				c0.4-1.2,0.9-2.3,1.7-3.2c0.8-0.9,1.7-1.7,2.8-2.2c1-0.5,2.2-0.9,3.4-1c0.6,0,1.2,0,1.9,0c0.6,0,1.2,0.2,1.9,0.4
				c1.1,0.4,2.1,1,3,1.8c0.8,0.8,1.5,1.7,2,2.7c0.5,1,0.8,2.1,0.9,3.3c0.1,1.2,0,2.4-0.3,3.5l-0.2,0.7c-0.1,0.4-0.3,0.6-0.6,0.8
				c-0.3,0.2-0.6,0.2-1,0.1l-4-1.2c-0.3-0.1-0.6-0.3-0.8-0.6c-0.2-0.3-0.2-0.6-0.1-1L408.3,906z"/>
			<path class="st12" d="M451.7,907.8c0.2,0.3,0.3,0.6,0.2,1l-4.8,25c-0.1,0.3-0.2,0.6-0.6,0.8c-0.3,0.2-0.6,0.3-1,0.2l-4-0.8
				c-0.3-0.1-0.6-0.2-0.8-0.5c-0.2-0.3-0.3-0.6-0.2-1l1.8-9.2l-4.3-0.8l-1.8,9.2c0,0.3-0.2,0.6-0.6,0.8c-0.3,0.2-0.6,0.2-1,0.2
				l-4.1-0.8c-0.4-0.1-0.6-0.2-0.9-0.5c-0.2-0.3-0.2-0.6-0.2-1l4.8-25c0.1-0.4,0.2-0.7,0.5-0.8s0.6-0.2,1-0.2l4.1,0.8
				c0.4,0.1,0.7,0.3,0.9,0.5c0.2,0.3,0.2,0.6,0.2,1l-1.8,9.2l4.3,0.8l1.8-9.2c0.1-0.4,0.2-0.7,0.5-0.8c0.3-0.2,0.6-0.2,1-0.2l4,0.8
				C451.3,907.3,451.5,907.5,451.7,907.8z"/>
			<path class="st12" d="M507.6,915.3c0.8,0.8,1.4,1.8,1.9,3c0.5,1.1,0.7,2.3,0.6,3.7l0,0.2c0,1.1-0.3,2.1-0.7,3.1
				c-0.4,1-0.9,1.8-1.6,2.5c-0.7,0.8-1.5,1.4-2.4,1.9c-0.6,0.3-1.2,0.6-1.9,0.8l5.5,7.9c0.4,0.6,0.4,1.1,0.1,1.7
				c-0.3,0.6-0.7,0.9-1.4,0.8l-4.3-0.2c-0.6,0-1.1-0.3-1.5-0.8l-3.7-5.4l-0.2,4.6c0,0.3-0.1,0.6-0.4,0.9c-0.3,0.3-0.6,0.4-1,0.4
				l-4.1-0.2c-0.4,0-0.6-0.2-0.9-0.4c-0.3-0.3-0.4-0.6-0.4-0.9l1.1-25.5c0-0.3,0.2-0.7,0.4-0.9c0.2-0.2,0.5-0.3,0.9-0.3l7.3,0.3
				c1.3,0,2.5,0.2,3.6,0.7C505.8,913.8,506.8,914.5,507.6,915.3z M503.4,921.8c0-0.7-0.1-1.3-0.5-1.8c-0.3-0.5-0.8-0.8-1.4-0.8
				l-2.5-0.1l-0.2,4.9l2.5,0.1c0.6-0.1,1.1-0.3,1.5-0.7C503.1,923,503.3,922.4,503.4,921.8z"/>
			<path class="st12" d="M543.1,912.5c0.2,0.2,0.4,0.5,0.4,1l0.2,4.1c0,0.4-0.1,0.7-0.3,1c-0.2,0.2-0.5,0.4-1,0.4l-7.4,0.3l0.2,4
				l5.7-0.3c0.4,0,0.7,0.1,0.9,0.3c0.2,0.2,0.4,0.5,0.4,0.9l0.2,4.1c0,0.4-0.1,0.7-0.3,0.9c-0.2,0.2-0.5,0.4-0.9,0.4l-5.7,0.2l0.2,4
				l7.4-0.3c0.3,0,0.7,0.1,1,0.3c0.2,0.3,0.4,0.6,0.4,0.9l0.2,4.2c0,0.3-0.1,0.6-0.4,0.9c-0.2,0.2-0.5,0.4-0.9,0.4l-12.8,0.5
				c-0.3,0-0.7-0.1-0.9-0.3c-0.2-0.2-0.4-0.5-0.4-0.9l-1.1-25.5c0-0.4,0.1-0.7,0.3-0.9c0.3-0.3,0.5-0.4,0.9-0.4l12.8-0.5
				C542.6,912.2,542.9,912.3,543.1,912.5z"/>
			<path class="st12" d="M576.9,911.2c0.9,0.7,1.7,1.6,2.4,2.6c0.6,1.1,1,2.2,1.2,3.5l0,0.2c0.2,1.3,0.1,2.5-0.2,3.7
				c-0.3,1.1-0.9,2.2-1.6,3.2c-0.8,0.9-1.7,1.7-2.7,2.3c-1.1,0.6-2.3,0.9-3.6,1.1l-1.9,0.2l1.1,8.4c0,0.3,0,0.6-0.2,0.9
				c-0.2,0.3-0.5,0.5-0.9,0.5l-4.2,0.5c-0.3,0-0.7,0-0.9-0.2c-0.3-0.2-0.4-0.5-0.5-0.9l-3.3-25.3c0-0.4,0-0.7,0.2-1
				c0.2-0.3,0.5-0.4,0.8-0.5l7.3-1c1.3-0.2,2.5-0.2,3.7,0.1C574.9,909.9,576,910.5,576.9,911.2z M573.9,918.3
				c-0.1-0.6-0.3-1.1-0.8-1.6c-0.4-0.4-1-0.6-1.6-0.6l-2.6,0.4l0.6,4.8l2.6-0.3c0.6-0.2,1.1-0.5,1.4-1
				C573.8,919.4,573.9,918.9,573.9,918.3z"/>
			<path class="st12" d="M613.9,901.8c0.3,0.2,0.5,0.5,0.6,0.8l4.1,18.1c0.3,1.2,0.3,2.5,0,3.7c-0.2,1.2-0.7,2.3-1.3,3.3
				c-0.7,1-1.5,1.8-2.5,2.5c-0.9,0.6-2,1-3.1,1.3l-0.4,0.1c-1.2,0.2-2.3,0.2-3.5-0.1c-1.1-0.2-2.2-0.7-3.1-1.4s-1.8-1.5-2.4-2.5
				c-0.7-0.9-1.1-2-1.4-3.2l-4-17.8c-0.1-0.4,0-0.7,0.2-1c0.2-0.3,0.5-0.5,0.8-0.6l4.1-0.9c0.3-0.1,0.6,0,1,0.2
				c0.3,0.2,0.5,0.5,0.6,0.8l4.1,18.1c0.1,0.3,0.2,0.6,0.4,0.9c0.2,0.3,0.5,0.5,0.7,0.7c0.2,0.1,0.5,0.2,0.9,0.3
				c0.3,0.1,0.6,0,1-0.1c0.6-0.2,1-0.6,1.3-1.1c0.3-0.6,0.4-1.1,0.2-1.8l-4-18c-0.1-0.4,0-0.7,0.2-1c0.2-0.3,0.5-0.5,0.8-0.6
				l4.1-0.9C613.2,901.5,613.6,901.5,613.9,901.8z"/>
			<path class="st12" d="M646.9,894c1,0.5,2,1.1,2.8,2c0.8,0.9,1.4,1.9,1.8,3l0.1,0.2c0.2,0.5,0.3,1.1,0.3,1.6
				c0.1,0.5,0.1,1.1,0,1.6c-0.1,0.4-0.1,0.8-0.2,1.2c-0.1,0.4-0.2,0.8-0.4,1.2c0.4,0.2,0.7,0.5,1,0.7c0.3,0.3,0.6,0.6,0.9,0.9
				c0.7,0.9,1.3,1.8,1.6,2.8l0.1,0.2c0.2,0.6,0.3,1.2,0.4,1.8c0,0.6,0,1.2,0,1.8c-0.2,1.2-0.5,2.3-1.1,3.2c-0.6,1-1.3,1.9-2.3,2.6
				c-0.2,0.2-0.5,0.3-0.8,0.5s-0.6,0.3-0.9,0.5c-0.3,0.1-0.6,0.3-0.9,0.4c-0.3,0.1-0.5,0.2-0.8,0.3l-6.9,2.2c-0.3,0.1-0.7,0.1-1-0.1
				c-0.3-0.2-0.5-0.4-0.7-0.7l-7.8-24.2c-0.1-0.4-0.1-0.7,0.1-1c0.2-0.3,0.4-0.6,0.7-0.7l7-2.2c0.6-0.2,1.2-0.3,1.8-0.5
				c0.6-0.1,1.2-0.2,1.8-0.1C644.8,893.3,645.9,893.6,646.9,894z M643.9,904c0.5-0.2,0.9-0.6,1.2-1.1c0.2-0.5,0.2-1,0.1-1.6
				c-0.2-0.6-0.5-1-1-1.2c-0.4-0.3-1-0.4-1.7-0.2l-2.4,0.8l1.4,4.3l2.2-0.7L643.9,904z M644.8,915.1l2.5-0.8
				c0.5-0.2,0.9-0.6,1.2-1.1c0.2-0.5,0.2-1,0.1-1.6c-0.2-0.6-0.5-1-1-1.2c-0.5-0.3-1.1-0.4-1.7-0.3l-2.4,0.8L644.8,915.1z"/>
			<path class="st12" d="M688.2,898.7c0.3,0.2,0.6,0.4,0.7,0.7l1.6,3.8c0.1,0.3,0.1,0.6,0,1c-0.2,0.4-0.4,0.6-0.7,0.7l-11.8,5
				c-0.3,0.1-0.6,0.1-1,0c-0.3-0.1-0.5-0.3-0.7-0.7l-10-23.5c-0.2-0.3-0.2-0.7,0-1c0.1-0.3,0.3-0.5,0.7-0.7l3.8-1.6
				c0.3-0.1,0.6-0.1,1,0c0.3,0.1,0.6,0.4,0.7,0.7l7.8,18.5l6.8-2.9C687.5,898.5,687.8,898.5,688.2,898.7z"/>
			<path class="st12" d="M702.1,868.1c0.4,0.1,0.6,0.3,0.8,0.6l11.7,22.6c0.2,0.3,0.2,0.6,0,1c-0.1,0.4-0.3,0.6-0.6,0.8l-3.7,1.9
				c-0.3,0.2-0.6,0.2-1,0c-0.3-0.1-0.6-0.3-0.7-0.6l-11.7-22.6c-0.2-0.3-0.2-0.7-0.1-1c0.1-0.3,0.3-0.6,0.6-0.7l3.7-1.9
				C701.5,868,701.8,868,702.1,868.1z"/>
			<path class="st12" d="M732.3,859.9L732.3,859.9c-0.4-0.6-0.9-1-1.5-1.1c-0.6-0.1-1.2,0-1.8,0.3s-0.9,0.8-1,1.4
				c-0.1,0.6,0,1.2,0.3,1.7l6.1,9.9c0.3,0.5,0.8,0.9,1.4,1c0.6,0.1,1.2,0,1.7-0.3c0.5-0.3,0.9-0.8,1-1.4c0.2-0.6,0-1.2-0.3-1.7
				l-0.1-0.1l-0.5-0.8c-0.2-0.3-0.2-0.7-0.2-1c0.1-0.3,0.3-0.6,0.6-0.8l3.5-2.2c0.3-0.2,0.6-0.2,1-0.2c0.4,0.1,0.6,0.3,0.8,0.6
				l0.4,0.7c0.3,0.5,0.6,1.1,0.8,1.6c0.2,0.5,0.4,1.1,0.5,1.7c0.2,1.2,0.2,2.3,0,3.4c-0.2,1.1-0.7,2.2-1.2,3.1
				c-0.6,1-1.5,1.8-2.4,2.5c-1.1,0.7-2.2,1.2-3.5,1.4c-1.2,0.2-2.4,0.2-3.6,0c-1.2-0.3-2.3-0.7-3.2-1.4c-1-0.7-1.8-1.6-2.5-2.7
				l-6.1-9.9c-0.7-1.1-1.1-2.2-1.3-3.4c-0.2-1.2-0.1-2.4,0.2-3.5c0.3-1.1,0.8-2.2,1.6-3.2c0.4-0.5,0.8-0.9,1.2-1.4
				c0.5-0.4,1-0.8,1.6-1.1c1.1-0.6,2.2-0.9,3.3-1.1c1.1-0.1,2.2,0,3.4,0.3c1.1,0.3,2.1,0.8,3.1,1.5c1,0.8,1.8,1.6,2.4,2.6l0.4,0.7
				c0.2,0.3,0.2,0.7,0.1,1c-0.1,0.3-0.3,0.6-0.6,0.8l-3.5,2.2c-0.3,0.2-0.6,0.2-1,0.2c-0.4-0.1-0.6-0.3-0.8-0.6L732.3,859.9z"/>
		</g>
	</g>
</g>
<g>
	<g>
		<circle class="st13" cx="518" cy="524.7" r="406.7"/>
		<circle class="st13" cx="518" cy="524.7" r="341.5"/>
		<g>
			<defs>
				<circle id="SVGID_3_" cx="518" cy="524.7" r="474.3"/>
			</defs>
			<clipPath id="SVGID_4_">
				<use xlink:href="#SVGID_3_"  style="overflow:visible;"/>
			</clipPath>
			<g class="st14">
				
					<radialGradient id="SVGID_5_" cx="710.0755" cy="726.3179" r="507.3394" fx="668.1024" fy="722.2738" gradientTransform="matrix(-1.2094 -0.9029 0.8746 -1.1789 1015.2585 2101.6638)" gradientUnits="userSpaceOnUse">
					<stop  offset="0" style="stop-color:#000000"/>
					<stop  offset="0.12" style="stop-color:#040404"/>
					<stop  offset="0.2448" style="stop-color:#111111"/>
					<stop  offset="0.372" style="stop-color:#262626"/>
					<stop  offset="0.5007" style="stop-color:#434343"/>
					<stop  offset="0.6307" style="stop-color:#686868"/>
					<stop  offset="0.7618" style="stop-color:#979797"/>
					<stop  offset="0.8911" style="stop-color:#CCCCCC"/>
					<stop  offset="1" style="stop-color:#FFFFFF"/>
				</radialGradient>
				<path class="st15" d="M124.3,225.6C282.2,12.8,587.2-27.6,805.5,135.4s267.3,467.7,109.4,680.5C757,1028.7,452,1069.1,233.7,906
					C15.4,743-33.6,438.4,124.3,225.6z"/>
				
					<linearGradient id="SVGID_6_" gradientUnits="userSpaceOnUse" x1="433.2822" y1="160.2189" x2="377.9739" y2="-195.6699" gradientTransform="matrix(0.7131 -0.7011 0.7011 0.7131 -120.4706 655.7261)">
					<stop  offset="0" style="stop-color:#000000"/>
					<stop  offset="0.1542" style="stop-color:#3C3C3C"/>
					<stop  offset="0.323" style="stop-color:#777777"/>
					<stop  offset="0.4862" style="stop-color:#A7A7A7"/>
					<stop  offset="0.6395" style="stop-color:#CDCDCD"/>
					<stop  offset="0.7806" style="stop-color:#E9E9E9"/>
					<stop  offset="0.9052" style="stop-color:#F9F9F9"/>
					<stop  offset="1" style="stop-color:#FFFFFF"/>
				</linearGradient>
				<path class="st16" d="M395.5,156.7l-16.6-77.8c-58.7,22.4-113.6,56.6-161,103c-175.6,171.6-187,447.7-35.7,641.5
					c-65.5-155.3-53.9-343.8,47.3-500.9C274,253.3,331.2,197.7,395.5,156.7z"/>
				
					<radialGradient id="SVGID_7_" cx="776.892" cy="881.587" r="136.3349" gradientTransform="matrix(-1.3979 0.4818 -0.5229 -1.4046 2212.6687 1633.6542)" gradientUnits="userSpaceOnUse">
					<stop  offset="0" style="stop-color:#000000"/>
					<stop  offset="0.12" style="stop-color:#040404"/>
					<stop  offset="0.2448" style="stop-color:#111111"/>
					<stop  offset="0.372" style="stop-color:#262626"/>
					<stop  offset="0.5007" style="stop-color:#434343"/>
					<stop  offset="0.6307" style="stop-color:#686868"/>
					<stop  offset="0.7618" style="stop-color:#979797"/>
					<stop  offset="0.8911" style="stop-color:#CCCCCC"/>
					<stop  offset="1" style="stop-color:#FFFFFF"/>
				</radialGradient>
				<path class="st17" d="M560.4,617c16,141.5-3.7,270.5-54.4,365.6c55.5,1,111.8-7.3,166.7-26.3c99.7-34.4,180-98.4,234.8-178.8
					C797.3,795.2,671.7,733.2,560.4,617z"/>
				
					<linearGradient id="SVGID_8_" gradientUnits="userSpaceOnUse" x1="-112.8211" y1="1113.9023" x2="-176.065" y2="715.303" gradientTransform="matrix(7.550000e-02 0.9971 -0.9971 7.550000e-02 1640.3459 307.8776)">
					<stop  offset="0" style="stop-color:#000000"/>
					<stop  offset="0.12" style="stop-color:#040404"/>
					<stop  offset="0.2448" style="stop-color:#111111"/>
					<stop  offset="0.372" style="stop-color:#262626"/>
					<stop  offset="0.5007" style="stop-color:#434343"/>
					<stop  offset="0.6307" style="stop-color:#686868"/>
					<stop  offset="0.7618" style="stop-color:#979797"/>
					<stop  offset="0.8911" style="stop-color:#CCCCCC"/>
					<stop  offset="1" style="stop-color:#FFFFFF"/>
				</linearGradient>
				<path class="st18" d="M527.2,305.1c17.6,14.9,33.8,30.9,48.5,48c139.2-21.8,274-7.1,386.5,37.4C904.3,215,751.3,83.5,569,52.5
					C583.2,137.5,567.3,224.2,527.2,305.1z"/>
				
					<radialGradient id="SVGID_9_" cx="707.7993" cy="-16.205" r="182.5221" gradientTransform="matrix(-0.3414 -1.4544 0.9779 -0.2018 504.2788 1673.8191)" gradientUnits="userSpaceOnUse">
					<stop  offset="0" style="stop-color:#000000"/>
					<stop  offset="0.12" style="stop-color:#040404"/>
					<stop  offset="0.2448" style="stop-color:#111111"/>
					<stop  offset="0.372" style="stop-color:#262626"/>
					<stop  offset="0.5007" style="stop-color:#434343"/>
					<stop  offset="0.6307" style="stop-color:#686868"/>
					<stop  offset="0.7618" style="stop-color:#979797"/>
					<stop  offset="0.8911" style="stop-color:#CCCCCC"/>
					<stop  offset="1" style="stop-color:#FFFFFF"/>
				</radialGradient>
				<path class="st19" d="M205.6,709.5c-58.4-147.2-58.7-303.8-10.1-408c-66.2,75.3-92.5,209.3-59.2,351
					c43.3,184.3,172,316.9,297,313.6C345.2,935,258.2,842.2,205.6,709.5z"/>
				
					<radialGradient id="SVGID_10_" cx="445.2624" cy="966.9777" r="168.986" gradientTransform="matrix(-0.2381 1.4588 -1.4734 -0.2771 2314.511 11.912)" gradientUnits="userSpaceOnUse">
					<stop  offset="0" style="stop-color:#000000"/>
					<stop  offset="0.12" style="stop-color:#040404"/>
					<stop  offset="0.2448" style="stop-color:#111111"/>
					<stop  offset="0.372" style="stop-color:#262626"/>
					<stop  offset="0.5007" style="stop-color:#434343"/>
					<stop  offset="0.6307" style="stop-color:#686868"/>
					<stop  offset="0.7618" style="stop-color:#979797"/>
					<stop  offset="0.8911" style="stop-color:#CCCCCC"/>
					<stop  offset="1" style="stop-color:#FFFFFF"/>
				</radialGradient>
				<path class="st20" d="M943.1,579c2.7,45.7,0.3,90.3-6.3,133.2c10.8-28.8,19.1-59,24.2-90.6c39.3-240.9-109.7-473.8-339.6-548.3
					C799.2,159.5,929.8,351.9,943.1,579z"/>
			</g>
		</g>
		<g class="st21">
			<g>
				<path class="st22" d="M993,524.7c0,261.9-213.8,474.3-475.7,474.3C255.3,998.9,43,786.6,43,524.7S255.3,54.9,517.2,50.4
					C775.1,46,982.2,247.4,993,524.7z"/>
			</g>
			<defs>
				<filter id="Adobe_OpacityMaskFilter" filterUnits="userSpaceOnUse" x="43" y="50.3" width="950" height="948.6">
					
						<feColorMatrix  type="matrix" values="-1 0 0 0 1  0 -1 0 0 1  0 0 -1 0 1  0 0 0 1 0" color-interpolation-filters="sRGB" result="source"/>
				</filter>
			</defs>
			<mask maskUnits="userSpaceOnUse" x="43" y="50.3" width="950" height="948.6" id="SVGID_11_">
				<g class="st23">
					
						<image style="overflow:visible;" width="955" height="953" xlink:href="B28B2CCABD268C96.jpg"  transform="matrix(1 0 0 1 40 48)">
					</image>
				</g>
			</mask>
			<g class="st24">
				<path d="M993,524.7c0,261.9-213.8,474.3-475.7,474.3C255.3,998.9,43,786.6,43,524.7S255.3,54.9,517.2,50.4
					C775.1,46,982.2,247.4,993,524.7z"/>
			</g>
		</g>
	</g>
	<g class="st25">
		<g class="st26">
			
				<image style="overflow:visible;" width="499" height="499" xlink:href="B28B2CCABD268C9A.png"  transform="matrix(1 0 0 1 268 275)">
			</image>
		</g>
		<g class="st25">
			
				<image style="overflow:visible;" width="245" height="245" xlink:href="B28B2CCABD268C9D.png"  transform="matrix(1 0 0 1 395 402)">
			</image>
		</g>
	</g>
</g>
</svg>
