<?xml version="1.0" encoding="utf-8"?>
<!-- Generator: Adobe Illustrator 23.0.4, SVG Export Plug-In . SVG Version: 6.00 Build 0)  -->
<svg version="1.1" id="Layer_1" xmlns="http://www.w3.org/2000/svg" xmlns:xlink="http://www.w3.org/1999/xlink" x="0px" y="0px"
	 viewBox="0 0 1263 668" style="enable-background:new 0 0 1263 668;" xml:space="preserve">
<style type="text/css">
	.st0{fill:#FFFEF8;}
	.st1{fill:#DA291C;}
	.st2{font-family:'Budvar-Regular';}
	.st3{font-size:140.4304px;}
</style>
<g>
	<g>
		<path class="st0" d="M142.43,40.33c-0.47-2.34-1.87-3.51-4.21-3.51h-16.01c-2.25,0-3.65,1.12-4.21,3.37l-24.86,88.47
			c-0.28,1.59,0,2.95,0.84,4.07c0.84,1.03,2.01,1.54,3.51,1.54h14.88c2.15,0,3.56-1.07,4.21-3.23l4.21-15.45h18.82l4.21,15.17
			c0.47,2.34,1.87,3.51,4.21,3.51h14.89c1.5,0,2.67-0.51,3.51-1.54c0.94-1.31,1.22-2.67,0.84-4.07L142.43,40.33z M134.84,95.65
			h-9.27l4.64-16.85L134.84,95.65z M52.4,40.33c-0.47-2.34-1.87-3.51-4.21-3.51H32.18c-2.25,0-3.65,1.12-4.21,3.37L3.11,128.66
			c-0.28,1.59,0,2.95,0.84,4.07c0.84,1.03,2.01,1.54,3.51,1.54h14.89c2.15,0,3.56-1.07,4.21-3.23l4.21-15.45h18.82l4.21,15.17
			c0.47,2.34,1.87,3.51,4.21,3.51H72.9c1.5,0,2.67-0.51,3.51-1.54c0.94-1.31,1.22-2.67,0.84-4.07L52.4,40.33z M44.81,95.65h-9.27
			l4.64-16.85L44.81,95.65z M231.72,38.92c-1.96-0.75-4.03-1.26-6.18-1.55c-2.15-0.28-4.31-0.42-6.46-0.42h-25.42
			c-1.12,0-2.16,0.47-3.09,1.41c-0.94,0.84-1.41,1.92-1.41,3.23v88.47c0,1.22,0.47,2.25,1.41,3.09c0.84,0.84,1.87,1.26,3.09,1.26
			h25.28c0.84,0,1.8-0.05,2.88-0.14c1.07-0.09,2.2-0.21,3.37-0.35c1.17-0.14,2.34-0.33,3.51-0.56c1.17-0.23,2.18-0.49,3.02-0.77
			c3.93-1.41,7.39-3.46,10.39-6.18c2.9-2.62,5.29-5.81,7.16-9.55c0.84-1.87,1.49-3.79,1.96-5.76c0.47-1.97,0.7-4.02,0.7-6.18v-0.7
			c0-3.56-0.75-7.21-2.25-10.95c-0.66-1.31-1.36-2.6-2.11-3.86c-0.75-1.26-1.64-2.46-2.67-3.58c1.03-1.12,1.92-2.32,2.67-3.58
			c0.75-1.26,1.45-2.55,2.11-3.86c0.75-1.78,1.31-3.58,1.68-5.41c0.38-1.83,0.56-3.72,0.56-5.69v-0.84c0-4.03-0.89-7.96-2.67-11.8
			c-1.87-3.75-4.26-6.93-7.16-9.55C239.12,42.39,235.65,40.33,231.72,38.92 M220.49,74.73h-8.01V59.14h8.85
			c2.34,0.28,4.07,1.13,5.2,2.53c1.31,1.4,1.97,3.14,1.97,5.2c0,2.15-0.66,3.93-1.97,5.34c-1.31,1.59-3,2.43-5.05,2.52H220.49z
			 M212.48,96.78h8.85c2.06,0.28,3.79,1.17,5.2,2.67c1.31,1.31,1.97,3,1.97,5.05c0,2.16-0.66,3.93-1.97,5.34
			c-1.31,1.59-3,2.43-5.05,2.53h-8.99V96.78z M317.41,68.83c0,1.31,0.47,2.39,1.4,3.23c0.84,0.84,1.87,1.26,3.09,1.26h14.32
			c1.22,0,2.25-0.42,3.09-1.26c0.94-0.84,1.4-1.92,1.4-3.23v-2.67c0-4.02-0.75-8.05-2.25-12.08c-1.59-3.74-3.7-7.11-6.32-10.11
			c-2.81-2.9-5.95-5.24-9.41-7.02c-3.65-1.68-7.58-2.67-11.8-2.95c-2.25-0.19-4.45-0.07-6.6,0.35c-2.16,0.42-4.22,1.01-6.18,1.75
			c-4.12,1.59-7.63,3.79-10.53,6.6c-3,2.9-5.34,6.27-7.02,10.11c-1.68,3.93-2.53,8.1-2.53,12.5v40.31c0,4.4,0.84,8.56,2.53,12.5
			c1.68,3.84,4.03,7.21,7.02,10.11c3.18,2.9,6.69,5.1,10.53,6.6c3.93,1.59,8.19,2.29,12.78,2.11c4.21-0.28,8.14-1.26,11.8-2.95
			c3.46-1.78,6.6-4.12,9.41-7.02c2.62-2.9,4.73-6.27,6.32-10.11c0.75-1.96,1.31-3.93,1.68-5.9c0.37-1.97,0.56-4.03,0.56-6.18v-2.67
			c0-1.31-0.47-2.39-1.4-3.23c-0.84-0.84-1.87-1.26-3.09-1.26h-14.32c-1.22,0-2.25,0.42-3.09,1.26c-0.94,0.84-1.4,1.92-1.4,3.23
			v3.09v0.42c0,2.25-0.77,4.14-2.32,5.69c-1.55,1.55-3.44,2.32-5.69,2.32c-2.25,0-4.14-0.77-5.69-2.32
			c-1.55-1.55-2.32-3.44-2.32-5.69V65.32c0-2.25,0.77-4.14,2.32-5.69c1.55-1.54,3.44-2.32,5.69-2.32c2.24,0,4.14,0.78,5.69,2.32
			c1.55,1.55,2.32,3.44,2.32,5.69v0.42V68.83z M406.41,39.06c-2.06-0.75-4.14-1.29-6.25-1.61c-2.11-0.33-4.28-0.5-6.53-0.5h-22.33
			c-1.4,0-2.53,0.42-3.37,1.27c-0.84,0.84-1.26,1.92-1.26,3.23v88.47c0,1.12,0.47,2.15,1.41,3.09c0.84,0.94,1.92,1.41,3.23,1.41
			h21.77c2.06,0,4.33-0.14,6.81-0.42c2.48-0.28,4.66-0.79,6.53-1.55c3.93-1.5,7.4-3.7,10.39-6.6c3-2.81,5.34-6.13,7.02-9.97
			c1.69-3.93,2.53-8.1,2.53-12.5V68.41c0-4.49-0.84-8.66-2.53-12.5c-1.68-3.84-4.02-7.21-7.02-10.11
			C413.9,42.9,410.44,40.65,406.41,39.06 M403.19,102.96c0,2.15-0.7,4.07-2.11,5.76c-1.4,1.59-3.04,2.44-4.92,2.53h-6.18V60.27h6.04
			c1.87,0.28,3.51,1.17,4.92,2.67c1.31,1.5,2.06,3.32,2.24,5.47V102.96z M501.34,36.95h-44.38c-1.12,0-2.15,0.47-3.09,1.41
			c-0.84,0.84-1.27,1.92-1.27,3.23v88.47c0,1.22,0.42,2.25,1.27,3.09c0.84,0.84,1.87,1.26,3.09,1.26h44.38
			c1.31,0,2.39-0.42,3.23-1.26c0.94-0.94,1.4-1.97,1.4-3.09V115.6c0-1.03-0.42-2.06-1.26-3.09c-1.03-0.84-2.15-1.26-3.37-1.26
			h-25.56v-13.9h19.94c1.31,0,2.39-0.4,3.23-1.19c0.84-0.8,1.26-1.85,1.26-3.16V78.66c0-1.4-0.42-2.5-1.26-3.3
			c-0.84-0.79-1.92-1.19-3.23-1.19h-19.94V60.41h25.56c1.4,0,2.53-0.42,3.37-1.26c0.84-0.84,1.26-1.92,1.26-3.23V41.59
			c0-1.4-0.42-2.53-1.26-3.37C503.87,37.38,502.75,36.95,501.34,36.95 M666.91,37.1h-44.52c-1.12,0-2.15,0.47-3.09,1.4
			c-0.94,0.94-1.4,2.02-1.4,3.23v88.47c0,1.13,0.47,2.16,1.4,3.09c0.84,0.84,1.87,1.26,3.09,1.26h14.33c1.22,0,2.25-0.42,3.09-1.26
			c0.94-0.84,1.41-1.87,1.41-3.09V97.48h20.22c3,0,4.49-1.45,4.49-4.36V78.8c0-3-1.5-4.5-4.49-4.5h-20.22V60.55h25.7
			c1.22,0,2.25-0.42,3.09-1.26c0.84-0.84,1.26-1.92,1.26-3.23V41.73c0-1.31-0.42-2.39-1.26-3.23
			C669.06,37.56,668.03,37.1,666.91,37.1 M746.51,40.19c-1.59-1.12-3.28-2.15-5.06-3.09c-3.65-1.68-7.63-2.67-11.94-2.95
			c-4.4-0.18-8.66,0.52-12.78,2.11c-3.93,1.5-7.4,3.7-10.39,6.6c-3,2.81-5.34,6.13-7.02,9.97c-1.68,3.93-2.52,8.1-2.52,12.5v39.6
			c0,4.4,0.75,8.43,2.25,12.08c1.5,3.84,3.6,7.21,6.32,10.11c2.81,3.09,5.94,5.43,9.41,7.02c3.65,1.87,7.58,2.85,11.8,2.95h1.54
			c3.84,0,7.58-0.66,11.24-1.97c1.97-0.75,4.26-2.11,6.88-4.07c2.62-1.96,5.2-5.2,7.72-9.69c0.56-0.93,1.07-1.96,1.55-3.09
			c0.47-1.12,0.89-2.41,1.26-3.86c0.37-1.45,0.68-3.16,0.91-5.13c0.23-1.96,0.35-4.3,0.35-7.02V86.11c0-1.69-0.09-2.85-0.28-3.51
			c-0.19-0.66-0.47-1.22-0.84-1.69c-0.28-0.37-0.7-0.72-1.27-1.05c-0.56-0.33-1.22-0.49-1.96-0.49h-23.31c-1.22,0-2.3,0.47-3.23,1.4
			c-0.84,0.84-1.26,1.87-1.26,3.09v10.11c0,1.22,0.42,2.25,1.26,3.09c0.84,0.84,1.92,1.26,3.23,1.26h5.76v7.02
			c0,2.16-0.7,4.07-2.11,5.76c-1.31,1.59-3.04,2.53-5.2,2.81c-2.43,0.19-4.49-0.51-6.18-2.11c-1.69-1.5-2.53-3.51-2.53-6.04V65.88
			c0-2.34,0.7-4.26,2.11-5.76c1.22-1.59,2.9-2.48,5.05-2.67c1.13-0.1,2.29,0.05,3.51,0.42c1.12,0.47,2.01,1.03,2.67,1.68
			c0.94,0.75,1.59,1.59,1.97,2.53c0.47,1.12,0.7,2.2,0.7,3.23v0.7c0,1.31,0.42,2.39,1.26,3.23c0.84,0.84,1.92,1.26,3.23,1.26h13.06
			c2.9,0,4.35-1.5,4.35-4.49V64.9c0-1.03-0.16-2.43-0.49-4.21c-0.33-1.78-0.8-3.68-1.41-5.69c-0.61-2.01-1.35-3.98-2.24-5.9
			c-0.89-1.92-1.9-3.58-3.02-4.98C749.55,42.62,748.1,41.31,746.51,40.19 M841.79,36.95h-14.32c-1.22,0-2.29,0.42-3.23,1.27
			c-0.84,0.84-1.27,1.92-1.27,3.23v32.43H807.8V41.45c0-1.31-0.42-2.39-1.26-3.23c-0.84-0.84-1.96-1.27-3.37-1.27h-14.33
			c-1.31,0-2.39,0.42-3.23,1.27c-0.84,0.84-1.26,1.92-1.26,3.23v88.47c0,1.22,0.42,2.3,1.26,3.23c0.94,0.84,2.01,1.26,3.23,1.26
			h14.33c1.31,0,2.39-0.42,3.23-1.26c0.93-1.13,1.4-2.2,1.4-3.23V97.2h15.17v32.72c0,1.22,0.47,2.3,1.4,3.23
			c0.84,0.84,1.87,1.26,3.09,1.26h14.32c1.22,0,2.25-0.47,3.09-1.41c0.94-0.84,1.41-1.87,1.41-3.09V41.45
			c0-1.31-0.47-2.39-1.41-3.23C844.04,37.38,843,36.95,841.79,36.95 M892.31,36.95h-14.56c-1.23,0-2.26,0.42-3.11,1.27
			c-0.84,0.84-1.26,1.92-1.26,3.23v88.47c0,1.22,0.42,2.25,1.26,3.09c0.94,0.94,1.98,1.41,3.11,1.41h14.56
			c1.13,0,2.16-0.47,3.11-1.41c0.94-0.93,1.41-1.96,1.41-3.09V41.45c0-1.22-0.47-2.29-1.41-3.23
			C894.57,37.38,893.54,36.95,892.31,36.95 M980.39,37.24h-14.32c-1.31,0-2.39,0.42-3.23,1.26c-0.84,0.84-1.26,1.92-1.26,3.23
			l-0.14,64.6c0,1.22-0.23,2.3-0.7,3.23c-0.47,1.22-1.08,2.11-1.83,2.67c-0.66,0.65-1.59,1.22-2.81,1.68
			c-1.03,0.47-2.11,0.61-3.23,0.42c-1.87-0.28-3.42-1.03-4.63-2.25c-1.4-1.4-2.25-2.95-2.53-4.63c-0.38-1.22-0.84-2.11-1.41-2.67
			c-0.93-0.94-1.96-1.31-3.09-1.12l-14.32,0.28c-1.22,0-2.3,0.47-3.23,1.4c-0.94,1.03-1.31,2.2-1.12,3.51
			c0.28,4.12,1.36,7.96,3.23,11.52c1.78,3.65,4.16,6.74,7.17,9.27c2.71,2.43,6.08,4.4,10.11,5.9c3.46,1.31,6.97,1.97,10.53,1.97
			c0.65,0,1.17-0.05,1.54-0.14c4.21-0.09,8.15-1.08,11.8-2.95c3.37-1.59,6.5-3.93,9.41-7.02c2.62-3,4.68-6.32,6.18-9.97
			c1.5-3.65,2.25-7.63,2.25-11.93V41.73c0-1.31-0.42-2.39-1.26-3.23C982.64,37.66,981.6,37.24,980.39,37.24 M1048.1,85.68l25-39.88
			c1.4-1.87,1.64-3.79,0.7-5.76c-1.03-2.06-2.67-3.09-4.92-3.09h-15.17c-0.66,0-1.43,0.17-2.32,0.5c-0.89,0.33-1.85,1.1-2.88,2.32
			l-13.62,22.47V41.45c0-1.31-0.42-2.39-1.26-3.23c-0.84-0.84-1.87-1.27-3.09-1.27h-14.47c-1.22,0-2.24,0.42-3.09,1.27
			c-0.84,0.84-1.26,1.92-1.26,3.23v88.47c0,1.22,0.42,2.25,1.26,3.09c0.84,0.94,1.87,1.41,3.09,1.41h14.47
			c1.21,0,2.25-0.47,3.09-1.41c0.84-0.84,1.26-1.87,1.26-3.09v-20.78l13.9,22.89c1.31,1.59,2.95,2.39,4.91,2.39h15.17
			c2.25,0,3.88-1.03,4.92-3.09c0.93-1.97,0.75-3.84-0.56-5.62L1048.1,85.68z M1148.86,111.1h-25.56V41.45c0-1.22-0.47-2.29-1.4-3.23
			c-0.84-0.84-1.88-1.27-3.09-1.27h-14.46c-1.22,0-2.25,0.42-3.09,1.27c-0.84,0.84-1.26,1.92-1.26,3.23v88.47
			c0,1.22,0.42,2.25,1.26,3.09c0.94,0.94,1.97,1.41,3.09,1.41h44.52c1.03,0,2.11-0.47,3.23-1.41c0.84-0.84,1.27-1.87,1.27-3.09
			V115.6c0-1.12-0.42-2.2-1.27-3.23C1151.25,111.53,1150.17,111.1,1148.86,111.1 M1254.94,36.95h-14.32c-1.03,0-1.78,0.21-2.25,0.63
			c-0.47,0.42-0.8,0.82-0.98,1.19l-17.83,36.23l-17.13-34.83c-0.47-0.56-0.75-1.03-0.84-1.4c-0.56-1.22-1.78-1.83-3.65-1.83h-14.33
			c-1.22,0-2.25,0.42-3.09,1.27c-0.94,0.84-1.41,1.92-1.41,3.23v88.47c0,1.22,0.47,2.25,1.41,3.09c0.84,0.94,1.87,1.41,3.09,1.41
			h14.33c1.22,0,2.29-0.47,3.23-1.41c0.84-0.84,1.27-1.87,1.27-3.09V89.06l9.12,18.96c0.75,1.68,2.15,2.53,4.22,2.53h7.44
			c2.15,0,3.56-0.84,4.21-2.53l9.13-18.96v40.87c0,1.22,0.42,2.3,1.26,3.23c0.94,0.84,2.01,1.26,3.23,1.26h14.32
			c1.31,0,2.39-0.47,3.23-1.41c0.94-0.93,1.4-1.96,1.4-3.09V41.45c0-1.31-0.44-2.39-1.33-3.23
			C1257.77,37.38,1256.53,36.95,1254.94,36.95"/>
		<path class="st0" d="M76.01,210.31H61.69c-1.31,0-2.39,0.42-3.23,1.27c-0.84,0.84-1.26,1.96-1.26,3.37v40.17l-19.94-40.87
			c-0.28-0.47-0.52-0.91-0.7-1.34c-0.19-0.42-0.47-0.82-0.84-1.19c-0.94-0.93-1.96-1.4-3.09-1.4H18.44c-1.03,0-2.02,0.47-2.95,1.4
			c-0.94,0.84-1.4,1.92-1.4,3.23v88.47c0,1.22,0.42,2.25,1.26,3.09c0.93,0.84,1.96,1.26,3.09,1.26H32.9c1.21,0,2.25-0.42,3.09-1.26
			c0.94-0.93,1.41-1.96,1.41-3.09v-40.3l19.8,40.87c0.65,1.12,1.26,1.97,1.83,2.53c0.93,0.84,1.87,1.26,2.81,1.26h14.18
			c1.31,0,2.39-0.42,3.23-1.26c0.94-0.93,1.4-1.96,1.4-3.09v-88.47c0-1.4-0.42-2.52-1.26-3.37
			C78.54,210.73,77.42,210.31,76.01,210.31 M150.88,209.88c-3.84-1.59-7.91-2.39-12.22-2.39c-4.31,0-8.38,0.8-12.22,2.39
			c-3.84,1.59-7.16,3.79-9.97,6.6c-2.81,2.81-5.05,6.13-6.74,9.97c-1.59,3.93-2.39,8.01-2.39,12.22v40.3
			c0,4.21,0.79,8.34,2.39,12.36c1.68,3.84,3.93,7.16,6.74,9.97c2.81,2.9,6.13,5.1,9.97,6.6c3.74,1.68,7.82,2.53,12.22,2.53
			c4.3,0,8.38-0.85,12.22-2.53c1.87-0.75,3.63-1.71,5.26-2.88c1.64-1.17,3.16-2.41,4.56-3.72c2.81-2.81,5.06-6.13,6.74-9.97
			c1.68-3.93,2.53-8.05,2.53-12.36v-40.3c0-4.3-0.84-8.38-2.53-12.22c-1.68-3.84-3.93-7.16-6.74-9.97
			C157.9,213.68,154.62,211.48,150.88,209.88 M130.65,279.12v-40.44c0-2.25,0.75-4.12,2.24-5.62c1.5-1.59,3.42-2.39,5.76-2.39
			c2.25,0,4.16,0.8,5.76,2.39c1.5,1.5,2.25,3.37,2.25,5.62v40.44c0,2.25-0.75,4.16-2.25,5.76c-1.59,1.59-3.51,2.39-5.76,2.39
			c-2.25,0-4.17-0.79-5.76-2.39C131.4,283.28,130.65,281.36,130.65,279.12 M239.23,212.27c-4.03-1.59-8.29-2.25-12.78-1.97h-25.56
			c-1.22,0-2.25,0.42-3.09,1.27c-0.84,0.84-1.26,1.92-1.26,3.23v88.47c0,1.22,0.42,2.3,1.26,3.23c0.84,0.84,1.87,1.26,3.09,1.26
			h14.46c1.22,0,2.3-0.47,3.23-1.4c0.75-0.94,1.12-1.96,1.12-3.09v-29.35h6.74c4.49,0.1,8.75-0.61,12.78-2.11
			c3.93-1.49,7.39-3.7,10.39-6.6c3-3,5.34-6.37,7.02-10.11c1.68-3.93,2.53-8.1,2.53-12.5v-0.84c0-4.49-0.84-8.71-2.53-12.64
			c-1.78-3.93-4.12-7.3-7.02-10.11C246.72,216.11,243.26,213.87,239.23,212.27 M233.9,247.8c-1.31,1.59-3.04,2.53-5.2,2.81h-8.99
			v-16.85l8.99-0.14c2.15,0.28,3.88,1.22,5.2,2.81c1.4,1.69,2.11,3.6,2.11,5.76C236,244.24,235.3,246.12,233.9,247.8 M347.04,290.44
			c0.75-1.78,1.31-3.51,1.69-5.19c0.56-2.25,0.84-4.64,0.84-7.16v-37.21c0-4.3-0.8-8.47-2.39-12.5c-1.5-3.93-3.7-7.39-6.6-10.39
			c-2.71-3-5.99-5.43-9.83-7.3c-1.87-0.93-3.84-1.66-5.9-2.18c-2.06-0.51-4.17-0.82-6.32-0.91c-2.34-0.19-4.61-0.07-6.81,0.35
			c-2.2,0.42-4.33,1.01-6.39,1.75c-3.93,1.5-7.54,3.75-10.81,6.74c-3.09,3.09-5.52,6.6-7.3,10.53c-1.78,3.84-2.67,8.19-2.67,13.06
			v37.07c0,4.31,0.79,8.47,2.39,12.5c1.59,4.12,3.74,7.58,6.46,10.39c1.4,1.5,2.92,2.86,4.56,4.07c1.64,1.22,3.39,2.29,5.27,3.23
			c1.87,1.03,3.84,1.78,5.9,2.25c2.06,0.47,4.16,0.8,6.32,0.98c5.34,0.09,10.3-0.84,14.89-2.81l4.77,4.64
			c0.47,0.56,0.96,0.91,1.47,1.05c0.51,0.14,0.96,0.21,1.34,0.21c0.47,0,0.93-0.07,1.4-0.21c0.47-0.14,0.98-0.49,1.55-1.05
			l11.09-11.24c1.87-1.87,1.87-3.79,0-5.75L347.04,290.44z M325.55,277.52c0,2.43-0.75,4.45-2.25,6.04
			c-1.4,1.69-3.23,2.67-5.48,2.95c-2.72,0.19-4.87-0.52-6.46-2.11c-1.78-1.69-2.67-3.79-2.67-6.32v-37.64c0-2.15,0.7-4.16,2.1-6.04
			c1.4-1.68,3.18-2.67,5.34-2.95h0.98c2.25,0,4.16,0.75,5.76,2.24c1.78,1.5,2.67,3.56,2.67,6.18V277.52z M507.95,212.27
			c-4.03-1.59-8.24-2.25-12.64-1.97h-25.42c-1.22,0-2.25,0.42-3.09,1.27c-0.94,0.94-1.4,2.01-1.4,3.23v88.47
			c0,1.12,0.47,2.15,1.4,3.09c0.84,0.94,1.87,1.4,3.09,1.4h14.33c1.22,0,2.29-0.47,3.23-1.4c0.84-0.84,1.26-1.87,1.26-3.09v-16.01
			l13.76,18.11c1.31,1.59,3.04,2.39,5.19,2.39h15.03c2.34,0,3.93-1.03,4.77-3.09c1.03-1.96,0.84-3.88-0.56-5.76l-20.36-26.54
			c2.34-0.84,4.49-1.87,6.46-3.09c2.9-1.78,5.57-4.08,8-6.88c2.34-2.62,4.08-5.61,5.2-8.99c1.31-3.46,1.97-7.07,1.97-10.81v-0.84
			c0-4.59-0.89-8.8-2.67-12.64c-1.78-3.93-4.12-7.3-7.02-10.11C515.48,216.2,511.97,213.96,507.95,212.27 M502.61,247.94
			c-1.4,1.5-3.09,2.39-5.05,2.67h-8.85v-16.99h8.85c2.25,0,3.93,0.84,5.05,2.53c1.31,1.69,1.96,3.7,1.96,6.04
			C504.58,244.43,503.93,246.35,502.61,247.94 M420.5,212.27c-4.03-1.59-8.24-2.25-12.64-1.97h-25.42c-1.22,0-2.25,0.42-3.09,1.27
			c-0.94,0.94-1.4,2.01-1.4,3.23v88.47c0,1.12,0.47,2.15,1.4,3.09c0.84,0.94,1.87,1.4,3.09,1.4h14.33c1.22,0,2.29-0.47,3.23-1.4
			c0.84-0.84,1.26-1.87,1.26-3.09v-16.01l13.76,18.11c1.31,1.59,3.04,2.39,5.19,2.39h15.03c2.34,0,3.93-1.03,4.77-3.09
			c1.03-1.96,0.84-3.88-0.56-5.76l-20.36-26.54c2.34-0.84,4.49-1.87,6.46-3.09c2.9-1.78,5.57-4.08,8-6.88
			c2.34-2.62,4.08-5.61,5.2-8.99c1.31-3.46,1.96-7.07,1.96-10.81v-0.84c0-4.59-0.89-8.8-2.67-12.64c-1.78-3.93-4.12-7.3-7.02-10.11
			C428.03,216.2,424.52,213.96,420.5,212.27 M415.16,247.94c-1.41,1.5-3.09,2.39-5.06,2.67h-8.85v-16.99h8.85
			c2.25,0,3.93,0.84,5.06,2.53c1.31,1.69,1.96,3.7,1.96,6.04C417.13,244.43,416.47,246.35,415.16,247.94 M595.61,209.74
			c-3.93-1.59-7.96-2.39-12.08-2.39h-0.84c-4.31,0-8.48,0.94-12.5,2.81c-3.84,1.68-7.16,4.03-9.97,7.02
			c-2.9,2.91-5.15,6.37-6.74,10.39c-1.59,4.03-2.25,8.33-1.96,12.92c0.18,2.34,0.61,4.63,1.26,6.88c0.37,1.03,0.77,2.09,1.19,3.16
			c0.42,1.08,0.96,2.14,1.62,3.16c0.75,1.12,1.57,2.2,2.46,3.23c0.89,1.03,1.95,1.96,3.16,2.81c3.55,2.72,7.25,4.92,11.09,6.6
			c1.87,0.75,3.65,1.47,5.33,2.18c1.68,0.7,3.32,1.43,4.92,2.18c3,1.31,5.34,2.76,7.02,4.35c1.41,1.31,2.11,2.95,2.11,4.92
			c-0.28,2.15-1.22,3.88-2.81,5.19c-1.69,1.4-3.58,2.11-5.69,2.11c-2.11,0-4-0.7-5.69-2.11c-1.59-1.31-2.53-2.99-2.81-5.05v-1.26
			c0-1.31-0.42-2.39-1.26-3.23c-0.84-0.84-1.92-1.26-3.23-1.26h-14.04c-1.4,0-2.53,0.42-3.37,1.26c-0.84,0.84-1.26,1.92-1.26,3.23
			v1.55c0,0.75,0.05,1.31,0.14,1.68c0.28,3.93,1.27,7.58,2.95,10.95c1.68,3.47,3.98,6.51,6.88,9.13c2.62,2.43,5.81,4.45,9.55,6.04
			c3.56,1.5,7.44,2.25,11.66,2.25h0.84c4.49,0,8.71-0.85,12.64-2.53c3.84-1.68,7.21-4.02,10.11-7.02c2.9-3,5.1-6.46,6.6-10.39
			c1.59-4.21,2.25-8.47,1.97-12.78c0-1.87-0.38-3.93-1.12-6.18c-0.47-1.03-0.94-2.03-1.41-3.02s-0.98-1.94-1.55-2.88
			c-1.31-2.25-2.76-4.07-4.35-5.48c-1.59-1.59-3.37-3-5.33-4.21c-1.69-0.93-3.37-1.78-5.05-2.53c-0.75-0.28-1.55-0.58-2.39-0.91
			c-0.84-0.33-1.68-0.63-2.52-0.91c-0.75-0.28-1.55-0.56-2.39-0.84c-0.84-0.28-1.68-0.56-2.53-0.84c-1.59-0.56-3.14-1.26-4.64-2.11
			c-1.87-1.12-3.37-2.29-4.49-3.51c-0.94-1.4-1.59-2.48-1.96-3.23c-0.28-1.12-0.42-2.15-0.42-3.09c0.28-2.15,1.17-3.84,2.67-5.06
			c1.68-1.4,3.6-2.11,5.76-2.11c2.15,0,4.07,0.7,5.76,2.11c1.59,1.22,2.52,2.81,2.81,4.78v1.26c0,3.19,1.5,4.77,4.49,4.77h14.18
			c1.4,0,2.5-0.42,3.3-1.27c0.79-0.84,1.19-1.96,1.19-3.37v-1.4c-0.1-4.21-1.03-8.19-2.81-11.94c-0.75-1.87-1.71-3.6-2.88-5.2
			c-1.17-1.59-2.45-3.04-3.86-4.35C602.3,213.4,599.07,211.24,595.61,209.74 M688.75,210.31h-44.52c-1.4,0-2.53,0.42-3.37,1.27
			c-0.84,0.84-1.27,1.96-1.27,3.37v14.33c0,1.31,0.42,2.39,1.27,3.23c0.84,0.84,1.97,1.26,3.37,1.26h10.53v69.65
			c0,1.22,0.42,2.25,1.26,3.09c0.94,0.84,2.03,1.26,3.25,1.26h14.42c1.22,0,2.26-0.42,3.11-1.26c0.94-0.84,1.41-1.87,1.41-3.09
			v-69.65h10.53c1.31,0,2.36-0.42,3.16-1.26c0.79-0.84,1.19-1.92,1.19-3.23v-14.33c0-1.4-0.4-2.52-1.19-3.37
			C691.11,210.73,690.05,210.31,688.75,210.31 M776.47,210.17h-14.46c-1.13,0-2.15,0.47-3.09,1.4c-0.84,0.84-1.26,1.92-1.26,3.23
			v63.9c0,2.15-0.7,4.07-2.11,5.76c-1.31,1.59-3.04,2.52-5.2,2.81c-1.31,0.19-2.43,0.05-3.37-0.42c-1.12-0.47-2.06-1.03-2.81-1.69
			c-0.75-0.75-1.4-1.68-1.97-2.81c-0.47-1.12-0.7-2.2-0.7-3.23V214.8c0-1.31-0.42-2.39-1.26-3.23c-0.94-0.94-1.96-1.4-3.09-1.4
			h-14.46c-1.13,0-2.16,0.47-3.09,1.4c-0.84,0.84-1.27,1.92-1.27,3.23v63.47c0,4.4,0.75,8.43,2.25,12.08
			c1.4,3.75,3.46,7.11,6.18,10.11c2.71,3,5.9,5.34,9.55,7.02c3.65,1.87,7.58,2.85,11.8,2.95h1.4c3.93,0,7.72-0.66,11.37-1.97
			c3.93-1.5,7.4-3.7,10.39-6.6c2.99-2.9,5.33-6.27,7.02-10.11c1.78-4.12,2.67-8.33,2.67-12.64V214.8c0-1.22-0.47-2.29-1.41-3.23
			C778.62,210.63,777.59,210.17,776.47,210.17 M875.68,210.31H860.8c-1.12,0-2.06,0.3-2.81,0.91c-0.75,0.61-1.22,1.43-1.4,2.46
			l-13.76,48.73l-13.48-48.45c-0.47-2.43-1.87-3.65-4.22-3.65h-14.88c-1.4,0-2.58,0.61-3.51,1.83h-0.14
			c-0.75,1.03-0.98,2.34-0.7,3.93l24.86,88.47c0.56,2.15,1.96,3.23,4.21,3.23h15.87c2.34,0,3.79-1.07,4.36-3.23l24.86-88.47
			c0.28-1.5,0-2.81-0.84-3.93C878.26,210.92,877.09,210.31,875.68,210.31 M982.18,210.31h-13.2c-1.03,0-2.11,0.47-3.23,1.4
			c-0.84,0.84-1.26,1.83-1.26,2.95l-4.21,41.29l-7.02-18.68c-0.56-2.06-1.97-3.09-4.22-3.09h-7.02c-1.78,0-3.19,0.94-4.21,2.81
			l-7.16,18.82l-4.07-40.87c0-1.4-0.42-2.52-1.26-3.37c-0.84-0.84-1.92-1.27-3.23-1.27h-13.34c-1.13,0-2.16,0.47-3.09,1.4
			c-0.84,0.84-1.26,1.97-1.26,3.37l8.01,88.33c0,1.03,0.37,2.01,1.12,2.95c0.84,0.94,1.96,1.4,3.37,1.4h13.62
			c0.93,0,1.64-0.16,2.1-0.49c0.47-0.33,0.84-0.63,1.13-0.91c0.09-0.18,0.47-0.89,1.12-2.11l10.67-27.24l10.81,27.66l0.84,1.4
			c0.18,0.38,0.54,0.75,1.05,1.12c0.51,0.38,1.28,0.56,2.32,0.56h13.62c1.31,0,2.39-0.42,3.23-1.26c0.84-0.84,1.26-1.83,1.26-2.95
			l8-88.61c0-1.4-0.42-2.52-1.26-3.37C984.57,210.73,983.49,210.31,982.18,210.31 M1072.16,300.46l-18.11-41.43l18.82-43.53
			c0.47-1.69,0.04-3.04-1.26-4.08c-0.94-0.75-1.97-1.12-3.09-1.12h-14.32c-1.31,0-2.43,0.56-3.37,1.69
			c-0.19,0.28-0.35,0.56-0.49,0.84c-0.14,0.28-0.3,0.61-0.49,0.98l-7.72,17.83l-7.73-17.55c-0.19-0.47-0.38-0.87-0.56-1.19
			c-0.19-0.33-0.38-0.68-0.56-1.05c-0.75-1.03-1.78-1.55-3.09-1.55h-14.47c-1.03,0-2.01,0.38-2.95,1.12
			c-1.41,0.84-1.83,2.25-1.26,4.21l18.82,43.39l-18.26,41.57l-0.7,2.11c-0.47,1.59-0.05,2.9,1.26,3.93
			c1.03,0.75,2.06,1.12,3.09,1.12h14.05c0.65,0,1.4-0.21,2.25-0.63c0.84-0.42,1.64-1.38,2.39-2.88l7.73-17.83l7.72,17.98
			c0.37,0.75,0.89,1.45,1.54,2.11c0.84,0.84,1.92,1.26,3.23,1.26h13.9c1.12,0,2.2-0.37,3.23-1.12c1.22-1.22,1.59-2.53,1.13-3.93
			L1072.16,300.46z M1161.41,210.31h-14.46c-1.59,0-2.67,0.61-3.23,1.83c-0.09,0.28-0.42,0.84-0.98,1.69l-11.37,22.05l-11.51-22.18
			c-0.19-0.38-0.35-0.68-0.49-0.91c-0.14-0.23-0.3-0.44-0.49-0.63c-0.66-1.21-1.83-1.83-3.51-1.83h-14.47
			c-1.12,0-2.15,0.47-3.09,1.4c-0.84,0.84-1.26,1.92-1.26,3.23c0,0.47,0.04,0.8,0.14,0.98l23.03,46.06v41.43
			c0,0.84,0.16,1.52,0.49,2.04c0.33,0.51,0.63,0.91,0.91,1.19c0.75,0.75,1.78,1.12,3.09,1.12h14.32c1.31,0,2.34-0.37,3.09-1.12
			c0.93-0.75,1.4-1.83,1.4-3.23v-41.15l22.89-46.34c0.18-0.19,0.28-0.51,0.28-0.98c0-1.31-0.42-2.39-1.26-3.23
			C1163.99,210.78,1162.82,210.31,1161.41,210.31 M1244.31,284.59h-21.63l25.98-68.11c0.28-1.03,0.33-1.87,0.14-2.53
			c-0.19-0.65-0.42-1.22-0.7-1.68c-0.84-1.31-2.11-1.97-3.79-1.97h-49.71c-1.31,0-2.36,0.42-3.16,1.27
			c-0.8,0.84-1.19,1.96-1.19,3.37v14.33c0,2.9,1.45,4.35,4.35,4.35h21.91l-25.56,67.13l-0.7,1.97c-0.66,1.59-0.28,2.9,1.12,3.93
			c0.84,0.75,1.92,1.12,3.23,1.12h49.71c1.31,0,2.39-0.42,3.23-1.26c0.84-0.84,1.27-1.87,1.27-3.09v-14.32
			C1248.8,286.09,1247.3,284.59,1244.31,284.59"/>
		<text transform="matrix(1 0 0 1 1248.9141 307.7627)" class="st1 st2 st3"> </text>
		<path class="st0" d="M244.64,383.37h-15.45c-0.38,0-0.82,0.09-1.34,0.28c-0.51,0.19-1.05,0.51-1.61,0.98
			c-0.75,0.56-1.22,1.12-1.41,1.68c-0.19,0.56-0.28,1.08-0.28,1.55v88.89c0,1.31,0.61,2.43,1.83,3.37c0.75,0.65,1.68,0.98,2.81,0.98
			h15.45c1.31,0,2.39-0.4,3.23-1.19c0.84-0.79,1.26-1.84,1.26-3.16v-88.89c0-1.22-0.42-2.25-1.26-3.09
			C246.93,383.84,245.85,383.37,244.64,383.37 M331.34,459.63h-30.75c1.4-2.34,2.95-4.44,4.63-6.32c1.69-1.87,3.32-3.56,4.92-5.05
			c1.59-1.5,3.06-2.79,4.42-3.87c1.36-1.07,2.46-1.99,3.3-2.74c3.56-2.99,6.74-6.08,9.55-9.27c1.41-1.69,2.71-3.39,3.93-5.13
			c1.22-1.73,2.34-3.53,3.37-5.41c2.06-3.93,3.09-7.91,3.09-11.94c0-4.59-0.8-8.85-2.39-12.78c-0.75-1.96-1.66-3.79-2.74-5.48
			c-1.07-1.68-2.27-3.23-3.58-4.64c-3-2.81-6.22-4.96-9.69-6.46c-1.87-0.75-3.79-1.31-5.76-1.69c-1.96-0.37-4.02-0.56-6.18-0.56
			h-0.7c-2.15,0-4.17,0.19-6.04,0.56c-1.87,0.38-3.74,0.94-5.61,1.69c-3.65,1.59-6.79,3.7-9.41,6.32c-2.62,2.34-4.82,5.39-6.6,9.13
			c-1.78,3.84-2.67,7.68-2.67,11.52v4.64c0,1.4,0.47,2.52,1.4,3.37c1.03,0.75,2.06,1.13,3.09,1.13h13.62c1.41,0,2.53-0.4,3.37-1.19
			c0.84-0.79,1.27-1.9,1.27-3.3l-0.14-4.36c0.19-2.06,1.03-3.7,2.52-4.91c1.22-1.03,2.55-1.69,4-1.97c1.45-0.28,2.93-0.09,4.42,0.56
			c1.13,0.47,2.01,1.03,2.67,1.69c0.66,0.47,1.26,1.22,1.83,2.25c0.47,0.94,0.7,1.68,0.7,2.25c0,2.53-0.56,4.92-1.69,7.16
			c-0.66,1.12-1.34,2.2-2.03,3.23c-0.7,1.03-1.48,2.01-2.32,2.95c-1.68,1.96-3.51,3.65-5.48,5.05c-1.03,0.75-1.97,1.47-2.81,2.18
			c-0.84,0.7-1.64,1.38-2.39,2.03c-4.21,3.28-7.72,6.25-10.53,8.92c-2.81,2.67-5.15,5.17-7.02,7.51c-1.87,2.44-3.3,5.18-4.28,8.22
			c-0.98,3.04-1.52,5.54-1.61,7.51v14.33c0,1.22,0.42,2.25,1.26,3.09c0.84,0.84,1.87,1.26,3.09,1.26h51.96c1.4,0,2.43-0.47,3.09-1.4
			c0.84-0.84,1.26-1.83,1.26-2.95v-12.78c0-1.12-0.42-2.11-1.26-2.95C333.77,460.1,332.74,459.63,331.34,459.63 M414.45,429.86
			c1.12-1.03,2.2-2.39,3.23-4.07c1.03-1.68,1.9-3.74,2.6-6.18c0.7-2.43,1.06-5.34,1.06-8.71c0-4.49-0.7-8.56-2.11-12.22
			c-1.31-3.55-3.37-6.74-6.18-9.55c-2.53-2.71-5.57-4.78-9.13-6.18c-3.74-1.5-7.58-2.24-11.52-2.24h-0.56
			c-3.84,0-7.54,0.75-11.09,2.24c-3.37,1.31-6.41,3.28-9.13,5.9c-2.62,2.62-4.68,5.57-6.18,8.85c-1.69,3.37-2.53,7.02-2.53,10.95
			v2.67c0,1.31,0.47,2.39,1.4,3.23c0.94,0.75,1.92,1.13,2.95,1.13h12.92c2.9,0,4.35-1.45,4.35-4.36v-2.39
			c0.19-1.96,0.98-3.56,2.39-4.77c1.12-0.94,2.39-1.55,3.79-1.82c1.4-0.28,2.81-0.1,4.21,0.56c0.47,0.19,1.03,0.51,1.69,0.98
			c0.65,0.47,1.17,0.98,1.54,1.55c1.13,1.59,1.73,2.95,1.83,4.07c0.09,1.12,0.14,2.06,0.14,2.81c0,1.87-0.49,3.51-1.47,4.92
			c-0.99,1.4-2.2,2.6-3.65,3.58c-1.45,0.98-3.02,1.74-4.7,2.25c-1.69,0.52-3.23,0.77-4.64,0.77c-0.47,0-0.8,0.12-0.98,0.35
			c-0.19,0.23-0.38,0.44-0.56,0.63c-0.19,0.37-0.28,0.7-0.28,0.98v13.06c0,0.38,0.09,0.7,0.28,0.98c0.28,0.66,0.79,0.98,1.54,0.98
			c1.41,0,2.95,0.26,4.64,0.77c1.69,0.52,3.25,1.26,4.7,2.25c1.45,0.98,2.67,2.18,3.65,3.58c0.98,1.4,1.47,3.04,1.47,4.91
			c0,0.66-0.05,1.57-0.14,2.74c-0.1,1.17-0.7,2.55-1.83,4.14c-0.38,0.56-0.89,1.08-1.54,1.55c-0.66,0.47-1.22,0.79-1.69,0.98
			c-2.9,1.22-5.57,0.75-8-1.4c-1.4-1.03-2.2-2.57-2.39-4.63v-2.39c0-2.9-1.45-4.36-4.35-4.36h-12.92c-1.22,0-2.2,0.38-2.95,1.13
			c-0.94,0.84-1.4,1.92-1.4,3.23v2.67c0,3.93,0.84,7.58,2.53,10.95c1.5,3.28,3.56,6.23,6.18,8.85c2.71,2.43,5.76,4.4,9.13,5.9
			c3.37,1.4,7.07,2.11,11.09,2.11h0.56c4.12,0,7.96-0.7,11.52-2.11c3.56-1.41,6.6-3.46,9.13-6.18c2.71-2.71,4.77-5.9,6.18-9.55
			c1.4-3.65,2.11-7.73,2.11-12.22c0-3.37-0.35-6.27-1.06-8.71c-0.7-2.44-1.57-4.49-2.6-6.18c-1.03-1.68-2.11-3.07-3.23-4.14
			c-1.12-1.07-2.11-1.9-2.95-2.46C412.34,431.68,413.32,430.89,414.45,429.86 M515.76,438.98h-11.09v-51.25
			c0-1.13-0.47-2.15-1.4-3.09c-0.84-0.84-1.92-1.26-3.23-1.26h-13.76h-0.7h-0.14c-0.66,0-1.43,0.17-2.32,0.49
			c-0.89,0.33-1.57,0.73-2.04,1.19c-0.09,0.19-0.79,1.26-2.1,3.23c-1.31,1.96-2.95,4.49-4.92,7.58c-1.97,3.09-4.17,6.48-6.6,10.18
			c-2.43,3.7-4.82,7.35-7.16,10.95c-2.34,3.6-4.52,6.93-6.53,9.97c-2.01,3.04-3.58,5.41-4.7,7.09c-0.47,0.75-0.84,1.47-1.12,2.18
			c-0.28,0.7-0.52,1.38-0.7,2.03c-0.19,0.75-0.28,1.45-0.28,2.11v3.23v3.51v7.44c0,1.31,0.42,2.39,1.26,3.23
			c0.94,0.94,1.97,1.41,3.09,1.41h30.48v17.41c0,1.59,0.56,2.71,1.68,3.37c0.94,0.75,1.87,1.12,2.81,1.12h13.76
			c1.4,0,2.53-0.42,3.37-1.26c0.84-0.84,1.26-1.92,1.26-3.23v-17.41h11.09c1.12,0,2.15-0.47,3.09-1.41
			c0.84-0.84,1.26-1.92,1.26-3.23v-10.95c0-1.31-0.42-2.39-1.26-3.23C517.92,439.45,516.89,438.98,515.76,438.98 M471.67,438.98
			l10.11-15.59v15.59H471.67z M599.25,423.82c-2.9-2.71-6.27-4.73-10.11-6.04c-1.87-0.75-3.79-1.26-5.76-1.54
			c-1.97-0.28-3.93-0.42-5.9-0.42h-0.98c-2.53,0.09-4.73,0.51-6.6,1.26c-0.47,0.19-0.96,0.42-1.48,0.7
			c-0.51,0.28-1.05,0.61-1.61,0.98V405.7h32.44c1.4,0,2.53-0.47,3.37-1.4c0.75-0.93,1.12-1.92,1.12-2.95v-13.06
			c0-1.12-0.38-2.15-1.12-3.09c-0.94-0.93-2.06-1.4-3.37-1.4h-49.01c-1.03,0-2.1,0.47-3.23,1.4c-0.84,0.84-1.26,1.87-1.26,3.09v52.1
			c0,1.22,0.42,2.24,1.26,3.09c0.94,0.84,2.01,1.26,3.23,1.26h12.92c1.77,0,3.28-0.66,4.49-1.97c0.37-0.56,0.66-1.07,0.84-1.55
			c0.28-0.56,0.63-1.17,1.05-1.83c0.42-0.65,1.24-1.35,2.46-2.11c1.12-0.66,2.34-0.98,3.65-0.98c1.31,0,2.67,0.23,4.07,0.7
			c1.21,0.47,2.29,1.17,3.23,2.11c0.94,0.94,1.83,2.25,2.67,3.93c0.66,1.59,0.98,3.7,0.98,6.32c0,2.72-0.33,4.87-0.98,6.46
			c-0.84,1.78-1.73,3.14-2.67,4.07c-0.94,0.94-2.02,1.64-3.23,2.11c-1.87,0.66-3.49,0.89-4.84,0.7c-1.36-0.18-2.74-0.79-4.14-1.83
			c-1.69-1.31-2.67-2.99-2.95-5.05c-0.19-0.75-0.38-1.36-0.56-1.83c-0.19-0.47-0.51-0.94-0.98-1.4c-0.84-0.84-1.87-1.26-3.08-1.26
			h-12.92c-1.12,0-2.1,0.42-2.95,1.26c-1.03,0.84-1.55,1.96-1.55,3.37c0.09,2.06,0.35,4.05,0.77,5.97c0.42,1.92,1.1,3.72,2.04,5.41
			c1.68,3.47,3.93,6.46,6.74,8.99c2.81,2.34,6.04,4.26,9.69,5.76c3.74,1.31,7.63,1.96,11.65,1.96h0.7c4.02,0,7.96-0.84,11.8-2.52
			c3.65-1.59,7.02-4.03,10.11-7.3c3-3.18,5.34-6.93,7.02-11.23c1.78-4.59,2.67-9.41,2.67-14.46c0-2.71-0.23-5.27-0.7-7.66
			c-0.47-2.39-1.13-4.66-1.97-6.81C604.68,430.14,602.34,426.72,599.25,423.82 M687.87,430.56c-2.81-2.81-6.13-5.05-9.97-6.74
			c-3.18-1.31-6.53-2.08-10.04-2.32c-3.51-0.23-6.95,0.07-10.32,0.91v-10.25c0-2.15,0.8-4.03,2.39-5.62
			c1.5-1.59,3.42-2.39,5.76-2.39c2.25,0,4.12,0.8,5.61,2.39c1.59,1.78,2.39,3.65,2.39,5.62c0,0.75,0.14,1.36,0.42,1.83
			c0.19,0.47,0.51,0.87,0.98,1.19c0.47,0.33,1.08,0.49,1.83,0.49h9.27c2.15,0,4.45-0.05,6.88-0.14c0.75-0.09,1.4-0.32,1.97-0.7
			c0.47-0.28,0.89-0.68,1.26-1.19c0.38-0.52,0.52-1.24,0.42-2.18c-0.09-2.06-0.33-4.14-0.7-6.25c-0.38-2.11-0.89-3.86-1.55-5.27
			c-1.59-3.74-3.79-7.02-6.6-9.83c-2.81-2.81-6.13-5.05-9.97-6.74c-3.84-1.59-7.91-2.39-12.21-2.39c-4.31,0-8.38,0.8-12.22,2.39
			c-3.65,1.59-6.98,3.84-9.97,6.74c-2.81,2.81-5.01,6.09-6.6,9.83c-1.69,3.84-2.53,7.92-2.53,12.22v40.44
			c0,4.4,0.84,8.47,2.53,12.22c1.59,3.84,3.79,7.11,6.6,9.83c3,3,6.32,5.24,9.97,6.74c3.74,1.68,7.82,2.53,12.22,2.53
			c4.3,0,8.38-0.84,12.21-2.53c3.84-1.59,7.16-3.84,9.97-6.74c2.9-2.9,5.1-6.18,6.6-9.83c1.68-3.75,2.53-7.82,2.53-12.22
			c0-4.4-0.84-8.42-2.53-12.08C692.88,436.79,690.68,433.46,687.87,430.56 M665.62,460.75c-2.2,0-4.1-0.79-5.69-2.39
			c-1.59-1.59-2.39-3.51-2.39-5.76c0-1.97,0.8-3.84,2.39-5.62c1.59-1.59,3.51-2.39,5.76-2.39c2.15,0,4.02,0.79,5.61,2.39
			c1.59,1.78,2.39,3.65,2.39,5.62c0,2.34-0.8,4.26-2.39,5.76C669.71,459.96,667.81,460.75,665.62,460.75 M772.23,383.52h-1.83
			h-12.92h-31.6c-1.22,0-2.25,0.42-3.09,1.26c-0.84,0.84-1.26,1.87-1.26,3.09v14.47c0,1.22,0.42,2.27,1.26,3.16
			c0.84,0.89,1.87,1.33,3.09,1.33h22.47l-14.32,67.97c-0.28,1.59-0.31,2.76-0.07,3.51c0.23,0.75,0.63,1.36,1.19,1.83
			c1.12,0.65,2.06,0.98,2.81,0.98h14.04c2.25,0,3.72-0.37,4.42-1.12c0.7-0.75,1.24-1.87,1.62-3.37l18.4-87.49
			c0.19-1.03,0.19-1.9,0-2.6c-0.19-0.7-0.51-1.29-0.98-1.76C774.71,383.94,773.63,383.52,772.23,383.52 M859,424.24
			c0.84-1.87,1.45-3.84,1.83-5.9c0.37-2.06,0.56-4.16,0.56-6.32c0-4.59-0.79-8.66-2.39-12.22c-1.5-3.65-3.7-6.93-6.6-9.83
			c-2.81-2.81-6.13-5.06-9.97-6.74c-3.84-1.69-7.91-2.53-12.22-2.53c-4.31,0-8.38,0.84-12.21,2.53c-3.65,1.59-6.98,3.84-9.97,6.74
			c-1.31,1.4-2.55,2.92-3.72,4.56c-1.17,1.64-2.13,3.4-2.88,5.27c-1.69,3.84-2.53,7.91-2.53,12.22c0,4.4,0.84,8.47,2.53,12.22
			c1.21,3,2.9,5.67,5.05,8.01c-2.15,2.43-3.84,5.1-5.05,8c-1.69,3.84-2.53,7.91-2.53,12.22c0,4.4,0.84,8.47,2.53,12.22
			c0.75,1.87,1.71,3.63,2.88,5.27c1.17,1.64,2.41,3.16,3.72,4.56c3,2.9,6.32,5.15,9.97,6.74c3.74,1.69,7.82,2.53,12.21,2.53
			c4.31,0,8.38-0.84,12.22-2.53c3.84-1.68,7.16-3.93,9.97-6.74c2.9-2.9,5.1-6.18,6.6-9.83c1.59-3.56,2.39-7.63,2.39-12.22
			c0-4.58-0.79-8.66-2.39-12.22c-1.22-2.81-2.86-5.48-4.92-8C856.14,429.72,857.78,427.05,859,424.24 M830.21,404.02
			c2.25,0,4.12,0.8,5.62,2.39c1.59,1.59,2.39,3.47,2.39,5.62c0,2.06-0.8,3.98-2.39,5.76c-1.59,1.59-3.49,2.39-5.69,2.39
			c-2.2,0-4.1-0.79-5.69-2.39c-1.59-1.78-2.39-3.7-2.39-5.76c0-2.15,0.79-4.02,2.39-5.62C825.95,404.81,827.87,404.02,830.21,404.02
			 M830.14,460.61c-2.2,0-4.1-0.8-5.69-2.39c-1.59-1.59-2.39-3.51-2.39-5.76c0-2.15,0.79-4.02,2.39-5.61
			c1.5-1.59,3.42-2.39,5.76-2.39c2.25,0,4.12,0.8,5.62,2.39c1.59,1.59,2.39,3.46,2.39,5.61c0,2.25-0.8,4.17-2.39,5.76
			C834.24,459.82,832.34,460.61,830.14,460.61 M940.52,390.25c-2.81-2.71-6.09-4.91-9.83-6.6c-3.93-1.69-8.01-2.53-12.22-2.53
			c-4.31,0-8.43,0.84-12.36,2.53c-3.75,1.68-7.07,3.88-9.97,6.6c-1.31,1.5-2.53,3.07-3.65,4.71c-1.12,1.64-2.11,3.4-2.95,5.27
			c-1.59,3.93-2.39,8-2.39,12.22c0,4.31,0.79,8.34,2.39,12.08c1.5,3.84,3.7,7.16,6.6,9.97c2.81,2.81,6.13,5.05,9.97,6.74
			c3.18,1.31,6.55,2.08,10.11,2.32c3.56,0.23,6.97-0.07,10.25-0.91v10.25c0,2.15-0.8,4.03-2.39,5.62c-1.59,1.59-3.47,2.39-5.62,2.39
			c-2.24,0-4.16-0.79-5.76-2.39c-1.59-1.59-2.39-3.46-2.39-5.62c0-0.66-0.14-1.22-0.42-1.68c-0.19-0.47-0.51-0.89-0.98-1.26
			c-0.47-0.38-1.08-0.56-1.82-0.56c-0.75,0-1.99,0.03-3.72,0.07c-1.73,0.05-3.53,0.07-5.41,0.07h-6.88
			c-0.75,0.09-1.41,0.33-1.97,0.7c-0.47,0.28-0.91,0.7-1.33,1.26c-0.42,0.56-0.58,1.26-0.49,2.11c0.19,2.06,0.47,4.14,0.84,6.25
			c0.37,2.11,0.84,3.82,1.4,5.13c1.5,3.84,3.7,7.17,6.6,9.97c2.81,2.81,6.13,5.06,9.97,6.74c3.93,1.59,8.05,2.38,12.36,2.38
			s8.38-0.79,12.22-2.38c3.84-1.78,7.11-4.02,9.83-6.74c2.72-2.71,4.96-5.99,6.74-9.83c0.75-1.87,1.36-3.84,1.83-5.9
			c0.47-2.06,0.7-4.16,0.7-6.32v-40.44c0-2.15-0.23-4.26-0.7-6.32s-1.08-4.02-1.83-5.9C945.67,396.58,943.42,393.25,940.52,390.25
			 M918.47,420.45c-2.24,0-4.16-0.79-5.76-2.39c-1.59-1.78-2.39-3.65-2.39-5.62c0-2.25,0.79-4.16,2.39-5.76
			c1.59-1.59,3.49-2.39,5.69-2.39c2.2,0,4.09,0.79,5.69,2.39c1.59,1.5,2.39,3.42,2.39,5.76c0,2.15-0.8,4.03-2.39,5.62
			C922.5,419.65,920.62,420.45,918.47,420.45 M1019.34,383.66c-3.84-1.59-7.91-2.39-12.22-2.39c-4.31,0-8.38,0.79-12.22,2.39
			c-3.75,1.68-7.02,3.93-9.83,6.74c-2.81,2.81-5.05,6.13-6.74,9.97c-1.69,3.65-2.53,7.68-2.53,12.08v40.59
			c0,4.31,0.84,8.33,2.53,12.08c1.68,3.84,3.93,7.16,6.74,9.97c2.81,2.81,6.09,5.06,9.83,6.74c3.93,1.59,8,2.39,12.22,2.39
			c4.21,0,8.29-0.8,12.22-2.39c3.84-1.68,7.16-3.93,9.97-6.74c2.81-2.81,5.01-6.13,6.6-9.97c1.69-3.74,2.53-7.77,2.53-12.08v-40.59
			c0-4.21-0.84-8.24-2.53-12.08c-1.59-3.74-3.79-7.06-6.6-9.97C1026.5,387.59,1023.18,385.34,1019.34,383.66 M1015.13,453.03
			c0,2.25-0.75,4.12-2.25,5.61c-1.59,1.59-3.51,2.39-5.76,2.39c-2.25,0-4.17-0.79-5.76-2.39c-1.5-1.5-2.25-3.37-2.25-5.61v-40.59
			c0-2.15,0.75-4.02,2.25-5.62c1.59-1.59,3.51-2.39,5.76-2.39c2.15,0,4.02,0.8,5.62,2.39c1.59,1.59,2.39,3.47,2.39,5.62V453.03z"/>
	</g>
	<text transform="matrix(1 0 0 1 1038.4375 481.1152)" class="st1 st2 st3"> </text>
	<g>
		<path class="st0" d="M44.35,557.01c-1.03,0-2.01,0.42-2.95,1.27c-0.75,0.47-1.22,1.01-1.4,1.61c-0.19,0.61-0.28,1.15-0.28,1.62
			v56.45c0,1.4,0.56,2.53,1.68,3.37c0.94,0.66,1.92,0.98,2.95,0.98H59.8c1.31,0,2.39-0.4,3.23-1.19c0.84-0.79,1.26-1.84,1.26-3.16
			V561.5c0-1.22-0.42-2.25-1.26-3.09c-0.94-0.93-2.02-1.4-3.23-1.4H44.35z M44.35,629.89c-0.94,0-1.92,0.38-2.95,1.12
			c-0.75,0.57-1.22,1.15-1.4,1.76c-0.19,0.61-0.28,1.15-0.28,1.62v15.73c0,1.41,0.56,2.53,1.68,3.37c0.94,0.66,1.92,0.98,2.95,0.98
			H59.8c1.31,0,2.39-0.39,3.23-1.19c0.84-0.79,1.26-1.84,1.26-3.16v-15.73c0-1.22-0.42-2.25-1.26-3.09c-0.84-0.93-1.92-1.4-3.23-1.4
			H44.35z M112.95,629.89c-0.38,0-0.82,0.07-1.34,0.21c-0.52,0.14-1.05,0.45-1.62,0.91c-0.75,0.57-1.22,1.13-1.4,1.69
			c-0.19,0.56-0.28,1.08-0.28,1.55v15.73c0,1.4,0.61,2.57,1.83,3.51c0.93,0.66,1.87,0.98,2.81,0.98h15.45c1.41,0,2.5-0.42,3.3-1.26
			c0.79-0.84,1.19-1.92,1.19-3.23v-15.73c0-1.22-0.42-2.24-1.26-3.09c-0.84-0.84-1.92-1.27-3.23-1.27H112.95z M150.94,574.35
			c-0.51-2.11-1.15-4.14-1.89-6.11c-0.75-1.97-1.66-3.79-2.74-5.48c-1.08-1.69-2.27-3.23-3.58-4.63c-3-2.81-6.23-4.96-9.69-6.46
			c-1.88-0.75-3.82-1.31-5.83-1.69c-2.01-0.37-4.09-0.56-6.25-0.56h-0.7c-2.06,0-4.05,0.19-5.97,0.56
			c-1.92,0.38-3.82,0.94-5.69,1.69c-3.65,1.59-6.79,3.7-9.41,6.32c-2.72,2.62-4.92,5.71-6.6,9.27c-1.59,3.37-2.48,7.21-2.67,11.52
			v1.69c0,1.4,0.47,2.53,1.4,3.37c0.94,0.84,1.97,1.26,3.09,1.26h13.62c1.4,0,2.53-0.42,3.37-1.26c0.84-0.84,1.26-1.97,1.26-3.37
			v-1.4c0.09-2.06,0.94-3.74,2.53-5.06c2.53-2.06,5.33-2.52,8.42-1.4c0.47,0.19,1.05,0.54,1.75,1.05c0.7,0.52,1.24,1.06,1.62,1.62
			c1.22,1.78,1.87,3.28,1.97,4.49c0.09,1.22,0.14,2.15,0.14,2.81c0,0.47-0.21,1.43-0.63,2.88c-0.42,1.45-1.75,3.53-4,6.25
			c-1.03,1.22-2.34,2.43-3.93,3.65c-1.59,1.22-3.23,2.76-4.91,4.64c-2.06,2.15-3.56,4.42-4.49,6.81c-0.94,2.39-1.64,4.56-2.11,6.53
			c-0.47,2.34-0.7,4.63-0.7,6.88c0,0.38,0.09,0.75,0.28,1.12c0.28,0.66,0.84,0.98,1.69,0.98h19.52c0.37,0,0.75-0.14,1.12-0.42
			c0.28-0.18,0.56-0.44,0.84-0.77c0.28-0.33,0.42-0.77,0.42-1.33c0-0.28-0.02-0.89-0.07-1.83c-0.05-0.93,0.05-2.01,0.28-3.23
			c0.23-1.22,0.63-2.51,1.19-3.86c0.56-1.35,1.5-2.55,2.81-3.58c2.06-1.78,3.95-3.56,5.69-5.34c1.73-1.78,3.28-3.72,4.64-5.83
			c1.35-2.11,2.43-4.37,3.23-6.81c0.79-2.43,1.28-5.15,1.47-8.14C151.62,578.72,151.45,576.46,150.94,574.35 M208.2,563.75
			c-0.84,0.84-1.26,1.87-1.26,3.09v6.6c-0.09,0.56-0.04,1.17,0.14,1.83c0.19,1.22,0.7,2.48,1.54,3.79c0.75,1.31,1.69,2.81,2.81,4.49
			c1.12,1.68,2.22,3.3,3.3,4.84c1.07,1.54,2.01,2.88,2.81,4c0.8,1.12,1.24,1.73,1.34,1.83c0.84,1.03,2.06,1.54,3.65,1.54h4.49
			c0.94,0,1.87-0.32,2.81-0.98c1.12-0.84,1.68-1.96,1.68-3.37v-24.58c0-0.47-0.1-1-0.28-1.62c-0.19-0.61-0.66-1.14-1.4-1.61
			c-0.94-0.84-1.87-1.26-2.81-1.26h-15.59C210.22,562.34,209.14,562.81,208.2,563.75 M177.73,563.75c-0.84,0.84-1.26,1.87-1.26,3.09
			v6.6c-0.1,0.56-0.05,1.17,0.14,1.83c0.18,1.22,0.7,2.48,1.55,3.79c0.75,1.31,1.69,2.81,2.81,4.49c1.12,1.68,2.22,3.3,3.3,4.84
			c1.07,1.54,2.01,2.88,2.81,4c0.79,1.12,1.24,1.73,1.33,1.83c0.84,1.03,2.06,1.54,3.65,1.54h4.36c1.03,0,2.01-0.32,2.95-0.98
			c1.13-0.94,1.69-2.06,1.69-3.37v-24.58c0-0.47-0.09-1-0.28-1.62c-0.19-0.61-0.66-1.14-1.41-1.61c-0.56-0.47-1.1-0.79-1.61-0.98
			c-0.52-0.19-0.96-0.28-1.33-0.28h-15.45C179.74,562.34,178.67,562.81,177.73,563.75 M261.3,629.89c-0.94,0-1.92,0.38-2.95,1.12
			c-0.75,0.57-1.22,1.15-1.4,1.76s-0.28,1.15-0.28,1.62v15.73c0,1.31,0.61,2.43,1.83,3.37c0.75,0.66,1.68,0.98,2.81,0.98h15.45
			c3,0,4.49-1.45,4.49-4.35v-15.73c0-1.22-0.42-2.25-1.26-3.09c-0.94-0.93-2.01-1.4-3.23-1.4H261.3z M261.3,592.67
			c-0.38,0-0.82,0.1-1.34,0.28c-0.52,0.19-1.06,0.51-1.62,0.98c-0.75,0.56-1.22,1.12-1.4,1.68c-0.19,0.56-0.28,1.08-0.28,1.54v15.73
			c0,1.31,0.61,2.43,1.83,3.37c0.75,0.66,1.68,0.98,2.81,0.98h15.45c3,0,4.49-1.45,4.49-4.35v-15.73c0-1.21-0.42-2.24-1.26-3.09
			c-0.94-0.93-2.01-1.4-3.23-1.4H261.3z M328.26,629.89h-15.45c-0.38,0-0.82,0.07-1.34,0.21c-0.51,0.14-1.05,0.45-1.61,0.91
			c-0.75,0.57-1.22,1.13-1.4,1.69c-0.19,0.56-0.28,1.08-0.28,1.55v15.73c0,1.4,0.61,2.57,1.83,3.51c0.75,0.66,1.69,0.98,2.81,0.98
			h15.45c3,0,4.49-1.5,4.49-4.49v-15.73c0-1.22-0.42-2.24-1.26-3.09C330.65,630.31,329.57,629.89,328.26,629.89 M380.83,631.71
			h-15.45c-0.38,0-0.82,0.07-1.33,0.21c-0.52,0.14-1.06,0.45-1.62,0.91c-0.75,0.56-1.22,1.12-1.4,1.68
			c-0.19,0.56-0.28,1.08-0.28,1.55v24.58c0,1.31,0.61,2.43,1.83,3.37c0.75,0.66,1.69,0.98,2.81,0.98h4.35c1.68,0,2.9-0.52,3.65-1.55
			c0.09-0.09,0.54-0.7,1.34-1.83c0.79-1.12,1.73-2.46,2.81-4c1.07-1.55,2.18-3.16,3.3-4.85c1.12-1.68,2.11-3.18,2.95-4.49
			c0.75-1.4,1.22-2.67,1.4-3.79c0.09-0.56,0.14-1.13,0.14-1.69v-6.74c0-1.21-0.42-2.25-1.26-3.09
			C383.22,632.14,382.14,631.71,380.83,631.71 M488.89,632.56c-0.84-1.87-1.97-3.51-3.37-4.92c-1.4-1.4-3.04-2.53-4.91-3.37
			c-1.97-0.84-4.03-1.26-6.18-1.26c-2.16,0-4.21,0.42-6.18,1.26c-1.88,0.84-3.51,1.97-4.92,3.37c-1.4,1.4-2.53,3.04-3.37,4.92
			c-0.84,1.96-1.26,4.02-1.26,6.18c0,2.25,0.42,4.26,1.26,6.04c0.85,1.97,1.97,3.65,3.37,5.06c1.4,1.4,3.04,2.53,4.92,3.37
			c1.96,0.75,4.05,1.15,6.25,1.19c2.2,0.05,4.23-0.35,6.11-1.19c1.87-0.84,3.51-1.97,4.91-3.37c1.4-1.4,2.53-3.09,3.37-5.06
			c0.84-1.78,1.26-3.79,1.26-6.04C490.16,636.58,489.74,634.52,488.89,632.56 M477.66,641.97c-0.84,0.84-1.92,1.27-3.23,1.27
			c-1.22,0-2.3-0.42-3.23-1.27c-0.84-0.93-1.26-2.01-1.26-3.23c0-1.31,0.42-2.39,1.26-3.23c0.93-0.94,2.01-1.38,3.23-1.33
			c1.22,0.05,2.29,0.49,3.23,1.33c0.84,0.84,1.26,1.92,1.26,3.23C478.92,639.95,478.5,641.03,477.66,641.97 M437.01,579.76
			c-0.14-1.03-0.45-2.01-0.91-2.95c-0.84-1.97-1.97-3.65-3.37-5.06s-3.09-2.53-5.05-3.37c-1.97-0.75-3.98-1.13-6.04-1.13
			c-2.06,0-4.12,0.38-6.18,1.13c-1.78,0.75-3.42,1.87-4.91,3.37c-1.4,1.4-2.53,3.09-3.37,5.06c-0.84,1.87-1.26,3.89-1.26,6.04
			c0,2.16,0.42,4.22,1.26,6.18c0.84,1.87,1.96,3.51,3.37,4.92c1.4,1.4,3.04,2.53,4.91,3.37c1.87,0.84,3.91,1.26,6.11,1.26
			c2.2,0,4.24-0.42,6.11-1.26c1.96-0.84,3.65-1.97,5.05-3.37c1.4-1.41,2.53-3.04,3.37-4.92c0.75-1.78,1.12-3.84,1.12-6.18
			C437.22,581.82,437.14,580.79,437.01,579.76 M424.86,586.07c-1.03,0.84-2.1,1.27-3.23,1.27c-1.31,0-2.39-0.42-3.23-1.27
			c-0.84-0.93-1.26-2.01-1.26-3.23c0-1.12,0.42-2.2,1.26-3.23c0.93-0.84,2.01-1.26,3.23-1.26c1.22,0,2.29,0.42,3.23,1.26
			c0.84,1.03,1.26,2.11,1.26,3.23C426.12,584.06,425.7,585.14,424.86,586.07 M462.21,561.78c-0.37,0-0.82,0.09-1.33,0.28
			c-0.51,0.19-1.05,0.52-1.61,0.98c-0.66,0.47-1.08,0.91-1.26,1.34c-0.19,0.42-0.52,1.05-0.98,1.89l-41.99,87.07
			c-0.56,1.49-0.63,2.67-0.21,3.51c0.42,0.84,0.91,1.49,1.47,1.96c0.94,0.65,1.87,0.98,2.8,0.98h14.05c2.9,0,4.87-1.5,5.9-4.49
			l42.27-87.77c0.38-1.87,0.05-3.32-0.98-4.35c-0.94-0.94-2.01-1.4-3.23-1.4H462.21z M562.87,590.57h13.06
			c2.9,0,4.35-1.49,4.35-4.49v-1.12c0-1.03-0.16-2.43-0.49-4.21c-0.33-1.78-0.8-3.67-1.4-5.69c-0.61-2.02-1.36-3.98-2.25-5.9
			c-0.89-1.92-1.9-3.58-3.02-4.98c-1.31-1.5-2.74-2.81-4.28-3.93c-1.55-1.12-3.26-2.15-5.13-3.09c-3.65-1.68-7.63-2.67-11.94-2.95
			c-4.59-0.28-8.85,0.42-12.78,2.11c-3.84,1.5-7.3,3.65-10.39,6.46c-3,3-5.34,6.37-7.02,10.11c-1.78,4.12-2.67,8.29-2.67,12.5v13.76
			h-2.25c-1.31,0-2.39,0.42-3.23,1.26s-1.26,1.92-1.26,3.23v10.95c0,1.41,0.42,2.53,1.26,3.37s1.92,1.27,3.23,1.27h2.25v5.9v25
			c0,1.22,0.47,2.3,1.41,3.23c0.84,0.84,1.87,1.26,3.09,1.26h52.38c1.31,0,2.39-0.42,3.23-1.26c0.84-0.84,1.26-1.92,1.26-3.23
			v-14.32c0-1.22-0.42-2.25-1.26-3.09c-0.84-0.93-1.92-1.4-3.23-1.4h-33.56v-5.34v-6.74h20.08c2.9,0,4.36-1.5,4.36-4.49v-10.95
			c0-1.4-0.4-2.53-1.19-3.37c-0.8-0.84-1.85-1.26-3.16-1.26h-20.08v-13.2c0-2.15,0.7-4.07,2.11-5.76c1.4-1.69,3.13-2.57,5.19-2.67
			c1.22-0.19,2.39-0.05,3.51,0.42c0.47,0.19,0.94,0.4,1.4,0.63c0.47,0.23,0.89,0.58,1.26,1.05c0.94,0.75,1.59,1.59,1.97,2.53
			c0.47,0.94,0.7,2.01,0.7,3.23v0.7c0,1.31,0.42,2.39,1.26,3.23C560.48,590.15,561.56,590.57,562.87,590.57 M651.23,575.12h-9.55
			l4.91-7.73c0.56-1.03,0.65-2.11,0.28-3.23c-0.28-0.84-0.8-1.5-1.55-1.97l-3.65-2.25c-2.06-1.31-3.79-0.98-5.2,0.98l-5.33,8.57
			l-5.05-8.99c-0.66-1.03-1.55-1.64-2.67-1.83c-0.84-0.19-1.64-0.05-2.39,0.42l-3.79,2.1c-2.25,1.22-2.76,2.9-1.54,5.06l4.92,8.85
			h-10.39c-1.22,0-2.15,0.47-2.81,1.4c-0.56,0.84-0.84,1.64-0.84,2.39v4.35c0,2.53,1.22,3.79,3.65,3.79h9.83l-5.48,8.56
			c-0.56,1.03-0.7,1.92-0.42,2.67c0.28,1.03,0.84,1.83,1.68,2.39l3.65,2.39c0.28,0.19,0.63,0.35,1.06,0.49
			c0.42,0.14,0.96,0.16,1.61,0.07c0.75-0.19,1.31-0.42,1.68-0.7c0.37-0.28,0.66-0.61,0.84-0.98l5.76-8.99l4.92,9.13
			c0.56,0.94,1.31,1.55,2.24,1.83c0.94,0.28,1.92,0.14,2.95-0.42l3.79-2.11c0.75-0.37,1.31-1.03,1.69-1.97
			c0.28-0.75,0.37-1.36,0.28-1.83c-0.1-0.47-0.24-0.89-0.42-1.26l-5.2-9.27h10.53c0.93,0,1.78-0.38,2.53-1.13
			c0.75-0.75,1.12-1.63,1.12-2.67v-4.35c0-0.28-0.05-0.63-0.14-1.05c-0.1-0.42-0.38-0.87-0.84-1.34
			C653.06,575.59,652.16,575.12,651.23,575.12 M714.08,644.63c0-0.56-0.09-1.03-0.28-1.4c-0.38-0.94-1.08-1.4-2.11-1.4
			c-1.97-0.1-3.65-1.03-5.06-2.81c-1.4-1.5-2.1-3.37-2.1-5.62v-0.28v-49.15v-0.28c0-2.34,0.7-4.26,2.1-5.76
			c1.41-1.59,3.09-2.48,5.06-2.67c0.56,0,1.01-0.16,1.34-0.49c0.32-0.33,0.58-0.68,0.77-1.05c0.18-0.37,0.28-0.84,0.28-1.41v-17.97
			c0-0.47-0.09-0.89-0.28-1.26c-0.19-0.28-0.47-0.56-0.84-0.84c-0.38-0.28-0.94-0.37-1.69-0.28c-1.87,0.19-3.63,0.4-5.27,0.63
			s-3.25,0.68-4.85,1.33c-1.87,0.75-3.7,1.69-5.48,2.81c-1.78,1.13-3.42,2.39-4.91,3.79c-2.91,2.81-5.25,6.18-7.02,10.11
			c-1.68,3.93-2.53,8.14-2.53,12.64v0.28v49.99v0.28c0,4.4,0.84,8.57,2.53,12.5c1.69,3.84,4.03,7.21,7.02,10.11
			c1.5,1.49,3.14,2.78,4.91,3.86c1.78,1.08,3.6,1.99,5.48,2.74c1.59,0.66,3.21,1.1,4.85,1.34c1.64,0.23,3.39,0.44,5.27,0.63
			c1.31,0.09,2.15-0.28,2.53-1.12c0.18-0.38,0.28-0.8,0.28-1.26V644.63z M738.01,572.17c0,0.56,0.1,1.03,0.28,1.4
			c0.37,0.94,1.07,1.4,2.11,1.4c1.97,0.1,3.65,1.03,5.06,2.81c1.4,1.5,2.11,3.37,2.11,5.62v0.28v49.15v0.28
			c0,2.34-0.7,4.26-2.11,5.76c-1.4,1.59-3.09,2.48-5.06,2.67c-1.03,0.1-1.73,0.61-2.11,1.55c-0.19,0.37-0.28,0.84-0.28,1.4v17.97
			c0,0.47,0.1,0.89,0.28,1.26c0.37,0.84,1.22,1.21,2.53,1.12c1.87-0.19,3.63-0.4,5.26-0.63c1.64-0.23,3.25-0.68,4.84-1.33
			c1.87-0.75,3.7-1.69,5.48-2.81c1.78-1.13,3.42-2.39,4.92-3.79c2.9-2.81,5.24-6.18,7.02-10.11c1.68-3.93,2.53-8.14,2.53-12.64
			v-0.28v-49.99v-0.28c0-4.4-0.84-8.57-2.53-12.5c-1.68-3.84-4.03-7.21-7.02-10.11c-1.5-1.5-3.14-2.78-4.92-3.86
			c-1.78-1.08-3.6-1.99-5.48-2.74c-1.59-0.66-3.2-1.1-4.84-1.33c-1.64-0.23-3.39-0.45-5.26-0.63c-0.75-0.09-1.31,0-1.68,0.28
			c-0.38,0.28-0.66,0.56-0.84,0.84c-0.19,0.38-0.28,0.8-0.28,1.26V572.17z M850.41,598.29c-0.56-0.18-1.08-0.28-1.55-0.28h-15.02
			v-14.88c0-1.4-0.56-2.53-1.69-3.37c-0.75-0.66-1.68-0.98-2.81-0.98h-10.53c-3,0-4.49,1.46-4.49,4.36v14.88H799.3
			c-1.31,0-2.43,0.61-3.37,1.83c-0.66,1.03-0.98,1.97-0.98,2.81v10.53c0,3,1.45,4.49,4.36,4.49h15.02v14.89
			c0,1.22,0.42,2.25,1.26,3.09c0.84,0.94,1.92,1.4,3.23,1.4h10.53c0.37,0,0.82-0.07,1.34-0.21c0.51-0.14,1.05-0.45,1.61-0.92
			c0.75-0.56,1.2-1.15,1.34-1.75c0.14-0.61,0.21-1.15,0.21-1.62v-14.89h15.02c1.22,0,2.25-0.42,3.09-1.26
			c0.84-0.84,1.26-1.92,1.26-3.23v-10.53c0-0.38-0.07-0.82-0.21-1.34c-0.14-0.51-0.44-1.06-0.91-1.62
			C851.54,598.95,850.97,598.48,850.41,598.29 M932.47,559.54h-14.89c-0.37,0-0.82,0.07-1.33,0.21c-0.51,0.14-1.05,0.44-1.61,0.91
			c-0.66,0.56-1.08,1.03-1.27,1.4c-0.19,0.38-0.52,0.98-0.98,1.83l-41.99,87.21c-0.56,1.5-0.63,2.64-0.21,3.44
			c0.42,0.8,0.91,1.43,1.47,1.9c0.75,0.65,1.69,0.98,2.81,0.98h14.04c2.9,0,4.87-1.45,5.9-4.36l42.27-87.91
			c0.37-1.87,0.05-3.32-0.98-4.35C934.85,559.95,933.78,559.54,932.47,559.54 M996.14,615.57v-15.45c0-0.37-0.1-0.82-0.28-1.34
			c-0.19-0.51-0.51-1.05-0.98-1.62c-0.47-0.75-1.01-1.21-1.62-1.4c-0.61-0.18-1.15-0.28-1.61-0.28h-33c-1.31,0-2.44,0.61-3.37,1.83
			c-0.66,0.75-0.98,1.68-0.98,2.81v15.45c0,3,1.45,4.49,4.35,4.49h33c1.21,0,2.25-0.42,3.09-1.26
			C995.66,617.86,996.14,616.78,996.14,615.57 M1098.04,576.67c-3.56-3.56-7.86-6.32-12.92-8.28c-4.96-2.06-10.72-3.09-17.27-3.09
			c-6.28,0-12.22,1.08-17.83,3.23c-5.43,2.25-10.21,5.29-14.33,9.13c-3.93,3.93-7.02,8.47-9.27,13.62
			c-2.24,5.33-3.37,11.05-3.37,17.13c0,2.9,0.21,5.73,0.63,8.5c0.42,2.76,1.15,5.45,2.18,8.07c2.06,5.34,4.96,9.83,8.71,13.48
			c3.84,3.93,8.52,6.98,14.04,9.13c5.43,2.25,11.84,3.37,19.24,3.37c1.12,0,2.24-0.07,3.37-0.21c1.12-0.14,2.34-0.3,3.65-0.49
			c2.25-0.56,4.08-1.21,5.48-1.97c0.47-0.18,0.86-0.37,1.19-0.56c0.33-0.19,0.63-0.42,0.91-0.7c0.28-0.18,0.58-0.51,0.91-0.98
			c0.33-0.47,0.49-1.12,0.49-1.96v-5.48c0-0.75-0.16-1.34-0.49-1.75c-0.33-0.42-0.63-0.73-0.91-0.92c-0.37-0.18-0.79-0.33-1.26-0.42
			c-0.47-0.09-1.08,0.05-1.83,0.42c-0.84,0.38-1.73,0.7-2.67,0.98c-0.94,0.28-1.87,0.51-2.81,0.7c-1.03,0.19-2.03,0.33-3.02,0.42
			c-0.98,0.1-1.99,0.14-3.02,0.14c-2.16,0-4.22-0.19-6.18-0.56c-1.97-0.37-3.88-0.93-5.76-1.69c-3.56-1.59-6.65-3.6-9.27-6.04
			c-2.44-2.62-4.45-5.76-6.04-9.41c-1.4-3.65-2.1-7.67-2.1-12.08c0-4.68,0.79-8.9,2.39-12.64c0.75-1.87,1.66-3.6,2.74-5.2
			c1.08-1.59,2.27-3.04,3.58-4.35c2.71-2.53,5.85-4.49,9.41-5.9c3.56-1.5,7.37-2.22,11.45-2.18c4.07,0.05,7.74,0.63,11.02,1.75
			c3.37,1.22,6.27,3,8.71,5.33c2.43,2.44,4.26,5.25,5.48,8.43c1.31,3.47,1.96,7.26,1.96,11.38c0,2.71-0.14,4.96-0.42,6.74
			c-0.19,0.84-0.35,1.61-0.49,2.32c-0.14,0.7-0.3,1.29-0.49,1.75c-0.19,0.47-0.42,0.87-0.7,1.19c-0.28,0.33-0.51,0.59-0.7,0.77
			c-0.47,0.28-1.01,0.45-1.62,0.49c-0.61,0.05-1.33-0.21-2.18-0.77c-0.56-0.37-0.84-1.22-0.84-2.53v-13.34
			c0-2.43-0.51-4.77-1.54-7.02c-0.94-2.06-2.39-3.93-4.36-5.62c-0.94-0.75-1.92-1.4-2.95-1.96c-1.03-0.57-2.16-1.03-3.37-1.41
			c-2.44-0.84-5.01-1.26-7.72-1.26c-3.75,0-6.98,0.61-9.69,1.83c-3,1.31-5.43,3-7.3,5.05c-1.87,2.06-3.42,4.63-4.63,7.72
			c-1.13,3-1.69,6.13-1.69,9.41c0,3.28,0.42,6.37,1.26,9.27c0.85,2.91,2.2,5.53,4.07,7.86c1.87,2.16,4.31,3.89,7.3,5.2
			c2.71,1.31,6.27,1.96,10.67,1.96c2.06,0,3.74-0.23,5.05-0.7c1.59-0.38,3.04-0.94,4.35-1.69c0.84-0.56,1.69-0.84,2.53-0.84h0.14
			c0.93,0,1.83,0.28,2.67,0.84c0.65,0.38,1.28,0.73,1.89,1.05c0.61,0.33,1.19,0.59,1.76,0.78c1.21,0.38,2.9,0.56,5.05,0.56
			c2.81,0,5.29-0.7,7.44-2.11c2.15-1.31,4.03-3.23,5.62-5.75c0.75-1.22,1.4-2.55,1.97-4c0.56-1.45,1.03-3.02,1.4-4.71
			c0.84-3.37,1.26-7.07,1.26-11.09c0-5.62-0.94-10.86-2.81-15.73C1104.22,584.34,1101.51,580.13,1098.04,576.67 M1074.45,614.72
			c0,1.78-0.65,3.09-1.96,3.93c-1.31,0.94-2.86,1.4-4.63,1.4c-2.72,0-4.64-1.03-5.76-3.09c-0.75-1.13-1.27-2.41-1.55-3.86
			c-0.28-1.45-0.42-3.02-0.42-4.7c0-1.69,0.19-3.23,0.56-4.64c0.38-1.4,0.94-2.62,1.69-3.65c1.5-2.06,3.32-3.09,5.48-3.09
			c1.78,0,3.32,0.51,4.63,1.55c1.31,1.03,1.96,2.9,1.96,5.62V614.72z M1221.95,592.04c-0.57-0.51-1.46-0.72-2.67-0.63l-10.82,0.14
			l2.67-9.41c0.38-1.59,0.14-2.71-0.7-3.37c-0.75-0.75-1.59-1.12-2.53-1.12h-11.65c-0.28,0-0.63,0.05-1.06,0.14
			c-0.42,0.09-0.87,0.38-1.34,0.84c-0.47,0.47-0.79,0.82-0.98,1.05c-0.19,0.24-0.42,0.73-0.7,1.47l-3.09,10.39h-11.8l2.81-9.41
			c0.28-1.69,0.04-2.81-0.7-3.37c-0.75-0.75-1.59-1.12-2.53-1.12h-11.65c-0.28,0-0.63,0.05-1.05,0.14
			c-0.42,0.09-0.87,0.38-1.33,0.84c-0.47,0.47-0.8,0.82-0.98,1.05c-0.19,0.24-0.42,0.73-0.7,1.47l-3.09,10.53h-9.97
			c-0.75,0.09-1.29,0.16-1.62,0.21c-0.33,0.05-0.77,0.3-1.33,0.77c-0.47,0.28-0.82,0.61-1.05,0.98c-0.23,0.38-0.4,0.7-0.49,0.98
			l-3.23,11.09c-0.28,0.94-0.19,1.87,0.28,2.81c0.47,1.03,1.5,1.55,3.09,1.55h8.99l-3.37,11.38h-9.97
			c-0.75,0.09-1.29,0.19-1.62,0.28c-0.33,0.09-0.77,0.33-1.34,0.7c-0.47,0.38-0.8,0.73-0.98,1.05c-0.19,0.33-0.33,0.63-0.42,0.91
			l-3.23,11.09c-0.38,0.94-0.28,1.87,0.28,2.81c0.47,1.03,1.5,1.59,3.09,1.69h8.71l-2.67,9.41c-0.47,1.22-0.56,2.13-0.28,2.74
			s0.65,1.1,1.12,1.47c0.66,0.56,1.41,0.84,2.25,0.84h10.95c1.12,0,2.08-0.32,2.88-0.98c0.79-0.65,1.43-1.5,1.9-2.53l3.23-11.09
			h11.79l-2.81,9.55c-0.47,1.22-0.56,2.13-0.28,2.74s0.65,1.1,1.12,1.47c0.65,0.56,1.4,0.84,2.25,0.84h10.95
			c1.12,0,2.08-0.32,2.88-0.98c0.79-0.65,1.43-1.5,1.89-2.53l3.23-11.09l12.5-0.14c2.53-0.18,4.07-1.31,4.63-3.37l3.09-10.67
			c0.19-0.84,0.14-1.64-0.14-2.39c-0.19-0.47-0.54-0.93-1.06-1.4c-0.51-0.47-1.43-0.65-2.74-0.56h-10.95l3.37-11.38h12.5
			c2.34-0.18,3.88-1.35,4.64-3.51l2.95-10.53c0.28-0.75,0.28-1.55,0-2.39C1222.88,593.05,1222.51,592.56,1221.95,592.04
			 M1180.38,621.32l-11.8,0.14l3.37-11.38h11.8L1180.38,621.32z"/>
		<path class="st0" d="M553.14,30.69c0.46,0.46,0.97,0.75,1.5,0.87c0.19,0.04,0.39,0.07,0.59,0.06c0.75,0,1.46-0.32,2.09-0.95
			l16.62-16.06c1.22-1.21,1.18-2.79-0.08-4.03l-6.81-6.63c-0.65-0.63-1.34-0.97-2.1-0.95c-0.51,0-1.26,0.16-2.01,0.89l-16.63,16.06
			c-1.26,1.25-1.25,2.86,0.02,4.1L553.14,30.69z"/>
		<path class="st0" d="M109.55,28.84h14.26c0.88,0,1.68-0.34,2.33-0.99c0.64-0.64,0.98-1.49,0.98-2.46V12.09
			c0-0.96-0.34-1.82-0.98-2.45c-0.64-0.65-1.44-0.99-2.33-0.99h-14.26c-0.88,0-1.68,0.34-2.32,0.99c-0.65,0.64-0.99,1.5-0.99,2.45
			v13.29c0,0.98,0.35,1.83,0.99,2.46C107.87,28.5,108.68,28.84,109.55,28.84"/>
		<path class="st0" d="M154.06,9.64c-0.64-0.65-1.44-0.99-2.32-0.99h-14.26c-0.88,0-1.68,0.34-2.32,0.99
			c-0.64,0.64-0.98,1.49-0.98,2.46v13.29c0,0.97,0.34,1.82,0.98,2.46c0.64,0.64,1.44,0.98,2.32,0.98h14.26
			c0.88,0,1.65-0.33,2.32-0.98c0.64-0.64,0.98-1.5,0.98-2.46V12.09C155.04,11.13,154.71,10.28,154.06,9.64"/>
		<path class="st0" d="M491.58,193.61c0.6,0.58,1.39,0.92,2.23,0.92c0.48,0.15,0.61-0.03,0.89-0.12c0.63-0.11,1.21-0.42,1.68-0.88
			l20.5-20.51c0.58-0.6,0.91-1.39,0.91-2.23c0-0.84-0.33-1.63-0.91-2.23l-7.74-7.73c-1.24-1.22-3.23-1.22-4.46,0l-10.74,10.76
			l-10.66-10.67c-1.19-1.17-3.27-1.17-4.46,0l-7.73,7.74c-1.23,1.24-1.23,3.22,0,4.46L491.58,193.61z"/>
		<path class="st0" d="M584.13,36.95h-44.38c-1.12,0-2.15,0.47-3.09,1.41c-0.84,0.84-1.26,1.92-1.26,3.23v88.47
			c0,1.22,0.42,2.25,1.26,3.09c0.84,0.84,1.87,1.26,3.09,1.26h44.38c1.31,0,2.39-0.42,3.23-1.26c0.94-0.94,1.4-1.97,1.4-3.09V115.6
			c0-1.03-0.42-2.06-1.26-3.09c-1.03-0.84-2.15-1.26-3.37-1.26h-25.56v-13.9h19.94c1.31,0,2.39-0.4,3.23-1.19
			c0.84-0.8,1.26-1.85,1.26-3.16V78.66c0-1.4-0.42-2.5-1.26-3.3c-0.84-0.79-1.92-1.19-3.23-1.19h-19.94V60.41h25.56
			c1.4,0,2.53-0.42,3.37-1.26c0.84-0.84,1.26-1.92,1.26-3.23V41.59c0-1.4-0.42-2.53-1.26-3.37
			C586.66,37.38,585.53,36.95,584.13,36.95"/>
	</g>
</g>
</svg>
