<?xml version="1.0" encoding="utf-8"?>
<!-- Generator: Adobe Illustrator 23.0.4, SVG Export Plug-In . SVG Version: 6.00 Build 0)  -->
<svg version="1.1" id="Layer_1" xmlns="http://www.w3.org/2000/svg" xmlns:xlink="http://www.w3.org/1999/xlink" x="0px" y="0px"
	 viewBox="0 0 1072 1072" style="enable-background:new 0 0 1072 1072;" xml:space="preserve">
<style type="text/css">
	.st0{opacity:0.2;}
	.st1{fill:#CBA25B;}
</style>
<g>
	<g>
		<g class="st0">
			<g>
				<path class="st1" d="M687.64,509.25c0.12,0.22,0.25,0.33,0.47,0.45c0.9,0.46,1.79,0.96,2.67,1.47c0.14,0.08,0.27,0.14,0.47,0.15
					c0.2,0,0.35-0.03,0.55-0.09c3.11-1.02,6.29-2.23,9.49-3.67c20.92-9.4,31.58-31.04,30.82-32.74c-0.74-1.64-22.63-7.7-43.03,0.49
					c-0.42,0.17-0.74,0.28-0.96,0.71c-0.22,0.43-0.09,0.95,0.01,1.52c1.32,7.57,1.43,14.29,1.43,14.43c0,5.77-0.65,11.34-1.94,16.62
					C687.56,508.84,687.52,509.04,687.64,509.25"/>
				<path class="st1" d="M774.28,497.29c-0.16-1.56-14.41-11.37-32.56-13.07c-0.83-0.08-1.74-0.08-2.26,0.18
					c-0.52,0.26-0.87,0.85-1.21,1.47c-2.41,4.38-5.9,9.37-10.36,14.19c-0.37,0.41-0.67,0.77-0.46,1.19
					c0.16,0.32,0.46,0.54,1.02,0.82c6.54,3.17,12.75,7.79,17.86,12.74c0.32,0.31,0.68,0.44,1.09,0.51c0.41,0.07,1.16-0.06,1.81-0.31
					C764.32,509.25,774.42,498.71,774.28,497.29"/>
				<path class="st1" d="M671.9,555.67c1.05-0.22,4.48-0.27,9.15-2.09c12.03-4.66,20.67-16.33,20.66-18.04v-0.06
					c0-1.72-8.64-13.39-20.66-18.04c-4.67-1.81-8.1-1.87-9.15-2.09c-2.5-0.54,5.36-3.52,7.2-15.56c2.69-17.59-3.82-33.24-5.27-33.75
					c-1.76-0.6-20.38,9.64-32.89,36.9c-5.45,11.86-5.73,26.35-5.73,32.52v0.1c0,6.17,0.28,20.66,5.73,32.52
					c12.52,27.26,31.14,37.5,32.89,36.9c1.45-0.5,7.96-16.15,5.27-33.75C677.26,559.19,669.4,556.21,671.9,555.67"/>
				<path class="st1" d="M688.12,595c0.22,0.43,0.54,0.54,0.96,0.71c20.4,8.19,42.29,2.13,43.03,0.49
					c0.76-1.69-9.89-23.34-30.82-32.74c-3.2-1.44-6.38-2.65-9.49-3.67c-0.2-0.06-0.34-0.1-0.55-0.09c-0.2,0-0.33,0.06-0.47,0.15
					c-0.88,0.51-1.76,1.01-2.67,1.47c-0.23,0.11-0.35,0.23-0.47,0.45c-0.12,0.21-0.08,0.41-0.01,0.67
					c1.29,5.28,1.94,10.84,1.94,16.62c0,0.14-0.12,6.86-1.43,14.43C688.03,594.05,687.9,594.57,688.12,595"/>
				<path class="st1" d="M747.39,555.69c-0.42,0.07-0.77,0.21-1.09,0.51c-5.11,4.95-11.32,9.57-17.86,12.75
					c-0.57,0.27-0.86,0.49-1.02,0.82c-0.21,0.42,0.08,0.79,0.46,1.19c4.46,4.83,7.96,9.82,10.36,14.19c0.34,0.62,0.7,1.21,1.21,1.47
					c0.52,0.26,1.43,0.25,2.26,0.18c18.15-1.69,32.41-11.51,32.56-13.06c0.14-1.43-9.96-11.96-25.07-17.73
					C748.56,555.75,747.81,555.62,747.39,555.69"/>
				<path class="st1" d="M719.32,509.03c-0.31-0.1-0.67-0.17-0.93-0.13c-0.25,0.04-0.47,0.2-0.7,0.37
					c-3.75,2.82-7.85,5.36-12.33,7.36c-1.1,0.49-2.28,0.9-3.44,1.33c-0.42,0.15-0.66,0.29-0.69,0.59c-0.03,0.31,0.2,0.56,0.57,0.91
					c5.94,5.64,9.85,11.79,9.86,16v0.09c-0.01,4.21-3.92,10.36-9.86,16c-0.37,0.35-0.6,0.6-0.57,0.91c0.03,0.31,0.27,0.44,0.69,0.59
					c1.16,0.42,2.34,0.83,3.44,1.33c4.47,2.01,8.58,4.54,12.33,7.36c0.23,0.17,0.45,0.33,0.7,0.37c0.25,0.04,0.62-0.03,0.93-0.13
					c17.28-5.53,30.07-23.91,30.06-26.47v-0.02C749.39,532.94,736.6,514.56,719.32,509.03"/>
				<path class="st1" d="M804.96,535.52v-0.02c0-2.09-14.15-17.74-32.78-21.12c-0.36-0.06-0.79-0.05-1.09,0
					c-0.29,0.05-0.6,0.26-0.91,0.47c-4.54,3.19-9.62,6.04-14.4,8.16c-0.57,0.25-0.93,0.5-1.02,0.95c-0.09,0.44,0.24,1.06,0.65,1.69
					c2.48,3.81,3.92,7.29,3.92,9.84v0.03c0,2.55-1.45,6.02-3.92,9.84c-0.41,0.63-0.74,1.25-0.65,1.69c0.09,0.45,0.46,0.69,1.02,0.95
					c4.78,2.13,9.86,4.98,14.4,8.17c0.31,0.22,0.62,0.42,0.91,0.47c0.29,0.05,0.73,0.06,1.09,0
					C790.81,553.26,804.96,537.61,804.96,535.52"/>
				<path class="st1" d="M916.12,562.21c-0.3,0.22-0.37,0.63-0.49,1.05c-1.59,5.67-3.73,10.36-3.77,10.46
					c-1.9,3.99-4.19,7.63-6.83,10.85c-0.13,0.16-0.23,0.28-0.21,0.47c0.01,0.19,0.06,0.31,0.18,0.47c0.47,0.62,0.92,1.26,1.36,1.9
					c0.07,0.1,0.14,0.19,0.28,0.26c0.14,0.07,0.25,0.1,0.41,0.12c2.49,0.32,5.09,0.53,7.78,0.6c17.58,0.41,32.1-11.05,32.13-12.48
					c0.03-1.38-13.11-12.8-29.93-13.87C916.67,562.02,916.42,561.99,916.12,562.21"/>
				<path class="st1" d="M944.16,608.98c0.26,0.19,0.82,0.34,1.35,0.39c12.36,1,22.83-2.95,23.2-3.99
					c0.41-1.13-6.22-12.63-18.22-19.79c-0.55-0.33-1.18-0.63-1.62-0.62c-0.44,0.01-0.88,0.3-1.32,0.61
					c-3.11,2.24-7.18,4.53-11.86,6.4c-0.39,0.16-0.72,0.31-0.71,0.67c0.01,0.27,0.14,0.52,0.44,0.9c3.48,4.36,6.25,9.6,8.15,14.72
					C943.69,608.59,943.89,608.8,944.16,608.98"/>
				<path class="st1" d="M863.66,646.72c1.17,0.13,10.84-8.55,14.79-21.61c2.7-8.94-1.75-13.59,0.15-13.14
					c0.8,0.2,3.19,1.29,7.02,1.58c9.86,0.75,19.69-4.47,20.26-5.66l0.02-0.04c0.57-1.19-1.56-12.11-8.34-19.31
					c-2.64-2.8-4.99-3.97-5.64-4.46c-1.55-1.2,4.87-0.66,10.12-8.39c7.66-11.28,8.33-24.26,7.49-25.09
					c-1.02-1-17.28-0.06-34.94,14.67c-7.69,6.41-12.66,16.34-14.7,20.61l-0.03,0.06c-2.03,4.27-6.63,14.39-6.77,24.39
					C852.74,633.32,862.24,646.56,863.66,646.72"/>
				<path class="st1" d="M906.88,659.89c1.09-0.92,0.86-19.42-10.52-32.83c-1.74-2.05-3.54-3.94-5.36-5.67
					c-0.11-0.11-0.2-0.18-0.35-0.25c-0.14-0.07-0.25-0.06-0.38-0.05c-0.78,0.06-1.55,0.12-2.33,0.13c-0.19,0.01-0.32,0.05-0.47,0.16
					c-0.16,0.11-0.19,0.26-0.23,0.46c-0.85,4.08-2.24,8.14-4.14,12.14c-0.05,0.1-2.34,4.71-5.76,9.51
					c-0.25,0.36-0.52,0.67-0.51,1.04c0.01,0.37,0.19,0.55,0.43,0.81C888.68,657.75,905.83,660.79,906.88,659.89"/>
				<path class="st1" d="M930.83,636.91c-0.31-0.09-0.6-0.11-0.92-0.01c-5.17,1.74-10.99,2.88-16.56,2.92
					c-0.48,0-0.76,0.06-0.98,0.23c-0.28,0.22-0.2,0.57-0.08,0.98c1.49,4.81,2.26,9.42,2.48,13.24c0.03,0.54,0.08,1.07,0.35,1.41
					c0.27,0.35,0.9,0.65,1.51,0.87c13.11,4.82,26.22,2.74,26.84,1.71c0.57-0.94-2.94-11.56-11.49-20.55
					C931.61,637.34,931.14,637,930.83,636.91"/>
				<path class="st1" d="M908.64,631.79c0.16,0.11,0.44,0.18,0.68,0.22c13.78,1.88,28.7-6.62,29.54-8.39l0.01-0.01
					c0.85-1.77-1.93-18.71-12.06-28.24c-0.18-0.17-0.41-0.34-0.6-0.4c-0.19-0.06-0.39-0.02-0.61,0.03
					c-3.52,0.71-7.2,1.11-10.96,1.02c-0.93-0.02-1.88-0.13-2.82-0.22c-0.34-0.03-0.55-0.02-0.67,0.18c-0.12,0.2-0.04,0.46,0.09,0.82
					c2.25,5.87,2.93,11.41,1.54,14.33l-0.03,0.06c-1.4,2.91-6.13,5.87-12.11,7.82c-0.37,0.12-0.61,0.22-0.7,0.44
					c-0.08,0.22,0.04,0.39,0.28,0.64c0.67,0.68,1.34,1.35,1.95,2.05c2.43,2.87,4.44,5.98,6.1,9.17
					C908.38,631.49,908.48,631.68,908.64,631.79"/>
				<path class="st1" d="M961.62,616.52c-0.23-0.16-0.53-0.3-0.75-0.36c-0.22-0.06-0.5-0.02-0.79,0.03c-4.19,0.71-8.65,1-12.66,0.9
					c-0.48-0.01-0.81,0.04-1.02,0.32c-0.21,0.28-0.19,0.81-0.11,1.38c0.46,3.46,0.31,6.34-0.53,8.1l-0.01,0.02
					c-0.84,1.76-2.99,3.7-5.96,5.51c-0.49,0.3-0.93,0.62-1.01,0.96c-0.08,0.34,0.09,0.63,0.39,0.99c2.61,3.05,5.18,6.7,7.27,10.41
					c0.14,0.25,0.29,0.49,0.47,0.63c0.19,0.13,0.48,0.28,0.75,0.36c14.01,3.81,28.96-2.34,29.65-3.79l0.01-0.01
					C978.02,640.51,973.39,625.01,961.62,616.52"/>
				<path class="st1" d="M791.06,706.26c-0.42-0.18-0.72-0.32-1.18-0.18c-0.46,0.15-0.73,0.61-1.06,1.08
					c-4.44,6.28-9.12,11.1-9.22,11.2c-4.09,4.07-8.49,7.54-13.14,10.35c-0.23,0.14-0.4,0.25-0.47,0.48
					c-0.06,0.24-0.06,0.41,0.02,0.65c0.31,0.97,0.58,1.95,0.84,2.93c0.04,0.16,0.09,0.29,0.23,0.44c0.14,0.15,0.27,0.23,0.45,0.32
					c2.92,1.48,6.01,2.88,9.29,4.14c21.42,8.2,44.28,0.48,44.94-1.26C822.4,734.72,811.25,714.94,791.06,706.26"/>
				<path class="st1" d="M835.59,782.14c0.99-1.21-2.11-18.24-13.72-32.29c-0.53-0.64-1.17-1.29-1.72-1.47
					c-0.55-0.18-1.22-0.02-1.9,0.18c-4.8,1.38-10.8,2.43-17.37,2.67c-0.55,0.02-1.02,0.07-1.17,0.52c-0.11,0.34-0.06,0.7,0.14,1.3
					c2.37,6.87,3.47,14.53,3.57,21.64c0.01,0.44,0.16,0.79,0.41,1.13c0.24,0.34,0.86,0.78,1.49,1.06
					C820.08,783.53,834.68,783.25,835.59,782.14"/>
				<path class="st1" d="M757.28,757.71l0.04-0.04c1.22-1.21,3.39-15.57-1.79-27.38c-2.01-4.59-4.39-7.06-4.98-7.96
					c-1.38-2.15,6.28,1.32,16.11-5.87c14.36-10.51,20.86-26.16,20.2-27.55c-0.81-1.67-21.21-7.64-49.36,2.72
					c-12.25,4.51-22.71,14.54-27.09,18.89l-0.07,0.06c-4.37,4.36-14.44,14.77-19,27.01c-10.49,28.1-4.61,48.52-2.94,49.34
					c1.38,0.68,17.06-5.76,27.63-20.07c7.24-9.8,3.8-17.47,5.95-16.08c0.9,0.59,3.36,2.98,7.93,5.02
					C741.71,761.04,756.07,758.92,757.28,757.71"/>
				<path class="st1" d="M732.78,767.34c-0.15-0.14-0.28-0.19-0.44-0.23c-0.98-0.26-1.96-0.53-2.93-0.85
					c-0.24-0.08-0.41-0.08-0.65-0.02c-0.24,0.06-0.34,0.23-0.48,0.46c-2.83,4.64-6.32,9.03-10.41,13.1
					c-0.1,0.1-4.95,4.76-11.24,9.17c-0.47,0.33-0.94,0.6-1.08,1.06s-0.01,0.77,0.17,1.18c8.59,20.23,28.33,31.47,30.01,30.83
					c1.74-0.66,9.56-23.48,1.46-44.94c-1.24-3.28-2.63-6.39-4.1-9.31C733,767.61,732.92,767.49,732.78,767.34"/>
				<path class="st1" d="M775.23,804.3c-0.34-0.24-0.69-0.4-1.13-0.41c-7.12-0.13-14.77-1.26-21.63-3.66
					c-0.6-0.21-0.96-0.26-1.3-0.15c-0.44,0.15-0.49,0.61-0.52,1.17c-0.28,6.57-1.34,12.56-2.75,17.36c-0.2,0.68-0.37,1.35-0.18,1.9
					c0.18,0.55,0.83,1.19,1.47,1.72c14,11.67,31.02,14.84,32.23,13.85c1.11-0.91,1.45-15.5-5.13-30.28
					C776.01,805.17,775.57,804.54,775.23,804.3"/>
				<path class="st1" d="M790.94,791.46c1.82-1.8,5.82-23.83-2.45-39.98c-0.15-0.29-0.35-0.6-0.56-0.75
					c-0.2-0.15-0.47-0.19-0.76-0.23c-4.64-0.67-9.34-1.79-13.92-3.54c-1.13-0.43-2.25-0.98-3.37-1.5c-0.4-0.19-0.67-0.27-0.91-0.07
					c-0.24,0.2-0.26,0.54-0.24,1.05c0.19,8.19-1.4,15.3-4.38,18.28l-0.06,0.06c-2.99,2.96-10.11,4.53-18.3,4.3
					c-0.51-0.01-0.85,0-1.05,0.24c-0.2,0.23-0.12,0.51,0.07,0.91c0.52,1.12,1.06,2.24,1.49,3.38c1.73,4.59,2.83,9.29,3.48,13.93
					c0.04,0.29,0.08,0.55,0.23,0.76c0.15,0.2,0.46,0.41,0.75,0.56c16.11,8.34,38.16,4.43,39.97,2.62L790.94,791.46z"/>
				<path class="st1" d="M790.97,820.78c0.06,0.37,0.14,0.74,0.31,0.98c0.17,0.24,0.47,0.56,0.77,0.77
					c15.54,10.82,36.62,9.8,38.09,8.33l0.01-0.02c1.48-1.47,2.59-22.54-8.16-38.13c-0.21-0.3-0.52-0.6-0.76-0.77
					c-0.24-0.17-0.61-0.25-0.98-0.31c-5.46-0.96-11.06-2.55-15.95-4.44c-0.58-0.23-1.01-0.31-1.39-0.06
					c-0.38,0.25-0.59,0.92-0.74,1.65c-0.95,4.45-2.4,7.92-4.21,9.72l-0.02,0.02c-1.81,1.8-5.29,3.23-9.74,4.16
					c-0.74,0.15-1.41,0.36-1.66,0.74c-0.25,0.38-0.17,0.81,0.05,1.39C788.47,809.71,790.03,815.32,790.97,820.78"/>
				<path class="st1" d="M946.95,494.65c-0.03-1.42-14.55-12.88-32.13-12.47c-2.69,0.06-5.29,0.27-7.78,0.6
					c-0.16,0.02-0.27,0.05-0.41,0.12c-0.14,0.07-0.21,0.16-0.28,0.26c-0.44,0.64-0.89,1.28-1.36,1.9c-0.12,0.15-0.17,0.28-0.18,0.47
					c-0.01,0.19,0.08,0.31,0.21,0.47c2.64,3.23,4.92,6.86,6.83,10.86c0.05,0.1,2.18,4.78,3.78,10.46c0.12,0.42,0.19,0.83,0.49,1.05
					c0.3,0.22,0.55,0.2,0.9,0.17C933.84,507.45,946.98,496.03,946.95,494.65"/>
				<path class="st1" d="M948.88,485.6c0.44,0.01,1.07-0.3,1.62-0.62c12-7.16,18.62-18.66,18.22-19.79
					c-0.37-1.03-10.84-4.99-23.2-3.99c-0.53,0.04-1.09,0.2-1.35,0.39c-0.26,0.19-0.47,0.4-0.59,0.71
					c-1.9,5.11-4.67,10.36-8.15,14.71c-0.3,0.38-0.44,0.63-0.44,0.9c-0.01,0.36,0.32,0.52,0.71,0.67c4.68,1.87,8.75,4.16,11.86,6.4
					C947.99,485.3,948.43,485.59,948.88,485.6"/>
				<path class="st1" d="M863.66,423.85c-1.41,0.16-10.92,13.4-10.58,36.39c0.15,10,4.74,20.12,6.77,24.39l0.03,0.06
					c2.04,4.27,7.01,14.2,14.7,20.61c17.66,14.73,33.93,15.67,34.94,14.67c0.84-0.83,0.17-13.8-7.49-25.09
					c-5.25-7.72-11.67-7.19-10.12-8.39c0.66-0.5,3.01-1.67,5.64-4.46c6.78-7.2,8.91-18.12,8.34-19.31l-0.02-0.04
					c-0.56-1.19-10.4-6.41-20.26-5.66c-3.83,0.29-6.22,1.39-7.02,1.58c-1.9,0.45,2.55-4.2-0.15-13.14
					C874.5,432.4,864.83,423.71,863.66,423.85"/>
				<path class="st1" d="M877.27,425.21c-0.24,0.26-0.42,0.44-0.43,0.81c-0.01,0.37,0.26,0.69,0.51,1.04
					c3.41,4.8,5.71,9.41,5.76,9.51c1.9,3.99,3.29,8.06,4.14,12.14c0.04,0.2,0.07,0.35,0.23,0.46c0.16,0.11,0.28,0.15,0.48,0.15
					c0.78,0.02,1.55,0.08,2.33,0.14c0.13,0.01,0.24,0.01,0.38-0.05c0.14-0.06,0.23-0.13,0.35-0.25c1.81-1.73,3.61-3.62,5.36-5.67
					c11.38-13.41,11.6-31.91,10.51-32.83C905.82,409.78,888.68,412.81,877.27,425.21"/>
				<path class="st1" d="M915.13,414.87c-0.27,0.35-0.32,0.87-0.36,1.41c-0.22,3.82-0.99,8.43-2.48,13.24
					c-0.13,0.41-0.21,0.76,0.08,0.98c0.22,0.17,0.49,0.23,0.98,0.23c5.57,0.03,11.39,1.18,16.56,2.92c0.32,0.11,0.61,0.08,0.93-0.01
					c0.31-0.09,0.79-0.42,1.15-0.81c8.55-8.98,12.06-19.61,11.5-20.55c-0.62-1.03-13.73-3.11-26.84,1.71
					C916.03,414.22,915.4,414.52,915.13,414.87"/>
				<path class="st1" d="M938.86,446.95c-0.84-1.77-15.75-10.27-29.54-8.39c-0.25,0.03-0.52,0.1-0.68,0.22
					c-0.16,0.11-0.26,0.29-0.36,0.49c-1.66,3.19-3.67,6.3-6.1,9.17c-0.6,0.71-1.28,1.38-1.94,2.05c-0.24,0.24-0.37,0.42-0.28,0.64
					c0.08,0.23,0.33,0.32,0.7,0.44c5.98,1.94,10.71,4.91,12.11,7.81l0.03,0.06c1.38,2.92,0.71,8.46-1.54,14.33
					c-0.14,0.36-0.21,0.61-0.09,0.82c0.12,0.2,0.33,0.22,0.67,0.18c0.94-0.09,1.89-0.2,2.82-0.22c3.76-0.09,7.44,0.31,10.96,1.02
					c0.22,0.04,0.42,0.08,0.61,0.03c0.19-0.06,0.41-0.23,0.6-0.4c10.13-9.54,12.91-26.47,12.06-28.24L938.86,446.95z"/>
				<path class="st1" d="M938.78,437.19c0.08,0.34,0.51,0.66,1.01,0.96c2.97,1.82,5.12,3.75,5.96,5.51l0.01,0.02
					c0.84,1.76,0.99,4.65,0.53,8.1c-0.07,0.57-0.1,1.11,0.11,1.38c0.21,0.28,0.54,0.33,1.02,0.32c4.01-0.11,8.47,0.19,12.66,0.9
					c0.29,0.05,0.57,0.09,0.79,0.03c0.22-0.06,0.53-0.2,0.75-0.36c11.78-8.49,16.4-23.99,15.71-25.43l-0.01-0.01
					c-0.68-1.45-15.64-7.6-29.65-3.79c-0.27,0.07-0.57,0.23-0.75,0.36c-0.19,0.13-0.33,0.38-0.47,0.63
					c-2.09,3.71-4.66,7.35-7.27,10.41C938.86,436.56,938.7,436.86,938.78,437.19"/>
				<path class="st1" d="M596.31,731.54c1.64-0.74,7.7-22.63-0.49-43.03c-0.17-0.42-0.28-0.74-0.71-0.96
					c-0.43-0.23-0.95-0.09-1.52,0.01c-7.57,1.32-14.29,1.43-14.43,1.43c-5.77,0-11.34-0.65-16.62-1.94
					c-0.26-0.06-0.46-0.11-0.67,0.01c-0.22,0.12-0.33,0.25-0.45,0.47c-0.46,0.9-0.96,1.79-1.47,2.67c-0.08,0.14-0.14,0.27-0.15,0.47
					c0,0.2,0.03,0.35,0.09,0.55c1.02,3.11,2.23,6.29,3.67,9.49C572.97,721.65,594.62,732.31,596.31,731.54"/>
				<path class="st1" d="M586.73,738.9c-0.26-0.52-0.85-0.87-1.47-1.21c-4.38-2.4-9.37-5.9-14.19-10.36
					c-0.41-0.37-0.77-0.67-1.19-0.46c-0.32,0.16-0.54,0.46-0.82,1.03c-3.17,6.54-7.79,12.74-12.74,17.85
					c-0.31,0.32-0.44,0.68-0.51,1.09c-0.08,0.41,0.06,1.16,0.31,1.81c5.77,15.11,16.31,25.22,17.73,25.07
					c1.56-0.16,11.38-14.41,13.07-32.56C586.98,740.32,586.99,739.41,586.73,738.9"/>
				<path class="st1" d="M605.08,673.26c0.61-1.76-9.64-20.37-36.9-32.89c-11.86-5.45-26.35-5.72-32.52-5.73h-0.09
					c-6.17,0.01-20.66,0.28-32.52,5.73c-27.26,12.52-37.5,31.14-36.9,32.89c0.5,1.45,16.16,7.96,33.75,5.27
					c12.04-1.84,15.02-9.7,15.56-7.2c0.22,1.05,0.27,4.48,2.09,9.15c4.66,12.03,16.33,20.67,18.04,20.66h0.06
					c1.72,0,13.39-8.64,18.04-20.66c1.81-4.67,1.87-8.1,2.09-9.15c0.54-2.5,3.52,5.36,15.56,7.2
					C588.93,681.22,604.58,674.72,605.08,673.26"/>
				<path class="st1" d="M509.8,687.55c-0.11-0.23-0.23-0.35-0.45-0.47c-0.21-0.12-0.41-0.07-0.67-0.01
					c-5.28,1.29-10.84,1.94-16.62,1.94c-0.14,0-6.86-0.12-14.43-1.43c-0.56-0.1-1.09-0.24-1.52-0.01c-0.43,0.22-0.54,0.54-0.71,0.96
					c-8.19,20.4-2.13,42.29-0.49,43.03c1.69,0.76,23.34-9.89,32.74-30.82c1.44-3.2,2.65-6.38,3.67-9.49c0.06-0.2,0.1-0.34,0.09-0.55
					c0-0.2-0.06-0.33-0.15-0.47C510.77,689.33,510.26,688.45,509.8,687.55"/>
				<path class="st1" d="M515.43,746.83c-0.07-0.42-0.21-0.77-0.51-1.09c-4.95-5.11-9.57-11.32-12.75-17.86
					c-0.27-0.57-0.49-0.86-0.82-1.02c-0.42-0.21-0.79,0.09-1.19,0.46c-4.83,4.46-9.82,7.96-14.19,10.36
					c-0.62,0.34-1.21,0.7-1.47,1.21c-0.26,0.52-0.25,1.43-0.18,2.26c1.69,18.15,11.51,32.41,13.07,32.56
					c1.43,0.14,11.96-9.96,17.73-25.07C515.37,747.99,515.51,747.25,515.43,746.83"/>
				<path class="st1" d="M509,717.83c-0.04,0.25,0.03,0.62,0.13,0.93c5.53,17.28,23.91,30.07,26.47,30.06h0.02
					c2.56,0.01,20.94-12.78,26.47-30.06c0.1-0.31,0.17-0.68,0.13-0.93c-0.04-0.25-0.2-0.47-0.37-0.7
					c-2.82-3.75-5.36-7.85-7.36-12.33c-0.49-1.11-0.9-2.28-1.33-3.44c-0.15-0.42-0.29-0.67-0.59-0.69c-0.31-0.03-0.56,0.2-0.91,0.57
					c-5.64,5.94-11.79,9.85-16,9.86h-0.09c-4.21-0.01-10.36-3.92-16-9.86c-0.35-0.37-0.6-0.6-0.91-0.57
					c-0.3,0.03-0.44,0.27-0.59,0.69c-0.42,1.16-0.83,2.34-1.33,3.44c-2.01,4.47-4.54,8.58-7.36,12.33
					C509.2,717.36,509.04,717.58,509,717.83"/>
				<path class="st1" d="M556.75,770.53c-0.05-0.29-0.26-0.6-0.47-0.91c-3.19-4.54-6.04-9.62-8.16-14.4
					c-0.25-0.57-0.5-0.93-0.95-1.02c-0.44-0.1-1.06,0.24-1.69,0.65c-3.81,2.48-7.29,3.92-9.84,3.92h-0.03
					c-2.55,0-6.02-1.44-9.84-3.92c-0.63-0.41-1.25-0.74-1.69-0.65c-0.45,0.09-0.69,0.46-0.95,1.02c-2.13,4.78-4.98,9.86-8.17,14.4
					c-0.22,0.31-0.42,0.62-0.47,0.91c-0.05,0.29-0.06,0.73,0,1.09c3.38,18.64,19.03,32.78,21.12,32.78h0.02
					c2.09,0.01,17.74-14.14,21.12-32.78C556.81,771.26,556.8,770.82,556.75,770.53"/>
				<path class="st1" d="M497.4,911.29c-3.99-1.9-7.63-4.19-10.85-6.83c-0.16-0.13-0.28-0.23-0.47-0.21
					c-0.19,0.01-0.31,0.06-0.47,0.18c-0.61,0.47-1.25,0.92-1.9,1.36c-0.1,0.07-0.19,0.14-0.26,0.28c-0.07,0.14-0.1,0.25-0.12,0.41
					c-0.32,2.49-0.53,5.09-0.6,7.78c-0.41,17.58,11.05,32.1,12.47,32.13c1.38,0.03,12.8-13.11,13.87-29.93
					c0.02-0.35,0.05-0.6-0.18-0.9c-0.23-0.3-0.63-0.37-1.05-0.49C502.18,913.48,497.5,911.34,497.4,911.29"/>
				<path class="st1" d="M486.16,948.31c-0.01-0.44-0.3-0.88-0.61-1.32c-2.24-3.11-4.53-7.18-6.4-11.86
					c-0.16-0.39-0.31-0.72-0.67-0.71c-0.27,0.01-0.53,0.14-0.9,0.44c-4.35,3.48-9.6,6.25-14.71,8.15c-0.31,0.12-0.52,0.32-0.71,0.59
					s-0.34,0.82-0.39,1.35c-1,12.36,2.95,22.83,3.99,23.2c1.13,0.41,12.63-6.22,19.79-18.22
					C485.86,949.39,486.17,948.76,486.16,948.31"/>
				<path class="st1" d="M520.53,908.96c1-1.02,0.06-17.28-14.67-34.94c-6.41-7.69-16.34-12.66-20.61-14.7l-0.06-0.03v0
					c-4.27-2.04-14.39-6.63-24.39-6.77c-22.99-0.34-36.23,9.16-36.39,10.57c-0.13,1.17,8.55,10.84,21.61,14.79
					c8.94,2.7,13.59-1.75,13.14,0.16c-0.2,0.8-1.29,3.19-1.58,7.02c-0.75,9.86,4.47,19.69,5.66,20.26l0.04,0.02
					c1.19,0.57,12.11-1.56,19.31-8.34c2.8-2.64,3.97-4.99,4.46-5.65c1.2-1.55,0.66,4.87,8.39,10.12
					C506.73,909.13,519.7,909.8,520.53,908.96"/>
				<path class="st1" d="M444.06,895.8c2.05-1.74,3.94-3.54,5.67-5.36c0.11-0.12,0.18-0.2,0.25-0.35c0.06-0.14,0.06-0.25,0.05-0.38
					c-0.06-0.78-0.12-1.55-0.14-2.33c-0.01-0.19-0.05-0.32-0.15-0.48c-0.11-0.15-0.26-0.19-0.46-0.23
					c-4.08-0.85-8.14-2.24-12.13-4.14c-0.1-0.05-4.71-2.34-9.51-5.76c-0.36-0.25-0.67-0.52-1.04-0.51
					c-0.37,0.01-0.56,0.19-0.81,0.43c-12.4,11.41-15.44,28.56-14.55,29.61C412.15,907.4,430.65,907.18,444.06,895.8"/>
				<path class="st1" d="M434.21,930.27c0.09-0.31,0.11-0.6,0.01-0.92c-1.74-5.17-2.88-10.99-2.92-16.56c0-0.48-0.06-0.76-0.23-0.98
					c-0.22-0.28-0.57-0.2-0.97-0.08c-4.81,1.49-9.42,2.26-13.24,2.48c-0.54,0.03-1.07,0.08-1.42,0.36c-0.35,0.27-0.65,0.9-0.87,1.5
					c-4.82,13.11-2.74,26.22-1.71,26.84c0.94,0.57,11.56-2.94,20.55-11.49C433.79,931.05,434.13,930.58,434.21,930.27"/>
				<path class="st1" d="M475.15,910.59c-0.2-0.12-0.46-0.04-0.82,0.09c-5.87,2.25-11.41,2.93-14.33,1.54l-0.06-0.03
					c-2.91-1.4-5.87-6.13-7.81-12.11c-0.12-0.37-0.22-0.61-0.44-0.7c-0.22-0.08-0.4,0.04-0.64,0.28c-0.68,0.67-1.35,1.34-2.05,1.95
					c-2.87,2.43-5.98,4.44-9.17,6.1c-0.2,0.1-0.38,0.2-0.49,0.36c-0.11,0.16-0.18,0.44-0.22,0.69c-1.88,13.78,6.62,28.7,8.39,29.54
					l0.01,0.01c1.77,0.85,18.71-1.93,28.24-12.06c0.17-0.18,0.34-0.41,0.4-0.6c0.06-0.19,0.02-0.39-0.03-0.61
					c-0.71-3.52-1.11-7.2-1.02-10.96c0.02-0.93,0.13-1.88,0.22-2.82C475.37,910.92,475.36,910.71,475.15,910.59"/>
				<path class="st1" d="M454.05,946.86c0.01-0.48-0.04-0.81-0.32-1.02c-0.28-0.21-0.81-0.19-1.38-0.11
					c-3.46,0.46-6.34,0.31-8.1-0.53l-0.02-0.01c-1.76-0.84-3.69-2.99-5.51-5.96c-0.3-0.49-0.62-0.93-0.96-1.01
					c-0.34-0.08-0.63,0.09-0.99,0.4c-3.05,2.61-6.7,5.18-10.41,7.27c-0.25,0.14-0.49,0.29-0.63,0.47c-0.13,0.19-0.29,0.48-0.36,0.75
					c-3.81,14.01,2.34,28.96,3.79,29.65l0.02,0.01c1.44,0.69,16.94-3.93,25.43-15.71c0.16-0.23,0.3-0.53,0.36-0.75
					c0.06-0.22,0.02-0.5-0.03-0.79C454.23,955.33,453.94,950.87,454.05,946.86"/>
				<path class="st1" d="M363.97,788.25c-6.28-4.44-11.1-9.12-11.2-9.22c-4.07-4.09-7.54-8.49-10.35-13.14
					c-0.14-0.23-0.24-0.4-0.48-0.47c-0.24-0.06-0.41-0.06-0.65,0.02c-0.96,0.31-1.94,0.58-2.93,0.84c-0.16,0.04-0.29,0.09-0.44,0.23
					c-0.15,0.14-0.23,0.26-0.32,0.45c-1.48,2.92-2.88,6.02-4.14,9.29c-8.2,21.42-0.48,44.28,1.26,44.95
					c1.68,0.64,21.47-10.51,30.15-30.71c0.18-0.41,0.32-0.72,0.18-1.18C364.9,788.85,364.44,788.58,363.97,788.25"/>
				<path class="st1" d="M319.39,799.16c-0.34-0.11-0.7-0.06-1.3,0.14c-6.87,2.37-14.53,3.47-21.64,3.57
					c-0.44,0.01-0.79,0.17-1.13,0.41c-0.34,0.24-0.78,0.86-1.06,1.49c-6.64,14.75-6.36,29.35-5.26,30.26
					c1.21,1,18.24-2.11,32.29-13.71c0.64-0.53,1.29-1.17,1.47-1.72c0.18-0.55,0.02-1.22-0.18-1.9c-1.38-4.8-2.43-10.8-2.67-17.37
					C319.88,799.77,319.83,799.3,319.39,799.16"/>
				<path class="st1" d="M382.21,786.29c1.67-0.81,7.64-21.21-2.72-49.36c-4.51-12.25-14.53-22.71-18.89-27.09l-0.06-0.06
					c-4.36-4.37-14.77-14.44-27.01-19.01c-28.1-10.49-48.52-4.61-49.34-2.94c-0.68,1.38,5.76,17.06,20.07,27.63
					c9.8,7.23,17.47,3.8,16.08,5.94c-0.59,0.9-2.98,3.36-5.02,7.94c-5.23,11.79-3.12,26.16-1.91,27.37l0.04,0.04
					c1.21,1.22,15.57,3.39,27.38-1.79c4.59-2.01,7.06-4.39,7.96-4.98c2.15-1.38-1.32,6.28,5.87,16.1
					C365.18,780.46,380.83,786.96,382.21,786.29"/>
				<path class="st1" d="M294.01,736.63c3.29-1.24,6.39-2.62,9.31-4.1c0.19-0.09,0.31-0.18,0.45-0.32c0.14-0.15,0.19-0.28,0.23-0.44
					c0.26-0.98,0.54-1.96,0.85-2.92c0.08-0.24,0.09-0.41,0.02-0.65c-0.06-0.24-0.24-0.34-0.47-0.48c-4.64-2.83-9.03-6.32-13.1-10.41
					c-0.1-0.1-4.76-4.94-9.17-11.24c-0.33-0.47-0.6-0.94-1.06-1.08c-0.46-0.15-0.76-0.01-1.18,0.17
					c-20.23,8.59-31.47,28.33-30.83,30.01C249.73,736.91,272.56,744.74,294.01,736.63"/>
				<path class="st1" d="M235.05,780.85c0.91,1.11,15.5,1.45,30.28-5.12c0.63-0.28,1.25-0.72,1.5-1.06c0.24-0.35,0.4-0.69,0.41-1.13
					c0.13-7.12,1.26-14.77,3.66-21.63c0.21-0.6,0.26-0.96,0.15-1.3c-0.15-0.45-0.61-0.5-1.17-0.52c-6.57-0.27-12.56-1.34-17.36-2.75
					c-0.68-0.2-1.35-0.37-1.9-0.19c-0.55,0.18-1.19,0.83-1.72,1.47C237.24,762.62,234.06,779.64,235.05,780.85"/>
				<path class="st1" d="M325.68,769.33c0.19-0.4,0.27-0.67,0.07-0.91c-0.2-0.24-0.54-0.26-1.05-0.24
					c-8.19,0.19-15.3-1.4-18.28-4.38l-0.06-0.06c-2.97-2.99-4.53-10.11-4.3-18.3c0.01-0.51,0-0.85-0.24-1.05
					c-0.23-0.2-0.5-0.12-0.91,0.07c-1.12,0.52-2.24,1.06-3.38,1.49c-4.59,1.73-9.29,2.83-13.93,3.48c-0.29,0.04-0.55,0.08-0.76,0.23
					c-0.2,0.15-0.41,0.46-0.56,0.75c-8.34,16.11-4.43,38.16-2.62,39.97l0.01,0.01c1.8,1.82,23.83,5.82,39.98-2.45
					c0.29-0.15,0.6-0.35,0.75-0.56c0.15-0.2,0.19-0.47,0.23-0.76c0.67-4.64,1.79-9.34,3.54-13.92
					C324.6,771.56,325.15,770.45,325.68,769.33"/>
				<path class="st1" d="M240.28,829.59c1.47,1.48,22.54,2.59,38.13-8.16c0.3-0.21,0.6-0.52,0.77-0.76
					c0.17-0.24,0.25-0.61,0.31-0.98c0.96-5.46,2.55-11.06,4.44-15.95c0.22-0.58,0.3-1.01,0.06-1.39c-0.25-0.38-0.92-0.59-1.65-0.74
					c-4.45-0.95-7.92-2.4-9.72-4.2l-0.02-0.02c-1.8-1.81-3.23-5.29-4.16-9.74c-0.15-0.73-0.35-1.4-0.74-1.65
					c-0.38-0.25-0.81-0.17-1.39,0.05c-4.89,1.87-10.5,3.43-15.97,4.37c-0.37,0.06-0.74,0.14-0.98,0.31
					c-0.24,0.17-0.56,0.47-0.77,0.77c-10.82,15.54-9.8,36.62-8.33,38.09L240.28,829.59z"/>
				<path class="st1" d="M587.98,905.79c-0.64-0.44-1.28-0.89-1.9-1.36c-0.15-0.12-0.28-0.17-0.47-0.18
					c-0.19-0.01-0.31,0.08-0.47,0.21c-3.23,2.64-6.86,4.92-10.85,6.83c-0.1,0.05-4.79,2.18-10.46,3.78
					c-0.42,0.12-0.83,0.19-1.05,0.49c-0.23,0.3-0.2,0.55-0.18,0.9c1.07,16.82,12.49,29.96,13.87,29.93
					c1.43-0.03,12.89-14.55,12.47-32.13c-0.06-2.69-0.27-5.29-0.59-7.78c-0.02-0.16-0.05-0.27-0.12-0.41
					C588.17,905.93,588.08,905.87,587.98,905.79"/>
				<path class="st1" d="M609.55,943.59c-0.19-0.26-0.4-0.47-0.71-0.59c-5.11-1.9-10.36-4.67-14.72-8.15
					c-0.38-0.3-0.63-0.44-0.9-0.44c-0.36-0.01-0.52,0.32-0.67,0.71c-1.87,4.68-4.16,8.75-6.4,11.86c-0.32,0.44-0.61,0.88-0.61,1.32
					c-0.01,0.44,0.3,1.07,0.62,1.62c7.16,12,18.66,18.62,19.79,18.22c1.04-0.37,4.99-10.84,3.99-23.2
					C609.89,944.42,609.74,943.86,609.55,943.59"/>
				<path class="st1" d="M647.28,863.09c-0.16-1.41-13.4-10.92-36.39-10.58c-10,0.15-20.12,4.74-24.39,6.77l-0.06,0.03
					c-4.27,2.04-14.2,7.01-20.61,14.7c-14.73,17.66-15.67,33.93-14.67,34.94c0.83,0.84,13.8,0.17,25.09-7.49
					c7.72-5.25,7.19-11.67,8.39-10.12c0.5,0.66,1.67,3.01,4.46,5.64c7.2,6.79,18.12,8.91,19.31,8.34l0.04-0.02
					c1.19-0.56,6.41-10.4,5.66-20.26c-0.29-3.83-1.39-6.22-1.58-7.02c-0.45-1.91,4.2,2.55,13.14-0.16
					C638.73,873.93,647.41,864.26,647.28,863.09"/>
				<path class="st1" d="M645.91,876.7c-0.26-0.24-0.44-0.42-0.81-0.43c-0.37-0.01-0.69,0.26-1.04,0.51
					c-4.8,3.41-9.41,5.71-9.51,5.76c-3.99,1.9-8.06,3.29-12.14,4.14c-0.2,0.04-0.35,0.07-0.46,0.23s-0.15,0.28-0.15,0.48
					c-0.02,0.78-0.08,1.55-0.14,2.33c-0.01,0.13-0.01,0.24,0.05,0.38c0.06,0.14,0.13,0.23,0.25,0.35c1.73,1.81,3.62,3.61,5.67,5.36
					c13.41,11.38,31.9,11.6,32.82,10.51C661.35,905.26,658.31,888.12,645.91,876.7"/>
				<path class="st1" d="M656.25,914.56c-0.35-0.27-0.87-0.32-1.41-0.35c-3.82-0.22-8.43-0.99-13.24-2.48
					c-0.41-0.13-0.76-0.21-0.98,0.08c-0.17,0.22-0.23,0.49-0.23,0.98c-0.03,5.57-1.18,11.39-2.92,16.56
					c-0.11,0.32-0.08,0.61,0.01,0.92c0.09,0.31,0.42,0.79,0.81,1.15c8.98,8.55,19.61,12.06,20.55,11.49
					c1.03-0.62,3.11-13.73-1.71-26.84C656.9,915.47,656.6,914.84,656.25,914.56"/>
				<path class="st1" d="M595.52,925.65c0.06,0.19,0.23,0.41,0.4,0.6c9.54,10.13,26.47,12.91,28.24,12.06l0.01-0.01
					c1.77-0.84,10.27-15.75,8.39-29.54c-0.04-0.25-0.1-0.52-0.22-0.68c-0.11-0.16-0.29-0.26-0.49-0.36c-3.19-1.66-6.3-3.67-9.17-6.1
					c-0.71-0.6-1.38-1.28-2.05-1.94c-0.24-0.24-0.42-0.37-0.64-0.28c-0.23,0.08-0.32,0.33-0.44,0.7
					c-1.94,5.98-4.91,10.71-7.81,12.11l-0.06,0.03c-2.92,1.38-8.46,0.71-14.33-1.54c-0.36-0.14-0.61-0.22-0.82-0.09
					c-0.2,0.12-0.22,0.33-0.18,0.67c0.09,0.94,0.2,1.89,0.22,2.82c0.09,3.76-0.31,7.44-1.02,10.96
					C595.5,925.26,595.46,925.46,595.52,925.65"/>
				<path class="st1" d="M645.96,946.35c-0.13-0.18-0.38-0.33-0.63-0.47c-3.7-2.09-7.35-4.66-10.4-7.27
					c-0.36-0.31-0.66-0.48-0.99-0.4c-0.34,0.08-0.66,0.52-0.96,1.01c-1.82,2.97-3.75,5.12-5.51,5.96l-0.02,0.01
					c-1.76,0.84-4.65,0.99-8.1,0.53c-0.57-0.08-1.11-0.1-1.38,0.11c-0.28,0.21-0.33,0.54-0.32,1.02c0.11,4.01-0.19,8.47-0.9,12.66
					c-0.05,0.29-0.09,0.57-0.03,0.79c0.06,0.22,0.2,0.52,0.36,0.75c8.49,11.77,23.99,16.4,25.43,15.71l0.01-0.01
					c1.45-0.69,7.6-15.64,3.79-29.65C646.24,946.83,646.09,946.54,645.96,946.35"/>
				<path class="st1" d="M384.05,561.31c-0.12-0.22-0.25-0.33-0.47-0.45c-0.9-0.46-1.79-0.96-2.67-1.47
					c-0.14-0.08-0.27-0.14-0.47-0.15c-0.2,0-0.35,0.03-0.55,0.09c-3.11,1.02-6.29,2.23-9.49,3.67
					c-20.92,9.4-31.58,31.04-30.82,32.74c0.74,1.64,22.63,7.7,43.03-0.49c0.42-0.17,0.74-0.28,0.96-0.71s0.08-0.95-0.01-1.52
					c-1.32-7.57-1.43-14.29-1.43-14.43c0-5.77,0.65-11.34,1.94-16.62C384.13,561.72,384.17,561.53,384.05,561.31"/>
				<path class="st1" d="M343.24,568.49c-6.54-3.17-12.75-7.79-17.86-12.74c-0.31-0.31-0.67-0.44-1.09-0.51
					c-0.41-0.07-1.16,0.06-1.81,0.31c-15.11,5.77-25.21,16.31-25.07,17.73c0.15,1.56,14.41,11.37,32.56,13.07
					c0.83,0.08,1.74,0.08,2.25-0.18c0.52-0.26,0.87-0.85,1.21-1.47c2.41-4.38,5.91-9.37,10.36-14.2c0.38-0.4,0.67-0.77,0.46-1.19
					C344.11,568.99,343.81,568.77,343.24,568.49"/>
				<path class="st1" d="M436.49,535.1v-0.09c-0.01-6.17-0.28-20.66-5.73-32.52c-12.52-27.26-31.14-37.5-32.89-36.9
					c-1.45,0.5-7.96,16.15-5.27,33.74c1.84,12.04,9.7,15.02,7.2,15.56c-1.05,0.22-4.48,0.27-9.15,2.09
					c-12.03,4.66-20.67,16.33-20.66,18.04v0.06c0,1.72,8.64,13.39,20.66,18.05c4.67,1.81,8.1,1.87,9.15,2.08
					c2.5,0.54-5.36,3.52-7.2,15.56c-2.68,17.59,3.82,33.24,5.27,33.74c1.75,0.61,20.37-9.64,32.89-36.9
					C436.2,555.76,436.48,541.27,436.49,535.1z"/>
				<path class="st1" d="M383.57,475.56c-0.22-0.43-0.54-0.54-0.96-0.71c-20.4-8.19-42.29-2.13-43.03-0.49
					c-0.76,1.69,9.89,23.34,30.82,32.74c3.2,1.44,6.38,2.65,9.49,3.67c0.2,0.06,0.34,0.1,0.55,0.09c0.2,0,0.33-0.06,0.47-0.15
					c0.88-0.51,1.76-1.01,2.67-1.47c0.22-0.11,0.35-0.23,0.47-0.45c0.12-0.22,0.08-0.41,0.01-0.67c-1.29-5.28-1.94-10.84-1.94-16.61
					c0-0.14,0.12-6.86,1.43-14.43C383.65,476.51,383.79,475.99,383.57,475.56"/>
				<path class="st1" d="M324.29,514.87c0.42-0.08,0.77-0.21,1.09-0.51c5.11-4.95,11.32-9.57,17.86-12.74
					c0.57-0.27,0.86-0.49,1.02-0.82c0.21-0.42-0.09-0.79-0.46-1.19c-4.46-4.83-7.96-9.82-10.36-14.2c-0.34-0.62-0.7-1.21-1.21-1.47
					c-0.52-0.26-1.43-0.25-2.26-0.18c-18.15,1.69-32.41,11.51-32.56,13.06c-0.14,1.43,9.96,11.96,25.07,17.73
					C323.13,514.81,323.88,514.94,324.29,514.87"/>
				<path class="st1" d="M369.89,519.01c0.37-0.35,0.6-0.6,0.57-0.91c-0.03-0.31-0.27-0.44-0.69-0.59
					c-1.16-0.42-2.34-0.83-3.44-1.33c-4.47-2.01-8.58-4.55-12.33-7.36c-0.23-0.17-0.45-0.33-0.7-0.37
					c-0.25-0.04-0.62,0.04-0.93,0.13c-17.28,5.53-30.07,23.92-30.06,26.47v0.02c-0.01,2.56,12.78,20.94,30.06,26.47
					c0.31,0.1,0.67,0.17,0.93,0.13c0.25-0.04,0.47-0.2,0.7-0.37c3.75-2.82,7.85-5.36,12.33-7.36c1.1-0.5,2.28-0.9,3.44-1.33
					c0.42-0.15,0.66-0.29,0.69-0.59c0.03-0.31-0.2-0.56-0.57-0.91c-5.94-5.64-9.85-11.79-9.86-16v-0.09
					C360.04,530.8,363.94,524.65,369.89,519.01"/>
				<path class="st1" d="M266.73,535.04v0.02c-0.01,2.09,14.15,17.74,32.78,21.12c0.36,0.06,0.79,0.05,1.09,0
					c0.29-0.05,0.6-0.26,0.91-0.47c4.54-3.19,9.62-6.04,14.4-8.17c0.57-0.25,0.93-0.5,1.02-0.95c0.09-0.44-0.24-1.06-0.65-1.69
					c-2.48-3.81-3.92-7.29-3.92-9.84v-0.03c0-2.55,1.45-6.02,3.92-9.84c0.41-0.63,0.74-1.25,0.65-1.69
					c-0.09-0.45-0.46-0.69-1.02-0.95c-4.78-2.13-9.86-4.98-14.4-8.16c-0.31-0.22-0.62-0.42-0.91-0.47s-0.73-0.06-1.09,0
					C280.88,517.31,266.73,532.95,266.73,535.04"/>
				<path class="st1" d="M166.87,485.51c-0.01-0.19-0.06-0.31-0.18-0.47c-0.47-0.62-0.92-1.26-1.36-1.9
					c-0.07-0.1-0.14-0.19-0.28-0.26c-0.14-0.07-0.25-0.1-0.41-0.12c-2.49-0.32-5.09-0.53-7.78-0.6
					c-17.58-0.41-32.1,11.05-32.13,12.47c-0.03,1.38,13.11,12.8,29.93,13.87c0.35,0.02,0.6,0.05,0.9-0.18
					c0.3-0.22,0.37-0.63,0.49-1.05c1.59-5.67,3.73-10.36,3.78-10.46c1.9-3.99,4.19-7.63,6.83-10.85
					C166.79,485.82,166.88,485.7,166.87,485.51"/>
				<path class="st1" d="M127.53,461.58c-0.26-0.19-0.82-0.34-1.35-0.39c-12.36-1-22.83,2.95-23.2,3.99
					c-0.41,1.13,6.22,12.63,18.22,19.79c0.55,0.33,1.18,0.63,1.62,0.62c0.44-0.01,0.88-0.3,1.32-0.61c3.11-2.24,7.18-4.53,11.86-6.4
					c0.39-0.16,0.72-0.31,0.71-0.67c-0.01-0.28-0.14-0.53-0.44-0.9c-3.48-4.36-6.25-9.6-8.15-14.71
					C128,461.98,127.8,461.77,127.53,461.58"/>
				<path class="st1" d="M208.03,423.85c-1.17-0.13-10.84,8.55-14.79,21.61c-2.7,8.94,1.75,13.59-0.15,13.14
					c-0.8-0.19-3.19-1.29-7.02-1.58c-9.86-0.75-19.69,4.47-20.26,5.66l-0.02,0.04c-0.57,1.19,1.56,12.11,8.34,19.31
					c2.64,2.8,4.99,3.97,5.64,4.46c1.55,1.2-4.87,0.66-10.12,8.39c-7.66,11.28-8.33,24.26-7.49,25.09c1.02,1,17.28,0.06,34.94-14.67
					c7.69-6.41,12.66-16.34,14.7-20.61l0.03-0.06c2.03-4.27,6.63-14.39,6.77-24.39C218.95,437.24,209.45,424.01,208.03,423.85"/>
				<path class="st1" d="M164.81,410.67c-1.09,0.92-0.86,19.42,10.51,32.83c1.74,2.05,3.54,3.94,5.36,5.67
					c0.11,0.11,0.2,0.18,0.35,0.25c0.14,0.06,0.25,0.06,0.38,0.06c0.78-0.06,1.55-0.12,2.33-0.14c0.19-0.01,0.32-0.05,0.47-0.16
					c0.16-0.11,0.19-0.26,0.23-0.46c0.85-4.08,2.24-8.14,4.14-12.14c0.05-0.1,2.35-4.71,5.76-9.51c0.25-0.36,0.52-0.67,0.51-1.04
					c-0.01-0.37-0.19-0.55-0.43-0.81C183.01,412.81,165.86,409.78,164.81,410.67"/>
				<path class="st1" d="M140.86,433.65c0.31,0.09,0.6,0.11,0.92,0.01c5.17-1.74,10.99-2.89,16.56-2.92c0.48,0,0.76-0.06,0.98-0.23
					c0.28-0.22,0.2-0.57,0.08-0.98c-1.49-4.81-2.26-9.42-2.48-13.24c-0.03-0.54-0.08-1.07-0.35-1.41s-0.9-0.65-1.5-0.87
					c-13.11-4.82-26.22-2.74-26.84-1.71c-0.57,0.94,2.94,11.56,11.49,20.55C140.07,433.22,140.55,433.56,140.86,433.65"/>
				<path class="st1" d="M163.05,438.78c-0.16-0.11-0.44-0.18-0.68-0.21c-13.78-1.88-28.7,6.62-29.54,8.39l-0.01,0.01
					c-0.85,1.77,1.93,18.71,12.06,28.24c0.18,0.17,0.41,0.34,0.6,0.4c0.19,0.06,0.39,0.02,0.61-0.03c3.52-0.71,7.2-1.11,10.96-1.02
					c0.93,0.02,1.88,0.13,2.82,0.22c0.34,0.03,0.55,0.02,0.67-0.18c0.12-0.21,0.04-0.46-0.09-0.82c-2.25-5.87-2.93-11.41-1.54-14.33
					l0.03-0.06c1.4-2.91,6.13-5.87,12.11-7.81c0.37-0.12,0.61-0.22,0.7-0.44c0.08-0.22-0.04-0.39-0.28-0.64
					c-0.67-0.68-1.34-1.35-1.95-2.05c-2.43-2.87-4.44-5.98-6.1-9.17C163.31,439.07,163.21,438.89,163.05,438.78"/>
				<path class="st1" d="M110.07,454.05c0.23,0.16,0.53,0.3,0.75,0.36c0.22,0.06,0.5,0.02,0.79-0.03c4.19-0.71,8.65-1,12.66-0.9
					c0.47,0.01,0.81-0.04,1.02-0.32c0.21-0.28,0.19-0.81,0.11-1.38c-0.46-3.45-0.31-6.34,0.53-8.1l0.01-0.02
					c0.84-1.76,2.99-3.7,5.96-5.51c0.49-0.3,0.93-0.62,1.01-0.96c0.08-0.34-0.09-0.63-0.39-0.99c-2.61-3.05-5.18-6.7-7.27-10.4
					c-0.14-0.25-0.29-0.5-0.47-0.63c-0.19-0.13-0.48-0.28-0.75-0.36c-14.01-3.81-28.96,2.34-29.65,3.79l-0.01,0.01
					C93.67,430.05,98.29,445.55,110.07,454.05"/>
				<path class="st1" d="M280.63,364.31c0.42,0.18,0.72,0.32,1.18,0.18c0.46-0.15,0.73-0.61,1.06-1.08
					c4.44-6.28,9.12-11.1,9.22-11.2c4.09-4.07,8.49-7.54,13.14-10.35c0.23-0.14,0.4-0.24,0.47-0.48c0.07-0.24,0.06-0.41-0.02-0.65
					c-0.31-0.97-0.58-1.95-0.84-2.93c-0.04-0.16-0.09-0.3-0.23-0.44c-0.14-0.15-0.27-0.23-0.45-0.32c-2.92-1.48-6.02-2.88-9.29-4.14
					c-21.42-8.2-44.28-0.48-44.94,1.26C249.28,335.84,260.44,355.63,280.63,364.31"/>
				<path class="st1" d="M236.1,288.42c-1,1.21,2.11,18.24,13.72,32.29c0.53,0.64,1.17,1.29,1.72,1.47c0.55,0.18,1.22,0.02,1.9-0.18
					c4.8-1.38,10.8-2.43,17.37-2.67c0.55-0.02,1.02-0.07,1.17-0.52c0.11-0.34,0.06-0.7-0.14-1.3c-2.37-6.87-3.47-14.53-3.57-21.64
					c-0.01-0.44-0.17-0.79-0.41-1.13c-0.24-0.35-0.86-0.79-1.49-1.07C251.61,287.04,237.01,287.31,236.1,288.42"/>
				<path class="st1" d="M314.4,312.85l-0.04,0.04c-1.22,1.21-3.39,15.57,1.79,27.38c2.02,4.59,4.39,7.06,4.98,7.96
					c1.38,2.15-6.27-1.32-16.1,5.87c-14.36,10.51-20.86,26.16-20.2,27.55c0.81,1.67,21.21,7.64,49.36-2.72
					c12.25-4.51,22.71-14.54,27.09-18.89l0.07-0.06h0c4.37-4.36,14.44-14.77,19.01-27.01c10.49-28.1,4.61-48.52,2.94-49.34
					c-1.38-0.68-17.06,5.76-27.63,20.07c-7.24,9.8-3.8,17.47-5.95,16.08c-0.9-0.59-3.36-2.98-7.94-5.02
					C329.98,309.53,315.62,311.64,314.4,312.85"/>
				<path class="st1" d="M338.91,303.22c0.15,0.14,0.28,0.19,0.44,0.23c0.98,0.26,1.96,0.53,2.93,0.85
					c0.24,0.08,0.41,0.08,0.65,0.02c0.24-0.06,0.34-0.23,0.48-0.46c2.83-4.64,6.32-9.03,10.41-13.1c0.1-0.1,4.94-4.76,11.24-9.17
					c0.47-0.33,0.94-0.6,1.08-1.06c0.15-0.46,0.01-0.77-0.17-1.18c-8.59-20.23-28.33-31.47-30.01-30.83
					c-1.74,0.66-9.56,23.48-1.46,44.94c1.24,3.29,2.63,6.39,4.1,9.32C338.69,302.95,338.77,303.08,338.91,303.22"/>
				<path class="st1" d="M296.46,266.26c0.34,0.24,0.69,0.4,1.13,0.41c7.12,0.13,14.77,1.26,21.63,3.66c0.6,0.21,0.96,0.26,1.3,0.15
					c0.44-0.15,0.5-0.61,0.52-1.17c0.27-6.57,1.34-12.56,2.75-17.36c0.2-0.68,0.37-1.35,0.18-1.9c-0.18-0.55-0.83-1.19-1.47-1.72
					c-14-11.67-31.02-14.84-32.23-13.85c-1.11,0.91-1.45,15.5,5.12,30.28C295.68,265.4,296.11,266.02,296.46,266.26"/>
				<path class="st1" d="M280.75,279.1c-1.82,1.8-5.82,23.83,2.45,39.98c0.15,0.29,0.35,0.6,0.56,0.75c0.2,0.15,0.47,0.19,0.76,0.23
					c4.64,0.67,9.34,1.79,13.92,3.54c1.13,0.43,2.25,0.98,3.37,1.5c0.4,0.19,0.67,0.27,0.91,0.07c0.24-0.2,0.26-0.54,0.24-1.05
					c-0.19-8.19,1.4-15.3,4.38-18.28l0.07-0.07c2.99-2.96,10.1-4.53,18.3-4.3c0.51,0.01,0.85,0,1.05-0.24
					c0.2-0.23,0.12-0.51-0.07-0.91c-0.52-1.12-1.06-2.24-1.49-3.38c-1.73-4.59-2.83-9.29-3.48-13.93c-0.04-0.29-0.08-0.55-0.23-0.76
					c-0.15-0.2-0.46-0.41-0.75-0.56c-16.11-8.34-38.16-4.43-39.97-2.62L280.75,279.1z"/>
				<path class="st1" d="M280.72,249.78c-0.06-0.37-0.14-0.74-0.31-0.98c-0.17-0.24-0.47-0.56-0.77-0.77
					c-15.54-10.82-36.62-9.8-38.09-8.33l-0.01,0.01c-1.48,1.47-2.59,22.54,8.16,38.13c0.21,0.3,0.52,0.6,0.76,0.77
					c0.24,0.17,0.61,0.24,0.98,0.31c5.46,0.96,11.06,2.55,15.95,4.44c0.58,0.23,1.01,0.31,1.39,0.06c0.38-0.25,0.59-0.92,0.74-1.65
					c0.95-4.45,2.4-7.92,4.21-9.72l0.02-0.02c1.81-1.8,5.29-3.23,9.74-4.16c0.74-0.15,1.41-0.35,1.66-0.74
					c0.25-0.38,0.17-0.81-0.05-1.39C283.22,260.85,281.66,255.24,280.72,249.78"/>
				<path class="st1" d="M155.57,562.21c-0.3-0.22-0.55-0.2-0.9-0.18c-16.82,1.07-29.96,12.49-29.93,13.87
					c0.03,1.43,14.55,12.89,32.13,12.48c2.69-0.06,5.29-0.28,7.78-0.6c0.16-0.02,0.27-0.05,0.41-0.12c0.14-0.07,0.21-0.16,0.28-0.26
					c0.44-0.64,0.89-1.28,1.36-1.9c0.12-0.15,0.17-0.28,0.18-0.47c0.01-0.19-0.08-0.31-0.21-0.47c-2.64-3.23-4.92-6.86-6.83-10.85
					c-0.05-0.1-2.18-4.79-3.78-10.46C155.94,562.84,155.86,562.44,155.57,562.21"/>
				<path class="st1" d="M102.98,605.38c0.37,1.03,10.84,4.99,23.2,3.99c0.53-0.04,1.09-0.2,1.35-0.39c0.26-0.19,0.47-0.4,0.59-0.72
					c1.9-5.11,4.67-10.36,8.15-14.71c0.3-0.38,0.43-0.63,0.44-0.9c0.01-0.36-0.32-0.52-0.71-0.67c-4.68-1.87-8.75-4.16-11.86-6.4
					c-0.44-0.32-0.88-0.61-1.32-0.62c-0.44-0.01-1.07,0.3-1.62,0.62C109.19,592.75,102.57,604.25,102.98,605.38"/>
				<path class="st1" d="M208.03,646.72c1.41-0.16,10.92-13.39,10.58-36.39c-0.15-10-4.74-20.12-6.77-24.39l-0.03-0.06
					c-2.04-4.27-7.01-14.2-14.7-20.61c-17.66-14.73-33.93-15.67-34.94-14.67c-0.84,0.83-0.17,13.8,7.49,25.09
					c5.25,7.72,11.67,7.19,10.12,8.39c-0.66,0.5-3.01,1.67-5.64,4.46c-6.78,7.2-8.91,18.12-8.34,19.31l0.02,0.04
					c0.56,1.19,10.4,6.41,20.26,5.66c3.83-0.29,6.22-1.38,7.02-1.58c1.9-0.45-2.55,4.2,0.15,13.14
					C197.19,638.17,206.86,646.85,208.03,646.72"/>
				<path class="st1" d="M194.42,645.35c0.24-0.26,0.42-0.44,0.43-0.81c0.01-0.37-0.26-0.69-0.51-1.04
					c-3.41-4.8-5.71-9.41-5.76-9.51c-1.9-3.99-3.29-8.06-4.14-12.14c-0.04-0.2-0.07-0.35-0.23-0.46c-0.16-0.11-0.28-0.15-0.48-0.15
					c-0.78-0.02-1.55-0.08-2.33-0.14c-0.13-0.01-0.24-0.01-0.38,0.05c-0.14,0.06-0.23,0.13-0.35,0.25
					c-1.81,1.73-3.61,3.62-5.36,5.67c-11.38,13.41-11.6,31.91-10.51,32.82C165.86,660.79,183.01,657.75,194.42,645.35"/>
				<path class="st1" d="M156.56,655.69c0.27-0.35,0.32-0.87,0.35-1.42c0.22-3.82,0.99-8.43,2.48-13.24
					c0.13-0.41,0.21-0.76-0.08-0.98c-0.22-0.17-0.49-0.23-0.98-0.23c-5.57-0.04-11.39-1.18-16.56-2.92
					c-0.32-0.11-0.61-0.08-0.92,0.01c-0.31,0.09-0.79,0.42-1.15,0.81c-8.55,8.98-12.06,19.61-11.49,20.55
					c0.62,1.03,13.73,3.11,26.84-1.71C155.66,656.34,156.29,656.04,156.56,655.69"/>
				<path class="st1" d="M132.82,623.61c0.84,1.77,15.76,10.27,29.54,8.39c0.25-0.03,0.52-0.1,0.69-0.22
					c0.16-0.11,0.26-0.29,0.36-0.49c1.66-3.19,3.67-6.3,6.1-9.16c0.6-0.71,1.28-1.38,1.95-2.06c0.24-0.24,0.36-0.42,0.28-0.64
					c-0.09-0.22-0.33-0.32-0.7-0.44c-5.98-1.94-10.71-4.9-12.11-7.81l-0.03-0.06c-1.38-2.92-0.71-8.46,1.54-14.33
					c0.14-0.36,0.22-0.62,0.09-0.82c-0.12-0.2-0.34-0.22-0.67-0.18c-0.95,0.09-1.89,0.2-2.82,0.22c-3.76,0.09-7.44-0.31-10.96-1.02
					c-0.22-0.04-0.42-0.08-0.61-0.03c-0.19,0.06-0.41,0.23-0.6,0.4c-10.13,9.54-12.91,26.47-12.06,28.24L132.82,623.61z"/>
				<path class="st1" d="M132.91,633.37c-0.08-0.34-0.52-0.66-1.01-0.96c-2.97-1.82-5.12-3.75-5.96-5.51l-0.01-0.02
					c-0.84-1.76-0.99-4.65-0.53-8.1c0.08-0.57,0.1-1.11-0.11-1.38c-0.21-0.27-0.54-0.33-1.02-0.32c-4.01,0.11-8.47-0.19-12.66-0.9
					c-0.29-0.05-0.57-0.09-0.79-0.03c-0.22,0.06-0.52,0.2-0.75,0.36c-11.78,8.49-16.4,23.99-15.71,25.43l0.01,0.01
					c0.69,1.45,15.64,7.6,29.65,3.79c0.27-0.08,0.57-0.23,0.75-0.36c0.19-0.13,0.33-0.38,0.47-0.63c2.09-3.71,4.66-7.35,7.27-10.41
					C132.82,634,132.99,633.71,132.91,633.37"/>
				<path class="st1" d="M522.6,536.22l13.41-13.41l13.41,13.41l-13.41,13.41L522.6,536.22z M539.45,559.97l20.3-20.3
					c1.9-1.9,1.9-4.99,0-6.89l-20.3-20.3c-1.9-1.9-4.99-1.9-6.89,0l-20.3,20.3c-1.9,1.9-1.9,4.99,0,6.89l20.3,20.3
					c0.95,0.95,2.2,1.43,3.45,1.43C537.26,561.39,538.5,560.92,539.45,559.97"/>
				<path class="st1" d="M536.01,121.15l-7.68-12.1l7.68-12.1l7.68,12.1L536.01,121.15z M540.12,85.24
					c-0.89-1.41-2.45-2.26-4.11-2.26c-1.67,0-3.22,0.85-4.11,2.26l-13.45,21.2c-1.01,1.59-1.01,3.63,0,5.22l13.45,21.2
					c0.89,1.41,2.45,2.26,4.11,2.26c1.67,0,3.22-0.85,4.11-2.26l13.44-21.2c1.01-1.59,1.01-3.63,0-5.22L540.12,85.24z"/>
				<path class="st1" d="M536.01,16.48l7.67,12.11l-7.67,12.1l-7.68-12.1L536.01,16.48z M531.89,52.4c0.89,1.41,2.45,2.26,4.11,2.26
					c1.67,0,3.22-0.85,4.11-2.26l13.45-21.2c1.01-1.59,1.01-3.63,0-5.22l-13.45-21.2c-0.89-1.41-2.44-2.26-4.11-2.26
					c-1.67,0-3.22,0.85-4.11,2.26l-13.45,21.2c-1.01,1.59-1.01,3.63,0,5.22L531.89,52.4z"/>
				<path class="st1" d="M616.99,374.81c-2.42-1.18-5.33-0.18-6.52,2.23c-1.18,2.41-0.18,5.33,2.23,6.52
					c12.05,5.9,25.01,8.89,38.51,8.89c12.72,0,24.98-2.72,36.26-7.86c-5.16,11.3-7.89,23.58-7.89,36.33
					c0,13.51,2.99,26.47,8.89,38.51c0.85,1.73,2.58,2.73,4.38,2.73c0.72,0,1.45-0.16,2.14-0.5c2.41-1.18,3.42-4.1,2.23-6.52
					c-5.24-10.7-7.9-22.21-7.9-34.22c0-17.29,5.54-33.66,16.02-47.34c0.09-0.11,0.15-0.24,0.22-0.36c0.08-0.13,0.17-0.25,0.24-0.39
					c0.05-0.1,0.09-0.2,0.14-0.31c0.1-0.21,0.18-0.43,0.24-0.65c0.01-0.03,0.01-0.06,0.02-0.09c0.37-1.4,0.12-2.95-0.83-4.18
					c-1.63-2.14-4.7-2.54-6.83-0.9c-13.69,10.48-30.05,16.02-47.34,16.02C639.21,382.71,627.7,380.05,616.99,374.81"/>
				<path class="st1" d="M671.72,170.41c15.63,9.67,27.36,23.88,33.91,41.1c4.55,11.96,6.28,24.44,5.11,37.08
					c-0.25,2.68,1.73,5.05,4.41,5.29c0.15,0.02,0.3,0.02,0.45,0.02c2.49,0,4.61-1.9,4.85-4.43c1.3-14.13-0.62-28.07-5.71-41.44
					c-3.21-8.42-7.59-16.16-12.89-23.15c7.68-7.02,29.2-19.29,52.02-22.98c22.23-3.6,45.85-0.54,64.81,8.37
					c16.33,7.68,26.03,25.24,21.61,39.12c-1.39,4.38-4.4,7.95-8.48,10.06c-4.08,2.11-8.73,2.5-13.11,1.11
					c-5.56-1.77-8.64-7.72-6.87-13.28c0.48-1.51,1.52-2.75,2.93-3.47c1.41-0.73,3.02-0.87,4.53-0.38c2.57,0.8,5.3-0.6,6.12-3.16
					c0.81-2.57-0.6-5.3-3.17-6.12c-3.99-1.26-8.24-0.91-11.96,1.02c-3.72,1.93-6.47,5.18-7.74,9.17
					c-3.4,10.68,2.52,22.13,13.2,25.53c2.69,0.86,5.45,1.28,8.2,1.28c4.25,0,8.46-1.02,12.34-3.02c6.39-3.31,11.11-8.9,13.3-15.76
					c5.94-18.69-5.8-41.04-26.74-50.89c-21-9.88-46.03-13.14-70.51-9.18c-23.63,3.82-46.95,16.45-56.73,25.15
					c-5.5-5.84-11.75-11-18.74-15.33c-2.29-1.42-5.29-0.7-6.71,1.58C668.72,166,669.43,169,671.72,170.41"/>
				<path class="st1" d="M564.53,279.46c2.41,0,4.51-1.8,4.83-4.26c2.14-16.76,7.96-34.01,16.83-49.88
					c1.31-2.35,0.47-5.32-1.88-6.63c-2.36-1.31-5.32-0.47-6.63,1.88c-9.47,16.95-15.69,35.42-17.99,53.4
					c-0.34,2.67,1.55,5.11,4.22,5.45C564.12,279.45,564.32,279.46,564.53,279.46"/>
				<path class="st1" d="M655.12,280.24c-22.72-7.41-48.5-0.79-64.13,16.48c-1.8,1.99-1.65,5.07,0.35,6.88
					c1.99,1.81,5.07,1.65,6.88-0.35c13.08-14.46,34.73-19.99,53.88-13.75c13.99,4.56,21.78,19.58,17.35,33.49
					c-2.88,9.04-12.56,14.05-21.6,11.17c-2.69-0.86-4.89-2.71-6.19-5.22c-1.3-2.51-1.54-5.37-0.68-8.07
					c0.99-3.11,4.32-4.85,7.46-3.86c2.55,0.81,5.3-0.6,6.12-3.17c0.81-2.57-0.6-5.3-3.17-6.12c-8.23-2.61-17.08,1.95-19.7,10.19
					c-1.65,5.17-1.18,10.68,1.31,15.5c2.49,4.82,6.71,8.38,11.89,10.03c2.71,0.86,5.45,1.27,8.15,1.27
					c11.41,0,22.04-7.33,25.69-18.77C684.78,306.96,674.18,286.46,655.12,280.24"/>
				<path class="st1" d="M553.81,87.8c5.71,9.09,13.73,17.36,23.19,23.93c0.84,0.59,1.81,0.87,2.78,0.87c1.54,0,3.06-0.73,4-2.1
					c1.53-2.21,0.99-5.24-1.22-6.78c-8.39-5.83-15.47-13.13-20.49-21.11c-6.33-10.08-5.55-23.2,1.75-29.25
					c4.47-3.72,11.14-3.09,14.85,1.38c2.09,2.51,1.74,6.26-0.78,8.34c-1.14,0.95-2.83,0.79-3.78-0.35c-1.72-2.07-4.8-2.36-6.86-0.64
					c-2.07,1.72-2.36,4.79-0.64,6.86c4.38,5.27,12.23,6.01,17.5,1.63c3.22-2.67,5.21-6.44,5.6-10.61c0.39-4.17-0.87-8.23-3.54-11.45
					c-7.14-8.61-19.96-9.82-28.57-2.67C546.49,55.08,544.83,73.49,553.81,87.8"/>
				<path class="st1" d="M532.18,214.17c0-5.36,2.75-8.79,4.64-8.79c1.89,0,4.64,3.43,4.64,8.79c0,5.36-2.75,8.78-4.64,8.78
					C534.93,222.95,532.18,219.53,532.18,214.17 M551.2,214.17c0-10.39-6.32-18.53-14.38-18.53c-8.06,0-14.38,8.14-14.38,18.53
					c0,10.39,6.32,18.52,14.38,18.52C544.88,232.69,551.2,224.56,551.2,214.17"/>
				<path class="st1" d="M647.04,425.14c-0.89-0.89-0.7-2.59-0.58-3.28c0.38-2.09,1.65-4.35,3.51-6.21
					c2.56-2.56,5.38-3.61,7.35-3.61c0.95,0,1.7,0.24,2.14,0.68c1.34,1.34,0.86,5.7-2.93,9.49c-1.86,1.85-4.12,3.13-6.21,3.51
					C649.64,425.84,647.93,426.04,647.04,425.14 M652.04,435.31c4.07-0.73,8.11-2.93,11.38-6.21c7.35-7.35,8.63-17.57,2.93-23.27
					c-5.7-5.7-15.92-4.42-23.27,2.93c-3.28,3.28-5.48,7.31-6.21,11.38c-0.83,4.64,0.37,8.97,3.28,11.89
					c2.31,2.31,5.51,3.54,9.04,3.54C650.12,435.57,651.07,435.49,652.04,435.31"/>
				<path class="st1" d="M963.05,528.26l12.1,7.68l-12.1,7.68l-12.11-7.68L963.05,528.26z M963.05,554.25
					c0.91,0,1.81-0.25,2.61-0.76l21.2-13.44c1.41-0.89,2.26-2.45,2.26-4.11c0-1.67-0.85-3.22-2.26-4.11l-21.2-13.45
					c-1.59-1.01-3.63-1.01-5.22,0l-21.2,13.45c-1.41,0.89-2.26,2.45-2.26,4.11c0,1.67,0.85,3.22,2.26,4.11l21.2,13.44
					C961.24,554,962.15,554.25,963.05,554.25"/>
				<path class="st1" d="M1043.51,543.61l-12.1-7.67l12.1-7.68l12.1,7.68L1043.51,543.61z M1067.32,531.82l-21.2-13.45
					c-1.59-1.01-3.63-1.01-5.22,0l-21.2,13.45c-1.41,0.89-2.26,2.45-2.26,4.11c0,1.67,0.85,3.22,2.26,4.11l21.2,13.45
					c0.8,0.51,1.7,0.76,2.61,0.76c0.91,0,1.81-0.25,2.61-0.76l21.2-13.45c1.41-0.89,2.26-2.45,2.26-4.11
					C1069.59,534.27,1068.73,532.71,1067.32,531.82"/>
				<path class="st1" d="M849.15,586.73c1.71,0,3.37-0.9,4.26-2.5c1.31-2.35,0.47-5.32-1.88-6.63
					c-16.96-9.47-35.42-15.69-53.41-17.99c-2.65-0.34-5.11,1.55-5.45,4.22c-0.34,2.67,1.55,5.11,4.22,5.45
					c16.76,2.14,34.01,7.95,49.89,16.83C847.53,586.53,848.34,586.73,849.15,586.73"/>
				<path class="st1" d="M698.65,705.34c0.38,0.28,0.79,0.49,1.21,0.65c0.06,0.02,0.12,0.04,0.18,0.06
					c0.49,0.16,0.99,0.27,1.51,0.27c0.28,0,0.56-0.09,0.84-0.14c0.08-0.01,0.16-0.02,0.23-0.04c0.32-0.07,0.63-0.19,0.94-0.33
					c0.05-0.02,0.1-0.05,0.15-0.08c0.27-0.14,0.55-0.24,0.8-0.43c2.14-1.64,2.54-4.69,0.9-6.83
					c-10.48-13.68-16.02-30.05-16.02-47.34c0-12.01,2.66-23.53,7.9-34.22c1.18-2.42,0.18-5.34-2.23-6.52
					c-2.41-1.18-5.33-0.18-6.52,2.23c-5.9,12.05-8.89,25-8.89,38.51c0,12.72,2.71,24.98,7.86,36.26
					c-11.3-5.16-23.58-7.89-36.32-7.89c-13.51,0-26.47,2.99-38.51,8.89c-2.41,1.18-3.42,4.1-2.23,6.52c1.18,2.41,4.1,3.41,6.52,2.23
					c10.7-5.24,22.21-7.9,34.22-7.9c17.29,0,33.66,5.54,47.34,16.02C698.57,705.3,698.61,705.32,698.65,705.34"/>
				<path class="st1" d="M746.15,678.66c3.62,1.15,7.29,1.7,10.91,1.7c15.37,0,29.77-9.88,34.79-25.32
					c7.41-22.73,0.79-48.51-16.48-64.13c-2-1.81-5.07-1.65-6.88,0.34c-1.8,2-1.65,5.08,0.35,6.88
					c14.46,13.08,19.99,34.74,13.75,53.88c-4.56,13.99-19.59,21.79-33.49,17.35c-9.04-2.87-14.05-12.56-11.17-21.59
					c1.77-5.56,7.72-8.66,13.28-6.87c1.51,0.48,2.75,1.52,3.48,2.93c0.73,1.41,0.86,3.02,0.38,4.53c-0.81,2.56,0.6,5.3,3.17,6.12
					c2.57,0.81,5.3-0.61,6.12-3.17c2.62-8.24-1.95-17.08-10.19-19.7c-10.68-3.4-22.12,2.52-25.52,13.2
					c-2.18,6.86-1.56,14.15,1.74,20.55C733.7,671.76,739.3,676.48,746.15,678.66"/>
				<path class="st1" d="M894.64,695.51c5.84-5.5,11.01-11.75,15.33-18.74c1.41-2.29,0.7-5.29-1.58-6.71
					c-2.29-1.42-5.29-0.7-6.71,1.58c-9.67,15.63-23.88,27.35-41.1,33.91c-11.97,4.55-24.44,6.26-37.08,5.11
					c-2.7-0.23-5.05,1.73-5.29,4.4c-0.25,2.68,1.72,5.05,4.41,5.29c2.85,0.26,5.7,0.4,8.53,0.4c11.2,0,22.24-2.04,32.91-6.1
					c8.43-3.21,16.16-7.58,23.15-12.89c7.02,7.68,19.29,29.2,22.98,52.02c3.6,22.23,0.54,45.85-8.37,64.81
					c-7.68,16.33-25.24,26.03-39.12,21.61c-9.04-2.87-14.05-12.56-11.17-21.6c1.77-5.56,7.72-8.63,13.28-6.87
					c3.12,0.99,4.85,4.34,3.86,7.46c-0.82,2.57,0.6,5.3,3.17,6.12c2.56,0.81,5.3-0.6,6.12-3.17c2.62-8.24-1.95-17.08-10.19-19.7
					c-5.17-1.64-10.67-1.17-15.5,1.32c-4.82,2.49-8.38,6.71-10.03,11.89c-2.18,6.86-1.56,14.15,1.74,20.55
					c3.31,6.39,8.9,11.11,15.76,13.3c3.28,1.04,6.67,1.54,10.08,1.54c16.06,0,32.68-11.02,40.81-28.28
					c9.88-20.99,13.14-46.03,9.18-70.51C915.98,728.61,903.35,705.29,894.64,695.51"/>
				<path class="st1" d="M984.3,553.74c-9.09,5.71-17.37,13.72-23.93,23.18c-1.54,2.21-0.99,5.25,1.22,6.78
					c2.21,1.54,5.25,0.99,6.78-1.22c5.83-8.39,13.13-15.48,21.11-20.49c10.08-6.33,23.2-5.55,29.25,1.75
					c3.71,4.48,3.09,11.14-1.38,14.85c-2.51,2.09-6.26,1.74-8.34-0.78c-0.95-1.14-0.79-2.83,0.35-3.78
					c2.07-1.72,2.36-4.79,0.64-6.86c-1.72-2.07-4.8-2.35-6.86-0.64c-5.27,4.38-6,12.23-1.63,17.5c2.67,3.22,6.44,5.21,10.61,5.6
					c0.49,0.05,0.99,0.07,1.48,0.07c3.64,0,7.14-1.25,9.97-3.61c8.61-7.14,9.8-19.96,2.67-28.57
					C1017.03,546.42,998.61,544.76,984.3,553.74"/>
				<path class="st1" d="M857.93,541.38c-5.36,0-8.78-2.75-8.78-4.64s3.42-4.64,8.78-4.64c5.36,0,8.78,2.75,8.78,4.64
					S863.3,541.38,857.93,541.38 M857.93,522.36c-10.39,0-18.52,6.32-18.52,14.38c0,8.06,8.14,14.38,18.52,14.38
					c10.39,0,18.52-6.32,18.52-14.38C876.46,528.68,868.32,522.36,857.93,522.36"/>
				<path class="st1" d="M842.71,256.86c1.65,5.17,5.21,9.39,10.03,11.89c4.82,2.49,10.33,2.96,15.49,1.31
					c4-1.27,7.25-4.02,9.18-7.74c1.93-3.72,2.29-7.97,1.02-11.96c-0.82-2.57-3.55-3.97-6.12-3.17c-2.56,0.82-3.98,3.56-3.17,6.12
					c0.48,1.51,0.35,3.12-0.38,4.53c-0.73,1.41-1.96,2.45-3.47,2.93c-2.69,0.86-5.56,0.62-8.07-0.68c-2.51-1.3-4.36-3.49-5.22-6.19
					c-2.87-9.03,2.14-18.72,11.17-21.6c13.89-4.43,31.44,5.27,39.12,21.61c8.92,18.95,11.97,42.57,8.38,64.81
					c-3.69,22.82-15.96,44.34-22.98,52.02c-6.99-5.3-14.73-9.68-23.15-12.89c-13.37-5.08-27.31-7.01-41.44-5.71
					c-2.68,0.25-4.65,2.62-4.41,5.3s2.63,4.69,5.3,4.4c12.63-1.15,25.11,0.56,37.08,5.11c17.23,6.56,31.44,18.28,41.1,33.91
					c0.92,1.49,2.52,2.31,4.15,2.31c0.87,0,1.76-0.23,2.56-0.73c2.29-1.41,3-4.42,1.58-6.71c-4.32-6.99-9.49-13.24-15.33-18.74
					c8.7-9.78,21.33-33.1,25.15-56.73c3.96-24.48,0.7-49.52-9.18-70.51c-9.85-20.94-32.21-32.67-50.89-26.74
					C846.06,227.53,838.21,242.71,842.71,256.86"/>
				<path class="st1" d="M847.27,486.4c-15.88,8.87-33.13,14.69-49.89,16.83c-2.67,0.34-4.56,2.78-4.22,5.45
					c0.32,2.46,2.41,4.26,4.83,4.26c0.21,0,0.41-0.02,0.62-0.04c17.99-2.29,36.45-8.51,53.41-17.99c2.35-1.31,3.19-4.28,1.88-6.63
					C852.58,485.93,849.62,485.09,847.27,486.4"/>
				<path class="st1" d="M961.59,487.35c-2.21,1.53-2.76,4.57-1.22,6.78c6.58,9.47,14.85,17.49,23.94,23.19
					c6.19,3.88,13.14,5.78,19.79,5.78c8.72,0,16.92-3.26,22.14-9.56c7.14-8.61,5.94-21.43-2.66-28.57
					c-3.22-2.67-7.3-3.94-11.46-3.54c-4.16,0.39-7.93,2.38-10.6,5.6c-2.12,2.55-3.12,5.78-2.81,9.09c0.31,3.3,1.89,6.29,4.44,8.41
					c2.07,1.72,5.14,1.43,6.86-0.64c1.72-2.07,1.43-5.15-0.64-6.86c-0.55-0.46-0.89-1.1-0.96-1.82c-0.07-0.72,0.15-1.41,0.61-1.96
					c2.08-2.52,5.83-2.86,8.34-0.78c4.47,3.71,5.1,10.38,1.39,14.85c-6.05,7.29-19.18,8.07-29.25,1.75
					c-7.98-5.01-15.28-12.09-21.11-20.49C966.84,486.36,963.8,485.81,961.59,487.35"/>
				<path class="st1" d="M791.86,416.98c-6.21-19.07-26.71-29.65-45.71-23.62c-14.15,4.5-22.01,19.69-17.5,33.84
					c3.4,10.67,14.84,16.6,25.52,13.2c4-1.27,7.25-4.02,9.18-7.74c1.93-3.72,2.29-7.97,1.02-11.96c-0.82-2.56-3.55-3.97-6.12-3.16
					c-2.56,0.82-3.98,3.56-3.16,6.12c0.48,1.51,0.34,3.12-0.38,4.53c-0.73,1.41-1.96,2.45-3.48,2.93
					c-5.55,1.77-11.52-1.31-13.28-6.87c-2.87-9.04,2.14-18.72,11.17-21.6c13.9-4.42,28.93,3.36,33.49,17.35
					c6.24,19.14,0.71,40.8-13.75,53.88c-2,1.81-2.15,4.89-0.35,6.88c0.96,1.06,2.29,1.6,3.62,1.6c1.16,0,2.33-0.41,3.26-1.26
					C792.64,465.49,799.27,439.72,791.86,416.98"/>
				<path class="st1" d="M659.86,660.36c-1.33,1.33-5.7,0.86-9.49-2.93c-1.85-1.85-3.13-4.12-3.5-6.21
					c-0.13-0.69-0.32-2.39,0.58-3.28c0.54-0.54,1.38-0.68,2.11-0.68c0.47,0,0.9,0.06,1.17,0.11c2.09,0.37,4.36,1.65,6.21,3.51
					C660.72,654.67,661.2,659.03,659.86,660.36 M640.55,641.05c-2.91,2.92-4.11,7.25-3.28,11.89c0.73,4.06,2.93,8.11,6.21,11.38
					c4.26,4.26,9.49,6.49,14.25,6.49c3.44,0,6.63-1.16,9.02-3.56c5.7-5.7,4.41-15.92-2.93-23.27c-3.27-3.28-7.32-5.48-11.38-6.21
					C647.8,636.94,643.46,638.14,640.55,641.05"/>
				<path class="st1" d="M536.66,951.85l7.67,12.1l-7.67,12.1l-7.68-12.1L536.66,951.85z M532.54,987.76
					c0.89,1.41,2.45,2.26,4.11,2.26c1.67,0,3.22-0.85,4.11-2.26l13.45-21.2c1.01-1.59,1.01-3.63,0-5.22l-13.45-21.2
					c-0.89-1.41-2.45-2.26-4.11-2.26c-1.67,0-3.22,0.85-4.11,2.26l-13.45,21.2c-1.01,1.59-1.01,3.63,0,5.22L532.54,987.76z"/>
				<path class="st1" d="M536.66,1056.52l-7.68-12.1l7.68-12.1l7.68,12.1L536.66,1056.52z M540.77,1020.61
					c-0.89-1.41-2.45-2.26-4.11-2.26c-1.67,0-3.22,0.85-4.11,2.26l-13.45,21.2c-1.01,1.59-1.01,3.62,0,5.22l13.45,21.2
					c0.89,1.41,2.45,2.26,4.11,2.26c1.67,0,3.22-0.85,4.11-2.26l13.44-21.2c1.01-1.59,1.01-3.63,0-5.22L540.77,1020.61z"/>
				<path class="st1" d="M540.48,858.83c0,5.36-2.75,8.78-4.64,8.78s-4.64-3.42-4.64-8.78c0-5.36,2.75-8.78,4.64-8.78
					S540.48,853.47,540.48,858.83 M521.46,858.83c0,10.39,6.32,18.52,14.38,18.52c8.06,0,14.38-8.14,14.38-18.52
					c0-10.39-6.32-18.52-14.38-18.52C527.78,840.31,521.46,848.44,521.46,858.83"/>
				<path class="st1" d="M836.27,845.36c-6.39-3.3-13.68-3.93-20.55-1.74c-5.17,1.65-9.39,5.21-11.89,10.03
					c-2.49,4.82-2.96,10.32-1.31,15.49c2.62,8.24,11.46,12.81,19.7,10.19c2.57-0.82,3.98-3.56,3.17-6.12
					c-0.82-2.57-3.57-3.98-6.12-3.17c-3.14,0.99-6.47-0.74-7.46-3.86c-1.77-5.56,1.31-11.52,6.87-13.28
					c9.04-2.88,18.73,2.14,21.6,11.17c4.42,13.89-5.28,31.44-21.61,39.12c-18.95,8.92-42.57,11.97-64.81,8.38
					c-22.82-3.69-44.34-15.96-52.02-22.98c5.3-6.99,9.68-14.73,12.89-23.15c5.08-13.37,7.01-27.31,5.71-41.44
					c-0.24-2.68-2.6-4.64-5.3-4.4c-2.68,0.24-4.65,2.61-4.4,5.29c1.16,12.64-0.56,25.12-5.11,37.08
					c-6.56,17.23-18.28,31.44-33.91,41.1c-2.29,1.41-3,4.42-1.58,6.71c0.92,1.49,2.52,2.31,4.15,2.31c0.87,0,1.76-0.23,2.56-0.73
					c6.99-4.32,13.24-9.49,18.74-15.33c9.78,8.7,33.1,21.34,56.73,25.15c6.79,1.1,13.62,1.64,20.4,1.64
					c17.66,0,34.94-3.68,50.11-10.82c20.94-9.85,32.69-32.21,26.74-50.89C847.38,854.26,842.66,848.66,836.27,845.36"/>
				<path class="st1" d="M563.91,794.06c-2.67,0.34-4.56,2.78-4.22,5.45c2.29,17.99,8.51,36.45,17.99,53.41
					c0.89,1.6,2.55,2.5,4.26,2.5c0.8,0,1.62-0.2,2.37-0.62c2.35-1.31,3.19-4.28,1.88-6.63c-8.87-15.88-14.69-33.13-16.83-49.89
					C569.02,795.61,566.58,793.72,563.91,794.06"/>
				<path class="st1" d="M568.07,1004.04c-1.72,2.07-1.43,5.14,0.64,6.86c2.07,1.71,5.14,1.43,6.86-0.64
					c0.94-1.14,2.64-1.3,3.78-0.35c2.51,2.08,2.86,5.82,0.78,8.34c-3.71,4.47-10.38,5.1-14.85,1.38
					c-7.29-6.05-8.08-19.17-1.75-29.25c5.01-7.98,12.1-15.28,20.49-21.11c2.21-1.53,2.76-4.57,1.22-6.78
					c-1.54-2.21-4.57-2.76-6.78-1.22c-9.46,6.57-17.48,14.84-23.19,23.93c-8.98,14.31-7.32,32.72,3.78,41.93
					c3.78,3.13,8.37,4.66,12.93,4.66c5.84,0,11.63-2.5,15.64-7.33c2.67-3.22,3.93-7.29,3.54-11.45c-0.39-4.17-2.38-7.93-5.6-10.61
					C580.31,998.04,572.45,998.77,568.07,1004.04"/>
				<path class="st1" d="M679.22,747.05c-2.18-6.86-6.9-12.45-13.3-15.76c-6.39-3.31-13.69-3.92-20.54-1.74
					c-5.17,1.65-9.4,5.21-11.89,10.03c-2.49,4.82-2.96,10.32-1.31,15.49c1.27,4,4.02,7.26,7.74,9.18c3.72,1.92,7.97,2.28,11.96,1.01
					c2.57-0.81,3.98-3.56,3.16-6.12c-0.82-2.57-3.55-3.98-6.12-3.16c-1.51,0.48-3.12,0.34-4.53-0.38c-1.41-0.73-2.45-1.96-2.93-3.48
					c-0.86-2.69-0.61-5.56,0.68-8.07c1.3-2.51,3.49-4.36,6.19-5.22c4.37-1.39,9.03-0.99,13.11,1.11c4.08,2.11,7.09,5.68,8.48,10.06
					c4.43,13.91-3.36,28.93-17.35,33.49c-19.14,6.24-40.8,0.71-53.88-13.75c-1.8-2-4.88-2.15-6.88-0.35c-2,1.81-2.15,4.89-0.34,6.88
					c11.36,12.55,28.08,19.48,45.1,19.48c6.39,0,12.83-0.98,19.03-3C674.67,786.55,685.26,766.05,679.22,747.05"/>
				<path class="st1" d="M454.69,697.22c2.41,1.18,5.33,0.19,6.52-2.23c1.18-2.42,0.18-5.34-2.23-6.52
					c-12.04-5.9-25-8.89-38.51-8.89c-12.72,0-24.98,2.71-36.26,7.86c5.16-11.3,7.89-23.58,7.89-36.32c0-13.51-2.99-26.47-8.89-38.51
					c-1.19-2.41-4.1-3.42-6.52-2.23c-2.41,1.18-3.42,4.1-2.23,6.52c5.24,10.7,7.9,22.21,7.9,34.22c0,17.29-5.54,33.66-16.02,47.34
					c-0.08,0.11-0.13,0.23-0.21,0.33c-0.09,0.14-0.18,0.27-0.26,0.42c-0.05,0.09-0.09,0.19-0.13,0.28c-0.1,0.22-0.19,0.45-0.25,0.68
					c-0.01,0.02-0.01,0.04-0.02,0.07c-0.37,1.4-0.13,2.95,0.82,4.2c0.96,1.25,2.41,1.91,3.87,1.91c0.35,0,0.7-0.09,1.05-0.17
					c0.02-0.01,0.05-0.01,0.08-0.01c0.28-0.07,0.55-0.17,0.82-0.29c0.19-0.08,0.37-0.18,0.54-0.29c0.15-0.09,0.32-0.13,0.46-0.24
					c13.68-10.48,30.05-16.02,47.34-16.02C432.48,689.32,444,691.98,454.69,697.22"/>
				<path class="st1" d="M399.97,901.61c-15.63-9.67-27.36-23.88-33.91-41.1c-4.55-11.96-6.28-24.44-5.11-37.08
					c0.25-2.68-1.73-5.05-4.4-5.29c-2.69-0.22-5.05,1.73-5.3,4.4c-1.3,14.13,0.62,28.07,5.71,41.44
					c3.21,8.42,7.58,16.16,12.89,23.15c-7.68,7.02-29.2,19.29-52.02,22.98c-22.23,3.59-45.86,0.54-64.81-8.38
					c-16.33-7.69-26.03-25.24-21.61-39.12c1.39-4.38,4.4-7.95,8.48-10.06c4.08-2.11,8.74-2.51,13.11-1.11
					c2.69,0.86,4.89,2.71,6.19,5.22c1.3,2.51,1.54,5.37,0.68,8.07c-0.99,3.12-4.31,4.85-7.46,3.86c-2.55-0.81-5.3,0.6-6.12,3.17
					c-0.81,2.56,0.6,5.3,3.17,6.12c3.99,1.27,8.24,0.9,11.96-1.02c3.72-1.93,6.47-5.18,7.74-9.18c1.65-5.17,1.18-10.68-1.31-15.5
					c-2.5-4.82-6.72-8.38-11.89-10.03c-6.86-2.17-14.15-1.56-20.54,1.74c-6.39,3.31-11.11,8.9-13.3,15.76
					c-5.94,18.69,5.8,41.04,26.74,50.89c15.17,7.14,32.45,10.82,50.11,10.82c6.78,0,13.62-0.54,20.41-1.64
					c23.63-3.82,46.95-16.45,56.73-25.15c5.5,5.84,11.75,11,18.74,15.33c0.8,0.49,1.68,0.73,2.56,0.73c1.63,0,3.23-0.82,4.15-2.31
					C402.97,906.03,402.26,903.02,399.97,901.61"/>
				<path class="st1" d="M502.33,796.82c-2.14,16.76-7.96,34.01-16.83,49.89c-1.31,2.35-0.47,5.32,1.88,6.63
					c0.75,0.42,1.57,0.62,2.37,0.62c1.71,0,3.37-0.9,4.26-2.5c9.47-16.96,15.69-35.42,17.99-53.41c0.34-2.67-1.55-5.11-4.22-5.45
					C505.13,792.28,502.67,794.15,502.33,796.82"/>
				<path class="st1" d="M416.57,791.78c6.21,2.02,12.64,3,19.03,3c17.02,0,33.74-6.93,45.1-19.48c1.81-1.99,1.65-5.07-0.34-6.88
					c-2-1.81-5.08-1.65-6.88,0.35c-13.09,14.46-34.74,20-53.88,13.75c-13.99-4.56-21.78-19.58-17.35-33.49
					c1.39-4.38,4.4-7.95,8.48-10.06c4.07-2.11,8.73-2.51,13.11-1.11c2.69,0.86,4.89,2.71,6.19,5.22c1.3,2.51,1.54,5.37,0.68,8.07
					c-0.48,1.51-1.52,2.74-2.93,3.47c-1.4,0.73-3.02,0.87-4.53,0.38c-2.57-0.81-5.3,0.6-6.12,3.16c-0.81,2.56,0.6,5.3,3.17,6.12
					c3.99,1.26,8.24,0.91,11.96-1.02c3.72-1.92,6.47-5.18,7.74-9.18c1.65-5.17,1.18-10.68-1.31-15.5
					c-2.49-4.82-6.71-8.38-11.89-10.03c-6.86-2.18-14.15-1.57-20.55,1.74c-6.39,3.3-11.11,8.9-13.29,15.76
					C386.91,765.07,397.5,785.57,416.57,791.78"/>
				<path class="st1" d="M517.87,984.23c-5.71-9.09-13.72-17.37-23.19-23.93c-2.21-1.54-5.24-0.99-6.78,1.22
					c-1.53,2.21-0.99,5.25,1.22,6.78c8.39,5.83,15.48,13.13,20.49,21.12c6.33,10.08,5.54,23.2-1.75,29.25
					c-4.47,3.71-11.14,3.09-14.85-1.38c-2.08-2.51-1.73-6.26,0.78-8.34c1.13-0.94,2.83-0.79,3.78,0.35
					c1.72,2.07,4.79,2.36,6.86,0.63c2.07-1.72,2.35-4.79,0.63-6.86c-4.38-5.27-12.23-6-17.5-1.63c-6.64,5.51-7.57,15.41-2.05,22.06
					c4.01,4.83,9.8,7.33,15.63,7.33c4.57,0,9.16-1.53,12.94-4.66C525.19,1016.95,526.86,998.53,517.87,984.23"/>
				<path class="st1" d="M421.71,656.37c-1.86,1.86-4.12,3.13-6.21,3.5c-0.69,0.13-2.39,0.32-3.28-0.58
					c-0.89-0.89-0.7-2.59-0.58-3.28c0.37-2.09,1.65-4.36,3.51-6.21c2.56-2.56,5.38-3.61,7.35-3.61c0.95,0,1.7,0.25,2.14,0.68
					C425.98,648.22,425.5,652.58,421.71,656.37 M408.27,642.92c-3.28,3.28-5.48,7.32-6.21,11.38c-0.83,4.64,0.37,8.97,3.28,11.89
					c2.31,2.31,5.51,3.54,9.04,3.54c0.93,0,1.88-0.09,2.85-0.26c4.07-0.73,8.11-2.93,11.38-6.21c7.35-7.35,8.64-17.57,2.93-23.27
					C425.84,634.29,415.61,635.57,408.27,642.92"/>
				<path class="st1" d="M108.63,543.77l-12.1-7.68l12.1-7.68l12.11,7.68L108.63,543.77z M106.02,518.53l-21.2,13.45
					c-1.41,0.89-2.26,2.45-2.26,4.11c0,1.67,0.85,3.22,2.26,4.11l21.2,13.44c0.8,0.51,1.7,0.76,2.61,0.76
					c0.91,0,1.81-0.25,2.61-0.76l21.2-13.44c1.41-0.89,2.26-2.44,2.26-4.11c0.01-1.67-0.85-3.22-2.26-4.11l-21.2-13.45
					C109.65,517.52,107.62,517.52,106.02,518.53"/>
				<path class="st1" d="M28.17,543.77l-12.1-7.68l12.1-7.68l12.1,7.68L28.17,543.77z M54.24,536.09c0-1.67-0.85-3.22-2.26-4.11
					l-21.2-13.45c-1.59-1.01-3.63-1.01-5.22,0l-21.2,13.45c-1.41,0.89-2.26,2.45-2.26,4.11c0,1.67,0.85,3.22,2.26,4.11l21.2,13.44
					c0.8,0.51,1.7,0.76,2.61,0.76c0.91,0,1.81-0.25,2.61-0.76l21.2-13.44C53.39,539.31,54.24,537.76,54.24,536.09"/>
				<path class="st1" d="M222.54,535.28c0,1.89-3.42,4.64-8.78,4.64c-5.36,0-8.78-2.75-8.78-4.64s3.42-4.64,8.78-4.64
					C219.12,530.64,222.54,533.39,222.54,535.28 M195.23,535.28c0,8.06,8.13,14.38,18.52,14.38c10.39,0,18.52-6.32,18.52-14.38
					c0-8.06-8.14-14.38-18.52-14.38C203.36,520.9,195.23,527.22,195.23,535.28"/>
				<path class="st1" d="M227.23,835.71c3.31-6.39,3.93-13.69,1.74-20.54c-3.4-10.68-14.86-16.59-25.53-13.2
					c-8.24,2.63-12.81,11.47-10.19,19.7c0.82,2.56,3.56,3.97,6.12,3.17c2.56-0.82,3.98-3.56,3.16-6.12c-1-3.12,0.74-6.47,3.86-7.46
					c5.56-1.79,11.52,1.31,13.28,6.87c1.39,4.37,1,9.03-1.11,13.11c-2.11,4.08-5.68,7.09-10.06,8.48
					c-13.87,4.42-31.43-5.27-39.12-21.6c-8.92-18.96-11.97-42.58-8.37-64.81c3.69-22.82,15.96-44.35,22.97-52.02
					c6.99,5.31,14.73,9.68,23.15,12.89c10.66,4.06,21.7,6.1,32.91,6.1c2.83,0,5.68-0.13,8.53-0.39c2.68-0.25,4.65-2.62,4.4-5.3
					c-0.24-2.68-2.57-4.66-5.29-4.41c-12.64,1.15-25.12-0.56-37.08-5.12c-17.22-6.55-31.44-18.28-41.1-33.91
					c-1.41-2.29-4.41-3-6.71-1.58c-2.29,1.41-3,4.42-1.58,6.7c4.32,6.99,9.49,13.24,15.33,18.74c-8.71,9.78-21.34,33.1-25.15,56.73
					c-3.96,24.48-0.7,49.51,9.18,70.51c8.13,17.26,24.75,28.28,40.81,28.28c3.42,0,6.81-0.5,10.08-1.54
					C218.33,846.82,223.92,842.1,227.23,835.71"/>
				<path class="st1" d="M224.42,585.62c15.88-8.87,33.13-14.69,49.89-16.82c2.67-0.34,4.56-2.78,4.22-5.45
					c-0.34-2.67-2.76-4.57-5.45-4.22c-17.97,2.29-36.44,8.51-53.41,17.98c-2.35,1.31-3.19,4.28-1.88,6.63
					c0.89,1.6,2.55,2.5,4.26,2.5C222.85,586.24,223.67,586.04,224.42,585.62"/>
				<path class="st1" d="M110.1,584.68c2.21-1.53,2.76-4.57,1.22-6.78c-6.57-9.47-14.85-17.48-23.94-23.18
					c-14.3-8.98-32.72-7.33-41.93,3.78c-7.14,8.61-5.95,21.43,2.66,28.57c2.84,2.35,6.33,3.61,9.97,3.61c0.49,0,0.99-0.02,1.48-0.07
					c4.16-0.39,7.93-2.38,10.6-5.6c4.37-5.27,3.64-13.12-1.63-17.5c-2.07-1.72-5.14-1.43-6.86,0.64c-1.72,2.07-1.43,5.14,0.64,6.86
					c1.14,0.95,1.3,2.64,0.35,3.78c-2.09,2.52-5.83,2.86-8.34,0.78c-4.48-3.71-5.1-10.38-1.39-14.85
					c6.05-7.29,19.17-8.07,29.25-1.74c7.98,5.01,15.28,12.09,21.11,20.49C104.85,585.67,107.89,586.22,110.1,584.68"/>
				<path class="st1" d="M279.83,655.04c5.03,15.43,19.42,25.31,34.79,25.31c3.62,0,7.29-0.55,10.91-1.7
					c6.86-2.18,12.45-6.91,15.76-13.29c3.31-6.39,3.93-13.69,1.74-20.55c-3.4-10.68-14.86-16.59-25.53-13.2
					c-8.24,2.63-12.81,11.47-10.19,19.71c0.82,2.56,3.55,3.97,6.12,3.17c2.56-0.82,3.98-3.56,3.16-6.12
					c-0.48-1.51-0.34-3.12,0.38-4.53c0.73-1.41,1.96-2.45,3.47-2.93c5.56-1.78,11.52,1.32,13.28,6.87
					c2.87,9.04-2.14,18.72-11.17,21.6c-13.89,4.43-28.93-3.36-33.49-17.35c-6.24-19.14-0.71-40.8,13.75-53.88
					c2-1.81,2.15-4.89,0.35-6.88c-1.8-2-4.88-2.15-6.88-0.34C279.05,606.54,272.42,632.31,279.83,655.04"/>
				<path class="st1" d="M218.53,487.55c-1.31,2.35-0.47,5.32,1.88,6.63c16.96,9.48,35.43,15.69,53.41,17.98
					c0.21,0.03,0.42,0.04,0.62,0.04c2.42,0,4.51-1.8,4.83-4.26c0.34-2.67-1.55-5.11-4.22-5.45c-16.75-2.13-34-7.95-49.89-16.82
					C222.79,484.36,219.83,485.2,218.53,487.55"/>
				<path class="st1" d="M373.1,366.32c-0.16-0.11-0.31-0.21-0.48-0.29c-0.07-0.04-0.14-0.06-0.21-0.09c-1.59-0.73-3.51-0.6-5,0.54
					c-2.14,1.64-2.54,4.69-0.9,6.83c10.48,13.69,16.02,30.06,16.02,47.34c0,12.01-2.66,23.52-7.9,34.23
					c-1.18,2.41-0.18,5.33,2.23,6.52c0.69,0.34,1.42,0.5,2.14,0.5c1.8,0,3.53-1.01,4.38-2.73c5.9-12.04,8.89-25,8.89-38.51
					c0-12.72-2.72-24.98-7.86-36.27c11.3,5.17,23.58,7.9,36.33,7.9c13.5,0,26.46-2.99,38.51-8.89c2.42-1.18,3.42-4.1,2.23-6.52
					c-1.19-2.42-4.1-3.42-6.52-2.24c-10.71,5.24-22.22,7.9-34.23,7.9c-17.28,0-33.65-5.54-47.34-16.03
					C373.31,366.43,373.2,366.38,373.1,366.32"/>
				<path class="st1" d="M325.78,393.12c-19-6.03-39.49,4.56-45.71,23.62c-7.41,22.74-0.79,48.51,16.48,64.13
					c0.93,0.84,2.1,1.26,3.26,1.26c1.33,0,2.65-0.54,3.62-1.6c1.8-1.99,1.65-5.07-0.35-6.88c-14.46-13.08-19.99-34.74-13.75-53.88
					c4.56-13.99,19.59-21.77,33.49-17.35c9.04,2.87,14.05,12.56,11.17,21.6c-1.77,5.56-7.73,8.63-13.28,6.87
					c-1.51-0.48-2.74-1.52-3.47-2.93c-0.73-1.41-0.87-3.02-0.38-4.53c0.82-2.56-0.6-5.3-3.17-6.12c-2.55-0.81-5.3,0.6-6.12,3.17
					c-2.62,8.24,1.95,17.08,10.19,19.7c10.68,3.39,22.13-2.52,25.53-13.2C347.78,412.81,339.93,397.63,325.78,393.12"/>
				<path class="st1" d="M177.29,376.27c-5.84,5.5-11,11.75-15.33,18.74c-1.42,2.29-0.71,5.29,1.58,6.71
					c0.8,0.49,1.68,0.73,2.55,0.73c1.63,0,3.23-0.82,4.15-2.31c9.67-15.63,23.89-27.36,41.1-33.91c11.96-4.56,24.43-6.28,37.08-5.12
					c2.72,0.3,5.05-1.73,5.3-4.41c0.25-2.68-1.73-5.05-4.4-5.3c-14.13-1.3-28.08,0.62-41.44,5.71c-8.43,3.21-16.16,7.58-23.15,12.89
					c-7.02-7.67-19.28-29.2-22.98-52.02c-3.6-22.23-0.54-45.86,8.38-64.81c7.68-16.33,25.24-26.03,39.12-21.6
					c4.38,1.39,7.95,4.4,10.06,8.48c2.11,4.08,2.51,8.74,1.11,13.11c-1.76,5.56-7.73,8.65-13.28,6.87
					c-3.12-0.99-4.85-4.34-3.86-7.47c0.81-2.56-0.6-5.3-3.17-6.12c-2.56-0.81-5.3,0.6-6.12,3.17c-2.62,8.24,1.95,17.08,10.19,19.7
					c10.68,3.39,22.12-2.52,25.52-13.2c2.18-6.86,1.56-14.15-1.74-20.54c-3.31-6.39-8.9-11.11-15.76-13.3
					c-18.69-5.94-41.04,5.8-50.89,26.74c-9.88,21-13.14,46.04-9.18,70.51C155.96,343.18,168.59,366.5,177.29,376.27"/>
				<path class="st1" d="M67.83,523.82c6.65,0,13.61-1.89,19.79-5.78c9.09-5.7,17.36-13.72,23.94-23.19
					c1.53-2.21,0.99-5.24-1.22-6.78c-2.21-1.54-5.24-0.99-6.78,1.22c-5.83,8.39-13.13,15.48-21.11,20.49
					c-10.08,6.33-23.2,5.55-29.25-1.75c-3.71-4.48-3.09-11.14,1.39-14.85c2.51-2.09,6.25-1.74,8.34,0.78
					c0.95,1.14,0.79,2.83-0.35,3.78c-2.07,1.72-2.36,4.79-0.64,6.86c1.72,2.07,4.79,2.35,6.86,0.64c5.28-4.38,6.01-12.23,1.63-17.5
					c-2.67-3.22-6.44-5.21-10.6-5.6c-4.15-0.4-8.23,0.87-11.46,3.54c-8.61,7.14-9.81,19.96-2.66,28.57
					C50.92,520.56,59.11,523.82,67.83,523.82"/>
				<path class="st1" d="M415.49,421.88c-3.79-3.79-4.27-8.15-2.93-9.49c0.43-0.43,1.19-0.68,2.14-0.68c1.97,0,4.79,1.05,7.35,3.61
					c3.79,3.79,4.27,8.15,2.93,9.49C423.65,426.16,419.28,425.67,415.49,421.88 M431.87,431.7c5.7-5.7,4.41-15.92-2.93-23.27
					c-7.34-7.35-17.57-8.63-23.27-2.93c-5.7,5.7-4.42,15.92,2.93,23.27c4.26,4.26,9.49,6.49,14.25,6.49
					C426.29,435.26,429.47,434.1,431.87,431.7"/>
				<path class="st1" d="M248.54,230.41c2.7,0,5.44-0.41,8.15-1.27c5.17-1.65,9.39-5.21,11.89-10.03
					c2.49-4.82,2.96-10.32,1.31-15.49c-2.62-8.25-11.47-12.81-19.7-10.19c-2.57,0.82-3.98,3.56-3.17,6.12
					c0.82,2.57,3.56,3.98,6.12,3.17c3.15-0.99,6.47,0.74,7.46,3.86c1.77,5.56-1.31,11.52-6.87,13.28
					c-9.01,2.88-18.72-2.13-21.59-11.17c-4.42-13.89,5.27-31.44,21.6-39.12c18.95-8.92,42.57-11.98,64.81-8.38
					c22.82,3.69,44.34,15.96,52.02,22.98c-5.3,6.99-9.68,14.73-12.89,23.15c-5.09,13.36-7.01,27.31-5.71,41.44
					c0.23,2.53,2.36,4.43,4.85,4.43c0.15,0,0.3-0.01,0.45-0.02c2.68-0.24,4.65-2.61,4.4-5.29c-1.16-12.64,0.56-25.12,5.12-37.08
					c6.55-17.22,18.28-31.44,33.91-41.1c2.29-1.41,3-4.42,1.58-6.71c-1.41-2.29-4.41-3-6.71-1.58c-6.99,4.32-13.24,9.49-18.74,15.33
					c-9.78-8.7-33.1-21.33-56.73-25.16c-24.47-3.96-49.52-0.7-70.51,9.18c-20.94,9.85-32.68,32.21-26.74,50.89
					C226.5,223.09,237.12,230.42,248.54,230.41"/>
				<path class="st1" d="M507.89,278.74c0.21,0,0.41-0.02,0.62-0.04c2.67-0.34,4.56-2.78,4.22-5.45
					c-2.29-17.98-8.51-36.45-17.98-53.41c-1.31-2.35-4.27-3.19-6.63-1.88c-2.35,1.31-3.19,4.28-1.88,6.63
					c8.87,15.88,14.69,33.13,16.82,49.89C503.38,276.94,505.47,278.74,507.89,278.74"/>
				<path class="st1" d="M495.94,73.15c3.3-0.31,6.29-1.89,8.41-4.44c1.72-2.07,1.43-5.14-0.64-6.86c-2.07-1.71-5.14-1.43-6.86,0.64
					c-0.95,1.14-2.64,1.3-3.78,0.35c-1.22-1.01-1.97-2.43-2.12-4.01c-0.15-1.58,0.33-3.11,1.34-4.33c3.71-4.47,10.38-5.1,14.85-1.38
					c7.29,6.05,8.08,19.17,1.75,29.25c-5.01,7.98-12.1,15.28-20.49,21.11c-2.21,1.53-2.76,4.57-1.22,6.78c0.95,1.37,2.46,2.1,4,2.1
					c0.96,0,1.93-0.28,2.78-0.87c9.47-6.58,17.49-14.85,23.19-23.93c8.98-14.3,7.32-32.72-3.78-41.93
					c-8.61-7.15-21.43-5.95-28.57,2.67c-2.67,3.22-3.93,7.29-3.54,11.46c0.39,4.17,2.38,7.93,5.6,10.6
					C489.4,72.47,492.62,73.47,495.94,73.15"/>
				<path class="st1" d="M393.2,325.71c2.18,6.86,6.9,12.45,13.29,15.76c3.88,2.01,8.1,3.02,12.35,3.02c2.75,0,5.51-0.42,8.2-1.28
					c10.68-3.4,16.6-14.85,13.2-25.52c-2.62-8.25-11.47-12.81-19.7-10.2c-2.57,0.82-3.98,3.56-3.17,6.12
					c0.82,2.57,3.57,3.97,6.12,3.17c1.52-0.48,3.13-0.34,4.53,0.39c1.41,0.73,2.45,1.96,2.93,3.47c1.77,5.56-1.31,11.52-6.87,13.28
					c-9.01,2.88-18.72-2.13-21.59-11.17c-4.43-13.9,3.36-28.93,17.35-33.49c19.15-6.24,40.8-0.71,53.88,13.75
					c1.81,2,4.89,2.16,6.88,0.35c2-1.81,2.15-4.89,0.34-6.88c-15.62-17.27-41.39-23.9-64.13-16.48
					C397.75,286.21,387.16,306.72,393.2,325.71"/>
				<path class="st1" d="M572.48,489.84c1.52-11.52-4.96-17.32-10.68-22.43c-1.22-1.09-2.47-2.21-3.68-3.42
					c-1.9-1.9-3.57-3.46-5.02-4.81c-4.6-4.28-5.42-5.23-5.42-7.48c0-1.7,0.94-2.79,1.43-2.79c0.49,0,1.42,1.09,1.42,2.79
					c0,2.69,2.18,4.87,4.87,4.87c2.69,0,4.87-2.18,4.87-4.87c0-6.91-5.01-12.53-11.16-12.53c-6.16,0-11.17,5.62-11.17,12.53
					c0,6.68,3.58,10.01,8.53,14.62c1.38,1.28,2.97,2.76,4.77,4.57c1.34,1.34,2.73,2.58,4.08,3.79c5.65,5.05,8.33,7.76,7.51,13.9
					c-0.22,1.67-1.2,3.21-2.75,4.34c-1.7,1.24-3.85,1.77-5.76,1.4c-3.06-0.56-6.64-3.03-6.64-8.13c0-1.4,0.26-2.72,0.76-3.94
					c1.03-2.49-0.16-5.33-2.65-6.36c-2.48-1.02-5.34,0.16-6.36,2.65c-0.99,2.4-1.49,4.97-1.49,7.65c0,8.84,6,16.12,14.6,17.71
					c0.99,0.19,1.99,0.27,3,0.27c3.61,0,7.23-1.17,10.27-3.37C569.54,498.07,571.91,494.18,572.48,489.84"/>
				<path class="st1" d="M518.85,459.18c-1.45,1.35-3.13,2.91-5.02,4.81c-1.21,1.21-2.47,2.33-3.69,3.42
					c-5.72,5.11-12.2,10.91-10.68,22.43c0.57,4.34,2.95,8.23,6.69,10.95c3.03,2.2,6.65,3.38,10.26,3.38c1,0,2.01-0.09,3-0.28
					c8.6-1.59,14.6-8.87,14.6-17.71c0-2.68-0.5-5.25-1.49-7.65c-1.02-2.49-3.88-3.67-6.36-2.65c-2.49,1.03-3.67,3.87-2.65,6.36
					c0.5,1.22,0.76,2.54,0.76,3.94c0,5.09-3.58,7.56-6.64,8.13c-1.9,0.35-4.06-0.17-5.76-1.41c-1.55-1.13-2.53-2.67-2.75-4.34
					c-0.81-6.14,1.87-8.84,7.51-13.89c1.36-1.21,2.74-2.46,4.08-3.8c1.8-1.8,3.39-3.28,4.77-4.57c4.95-4.61,8.53-7.94,8.53-14.62
					c0-6.91-5.01-12.53-11.17-12.53c-6.16,0-11.16,5.62-11.16,12.53c0,2.69,2.18,4.87,4.87,4.87c2.69,0,4.87-2.18,4.87-4.87
					c0-1.7,0.93-2.79,1.42-2.79c0.49,0,1.43,1.09,1.43,2.79C524.28,453.95,523.45,454.89,518.85,459.18"/>
				<path class="st1" d="M620.53,550.32c-2.69,0-4.87,2.18-4.87,4.87c0,2.69,2.18,4.87,4.87,4.87c6.91,0,12.53-5.01,12.53-11.16
					c0-6.16-5.62-11.17-12.53-11.17c-6.68,0-10.01,3.58-14.62,8.53c-1.28,1.38-2.76,2.97-4.57,4.77c-1.34,1.34-2.58,2.72-3.79,4.08
					c-5.05,5.65-7.71,8.34-13.9,7.52c-1.66-0.22-3.21-1.2-4.34-2.75c-1.23-1.7-1.76-3.85-1.41-5.76c0.57-3.06,3.04-6.64,8.14-6.64
					c1.38,0,2.73,0.26,3.93,0.76c2.48,1.02,5.33-0.16,6.36-2.65c1.03-2.49-0.16-5.34-2.64-6.36c-2.4-0.99-4.97-1.49-7.65-1.49
					c-8.83,0-16.12,6-17.71,14.6c-0.84,4.55,0.29,9.39,3.1,13.26c2.72,3.74,6.6,6.12,10.95,6.69c1.16,0.16,2.26,0.23,3.3,0.23
					c9.37,0,14.53-5.77,19.13-10.91c1.09-1.22,2.21-2.47,3.42-3.68c1.9-1.9,3.46-3.57,4.81-5.02c4.28-4.6,5.23-5.42,7.48-5.42
					c1.7,0,2.79,0.94,2.79,1.43S622.23,550.32,620.53,550.32"/>
				<path class="st1" d="M620.53,511.49c-2.69,0-4.87,2.18-4.87,4.87c0,2.69,2.18,4.87,4.87,4.87c1.7,0,2.79,0.94,2.79,1.42
					c0,0.49-1.09,1.43-2.79,1.43c-2.26,0-3.2-0.82-7.48-5.42c-1.35-1.45-2.91-3.12-4.81-5.02c-1.21-1.21-2.32-2.46-3.42-3.68
					c-5.11-5.71-10.9-12.18-22.44-10.68c-4.34,0.57-8.23,2.95-10.95,6.69c-2.82,3.88-3.94,8.71-3.1,13.26
					c1.59,8.6,8.88,14.6,17.71,14.6c2.68,0,5.25-0.5,7.65-1.49c2.48-1.03,3.67-3.88,2.64-6.36c-1.03-2.49-3.88-3.67-6.36-2.65
					c-1.2,0.49-2.55,0.76-3.93,0.76c-5.09,0-7.57-3.58-8.14-6.64c-0.35-1.91,0.18-4.06,1.41-5.76c1.13-1.56,2.67-2.53,4.34-2.75
					c6.14-0.81,8.85,1.87,13.9,7.52c1.21,1.35,2.45,2.74,3.79,4.08c1.8,1.8,3.28,3.39,4.57,4.77c4.61,4.95,7.94,8.52,14.62,8.52
					c6.91,0,12.53-5.01,12.53-11.17C633.06,516.5,627.44,511.49,620.53,511.49"/>
				<path class="st1" d="M526.27,596.14c2.49,1.02,5.33-0.16,6.36-2.65c0.99-2.4,1.49-4.97,1.49-7.65c0-8.83-6-16.12-14.6-17.71
					c-4.53-0.84-9.38,0.29-13.26,3.1c-3.74,2.72-6.12,6.6-6.69,10.95c-1.52,11.52,4.96,17.32,10.68,22.44
					c1.22,1.09,2.47,2.21,3.68,3.42c1.9,1.9,3.57,3.46,5.02,4.81c4.6,4.28,5.42,5.23,5.42,7.48c0,1.7-0.94,2.79-1.43,2.79
					c-0.49,0-1.43-1.09-1.43-2.79c0-2.69-2.18-4.87-4.87-4.87c-2.69,0-4.87,2.18-4.87,4.87c0,6.91,5.01,12.53,11.17,12.53
					s11.17-5.62,11.17-12.53c0-6.68-3.58-10.01-8.52-14.62c-1.38-1.28-2.97-2.76-4.77-4.57c-1.34-1.34-2.73-2.58-4.08-3.79
					c-5.65-5.05-8.33-7.76-7.52-13.9c0.22-1.67,1.2-3.21,2.75-4.34c1.7-1.23,3.84-1.77,5.76-1.41c3.06,0.57,6.64,3.04,6.64,8.14
					c0,1.38-0.26,2.73-0.76,3.93C522.6,592.26,523.78,595.12,526.27,596.14"/>
				<path class="st1" d="M553.2,612.85c1.45-1.35,3.13-2.91,5.02-4.81c1.21-1.21,2.46-2.33,3.68-3.42
					c5.72-5.12,12.2-10.92,10.68-22.43c-0.57-4.34-2.95-8.23-6.69-10.95c-3.88-2.82-8.71-3.94-13.26-3.1
					c-8.6,1.59-14.6,8.88-14.6,17.71c0,2.68,0.5,5.25,1.49,7.65c1.03,2.49,3.87,3.66,6.36,2.65c2.49-1.03,3.67-3.88,2.65-6.36
					c-0.49-1.19-0.76-2.55-0.76-3.93c0-5.1,3.58-7.57,6.64-8.14c1.92-0.34,4.06,0.18,5.76,1.41c1.56,1.13,2.53,2.67,2.76,4.34
					c0.81,6.14-1.87,8.84-7.52,13.9c-1.35,1.21-2.73,2.45-4.08,3.79c-1.8,1.8-3.39,3.28-4.77,4.57c-4.95,4.61-8.53,7.94-8.53,14.62
					c0,6.91,5.01,12.53,11.17,12.53c6.16,0,11.16-5.62,11.16-12.53c0-2.69-2.18-4.87-4.87-4.87c-2.69,0-4.87,2.18-4.87,4.87
					c0,1.7-0.93,2.79-1.42,2.79c-0.49,0-1.43-1.09-1.43-2.79C547.78,618.07,548.6,617.13,553.2,612.85"/>
				<path class="st1" d="M451.77,521.33c2.69,0,4.87-2.18,4.87-4.87c0-2.69-2.18-4.87-4.87-4.87c-6.91,0-12.53,5.01-12.53,11.17
					s5.62,11.17,12.53,11.17c6.68,0,10.01-3.57,14.62-8.52c1.28-1.38,2.76-2.97,4.57-4.77c1.34-1.34,2.58-2.73,3.79-4.08
					c5.06-5.65,7.77-8.34,13.9-7.52c1.67,0.22,3.21,1.2,4.34,2.75c1.23,1.7,1.76,3.85,1.41,5.76c-0.57,3.06-3.04,6.64-8.13,6.64
					c-1.4,0-2.72-0.25-3.94-0.76c-2.48-1.03-5.34,0.16-6.36,2.65c-1.03,2.49,0.16,5.33,2.65,6.36c2.4,0.99,4.97,1.49,7.65,1.49
					c8.84,0,16.12-6,17.71-14.6c0.85-4.55-0.28-9.39-3.1-13.26c-2.72-3.74-6.6-6.12-10.95-6.69c-11.52-1.52-17.32,4.96-22.43,10.68
					c-1.09,1.22-2.21,2.47-3.42,3.68c-1.9,1.9-3.46,3.57-4.81,5.02c-4.28,4.6-5.23,5.42-7.48,5.42c-1.7,0-2.79-0.94-2.79-1.43
					C448.98,522.27,450.07,521.33,451.77,521.33"/>
				<path class="st1" d="M451.77,547.58c2.26,0,3.2,0.82,7.48,5.42c1.35,1.45,2.91,3.13,4.81,5.02c1.21,1.21,2.33,2.47,3.42,3.69
					c4.6,5.14,9.76,10.9,19.13,10.9c1.05,0,2.15-0.07,3.31-0.23c4.34-0.57,8.23-2.95,10.95-6.69c2.82-3.88,3.95-8.71,3.1-13.26
					c-1.59-8.6-8.88-14.6-17.71-14.6c-2.67,0-5.25,0.5-7.65,1.49c-2.49,1.03-3.68,3.87-2.65,6.36c1.02,2.49,3.88,3.67,6.36,2.65
					c1.22-0.5,2.54-0.76,3.94-0.76c5.09,0,7.57,3.58,8.13,6.64c0.35,1.91-0.17,4.06-1.41,5.76c-1.13,1.56-2.67,2.53-4.34,2.75
					c-6.13,0.82-8.84-1.86-13.9-7.51c-1.21-1.36-2.46-2.74-3.8-4.08c-1.8-1.8-3.28-3.39-4.57-4.77c-4.61-4.95-7.94-8.53-14.62-8.53
					c-6.91,0-12.53,5.01-12.53,11.17c0,6.16,5.62,11.16,12.53,11.16c2.69,0,4.87-2.18,4.87-4.87c0-2.69-2.18-4.87-4.87-4.87
					c-1.7,0-2.79-0.93-2.79-1.42C448.98,548.52,450.07,547.58,451.77,547.58"/>
				<path class="st1" d="M475.38,339.02c-1.64,0.74-7.7,22.63,0.49,43.03c0.17,0.42,0.28,0.74,0.71,0.96
					c0.43,0.23,0.95,0.09,1.52-0.01c7.57-1.32,14.29-1.43,14.43-1.43c5.77,0,11.34,0.65,16.62,1.94c0.26,0.06,0.46,0.11,0.67-0.01
					c0.22-0.12,0.33-0.25,0.45-0.47c0.46-0.9,0.96-1.79,1.47-2.67c0.08-0.14,0.14-0.27,0.15-0.47c0-0.2-0.03-0.35-0.09-0.55
					c-1.02-3.11-2.23-6.29-3.67-9.49C498.72,348.91,477.07,338.26,475.38,339.02"/>
				<path class="st1" d="M484.96,331.67c0.26,0.52,0.85,0.87,1.47,1.21c4.38,2.41,9.37,5.9,14.19,10.36
					c0.41,0.38,0.77,0.67,1.19,0.46c0.32-0.16,0.54-0.46,0.82-1.02c3.17-6.54,7.79-12.75,12.74-17.86c0.31-0.32,0.44-0.68,0.51-1.09
					c0.08-0.41-0.06-1.16-0.31-1.81c-5.77-15.11-16.3-25.22-17.73-25.07c-1.56,0.16-11.37,14.41-13.07,32.56
					C484.71,330.24,484.7,331.15,484.96,331.67"/>
				<path class="st1" d="M466.61,397.3c-0.61,1.76,9.64,20.37,36.9,32.89c11.86,5.45,26.35,5.73,32.52,5.73h0.09
					c6.17,0,20.66-0.28,32.52-5.73c27.26-12.52,37.5-31.14,36.9-32.89c-0.5-1.45-16.15-7.96-33.75-5.27
					c-12.04,1.84-15.02,9.7-15.56,7.2c-0.22-1.05-0.27-4.48-2.09-9.15c-4.66-12.03-16.33-20.67-18.04-20.66h-0.06
					c-1.72,0-13.39,8.64-18.04,20.66c-1.81,4.67-1.87,8.1-2.09,9.15c-0.54,2.5-3.52-5.36-15.56-7.2
					C482.76,389.34,467.11,395.85,466.61,397.3"/>
				<path class="st1" d="M561.88,383.02c0.11,0.23,0.23,0.35,0.45,0.47c0.21,0.12,0.41,0.08,0.67,0.01
					c5.28-1.29,10.84-1.94,16.62-1.94c0.14,0,6.86,0.12,14.43,1.43c0.56,0.1,1.09,0.24,1.52,0.01c0.43-0.22,0.54-0.54,0.71-0.96
					c8.19-20.4,2.13-42.29,0.49-43.03c-1.69-0.76-23.34,9.89-32.74,30.82c-1.44,3.21-2.65,6.38-3.67,9.49
					c-0.07,0.2-0.1,0.34-0.09,0.55c0,0.2,0.06,0.33,0.15,0.47C560.92,381.23,561.43,382.11,561.88,383.02"/>
				<path class="st1" d="M556.26,323.73c0.07,0.41,0.21,0.77,0.51,1.09c4.95,5.11,9.57,11.32,12.74,17.86
					c0.28,0.57,0.5,0.86,0.82,1.02c0.42,0.21,0.79-0.08,1.19-0.46c4.83-4.46,9.82-7.96,14.2-10.36c0.62-0.34,1.21-0.7,1.47-1.21
					c0.26-0.52,0.25-1.43,0.18-2.26c-1.69-18.15-11.51-32.41-13.07-32.56c-1.43-0.14-11.96,9.96-17.73,25.07
					C556.32,322.57,556.18,323.32,556.26,323.73"/>
				<path class="st1" d="M562.69,352.73c0.04-0.25-0.03-0.61-0.13-0.93c-5.53-17.28-23.91-30.07-26.47-30.06h-0.02
					c-2.56-0.01-20.94,12.78-26.47,30.06c-0.1,0.31-0.17,0.68-0.13,0.93c0.04,0.25,0.2,0.47,0.37,0.7
					c2.82,3.75,5.36,7.85,7.36,12.33c0.49,1.11,0.9,2.28,1.33,3.44c0.15,0.42,0.29,0.66,0.59,0.69c0.31,0.03,0.56-0.2,0.91-0.57
					c5.64-5.94,11.79-9.85,16-9.86h0.09c4.21,0.01,10.36,3.92,16,9.86c0.35,0.37,0.6,0.6,0.91,0.57c0.3-0.03,0.44-0.27,0.59-0.69
					c0.42-1.16,0.83-2.34,1.33-3.44c2.01-4.47,4.54-8.58,7.36-12.33C562.49,353.2,562.65,352.98,562.69,352.73"/>
				<path class="st1" d="M514.94,300.03c0.05,0.29,0.26,0.6,0.47,0.91c3.19,4.53,6.04,9.61,8.16,14.4c0.25,0.57,0.5,0.93,0.95,1.02
					c0.44,0.1,1.06-0.24,1.69-0.65c3.81-2.48,7.29-3.92,9.84-3.92h0.03c2.55,0,6.02,1.44,9.84,3.92c0.63,0.41,1.25,0.74,1.69,0.65
					c0.45-0.09,0.69-0.45,0.95-1.02c2.13-4.79,4.98-9.86,8.17-14.4c0.22-0.31,0.42-0.62,0.47-0.91c0.05-0.29,0.06-0.73,0-1.09
					c-3.38-18.64-19.03-32.78-21.12-32.78h-0.02c-2.09-0.01-17.74,14.14-21.12,32.78C514.88,299.3,514.89,299.74,514.94,300.03"/>
				<path class="st1" d="M574.29,159.27c3.99,1.9,7.63,4.19,10.85,6.83c0.16,0.13,0.28,0.23,0.47,0.21
					c0.19-0.01,0.31-0.06,0.46-0.18c0.62-0.47,1.26-0.92,1.9-1.36c0.1-0.07,0.19-0.14,0.26-0.28c0.07-0.14,0.1-0.25,0.12-0.41
					c0.32-2.49,0.53-5.09,0.6-7.78c0.41-17.58-11.05-32.1-12.47-32.13c-1.38-0.03-12.8,13.11-13.87,29.93
					c-0.02,0.35-0.05,0.6,0.18,0.9c0.22,0.3,0.63,0.37,1.05,0.49C569.5,157.08,574.19,159.22,574.29,159.27"/>
				<path class="st1" d="M585.53,122.25c0.01,0.44,0.3,0.88,0.62,1.32c2.23,3.11,4.53,7.18,6.4,11.86c0.16,0.39,0.31,0.72,0.67,0.71
					c0.27-0.01,0.53-0.14,0.9-0.44c4.35-3.48,9.6-6.25,14.71-8.15c0.31-0.12,0.53-0.32,0.71-0.59c0.19-0.26,0.34-0.82,0.39-1.35
					c1-12.36-2.95-22.83-3.99-23.2c-1.13-0.41-12.63,6.22-19.79,18.22C585.82,121.18,585.52,121.8,585.53,122.25"/>
				<path class="st1" d="M551.16,161.6c-1,1.02-0.06,17.28,14.67,34.94c6.41,7.69,16.34,12.66,20.61,14.7h0l0.06,0.03
					c4.27,2.03,14.39,6.63,24.39,6.77c22.99,0.34,36.23-9.16,36.39-10.58c0.13-1.17-8.55-10.84-21.61-14.79
					c-8.94-2.7-13.59,1.75-13.14-0.16c0.2-0.8,1.29-3.19,1.58-7.02c0.75-9.86-4.47-19.69-5.66-20.26l-0.04-0.02
					c-1.19-0.57-12.11,1.56-19.31,8.34c-2.8,2.64-3.97,4.99-4.46,5.65c-1.2,1.55-0.66-4.87-8.39-10.12
					C564.96,161.43,551.99,160.76,551.16,161.6"/>
				<path class="st1" d="M627.63,174.76c-2.05,1.74-3.94,3.54-5.67,5.36c-0.11,0.12-0.18,0.21-0.25,0.35
					c-0.06,0.14-0.06,0.25-0.05,0.38c0.06,0.77,0.12,1.55,0.14,2.33c0.01,0.19,0.05,0.32,0.15,0.48c0.11,0.15,0.26,0.19,0.46,0.23
					c4.08,0.85,8.14,2.24,12.13,4.14c0.1,0.05,4.71,2.35,9.51,5.76c0.36,0.25,0.67,0.52,1.04,0.51c0.37-0.01,0.55-0.19,0.81-0.43
					c12.4-11.41,15.44-28.56,14.55-29.61C659.54,163.16,641.04,163.39,627.63,174.76"/>
				<path class="st1" d="M637.48,140.3c-0.09,0.31-0.11,0.6-0.01,0.92c1.74,5.17,2.88,10.99,2.92,16.56c0,0.48,0.06,0.76,0.23,0.98
					c0.22,0.28,0.57,0.2,0.98,0.08c4.81-1.49,9.42-2.26,13.24-2.48c0.54-0.03,1.07-0.08,1.42-0.35c0.35-0.27,0.65-0.9,0.87-1.5
					c4.82-13.11,2.74-26.22,1.71-26.84c-0.94-0.57-11.56,2.94-20.55,11.49C637.9,139.51,637.56,139.99,637.48,140.3"/>
				<path class="st1" d="M596.53,159.97c0.2,0.12,0.46,0.04,0.82-0.09c5.87-2.25,11.41-2.93,14.33-1.54l0.06,0.03
					c2.91,1.4,5.87,6.13,7.81,12.11c0.12,0.37,0.22,0.61,0.44,0.7c0.22,0.08,0.39-0.04,0.64-0.28c0.68-0.67,1.35-1.34,2.05-1.94
					c2.87-2.43,5.98-4.44,9.17-6.1c0.2-0.1,0.38-0.2,0.49-0.36c0.11-0.16,0.18-0.44,0.22-0.68c1.88-13.79-6.62-28.7-8.39-29.54
					l-0.01-0.01c-1.77-0.85-18.71,1.93-28.24,12.06c-0.17,0.18-0.34,0.41-0.4,0.6s-0.02,0.39,0.03,0.61
					c0.71,3.52,1.11,7.2,1.02,10.96c-0.02,0.93-0.13,1.88-0.22,2.82C596.32,159.64,596.33,159.86,596.53,159.97"/>
				<path class="st1" d="M617.64,123.7c-0.01,0.48,0.04,0.81,0.32,1.02c0.28,0.21,0.81,0.19,1.38,0.11c3.46-0.46,6.34-0.31,8.1,0.53
					l0.02,0.01c1.76,0.84,3.69,2.99,5.51,5.96c0.3,0.49,0.62,0.93,0.96,1.01c0.34,0.08,0.63-0.09,0.99-0.39
					c3.05-2.61,6.7-5.18,10.41-7.27c0.25-0.14,0.49-0.29,0.63-0.47c0.13-0.19,0.29-0.48,0.36-0.75c3.81-14.01-2.34-28.96-3.79-29.65
					l-0.01-0.01c-1.44-0.69-16.94,3.93-25.43,15.71c-0.16,0.23-0.3,0.53-0.36,0.75c-0.06,0.22-0.02,0.5,0.03,0.79
					C617.45,115.24,617.75,119.69,617.64,123.7"/>
				<path class="st1" d="M707.72,282.32c6.28,4.44,11.1,9.12,11.2,9.22c4.07,4.09,7.54,8.49,10.35,13.14
					c0.14,0.23,0.24,0.4,0.48,0.47c0.24,0.06,0.41,0.06,0.65-0.02c0.96-0.31,1.95-0.58,2.93-0.84c0.16-0.04,0.29-0.09,0.44-0.23
					c0.15-0.14,0.23-0.26,0.32-0.45c1.48-2.92,2.88-6.02,4.14-9.3c8.2-21.42,0.47-44.28-1.26-44.94
					c-1.68-0.64-21.47,10.51-30.15,30.71c-0.18,0.42-0.32,0.72-0.18,1.18C706.79,281.72,707.25,281.99,707.72,282.32"/>
				<path class="st1" d="M752.3,271.41c0.34,0.11,0.7,0.06,1.3-0.14c6.87-2.37,14.53-3.47,21.64-3.57c0.44-0.01,0.79-0.17,1.13-0.41
					c0.34-0.24,0.78-0.86,1.07-1.49c6.64-14.75,6.36-29.35,5.26-30.26c-1.21-1-18.24,2.11-32.29,13.71
					c-0.64,0.53-1.29,1.17-1.47,1.72c-0.18,0.55-0.02,1.22,0.18,1.9c1.38,4.8,2.43,10.8,2.67,17.37
					C751.81,270.79,751.86,271.26,752.3,271.41"/>
				<path class="st1" d="M689.48,284.27c-1.67,0.81-7.64,21.2,2.72,49.35c4.51,12.25,14.53,22.71,18.89,27.09v0l0.06,0.06
					c4.36,4.37,14.77,14.44,27.01,19c28.1,10.49,48.52,4.61,49.34,2.94c0.68-1.38-5.76-17.06-20.07-27.63
					c-9.8-7.23-17.47-3.8-16.08-5.94c0.59-0.9,2.98-3.36,5.02-7.94c5.23-11.79,3.12-26.16,1.91-27.37l-0.04-0.04
					c-1.21-1.22-15.57-3.39-27.38,1.79c-4.59,2.01-7.06,4.39-7.96,4.98c-2.15,1.38,1.32-6.28-5.87-16.11
					C706.51,290.1,690.86,283.6,689.48,284.27"/>
				<path class="st1" d="M777.67,333.93c-3.29,1.24-6.39,2.62-9.31,4.1c-0.19,0.09-0.31,0.17-0.46,0.32
					c-0.14,0.15-0.19,0.28-0.23,0.44c-0.26,0.98-0.54,1.96-0.85,2.92c-0.08,0.24-0.09,0.41-0.02,0.65c0.06,0.24,0.24,0.34,0.47,0.48
					c4.64,2.83,9.03,6.32,13.1,10.41c0.1,0.1,4.76,4.94,9.17,11.24c0.33,0.47,0.6,0.94,1.06,1.08c0.46,0.15,0.76,0.01,1.18-0.17
					c20.24-8.59,31.47-28.33,30.84-30.01C821.96,333.65,799.13,325.83,777.67,333.93"/>
				<path class="st1" d="M836.64,289.71c-0.91-1.11-15.5-1.45-30.28,5.13c-0.63,0.28-1.25,0.71-1.5,1.06
					c-0.24,0.34-0.4,0.69-0.41,1.13c-0.13,7.12-1.26,14.77-3.66,21.63c-0.21,0.6-0.26,0.96-0.15,1.3c0.15,0.45,0.61,0.5,1.17,0.52
					c6.57,0.27,12.56,1.34,17.36,2.75c0.68,0.2,1.35,0.37,1.9,0.19c0.55-0.18,1.19-0.83,1.72-1.47
					C834.45,307.94,837.63,290.92,836.64,289.71"/>
				<path class="st1" d="M746.01,301.24c-0.19,0.4-0.27,0.67-0.07,0.91c0.2,0.24,0.54,0.26,1.05,0.24c8.19-0.2,15.3,1.4,18.28,4.38
					l0.07,0.06c2.96,2.99,4.53,10.11,4.3,18.3c-0.01,0.51,0,0.85,0.24,1.05c0.23,0.2,0.51,0.12,0.91-0.07
					c1.12-0.52,2.24-1.06,3.38-1.49c4.59-1.73,9.29-2.83,13.93-3.48c0.29-0.04,0.55-0.08,0.76-0.23c0.2-0.15,0.41-0.46,0.56-0.75
					c8.34-16.11,4.43-38.16,2.62-39.97l-0.01-0.01c-1.8-1.82-23.83-5.82-39.98,2.45c-0.29,0.15-0.6,0.35-0.75,0.56
					c-0.15,0.2-0.19,0.47-0.23,0.76c-0.67,4.64-1.79,9.34-3.54,13.92C747.08,299,746.54,300.12,746.01,301.24"/>
				<path class="st1" d="M831.41,240.97c-1.47-1.48-22.54-2.59-38.13,8.16c-0.3,0.21-0.6,0.52-0.77,0.77
					c-0.17,0.24-0.24,0.61-0.31,0.98c-0.96,5.46-2.55,11.06-4.44,15.95c-0.23,0.58-0.3,1.01-0.06,1.39
					c0.25,0.38,0.92,0.59,1.65,0.74c4.45,0.95,7.92,2.4,9.72,4.2l0.02,0.02c1.8,1.81,3.23,5.29,4.16,9.74
					c0.15,0.73,0.36,1.4,0.74,1.65c0.38,0.25,0.81,0.17,1.39-0.05c4.89-1.87,10.5-3.43,15.97-4.37c0.37-0.06,0.74-0.13,0.98-0.31
					c0.24-0.17,0.56-0.47,0.77-0.77c10.82-15.54,9.8-36.62,8.33-38.09L831.41,240.97z"/>
				<path class="st1" d="M483.71,164.77c0.64,0.44,1.28,0.89,1.9,1.36c0.15,0.12,0.28,0.17,0.47,0.18c0.19,0.01,0.31-0.08,0.47-0.21
					c3.23-2.64,6.86-4.92,10.85-6.83c0.1-0.05,4.79-2.18,10.46-3.78c0.42-0.12,0.83-0.19,1.05-0.49c0.22-0.3,0.2-0.55,0.18-0.9
					c-1.07-16.82-12.49-29.96-13.87-29.93c-1.42,0.03-12.88,14.55-12.47,32.13c0.06,2.69,0.28,5.29,0.6,7.78
					c0.02,0.16,0.05,0.27,0.12,0.41C483.52,164.63,483.61,164.7,483.71,164.77"/>
				<path class="st1" d="M462.14,126.97c0.19,0.26,0.4,0.47,0.71,0.59c5.11,1.9,10.36,4.67,14.72,8.15c0.38,0.3,0.63,0.44,0.9,0.44
					c0.36,0.01,0.51-0.32,0.67-0.71c1.87-4.68,4.16-8.75,6.4-11.86c0.32-0.44,0.61-0.88,0.61-1.32c0.01-0.44-0.3-1.07-0.62-1.62
					c-7.16-12-18.66-18.62-19.79-18.22c-1.04,0.37-4.99,10.84-3.99,23.2C461.8,126.15,461.95,126.71,462.14,126.97"/>
				<path class="st1" d="M424.41,207.47c0.16,1.41,13.4,10.92,36.39,10.58c10-0.15,20.12-4.74,24.39-6.77l0.06-0.03
					c4.27-2.04,14.2-7.01,20.61-14.7c14.73-17.66,15.67-33.93,14.67-34.94c-0.83-0.84-13.8-0.17-25.09,7.49
					c-7.72,5.25-7.19,11.67-8.39,10.12c-0.5-0.66-1.67-3.01-4.46-5.64c-7.2-6.78-18.12-8.91-19.31-8.34l-0.04,0.02
					c-1.19,0.56-6.41,10.4-5.66,20.26c0.29,3.83,1.38,6.22,1.58,7.02c0.45,1.9-4.2-2.55-13.14,0.16
					C432.96,196.63,424.28,206.3,424.41,207.47"/>
				<path class="st1" d="M425.78,193.86c0.26,0.24,0.44,0.42,0.81,0.43c0.37,0.01,0.69-0.26,1.04-0.51c4.8-3.41,9.41-5.71,9.51-5.76
					c3.99-1.9,8.06-3.29,12.14-4.14c0.2-0.04,0.35-0.07,0.46-0.23c0.11-0.16,0.15-0.28,0.15-0.47c0.02-0.78,0.08-1.56,0.14-2.33
					c0.01-0.12,0.01-0.24-0.05-0.38c-0.06-0.14-0.13-0.23-0.25-0.35c-1.73-1.81-3.62-3.61-5.67-5.36
					c-13.41-11.38-31.9-11.6-32.82-10.51C410.34,165.3,413.38,182.45,425.78,193.86"/>
				<path class="st1" d="M415.43,156c0.35,0.27,0.87,0.32,1.42,0.36c3.82,0.22,8.43,0.99,13.24,2.48c0.4,0.13,0.75,0.21,0.97-0.08
					c0.17-0.22,0.23-0.49,0.23-0.98c0.04-5.57,1.18-11.39,2.92-16.56c0.11-0.32,0.08-0.61-0.01-0.92c-0.09-0.31-0.42-0.79-0.81-1.15
					c-8.98-8.55-19.61-12.06-20.55-11.49c-1.03,0.62-3.11,13.73,1.71,26.84C414.79,155.09,415.08,155.73,415.43,156"/>
				<path class="st1" d="M476.17,144.91c-0.06-0.19-0.23-0.41-0.4-0.6c-9.54-10.13-26.47-12.91-28.24-12.06l-0.01,0.01
					c-1.77,0.84-10.27,15.75-8.39,29.54c0.03,0.25,0.1,0.52,0.21,0.68c0.11,0.16,0.29,0.26,0.49,0.36c3.19,1.66,6.3,3.67,9.17,6.1
					c0.71,0.6,1.38,1.28,2.05,1.94c0.24,0.24,0.42,0.37,0.64,0.28c0.23-0.08,0.32-0.33,0.44-0.7c1.94-5.98,4.91-10.71,7.81-12.11
					l0.06-0.03c2.92-1.38,8.46-0.71,14.33,1.54c0.36,0.14,0.61,0.22,0.82,0.09c0.2-0.12,0.22-0.33,0.18-0.67
					c-0.09-0.94-0.2-1.89-0.22-2.82c-0.09-3.76,0.31-7.44,1.02-10.96C476.18,145.3,476.22,145.1,476.17,144.91"/>
				<path class="st1" d="M425.73,124.21c0.13,0.19,0.38,0.33,0.63,0.47c3.7,2.09,7.35,4.66,10.4,7.27c0.36,0.31,0.66,0.48,0.99,0.4
					c0.34-0.08,0.66-0.52,0.96-1.01c1.82-2.97,3.75-5.12,5.51-5.96l0.02-0.01c1.76-0.84,4.65-0.99,8.1-0.53
					c0.57,0.08,1.11,0.1,1.38-0.11c0.28-0.21,0.33-0.54,0.32-1.02c-0.11-4.01,0.19-8.47,0.9-12.66c0.05-0.28,0.09-0.57,0.03-0.79
					c-0.06-0.22-0.2-0.52-0.36-0.75c-8.49-11.77-23.99-16.4-25.43-15.71l-0.01,0.01c-1.45,0.69-7.6,15.64-3.79,29.65
					C425.45,123.73,425.6,124.03,425.73,124.21"/>
			</g>
		</g>
	</g>
</g>
</svg>
